<svg width="62" height="62" viewBox="0 0 62 62" fill="none" xmlns="http://www.w3.org/2000/svg">
<circle cx="31" cy="31" r="31" fill="white"/>
<path d="M12.0438 29.723C15.7271 38.1845 25.0733 39.6034 36.228 32.4314C41.3728 37.1933 42.6546 42.8383 38.3616 48.5208C36.0975 49.4732 33.6104 50 31 50C20.5067 50 12 41.4933 12 31C12 30.571 12.0157 30.1451 12.0438 29.723ZM29.4197 26.0502C31.083 19.1189 35.7274 15.143 43.0282 16.2924C47.2839 19.7766 50 25.0708 50 31C50 38.4805 45.6766 44.95 39.3927 48.0491C45.1011 39.9171 40.4362 31.3375 29.4197 26.0502ZM31 12C35.0724 12 38.8449 13.2818 41.9379 15.463C31.5546 14.256 26.6512 22.9109 27.3361 34.8629C20.5893 36.9323 15.093 35.4076 12.1884 28.3247C13.4888 19.0981 21.4149 12 31 12Z" fill="#662D91"/>
</svg>
