<svg width="62" height="62" viewBox="0 0 62 62" fill="none" xmlns="http://www.w3.org/2000/svg">
<circle cx="31" cy="31" r="31" fill="white"/>
<path d="M45.9213 30.9396C45.9213 30.0402 45.564 29.1776 44.928 28.5416C44.292 27.9056 43.4295 27.5483 42.53 27.5483C42.411 27.549 42.292 27.555 42.1735 27.5665L46.8322 13.8271H27.0352L31.6874 27.5548C31.6197 27.5548 31.5508 27.5483 31.4818 27.5483C30.672 27.5474 29.8885 27.8363 29.2732 28.3628C28.6579 28.8893 28.2512 29.6186 28.1269 30.4188C28.0025 31.219 28.1686 32.0374 28.5952 32.7258C29.0217 33.4142 29.6805 33.9272 30.4524 34.1721C29.7308 35.414 28.8326 36.5445 27.786 37.5282C26.4242 38.8319 24.805 39.8368 23.0323 40.4783C22.0394 40.0077 21.2628 39.1769 20.8604 38.1545C20.458 37.132 20.4598 35.9948 20.8656 34.9737C20.9671 34.7395 21.0664 34.5035 21.1636 34.2658C21.9197 34.0877 22.5918 33.6555 23.0676 33.0415C23.5434 32.4274 23.7941 31.6686 23.7777 30.892C23.7613 30.1153 23.4789 29.3678 22.9776 28.7744C22.4763 28.1809 21.7866 27.7775 21.0236 27.6315C20.2606 27.4854 19.4707 27.6057 18.7857 27.9721C18.1007 28.3385 17.5622 28.9289 17.2602 29.6446C16.9582 30.3603 16.911 31.158 17.1264 31.9044C17.3418 32.6507 17.8069 33.3005 18.4438 33.7452C17.3596 35.7072 16.5333 37.801 15.9856 39.9747C15.5249 42.753 15.9856 45.7005 18.3866 47.3675C23.9823 51.2468 30.0581 44.9627 36.4633 43.3842C38.7848 42.8116 41.3328 42.904 43.3772 41.7198C44.1158 41.2991 44.7527 40.721 45.2428 40.0265C45.7329 39.332 46.064 38.5381 46.2128 37.7013C46.3488 36.9038 46.3231 36.0872 46.1373 35.2999C45.9516 34.5125 45.6095 33.7706 45.1314 33.118C45.6416 32.5083 45.9208 31.7385 45.92 30.9435L45.9213 30.9396ZM34.8743 30.9578V30.9461C34.8753 30.3625 34.7253 29.7886 34.4389 29.2801C34.1525 28.7716 33.7395 28.3458 33.2399 28.0441L36.9409 20.5472L40.6496 28.1131C40.1844 28.4223 39.8029 28.8419 39.5392 29.3344C39.2756 29.8269 39.138 30.377 39.1388 30.9357V31.0099L34.8743 30.9578Z" fill="#C63D14"/>
<path d="M46.7503 30.9401C46.7483 29.957 46.4038 29.0053 45.7761 28.2486C45.1484 27.492 44.2767 26.9777 43.3109 26.7941L47.9879 13H25.881L30.5658 26.8214C29.7479 27.0042 29.003 27.4265 28.4262 28.0344C27.8494 28.6424 27.4668 29.4084 27.3271 30.2347C27.1875 31.061 27.2972 31.9102 27.6423 32.6739C27.9873 33.4376 28.552 34.0812 29.2644 34.5226C28.6748 35.396 27.9905 36.2017 27.224 36.9249C26.0364 38.0623 24.64 38.9594 23.1118 39.5666C22.3948 39.1504 21.8513 38.4903 21.5804 37.7067C21.3095 36.9232 21.3292 36.0684 21.6361 35.2982L21.6881 35.1772L21.7844 34.9495C22.6517 34.6488 23.3974 34.0736 23.9086 33.3112C24.4198 32.5487 24.6686 31.6404 24.6174 30.7239C24.5661 29.8074 24.2176 28.9325 23.6246 28.2318C23.0316 27.5311 22.2265 27.0426 21.331 26.8405C20.4356 26.6384 19.4987 26.7335 18.6622 27.1115C17.8257 27.4895 17.1351 28.1298 16.6951 28.9355C16.2551 29.7411 16.0896 30.6682 16.2236 31.5763C16.3577 32.4844 16.784 33.3241 17.438 33.9683C17.2966 34.2684 17.1495 34.5747 16.9968 34.887C16.1531 36.4383 15.5394 38.1041 15.175 39.832C14.5699 43.4757 15.5459 46.3946 17.9221 48.0408C19.1977 48.9531 20.7276 49.4415 22.2958 49.4371C25.0703 49.4371 27.8772 48.0434 30.6243 46.6796C32.5438 45.636 34.5688 44.7993 36.6651 44.1837C37.4159 43.9989 38.1889 43.887 39.0075 43.7685C40.6749 43.6346 42.3009 43.1804 43.7963 42.4308C44.6395 41.9491 45.3665 41.288 45.9258 40.4941C46.4851 39.7003 46.863 38.7932 47.0327 37.8371C47.3086 36.2127 46.9894 34.5433 46.1335 33.1354C46.5401 32.475 46.7542 31.7143 46.7516 30.9388L46.7503 30.9401ZM45.0938 30.9401C45.0938 31.4471 44.9434 31.9428 44.6617 32.3643C44.38 32.7859 43.9796 33.1145 43.5112 33.3085C43.0428 33.5026 42.5273 33.5533 42.03 33.4544C41.5327 33.3555 41.0759 33.1113 40.7174 32.7528C40.3589 32.3943 40.1147 31.9375 40.0158 31.4402C39.9169 30.9429 39.9676 30.4275 40.1617 29.959C40.3557 29.4906 40.6843 29.0902 41.1059 28.8085C41.5275 28.5268 42.0231 28.3765 42.5301 28.3765C43.2101 28.3765 43.8621 28.6466 44.3429 29.1273C44.8237 29.6081 45.0938 30.2602 45.0938 30.9401ZM45.6754 14.6566L41.545 26.837C41.368 26.879 41.194 26.9334 41.0245 26.9997L36.9449 18.6712L32.8522 26.9502C32.6743 26.8877 32.492 26.8381 32.3069 26.8019L28.1908 14.6566H45.6754ZM31.4819 28.3765C31.9889 28.3765 32.4846 28.5268 32.9062 28.8085C33.3277 29.0902 33.6563 29.4906 33.8504 29.959C34.0444 30.4275 34.0952 30.9429 33.9962 31.4402C33.8973 31.9375 33.6532 32.3943 33.2946 32.7528C32.9361 33.1113 32.4793 33.3555 31.982 33.4544C31.4847 33.5533 30.9693 33.5026 30.5008 33.3085C30.0324 33.1145 29.632 32.7859 29.3503 32.3643C29.0686 31.9428 28.9183 31.4471 28.9183 30.9401C28.9183 30.2602 29.1884 29.6081 29.6691 29.1273C30.1499 28.6466 30.802 28.3765 31.4819 28.3765ZM20.392 28.4012C20.8992 28.4014 21.395 28.5522 21.8166 28.8343C22.2381 29.1165 22.5665 29.5173 22.7601 29.9862C22.9538 30.455 23.004 30.9707 22.9044 31.4681C22.8048 31.9655 22.5599 32.4222 22.2007 32.7803C21.8414 33.1384 21.384 33.382 20.8863 33.48C20.3887 33.5781 19.8731 33.5263 19.4048 33.3313C18.9366 33.1362 18.5367 32.8066 18.2559 32.3842C17.975 31.9618 17.8258 31.4655 17.8271 30.9583C17.8271 30.2784 18.0972 29.6263 18.5779 29.1455C19.0587 28.6648 19.7108 28.3947 20.3907 28.3947L20.392 28.4012ZM45.3996 37.5547C45.2709 38.272 44.9862 38.9523 44.5654 39.5473C44.1447 40.1424 43.5982 40.6376 42.9648 40.998C41.6506 41.6361 40.2275 42.0198 38.7706 42.1289C37.9482 42.2473 37.0984 42.3696 36.2669 42.5752C34.0533 43.2163 31.9154 44.0946 29.8904 45.1948C25.773 47.2392 22.2125 49.0051 18.8655 46.6822C16.4099 44.9801 16.5232 41.8309 16.8094 40.1053C17.146 38.5349 17.7079 37.0214 18.4777 35.6118L18.8291 34.8844C19.1786 35.0244 19.5454 35.1163 19.9196 35.1577C19.5884 36.3275 19.681 37.5768 20.1809 38.685C20.6809 39.7933 21.5562 40.6894 22.6524 41.2153L22.9712 41.3793L23.3083 41.2596C25.1888 40.582 26.9065 39.5181 28.3509 38.1364C29.3062 37.2392 30.1448 36.2253 30.8468 35.1186C31.7462 35.2554 32.6657 35.0978 33.4681 34.6692C34.2706 34.2405 34.9129 33.564 35.2993 32.7404C35.6857 31.9168 35.7954 30.9904 35.6122 30.0993C35.4289 29.2082 34.9624 28.4003 34.2823 27.7961L36.9344 22.4333L39.6139 27.8989C38.8515 28.6336 38.3935 29.6282 38.3308 30.6852C38.2681 31.7421 38.6054 32.7839 39.2755 33.6036C39.9457 34.4232 40.8997 34.9608 41.948 35.1094C42.9963 35.2579 44.0621 35.0067 44.9337 34.4055C45.4167 35.381 45.5784 36.4843 45.3957 37.5573L45.3996 37.5547Z" fill="white"/>
</svg>
