<svg width="68" height="47" viewBox="0 0 68 47" fill="none" xmlns="http://www.w3.org/2000/svg">
<path d="M14.8615 0.0107203C13.3723 0.0733897 2.0136 1.02462 1.20664 1.09848C0.399681 1.16563 -0.488884 1.53269 0.318078 3.46425C1.12504 5.39581 14.0206 33.4583 14.3832 34.2774C14.7437 35.0922 15.6798 36.4261 17.8672 35.8889C20.109 35.3406 27.8863 33.2882 32.1364 32.1624C34.3782 36.2717 38.9593 44.6022 39.8071 45.7929C40.9336 47.391 41.7202 47.118 43.452 46.583C44.812 46.1645 64.6597 38.9575 65.5528 38.5927C66.4459 38.2167 66.9944 37.9615 66.3915 37.0483C65.9427 36.3858 60.7042 29.3019 57.9637 25.5888C59.8451 25.0852 66.5275 23.2902 67.2392 23.0865C68.0779 22.8694 68.1913 22.4665 67.7356 21.9517C67.2891 21.4369 61.0646 13.5719 59.9698 12.2424C58.8749 10.913 58.3309 11.1457 57.6622 11.2397C56.9822 11.336 49.1121 12.6767 48.1986 12.8288C47.2851 12.9878 46.7093 13.3526 47.2715 14.1494C47.7701 14.8544 52.9474 22.274 54.0944 23.9057L33.5123 28.8789L17.1373 1.25292C16.489 0.277065 16.3485 -0.0676165 14.8615 0.0107203ZM14.6031 1.92885C14.9885 1.90647 14.9431 1.99152 15.0814 2.22653C15.0814 2.22653 30.1915 28.5589 30.4454 29.0177C30.722 29.481 30.5655 29.622 30.3207 29.6757C30.0759 29.7294 18.545 32.516 17.9284 32.657C17.3119 32.7958 17.3119 32.7309 17.2371 32.516C17.1623 32.3011 3.53686 3.90294 3.34645 3.54706C3.15604 3.19343 3.16511 2.91366 3.34645 2.91366C3.52779 2.91366 14.2314 1.95123 14.6031 1.92885ZM58.4148 13.0818C58.5689 13.1153 58.7299 13.2295 58.9203 13.4914C59.3056 14.0173 64.5101 20.6782 64.7118 20.9356C64.9022 21.184 64.5599 21.3362 64.1134 21.4437C63.6668 21.5399 56.2931 23.3842 56.2931 23.3842L50.2704 15.0402C50.1004 14.794 49.9621 14.5545 50.3882 14.503C50.8121 14.4471 57.6554 13.1892 57.9637 13.1243C58.1178 13.0862 58.2629 13.046 58.4171 13.0795L58.4148 13.0818ZM55.595 25.9984C55.7378 26.014 55.8579 26.1148 56.0166 26.3654C56.3271 26.8825 62.6491 35.542 62.8304 35.833C63.0118 36.124 63.1976 36.3164 62.6128 36.5201C62.0393 36.735 43.0984 43.1832 42.738 43.3466C42.3662 43.5055 42.0761 43.557 41.6091 42.8587C41.1422 42.1604 34.9834 31.4014 34.9834 31.4014L55.0373 26.1349C55.2867 26.0543 55.4544 25.9805 55.595 25.9984Z" fill="#FB503B"/>
</svg>
