<svg width="571" height="348" viewBox="0 0 571 348" fill="none" xmlns="http://www.w3.org/2000/svg">
<g clip-path="url(#clip0_200_8616)">
<path d="M404.442 64.6064L402.842 55.4719C402.708 54.7103 402.061 54.1499 401.29 54.1212C400.054 54.0924 393.583 53.829 392.223 53.829C390.484 49.494 387.936 45.4896 384.765 42.0648C389.785 30.1281 390.403 33.8595 380.171 26.3823C379.558 25.9417 378.662 26.0039 378.121 26.526C377.963 26.6985 371.621 32.5471 371.501 32.7291C367.262 30.9233 362.669 29.8599 357.912 29.6779C357.601 28.7917 354.914 22.2677 354.506 21.2379C354.219 20.5242 353.467 20.1123 352.71 20.2464C340.203 22.7132 342.44 19.4704 341.928 32.4608C337.512 34.2379 333.545 36.791 330.164 39.9188C329.967 39.756 322.011 36.4844 321.781 36.3551C321.072 36.0533 320.253 36.2928 319.813 36.9203C312.723 47.4295 312.034 43.7125 320.828 53.1871C319.022 57.4263 317.959 62.0198 317.777 66.7763C305.74 71.7196 308.005 68.5151 309.94 81.1127C310.074 81.8743 310.721 82.4348 311.492 82.4635C313.308 82.4875 318.826 82.7605 320.56 82.7605C322.337 87.1769 324.89 91.143 328.018 94.5247C323.98 105.436 321.417 102.438 330.652 108.832C331.687 109.455 333.426 111.362 334.661 110.063C334.82 109.886 341.161 104.047 341.281 103.86C341.415 103.918 341.545 103.971 341.679 104.028C345.86 105.752 350.349 106.739 354.87 106.912C354.899 107.194 357.864 114.245 357.936 114.518C358.223 115.49 358.884 116.597 360.068 116.348C372.574 113.881 370.342 117.119 370.85 104.129C375.266 102.352 379.232 99.8033 382.614 96.6706C382.815 96.8287 390.767 100.105 390.997 100.234C391.705 100.531 392.525 100.297 392.965 99.6691C400.05 89.1599 400.744 92.8721 391.95 83.4071C393.756 79.168 394.819 74.5744 395.001 69.8179C395.245 69.7844 403.197 66.4841 403.446 66.4123C404.159 66.1105 404.571 65.3633 404.442 64.6064ZM355.1 98.898C350.133 98.7016 345.228 97.255 340.941 94.745C340.941 94.745 340.941 94.745 340.941 94.7402C308.432 74.6941 333.191 25.8986 368.565 40.2781C399.283 53.8769 388.712 100.052 355.1 98.898Z" fill="#D7EBF4"/>
<path d="M359.09 48.8615C340.84 45.9539 329.234 69.2956 342.54 82.0896C355.502 95.5016 379.179 83.2679 375.596 64.8552C374.102 56.3003 367.252 50.0254 359.09 48.8615Z" fill="#D7EBF4"/>
<path d="M297.755 95.1281C296.984 94.879 292.97 93.4899 292.117 93.2313C291.844 90.1848 291.001 87.1863 289.655 84.4368C295.058 77.8889 294.742 80.351 289.732 73.7216C289.43 73.3289 288.855 73.1995 288.414 73.4247C288.285 73.5013 283.198 75.9777 283.088 76.0687C280.765 74.1336 278.082 72.6008 275.132 71.5901C275.103 70.9722 274.648 66.369 274.586 65.6457C274.538 65.1428 274.145 64.7452 273.647 64.6829C265.331 63.8686 267.343 62.2592 264.575 70.3159C261.466 70.5986 258.496 71.4512 255.78 72.778C255.684 72.6391 251.311 69.0849 251.191 68.9604C250.803 68.6395 250.243 68.6299 249.85 68.946C243.417 74.2054 243.685 71.7434 247.417 79.3499C245.482 81.673 243.949 84.3554 242.938 87.306C234.45 88.1395 236.477 86.554 235.313 94.8263C235.25 95.3293 235.552 95.8035 236.031 95.9663C237.166 96.3256 240.582 97.5375 241.669 97.8632C241.951 100.972 242.804 103.942 244.131 106.658C239.537 112.746 238.493 110.379 243.082 116.137C243.614 116.726 244.346 118.249 245.367 117.67C245.496 117.588 250.583 115.117 250.693 115.026C250.765 115.088 250.837 115.145 250.909 115.208C253.208 117.081 255.838 118.546 258.645 119.509C258.606 119.691 259.138 124.678 259.133 124.864C259.133 125.53 259.334 126.349 260.125 126.416C268.445 127.231 266.428 128.84 269.202 120.783C272.31 120.501 275.28 119.648 277.996 118.321C278.092 118.46 282.465 122.014 282.585 122.139C282.973 122.46 283.533 122.469 283.931 122.153C290.364 116.894 290.096 119.356 286.364 111.749C288.299 109.426 289.832 106.744 290.843 103.793C291.006 103.817 296.62 103.247 296.787 103.247C297.29 103.199 297.688 102.806 297.75 102.308L298.473 96.2729C298.536 95.7652 298.239 95.2909 297.755 95.1281ZM260.307 114.518C257.227 113.459 254.42 111.625 252.202 109.239C235.581 90.5153 260.335 64.5584 279.831 80.2648C296.543 94.5964 281.186 121.588 260.307 114.518Z" fill="#D7EBF4"/>
<path d="M272.258 83.862C261.351 78.593 249.654 91.0566 255.599 101.599C261.203 112.463 278.38 109.259 279.606 97.0201C280.277 91.3631 277.163 86.1325 272.258 83.862Z" fill="#D7EBF4"/>
<path d="M306.353 31.9387C305.859 31.7806 303.311 30.8944 302.765 30.7316C302.592 28.7916 302.056 26.8852 301.199 25.1369C304.638 20.9696 304.437 22.5359 301.246 18.3207C301.055 18.0716 300.691 17.9902 300.408 18.1291C300.327 18.177 297.089 19.7529 297.017 19.8104C295.542 18.5794 293.832 17.6022 291.954 16.9604C291.935 16.5676 291.647 13.6409 291.609 13.1811C291.58 12.8601 291.331 12.6063 291.01 12.5679C285.717 12.0506 287.001 11.0256 285.238 16.1509C283.26 16.3329 281.373 16.8741 279.644 17.7172C279.586 17.6262 276.798 15.3653 276.722 15.2887C276.473 15.0827 276.118 15.0779 275.869 15.2791C271.774 18.6273 271.946 17.061 274.322 21.8988C273.091 23.3742 272.114 25.0842 271.472 26.9619C266.069 27.4888 267.362 26.4829 266.62 31.7471C266.581 32.068 266.773 32.3698 267.079 32.4703C267.803 32.7003 269.973 33.4715 270.667 33.6774C270.849 35.6557 271.39 37.5429 272.233 39.2721C269.312 43.1472 268.646 41.6384 271.568 45.3027C271.908 45.6763 272.372 46.6487 273.024 46.2751C273.105 46.2224 276.343 44.6513 276.415 44.5938C276.463 44.6321 276.506 44.6704 276.554 44.7088C278.015 45.9015 279.691 46.8355 281.478 47.4438C281.454 47.5588 281.794 50.7346 281.789 50.8495C281.789 51.271 281.919 51.7932 282.422 51.8363C287.715 52.3536 286.431 53.3786 288.198 48.2486C290.177 48.0713 292.064 47.5253 293.793 46.6822C293.855 46.7685 296.638 49.0341 296.715 49.1108C296.964 49.3167 297.319 49.3215 297.568 49.1203C301.658 45.7721 301.491 47.3385 299.115 42.5006C300.346 41.0253 301.323 39.3152 301.965 37.4376C302.065 37.4519 305.639 37.0927 305.749 37.0927C306.07 37.0639 306.324 36.8149 306.362 36.4939L306.822 32.6524C306.851 32.3458 306.659 32.044 306.353 31.9387ZM282.522 44.2777C280.563 43.6023 278.777 42.4335 277.364 40.9151C266.787 29.0024 282.537 12.4865 294.943 22.4784C305.581 31.5986 295.81 48.7803 282.522 44.2777Z" fill="#D7EBF4"/>
<path d="M290.13 24.7728C283.189 21.4198 275.745 29.352 279.529 36.058C283.098 42.97 294.024 40.9294 294.805 33.1457C295.231 29.5436 293.248 26.2146 290.13 24.7728Z" fill="#D7EBF4"/>
<path d="M522.9 161.244V163.859L455.687 170.896L447.869 193.251L445.254 163.117L522.9 161.244Z" fill="#D7EBF4"/>
<path d="M447.428 190.64V193.251L380.215 200.292L372.393 222.647L369.782 192.513L447.428 190.64Z" fill="#D7EBF4"/>
<path d="M371.952 220.037V222.647L304.744 229.688L296.922 252.043L294.312 221.91L371.952 220.037Z" fill="#D7EBF4"/>
<path d="M296.482 249.433V252.043L229.273 259.084L221.451 281.439L218.836 251.306L296.482 249.433Z" fill="#D7EBF4"/>
<path d="M221.011 278.829V281.439L153.798 288.48L145.981 310.835L143.365 280.702L221.011 278.829Z" fill="#D7EBF4"/>
<path d="M145.539 308.225V310.572L78.9824 316.905L71.237 337.013L68.6504 309.911L145.539 308.225Z" fill="#D7EBF4"/>
<path d="M294.306 222.65H372.833V217.424H294.306V222.65Z" fill="#52ACEB"/>
<path d="M522.9 158.629H444.373V163.855H522.9V158.629Z" fill="#E65247"/>
<path d="M369.339 193.254H447.866V188.029H369.339V193.254Z" fill="#FCA51F"/>
<path d="M219.279 252.045H297.806V246.82H219.279V252.045Z" fill="#3DA863"/>
<path d="M144.246 281.441H222.773V276.215H144.246V281.441Z" fill="#FFC138"/>
<path d="M147.742 305.61H69.2148V310.836H147.742V305.61Z" fill="#E65247"/>
<path d="M447.866 193.253V158.631H442.64V193.253H447.866Z" fill="#52ACEB"/>
<path d="M372.834 222.65V188.028H367.608V222.65H372.834Z" fill="#52ACEB"/>
<path d="M297.802 252.042V217.42H292.576V252.042H297.802Z" fill="#52ACEB"/>
<path d="M222.771 281.439V246.817H217.546V281.439H222.771Z" fill="#52ACEB"/>
<path d="M147.739 310.836V276.214H142.513V310.836H147.739Z" fill="#52ACEB"/>
<path d="M71.8262 337.014V305.611H66.6003V337.014H71.8262Z" fill="#52ACEB"/>
<path d="M492.3 94.2183H480.493C476.287 104.747 472.929 115.658 470.309 126.91H502.488C500.07 114.375 496.97 102.989 492.3 94.2183Z" fill="#FFC138"/>
<path d="M493.301 96.1865L492.113 97.8055C492.113 97.8055 502.522 120.922 493.225 123.825C490.561 124.653 491.505 125.76 494.211 126.909H502.488C500.247 115.294 497.421 104.665 493.301 96.1865Z" fill="#F9B52D"/>
<path d="M503.504 120.031C503.37 118.982 502.474 118.197 501.42 118.197H471.19C470.132 118.197 469.241 118.982 469.107 120.031L467.172 135.01H505.444L503.504 120.031Z" fill="#FFC138"/>
<path d="M486.386 100.047C481.323 100.047 477.218 95.9424 477.218 90.8794H495.558C495.554 95.9424 491.449 100.047 486.386 100.047Z" fill="#FFC138"/>
<path d="M493.115 90.8794C492.44 95.2766 488.637 98.6392 484.053 98.6392C482.802 98.6392 481.615 98.3901 480.532 97.935C482.122 99.2523 484.158 100.047 486.385 100.047C491.448 100.047 495.553 95.9424 495.553 90.8794H493.115Z" fill="#F9B52D"/>
<path d="M531.751 38.0602C529.48 35.5119 526.218 34.0461 522.808 34.0461H508.629V40.8144H522.808C524.312 40.8144 525.696 41.4323 526.697 42.558C527.689 43.674 528.144 45.1014 527.971 46.5768C526.223 61.6461 519.268 70.6321 506.081 74.852L508.146 81.2994C515.656 78.8948 521.677 74.9766 526.046 69.6501C530.73 63.9357 533.643 56.4345 534.696 47.3623C535.084 43.9902 534.011 40.5988 531.751 38.0602Z" fill="#FFC138"/>
<path d="M525.562 41.6001C525.347 41.1211 525.059 40.6756 524.695 40.2685C523.694 39.1428 522.31 38.5249 520.806 38.5249H508.625V40.8145H522.803C523.804 40.8193 524.748 41.0923 525.562 41.6001Z" fill="#F9B52D"/>
<path d="M531.751 38.06C531.434 37.7056 531.099 37.3751 530.749 37.0637C532.316 39.406 533.02 42.2417 532.694 45.0678C531.64 54.14 528.728 61.6411 524.043 67.3556C519.9 72.409 514.267 76.1931 507.288 78.6217L508.145 81.2993C515.656 78.8947 521.677 74.9765 526.046 69.65C530.73 63.9355 533.643 56.4344 534.696 47.3622C535.084 43.99 534.011 40.5987 531.751 38.06Z" fill="#F9B52D"/>
<path d="M444.151 46.0977C443.979 44.6223 444.434 43.1901 445.425 42.0789C446.427 40.9532 447.806 40.3353 449.315 40.3353H463.493V33.5623H449.315C445.9 33.5623 442.642 35.0232 440.372 37.5763C438.111 40.115 437.038 43.5063 437.431 46.8784C438.485 55.9507 441.397 63.4518 446.082 69.1662C450.445 74.4927 456.902 78.5067 464.413 80.9113L466.046 74.3682C452.855 70.1482 445.9 61.167 444.151 46.0977Z" fill="#FFC138"/>
<path d="M461.996 36.9155H447.817C446.313 36.9155 444.929 37.5334 443.928 38.659C442.936 39.7751 442.481 41.2025 442.654 42.6778C443.276 48.0331 444.56 52.6171 446.543 56.497C445.394 53.4122 444.603 49.9538 444.153 46.0931C443.981 44.6178 444.436 43.1856 445.427 42.0743C446.428 40.9487 447.813 40.3308 449.317 40.3308H463.495V33.5625H461.996V36.9155Z" fill="#F9B52D"/>
<path d="M463.71 73.5494L462.479 77.4006C454.968 74.996 448.947 71.0778 444.579 65.7514C442.945 63.7587 441.532 61.5457 440.335 59.1316C441.786 62.9157 443.702 66.2735 446.078 69.1666C450.442 74.4931 456.894 78.5071 464.409 80.9117L466.043 74.3685C465.238 74.1147 464.462 73.8416 463.71 73.5494Z" fill="#F9B52D"/>
<path d="M508.59 28.8251C493.636 30.6788 478.806 30.5974 464.096 28.8107C462.396 28.6048 460.896 29.9268 460.896 31.6416V68.0791C460.896 81.7305 471.645 92.872 485.143 93.5043C499.714 94.1845 511.799 82.3005 511.799 67.715V31.6512C511.799 29.9364 510.295 28.6143 508.59 28.8251Z" fill="#FFC138"/>
<path d="M511.801 33.227V36.1154C510.828 36.5034 509.554 36.9249 507.901 37.332C503.701 38.3667 497.076 39.2959 486.83 39.2959C472.906 39.2959 464.988 37.7009 460.893 36.4315V33.1121C463.115 33.888 471.244 36.2878 486.581 36.2878C496.013 36.2878 503.174 35.2292 507.897 34.2042C509.473 33.8545 510.775 33.5192 511.801 33.227Z" fill="#F9B52D"/>
<path d="M511.8 33.2271V68.079C511.8 75.1059 508.95 81.4718 504.347 86.075C499.739 90.683 493.378 93.5282 486.346 93.5282C479.406 93.5282 473.112 90.75 468.518 86.2378C470.52 87.5503 472.719 88.5849 475.056 89.2939C477.399 90.0028 479.88 90.386 482.447 90.386C496.506 90.386 507.901 78.9906 507.901 64.932V34.1994C509.472 33.8545 510.775 33.5192 511.8 33.2271Z" fill="#F9B52D"/>
<path d="M498.177 135.01H505.439L503.504 120.031C503.37 118.982 502.474 118.197 501.42 118.197C501.42 118.197 506.162 130.632 498.177 135.01Z" fill="#F9B52D"/>
<path d="M504.802 134.631H467.339C464.824 134.631 462.784 136.672 462.784 139.187V139.69H509.362V139.187C509.362 136.672 507.321 134.631 504.802 134.631Z" fill="#FFC138"/>
<path d="M510.775 138.31H461.371C458.947 138.31 456.983 140.274 456.983 142.698V154.242C456.983 156.665 458.947 158.629 461.371 158.629H510.775C513.198 158.629 515.162 156.665 515.162 154.242V142.698C515.162 140.279 513.198 138.31 510.775 138.31Z" fill="#005387"/>
<path d="M506.105 144.11H466.041C464.245 144.11 462.784 145.567 462.784 147.368V149.571C462.784 151.367 464.24 152.828 466.041 152.828H506.105C507.901 152.828 509.362 151.372 509.362 149.571V147.368C509.362 145.571 507.901 144.11 506.105 144.11Z" fill="#CCCCCC"/>
<path d="M469.107 80.4037C469.021 80.1881 468.959 79.963 468.872 79.7474C468.767 79.4744 468.609 79.2253 468.484 78.9619C468.259 78.4924 468.001 78.0326 467.771 77.568C467.316 76.6531 466.889 75.7286 466.525 74.7754C465.783 72.8115 465.242 70.7758 464.873 68.7113C464.494 66.6037 464.303 64.4722 464.24 62.3358C464.169 59.9456 464.279 57.5746 464.375 55.1892C464.427 53.8575 464.509 52.5307 464.605 51.2039C464.7 49.8579 464.767 48.5119 464.858 47.1659C464.882 46.7779 464.231 46.6821 464.173 47.0749C463.991 48.2772 463.79 49.4651 463.637 50.6722C463.484 51.8793 463.335 53.0911 463.211 54.303C462.957 56.7124 462.866 59.1457 462.895 61.5694C462.947 65.9379 463.546 70.3686 465.002 74.5024C465.404 75.6376 465.869 76.7537 466.406 77.8362C466.664 78.3631 466.947 78.8948 467.273 79.3834C467.435 79.6325 467.617 79.8672 467.799 80.1067C467.996 80.3653 468.24 80.5713 468.475 80.7916C468.724 81.012 469.256 80.7773 469.107 80.4037Z" fill="#A6A39A"/>
<path d="M470.223 81.582C469.279 81.582 469.279 83.0478 470.223 83.0478C471.167 83.043 471.167 81.582 470.223 81.582Z" fill="#A6A39A"/>
<path d="M534.773 340.146H0V340.701H534.773V340.146Z" fill="white"/>
<path d="M208.004 346.708H98.2178V347.264H208.004V346.708Z" fill="white"/>
<path d="M245.832 346.708H221.149V347.264H245.832V346.708Z" fill="white"/>
<path d="M219.155 99.5495C219.155 99.5495 225.282 110.686 224.76 111.29C215.366 122.115 183.479 116.516 179.782 115.155C168.956 111.175 173.502 87.1482 179.274 88.8103C191.067 92.2016 210.806 99.5543 219.155 99.5495Z" fill="#005387"/>
<path d="M60.9851 152.608L54.6911 160.689C53.0193 162.835 53.4265 165.943 55.6012 167.634L74.8138 182.593C76.9884 184.284 80.1019 183.915 81.7736 181.769L88.0677 173.689C89.7394 171.543 89.3322 168.434 87.1576 166.743L67.945 151.784C65.7703 150.093 62.652 150.462 60.9851 152.608ZM63.7537 154.768C64.2471 154.136 65.1668 154.026 65.8086 154.524L85.0213 169.483C85.6631 169.981 85.7829 170.901 85.2895 171.538L78.9955 179.619C78.5021 180.251 77.5824 180.361 76.9405 179.863L57.7279 164.904C57.086 164.406 56.9663 163.486 57.4597 162.849L63.7537 154.768Z" fill="#3F81AB"/>
<path d="M68.0651 157.235L81.2232 167.476C82.2578 168.286 83.7475 168.108 84.5427 167.083C85.3378 166.058 85.1462 164.573 84.1068 163.769L70.9487 153.528C69.914 152.718 68.4243 152.895 67.6292 153.92C66.8341 154.945 67.0257 156.43 68.0651 157.235Z" fill="#004C72"/>
<path d="M38.3623 145.121L8.22846 183.829C7.14113 185.228 7.40937 187.244 8.82242 188.341L65.0521 232.112C66.4651 233.209 68.4865 232.974 69.5738 231.581L99.7076 192.873C100.795 191.479 100.527 189.457 99.1137 188.361L42.884 144.59C41.471 143.493 39.4448 143.727 38.3623 145.121Z" fill="#3F81AB"/>
<path d="M27.0385 159.664L8.22821 183.829C7.14089 185.228 7.40913 187.244 8.82217 188.341L15.145 193.261C7.86897 186.454 19.6667 169.397 25.4386 170.906C39.4158 174.556 76.1406 208.962 83.1676 208.842L89.2125 205.178C89.2125 205.178 66.6708 182.938 65.1812 181.568C63.6915 180.193 45.0967 163.697 45.0967 163.697C45.0967 163.697 32.8679 160.602 27.0385 159.664Z" fill="#CFEBFC"/>
<path d="M38.3629 145.126L26.3496 160.56C25.2623 161.953 25.5306 163.975 26.9388 165.072L83.1685 208.843C84.5815 209.94 86.6029 209.7 87.6902 208.306L99.7035 192.873C100.791 191.479 100.523 189.458 99.1143 188.361L42.8799 144.59C41.4716 143.493 39.4455 143.732 38.3629 145.126Z" fill="#5894B9"/>
<path d="M66.6907 208.488L68.1804 209.647C69.0761 210.347 70.3646 210.184 71.064 209.288L91.7902 182.661C91.9483 182.455 91.9148 182.158 91.7088 182L87.7187 178.891C87.5128 178.733 87.2158 178.766 87.0577 178.972L66.3314 205.6C65.6321 206.5 65.795 207.789 66.6907 208.488Z" fill="#004C72"/>
<path d="M69.0269 200.081C67.5995 201.916 67.9444 204.579 69.8029 206.026C71.6614 207.472 74.3246 207.156 75.752 205.322C77.1794 203.487 76.8346 200.824 74.9761 199.377C73.1175 197.931 70.4543 198.242 69.0269 200.081ZM69.8077 200.685C70.8231 199.382 72.6577 199.075 74.0564 199.923L71.7284 202.912C71.5991 203.08 71.6279 203.324 71.8003 203.458C71.9679 203.592 72.2122 203.564 72.3464 203.396L74.6743 200.407C75.8383 201.557 75.9915 203.41 74.9761 204.713C73.8791 206.122 71.829 206.361 70.4064 205.255C68.979 204.143 68.7108 202.093 69.8077 200.685Z" fill="white"/>
<path d="M30.5789 180.376C31.8866 181.391 33.7595 181.171 34.7654 179.882L54.8019 154.141C55.0366 153.844 54.9791 153.408 54.6821 153.178L51.0322 150.338C50.7352 150.103 50.2993 150.16 50.0694 150.457L30.0329 176.199C29.027 177.487 29.276 179.36 30.5789 180.376Z" fill="#004C72"/>
<path d="M32.1731 171.39C30.7457 173.224 31.0906 175.888 32.9491 177.334C34.8076 178.781 37.4709 178.465 38.9031 176.63C40.3305 174.795 39.9856 172.132 38.1271 170.686C36.2638 169.239 33.6005 169.555 32.1731 171.39ZM32.9539 171.998C33.9694 170.695 35.8039 170.389 37.2026 171.236L34.8747 174.225C34.7454 174.393 34.7741 174.637 34.9465 174.771C35.1142 174.906 35.3585 174.877 35.4926 174.709L37.8205 171.72C38.9845 172.87 39.1378 174.724 38.1223 176.026C37.0254 177.435 34.9753 177.674 33.5527 176.568C32.1252 175.452 31.857 173.406 32.9539 171.998Z" fill="white"/>
<path d="M164.986 250.099L175.902 253.447C173.315 257.609 171.663 260.143 171.663 260.143L163.194 258.294C163.707 256.527 164.31 253.595 164.986 250.099Z" fill="#FFD4C2"/>
<path d="M188.041 272.851C188.065 272.798 188.065 272.746 188.056 272.693C188.17 272.53 188.276 272.348 188.362 272.133C189.243 269.604 187.117 268.052 184.406 266.452C184.18 266.313 183.946 266.179 183.711 266.045C183.495 265.92 183.275 265.796 183.06 265.666C182.806 265.518 182.547 265.369 182.293 265.216C181.982 265.029 181.675 264.842 181.369 264.651C181.144 264.507 180.923 264.368 180.703 264.22C180.53 264.105 180.363 263.985 180.195 263.87C179.956 263.697 179.721 263.525 179.496 263.343C179.275 263.171 179.06 262.989 178.854 262.802C178.682 262.649 178.519 262.495 178.361 262.337C178.255 262.227 178.15 262.117 178.049 262.002C177.824 261.753 177.613 261.494 177.427 261.221C177.292 261.034 177.168 260.843 177.053 260.637C176.943 260.45 176.847 260.258 176.756 260.062C176.694 259.928 176.641 259.789 176.588 259.65C176.459 259.3 176.358 258.927 176.291 258.543C176.229 258.184 176.195 257.811 176.195 257.423C176.195 257.389 176.195 257.356 176.195 257.322C176.239 252.781 170.218 255.842 170.218 255.842C166.228 257.461 165.461 254.812 165.327 253.346C165.279 252.834 165.313 252.465 165.313 252.465C165.265 252.441 165.222 252.422 165.179 252.403C163.023 251.512 161.873 255.852 161.62 255.938C160.743 256.354 159.21 258.931 159.56 259.64C159.56 259.64 159.56 259.64 159.565 259.645C159.191 259.904 157.931 263.338 158.228 263.894C159.732 266.73 165.145 266.198 174.969 271.52C185.043 276.975 187.462 274.135 188.041 272.851Z" fill="#3E4647"/>
<path d="M183.451 190.008L206.15 192.758C207.956 206.519 179.7 250.099 177.133 254.223L164.032 250.099C165.143 244.37 177.214 197.442 183.451 190.008Z" fill="#005387"/>
<path d="M98.8126 266.078L108.91 272.468C104.91 276.889 101.931 280.233 100.8 281.765L93.1843 275.093C95.0764 272.779 96.9349 269.671 98.8126 266.078Z" fill="#FFD4C2"/>
<path d="M130.427 211.132C130.949 210.375 135.164 216.195 135.164 216.195L137.209 217.158L153.538 221.507C150.516 229.104 112.397 270.93 108.948 274.743L97.1169 265.953C99.785 260.857 119.73 226.647 130.427 211.132Z" fill="#004C72"/>
<path d="M140.141 237.975C138.297 239.623 128.994 217.239 129.392 216.267C133.622 205.911 124.602 158.121 160.019 143.33C160.383 143.177 174.806 146.678 178.384 158.883C180.626 168.018 156.786 229.181 140.141 237.975Z" fill="#004C72"/>
<path d="M189.688 205.14L206.151 192.758C202.64 172.127 160.158 169.584 140.188 155.132C133.698 150.438 129.21 168.333 128.908 173.339C127.145 202.62 179.476 202.362 189.688 205.14Z" fill="#005387"/>
<path d="M113.862 298.19C113.906 298.142 113.925 298.09 113.929 298.037C114.102 297.912 114.274 297.764 114.432 297.577C116.19 295.326 114.581 293.031 112.397 290.483C112.215 290.268 112.028 290.052 111.836 289.832C111.659 289.63 111.487 289.429 111.309 289.228C111.103 288.989 110.897 288.749 110.691 288.514C110.442 288.222 110.193 287.925 109.954 287.623C109.777 287.403 109.604 287.183 109.432 286.962C109.298 286.79 109.168 286.608 109.039 286.436C108.857 286.182 108.68 285.923 108.512 285.664C108.349 285.415 108.191 285.157 108.047 284.898C107.928 284.687 107.817 284.476 107.712 284.261C107.64 284.112 107.573 283.964 107.511 283.815C107.372 283.485 107.247 283.154 107.152 282.814C107.08 282.58 107.022 282.34 106.974 282.101C106.927 281.875 106.898 281.646 106.874 281.416C106.859 281.258 106.85 281.099 106.85 280.941C106.84 280.539 106.864 280.132 106.931 279.72C106.994 279.337 107.089 278.949 107.219 278.556C107.228 278.522 107.243 278.489 107.252 278.455C108.857 273.891 101.729 274.906 101.729 274.906C97.1454 275.165 97.2843 272.233 97.6579 270.705C97.7872 270.174 97.9453 269.814 97.9453 269.814C97.907 269.776 97.8687 269.738 97.8303 269.704C95.9622 268.066 93.3134 272.046 93.0212 272.046C93.0212 272.046 93.0212 272.046 93.0164 272.046C91.9913 272.166 89.558 274.235 89.6634 275.069V275.074C89.1988 275.203 86.7463 278.24 86.8517 278.901C87.393 282.278 93.0356 283.605 101.121 292.351C109.422 301.323 112.833 299.292 113.862 298.19Z" fill="#3E4647"/>
<path d="M170.015 86.6116C170.738 105.245 159.669 98.1938 152.565 86.0464C153.648 84.9926 154.179 83.685 154.452 82.1282C154.802 80.1595 154.74 77.8029 154.884 75.0678C154.907 74.6031 154.936 74.1289 154.975 73.6404L156.134 73.5062L158.878 73.1853L167.625 72.165C167.591 73.032 167.539 73.9469 167.481 74.8858C167.304 78.0424 167.132 81.4337 167.745 83.6945C168.022 84.7579 169.301 86.1805 170.015 86.6116Z" fill="#FFD4C2"/>
<path d="M207.794 46.9459C203.478 47.0225 208.512 55.6924 205.361 59.2322C204.312 59.2945 201.711 56.3247 201.126 57.5844C199.948 60.1279 205.404 63.8258 206.874 66.1346L214.821 64.9227C216.033 60.6356 215.736 46.807 207.794 46.9459Z" fill="#FFD4C2"/>
<path d="M180.122 167.572C180.017 174.556 172.262 168.334 160.536 167.812C139.56 166.882 125.669 170.144 128.874 162.782C136.744 144.719 137.261 134.828 136.423 108.239C136.227 101.988 132.213 91.5647 135.757 89.4379C138.804 87.6081 146.511 86.4777 152.709 85.7305C157.259 93.8782 169.594 94.8123 169.685 86.4394C172.856 86.607 179.557 88.2931 181.784 90.2618C184.126 92.3359 190.593 108.416 185.118 119.883C176.999 136.911 178.992 156.445 180.122 167.572Z" fill="white"/>
<path d="M70.4079 160.143C70.6666 161.541 71.5671 162.906 73.44 164.123C74.5273 164.827 75.1117 164.688 75.5811 164.161C76.4577 163.151 76.8552 160.722 79.3173 160.052C79.4418 160.013 79.576 159.984 79.7149 159.961C79.8921 160.085 80.0358 160.368 80.1747 160.717L82.6128 162.614C83.5373 160.588 82.2823 156.272 82.4883 154.208L76.1559 150.63C74.9967 151.487 73.4208 152.876 72.2042 154.519C70.9396 156.234 70.0583 158.217 70.4079 160.143Z" fill="#FFD4C2"/>
<path d="M139.483 37.8591C142.812 33.5337 149.566 29.8455 159.64 32.1303C169.718 34.4151 176.031 44.4358 173.746 54.5091C171.461 64.5872 160.737 74.0187 150.658 71.7339C140.585 69.4491 129.357 51.0076 139.483 37.8591Z" fill="#874C23"/>
<path d="M210.711 102.481L206.151 65.689L215.022 63.9023C215.022 63.9023 232.434 95.454 224.755 111.285L210.711 102.481Z" fill="#005387"/>
<path d="M167.472 82.3054C166.658 83.431 155.991 81.3282 154.721 79.3691L154.884 75.0677L156.134 73.5062L156.513 73.032C157.298 73.0607 158.089 73.1086 158.874 73.1853C161.763 73.4487 164.622 74.0043 167.391 74.857C167.415 74.8665 167.448 74.8761 167.477 74.8857C167.3 78.0471 167.472 82.3054 167.472 82.3054Z" fill="#F2E0D5"/>
<path d="M176.739 38.9846C176.739 38.9846 184.801 54.897 180.409 68.2514C178.167 75.0628 172.084 80.6863 163.466 79.8863C149.786 78.6122 146.088 70.4357 145.336 64.817C144.139 55.8693 144.45 46.6726 146.366 41.4467L176.739 38.9846Z" fill="#FFD4C2"/>
<path d="M140.796 54.3607C142.223 51.8891 145.466 55.5342 145.466 55.5342L146.314 65.1334C139.287 64.6927 139.369 56.8323 140.796 54.3607Z" fill="#FFD4C2"/>
<path d="M159.981 59.1746C160.015 60.4918 159.296 61.5744 158.372 61.5983C157.452 61.6223 156.676 60.5733 156.642 59.2608C156.609 57.9436 157.327 56.861 158.252 56.8371C159.172 56.8131 159.948 57.8621 159.981 59.1746Z" fill="#222731"/>
<path d="M175.889 58.6619C175.846 59.8306 175.146 60.7599 174.327 60.7263C173.508 60.6976 172.876 59.7252 172.919 58.5517C172.962 57.3829 173.661 56.4537 174.48 56.4872C175.299 56.5159 175.932 57.4883 175.889 58.6619Z" fill="#222731"/>
<path d="M168.756 60.6642C167.966 59.3278 166.538 58.2357 166.462 56.5401C166.433 56.267 166.016 56.2383 165.973 56.5161C165.053 58.6477 167.707 59.9074 167.808 61.5121C167.927 63.5095 165.312 64.0508 166.308 64.113C167.516 64.1897 169.738 63.064 168.756 60.6642Z" fill="#F2E0D5"/>
<path d="M160.628 55.2323C160.537 55.1317 160.436 55.0455 160.331 54.9593C160.101 54.7677 159.857 54.6288 159.584 54.509C159.081 54.2887 158.52 54.2216 157.974 54.2839C156.916 54.4132 156.111 55.17 155.68 56.1089C155.527 56.4442 156.092 56.7076 156.269 56.3819C156.456 56.0274 156.7 55.7784 157.055 55.5963C157.371 55.4335 157.74 55.2994 158.07 55.2946C158.257 55.2898 158.42 55.3041 158.568 55.3425C158.674 55.3664 158.774 55.4 158.875 55.4383C158.975 55.4766 158.98 55.4814 159.062 55.5245C159.244 55.6251 159.383 55.7257 159.493 55.8263C159.699 56.0179 159.828 56.2574 160.111 56.3484C160.446 56.4585 160.887 56.1999 160.872 55.8167C160.872 55.5868 160.791 55.4095 160.628 55.2323Z" fill="#874C23"/>
<path d="M172.665 54.5618C172.751 54.4804 172.851 54.4133 172.947 54.3414C173.163 54.193 173.393 54.0828 173.642 54.0014C174.106 53.8433 174.604 53.8289 175.083 53.9295C176.013 54.1259 176.664 54.8588 176.975 55.7258C177.086 56.0323 176.564 56.2239 176.434 55.9221C176.295 55.5964 176.099 55.3521 175.797 55.1605C175.529 54.9881 175.213 54.8444 174.921 54.8157C174.753 54.7965 174.609 54.7965 174.475 54.8204C174.379 54.8348 174.288 54.8588 174.193 54.8827C174.097 54.9115 174.097 54.9115 174.02 54.945C173.852 55.0216 173.723 55.0983 173.618 55.1797C173.421 55.333 173.287 55.5389 173.029 55.5964C172.722 55.6683 172.348 55.4048 172.396 55.0647C172.42 54.8588 172.506 54.7055 172.665 54.5618Z" fill="#874C23"/>
<path d="M169.313 67.6673C169.341 68.5582 168.987 69.3869 168.383 70.0048C167.737 70.6754 166.798 71.1113 165.749 71.1448C164.618 71.1831 163.593 70.7472 162.904 70.0335C162.348 69.4683 162.003 68.7211 161.974 67.8972C161.917 66.0387 164.317 67.3655 165.687 67.3176C166.827 67.2889 169.25 65.8088 169.313 67.6673Z" fill="#942525"/>
<path d="M168.383 70.0096C167.736 70.6802 166.798 71.1161 165.749 71.1496C164.618 71.1879 163.593 70.7521 162.903 70.0384C163.44 69.4636 164.417 69.066 165.547 69.0325C166.769 68.9893 167.847 69.3917 168.383 70.0096Z" fill="#FF7878"/>
<path d="M161.973 64.0508C161.94 64.9705 160.096 65.6506 157.859 65.5692C155.617 65.4878 153.83 64.6735 153.864 63.7538C153.898 62.8341 155.742 62.1539 157.979 62.2354C160.216 62.3168 162.007 63.1311 161.973 64.0508Z" fill="#FFBBA9"/>
<path d="M178.053 63.5383C178.024 64.2664 176.568 64.8077 174.791 64.7406C173.014 64.6783 171.596 64.0317 171.625 63.3036C171.654 62.5755 173.11 62.0343 174.887 62.1013C176.664 62.1684 178.082 62.8102 178.053 63.5383Z" fill="#FFBBA9"/>
<path d="M158.295 58.5232C158.304 58.2693 158.52 58.0681 158.774 58.0777C159.028 58.0873 159.229 58.3029 159.219 58.5567C159.21 58.8106 158.994 59.0118 158.74 59.0022C158.482 58.9926 158.285 58.7818 158.295 58.5232Z" fill="white"/>
<path d="M174.35 57.8381C174.36 57.613 174.552 57.431 174.777 57.4405C175.002 57.4501 175.184 57.6417 175.174 57.8669C175.165 58.092 174.973 58.274 174.748 58.2644C174.518 58.2596 174.341 58.068 174.35 57.8381Z" fill="white"/>
<path d="M142.401 56.042C142.943 55.8839 143.651 56.1234 143.819 56.703C143.891 56.9569 143.541 57.1149 143.431 56.8611C143.345 56.6647 143.148 56.5449 142.933 56.5737C142.741 56.5976 142.55 56.7749 142.44 56.9281C142.104 57.3832 142.238 58.0394 142.353 58.5471C142.464 59.0549 142.646 59.553 142.875 60.0225C143.12 60.5206 143.508 60.9278 143.752 61.4163C143.987 61.881 143.321 62.3743 142.938 62.0247C142.646 61.7564 142.454 61.3876 142.272 61.0379C142.099 60.717 141.956 60.3769 141.831 60.0368C141.577 59.3327 141.4 58.5663 141.4 57.8191C141.405 57.1485 141.673 56.248 142.401 56.042Z" fill="#F2E0D5"/>
<path d="M122.872 127.556C134.852 116.587 132.433 91.143 132.433 91.143C134.191 89.3419 155.104 82.0755 153.73 88.6187C153.38 90.2904 157.198 92.8099 157.198 92.8099C157.198 92.8099 160.158 103.357 158.419 107.477C147.115 134.234 134.632 165.622 128.812 170.767C107.722 168.506 97.3562 145.164 97.3562 145.164C107.76 147.44 110.897 138.526 122.872 127.556Z" fill="#005387"/>
<path d="M172.391 122.489C174.212 113.421 168.986 94.3091 168.986 94.3091L173.057 86.9277C194.651 89.476 190.689 111.433 187.264 128.294C183.84 145.155 187.264 171.878 187.264 171.878C187.264 171.878 176.334 171.428 171.333 167.946C166.327 164.473 170.566 131.556 172.391 122.489Z" fill="#005387"/>
<path d="M107.654 129.683L82.7077 156.248L74.9336 151.53C74.9336 151.53 89.749 121.986 100.938 115.256L107.654 129.683Z" fill="#005387"/>
<path d="M106.74 130.383C106.74 130.383 95.1143 123.782 95.3873 123.03C99.1091 112.674 131.964 90.4966 135.757 89.438C146.865 86.3388 147.526 111.017 142.617 114.485C133.779 120.726 113.508 125.502 106.74 130.383Z" fill="#005387"/>
<path d="M174.92 48.1719C170.993 47.7743 167.544 46.5577 164.809 44.5746C165.527 46.2319 166.73 47.6737 168.229 48.6796C163.037 47.5444 157.135 45.9493 153.39 42.1844C151.138 44.201 148.638 47.3624 148.643 50.3849C148.652 55.4575 147.613 57.9866 144.672 58.6859C144.873 51.6159 137.602 51.3333 139.364 41.5617C140.95 32.7817 148.283 33.1457 148.283 33.1457C148.283 33.1457 151.612 26.0517 160.493 25.9511C166.6 25.8841 173.507 28.6623 178.537 32.2069C185.43 37.0591 187.738 49.47 174.92 48.1719Z" fill="#874C23"/>
<path d="M167.453 93.5093L166.198 96.6371L162.874 96.6036L161.13 93.8302L164.416 92.4124L167.453 93.5093Z" fill="#E65247"/>
<path d="M162.874 96.6036C163.405 96.5126 163.937 96.4216 164.474 96.3354C165.005 96.2444 165.537 96.1534 166.073 96.0671C172.53 117.32 153.777 138.094 135.417 148.925C132.108 148.915 130.206 147.267 127.203 146.319C129.008 142.947 130.46 139.402 132.112 135.953C149.941 130.311 166.725 115.778 162.874 96.6036Z" fill="#E65247"/>
<path d="M169.685 86.4485C171.558 86.688 173.719 86.9275 175.706 87.5742L168.986 94.3137L164.416 92.6228L159.77 94.4238L147.168 86.4772C147.168 86.4772 151.541 85.1696 153.198 85.3133C153.198 85.3133 160.187 91.6887 164.196 91.8372C168.201 91.9809 169.685 86.4485 169.685 86.4485Z" fill="url(#paint0_linear_200_8616)"/>
<path d="M250.182 318.552C249.985 323.04 248.721 326.436 246.398 328.74C244.075 331.049 240.793 332.199 236.559 332.199C232.109 332.199 228.699 330.733 226.328 327.806C223.957 324.88 222.773 320.703 222.773 315.276V308.651C222.773 303.243 224 299.076 226.452 296.149C228.905 293.223 232.31 291.757 236.669 291.757C240.956 291.757 244.213 292.954 246.441 295.354C248.668 297.749 249.933 301.193 250.239 305.681H242.264C242.192 302.908 241.766 300.992 240.98 299.938C240.195 298.884 238.758 298.357 236.669 298.357C234.542 298.357 233.038 299.1 232.157 300.59C231.276 302.074 230.806 304.522 230.754 307.928V315.362C230.754 319.271 231.189 321.958 232.066 323.419C232.938 324.88 234.442 325.608 236.569 325.608C238.657 325.608 240.099 325.1 240.894 324.08C241.689 323.064 242.139 321.22 242.245 318.552H250.182Z" fill="white"/>
<path d="M282.672 331.662H274.754V314.82H263.023V331.662H255.077V292.303H263.023V308.225H274.754V292.303H282.672V331.662Z" fill="white"/>
<path d="M308.327 323.605H297.488L295.38 331.662H286.974L299.274 292.303H306.546L318.928 331.662H310.44L308.327 323.605ZM299.217 316.986H306.569L302.891 302.956L299.217 316.986Z" fill="white"/>
<path d="M330.548 325.066H344.496V331.662H322.601V292.303H330.548V325.066Z" fill="white"/>
<path d="M357.036 325.066H370.985V331.662H349.09V292.303H357.036V325.066Z" fill="white"/>
<path d="M395.908 314.634H383.526V325.066H398.178V331.662H375.579V292.303H398.126V298.927H383.53V308.225H395.913V314.634H395.908Z" fill="white"/>
<path d="M430.267 331.662H422.32L410.695 305.849V331.662H402.748V292.303H410.695L422.344 318.145V292.303H430.267V331.662Z" fill="white"/>
<path d="M463.404 327.203C461.871 328.86 459.993 330.11 457.766 330.949C455.539 331.787 453.105 332.203 450.456 332.203C445.935 332.203 442.419 330.805 439.914 327.998C437.408 325.196 436.12 321.119 436.048 315.764V308.68C436.048 303.258 437.231 299.081 439.602 296.149C441.973 293.223 445.427 291.757 449.968 291.757C454.24 291.757 457.459 292.811 459.629 294.918C461.799 297.026 463.059 300.336 463.399 304.838H455.673C455.457 302.333 454.935 300.628 454.106 299.718C453.278 298.808 451.98 298.353 450.212 298.353C448.066 298.353 446.509 299.138 445.537 300.705C444.565 302.271 444.057 304.766 444.023 308.191V315.328C444.023 318.916 444.56 321.522 445.633 323.155C446.706 324.789 448.469 325.603 450.916 325.603C452.483 325.603 453.757 325.287 454.729 324.654L455.433 324.166V316.947H449.867V310.946H463.409V327.203H463.404Z" fill="white"/>
<path d="M489.355 314.634H476.973V325.066H491.626V331.662H469.026V292.303H491.573V298.927H476.978V308.225H489.36V314.634H489.355Z" fill="white"/>
<path d="M429.212 108.109L407.38 107.893C406.517 107.884 406.005 108.856 406.493 109.565L412.452 118.144L336.028 167.035L314.775 144.24L314.334 143.765L313.817 144.134L229.575 204.593L314.128 145.696L335.17 168.913L335.702 169.497L336.382 169.076L414.282 120.773L420.911 130.315C421.405 131.024 422.492 130.88 422.784 130.071L430.199 109.536C430.448 108.846 429.945 108.118 429.212 108.109Z" fill="white"/>
<path d="M434.069 232.725L431.104 232.084C431.056 232.074 431.018 232.036 431.008 231.988L430.424 229.008C430.4 228.874 430.208 228.874 430.18 229.004L429.538 231.969C429.528 232.017 429.49 232.055 429.442 232.064L426.463 232.649C426.328 232.673 426.328 232.864 426.458 232.893L429.423 233.535C429.471 233.545 429.509 233.583 429.519 233.631L430.103 236.61C430.127 236.744 430.318 236.744 430.347 236.615L430.989 233.65C430.999 233.602 431.037 233.564 431.085 233.554L434.064 232.97C434.198 232.941 434.203 232.754 434.069 232.725Z" fill="#52ACEB"/>
<path d="M570.899 12.0409L567.934 11.399C567.886 11.3894 567.848 11.3511 567.838 11.3032L567.254 8.32385C567.23 8.18973 567.038 8.18973 567.01 8.31906L566.368 11.2841C566.358 11.332 566.32 11.3703 566.272 11.3799L563.293 11.9642C563.158 11.9882 563.158 12.1798 563.288 12.2085L566.253 12.8504C566.301 12.86 566.339 12.8983 566.349 12.9462L566.933 15.9256C566.957 16.0597 567.149 16.0597 567.177 15.9304L567.819 12.9654C567.829 12.9175 567.867 12.8791 567.915 12.8696L570.894 12.2852C571.028 12.2612 571.033 12.0696 570.899 12.0409Z" fill="#52ACEB"/>
<path d="M209.954 4.23815L206.989 3.59629C206.941 3.58671 206.903 3.54839 206.893 3.50049L206.309 0.521119C206.285 0.386999 206.093 0.386999 206.064 0.516329L205.422 3.48133C205.413 3.52923 205.375 3.56755 205.327 3.57713L202.347 4.16151C202.213 4.18546 202.213 4.37706 202.342 4.4058L205.308 5.04766C205.355 5.05724 205.394 5.09556 205.403 5.14346L205.988 8.12283C206.012 8.25695 206.203 8.25695 206.232 8.12762L206.874 5.16262C206.883 5.11472 206.922 5.0764 206.97 5.06682L209.949 4.48244C210.083 4.4537 210.088 4.26689 209.954 4.23815Z" fill="#52ACEB"/>
<path d="M562.435 151.645L559.47 151.003C559.423 150.993 559.384 150.955 559.375 150.907L558.79 147.928C558.766 147.794 558.575 147.794 558.546 147.923L557.904 150.888C557.895 150.936 557.856 150.974 557.808 150.984L554.829 151.568C554.695 151.592 554.695 151.784 554.824 151.813L557.789 152.454C557.837 152.464 557.875 152.502 557.885 152.55L558.469 155.53C558.493 155.664 558.685 155.664 558.714 155.534L559.355 152.569C559.365 152.521 559.403 152.483 559.451 152.474L562.431 151.889C562.565 151.86 562.565 151.674 562.435 151.645Z" fill="#FCA51F"/>
<path d="M239.112 155.549L236.147 154.907C236.099 154.898 236.061 154.859 236.051 154.812L235.467 151.832C235.443 151.698 235.251 151.698 235.223 151.827L234.581 154.792C234.571 154.84 234.533 154.879 234.485 154.888L231.505 155.473C231.371 155.496 231.371 155.688 231.501 155.717L234.466 156.359C234.514 156.368 234.552 156.407 234.562 156.454L235.146 159.434C235.17 159.568 235.361 159.568 235.39 159.439L236.032 156.474C236.042 156.426 236.08 156.387 236.128 156.378L239.107 155.793C239.241 155.765 239.246 155.578 239.112 155.549Z" fill="#FCA51F"/>
<path d="M79.2741 62.4171L76.3091 61.7752C76.2612 61.7657 76.2229 61.7273 76.2133 61.6794L75.6289 58.7001C75.605 58.566 75.4134 58.566 75.3846 58.6953L74.7428 61.6603C74.7332 61.7082 74.6949 61.7465 74.647 61.7561L71.6676 62.3405C71.5335 62.3644 71.5335 62.556 71.6628 62.5848L74.6278 63.2266C74.6757 63.2362 74.714 63.2745 74.7236 63.3224L75.308 66.3018C75.3319 66.4359 75.5235 66.4359 75.5523 66.3066L76.1941 63.3416C76.2037 63.2937 76.242 63.2554 76.2899 63.2458L79.2693 62.6614C79.4034 62.6327 79.4082 62.4458 79.2741 62.4171Z" fill="#3DA863"/>
<path d="M420.311 12.0409L417.346 11.399C417.298 11.3894 417.26 11.3511 417.25 11.3032L416.666 8.32385C416.642 8.18973 416.45 8.18973 416.422 8.31906L415.78 11.2841C415.77 11.332 415.732 11.3703 415.684 11.3799L412.705 11.9642C412.571 11.9882 412.571 12.1798 412.7 12.2085L415.665 12.8504C415.713 12.86 415.751 12.8983 415.761 12.9462L416.345 15.9256C416.369 16.0597 416.561 16.0597 416.589 15.9304L417.231 12.9654C417.241 12.9175 417.279 12.8791 417.327 12.8696L420.306 12.2852C420.441 12.2612 420.441 12.0696 420.311 12.0409Z" fill="#E65247"/>
<path d="M66.8295 266.658L63.8645 266.016C63.8166 266.006 63.7783 265.968 63.7687 265.92L63.1843 262.941C63.1604 262.806 62.9688 262.806 62.9401 262.936L62.2982 265.901C62.2886 265.949 62.2503 265.987 62.2024 265.997L59.223 266.581C59.0889 266.605 59.0889 266.796 59.2182 266.825L62.1832 267.467C62.2311 267.477 62.2695 267.515 62.279 267.563L62.8634 270.542C62.8874 270.676 63.079 270.676 63.1077 270.547L63.7496 267.582C63.7591 267.534 63.7975 267.496 63.8454 267.486L66.8247 266.902C66.9588 266.878 66.9636 266.686 66.8295 266.658Z" fill="#E65247"/>
</g>
<defs>
<linearGradient id="paint0_linear_200_8616" x1="175.704" y1="89.8629" x2="147.163" y2="89.8629" gradientUnits="userSpaceOnUse">
<stop stop-color="white"/>
<stop offset="1" stop-color="#D4EFFF"/>
</linearGradient>
<clipPath id="clip0_200_8616">
<rect width="571" height="346.853" fill="white" transform="translate(0 0.415527)"/>
</clipPath>
</defs>
</svg>
