<?xml version="1.0" encoding="UTF-8" standalone="no"?>
<!-- Created with Inkscape (http://www.inkscape.org/) -->

<svg
   version="1.1"
   id="svg2181"
   xml:space="preserve"
   width="682.66669"
   height="682.66669"
   viewBox="0 0 682.66669 682.66669"
   xmlns="http://www.w3.org/2000/svg"
   xmlns:svg="http://www.w3.org/2000/svg"><defs
     id="defs2185"><clipPath
       clipPathUnits="userSpaceOnUse"
       id="clipPath2195"><path
         d="M 0,512 H 512 V 0 H 0 Z"
         id="path2193" /></clipPath></defs><g
     id="g2187"
     transform="matrix(1.3333333,0,0,-1.3333333,0,682.66667)"><g
       id="g2189"><g
         id="g2191"
         clip-path="url(#clipPath2195)"><g
           id="g2197"
           transform="translate(8.2295,259.5269)"><path
             d="m 0,0 v 60.641 95.142 c 0,33.529 27.177,60.695 60.694,60.695 h 90.876"
             style="fill:none;stroke:#000000;stroke-width:15;stroke-linecap:round;stroke-linejoin:round;stroke-miterlimit:10;stroke-dasharray:none;stroke-opacity:1"
             id="path2199" /></g><g
           id="g2201"
           transform="translate(454.4395,474.9355)"><path
             d="m 0,0 c 28.095,-5.314 49.331,-29.986 49.331,-59.626 v -191.332 -60.641"
             style="fill:none;stroke:#000000;stroke-width:15;stroke-linecap:round;stroke-linejoin:round;stroke-miterlimit:10;stroke-dasharray:none;stroke-opacity:1"
             id="path2203" /></g><g
           id="g2205"
           transform="translate(457.6602,282.8999)"><path
             d="M 0,0 V 124.98"
             style="fill:none;stroke:#000000;stroke-width:15;stroke-linecap:round;stroke-linejoin:round;stroke-miterlimit:10;stroke-dasharray:none;stroke-opacity:1"
             id="path2207" /></g><g
           id="g2209"
           transform="translate(156.1396,433.3301)"><path
             d="m 0,0 v 24.54 c 0,6.44 1.301,12.56 3.66,18.13 7.07,16.75 23.66,28.5 42.97,28.5 h 208.261 c 19.719,0 36.589,-12.25 43.41,-29.56 2.069,-5.29 3.22,-11.04 3.22,-17.07 V 3.85"
             style="fill:none;stroke:#000000;stroke-width:15;stroke-linecap:round;stroke-linejoin:round;stroke-miterlimit:10;stroke-dasharray:none;stroke-opacity:1"
             id="path2211" /></g><g
           id="g2213"
           transform="translate(81.6816,380.8628)"><path
             d="m 0,0 v 5.822 c 0,25.762 20.879,46.642 46.631,46.642 h 27.825 180.433 c 25.751,0 46.631,-20.88 46.631,-46.642 V -96.189"
             style="fill:none;stroke:#000000;stroke-width:15;stroke-linecap:round;stroke-linejoin:round;stroke-miterlimit:10;stroke-dasharray:none;stroke-opacity:1"
             id="path2215" /></g><g
           id="g2217"
           transform="translate(171.1396,7.5)"><path
             d="m 0,0 h 271.94 c 33.52,0 60.69,27.17 60.69,60.69 v 155.79 c 0,33.52 -27.17,60.69 -60.69,60.69 H 145.511 C 125.07,277.17 106,287.46 94.78,304.55 L 67.57,345.98 C 56.351,363.07 37.28,373.36 16.841,373.36 H -102.22 c -33.519,0 -60.689,-27.17 -60.689,-60.69 V 60.69 C -162.909,27.17 -135.739,0 -102.22,0 H -30"
             style="fill:none;stroke:#000000;stroke-width:15;stroke-linecap:round;stroke-linejoin:round;stroke-miterlimit:10;stroke-dasharray:none;stroke-opacity:1"
             id="path2219" /></g><g
           id="g2221"
           transform="translate(289.3232,351.6445)"><path
             d="M 0,0 26.12,-32.508 58.93,29.221"
             style="fill:none;stroke:#000000;stroke-width:15;stroke-linecap:round;stroke-linejoin:round;stroke-miterlimit:10;stroke-dasharray:none;stroke-opacity:1"
             id="path2223" /></g><g
           id="g2225"
           transform="translate(66.0625,238.3501)"><path
             d="M 0,0 H 127.927"
             style="fill:none;stroke:#000000;stroke-width:15;stroke-linecap:round;stroke-linejoin:round;stroke-miterlimit:10;stroke-dasharray:none;stroke-opacity:1"
             id="path2227" /></g><g
           id="g2229"
           transform="translate(66.0625,210.5986)"><path
             d="M 0,0 H 127.927"
             style="fill:none;stroke:#000000;stroke-width:15;stroke-linecap:round;stroke-linejoin:round;stroke-miterlimit:10;stroke-dasharray:none;stroke-opacity:1"
             id="path2231" /></g></g></g></g></svg>
