<svg width="512" height="512" viewBox="0 0 512 512" fill="none" xmlns="http://www.w3.org/2000/svg">
<g clip-path="url(#clip0_404_7264)">
<path d="M8.229 252.475V96.6861C8.229 63.1671 35.402 35.9941 68.921 35.9941H443.079C476.598 35.9941 503.771 63.1671 503.771 96.6861V348.665L8.229 252.475Z" fill="white"/>
<path d="M411.025 7.50195H202.769C177.015 7.50195 156.138 28.38 156.138 54.133V330.525C156.138 356.279 177.016 377.156 202.769 377.156H411.025C436.779 377.156 457.657 356.278 457.657 330.525V54.133C457.657 28.379 436.779 7.50195 411.025 7.50195Z" fill="white"/>
<path d="M336.567 78.6777H128.311C102.557 78.6777 81.68 99.5557 81.68 125.309V401.701C81.68 427.455 102.558 448.333 128.311 448.333H336.567C362.321 448.333 383.198 427.455 383.198 401.701V125.31C383.199 99.5557 362.321 78.6777 336.567 78.6777Z" fill="#F9F6F9"/>
<path d="M503.771 288.019V443.808C503.771 477.327 476.598 504.5 443.079 504.5H68.921C35.402 504.5 8.229 477.327 8.229 443.808V191.829C8.229 158.31 35.402 131.137 68.921 131.137H187.978C208.421 131.137 227.49 141.428 238.71 158.516C256.999 185.675 277.375 229.982 316.648 227.326H443.078C476.598 227.327 503.771 254.499 503.771 288.019Z" fill="white"/>
<path d="M118.331 504.497H68.924C35.406 504.497 8.229 477.32 8.229 443.802V191.829C8.229 158.311 35.406 131.134 68.924 131.134H118.331C84.813 131.134 57.636 158.311 57.636 191.829V443.802C57.636 477.319 84.814 504.497 118.331 504.497Z" fill="white"/>
<path d="M511.271 96.69C511.271 65.308 489.848 38.135 459.787 30.58C450.781 11.875 432.061 0 411.03 0H202.77C182.661 0 164.461 11.038 155.093 28.495H68.924C31.321 28.495 0.730011 59.087 0.730011 96.69V443.81C0.730011 481.41 31.32 512 68.919 512H141.139C145.282 512 148.639 508.642 148.639 504.5C148.639 500.358 145.282 497 141.139 497H68.92C39.591 497 15.731 473.139 15.731 443.81V191.83C15.731 162.501 39.591 138.64 68.92 138.64H187.98C205.955 138.64 222.576 147.61 232.441 162.637L259.65 204.066C272.296 223.329 293.605 234.83 316.65 234.83H443.08C472.409 234.83 496.269 258.691 496.269 288.02V443.81C496.269 473.139 472.409 497 443.08 497H171.14C166.997 497 163.64 500.358 163.64 504.5C163.64 508.642 166.997 512 171.14 512H443.08C480.68 512 511.269 481.41 511.269 443.81L511.271 96.69ZM15.729 149.232V96.69C15.729 67.358 39.592 43.495 68.923 43.495H149.684C148.991 46.97 148.639 50.522 148.639 54.13V71.173H128.312C99.026 71.173 75.114 94.56 74.224 123.64H68.92C47.427 123.64 28.237 133.646 15.729 149.232ZM272.188 195.833L244.979 154.404C232.333 135.141 211.024 123.64 187.98 123.64H89.224C90.105 102.831 107.297 86.173 128.312 86.173H336.57C358.147 86.173 375.701 103.732 375.701 125.315V219.83H316.65C298.675 219.83 282.054 210.86 272.188 195.833ZM465.16 223.52V104.12C465.16 99.978 461.803 96.62 457.66 96.62C453.517 96.62 450.16 99.978 450.16 104.12V220.198C447.832 219.957 445.471 219.83 443.08 219.83H390.701V125.315C390.701 95.461 366.418 71.173 336.57 71.173H163.64V54.13C163.64 48.844 164.671 43.729 166.709 38.917C172.842 24.388 186.997 15 202.77 15H411.03C427.223 15 441.524 24.738 447.456 39.792C449.25 44.379 450.16 49.203 450.16 54.129V74.819C450.16 78.961 453.517 82.319 457.66 82.319C461.803 82.319 465.16 78.961 465.16 74.819V54.13C465.16 52.115 465.036 50.115 464.816 48.13C483.586 56.523 496.27 75.359 496.27 96.691V245.423C488.26 235.439 477.506 227.758 465.16 223.52Z" fill="black"/>
<path d="M351.772 124.512C348.114 122.567 343.575 123.958 341.629 127.615L314.161 179.296L295.169 155.659C292.576 152.431 287.855 151.915 284.625 154.51C281.395 157.105 280.881 161.825 283.476 165.054L309.596 197.562C312.76 201.732 319.747 201.061 322.066 196.384L354.876 134.655C356.819 130.997 355.431 126.456 351.772 124.512Z" fill="black"/>
<path d="M66.062 281.15H193.989C198.132 281.15 201.489 277.792 201.489 273.65C201.489 269.508 198.132 266.15 193.989 266.15H66.062C61.919 266.15 58.562 269.508 58.562 273.65C58.562 277.792 61.92 281.15 66.062 281.15Z" fill="black"/>
<path d="M66.062 308.901H193.989C198.132 308.901 201.489 305.543 201.489 301.401C201.489 297.259 198.132 293.901 193.989 293.901H66.062C61.919 293.901 58.562 297.259 58.562 301.401C58.562 305.543 61.92 308.901 66.062 308.901Z" fill="black"/>
</g>
<defs>
<clipPath id="clip0_404_7264">
<rect width="512" height="512" fill="white"/>
</clipPath>
</defs>
</svg>
