<?xml version="1.0" encoding="utf-8"?>
<!-- Generator: Adobe Illustrator 24.3.0, SVG Export Plug-In . SVG Version: 6.00 Build 0)  -->
<svg version="1.1" id="Layer_1" xmlns="http://www.w3.org/2000/svg" xmlns:xlink="http://www.w3.org/1999/xlink" x="0px" y="0px"
	 viewBox="0 0 682.8 682.8" style="enable-background:new 0 0 682.8 682.8;" xml:space="preserve">
<style type="text/css">
	.st0{fill:#FFFFFF;}
</style>
<g>
	<path class="st0" d="M353.4,0c0.6,0.1,1.3,0.4,1.9,0.4c15.9,0.4,31.7,2.3,47.4,5.1c2.5,0.4,4.9,0.9,7.3,1.5
		c6.6,1.6,11,7.9,10.1,14.4c-1,7.1-6.5,12-13.5,11.7c-2.6-0.1-5.3-0.7-7.9-1.2c-21.9-4-43.9-5.7-66.1-5
		c-29.6,0.8-58.4,5.6-86.6,14.7c-46.8,15-87.9,39.6-123.1,73.8c-42,40.8-70.6,89.6-85.6,146.2c-4,15-6.7,30.2-8.4,45.6
		c-1.9,17.8-2.5,35.7-1.3,53.6C31.8,424,53,481,91.2,531.6c0.7,0.9,1.4,1.8,2.2,2.9c16.2-8.2,32.7-9.2,49.4-2
		c12.1,5.2,21.3,13.9,27.3,25.7c12,23.3,6.3,52-14.3,68.9c-20.1,16.6-49.4,16.8-70,0.7c-20.8-16.2-29.4-48.2-12.2-75.1
		c-0.3-0.5-0.7-1-1.1-1.6c-30.8-39.6-51.9-83.7-63.3-132.6c-3.5-14.8-5.9-29.9-7.2-45.1c-0.5-6.1-0.9-12.1-1.4-18.2
		c-0.1-0.8-0.3-1.6-0.5-2.4c0-7.8,0-15.7,0-23.5c0.2-0.5,0.4-1.1,0.5-1.6c0.3-4.2,0.6-8.5,0.9-12.7c1.2-16.5,3.6-32.8,7.3-48.9
		C23.9,199.9,56,143,104.8,95.6c32.2-31.2,69.2-55,110.9-71.6c24.6-9.8,50-16.6,76.2-20.4c11.8-1.7,23.6-2.9,35.6-3.2
		c0.8,0,1.6-0.3,2.4-0.4C337.7,0,345.5,0,353.4,0z M149.7,582.9c-0.5-16.4-14.1-29.2-30.5-28.5c-16.4,0.7-28.9,14.6-28.1,30.6
		c0.8,16.1,14.5,28.7,30.3,28C137.5,612.4,150.1,599.2,149.7,582.9z"/>
	<path class="st0" d="M332.9,682.8c-1.1-0.1-2.1-0.4-3.2-0.4c-18.7-0.9-37.2-2.8-55.5-6.6c-6.1-1.3-10.3-6.3-10.6-12.6
		c-0.3-5.7,3.5-11.1,9-13c2.1-0.7,4.2-0.9,6.4-0.6c8.1,1.3,16.2,2.8,24.4,3.9c17,2.2,34,2.8,51.1,2.1c10.1-0.4,20.1-1.3,30.1-2.7
		c17.9-2.4,35.4-6.4,52.5-11.9c46.5-14.9,87.5-39.3,122.6-73.2c45.8-44.4,75.7-97.8,89.3-160.1c5.6-25.7,7.8-51.8,6.8-78.2
		c-1.6-42.9-11.5-83.8-29.8-122.6c-9.6-20.3-21.3-39.4-35-57.2c-0.4-0.5-0.8-1-1.4-1.7c-15.9,8-32.1,9.2-48.7,2.3
		c-12.1-5-21.4-13.5-27.5-25.1c-12.7-23.8-6.9-52.9,13.9-69.8c20.7-17,50.5-16.9,71.2,0.2c20.8,17.2,27.5,48.5,11,74.2
		c0.4,0.6,0.8,1.2,1.3,1.8c31.2,40.1,52.5,85,63.7,134.5c2.9,12.7,5,25.5,6.3,38.4c0.9,8.4,1.5,16.8,1.5,25.2c0,0.9,0.2,1.8,0.4,2.7
		c0,6,0,12,0,18c-0.1,0.9-0.4,1.8-0.4,2.7c0,11.1-1.1,22.1-2.5,33.1c-2.8,21.4-7.5,42.3-14.4,62.7c-18.3,54.6-48.4,101.7-90.3,141.1
		c-36.1,34-77.7,58.9-124.7,74.8c-31.4,10.6-63.8,16.2-96.9,17.6c-1.1,0-2.1,0.3-3.2,0.4C344.5,682.8,338.7,682.8,332.9,682.8z
		 M562.5,128c16.3,0.1,29.5-12.9,29.6-29.2c0.1-16.1-13-29.3-29.1-29.4c-16.3-0.1-29.5,13-29.6,29.2
		C533.3,114.7,546.4,127.9,562.5,128z"/>
	<path class="st0" d="M158.9,446.4c-9.2-16.1-16.1-32.7-20.9-50.3c-1,0-1.9,0-2.8,0c-7.5,0-15,0-22.5,0c-3.7,0-6.9-1.1-9.6-3.6
		c-2.8-2.7-4.2-5.9-4.2-9.8c0-16.9,0-33.8,0-50.7c0-10.7,0-21.3,0-32c0-3.9,1.3-7.3,4.1-10.1c2.8-2.7,6.2-3.8,10-3.8
		c7.3,0,14.7,0,22,0c0.9,0,1.8,0,2.9,0c4.8-17.5,11.6-34.1,20.7-49.9c-0.6-0.6-1.1-1.2-1.7-1.8c-5.3-5.3-10.6-10.6-15.9-15.9
		c-5.9-5.9-5.9-13.9-0.1-19.8c19.3-19.3,38.7-38.6,57.9-58c5.9-5.9,14.8-5.5,20,0.1c5,5.3,10.3,10.4,15.5,15.6
		c0.6,0.6,1,1.3,1.7,2.1c16-9.2,32.6-16.1,50.3-20.9c0-1,0-1.9,0-2.8c0-7.4,0-14.8,0-22.2c0-6.5,3.6-11.5,9.4-13.2
		c1.5-0.4,3.1-0.7,4.7-0.7c27.3,0,54.6-0.1,82,0c6.6,0,11.7,3.7,13.4,9.6c0.4,1.5,0.5,3.1,0.5,4.7c0.1,7.2,0,14.5,0,21.7
		c0,0.9,0,1.8,0,2.9c17.6,4.8,34.2,11.7,50,20.7c0.7-0.7,1.3-1.2,1.9-1.8c5.2-5.2,10.5-10.5,15.7-15.7c6-6,13.9-6,19.9,0
		c19.3,19.2,38.5,38.5,57.8,57.7c4.9,4.9,5.6,11.7,2.7,16.7c-0.8,1.3-1.8,2.4-2.8,3.5c-5.1,5.2-10.3,10.4-15.5,15.6
		c-0.6,0.6-1.3,1-2,1.6c9.1,16,16.1,32.5,20.8,50.1c1,0,1.9,0.1,2.8,0.1c7.2,0,14.5,0,21.7,0c1.7,0,3.5,0.2,5.2,0.6
		c5.5,1.6,9.1,6.4,9.5,12.2c0,0.7,0,1.3,0,2c0,26.8,0,53.6,0,80.5c0,1.8-0.1,3.7-0.7,5.4c-1.8,5.4-5.6,8.5-11.3,9.2
		c-0.9,0.1-1.8,0.1-2.7,0.1c-7.2,0-14.3,0-21.5,0c-0.9,0-1.8,0-2.8,0c-4.8,17.6-11.7,34.2-20.7,50c0.7,0.7,1.3,1.3,1.9,2
		c5.2,5.2,10.5,10.5,15.7,15.7c6,6,6.1,13.9,0,19.9c-19.2,19.3-38.5,38.5-57.7,57.8c-5.4,5.5-12.9,5.4-17.5,2.2
		c-0.9-0.6-1.7-1.4-2.4-2.1c-5.3-5.3-10.6-10.6-15.9-15.9c-0.6-0.6-1.2-1.1-1.9-1.8c-15.7,9-32.3,15.9-49.9,20.7
		c0,0.9-0.1,1.8-0.1,2.7c0,7.7,0,15.3,0,23c0,5.9-2.9,10.2-8.3,12.4c-1.9,0.8-4,1-6.1,1c-23.1,0.1-46.1,0-69.2,0
		c-4.1,0-8.2-0.2-12.2,0c-6.8,0.3-14.2-4.8-14.1-14.2c0.1-7.4,0-14.8,0-22.2c0-0.9,0-1.8,0-2.8c-17.6-4.8-34.2-11.7-50-20.7
		c-0.7,0.7-1.4,1.3-2,2c-5.4,5.4-10.7,10.8-16.1,16.1c-4.8,4.7-11.6,5.4-16.9,1.8c-0.9-0.6-1.7-1.3-2.5-2.1
		c-19.4-19.4-38.8-38.7-58.1-58.1c-5.8-5.8-5.8-13.8,0-19.6c5.3-5.3,10.6-10.6,15.9-15.9C157.4,447.5,158.1,447.1,158.9,446.4z
		 M557.4,312.8c-1.1,0-2,0-2.9,0c-6.3,0-12.7,0-19,0c-7.4,0-12.5-4.1-14-11.3c-4.7-21.3-12.9-41.1-24.6-59.4
		c-4.1-6.4-3.4-12.7,2-18.1c4.6-4.6,9.2-9.2,13.8-13.8c0.5-0.5,0.9-1.1,1.2-1.4c-13.4-13.4-26.6-26.7-40.2-40.3
		c-0.4,0.6-0.8,1.4-1.4,2c-4.6,4.7-9.3,9.4-14,14c-4.9,4.8-11.3,5.5-17.1,1.8c-1.4-0.9-2.8-1.8-4.2-2.6
		c-17.2-10.4-35.6-17.9-55.4-22.1c-8.5-1.8-11.9-8.5-11.7-14.6c0.2-6.2,0.1-12.5,0-18.7c0-0.8-0.1-1.6-0.1-2.4
		c-3-0.6-54.7-0.4-56.5,0.1c0,0.9,0,1.8,0,2.7c0,6.2,0,12.3,0,18.5c0,7.6-4,12.7-11.3,14.3c-21.3,4.7-41.1,12.9-59.4,24.6
		c-6.4,4.1-12.6,3.4-18.1-2c-4.6-4.6-9.2-9.2-13.8-13.8c-0.5-0.5-1.1-0.9-1.4-1.2c-13.4,13.4-26.6,26.6-40,40c0.4,0.4,1,1.1,1.5,1.6
		c4.5,4.5,8.8,9.1,13.5,13.4c4.9,4.6,6.3,11.8,2.1,18.3c-11.7,18.1-19.8,37.8-24.5,58.9c-1.7,7.8-6.6,11.7-14.5,11.7
		c-6.2,0-12.5,0-18.7,0c-0.9,0-1.8,0-2.8,0c0,19,0,37.7,0,56.6c1.1,0,2,0,2.9,0c6.6,0,13.2-0.1,19.7,0c5.3,0.1,9.4,2.5,12,7.2
		c0.7,1.4,1.1,2.9,1.5,4.5c4.7,21,12.7,40.6,24.4,58.7c4.1,6.4,3.3,13.7-2.1,18.7c-4.7,4.4-9.1,9-13.6,13.6c-0.5,0.5-1,1.1-1.3,1.5
		c13.4,13.4,26.6,26.6,39.9,39.9c0.5-0.5,1.1-1,1.7-1.6c4.5-4.5,9-9,13.4-13.4c5.7-5.7,11.8-6.4,18.5-2.1
		c18.3,11.6,38,19.8,59.2,24.5c7.4,1.6,11.4,6.7,11.4,14.2c0,6.4,0,12.8,0,19.2c0,0.9,0.1,1.8,0.1,2.6c4.6,0.5,54.6,0.3,56.5-0.2
		c0-0.9,0-1.8,0-2.7c0-6.4,0-12.8,0-19.2c0-7.2,4-12.1,11-13.8c0.7-0.2,1.5-0.3,2.2-0.5c20.5-4.7,39.8-12.7,57.4-24.2
		c6.3-4.1,13.6-3,18.3,2.1c4.4,4.8,9.1,9.2,13.7,13.8c0.5,0.5,1.1,1,1.2,1.1c13.4-13.4,26.7-26.7,40.1-40c-4.8-4.8-9.9-9.9-15-15
		c-5.5-5.6-6.2-11.7-2-18.3c11.6-18.3,19.8-38,24.5-59.2c1.6-7.4,6.6-11.4,14.2-11.4c6.3,0,12.7,0,19,0c0.9,0,1.8,0,2.8,0
		C557.4,350.5,557.4,331.8,557.4,312.8z"/>
	<path class="st0" d="M451.7,341.3c0,60.8-49.4,110.1-110.2,110.1c-60.8,0-110.2-49.4-110.1-110.2c0.1-60.8,49.5-110.2,110.2-110.1
		C402.5,231.2,451.8,280.5,451.7,341.3z M341.6,424.7c46,0,83.4-37.4,83.4-83.5c0-46.1-37.3-83.4-83.4-83.5
		c-46.1,0-83.5,37.2-83.6,83.3C258,387.2,295.5,424.8,341.6,424.7z"/>
</g>
</svg>
