<?xml version="1.0" encoding="utf-8"?>
<!-- Generator: Adobe Illustrator 24.3.0, SVG Export Plug-In . SVG Version: 6.00 Build 0)  -->
<svg version="1.1" id="Layer_1" xmlns="http://www.w3.org/2000/svg" xmlns:xlink="http://www.w3.org/1999/xlink" x="0px" y="0px"
	 viewBox="0 0 682.8 682.8" style="enable-background:new 0 0 682.8 682.8;" xml:space="preserve">
<style type="text/css">
	.st0{fill:#000;}
	.st1{fill:#000;}
</style>
<g>
	<path class="st0" d="M425,341.2c0,46.1-37.4,83.5-83.4,83.5c-46.1,0-83.7-37.6-83.6-83.7c0.1-46.1,37.5-83.3,83.6-83.3
		C387.8,257.8,425.1,295.1,425,341.2z"/>
	<path class="st0" d="M561,298c-3,0-16,4-19,2s-12-11-13-14s-11-41-12-44s-1-12,0-17s3-12,3-12l-23-38c0,0-6-6-7-6s-18-10-18-10
		s-5-5-11,1s-21,15-24,13s-22-14-28-17s-9-5-17-11s-22-26-22-26l-20-8c0,0-29,1-34,2s-19.5,14.5-19.5,14.5s4,5-2,12s-23,16-27,18
		s-17,7-17,7L226,164l-16-5c0,0-26,21-28,24s-25,29-25,29l9,20l-17,64l-24,15l-11,9l-1,50l10,12h18l12,30c0,0,16,40,15,42
		s-7,37-7,37s16,9,26,19s19,15,19,15l21-10c0,0,19-1,27,4s32,12,34,13s19,31,19,31l45,12l38-6v-36l52-17l35,8c0,0,44-36,44-38
		s9-18,9-18l-15-19l3-31l21-36c0,0,9,1,12,1s10,1,11-4s8-33,8-33S564,298,561,298z M341.5,451.3c-60.8,0-110.2-49.4-110.1-110.2
		c0.1-60.8,49.5-110.2,110.2-110.1c60.8,0.1,110.1,49.4,110.1,110.2C451.8,402,402.4,451.3,341.5,451.3z"/>
	<g>
		<path class="st0" d="M410,7c-2.4-0.6-4.9-1-7.3-1.5c-15.7-2.8-31.4-4.7-47.4-5.1c-0.6,0-1.3-0.2-1.9-0.4h-23.5
			c-0.8,0.1-1.6,0.4-2.4,0.4c-11.9,0.3-23.8,1.5-35.6,3.2c-26.2,3.8-51.6,10.6-76.2,20.4C174,40.6,136.9,64.4,104.8,95.6
			C56,143,23.9,199.9,8.7,266.2C5,282.3,2.6,298.6,1.4,315c-0.3,4.2-0.6,8.5-0.9,12.7c0,0.5-0.3,1.1-0.5,1.6v23.5
			c0.2,0.8,0.4,1.6,0.5,2.4c0.5,6.1,0.9,12.1,1.4,18.2c1.3,15.2,3.8,30.2,7.2,45.1c11.4,48.8,32.6,93,63.3,132.5
			c0.4,0.5,0.8,1.1,1.1,1.6c-17.2,26.9-8.6,58.9,12.2,75.1c20.6,16.1,49.9,15.9,70-0.7c20.6-17,26.4-45.6,14.3-68.9
			c-6.1-11.8-15.2-20.4-27.3-25.7c-16.7-7.2-33.2-6.2-49.4,2c-0.8-1.1-1.5-2-2.2-2.9C53,481,31.8,424,27.6,360.8
			c-1.2-17.9-0.7-35.8,1.3-53.6c1.7-15.4,4.4-30.6,8.4-45.6c15-56.6,43.6-105.4,85.6-146.2C158.1,81,199.2,56.5,246,41.5
			c28.2-9,57-13.8,86.6-14.7c22.2-0.6,44.2,1,66.1,5c2.6,0.5,5.2,1.1,7.9,1.2c7,0.3,12.5-4.6,13.5-11.7C421,14.9,416.6,8.5,410,7z
			 M119.2,554.4c16.4-0.7,30,12.1,30.5,28.5c0.4,16.3-12.2,29.5-28.4,30.2c-15.8,0.7-29.5-11.9-30.3-28
			C90.2,569,102.8,555.1,119.2,554.4z"/>
		<path class="st0" d="M682.4,329.7c0-8.4-0.7-16.8-1.5-25.2c-1.4-12.9-3.5-25.7-6.4-38.4c-11.2-49.6-32.5-94.4-63.7-134.5
			c-0.4-0.6-0.9-1.2-1.3-1.8c16.5-25.7,9.8-57-11-74.1c-20.7-17.1-50.5-17.2-71.2-0.2c-20.7,17-26.6,46-13.9,69.8
			c6.2,11.6,15.4,20,27.5,25.1c16.5,6.8,32.8,5.7,48.7-2.3c0.5,0.6,1,1.1,1.4,1.7c13.7,17.8,25.4,36.9,35,57.2
			c18.3,38.8,28.2,79.7,29.8,122.6c1,26.4-1.2,52.4-6.8,78.2c-13.7,62.3-43.5,115.8-89.3,160.1c-35.1,34-76.1,58.3-122.6,73.2
			c-17.1,5.5-34.7,9.4-52.5,11.9c-10,1.4-20,2.2-30.1,2.7c-17.1,0.7-34.1,0.1-51.1-2.1c-8.2-1-16.3-2.5-24.4-3.9
			c-2.2-0.4-4.3-0.1-6.4,0.6c-5.6,1.9-9.3,7.3-9,13c0.3,6.2,4.5,11.3,10.6,12.6c18.3,3.8,36.8,5.7,55.5,6.6c1.1,0.1,2.1,0.3,3.2,0.4
			h17.5c1.1-0.1,2.1-0.4,3.2-0.4c33.1-1.4,65.5-7,96.9-17.6c47-15.9,88.6-40.8,124.7-74.8c41.9-39.5,72-86.5,90.3-141.1
			c6.8-20.4,11.6-41.3,14.4-62.7c1.4-11,2.5-22,2.5-33.1c0-0.9,0.2-1.8,0.4-2.7v-18C682.6,331.5,682.4,330.6,682.4,329.7z
			 M562.5,128c-16.1-0.1-29.2-13.3-29.1-29.4c0.1-16.2,13.3-29.3,29.6-29.2c16.1,0.1,29.2,13.3,29.1,29.4
			C592,115.1,578.9,128.1,562.5,128z"/>
		<path class="st0" d="M584.2,299c-0.3-5.8-4-10.6-9.5-12.2c-1.7-0.5-3.4-0.6-5.2-0.6c-7.2-0.1-14.5,0-21.7,0
			c-0.9,0-1.8-0.1-2.8-0.1c-4.8-17.6-11.7-34.1-20.8-50.1c0.7-0.6,1.4-1,2-1.6c5.2-5.2,10.4-10.3,15.6-15.6c1-1,2-2.2,2.8-3.5
			c2.9-5,2.2-11.8-2.7-16.6c-19.3-19.2-38.5-38.5-57.8-57.7c-6-6-13.9-6-19.9,0c-5.2,5.2-10.5,10.5-15.7,15.7
			c-0.6,0.6-1.2,1.1-1.9,1.8c-15.8-9-32.4-15.9-50-20.7v-2.9c0-7.2,0-14.5,0-21.7c0-1.6-0.1-3.2-0.6-4.7c-1.7-5.9-6.7-9.6-13.4-9.6
			c-27.3,0-54.6,0-82,0c-1.6,0-3.2,0.2-4.7,0.7c-5.8,1.7-9.4,6.8-9.4,13.2c-0.1,7.4,0,14.8,0,22.2v2.8
			c-17.7,4.8-34.3,11.7-50.3,20.9c-0.6-0.8-1.1-1.5-1.7-2.1c-5.2-5.2-10.5-10.3-15.5-15.6c-5.2-5.6-14.1-6-20-0.1
			c-19.2,19.4-38.6,38.6-57.9,58c-5.9,5.9-5.8,13.8,0.1,19.8c5.3,5.3,10.6,10.6,15.9,15.9c0.6,0.6,1.1,1.2,1.7,1.8
			c-9.1,15.8-15.9,32.4-20.7,49.9h-2.9c-7.3,0-14.7,0-22,0c-3.8,0-7.2,1-10,3.8c-2.8,2.8-4.1,6.2-4.1,10.1c0,10.7,0,21.3,0,32v50.7
			c0,3.9,1.4,7.2,4.2,9.8c2.7,2.5,5.9,3.6,9.6,3.6c7.5,0,15,0,22.5,0h2.8c4.8,17.6,11.7,34.2,20.9,50.3c-0.8,0.7-1.5,1.1-2.1,1.7
			c-5.3,5.3-10.6,10.6-15.9,15.9c-5.8,5.8-5.8,13.8,0,19.6c19.4,19.4,38.7,38.8,58.1,58.1c0.8,0.8,1.6,1.5,2.5,2.1
			c5.3,3.6,12.2,2.9,16.9-1.8c5.4-5.3,10.7-10.7,16.1-16.1c0.6-0.6,1.3-1.3,2-2c15.8,9,32.3,15.9,49.9,20.7v2.8
			c0,7.4,0.1,14.8,0,22.2c-0.1,9.3,7.3,14.5,14.1,14.2c4.1-0.2,8.2,0,12.2,0c23.1,0,46.1,0,69.2,0c2,0,4.2-0.2,6.1-1
			c5.5-2.2,8.3-6.5,8.3-12.4c0.1-7.7,0-15.3,0-23c0-0.9,0.1-1.8,0.1-2.7c17.6-4.8,34.2-11.7,49.9-20.7c0.7,0.7,1.3,1.2,1.9,1.8
			c5.3,5.3,10.6,10.6,15.9,15.9c0.8,0.8,1.6,1.5,2.4,2.1c4.6,3.2,12.1,3.3,17.5-2.2c19.2-19.3,38.5-38.6,57.7-57.8
			c6-6,6-13.9,0-19.9c-5.2-5.2-10.5-10.5-15.7-15.7c-0.6-0.6-1.2-1.3-1.9-2c9.1-15.8,15.9-32.4,20.7-50h24.3c0.9,0,1.8,0,2.7-0.1
			c5.7-0.7,9.5-3.8,11.3-9.2c0.6-1.7,0.7-3.6,0.7-5.4c0-26.8,0-53.6,0-80.5C584.2,300.3,584.2,299.6,584.2,299z M557.4,369.4h-2.8
			c-6.3,0-12.7,0-19,0c-7.6,0-12.6,4-14.2,11.4c-4.7,21.2-12.9,40.9-24.5,59.2c-4.2,6.6-3.5,12.7,2,18.3c5.1,5.1,10.1,10.1,15,15
			c-13.4,13.3-26.6,26.6-40.1,40c-0.1-0.1-0.7-0.6-1.2-1.1c-4.6-4.6-9.3-9.1-13.7-13.8c-4.7-5.1-12.1-6.2-18.3-2.1
			c-17.7,11.5-36.9,19.4-57.4,24.2c-0.7,0.2-1.5,0.3-2.2,0.5c-7,1.7-11,6.6-11,13.8c0,6.4,0,12.8,0,19.2v2.7
			c-1.9,0.6-51.9,0.8-56.5,0.2c0-0.8-0.1-1.7-0.1-2.6c0-6.4,0-12.8,0-19.2c0-7.6-4-12.6-11.4-14.2c-21.2-4.6-40.9-12.8-59.2-24.5
			c-6.7-4.3-12.8-3.6-18.5,2.1c-4.5,4.5-8.9,8.9-13.4,13.4c-0.6,0.6-1.2,1.1-1.7,1.6c-13.3-13.3-26.6-26.5-40-39.9
			c0.4-0.4,0.8-1,1.3-1.5c4.5-4.5,8.9-9.2,13.6-13.6c5.4-5.1,6.3-12.4,2.1-18.8c-11.7-18.1-19.7-37.7-24.4-58.7
			c-0.3-1.5-0.8-3.1-1.5-4.5c-2.5-4.7-6.6-7.2-12-7.2c-6.6-0.1-13.2,0-19.7,0h-2.9v-56.6h2.8c6.2,0,12.5,0,18.7,0
			c7.9,0,12.8-3.9,14.5-11.7c4.7-21.1,12.8-40.8,24.5-58.9c4.2-6.5,2.9-13.8-2.1-18.3c-4.6-4.3-9-8.9-13.5-13.4
			c-0.6-0.6-1.1-1.2-1.6-1.6c13.3-13.3,26.6-26.6,40-40c0.3,0.3,0.9,0.7,1.4,1.2c4.6,4.6,9.2,9.2,13.8,13.8c5.5,5.4,11.6,6.1,18.1,2
			c18.4-11.7,38.1-19.9,59.4-24.6c7.4-1.6,11.3-6.6,11.4-14.3c0-6.2,0-12.3,0-18.5v-2.7c1.9-0.6,53.5-0.7,56.5-0.1
			c0,0.8,0.1,1.6,0.1,2.4c0,6.2,0.2,12.5,0,18.7c-0.2,6.1,3.1,12.8,11.7,14.6c19.7,4.2,38.1,11.7,55.4,22.1c1.4,0.9,2.8,1.8,4.2,2.7
			c5.8,3.6,12.2,3,17.1-1.8c4.7-4.6,9.3-9.3,14-14c0.6-0.6,1-1.4,1.4-2c13.6,13.7,26.9,26.9,40.2,40.3c-0.3,0.3-0.7,0.9-1.2,1.4
			c-4.6,4.6-9.2,9.2-13.8,13.8c-5.4,5.4-6.1,11.7-2,18.1c11.7,18.4,19.9,38.2,24.6,59.5c1.6,7.3,6.6,11.3,14,11.3c6.3,0,12.7,0,19,0
			h2.9V369.4z"/>
	</g>
	<circle class="st0" cx="563" cy="100" r="48"/>
	<circle class="st0" cx="122" cy="583" r="48"/>
</g>
</svg>
