<svg width="50" height="50" viewBox="0 0 50 50" fill="none" xmlns="http://www.w3.org/2000/svg">
<rect width="50" height="50" fill="black"/>
<mask id="mask0_5020_3107" style="mask-type:luminance" maskUnits="userSpaceOnUse" x="21" y="17" width="9" height="11">
<path d="M29.6348 17.8252H21.1685V27.4049H29.6348V17.8252Z" fill="white"/>
</mask>
<g mask="url(#mask0_5020_3107)">
<path d="M24.5883 27.2019C24.6897 26.7433 24.7274 26.3282 24.6303 25.913C24.413 24.9813 23.6334 24.3708 22.5018 24.2088C21.2673 24.0323 20.1008 24.2956 18.9619 24.7267C17.6709 25.2157 16.4987 25.9173 15.4004 26.7462C15.3352 26.7954 15.27 26.8446 15.2033 26.8909C15.1888 26.901 15.1656 26.8996 15.141 26.9039C15.0613 26.8186 15.1004 26.7115 15.1004 26.616C15.0975 24.8395 15.1019 23.0631 15.0932 21.2866C15.0917 21.0652 15.1584 20.9394 15.3525 20.8265C17.042 19.8385 18.8141 19.0544 20.7688 18.7925C22.8017 18.5191 24.7926 18.6898 26.6806 19.5578C27.7427 20.0453 28.6136 20.7716 29.2902 21.7278C29.3946 21.8768 29.4018 21.981 29.296 22.1329C27.9833 23.999 26.4213 25.6381 24.71 27.1412C24.6883 27.1585 24.6579 27.1672 24.5883 27.2019Z" fill="#F67C50"/>
</g>
<path d="M46 33.3001C46 38.5775 42.3413 41.9497 37.6176 41.9497C35.3659 41.9497 33.5518 41.2321 32.3318 39.7638V41.6994H27.6733V18.5312H32.552V26.6817C33.8025 25.3074 35.5239 24.652 37.6191 24.652C42.3413 24.6506 46 28.0227 46 33.3001ZM41.059 33.3001C41.059 30.3967 39.2144 28.6477 36.7743 28.6477C34.3343 28.6477 32.4897 30.3967 32.4897 33.3001C32.4897 36.2035 34.3343 37.9526 36.7743 37.9526C39.2144 37.9526 41.059 36.205 41.059 33.3001Z" fill="white"/>
<path d="M34.0689 14.0109C33.8443 13.9473 33.8225 13.8663 33.9211 13.6753C34.1964 13.1357 34.4369 12.5802 34.6253 12.003C35.0658 10.6547 34.8397 9.39177 34.1573 8.18092C34.0616 8.01166 33.9834 7.93499 33.7834 8.06663C32.6619 8.81021 31.8737 9.78092 31.6259 11.135C31.51 11.7701 31.4665 12.4109 31.4665 13.0561C31.4665 13.2138 31.4766 13.3513 31.2289 13.3252C30.5392 13.2529 30.2711 13.4525 30.119 14.1368C29.9697 14.8109 29.9972 15.4923 30.0784 16.1708C30.1175 16.4963 30.1233 16.8333 30.3073 17.1733C30.3436 17.059 30.3696 16.9881 30.3885 16.9158C30.5189 16.3762 30.6493 15.838 30.7724 15.297C30.8275 15.0583 31.0173 14.9614 31.2115 14.9382C31.4694 14.9079 31.2303 15.1292 31.31 15.2015C31.3752 15.2608 31.4433 15.3187 31.5201 15.3592C31.9055 15.5661 32.32 15.663 32.7561 15.6789C32.9836 15.6861 33.1835 15.6702 33.1763 15.3375C33.4878 15.5574 33.5907 15.786 33.4994 16.1158C33.3458 16.6728 33.2198 17.2384 33.056 17.901C33.4255 17.574 33.6269 17.2529 33.8269 16.9361C34.2181 16.3154 34.5992 15.6861 34.6818 14.9368C34.7412 14.3986 34.5861 14.157 34.0689 14.0109ZM33.3284 11.6601C32.8691 11.6702 32.475 11.2941 32.4634 10.8341C32.4518 10.3697 32.8227 9.98779 33.2908 9.97911C33.7675 9.97043 34.1413 10.3263 34.15 10.7979C34.1587 11.2637 33.7907 11.65 33.3284 11.6601Z" fill="white"/>
<mask id="mask1_5020_3107" style="mask-type:luminance" maskUnits="userSpaceOnUse" x="13" y="16" width="10" height="13">
<path d="M22.2979 16.9824H13.8315V28.5339H22.2979V16.9824Z" fill="white"/>
</mask>
<g mask="url(#mask1_5020_3107)">
<path d="M24.5873 27.2049C24.6888 26.7463 24.7264 26.3311 24.6294 25.9159C24.412 24.9842 23.6325 24.3738 22.5008 24.2117C21.2663 24.0352 20.0999 24.2985 18.961 24.7296C17.6699 25.2186 16.4977 25.9202 15.3994 26.7492C15.3342 26.7984 15.269 26.8475 15.2023 26.8938C15.1878 26.904 15.1646 26.9025 15.14 26.9068C15.0603 26.8215 15.0994 26.7144 15.0994 26.619C15.0965 24.8425 15.1009 23.066 15.0922 21.2895C15.0908 21.0682 15.1574 20.9423 15.3516 20.8295C17.0411 19.8414 18.8132 19.0573 20.7678 18.7955C22.8007 18.5221 24.7916 18.6928 26.6796 19.5608C27.7417 20.0483 28.6126 20.7745 29.2893 21.7307C29.3936 21.8797 29.4008 21.9839 29.2951 22.1358C27.9823 24.002 26.4203 25.641 24.709 27.1441C24.6873 27.1615 24.6569 27.1701 24.5873 27.2049Z" fill="#F67C50"/>
</g>
<path d="M30.5356 27.2798C30.3617 28.508 29.6691 30.3814 29.0185 31.4375C27.8115 33.3991 26.2713 35.0758 24.576 36.6208C24.5035 36.6874 24.4311 36.7554 24.347 36.8335C24.4484 36.9261 24.5615 36.8885 24.6614 36.8885C26.5784 36.8913 28.494 36.8957 30.411 36.8841C30.6906 36.8827 30.7587 36.9695 30.7573 37.2357C30.7457 38.7416 30.7471 40.2476 30.7573 41.7535C30.7587 41.93 30.6167 42.0733 30.44 42.0718C25.5555 42.0646 20.6695 42.0646 15.785 42.0733C15.5068 42.0733 15.4605 41.972 15.4619 41.7275C15.4721 40.44 15.4735 39.151 15.4605 37.8635C15.459 37.6508 15.5677 37.4526 15.7488 37.3398C19.2061 35.1814 22.3663 32.6584 25.1976 29.7217C27.9477 26.8675 30.1241 23.6212 31.9295 20.1116C31.986 20.0017 32.3251 19.3435 32.1816 19.7485C32.1816 19.7485 31.0181 23.8787 30.5356 27.2798Z" fill="#F67C50"/>
<path d="M22.3281 33.3001C22.3281 38.5775 18.6694 41.9497 13.9458 41.9497C11.6941 41.9497 9.87994 41.2321 8.6599 39.7638V41.6994H4V18.5312H8.8787V26.6817C10.1292 25.3074 11.8505 24.652 13.9458 24.652C18.6694 24.6506 22.3281 28.0227 22.3281 33.3001ZM17.3856 33.3001C17.3856 30.3967 15.5411 28.6477 13.101 28.6477C10.6609 28.6477 8.81639 30.3967 8.81639 33.3001C8.81639 36.2035 10.6609 37.9526 13.101 37.9526C15.5411 37.9526 17.3856 36.205 17.3856 33.3001Z" fill="white"/>
</svg>
