<svg width="678" height="408" viewBox="0 0 678 408" fill="none" xmlns="http://www.w3.org/2000/svg">
<g clip-path="url(#clip0_193_1491)">
<path d="M430.584 251.788V257.408H472.634V251.788H430.584Z" fill="#E0E0E0"/>
<path d="M436.31 252.03C436.46 252.03 436.57 253.21 436.57 254.66C436.57 256.11 436.45 257.29 436.31 257.29C436.17 257.29 436.05 256.11 436.05 254.66C436.05 253.2 436.17 252.03 436.31 252.03Z" fill="#FAFAFA"/>
<path d="M435.4 251.91C435.55 251.91 435.66 253.09 435.66 254.54C435.66 255.99 435.54 257.17 435.4 257.17C435.25 257.17 435.14 255.99 435.14 254.54C435.13 253.09 435.25 251.91 435.4 251.91Z" fill="#FAFAFA"/>
<path d="M469.38 252.03C469.53 252.03 469.64 253.21 469.64 254.66C469.64 256.11 469.52 257.29 469.38 257.29C469.23 257.29 469.12 256.11 469.12 254.66C469.11 253.2 469.23 252.03 469.38 252.03Z" fill="#FAFAFA"/>
<path d="M468.46 257.17C468.604 257.17 468.72 255.992 468.72 254.54C468.72 253.087 468.604 251.91 468.46 251.91C468.317 251.91 468.2 253.087 468.2 254.54C468.2 255.992 468.317 257.17 468.46 257.17Z" fill="#FAFAFA"/>
<path d="M462.97 254.77C462.97 254.92 458.15 255.03 452.22 255.03C446.28 255.03 441.46 254.91 441.46 254.77C441.46 254.62 446.27 254.51 452.22 254.51C458.15 254.51 462.97 254.63 462.97 254.77Z" fill="#FAFAFA"/>
<path d="M430.404 277.085V288.315H472.454V277.085H430.404Z" fill="#E0E0E0"/>
<path d="M472.99 285.16C472.99 285.17 472.92 285.21 472.76 285.29C472.61 285.37 472.37 285.48 472.06 285.61C471.43 285.87 470.49 286.23 469.21 286.43C467.95 286.61 466.26 286.66 464.58 285.77C463.76 285.33 462.98 284.66 462.38 283.78C461.8 282.9 461.43 281.74 461.62 280.54C461.72 279.94 461.97 279.35 462.39 278.87C462.8 278.38 463.46 278.02 464.16 278.06C464.86 278.09 465.5 278.5 465.94 279.02C466.39 279.55 466.69 280.22 466.75 280.94C466.92 282.36 466.32 283.84 465.3 284.92C464.3 286.04 462.8 286.72 461.26 286.89C459.7 287.07 458.1 286.83 456.57 286.31C455.04 285.78 453.54 284.93 452.47 283.56C451.95 282.88 451.57 282.03 451.51 281.13C451.43 280.24 451.72 279.27 452.41 278.61C452.75 278.28 453.23 278.05 453.73 278.03C454.23 278.01 454.7 278.17 455.1 278.42C455.91 278.92 456.43 279.78 456.65 280.69C457.05 282.53 456.32 284.44 454.99 285.64C453.66 286.85 451.92 287.39 450.26 287.57C448.59 287.74 446.9 287.61 445.35 287.09C443.81 286.58 442.42 285.56 441.62 284.19C440.81 282.85 440.54 281.15 441.15 279.73C441.44 279.02 442.09 278.4 442.86 278.28C443.62 278.14 444.39 278.35 444.98 278.79C446.17 279.73 446.36 281.35 445.98 282.58C445.59 283.84 444.74 284.81 443.86 285.57C442.06 287.09 439.94 287.74 438.09 287.81C436.23 287.88 434.67 287.36 433.52 286.77C432.37 286.17 431.61 285.49 431.14 285C430.91 284.75 430.74 284.56 430.64 284.42C430.53 284.28 430.48 284.21 430.49 284.2C430.54 284.13 431.33 285.43 433.62 286.58C434.75 287.13 436.29 287.6 438.08 287.51C439.86 287.42 441.91 286.76 443.62 285.28C444.46 284.55 445.25 283.62 445.59 282.46C445.93 281.35 445.71 279.91 444.72 279.14C444.23 278.77 443.57 278.6 442.95 278.72C442.33 278.82 441.83 279.3 441.57 279.91C441.04 281.16 441.27 282.7 442.03 283.94C442.77 285.2 444.05 286.13 445.51 286.61C446.97 287.1 448.6 287.22 450.2 287.06C451.79 286.89 453.42 286.37 454.64 285.26C455.84 284.19 456.49 282.43 456.14 280.82C455.95 280.03 455.5 279.3 454.83 278.88C454.17 278.45 453.32 278.46 452.78 279C452.24 279.52 451.97 280.34 452.05 281.11C452.1 281.89 452.42 282.64 452.9 283.26C453.86 284.51 455.3 285.35 456.75 285.85C458.22 286.36 459.76 286.59 461.22 286.43C462.68 286.27 464.05 285.65 464.98 284.62C465.93 283.63 466.48 282.28 466.33 281C466.23 279.76 465.29 278.56 464.15 278.48C463.59 278.44 463.05 278.72 462.69 279.14C462.32 279.56 462.09 280.09 461.99 280.62C461.81 281.7 462.13 282.77 462.67 283.61C463.22 284.45 463.95 285.1 464.73 285.53C466.3 286.4 467.95 286.39 469.19 286.24C470.45 286.08 471.4 285.75 472.03 285.53C472.65 285.28 472.98 285.14 472.99 285.16Z" fill="#FAFAFA"/>
<path d="M434.153 257.57V277.06H472.443V257.57H434.153Z" fill="#EBEBEB"/>
<path d="M440.52 258.24C440.67 258.24 440.78 262.46 440.78 267.67C440.78 272.88 440.66 277.1 440.52 277.1C440.37 277.1 440.26 272.88 440.26 267.67C440.25 262.47 440.37 258.24 440.52 258.24Z" fill="#E0E0E0"/>
<path d="M443.42 258C443.57 258 443.68 262.17 443.68 267.31C443.68 272.45 443.56 276.62 443.42 276.62C443.27 276.62 443.16 272.45 443.16 267.31C443.16 262.17 443.28 258 443.42 258Z" fill="#E0E0E0"/>
<path d="M468.12 257.37C468.27 257.37 468.38 261.76 468.38 267.18C468.38 272.6 468.26 276.99 468.12 276.99C467.97 276.99 467.86 272.6 467.86 267.18C467.85 261.77 467.97 257.37 468.12 257.37Z" fill="#E0E0E0"/>
<path d="M464.71 257.64C464.86 257.64 464.97 261.92 464.97 267.19C464.97 272.47 464.85 276.74 464.71 276.74C464.56 276.74 464.45 272.46 464.45 267.19C464.44 261.92 464.56 257.64 464.71 257.64Z" fill="#E0E0E0"/>
<path d="M464.32 35.6599H206.18V206.89H464.32V35.6599Z" fill="#E0E0E0"/>
<path d="M0.00995847 48.1699C-0.380042 23.9499 18.92 3.91995 43.04 3.52995C67.15 3.13995 87.09 22.5299 87.48 46.7599C87.87 70.9899 68.56 91.01 44.45 91.4C20.33 91.79 0.389958 72.3999 0.00995847 48.1699ZM64.65 47.13C64.47 35.5499 54.93 26.27 43.4 26.46C31.87 26.65 22.64 36.2199 22.83 47.7999C23.02 59.38 32.55 68.66 44.08 68.47C55.6 68.29 64.83 58.71 64.65 47.13Z" fill="#F5F5F5"/>
<path d="M0.00995847 48.17C-0.380042 23.95 18.92 3.92003 43.04 3.53003L43.41 26.46C31.88 26.65 22.65 36.22 22.84 47.8C23.03 59.38 32.56 68.65 44.09 68.47L44.46 91.4C20.33 91.79 0.389958 72.4 0.00995847 48.17Z" fill="#E0E0E0"/>
<path d="M39.1099 0.0100446C67.3199 -0.449955 89.8299 21.45 90.2799 49.79L63.5799 50.22C63.3599 36.67 53.0499 28.14 39.5599 28.35L39.1099 0.0100446Z" fill="#F47B52"/>
<path d="M209.24 400.58C208.12 399.62 205.61 396.56 207.54 393.01C208.25 391.71 209.75 391.06 211.12 390.49C212.48 389.92 213.92 389.42 215.04 388.46C217.17 386.65 217.75 383.64 219.17 381.23C220.79 378.46 223.82 376.38 227.01 376.53C230.67 376.7 233.72 379.69 235.11 383.09C236.49 386.5 236.54 390.28 236.57 393.96C236.59 396 236.5 398.29 235 399.66C233.62 400.93 231.55 400.94 229.68 400.89C223.01 400.69 216.35 400.48 209.68 400.28" fill="#F5F5F5"/>
<path d="M247.49 345.58H194.89L204.36 402.08C204.77 404.55 206.56 406.45 208.85 407.11C208.91 407.13 208.97 407.14 209.03 407.16C209.19 407.2 209.34 407.25 209.5 407.28C209.85 407.35 210.21 407.39 210.57 407.4C210.57 407.42 210.58 407.44 210.58 407.45L210.84 407.41H234.28C234.72 407.41 235.15 407.36 235.57 407.28C238.34 406.85 240.55 404.63 240.89 401.76L245.46 362.83L245.67 361.28H245.65L247.46 345.86L247.49 345.58ZM237.57 381.62H232.17L232.71 365.22H238.96L237.57 381.62ZM239.49 365.22H244.66L242.74 381.62H238.1L239.49 365.22ZM224.07 399.8L223.74 385.56H231.51L231.04 399.8H224.07ZM215.67 385.55H223.22L223.55 399.79H216.78L215.67 385.55ZM216.25 399.8H209.92C209.32 395.95 208.54 390.96 207.69 385.56H215.15L216.25 399.8ZM215.36 381.62L214.09 365.22H222.75L223.13 381.62H215.36ZM223.65 381.62L223.27 365.22H232.19L231.65 381.62H223.65ZM223.19 361.29L222.84 346.11H232.83L232.33 361.29H223.19ZM222.66 361.29H213.78L212.6 346.11H222.31L222.66 361.29ZM213.26 361.29H203.86C203.53 359.19 203.21 357.21 202.93 355.42C201.95 349.28 201.58 346.97 201.38 346.1H212.08L213.26 361.29ZM213.57 365.22L214.84 381.62H207.07C206.81 379.96 206.54 378.27 206.28 376.59C205.67 372.72 205.06 368.85 204.49 365.22H213.57ZM206.54 381.62H201.46L198.71 365.22H203.95C204.76 370.29 205.65 375.93 206.54 381.62ZM207.16 385.55C207.93 390.48 208.7 395.34 209.39 399.79H204.51L202.12 385.55H207.16ZM231.57 399.8L232.04 385.56H237.23L236.01 399.8H231.57ZM232.85 361.29L233.35 346.11H240.6L239.3 361.29H232.85ZM200.88 346.11C201.09 347.21 202.05 353.18 203.33 361.29H198.05L195.5 346.11H200.88ZM240.61 399.8H236.54L237.76 385.56H242.28L240.61 399.8ZM245.12 361.29H239.83L241.13 346.11H246.91L245.12 361.29Z" fill="#E0E0E0"/>
<path d="M628.12 62.3501H616.79V107.59H628.12V62.3501Z" fill="#E0E0E0"/>
<path d="M644.78 72.2202H633.45V107.59H644.78V72.2202Z" fill="#E0E0E0"/>
<path d="M661.69 80.3H650.36V107.59H661.69V80.3Z" fill="#E0E0E0"/>
<path d="M677.35 91.3901H666.02V107.6H677.35V91.3901Z" fill="#E0E0E0"/>
<path d="M659.12 163.85C643.41 149.27 618.7 150.1 604.02 165.72C589.35 181.33 590.19 205.9 605.9 220.49C621.61 235.07 646.32 234.24 661 218.62C675.67 203.01 674.83 178.44 659.12 163.85ZM646.13 204.82C639.11 212.29 627.3 212.68 619.79 205.71C612.28 198.74 611.88 186.99 618.89 179.52C625.91 172.05 637.72 171.66 645.23 178.63C652.74 185.6 653.15 197.35 646.13 204.82Z" fill="#F5F5F5"/>
<path d="M604.02 165.72C618.69 150.11 643.41 149.27 659.12 163.85L645.23 178.63C637.72 171.66 625.9 172.06 618.89 179.52C611.87 186.99 612.28 198.73 619.79 205.71L605.9 220.49C590.19 205.9 589.35 181.33 604.02 165.72Z" fill="#EBEBEB"/>
<path d="M657.53 157.52C676.77 175.39 679.08 204.43 661.1 223.56L641.58 206.65C650.17 197.5 652.04 185.29 642.84 176.75L657.53 157.52Z" fill="#FAFAFA"/>
<path d="M236.41 259.06H132.41C130.63 259.06 129.18 257.61 129.18 255.83V231.18C129.18 229.4 130.63 227.95 132.41 227.95H236.4C238.18 227.95 239.63 229.4 239.63 231.18V255.83C239.64 257.61 238.19 259.06 236.41 259.06Z" fill="#E0E0E0"/>
<path d="M147.21 251.22C150.927 251.22 153.94 248.193 153.94 244.46C153.94 240.727 150.927 237.7 147.21 237.7C143.493 237.7 140.48 240.727 140.48 244.46C140.48 248.193 143.493 251.22 147.21 251.22Z" fill="#F5F5F5"/>
<path d="M151 242.17C151.1 242.27 149.48 244.02 147.38 246.08C147.07 246.38 146.78 246.66 146.49 246.94L146.31 247.12L146.14 246.94C144.51 245.26 143.35 243.95 143.44 243.87C143.53 243.78 144.83 244.94 146.5 246.59H146.14C146.43 246.31 146.72 246.02 147.02 245.72C149.11 243.65 150.9 242.07 151 242.17Z" fill="#E0E0E0"/>
<path d="M228.76 241.12C228.76 241.26 213.93 241.38 195.65 241.38C177.36 241.38 162.54 241.26 162.54 241.12C162.54 240.98 177.36 240.86 195.65 240.86C213.94 240.86 228.76 240.98 228.76 241.12Z" fill="#FAFAFA"/>
<path d="M229.06 246.76C229.06 246.9 214.23 247.02 195.95 247.02C177.66 247.02 162.84 246.9 162.84 246.76C162.84 246.62 177.66 246.5 195.95 246.5C214.23 246.5 229.06 246.61 229.06 246.76Z" fill="#FAFAFA"/>
<path d="M577.86 250.86L575.84 407.86H666.17V253L577.86 250.86Z" fill="#F5F5F5"/>
<path d="M626.52 252.04L625.72 407.86H666.17V253L626.52 252.04Z" fill="#E0E0E0"/>
<path d="M580.7 253.69V285.8H623.49V255.2L580.7 253.69Z" fill="#E0E0E0"/>
<path d="M595.45 262.52V267.26H608.54V262.09L595.45 262.52Z" fill="#F5F5F5"/>
<path d="M608.97 271.25H595.45V273.19H608.97V271.25Z" fill="#F5F5F5"/>
<path d="M580.7 366.21V398.33H623.49V367.73L580.7 366.21Z" fill="#E0E0E0"/>
<path d="M595.45 375.05V379.79H608.54V374.62L595.45 375.05Z" fill="#F5F5F5"/>
<path d="M608.97 383.78H595.45V385.72H608.97V383.78Z" fill="#F5F5F5"/>
<path d="M580.7 289.89V322H623.49V291.4L580.7 289.89Z" fill="#E0E0E0"/>
<path d="M595.45 298.72V303.46H608.54V298.29L595.45 298.72Z" fill="#F5F5F5"/>
<path d="M608.97 307.45H595.45V309.39H608.97V307.45Z" fill="#F5F5F5"/>
<path d="M622.93 328.34H580.14V360.45H622.93V328.34Z" fill="#E0E0E0"/>
<path d="M595.18 342.81V347.27H607.48V342.4L595.18 342.81Z" fill="#F5F5F5"/>
<path d="M607.89 351.02H595.18V352.84H607.89V351.02Z" fill="#F5F5F5"/>
<path d="M669.56 406.5C669.56 406.64 521.45 406.76 338.8 406.76C156.08 406.76 8.01001 406.64 8.01001 406.5C8.01001 406.36 156.08 406.24 338.8 406.24C521.46 406.24 669.56 406.36 669.56 406.5Z" fill="#E0E0E0"/>
<path d="M458.04 39.96H190.71V215.31H458.04V39.96Z" fill="#FAFAFA"/>
<path d="M458.03 215.31C458.03 213.62 457.95 146.91 457.82 39.9599L458.03 40.1699C384.67 40.1799 291.64 40.2 190.72 40.22H190.7L190.96 39.9599C190.95 102.32 190.95 161.66 190.94 215.31L190.7 215.07C348 215.21 455.89 215.3 458.03 215.31C455.89 215.31 347.99 215.41 190.7 215.55H190.46V215.31C190.45 161.66 190.45 102.32 190.44 39.9599V39.7H190.7H190.72C291.63 39.72 384.67 39.74 458.03 39.75H458.24V39.9599C458.12 146.91 458.04 213.62 458.03 215.31Z" fill="#263238"/>
<path d="M272.4 136.79L298.69 137.15C298.49 151.16 286.68 162.58 272.4 162.58C272.35 162.58 272.3 162.58 272.25 162.58L272.4 136.79Z" fill="#455A64"/>
<path d="M315.88 172.39C315.88 172.41 315.69 172.42 315.32 172.44C314.9 172.45 314.37 172.46 313.71 172.48C312.26 172.5 310.26 172.52 307.84 172.55H307.77L307.72 172.49C305.37 169.53 302.35 165.72 299.05 161.56C296.49 158.29 294.09 155.23 292.06 152.64L292.2 152.71C289.03 152.68 286.38 152.66 284.46 152.64C283.57 152.62 282.85 152.6 282.3 152.59C281.8 152.57 281.53 152.56 281.53 152.54C281.53 152.52 281.8 152.5 282.3 152.49C282.85 152.48 283.57 152.46 284.46 152.44C286.38 152.42 289.03 152.4 292.2 152.37H292.28L292.33 152.44C294.37 155.02 296.79 158.06 299.37 161.32C302.64 165.5 305.65 169.33 307.97 172.31L307.85 172.25C310.28 172.28 312.28 172.3 313.72 172.32C314.38 172.34 314.91 172.35 315.33 172.36C315.69 172.36 315.88 172.38 315.88 172.39Z" fill="#263238"/>
<path d="M325.31 175.43C325.31 175.54 321.5 175.63 316.8 175.63C312.1 175.63 308.29 175.54 308.29 175.43C308.29 175.32 312.1 175.23 316.8 175.23C321.5 175.22 325.31 175.31 325.31 175.43Z" fill="#263238"/>
<path d="M325.31 178.58C325.31 178.69 321.5 178.78 316.8 178.78C312.1 178.78 308.29 178.69 308.29 178.58C308.29 178.47 312.1 178.38 316.8 178.38C321.5 178.37 325.31 178.46 325.31 178.58Z" fill="#263238"/>
<path d="M268.25 133.05L267.88 158.84C253.59 158.64 241.95 147.06 241.95 133.05C241.95 118.9 253.82 107.25 268.25 107.25C282.68 107.25 294.55 118.89 294.55 133.05H268.25Z" fill="#F47B52"/>
<path d="M257.98 124.61C257.98 124.63 257.82 124.66 257.52 124.72C257.16 124.78 256.73 124.85 256.21 124.93C255 125.1 253.4 125.32 251.49 125.59L251.41 125.6L251.35 125.54C249.55 123.79 247.39 121.68 245.05 119.41C242.02 116.44 239.3 113.74 237.34 111.77C236.41 110.82 235.63 110.03 235.04 109.42C234.5 108.86 234.21 108.54 234.23 108.52C234.25 108.5 234.57 108.78 235.15 109.31C235.77 109.89 236.57 110.65 237.54 111.57C239.55 113.49 242.3 116.16 245.33 119.13C247.65 121.42 249.8 123.55 251.58 125.31L251.44 125.26C253.36 125.05 254.97 124.87 256.18 124.74C256.7 124.69 257.14 124.65 257.5 124.62C257.81 124.6 257.98 124.6 257.98 124.61Z" fill="#263238"/>
<path d="M227.58 107.39C227.58 107.5 223.77 107.59 219.07 107.59C214.37 107.59 210.56 107.5 210.56 107.39C210.56 107.28 214.37 107.19 219.07 107.19C223.77 107.19 227.58 107.28 227.58 107.39Z" fill="#263238"/>
<path d="M227.58 110.54C227.58 110.65 223.77 110.74 219.07 110.74C214.37 110.74 210.56 110.65 210.56 110.54C210.56 110.43 214.37 110.34 219.07 110.34C223.77 110.34 227.58 110.43 227.58 110.54Z" fill="#263238"/>
<path d="M360.24 82.0901L360.14 66.0601C355.42 66.0901 350.61 67.9501 346.92 71.2201C342.57 75.0601 339.79 80.8401 340.55 87.8201C340.63 88.5801 340.75 89.3601 340.92 90.1501C340.92 90.1701 340.93 90.1901 340.93 90.2101L360.24 85.8601V82.0901Z" fill="#F47B52"/>
<g opacity="0.3">
<path d="M360.24 82.0901L360.14 66.0601C355.42 66.0901 350.61 67.9501 346.92 71.2201C342.57 75.0601 339.79 80.8401 340.55 87.8201C340.63 88.5801 340.75 89.3601 340.92 90.1501C340.92 90.1701 340.93 90.1901 340.93 90.2101L360.24 85.8601V82.0901Z" fill="white"/>
</g>
<path d="M380.14 77.1601C377.44 71.5201 372.12 67.0101 364.55 66.2501C364.35 66.2301 364.14 66.2101 363.94 66.2001C363.81 66.1901 363.68 66.1801 363.55 66.1701C363.17 66.1501 362.78 66.1401 362.39 66.1401C362.37 66.1401 362.35 66.1401 362.34 66.1401C362.32 66.1401 362.31 66.1401 362.29 66.1401L362.39 82.1701L362.41 85.9401L381.73 90.1601L381.75 90.1701C382.05 88.8201 382.19 87.4201 382.18 86.0101C382.17 82.9801 381.47 79.9301 380.14 77.1601Z" fill="#F47B52"/>
<g opacity="0.3">
<path d="M380.14 77.1601C377.44 71.5201 372.12 67.0101 364.55 66.2501C364.35 66.2301 364.14 66.2101 363.94 66.2001C363.81 66.1901 363.68 66.1801 363.55 66.1701C363.17 66.1501 362.78 66.1401 362.39 66.1401C362.37 66.1401 362.35 66.1401 362.34 66.1401C362.32 66.1401 362.31 66.1401 362.29 66.1401L362.39 82.1701L362.41 85.9401L381.73 90.1601L381.75 90.1701C382.05 88.8201 382.19 87.4201 382.18 86.0101C382.17 82.9801 381.47 79.9301 380.14 77.1601Z" fill="black"/>
</g>
<path d="M361.27 87.8601L341.96 92.2101C343.94 101.05 351.83 107.66 361.27 107.66C370.76 107.66 378.68 100.99 380.61 92.0801L361.29 87.8601" fill="#F47B52"/>
<path d="M436.45 84.97C436.45 85.11 426.46 85.23 414.15 85.23C401.83 85.23 391.85 85.11 391.85 84.97C391.85 84.83 401.83 84.71 414.15 84.71C426.47 84.71 436.45 84.83 436.45 84.97Z" fill="#263238"/>
<path d="M436.45 79.8901C436.45 80.0301 426.46 80.1501 414.15 80.1501C401.83 80.1501 391.85 80.0301 391.85 79.8901C391.85 79.7501 401.83 79.6301 414.15 79.6301C426.47 79.6301 436.45 79.7401 436.45 79.8901Z" fill="#263238"/>
<path d="M436.45 74.8C436.45 74.94 426.46 75.06 414.15 75.06C401.83 75.06 391.85 74.94 391.85 74.8C391.85 74.66 401.83 74.54 414.15 74.54C426.47 74.54 436.45 74.66 436.45 74.8Z" fill="#263238"/>
<path d="M436.45 89.6999C436.45 89.8399 426.46 89.9599 414.15 89.9599C401.83 89.9599 391.85 89.8399 391.85 89.6999C391.85 89.5599 401.83 89.4399 414.15 89.4399C426.47 89.4399 436.45 89.5599 436.45 89.6999Z" fill="#263238"/>
<path d="M422.64 94.8501C422.64 94.9901 415.78 95.1101 407.32 95.1101C398.86 95.1101 392 94.9901 392 94.8501C392 94.7101 398.86 94.5901 407.32 94.5901C415.78 94.5901 422.64 94.7101 422.64 94.8501Z" fill="#263238"/>
<path d="M349.66 131.65H345.07V182.96H349.66V131.65Z" fill="black"/>
<path d="M358.53 149.08H353.94V182.96H358.53V149.08Z" fill="#E8505B"/>
<path d="M367.4 138.03H362.81V183.22H367.4V138.03Z" fill="black"/>
<path d="M376.27 133.63H371.68V182.96H376.27V133.63Z" fill="#E8505B"/>
<path d="M385.14 150.12H380.55V182.96H385.14V150.12Z" fill="black"/>
<path d="M394.01 156.56H389.42V182.96H394.01V156.56Z" fill="#E8505B"/>
<path d="M402.88 136.92H398.29V182.96H402.88V136.92Z" fill="black"/>
<path d="M411.75 145.22H407.16V182.96H411.75V145.22Z" fill="#E8505B"/>
<path d="M420.62 138.59H416.03V182.96H420.62V138.59Z" fill="black"/>
<path d="M429.49 152.73H424.9V182.96H429.49V152.73Z" fill="#E8505B"/>
<path d="M438.36 146.98H433.77V182.96H438.36V146.98Z" fill="black"/>
<path d="M440.24 186.53C440.24 186.63 418.45 186.72 391.57 186.72C364.68 186.72 342.9 186.64 342.9 186.53C342.9 186.43 364.69 186.34 391.57 186.34C418.45 186.35 440.24 186.43 440.24 186.53Z" fill="#263238"/>
<path d="M351.63 190.57C351.63 190.67 350.1 190.76 348.22 190.76C346.34 190.76 344.81 190.68 344.81 190.57C344.81 190.47 346.34 190.38 348.22 190.38C350.1 190.38 351.63 190.47 351.63 190.57Z" fill="#263238"/>
<path d="M362.93 190.78C362.93 190.88 361.11 190.97 358.86 190.97C356.61 190.97 354.79 190.89 354.79 190.78C354.79 190.68 356.61 190.59 358.86 190.59C361.11 190.59 362.93 190.67 362.93 190.78Z" fill="#263238"/>
<path d="M372.58 190.78C372.58 190.88 370.76 190.97 368.51 190.97C366.26 190.97 364.44 190.89 364.44 190.78C364.44 190.68 366.26 190.59 368.51 190.59C370.76 190.59 372.58 190.67 372.58 190.78Z" fill="#263238"/>
<path d="M382.23 190.78C382.23 190.88 380.41 190.97 378.16 190.97C375.91 190.97 374.09 190.89 374.09 190.78C374.09 190.68 375.91 190.59 378.16 190.59C380.4 190.59 382.23 190.67 382.23 190.78Z" fill="#263238"/>
<path d="M391.87 190.78C391.87 190.88 390.05 190.97 387.8 190.97C385.55 190.97 383.73 190.89 383.73 190.78C383.73 190.68 385.55 190.59 387.8 190.59C390.05 190.59 391.87 190.67 391.87 190.78Z" fill="#263238"/>
<path d="M401.52 190.78C401.52 190.88 399.7 190.97 397.45 190.97C395.2 190.97 393.38 190.89 393.38 190.78C393.38 190.68 395.2 190.59 397.45 190.59C399.7 190.59 401.52 190.67 401.52 190.78Z" fill="#263238"/>
<path d="M411.17 190.78C411.17 190.88 409.35 190.97 407.1 190.97C404.85 190.97 403.03 190.89 403.03 190.78C403.03 190.68 404.85 190.59 407.1 190.59C409.34 190.59 411.17 190.67 411.17 190.78Z" fill="#263238"/>
<path d="M420.81 190.78C420.81 190.88 418.99 190.97 416.74 190.97C414.49 190.97 412.67 190.89 412.67 190.78C412.67 190.68 414.49 190.59 416.74 190.59C418.99 190.59 420.81 190.67 420.81 190.78Z" fill="#263238"/>
<path d="M430.46 190.78C430.46 190.88 428.64 190.97 426.39 190.97C424.14 190.97 422.32 190.89 422.32 190.78C422.32 190.68 424.14 190.59 426.39 190.59C428.63 190.59 430.46 190.67 430.46 190.78Z" fill="#263238"/>
<path d="M440.1 190.78C440.1 190.88 438.28 190.97 436.03 190.97C433.78 190.97 431.96 190.89 431.96 190.78C431.96 190.68 433.78 190.59 436.03 190.59C438.28 190.59 440.1 190.67 440.1 190.78Z" fill="#263238"/>
<g opacity="0.3">
<path d="M358.53 149.08H353.94V182.96H358.53V149.08Z" fill="#F47B52"/>
</g>
<g opacity="0.3">
<path d="M376.27 133.63H371.68V182.96H376.27V133.63Z" fill="#F47B52"/>
</g>
<g opacity="0.3">
<path d="M394.01 156.56H389.42V182.96H394.01V156.56Z" fill="#F47B52"/>
</g>
<g opacity="0.3">
<path d="M411.75 145.22H407.16V182.96H411.75V145.22Z" fill="#F47B52"/>
</g>
<g opacity="0.3">
<path d="M429.49 152.73H424.9V182.96H429.49V152.73Z" fill="#F47B52"/>
</g>
<path d="M223.18 72.92C223.18 75.36 221.2 77.34 218.76 77.34C216.32 77.34 214.34 75.36 214.34 72.92C214.34 70.48 216.32 68.5 218.76 68.5C221.2 68.5 223.18 70.48 223.18 72.92Z" fill="#F47B52"/>
<path d="M299.21 69.4299C299.21 69.5699 284.3 69.6899 265.91 69.6899C247.51 69.6899 232.61 69.5699 232.61 69.4299C232.61 69.2899 247.52 69.1699 265.91 69.1699C284.3 69.1699 299.21 69.2899 299.21 69.4299Z" fill="black"/>
<path d="M259.35 74.78C259.35 74.82 258.98 74.85 258.32 74.88C257.66 74.91 256.69 74.94 255.51 74.96C253.13 75.01 249.85 75.04 246.23 75.04C242.6 75.04 239.32 75.01 236.95 74.96C235.76 74.94 234.8 74.91 234.14 74.88C233.48 74.85 233.11 74.81 233.11 74.78C233.11 74.74 233.48 74.71 234.14 74.68C234.8 74.65 235.77 74.62 236.95 74.6C239.33 74.55 242.61 74.52 246.23 74.52C249.85 74.52 253.14 74.55 255.51 74.6C256.7 74.62 257.66 74.65 258.32 74.68C258.98 74.71 259.35 74.74 259.35 74.78Z" fill="black"/>
<path d="M185.26 55.8301H45.3501V215.51H185.26V55.8301Z" fill="#FAFAFA"/>
<path d="M185.26 215.51C185.26 215.51 185.25 215.25 185.25 214.75C185.25 214.24 185.24 213.5 185.24 212.53C185.23 210.57 185.22 207.68 185.21 203.91C185.2 196.37 185.18 185.34 185.15 171.33C185.12 143.33 185.08 103.44 185.03 55.8301L185.26 56.0601C144.06 56.0701 96.1901 56.0801 45.3601 56.0901H45.3501L45.6101 55.8301C45.6001 114.7 45.5801 169.6 45.5701 215.51L45.3501 215.29C87.4401 215.34 122.39 215.38 146.83 215.4C159.06 215.42 168.65 215.44 175.2 215.46C178.47 215.47 180.98 215.48 182.68 215.49C184.38 215.5 185.26 215.51 185.26 215.51C185.26 215.51 184.41 215.53 182.73 215.53C181.04 215.54 178.55 215.54 175.29 215.56C168.75 215.57 159.17 215.59 146.97 215.62C122.5 215.65 87.5001 215.69 45.3501 215.73H45.1301V215.51C45.1201 169.6 45.1001 114.7 45.0901 55.8301V55.5701H45.3501H45.3601C96.1901 55.5801 144.06 55.5901 185.26 55.6001H185.49V55.8301C185.44 103.51 185.4 143.45 185.37 171.48C185.34 185.47 185.32 196.48 185.31 204.01C185.3 207.76 185.29 210.63 185.28 212.58C185.27 213.54 185.27 214.27 185.27 214.77C185.27 215.27 185.26 215.51 185.26 215.51Z" fill="#263238"/>
<path d="M173.23 137.37C173.18 137.47 171.68 136.59 168.73 135.66C165.8 134.75 161.29 133.88 155.83 134.7C153.12 135.13 150.19 135.95 147.32 137.43C144.43 138.88 141.68 141.02 138.95 143.45C136.21 145.87 133.48 148.62 130.34 151.16C127.2 153.66 123.59 156.03 119.35 157.11C117.25 157.65 115.04 157.79 112.93 157.5C110.82 157.21 108.83 156.52 106.99 155.66C103.31 153.92 100.15 151.64 97.0302 149.74C93.9302 147.8 90.8202 146.26 87.6602 145.54C84.5302 144.78 81.4902 144.62 78.7502 144.86C73.2402 145.34 69.0802 147.29 66.4502 148.86C63.8102 150.47 62.5702 151.69 62.5002 151.6C62.4802 151.58 62.7802 151.27 63.3902 150.72C63.9902 150.16 64.9402 149.4 66.2502 148.54C68.8502 146.85 73.0502 144.76 78.6802 144.18C81.4802 143.9 84.6002 144.01 87.8402 144.77C91.0902 145.47 94.3502 147.05 97.4802 148.99C100.64 150.89 103.8 153.14 107.37 154.81C110.91 156.52 115.07 157.27 119.1 156.18C123.13 155.16 126.65 152.87 129.74 150.43C132.83 147.95 135.57 145.21 138.35 142.79C141.12 140.36 143.95 138.19 146.94 136.73C149.91 135.24 152.93 134.43 155.71 134.03C161.31 133.27 165.9 134.27 168.83 135.3C170.31 135.81 171.41 136.34 172.13 136.72C172.88 137.12 173.25 137.34 173.23 137.37Z" fill="black"/>
<path d="M95.7501 158.81H83.8601V190.98H95.7501V158.81Z" fill="#F47B52"/>
<path d="M146.22 158.81H134.33V190.98H146.22V158.81Z" fill="black"/>
<path d="M163.05 139.92H151.16V190.98H163.05V139.92Z" fill="#F47B52"/>
<path d="M80.3602 180.86H68.4702V191.69H80.3602V180.86Z" fill="black"/>
<path d="M112.58 173.34H100.68V190.98H112.58V173.34Z" fill="black"/>
<path d="M129.4 169.29H117.51V190.98H129.4V169.29Z" fill="#F47B52"/>
<path d="M96.2304 194.78C96.2304 195.04 93.3504 195.26 89.8004 195.26C86.2504 195.26 83.3704 195.05 83.3704 194.78C83.3704 194.52 86.2504 194.3 89.8004 194.3C93.3604 194.3 96.2304 194.51 96.2304 194.78Z" fill="#263238"/>
<path d="M81.4303 194.78C81.4303 195.04 78.5503 195.26 75.0003 195.26C71.4503 195.26 68.5703 195.05 68.5703 194.78C68.5703 194.52 71.4503 194.3 75.0003 194.3C78.5503 194.3 81.4303 194.51 81.4303 194.78Z" fill="#263238"/>
<path d="M165.4 194.78C165.4 195.04 162.15 195.26 158.14 195.26C154.13 195.26 150.88 195.05 150.88 194.78C150.88 194.52 154.13 194.3 158.14 194.3C162.14 194.3 165.4 194.51 165.4 194.78Z" fill="#263238"/>
<path d="M140.46 195.26C144.47 195.26 147.72 195.045 147.72 194.78C147.72 194.515 144.47 194.3 140.46 194.3C136.451 194.3 133.2 194.515 133.2 194.78C133.2 195.045 136.451 195.26 140.46 195.26Z" fill="#263238"/>
<path d="M129.4 194.78C129.4 195.04 126.52 195.26 122.97 195.26C119.42 195.26 116.54 195.05 116.54 194.78C116.54 194.52 119.42 194.3 122.97 194.3C126.52 194.3 129.4 194.51 129.4 194.78Z" fill="#263238"/>
<path d="M112.02 194.78C112.02 195.04 109.14 195.26 105.59 195.26C102.04 195.26 99.1604 195.05 99.1604 194.78C99.1604 194.52 102.04 194.3 105.59 194.3C109.14 194.3 112.02 194.51 112.02 194.78Z" fill="#263238"/>
<path d="M165.4 79.1101H68.1902V119.48H165.4V79.1101Z" fill="#E0E0E0"/>
<path d="M88.3801 91.8701C88.3801 94.3701 86.3501 96.4001 83.8501 96.4001C81.3501 96.4001 79.3201 94.3701 79.3201 91.8701C79.3201 89.3701 81.3501 87.3401 83.8501 87.3401C86.3501 87.3401 88.3801 89.3701 88.3801 91.8701Z" fill="#263238"/>
<path d="M124.49 88.74H92.9102V90.49H124.49V88.74Z" fill="#263238"/>
<path d="M154.34 92.73H92.9102V94.48H154.34V92.73Z" fill="white"/>
<path d="M88.3801 105.8C88.3801 108.3 86.3501 110.33 83.8501 110.33C81.3501 110.33 79.3201 108.3 79.3201 105.8C79.3201 103.3 81.3501 101.27 83.8501 101.27C86.3501 101.27 88.3801 103.3 88.3801 105.8Z" fill="#F47B52"/>
<path d="M109.03 102.67H92.9102V104.42H109.03V102.67Z" fill="#F47B52"/>
<path d="M154.34 106.66H92.9102V108.41H154.34V106.66Z" fill="white"/>
<path d="M624.79 27.1699H471.15V202.52H624.79V27.1699Z" fill="#FAFAFA"/>
<path d="M624.79 202.52C624.79 202.52 624.78 202.23 624.78 201.69C624.78 201.14 624.77 200.32 624.77 199.25C624.76 197.1 624.75 193.92 624.74 189.79C624.73 181.51 624.71 169.4 624.68 154.02C624.65 123.28 624.61 79.4699 624.56 27.1799L624.79 27.4099C579.55 27.4199 526.98 27.4299 471.17 27.4399H471.15L471.41 27.1799C471.4 91.8299 471.38 152.11 471.37 202.53L471.15 202.31C517.38 202.36 555.76 202.4 582.59 202.42C596.02 202.44 606.56 202.46 613.75 202.48C617.34 202.49 620.1 202.5 621.96 202.51C623.82 202.5 624.79 202.52 624.79 202.52C624.79 202.52 623.85 202.54 622.01 202.54C620.16 202.55 617.42 202.55 613.84 202.57C606.66 202.58 596.14 202.6 582.73 202.63C555.86 202.66 517.43 202.7 471.15 202.74H470.93V202.52C470.92 152.11 470.9 91.8199 470.89 27.1699V26.9099H471.15H471.17C526.98 26.9199 579.55 26.9299 624.79 26.9399H625.02V27.1699C624.97 79.5199 624.93 123.38 624.9 154.16C624.87 169.52 624.85 181.62 624.84 189.88C624.83 194 624.82 197.16 624.81 199.3C624.8 200.36 624.8 201.16 624.8 201.71C624.8 202.25 624.79 202.52 624.79 202.52Z" fill="#263238"/>
<path d="M607.9 41.1899H483.44V141.04H607.9V41.1899Z" fill="#E0E0E0"/>
<path d="M496.22 123.28H492.14V124.46H496.22V123.28Z" fill="#263238"/>
<path d="M506.6 129.58H501.38V130.76H506.6V129.58Z" fill="#263238"/>
<path d="M524.79 129.58H519.57V130.76H524.79V129.58Z" fill="#263238"/>
<path d="M542.97 129.58H537.75V130.76H542.97V129.58Z" fill="#263238"/>
<path d="M561.16 129.58H555.94V130.76H561.16V129.58Z" fill="#263238"/>
<path d="M579.34 129.58H574.12V130.76H579.34V129.58Z" fill="#263238"/>
<path d="M597.53 129.58H592.31V130.76H597.53V129.58Z" fill="#263238"/>
<path d="M496.22 107.56H492.14V108.74H496.22V107.56Z" fill="#263238"/>
<path d="M496.22 77.97H492.14V79.15H496.22V77.97Z" fill="#263238"/>
<path d="M496.22 63.0999H492.14V64.2799H496.22V63.0999Z" fill="#263238"/>
<path d="M496.43 92.7698H492.35V93.9498H496.43V92.7698Z" fill="#263238"/>
<path d="M597.38 124.46C597.38 124.47 597.23 124.48 596.94 124.49C596.63 124.5 596.2 124.5 595.65 124.52C594.49 124.53 592.83 124.55 590.71 124.57C586.39 124.59 580.19 124.62 572.53 124.65C557.16 124.67 535.97 124.7 512.56 124.73C507.69 124.73 502.92 124.73 498.35 124.73H498.09V124.47C498.13 104.42 498.16 86.7799 498.18 74.1199C498.21 67.8199 498.24 62.7599 498.26 59.2499C498.28 57.5299 498.29 56.1899 498.3 55.2499C498.31 54.8099 498.32 54.4699 498.32 54.2099C498.33 53.9799 498.34 53.8599 498.34 53.8599C498.35 53.8599 498.36 53.9799 498.36 54.2099C498.37 54.4699 498.37 54.8099 498.38 55.2499C498.39 56.1899 498.41 57.5299 498.42 59.2499C498.44 62.7599 498.46 67.8199 498.5 74.1199C498.52 86.7799 498.55 104.42 498.59 124.47L498.33 124.21C502.9 124.21 507.67 124.21 512.54 124.21C535.95 124.24 557.14 124.27 572.51 124.29C580.17 124.32 586.37 124.35 590.69 124.37C592.82 124.39 594.48 124.41 595.63 124.42C596.18 124.43 596.6 124.44 596.92 124.45C597.24 124.44 597.38 124.45 597.38 124.46Z" fill="#263238"/>
<path d="M598.54 93.3599C598.54 93.4999 577 93.6199 550.43 93.6199C523.85 93.6199 502.31 93.4999 502.31 93.3599C502.31 93.2199 523.85 93.0999 550.43 93.0999C576.99 93.0999 598.54 93.2099 598.54 93.3599Z" fill="#263238"/>
<path d="M598.54 78.5598C598.54 78.6998 577 78.8198 550.43 78.8198C523.85 78.8198 502.31 78.6998 502.31 78.5598C502.31 78.4198 523.85 78.2998 550.43 78.2998C576.99 78.2998 598.54 78.4198 598.54 78.5598Z" fill="#263238"/>
<path d="M598.54 63.6899C598.54 63.8299 577 63.9499 550.43 63.9499C523.85 63.9499 502.31 63.8299 502.31 63.6899C502.31 63.5499 523.85 63.4299 550.43 63.4299C576.99 63.4299 598.54 63.5499 598.54 63.6899Z" fill="#263238"/>
<path d="M598.54 108.15C598.54 108.29 577 108.41 550.43 108.41C523.85 108.41 502.31 108.29 502.31 108.15C502.31 108.01 523.85 107.89 550.43 107.89C576.99 107.89 598.54 108.01 598.54 108.15Z" fill="#263238"/>
<path d="M503.3 121.28C503.3 118.8 503.3 108.15 503.3 108.15L511.48 95.4499L517.03 99.7099L528.43 82.0099L535.15 86.7399L544.5 70.4099L552.1 76.5999L563.5 54.9399L575.77 79.1499L585.7 67.0399L597.39 63.6999V121.29H503.3V121.28Z" fill="#455A64"/>
<path d="M598.54 59.0298C598.54 59.0398 598.47 59.0398 598.33 59.0498C598.17 59.0598 597.97 59.0598 597.72 59.0698C597.15 59.0798 596.36 59.0898 595.35 59.1098C593.24 59.1298 590.21 59.1498 586.38 59.1798L586.49 59.1198C583.88 62.5398 580.63 66.7998 576.89 71.6898L576.83 71.7698H576.73C569.74 71.7798 561.56 71.7998 552.67 71.8098L552.88 71.6898C549.71 76.9598 546.3 82.6498 542.77 88.5298C539.32 94.2598 535.99 99.7998 532.84 105.04L532.64 105.36L532.42 105.05C527.67 98.5098 523.28 92.4698 519.39 87.1198L519.74 87.1098C514.79 94.8098 510.7 101.16 507.83 105.62C506.4 107.81 505.28 109.53 504.5 110.73C504.12 111.3 503.83 111.74 503.61 112.06C503.41 112.36 503.29 112.5 503.29 112.5C503.29 112.5 503.37 112.33 503.56 112.02C503.76 111.69 504.04 111.23 504.39 110.65C505.15 109.43 506.24 107.69 507.62 105.47C510.45 100.99 514.49 94.5998 519.38 86.8598L519.55 86.5998L519.73 86.8498C523.63 92.1798 528.05 98.2098 532.82 104.73L532.4 104.75C535.55 99.5098 538.88 93.9598 542.32 88.2298C545.86 82.3498 549.28 76.6698 552.45 71.3998L552.52 71.2798H552.66C561.55 71.2998 569.74 71.3098 576.72 71.3198L576.56 71.3998C580.33 66.5398 583.61 62.3098 586.25 58.8998L586.29 58.8398H586.36C590.19 58.8698 593.22 58.8898 595.33 58.9098C596.34 58.9298 597.13 58.9398 597.7 58.9498C597.95 58.9598 598.15 58.9598 598.31 58.9698C598.47 59.0198 598.54 59.0198 598.54 59.0298Z" fill="#E8505B"/>
<path d="M523.51 91.2198C523.51 91.7098 523.1 92.1098 522.59 92.1098C522.08 92.1098 521.67 91.7098 521.67 91.2198C521.67 90.7298 522.08 90.3298 522.59 90.3298C523.1 90.3298 523.51 90.7298 523.51 91.2198Z" fill="#E8505B"/>
<path d="M551.27 75.4398C551.27 75.9298 550.86 76.3298 550.35 76.3298C549.84 76.3298 549.43 75.9298 549.43 75.4398C549.43 74.9498 549.84 74.5498 550.35 74.5498C550.85 74.5498 551.27 74.9498 551.27 75.4398Z" fill="#E8505B"/>
<path d="M572.84 71.5699C572.84 72.0599 572.43 72.4599 571.92 72.4599C571.41 72.4599 571 72.0599 571 71.5699C571 71.0799 571.41 70.6799 571.92 70.6799C572.43 70.6799 572.84 71.0699 572.84 71.5699Z" fill="#E8505B"/>
<path d="M602.3 155.88C602.3 156.02 576.04 156.14 543.65 156.14C511.25 156.14 484.99 156.02 484.99 155.88C484.99 155.74 511.25 155.62 543.65 155.62C576.03 155.62 602.3 155.74 602.3 155.88Z" fill="#263238"/>
<path d="M602.3 162.22C602.3 162.36 576.04 162.48 543.65 162.48C511.25 162.48 484.99 162.36 484.99 162.22C484.99 162.08 511.25 161.96 543.65 161.96C576.03 161.96 602.3 162.08 602.3 162.22Z" fill="#263238"/>
<path d="M602.3 168.56C602.3 168.7 576.04 168.82 543.65 168.82C511.25 168.82 484.99 168.7 484.99 168.56C484.99 168.42 511.25 168.3 543.65 168.3C576.03 168.3 602.3 168.42 602.3 168.56Z" fill="#263238"/>
<path d="M602.3 174.91C602.3 175.05 576.04 175.17 543.65 175.17C511.25 175.17 484.99 175.05 484.99 174.91C484.99 174.77 511.25 174.65 543.65 174.65C576.03 174.65 602.3 174.76 602.3 174.91Z" fill="#263238"/>
<path d="M555.97 172.42C559.18 167.03 560.12 159.85 560.94 153.63C561.33 150.7 562.01 146.54 559.96 144.7C557.76 142.73 557.56 139.71 555.03 138.19C552.5 136.67 549.06 136.53 546.67 138.26" fill="#263238"/>
<path d="M547.07 191.51C542.17 191.89 537.94 188.12 537.75 183.21C537.57 178.5 537.41 173.73 537.41 173.73C537.41 173.73 530.27 173.06 529.75 165.99C529.23 158.92 529.47 142.6 529.47 142.6C537.45 138.58 546.97 139.19 554.37 144.2L553.93 169.08V182.47C553.88 186.95 551.54 191.16 547.07 191.51Z" fill="#FFBE9D"/>
<path d="M536.79 157.35C538.01 155.84 539.99 155.24 541.62 156.3C543.25 157.36 543.88 159.71 542.99 161.44C542.36 162.66 540.94 163.76 539.52 164.06C538.19 164.34 537.24 165.63 537.39 166.98C537.59 168.75 540.55 169.42 541.88 170.89C543.95 173.17 548.5 174.14 551.56 174.5C554.57 174.86 554.21 174.89 555.96 172.41C557.23 170.61 557.63 168.88 557.68 166.67C557.79 161.46 557.9 156.24 558 151.03C558.04 149.15 558.08 147.25 557.64 145.42C557.21 143.59 556.25 141.81 554.68 140.78C552.96 139.65 550.78 139.55 548.82 138.92C546.37 138.13 544.29 136.5 542 135.33C539.71 134.16 536.9 133.46 534.6 134.61C532.95 135.44 531.84 137.09 530.24 138C527.95 139.3 524.84 139 523.73 142.37C523.35 143.53 523.38 144.81 523.77 145.97C525.32 150.54 530.98 152.39 535.06 150.41C535.14 151.18 534.38 152.91 535.19 155.36C535.48 156.14 535.57 157.33 536.79 157.35Z" fill="#263238"/>
<path d="M538.06 161.77C538.11 161.73 538.36 162.14 538.94 162.11C539.5 162.08 540.24 161.41 540.26 160.5C540.33 159.57 539.62 158.93 539.05 158.74C538.47 158.52 538.05 158.64 538.03 158.55C538 158.5 538.42 158.23 539.15 158.38C539.5 158.46 539.92 158.65 540.26 159.02C540.6 159.38 540.82 159.95 540.78 160.52C540.75 161.7 539.74 162.55 538.94 162.48C538.54 162.46 538.27 162.25 538.15 162.08C538.03 161.9 538.03 161.78 538.06 161.77Z" fill="#EB996E"/>
<path d="M545.42 140.45C545.4 140.43 545.57 140.18 546.01 139.85C546.44 139.52 547.18 139.16 548.16 139.02C549.13 138.88 550.35 138.99 551.54 139.53C552.74 140.08 553.83 141.08 554.66 142.32C556.32 144.85 556.63 147.61 556.86 149.48C557.05 151.38 557.11 152.56 557.05 152.57C556.97 152.58 556.78 151.41 556.5 149.53C556.19 147.68 555.81 145 554.24 142.61C553.46 141.43 552.44 140.49 551.35 139.97C550.26 139.44 549.13 139.3 548.21 139.39C546.32 139.56 545.47 140.55 545.42 140.45Z" fill="#455A64"/>
<path d="M525.51 147.68C525.51 147.7 525.41 147.7 525.24 147.66C525.07 147.62 524.82 147.54 524.54 147.34C524.26 147.15 523.95 146.85 523.72 146.42C523.49 145.99 523.35 145.4 523.5 144.78C523.63 144.17 524.02 143.54 524.65 143.13C525.29 142.69 526.13 142.68 526.89 142.69C527.66 142.71 528.41 142.65 529.02 142.15C529.65 141.68 530.13 140.96 530.75 140.29C532 138.94 533.62 138.11 535.15 137.75C536.69 137.37 538.14 137.41 539.3 137.66C540.46 137.9 541.35 138.31 541.91 138.66C542.47 139.01 542.74 139.26 542.72 139.28C542.67 139.39 541.51 138.4 539.24 138.02C538.12 137.83 536.73 137.83 535.28 138.22C533.83 138.59 532.31 139.38 531.14 140.65C530.55 141.27 530.06 142.03 529.33 142.57C528.97 142.84 528.55 143.04 528.11 143.12C527.68 143.2 527.27 143.19 526.88 143.19C526.11 143.16 525.41 143.17 524.88 143.51C524.35 143.84 524 144.36 523.86 144.88C523.58 145.95 524.2 146.82 524.67 147.19C525.15 147.58 525.52 147.63 525.51 147.68Z" fill="#455A64"/>
<path d="M544.42 167.35C544.4 167.31 544.78 167.17 545.35 166.79C545.92 166.41 546.71 165.73 547.28 164.64C547.85 163.57 548.11 162.03 547.6 160.5C547.36 159.74 546.93 158.99 546.32 158.37C545.71 157.75 544.94 157.23 544.11 156.75C543.28 156.27 542.44 155.82 541.68 155.3C540.91 154.78 540.24 154.14 539.72 153.46C538.69 152.08 538.2 150.55 538.07 149.28C537.91 147.99 538.11 146.94 538.3 146.26C538.4 145.91 538.5 145.66 538.58 145.49C538.66 145.32 538.71 145.23 538.72 145.24C538.84 145.26 538.07 146.75 538.43 149.24C538.6 150.46 539.11 151.89 540.1 153.18C540.6 153.82 541.22 154.4 541.96 154.89C542.7 155.39 543.53 155.82 544.37 156.31C545.21 156.8 546.02 157.34 546.68 158.02C547.34 158.7 547.81 159.53 548.06 160.36C548.58 162.04 548.26 163.7 547.6 164.82C546.95 165.96 546.08 166.62 545.45 166.97C544.83 167.31 544.43 167.38 544.42 167.35Z" fill="#455A64"/>
<path d="M556.68 156.98C556.69 157.02 556.36 157.09 555.77 157.18C555.18 157.26 554.3 157.33 553.23 157.26C551.09 157.16 548.08 156.42 545.34 154.55C542.61 152.7 540.72 150.17 540.17 148.04C539.88 146.98 539.93 146.07 540.06 145.48C540.2 144.89 540.39 144.6 540.41 144.61C540.52 144.62 539.87 145.92 540.52 147.94C541.13 149.93 542.99 152.33 545.63 154.12C548.28 155.93 551.17 156.7 553.25 156.9C555.36 157.12 556.67 156.87 556.68 156.98Z" fill="#455A64"/>
<path d="M557.81 152.14C560.26 149.38 563.87 147.52 567.56 147.73C571.24 147.94 574.84 150.48 575.74 154.06C576.42 156.75 575.59 159.56 575.24 162.32C574.89 165.08 575.23 168.3 577.48 169.93C578.83 170.91 580.59 171.09 582.21 171.49C583.84 171.89 585.58 172.7 586.13 174.28C586.77 176.09 585.46 178.15 583.7 178.91C581.94 179.67 579.91 179.44 578.04 178.99C578.89 181.02 577.84 183.55 575.94 184.66C574.04 185.77 571.54 185.55 569.66 184.4C567.78 183.25 566.5 181.3 565.82 179.2C564.61 181.33 561.43 181.78 559.39 180.42C557.35 179.07 556.47 176.38 556.79 173.96C557.11 171.53 558.44 169.34 560.05 167.5C560.86 166.57 561.75 165.69 562.33 164.6C562.9 163.51 563.1 162.13 562.47 161.07C561.84 160.01 560.2 159.57 559.32 160.44" fill="#263238"/>
<path d="M562.06 159.55C562.1 159.59 561.24 160.01 559.93 159.53C558.65 159.1 557.15 157.59 556.85 155.51C556.69 154.48 556.83 153.47 557.19 152.64C557.54 151.81 558.05 151.17 558.54 150.72C559.54 149.81 560.39 149.64 560.4 149.68C560.44 149.76 559.67 150.06 558.8 150.98C557.93 151.86 557.04 153.53 557.37 155.43C557.66 157.32 558.95 158.71 560.08 159.2C561.22 159.72 562.05 159.46 562.06 159.55Z" fill="#E8505B"/>
<path d="M537.17 173.61C537.17 173.67 536.54 173.7 535.56 173.45C534.58 173.21 533.28 172.61 532.11 171.58C530.95 170.55 530.19 169.33 529.83 168.39C529.46 167.45 529.41 166.82 529.47 166.81C529.55 166.79 529.73 167.38 530.16 168.24C530.59 169.1 531.35 170.22 532.45 171.19C533.55 172.16 534.75 172.77 535.66 173.09C536.58 173.42 537.18 173.52 537.17 173.61Z" fill="#EB996E"/>
<path d="M564.39 179.4C564.39 179.42 564.27 179.4 564.04 179.35C563.82 179.29 563.5 179.17 563.12 178.94C562.38 178.47 561.48 177.43 561.11 175.89C560.93 175.12 560.85 174.24 561.02 173.32C561.17 172.4 561.51 171.47 561.95 170.54C562.84 168.68 564.25 166.91 565.29 164.85C565.81 163.82 566.19 162.76 566.34 161.7C566.48 160.64 566.36 159.6 566 158.69C565.29 156.85 563.81 155.62 562.41 155.14C560.99 154.64 559.73 154.75 558.91 154.92C558.08 155.09 557.66 155.33 557.64 155.28C557.63 155.26 557.73 155.2 557.93 155.09C558.13 154.99 558.44 154.84 558.86 154.73C559.69 154.49 561.01 154.32 562.53 154.8C564.04 155.26 565.66 156.55 566.45 158.52C566.85 159.49 567 160.63 566.85 161.77C566.71 162.91 566.3 164.02 565.76 165.08C564.68 167.21 563.27 168.96 562.39 170.75C561.48 172.53 561.12 174.34 561.47 175.81C561.78 177.28 562.57 178.29 563.24 178.78C563.92 179.26 564.41 179.35 564.39 179.4Z" fill="#455A64"/>
<path d="M575.06 184.57C575.06 184.59 574.91 184.6 574.61 184.6C574.32 184.59 573.88 184.54 573.35 184.37C572.28 184.06 570.81 183.17 569.67 181.5C568.5 179.84 567.94 177.39 568.08 174.76C568.17 172.12 568.95 169.32 569.44 166.39C569.68 164.92 569.82 163.47 569.74 162.08C569.66 160.7 569.35 159.37 568.83 158.22C568.31 157.07 567.57 156.08 566.68 155.4C565.8 154.7 564.8 154.3 563.87 154.07C561.98 153.63 560.37 153.87 559.32 154.09C558.25 154.33 557.69 154.56 557.67 154.52C557.66 154.5 557.8 154.43 558.06 154.31C558.33 154.19 558.73 154.04 559.26 153.89C560.32 153.61 561.96 153.3 563.94 153.71C564.92 153.93 565.98 154.32 566.93 155.05C567.89 155.76 568.7 156.8 569.26 158.01C569.82 159.22 570.14 160.6 570.24 162.04C570.33 163.48 570.19 164.97 569.95 166.46C569.45 169.44 568.67 172.2 568.55 174.77C568.39 177.33 568.89 179.68 569.97 181.28C571.02 182.91 572.4 183.8 573.41 184.16C574.44 184.56 575.07 184.51 575.06 184.57Z" fill="#455A64"/>
<path d="M577.19 216.77L562.13 228.52L568.45 238.89L586.58 225.53L577.19 216.77Z" fill="#FFBE9D"/>
<path d="M536.91 177.31C536.91 177.31 536.98 176.05 533.7 175.87C530.42 175.69 530.05 175.75 530.05 175.75C530.05 175.75 528.57 173.86 528.48 172.71C528.39 171.56 529.18 169.62 529.18 169.62L532.5 169.31L531.6 167.05L529.26 167.21L522.65 168L520.02 179.58L501.97 213.28C499.03 217.67 500.66 223.65 505.42 225.95C510.09 228.21 516.34 223.42 518.07 218.53L528.06 181.04L531.57 178.29L536.61 177.37" fill="#FFBE9D"/>
<path d="M495.75 401.62L520.33 260.2L520.3 260.19C520.35 259.98 520.4 259.78 520.46 259.58L520.47 259.55C524.65 242.96 531.1 237.65 531.1 237.65L568.72 240.01C571.92 245.76 572.32 259.55 572.32 259.55C572.76 261.24 564.37 398.27 564.37 398.27L551.79 397.92L544.97 268.28L508.36 402.15L495.75 401.62Z" fill="#FFBE9D"/>
<path d="M495.46 402.89L495.51 401.61L508.45 401.98L508.34 406.19L507.54 406.22C503.98 406.31 489.43 406.43 487.07 405.7C484.44 404.89 495.46 402.89 495.46 402.89Z" fill="white"/>
<g opacity="0.6">
<path d="M503.67 405.98C503.88 404.98 504.51 404.07 505.39 403.47C506.27 402.87 507.34 402.57 508.43 402.68L508.33 406.03L503.67 405.98Z" fill="white"/>
</g>
<g opacity="0.6">
<path d="M490.07 404.04C490.07 404.04 486.2 404.97 486.66 405.57C487.12 406.17 501.83 406.56 508.33 406.2L508.32 405.93L491.16 405.61C491.16 405.62 490.82 404.09 490.07 404.04Z" fill="white"/>
</g>
<path d="M508.53 405.93C508.53 405.94 508.45 405.94 508.31 405.95C508.12 405.96 507.91 405.96 507.67 405.97C507.03 405.98 506.25 405.99 505.33 406C503.35 406.01 500.62 406 497.6 405.92C494.58 405.84 491.85 405.72 489.87 405.6C488.95 405.54 488.17 405.49 487.53 405.45C487.29 405.43 487.09 405.41 486.89 405.4C486.74 405.39 486.67 405.38 486.67 405.37C486.67 405.37 486.75 405.36 486.89 405.37C487.08 405.38 487.29 405.39 487.53 405.39C488.17 405.42 488.95 405.45 489.87 405.5C491.85 405.59 494.58 405.7 497.6 405.78C500.62 405.86 503.35 405.89 505.33 405.9C506.25 405.91 507.04 405.91 507.67 405.91C507.91 405.91 508.12 405.92 508.31 405.92C508.45 405.92 508.53 405.92 508.53 405.93Z" fill="#263238"/>
<path d="M491.16 405.8C491.11 405.8 491.09 405.28 490.75 404.75C490.42 404.21 489.95 403.93 489.98 403.9C489.99 403.86 490.54 404.1 490.89 404.68C491.25 405.25 491.2 405.81 491.16 405.8Z" fill="#263238"/>
<path d="M495.02 404.11C494.98 404.13 494.81 403.92 494.63 403.64C494.45 403.36 494.33 403.12 494.37 403.1C494.41 403.08 494.58 403.29 494.76 403.57C494.94 403.84 495.05 404.09 495.02 404.11Z" fill="#263238"/>
<path d="M496.07 403.62C496.04 403.65 495.84 403.52 495.62 403.33C495.4 403.14 495.25 402.96 495.28 402.93C495.31 402.9 495.51 403.03 495.73 403.22C495.95 403.42 496.1 403.59 496.07 403.62Z" fill="#263238"/>
<path d="M496.77 402.51C496.77 402.55 496.47 402.58 496.1 402.57C495.73 402.56 495.43 402.53 495.43 402.49C495.43 402.45 495.73 402.42 496.1 402.43C496.47 402.43 496.77 402.47 496.77 402.51Z" fill="#263238"/>
<path d="M497.02 401.72C497.03 401.76 496.7 401.89 496.26 401.9C495.82 401.92 495.48 401.82 495.49 401.78C495.5 401.74 495.84 401.77 496.25 401.75C496.67 401.74 497.01 401.68 497.02 401.72Z" fill="#263238"/>
<path d="M494.61 403.05C494.61 403.07 494.29 403.09 493.78 403.02C493.53 402.98 493.23 402.92 492.9 402.82C492.74 402.76 492.57 402.72 492.4 402.61C492.32 402.56 492.23 402.48 492.2 402.37C492.17 402.25 492.24 402.13 492.33 402.07C493.13 401.71 493.91 402.14 494.19 402.53C494.35 402.73 494.41 402.92 494.44 403.05C494.47 403.18 494.46 403.26 494.46 403.26C494.43 403.27 494.41 402.96 494.1 402.59C493.95 402.41 493.71 402.24 493.41 402.14C493.12 402.05 492.7 402.02 492.42 402.18C492.29 402.27 492.33 402.41 492.48 402.5C492.61 402.59 492.79 402.64 492.94 402.7C493.25 402.81 493.54 402.88 493.79 402.93C494.29 403.02 494.61 403.03 494.61 403.05Z" fill="#263238"/>
<path d="M494.39 403.09C494.38 403.1 494.26 402.9 494.31 402.55C494.34 402.38 494.41 402.18 494.55 401.99C494.7 401.82 494.9 401.59 495.25 401.62C495.44 401.65 495.53 401.85 495.49 401.98C495.47 402.11 495.4 402.23 495.34 402.32C495.21 402.51 495.07 402.66 494.93 402.78C494.66 403.01 494.46 403.09 494.45 403.08C494.44 403.06 494.62 402.95 494.85 402.71C494.97 402.59 495.1 402.44 495.21 402.26C495.33 402.1 495.42 401.81 495.21 401.77C495 401.75 494.79 401.93 494.65 402.08C494.51 402.24 494.44 402.42 494.4 402.57C494.35 402.88 494.42 403.08 494.39 403.09Z" fill="#263238"/>
<path d="M508.36 402.64C508.36 402.67 507.99 402.6 507.41 402.65C506.83 402.69 506.02 402.89 505.31 403.39C504.6 403.89 504.17 404.56 503.96 405.06C503.75 405.57 503.72 405.91 503.69 405.91C503.68 405.91 503.68 405.82 503.7 405.67C503.72 405.52 503.76 405.29 503.86 405.03C504.05 404.5 504.48 403.8 505.22 403.28C505.96 402.76 506.81 402.57 507.41 402.55C507.71 402.54 507.95 402.56 508.12 402.59C508.28 402.61 508.36 402.64 508.36 402.64Z" fill="#263238"/>
<path d="M502.08 404.77C502.08 404.81 501.24 404.91 500.19 404.89C499.14 404.87 498.3 404.74 498.31 404.7C498.32 404.66 499.16 404.73 500.19 404.74C501.24 404.77 502.08 404.73 502.08 404.77Z" fill="#263238"/>
<path d="M504.61 404.83C504.64 404.86 504.54 404.99 504.44 405.17C504.35 405.35 504.3 405.5 504.25 405.5C504.21 405.5 504.19 405.31 504.3 405.11C504.41 404.91 504.58 404.8 504.61 404.83Z" fill="#263238"/>
<path d="M505.59 403.76C505.62 403.79 505.53 403.91 505.4 404.03C505.26 404.15 505.13 404.23 505.1 404.2C505.07 404.17 505.16 404.05 505.29 403.93C505.43 403.8 505.56 403.73 505.59 403.76Z" fill="#263238"/>
<path d="M506.97 403.29C506.96 403.33 506.79 403.32 506.6 403.38C506.41 403.43 506.27 403.53 506.24 403.5C506.21 403.48 506.32 403.31 506.56 403.24C506.79 403.17 506.98 403.25 506.97 403.29Z" fill="#263238"/>
<path d="M507.94 403.08C507.95 403.12 507.88 403.18 507.77 403.21C507.66 403.25 507.56 403.24 507.55 403.21C507.54 403.17 507.61 403.11 507.72 403.08C507.83 403.04 507.93 403.04 507.94 403.08Z" fill="#263238"/>
<path d="M558.66 181.29C558.66 181.29 563.28 181.75 568.62 185.21C580.52 192.92 600.41 209.23 598.76 216.78C597.36 223.21 581.84 231.01 581.84 231.01L571.76 218.89L577.94 215.36L562.75 205.26L558.66 181.29Z" fill="#263238"/>
<path d="M565.44 205.83L564.95 207.64L563.2 216L562.77 228.25C571.79 239.87 571.93 249.65 571.93 249.65L526.36 254.97C526.37 245.97 529.65 234.63 529.65 234.63C532.29 230.16 532.16 216.78 531.67 216.29C528.82 213.47 528.13 211.4 530.41 207.79C530.41 207.79 516.28 222.63 514.83 223.96C509.84 228.54 505.04 227.26 502.81 225.27C496.57 219.7 502.98 212.52 502.98 212.52L526.78 185.25C528.4 183.39 530.56 182.05 532.96 181.48C535.5 180.88 538.06 180.58 538.06 180.58L553.95 180.72C553.95 180.72 557 180.83 558.68 181.3C558.68 181.3 564.19 183.07 565.62 189.9C567.02 196.72 565.44 205.83 565.44 205.83Z" fill="#263238"/>
<path d="M565.94 194.91C565.98 194.91 566.01 195.38 566.04 196.23C566.06 197.08 566.04 198.31 565.95 199.83C565.77 202.87 565.25 207.05 564.38 211.61C564.08 213.17 563.77 214.66 563.44 216.05L563.45 216C563.31 219.54 563.17 222.6 563.05 224.78C562.99 225.79 562.93 226.64 562.89 227.33C562.84 227.92 562.8 228.25 562.77 228.25C562.74 228.25 562.72 227.93 562.72 227.33C562.72 226.64 562.73 225.79 562.74 224.78C562.77 222.6 562.85 219.54 562.96 216V215.98L562.97 215.95C563.28 214.57 563.59 213.08 563.89 211.53C564.76 206.99 565.33 202.84 565.6 199.82C565.74 198.31 565.81 197.09 565.85 196.24C565.87 195.38 565.9 194.91 565.94 194.91Z" fill="#455A64"/>
<path d="M566.09 207.16C566.17 207.04 569.9 209.48 574.41 212.6C578.92 215.72 582.52 218.35 582.43 218.47C582.35 218.59 578.62 216.15 574.11 213.03C569.6 209.91 566.01 207.28 566.09 207.16Z" fill="#455A64"/>
<path d="M536.63 189.3C536.64 189.29 536.72 189.35 536.86 189.48C537.01 189.6 537.2 189.81 537.43 190.1C537.88 190.67 538.4 191.63 538.66 192.92C538.93 194.2 538.91 195.82 538.4 197.49C537.85 199.13 537.01 200.84 535.84 202.46C535.26 203.27 534.62 204.01 533.96 204.67C533.3 205.34 532.59 205.9 531.97 206.46C530.71 207.59 529.62 208.66 528.72 209.58C527.82 210.49 527.11 211.25 526.62 211.78C526.13 212.3 525.85 212.59 525.82 212.57C525.79 212.55 526.02 212.22 526.46 211.65C526.91 211.08 527.57 210.28 528.44 209.33C529.31 208.38 530.38 207.27 531.63 206.11C532.26 205.52 532.95 204.96 533.58 204.31C534.22 203.66 534.84 202.94 535.4 202.16C536.53 200.6 537.37 198.92 537.92 197.35C538.43 195.77 538.49 194.23 538.27 193C537.88 190.46 536.52 189.36 536.63 189.3Z" fill="#455A64"/>
<path d="M531.33 229.59L531.85 223.46H562.93L562.76 228.25L531.33 229.59Z" fill="#455A64"/>
<path d="M504.81 211.31C504.87 211.39 504.02 211.9 503.09 213.11C502.16 214.29 501.19 216.3 501.28 218.62C501.38 220.94 502.5 222.86 503.53 223.97C504.56 225.1 505.44 225.54 505.39 225.62C505.38 225.65 505.14 225.57 504.75 225.36C504.36 225.15 503.83 224.78 503.26 224.23C502.12 223.15 500.86 221.14 500.75 218.65C500.66 216.16 501.75 214.06 502.79 212.88C503.32 212.28 503.82 211.87 504.19 211.63C504.57 211.38 504.79 211.29 504.81 211.31Z" fill="#455A64"/>
<path d="M564.37 398.27L567.89 406.47L552.12 406.29L551.79 397.93L564.37 398.27Z" fill="white"/>
<path d="M552 404.87C552 404.91 552.84 404.96 554.21 404.98C555.58 405 557.46 405 559.54 404.96C561.53 404.92 563.32 404.88 564.86 404.85C566.22 404.81 567.07 404.78 567.07 404.74C567.07 404.7 566.23 404.65 564.86 404.63C563.49 404.61 561.61 404.62 559.53 404.65C557.55 404.69 555.75 404.73 554.21 404.76C552.85 404.79 552 404.82 552 404.87Z" fill="#263238"/>
<path d="M558.58 398.09C558.44 398.1 558.41 399.59 558.51 401.42C558.61 403.25 558.81 404.73 558.94 404.72C559.08 404.71 559.11 403.22 559.01 401.39C558.91 399.56 558.71 398.09 558.58 398.09Z" fill="#263238"/>
<path opacity="0.6" d="M567.87 406.64L552.1 406.12L552 404.62L567.07 404.75L567.87 406.47" fill="white"/>
<path d="M570.92 241.75C582.79 279.2 567.49 324.66 571.16 368.3C571.52 372.59 573.26 377.72 569.25 380.16C568.17 380.82 566.89 381.08 565.63 381.04C562.43 380.93 559.75 379.27 556.89 378.13C551.46 375.96 545.28 375.72 539.69 377.46C535.9 378.64 532.15 380.73 528.23 380.13C523.02 379.34 519.65 374.2 514.85 372.01C510.36 369.97 505.18 370.73 500.25 370.61C500.2 370.61 500.15 370.61 500.1 370.61C492.99 370.39 488.01 363.47 489.89 356.6C497.05 330.37 520.81 245.14 531.33 229.58L562.77 228.24C565.66 231.75 569.39 236.98 570.92 241.75Z" fill="#F47B52"/>
<path d="M559.9 259.38C559.95 259.43 559.3 260.25 558.19 261.53C557.07 262.8 555.51 264.56 553.55 266.27C551.58 267.98 549.56 269.23 548.07 270.04C546.57 270.84 545.6 271.25 545.57 271.2C545.46 271.02 549.31 269.23 553.2 265.88C555.13 264.2 556.73 262.49 557.91 261.28C559.1 260.06 559.85 259.33 559.9 259.38Z" fill="#263238"/>
<g opacity="0.1">
<path d="M546.02 273.51C536.12 298.85 534.25 327.26 540.75 353.67C541.31 355.96 541.89 358.56 540.59 360.52C538.9 363.06 534.82 362.89 532.51 360.89C530.2 358.9 529.28 355.75 528.7 352.76C524.38 330.42 532.2 307.96 540.65 286.83" fill="black"/>
</g>
<path d="M367.7 286.13H308.11V289.03H367.7V286.13Z" fill="#263238"/>
<path d="M298.88 289.03L287.7 247.15H334.23L344.35 289.03H298.88Z" fill="#263238"/>
<path d="M341.56 285.86H300L290.32 249.08H332.1L341.56 285.86Z" fill="#F5F5F5"/>
<path d="M291.02 251.72C305.09 251.72 318.73 251.72 332.81 251.72L332.11 249.08H290.33L291.02 251.72Z" fill="#EBEBEB"/>
<path d="M295.53 250.4C295.53 250.65 295.73 250.86 295.99 250.86C296.24 250.86 296.45 250.66 296.45 250.4C296.45 250.15 296.25 249.94 295.99 249.94C295.74 249.95 295.53 250.15 295.53 250.4Z" fill="#FAFAFA"/>
<path d="M293.96 250.4C293.96 250.65 294.16 250.86 294.42 250.86C294.67 250.86 294.88 250.66 294.88 250.4C294.88 250.15 294.68 249.94 294.42 249.94C294.16 249.95 293.96 250.15 293.96 250.4Z" fill="#FAFAFA"/>
<path d="M292.39 250.4C292.39 250.65 292.59 250.86 292.85 250.86C293.1 250.86 293.31 250.66 293.31 250.4C293.31 250.15 293.11 249.94 292.85 249.94C292.59 249.95 292.39 250.15 292.39 250.4Z" fill="#FAFAFA"/>
<path d="M322.42 267.84L327 273.07C328.78 271.8 329.82 269.86 329.81 267.81C329.8 264.15 326.45 261.15 322.4 261.17C318.35 261.19 315.03 264.21 315.04 267.87L322.42 267.84Z" fill="#F47B52"/>
<path d="M321.84 268.68C321.86 268.64 322.33 269.11 323.15 269.99C323.97 270.87 325.14 272.15 326.53 273.71L326.69 273.89L326.49 274.04C324.64 275.43 321.55 276.02 318.78 274.8C317.46 274.24 316.37 273.31 315.61 272.25C314.86 271.17 314.48 269.94 314.43 268.81L314.42 268.58H314.65C316.84 268.57 318.65 268.58 319.91 268.6C321.16 268.6 321.86 268.64 321.84 268.68C321.82 268.72 321.09 268.78 319.83 268.84C318.57 268.9 316.79 268.96 314.66 269.02L314.88 268.79C314.94 269.84 315.31 270.96 316.02 271.96C316.74 272.94 317.76 273.8 318.99 274.32C321.58 275.46 324.48 274.95 326.24 273.68L326.2 274C324.87 272.45 323.78 271.14 323.02 270.21C322.25 269.28 321.82 268.72 321.84 268.68Z" fill="#263238"/>
<path d="M318.85 263.89C318.85 264.12 319.04 264.3 319.27 264.3C319.5 264.3 319.68 264.11 319.68 263.88C319.68 263.65 319.49 263.47 319.26 263.47C319.03 263.47 318.85 263.66 318.85 263.89Z" fill="#263238"/>
<path d="M310.62 260.89C310.62 260.75 312.83 260.62 315.56 260.61C315.79 260.61 316.01 260.61 316.22 260.61H316.33L316.4 260.68C318.11 262.4 319.35 263.79 319.26 263.88C319.17 263.97 317.77 262.74 316.04 261.05L316.22 261.12C316.01 261.12 315.79 261.12 315.56 261.13C312.83 261.14 310.62 261.04 310.62 260.89Z" fill="#263238"/>
<path d="M301.26 266.13C301.23 266.16 301.07 265.47 300.79 264.2C300.51 262.93 300.11 261.07 299.66 258.8L299.61 258.55H299.87C302.81 258.52 306.37 258.49 310.21 258.46C310.16 258.41 310.7 258.86 310.47 258.67V258.68V258.7L310.48 258.73L310.49 258.79L310.51 258.91L310.56 259.16L310.65 259.65C310.71 259.98 310.77 260.3 310.83 260.62C310.95 261.26 311.07 261.89 311.18 262.51C311.41 263.74 311.63 264.92 311.83 266.04L311.88 266.32H311.6C308.49 266.31 305.88 266.27 304.07 266.24C303.24 266.22 302.54 266.2 301.97 266.18C301.49 266.17 301.25 266.15 301.26 266.13C301.28 266.11 301.56 266.09 302.06 266.07C302.64 266.05 303.35 266.03 304.2 266C306.03 265.95 308.58 265.89 311.6 265.86L311.37 266.14C311.15 265.03 310.92 263.85 310.68 262.62C310.56 262 310.44 261.37 310.32 260.73C310.26 260.41 310.2 260.09 310.14 259.76L310.05 259.27L310 259.02L309.98 258.9L309.97 258.84L309.96 258.81V258.79V258.78C309.73 258.59 310.27 259.04 310.22 258.99C306.38 258.99 302.82 258.98 299.88 258.98L300.09 258.73C300.48 260.93 300.78 262.76 300.99 264.05C301.18 265.34 301.29 266.1 301.26 266.13Z" fill="#263238"/>
<path d="M318.23 272.22C318.23 272.45 318.42 272.63 318.65 272.63C318.88 272.63 319.06 272.44 319.06 272.21C319.06 271.98 318.87 271.8 318.64 271.8C318.42 271.8 318.23 271.99 318.23 272.22Z" fill="#263238"/>
<path d="M311.14 272.24C311.14 272.1 312.82 271.97 314.9 271.96C316.97 271.95 318.66 272.06 318.66 272.21C318.66 272.36 316.98 272.48 314.9 272.49C312.82 272.5 311.14 272.39 311.14 272.24Z" fill="#263238"/>
<path d="M301.3 275.51C301.28 275.54 301.12 275.05 300.85 274.13C300.58 273.21 300.19 271.85 299.73 270.15L299.66 269.91H299.91C302.73 269.86 306.47 269.82 310.57 269.8C310.34 269.63 310.88 270.04 310.82 270V270.01V270.02L310.83 270.04L310.84 270.08L310.86 270.17L310.91 270.35L311 270.71L311.18 271.41C311.3 271.88 311.42 272.34 311.53 272.79C311.76 273.69 311.98 274.57 312.19 275.41L312.27 275.72H311.96C308.8 275.71 306.1 275.68 304.22 275.64C303.36 275.62 302.64 275.6 302.04 275.58C301.54 275.55 301.28 275.53 301.3 275.51C301.32 275.49 301.61 275.47 302.14 275.44C302.75 275.42 303.49 275.39 304.37 275.36C306.26 275.31 308.9 275.25 311.97 275.22L311.73 275.53C311.51 274.69 311.28 273.82 311.05 272.92C310.93 272.47 310.81 272.01 310.69 271.54L310.51 270.84L310.42 270.48L310.37 270.3L310.35 270.21L310.34 270.17L310.33 270.15V270.14V270.13C310.27 270.09 310.81 270.5 310.58 270.33C306.48 270.35 302.73 270.34 299.92 270.31L300.11 270.07C300.51 271.71 300.81 273.05 301.02 274C301.21 274.93 301.32 275.48 301.3 275.51Z" fill="#263238"/>
<path d="M302.08 261.02C302.08 260.88 303.66 260.75 305.62 260.75C307.57 260.74 309.16 260.85 309.16 261C309.16 261.14 307.58 261.27 305.62 261.27C303.67 261.28 302.08 261.17 302.08 261.02Z" fill="#263238"/>
<path d="M302.17 262.18C302.17 262.04 303.76 261.91 305.73 261.91C307.7 261.9 309.29 262.01 309.29 262.16C309.29 262.31 307.7 262.43 305.73 262.43C303.76 262.43 302.17 262.32 302.17 262.18Z" fill="#263238"/>
<path d="M302.38 263.3C302.38 263.16 303.92 263.03 305.81 263.03C307.71 263.02 309.24 263.13 309.25 263.28C309.25 263.42 307.71 263.55 305.82 263.55C303.92 263.55 302.38 263.44 302.38 263.3Z" fill="#263238"/>
<path d="M302.29 272.15C302.29 272.01 303.8 271.88 305.66 271.88C307.52 271.87 309.03 271.98 309.03 272.13C309.03 272.27 307.52 272.4 305.66 272.4C303.8 272.41 302.29 272.29 302.29 272.15Z" fill="#263238"/>
<path d="M302.71 273.43C302.71 273.29 304 273.16 305.58 273.16C307.17 273.15 308.46 273.27 308.46 273.41C308.46 273.55 307.17 273.68 305.59 273.68C304 273.69 302.71 273.58 302.71 273.43Z" fill="#263238"/>
<path d="M237.55 288.89V294.39H241.15V405.6H248.53V294.39H287.7V405.6H295.08V294.39H465.01V405.57H472.39V294.39H475.59V288.89H237.55Z" fill="#263238"/>
<path d="M397.59 330.33C397.59 330.44 399.74 330.53 402.39 330.53C405.04 330.53 407.19 330.44 407.19 330.33C407.19 330.22 405.04 330.13 402.39 330.13C399.73 330.13 397.59 330.22 397.59 330.33Z" fill="#263238"/>
<path d="M327.68 331.47C327.824 331.47 327.94 331.412 327.94 331.34C327.94 331.268 327.824 331.21 327.68 331.21C327.537 331.21 327.42 331.268 327.42 331.34C327.42 331.412 327.537 331.47 327.68 331.47Z" fill="#455A64"/>
<path d="M374.71 232.48L347.14 204.47L346.54 201.44C346.43 200.89 346.31 200.27 346.2 199.56C346.08 198.74 346.09 197.9 346.24 197.09C346.42 196.11 346.71 194.81 347.09 194.15C347.55 193.34 346.81 192.36 346.04 192.7C345.27 193.04 343.94 195.24 343.65 198.26C343.36 201.29 340.78 197.27 339.82 195.83C338.85 194.38 335.66 190.05 335 190C334.02 189.92 333.77 190.98 334.77 192.4C335.78 193.84 338.47 198.3 337.7 198.78C337.7 198.78 337.69 198.78 337.67 198.77C336.12 198.51 334.58 199.27 333.86 200.66C333.16 202 332.39 203.89 333.02 204.77C334.22 206.42 337.42 209.43 337.42 209.43L338.34 210.22C338.34 210.22 362.19 244.78 367.39 245.9C370.62 246.6 420.6 250.74 420.6 250.74L424.37 236.97L374.71 232.48Z" fill="#B78876"/>
<path d="M332.83 204.19C333.68 205.01 334.53 205.82 335.38 206.64C335.67 206.92 335.97 207.2 336.34 207.34C336.71 207.48 337.18 207.45 337.45 207.16C337.7 206.89 337.72 206.48 337.6 206.14C337.48 205.8 337.24 205.51 337.01 205.23C336.18 204.24 335.36 203.24 334.53 202.25" fill="#B78876"/>
<path d="M334.54 202.25C334.6 202.2 335.07 202.68 335.8 203.48C336.21 203.94 336.63 204.42 337.06 204.91C337.29 205.18 337.56 205.46 337.76 205.86C337.96 206.25 338.03 206.82 337.69 207.28C337.31 207.74 336.72 207.75 336.29 207.6C335.85 207.44 335.55 207.15 335.29 206.9C334.83 206.43 334.39 205.98 333.95 205.54C333.2 204.76 332.76 204.24 332.81 204.19C332.86 204.14 333.39 204.56 334.2 205.27C334.66 205.68 335.13 206.11 335.61 206.55C335.87 206.79 336.14 207.02 336.44 207.12C336.73 207.22 337.1 207.17 337.26 206.96C337.43 206.75 337.42 206.37 337.28 206.09C337.14 205.79 336.89 205.51 336.67 205.23C336.27 204.71 335.88 204.22 335.5 203.73C334.86 202.86 334.48 202.3 334.54 202.25Z" fill="#AA6550"/>
<path d="M334.64 202.41C335.49 203.23 336.34 204.04 337.19 204.86C337.48 205.14 337.78 205.42 338.15 205.56C338.52 205.7 338.99 205.67 339.26 205.38C339.51 205.11 339.53 204.7 339.41 204.36C339.29 204.02 339.05 203.73 338.82 203.45C337.99 202.46 337.17 201.46 336.34 200.47" fill="#B78876"/>
<path d="M336.35 200.47C336.41 200.42 336.88 200.9 337.61 201.7C338.02 202.16 338.44 202.64 338.87 203.13C339.1 203.4 339.37 203.68 339.57 204.08C339.77 204.47 339.84 205.04 339.5 205.5C339.12 205.96 338.53 205.97 338.1 205.82C337.66 205.66 337.36 205.37 337.1 205.12C336.64 204.65 336.2 204.2 335.76 203.76C335.01 202.98 334.57 202.46 334.62 202.41C334.67 202.36 335.2 202.78 336.01 203.49C336.47 203.9 336.94 204.33 337.42 204.77C337.68 205.01 337.95 205.24 338.25 205.34C338.54 205.44 338.91 205.39 339.07 205.18C339.24 204.97 339.23 204.59 339.09 204.31C338.95 204.01 338.7 203.73 338.48 203.45C338.08 202.93 337.69 202.44 337.31 201.95C336.67 201.07 336.29 200.52 336.35 200.47Z" fill="#AA6550"/>
<path d="M336.62 200.95C337.47 201.77 338.32 202.58 339.17 203.4C339.46 203.68 339.76 203.96 340.13 204.1C340.5 204.24 340.97 204.21 341.24 203.92C341.49 203.65 341.51 203.24 341.39 202.9C341.27 202.56 341.03 202.27 340.8 201.99C339.97 201 339.15 200 338.32 199.01" fill="#B78876"/>
<path d="M338.33 199.01C338.39 198.96 338.86 199.44 339.59 200.24C340 200.7 340.42 201.18 340.85 201.67C341.08 201.94 341.35 202.22 341.55 202.62C341.75 203.01 341.82 203.58 341.48 204.04C341.1 204.5 340.51 204.51 340.08 204.36C339.64 204.2 339.34 203.91 339.08 203.66C338.62 203.19 338.18 202.74 337.74 202.3C336.99 201.52 336.55 201 336.6 200.95C336.65 200.9 337.18 201.32 337.99 202.03C338.45 202.44 338.92 202.87 339.4 203.31C339.66 203.55 339.93 203.78 340.23 203.88C340.52 203.98 340.89 203.93 341.05 203.72C341.22 203.51 341.21 203.13 341.07 202.85C340.93 202.55 340.68 202.27 340.46 201.99C340.06 201.47 339.67 200.98 339.29 200.49C338.66 199.61 338.28 199.06 338.33 199.01Z" fill="#AA6550"/>
<path d="M340.65 205.18C340.64 205.1 341.28 204.97 342.2 205.25L341.91 205.5C341.79 205.01 341.73 204.39 341.84 203.75C341.99 202.83 342.41 202.07 342.8 201.62C343.19 201.16 343.52 200.98 343.57 201.03C343.68 201.13 342.62 202.15 342.36 203.84C342.26 204.42 342.28 204.97 342.34 205.42L342.39 205.82L342.04 205.67C341.25 205.33 340.65 205.29 340.65 205.18Z" fill="#AA6550"/>
<path d="M410.82 190.49L410.94 228.85L395.98 229.56L395.37 220.36C395.37 220.36 388.15 221.46 386.65 216.03C385.69 212.56 385.93 185.76 385.93 185.76L410.82 190.49Z" fill="#B78876"/>
<path d="M382.21 189.55C383.32 191.84 388.6 196.04 388.6 196.04L390.98 202.43C393.05 200.81 395.83 200.9 396.36 204.54C396.74 207.17 393.47 207.7 393.47 207.7C395.37 210.94 396.67 213.56 399.44 216.64C402.44 219.98 404.12 220.31 407.38 220.37H410.97C410.97 220.37 418.31 214.23 416.86 198.08C415.41 181.93 400.88 186.64 397.41 182.6C391.76 176.02 378.51 181.9 382.21 189.55Z" fill="#263238"/>
<path d="M416.04 211.59C416.04 211.59 415.4 211.72 414.26 211.51C413.13 211.31 411.53 210.67 409.97 209.3C408.4 207.95 407.02 205.89 405.64 203.57C404.24 201.29 402.72 198.62 400.14 196.85C397.54 195.11 394.48 194.75 391.85 194.22C389.2 193.72 386.79 192.96 385.16 191.67C383.52 190.4 382.72 188.82 382.48 187.7C382.23 186.56 382.41 185.93 382.41 185.93C382.45 185.93 382.3 186.57 382.56 187.69C382.82 188.79 383.63 190.33 385.25 191.56C386.87 192.81 389.24 193.55 391.89 194.04C394.51 194.57 397.6 194.91 400.26 196.69C402.89 198.51 404.41 201.2 405.8 203.49C407.17 205.82 408.53 207.86 410.07 209.21C411.59 210.57 413.17 211.22 414.28 211.45C414.84 211.57 415.28 211.59 415.58 211.6C415.88 211.58 416.04 211.59 416.04 211.59Z" fill="#455A64"/>
<path d="M416.88 198.45C416.88 198.45 416.61 198.37 416.11 198.22C415.6 198.07 414.86 197.83 413.86 197.72C412.88 197.62 411.57 197.68 410.4 198.5C409.83 198.9 409.33 199.53 409.2 200.32C409.07 201.09 409.25 202.02 409.9 202.61C410.22 202.9 410.66 203.07 411.11 203.09C411.56 203.11 412.03 202.96 412.44 202.73C413.27 202.25 413.94 201.42 414.25 200.42C414.92 198.46 414.45 195.9 412.65 194.35C411.78 193.57 410.64 193.03 409.42 192.91C408.19 192.78 406.94 193.05 405.7 193.4C404.46 193.75 403.19 194.16 401.85 194.32C400.52 194.5 399.14 194.51 397.77 194.33C396.4 194.14 395.06 193.82 393.83 193.24C392.62 192.67 391.5 191.71 391.14 190.4C390.78 189.12 391.12 187.67 392.05 186.78C392.99 185.86 394.46 185.75 395.56 186.26C396.11 186.51 396.6 186.94 396.86 187.49C397.14 188.02 397.21 188.64 397.14 189.21C396.99 190.36 396.3 191.37 395.39 191.95C394.48 192.54 393.42 192.75 392.43 192.77C391.44 192.79 390.49 192.61 389.63 192.34C387.89 191.8 386.52 190.82 385.51 189.8C384.49 188.78 383.83 187.71 383.41 186.8C382.97 185.89 382.8 185.12 382.67 184.6C382.58 184.08 382.54 183.8 382.54 183.8C382.54 183.8 382.6 184.07 382.71 184.59C382.85 185.1 383.04 185.86 383.49 186.76C383.93 187.66 384.59 188.72 385.6 189.71C386.6 190.71 387.97 191.67 389.68 192.19C390.53 192.45 391.46 192.63 392.44 192.6C393.41 192.58 394.43 192.36 395.3 191.79C396.17 191.23 396.82 190.26 396.96 189.17C397.13 188.08 396.57 186.88 395.48 186.42C394.44 185.94 393.05 186.05 392.18 186.91C391.31 187.75 390.98 189.13 391.32 190.33C391.66 191.56 392.73 192.48 393.91 193.04C395.1 193.61 396.44 193.92 397.78 194.11C399.13 194.28 400.49 194.28 401.81 194.1C403.13 193.94 404.38 193.53 405.63 193.18C406.87 192.83 408.16 192.55 409.42 192.69C410.68 192.82 411.86 193.38 412.75 194.18C414.61 195.79 415.09 198.43 414.39 200.45C414.07 201.48 413.37 202.34 412.5 202.84C412.06 203.08 411.57 203.24 411.08 203.22C410.59 203.19 410.12 203.01 409.78 202.7C409.08 202.06 408.91 201.08 409.05 200.28C409.19 199.45 409.73 198.8 410.32 198.39C411.54 197.56 412.88 197.52 413.86 197.63C414.87 197.75 415.61 198.01 416.12 198.17C416.63 198.34 416.88 198.45 416.88 198.45Z" fill="#455A64"/>
<path d="M397.87 396.23L392.98 389.96L404.67 380.73L411.92 389.83L411.23 390.45C408.14 393.18 395.35 404.1 392.68 405.15C389.7 406.31 397.87 396.23 397.87 396.23Z" fill="#979797"/>
<g opacity="0.4">
<path d="M394.02 401.33C394.02 401.33 391.33 405.08 392.22 405.31C393.11 405.54 406.45 394.99 411.93 389.82L411.7 389.57L396.24 402.01C396.24 402.02 394.72 400.82 394.02 401.33Z" fill="white"/>
</g>
<path d="M411.88 389.43C411.88 389.43 411.82 389.5 411.7 389.61C411.54 389.76 411.35 389.92 411.15 390.1C410.59 390.58 409.91 391.17 409.1 391.87C407.36 393.35 404.92 395.37 402.18 397.54C399.44 399.71 396.92 401.62 395.08 402.97C394.21 403.6 393.48 404.13 392.89 404.56C392.67 404.72 392.47 404.86 392.29 404.98C392.15 405.08 392.08 405.12 392.07 405.12C392.07 405.12 392.13 405.06 392.27 404.95C392.45 404.81 392.64 404.67 392.85 404.5C393.44 404.06 394.16 403.51 395.01 402.86C396.83 401.48 399.34 399.55 402.08 397.39C404.82 395.22 407.26 393.22 409.03 391.76C409.85 391.08 410.55 390.5 411.12 390.03C411.33 389.86 411.52 389.7 411.69 389.56C411.8 389.47 411.87 389.42 411.88 389.43Z" fill="#263238"/>
<path d="M396.39 402.2C396.35 402.24 395.92 401.76 395.19 401.5C394.47 401.23 393.83 401.31 393.82 401.26C393.8 401.22 394.48 401.04 395.25 401.33C396.03 401.61 396.43 402.18 396.39 402.2Z" fill="#263238"/>
<path d="M398.45 397.72C398.43 397.77 398.11 397.7 397.73 397.56C397.35 397.43 397.05 397.28 397.07 397.23C397.09 397.18 397.41 397.25 397.79 397.39C398.17 397.53 398.47 397.67 398.45 397.72Z" fill="#263238"/>
<path d="M399 396.47C399 396.52 398.71 396.54 398.37 396.52C398.03 396.5 397.75 396.44 397.75 396.39C397.75 396.34 398.03 396.32 398.38 396.34C398.73 396.36 399.01 396.42 399 396.47Z" fill="#263238"/>
<path d="M398.73 394.9C398.76 394.94 398.52 395.19 398.18 395.46C397.85 395.73 397.55 395.92 397.52 395.88C397.49 395.84 397.73 395.59 398.07 395.32C398.4 395.04 398.7 394.86 398.73 394.9Z" fill="#263238"/>
<path d="M398.32 393.96C398.36 393.98 398.17 394.35 397.8 394.7C397.43 395.04 397.04 395.2 397.02 395.16C396.99 395.11 397.32 394.89 397.67 394.57C398.03 394.23 398.28 393.93 398.32 393.96Z" fill="#263238"/>
<path d="M397.25 397.01C397.26 397.03 397 397.29 396.5 397.6C396.25 397.76 395.93 397.92 395.56 398.06C395.37 398.12 395.19 398.21 394.95 398.23C394.84 398.24 394.7 398.23 394.58 398.14C394.46 398.05 394.42 397.88 394.46 397.75C394.88 396.81 395.92 396.65 396.48 396.81C396.78 396.88 396.99 397.02 397.12 397.12C397.25 397.22 397.31 397.3 397.3 397.31C397.28 397.34 397.02 397.05 396.45 396.94C396.17 396.88 395.82 396.89 395.48 397.03C395.15 397.16 394.76 397.44 394.63 397.8C394.58 397.98 394.74 398.09 394.93 398.06C395.12 398.04 395.31 397.96 395.49 397.91C395.85 397.78 396.17 397.64 396.42 397.5C396.94 397.22 397.23 396.99 397.25 397.01Z" fill="#263238"/>
<path d="M397.08 397.21C397.08 397.23 396.81 397.12 396.58 396.76C396.47 396.58 396.37 396.34 396.35 396.05C396.35 395.78 396.34 395.41 396.67 395.17C396.86 395.05 397.1 395.19 397.18 395.33C397.27 395.47 397.3 395.63 397.32 395.77C397.36 396.05 397.35 396.3 397.32 396.5C397.27 396.92 397.15 397.15 397.13 397.14C397.1 397.13 397.17 396.89 397.19 396.49C397.2 396.29 397.19 396.05 397.15 395.79C397.13 395.55 396.97 395.21 396.76 395.32C396.56 395.45 396.51 395.79 396.52 396.03C396.53 396.29 396.6 396.51 396.69 396.69C396.88 397.04 397.1 397.18 397.08 397.21Z" fill="#263238"/>
<path d="M409.11 386.42C409.13 386.45 408.75 386.65 408.27 387.13C407.79 387.6 407.23 388.39 407 389.4C406.77 390.4 406.92 391.36 407.14 391.99C407.36 392.63 407.61 392.98 407.58 393C407.57 393.01 407.5 392.93 407.39 392.76C407.28 392.6 407.15 392.35 407.02 392.03C406.76 391.39 406.58 390.4 406.83 389.35C407.07 388.3 407.67 387.49 408.19 387.03C408.45 386.8 408.68 386.63 408.85 386.54C409.01 386.45 409.1 386.41 409.11 386.42Z" fill="#263238"/>
<path d="M404.05 382.51C404.09 382.48 404.98 383.52 406.05 384.83C407.12 386.14 407.95 387.23 407.91 387.26C407.87 387.29 406.98 386.25 405.91 384.94C404.85 383.63 404.01 382.54 404.05 382.51Z" fill="#263238"/>
<path d="M405.24 393.1C405.27 393.13 404.61 393.86 403.67 394.62C402.73 395.38 401.88 395.87 401.85 395.83C401.82 395.79 402.62 395.23 403.55 394.47C404.49 393.73 405.2 393.07 405.24 393.1Z" fill="#263238"/>
<path d="M407.53 391.29C407.58 391.3 407.6 391.5 407.66 391.74C407.72 391.98 407.8 392.17 407.76 392.19C407.72 392.22 407.55 392.05 407.49 391.78C407.41 391.51 407.48 391.28 407.53 391.29Z" fill="#263238"/>
<path d="M407.54 389.53C407.59 389.54 407.61 389.72 407.59 389.93C407.57 390.15 407.51 390.32 407.46 390.32C407.41 390.31 407.39 390.13 407.41 389.91C407.43 389.7 407.49 389.53 407.54 389.53Z" fill="#263238"/>
<path d="M408.39 388.07C408.41 388.12 408.26 388.24 408.13 388.43C408 388.62 407.95 388.82 407.9 388.81C407.85 388.81 407.82 388.57 407.98 388.33C408.14 388.09 408.37 388.02 408.39 388.07Z" fill="#263238"/>
<path d="M409.09 387.14C409.13 387.17 409.11 387.28 409.05 387.39C408.98 387.5 408.89 387.58 408.85 387.55C408.81 387.52 408.83 387.41 408.89 387.3C408.95 387.19 409.04 387.11 409.09 387.14Z" fill="#263238"/>
<g opacity="0.3">
<path d="M408.85 386.12L397.02 395.15L395.92 393.73L408.35 385.3L408.85 386.12Z" fill="black"/>
</g>
<path d="M344.1 402.53L344.12 394.58L359.02 394.53L359.11 406.17L358.19 406.23C354.08 406.47 337.27 407.18 334.52 406.35C331.45 405.43 344.1 402.53 344.1 402.53Z" fill="#979797"/>
<g opacity="0.4">
<path d="M337.92 404.16C337.92 404.16 333.49 405.46 334.04 406.18C334.6 406.91 351.61 406.84 359.11 406.15L359.08 405.82L339.24 406.07C339.25 406.08 338.79 404.2 337.92 404.16Z" fill="white"/>
</g>
<path d="M359.32 405.81C359.32 405.82 359.23 405.83 359.06 405.84C358.84 405.85 358.6 405.87 358.32 405.89C357.58 405.92 356.68 405.97 355.61 406.02C353.32 406.11 350.16 406.2 346.67 406.22C343.18 406.24 340.01 406.18 337.73 406.11C336.66 406.07 335.76 406.04 335.02 406.01C334.75 406 334.51 405.98 334.28 405.97C334.11 405.96 334.02 405.95 334.02 405.94C334.02 405.93 334.11 405.93 334.28 405.93C334.5 405.93 334.74 405.93 335.02 405.94C335.76 405.95 336.66 405.97 337.73 405.98C340.02 406.02 343.18 406.05 346.67 406.03C350.16 406.01 353.32 405.95 355.61 405.89C356.68 405.86 357.58 405.84 358.32 405.82C358.59 405.81 358.84 405.81 359.06 405.81C359.23 405.81 359.32 405.81 359.32 405.81Z" fill="#263238"/>
<path d="M339.25 406.31C339.2 406.32 339.15 405.67 338.74 405.02C338.34 404.36 337.78 404.03 337.81 403.99C337.82 403.95 338.46 404.22 338.89 404.93C339.33 405.62 339.3 406.32 339.25 406.31Z" fill="#263238"/>
<path d="M343.64 404.06C343.6 404.09 343.39 403.83 343.17 403.49C342.95 403.15 342.81 402.85 342.85 402.82C342.89 402.79 343.1 403.05 343.32 403.39C343.54 403.73 343.68 404.03 343.64 404.06Z" fill="#263238"/>
<path d="M344.84 403.42C344.81 403.46 344.57 403.3 344.31 403.07C344.05 402.84 343.87 402.62 343.9 402.59C343.93 402.55 344.17 402.71 344.43 402.94C344.69 403.16 344.88 403.38 344.84 403.42Z" fill="#263238"/>
<path d="M345.6 402.01C345.6 402.06 345.25 402.11 344.82 402.11C344.39 402.12 344.04 402.08 344.04 402.03C344.04 401.98 344.39 401.93 344.82 401.93C345.25 401.92 345.6 401.96 345.6 402.01Z" fill="#263238"/>
<path d="M345.86 401.01C345.88 401.05 345.5 401.23 344.99 401.27C344.48 401.31 344.08 401.2 344.09 401.15C344.1 401.1 344.49 401.13 344.97 401.09C345.46 401.05 345.84 400.97 345.86 401.01Z" fill="#263238"/>
<path d="M343.13 402.76C343.13 402.78 342.76 402.83 342.17 402.76C341.88 402.73 341.53 402.66 341.15 402.54C340.96 402.47 340.77 402.43 340.57 402.3C340.47 402.24 340.37 402.15 340.33 402C340.29 401.86 340.37 401.7 340.47 401.62C341.38 401.14 342.3 401.65 342.64 402.12C342.83 402.36 342.91 402.6 342.96 402.76C343 402.92 343 403.02 342.99 403.02C342.96 403.03 342.92 402.64 342.55 402.21C342.37 402 342.09 401.79 341.73 401.68C341.39 401.58 340.91 401.56 340.59 401.76C340.44 401.87 340.5 402.05 340.67 402.15C340.83 402.25 341.03 402.31 341.21 402.38C341.57 402.5 341.91 402.58 342.2 402.63C342.76 402.73 343.13 402.73 343.13 402.76Z" fill="#263238"/>
<path d="M342.88 402.81C342.87 402.82 342.72 402.58 342.77 402.15C342.79 401.94 342.87 401.69 343.03 401.45C343.2 401.24 343.41 400.94 343.82 400.96C344.04 400.99 344.15 401.24 344.12 401.4C344.1 401.57 344.03 401.71 343.96 401.83C343.82 402.07 343.66 402.26 343.51 402.41C343.21 402.7 342.97 402.82 342.96 402.8C342.94 402.78 343.15 402.63 343.41 402.32C343.54 402.17 343.68 401.97 343.81 401.74C343.94 401.54 344.03 401.17 343.79 401.13C343.55 401.11 343.31 401.35 343.16 401.54C343.01 401.75 342.93 401.97 342.89 402.16C342.82 402.56 342.91 402.8 342.88 402.81Z" fill="#263238"/>
<path d="M359 401.74C359 401.77 358.57 401.7 357.9 401.78C357.23 401.86 356.31 402.13 355.5 402.78C354.7 403.43 354.23 404.27 354.01 404.91C353.79 405.55 353.77 405.98 353.73 405.97C353.72 405.97 353.71 405.86 353.73 405.67C353.74 405.48 353.79 405.2 353.89 404.87C354.08 404.21 354.55 403.32 355.39 402.64C356.23 401.97 357.2 401.7 357.89 401.65C358.24 401.62 358.52 401.64 358.71 401.67C358.9 401.7 359 401.73 359 401.74Z" fill="#263238"/>
<path d="M357.43 395.55C357.48 395.55 357.54 396.92 357.57 398.61C357.6 400.3 357.58 401.67 357.53 401.67C357.48 401.67 357.42 400.3 357.39 398.61C357.36 396.92 357.38 395.55 357.43 395.55Z" fill="#263238"/>
<path d="M351.83 404.61C351.84 404.66 350.87 404.82 349.66 404.84C348.45 404.86 347.48 404.72 347.48 404.67C347.48 404.62 348.46 404.67 349.66 404.65C350.85 404.64 351.82 404.56 351.83 404.61Z" fill="#263238"/>
<path d="M354.75 404.6C354.79 404.64 354.67 404.81 354.57 405.03C354.47 405.25 354.42 405.45 354.37 405.45C354.32 405.45 354.29 405.21 354.41 404.96C354.52 404.7 354.72 404.56 354.75 404.6Z" fill="#263238"/>
<path d="M355.84 403.22C355.88 403.25 355.78 403.41 355.63 403.57C355.48 403.73 355.32 403.83 355.29 403.79C355.25 403.76 355.35 403.6 355.5 403.44C355.66 403.29 355.81 403.19 355.84 403.22Z" fill="#263238"/>
<path d="M357.42 402.59C357.41 402.64 357.21 402.64 356.99 402.72C356.77 402.79 356.61 402.92 356.58 402.88C356.54 402.85 356.66 402.64 356.94 402.55C357.2 402.45 357.43 402.55 357.42 402.59Z" fill="#263238"/>
<path d="M358.54 402.29C358.56 402.34 358.47 402.41 358.35 402.46C358.23 402.51 358.11 402.51 358.09 402.46C358.07 402.41 358.16 402.34 358.28 402.29C358.4 402.25 358.52 402.25 358.54 402.29Z" fill="#263238"/>
<g opacity="0.3">
<path d="M359.11 401.14L344.09 401.16L344.11 399.36L359.06 399.26L359.11 401.14Z" fill="black"/>
</g>
<path d="M380.88 265.24L374.91 283.21C373.3 288.06 369.06 288.89 363.95 288.89H330.76V281.44L361.08 277.11L368.31 258.65L380.88 265.24Z" fill="#B78876"/>
<path d="M327.11 279.9L324.48 278.65C324.48 278.65 321.64 273.16 320.99 273.38C320.34 273.6 320.15 275.21 321.29 277.73L317.79 276.73C317.79 276.73 310.21 280.23 310.54 280.71C310.88 281.18 311.5 282.3 313.15 281.46C314.8 280.62 316.97 279.62 316.97 279.62L321.06 280.79L315.79 281.46L310.83 285.97C310.83 285.97 312.46 287.19 313.86 285.9L326.73 288.67L330.76 288.9V281.45L327.11 279.9Z" fill="#B78876"/>
<path d="M313.86 285.9C313.91 285.94 314.15 285.56 314.62 285.05C314.85 284.8 315.17 284.54 315.56 284.33C315.93 284.12 316.42 284.03 316.95 283.97C319.09 283.72 320.83 283.42 320.81 283.31C320.8 283.2 319.05 283.31 316.9 283.57C316.36 283.64 315.81 283.74 315.37 284.01C314.95 284.27 314.63 284.58 314.4 284.87C313.96 285.45 313.82 285.88 313.86 285.9Z" fill="#AA6550"/>
<path d="M315.87 286.42C315.92 286.42 315.96 286.15 316.32 286.08C316.69 286.01 317.27 285.94 317.88 285.88C319.12 285.75 320.13 285.76 320.14 285.65C320.15 285.54 319.12 285.35 317.84 285.48C317.2 285.55 316.65 285.65 316.22 285.81C316 285.9 315.86 286.08 315.83 286.21C315.8 286.35 315.85 286.42 315.87 286.42Z" fill="#AA6550"/>
<path d="M383.69 261.33L381.14 269.98L364.94 262.65C365.52 260.84 368.2 252.78 373.33 239.98C376.19 232.85 382.54 227.71 390.12 226.45C395.42 225.57 401.19 224.88 405.63 224.93C414.71 225.03 428.08 230.71 429.88 239.61C431.25 246.41 429.93 258.41 429.93 272.99L428.74 300.85L382.19 302.43L383.69 261.33Z" fill="#F47B52"/>
<g opacity="0.3">
<path d="M429.88 266.53C424.22 267.69 418.4 266.52 412.63 266.18C409.13 265.97 405.25 265.59 402.48 267.74C400.29 269.45 399.4 272.31 398.77 275.02C396.36 285.34 395.92 292.25 395.37 302.83L423.39 304.53L429.88 266.53Z" fill="black"/>
</g>
<path d="M382.5 231.09C382.49 231.13 382.97 231.16 383.74 231.46C384.5 231.77 385.54 232.44 386.42 233.63C387.31 234.81 387.91 236.52 388.02 238.48C388.16 240.44 387.87 242.61 387.53 244.86C386.81 249.37 385.71 253.38 384.93 256.27C384.55 257.67 384.23 258.82 383.99 259.7C383.77 260.51 383.66 260.96 383.69 260.97C383.72 260.98 383.88 260.54 384.14 259.74C384.4 258.94 384.77 257.78 385.2 256.35C386.05 253.47 387.2 249.47 387.93 244.92C388.27 242.65 388.55 240.46 388.39 238.45C388.25 236.44 387.6 234.66 386.65 233.46C385.71 232.24 384.6 231.59 383.8 231.31C383.39 231.18 383.07 231.11 382.85 231.09C382.61 231.08 382.5 231.08 382.5 231.09Z" fill="#263238"/>
<path d="M365.45 260.43C365.43 260.48 366.29 260.99 367.73 261.74C369.17 262.49 371.18 263.49 373.44 264.51C375.7 265.53 377.78 266.38 379.29 266.96C380.81 267.54 381.76 267.85 381.78 267.8C381.8 267.75 380.88 267.34 379.4 266.69C377.91 266.04 375.86 265.15 373.6 264.14C371.35 263.12 369.32 262.17 367.85 261.49C366.39 260.8 365.47 260.38 365.45 260.43Z" fill="#263238"/>
<path d="M358.02 304.53C350.09 308.86 347.08 318.73 351.25 326.75L391.76 396.31L410.45 385.02L379 322.21L401.8 307.33" fill="#263238"/>
<path d="M407.35 301.08L351.74 303.05C342.71 303.37 335.6 310.85 335.74 319.89L338.05 399.32L361.44 399.27L360.66 324.17L407.36 322.94V301.08H407.35Z" fill="#263238"/>
<path d="M360.66 326.88C360.68 326.88 360.7 327.13 360.73 327.61C360.75 328.14 360.78 328.84 360.82 329.72C360.89 331.55 360.96 334.2 361.03 337.48C361.17 344.03 361.26 353.08 361.31 363.07C361.36 373.04 361.41 382.06 361.44 388.66C361.46 391.89 361.47 394.53 361.48 396.42C361.48 397.3 361.47 398 361.47 398.53C361.46 399.01 361.45 399.27 361.43 399.27C361.41 399.27 361.39 399.02 361.36 398.54C361.34 398.01 361.31 397.31 361.27 396.43C361.2 394.6 361.13 391.95 361.06 388.67C360.92 382.12 360.83 373.07 360.78 363.07C360.73 353.1 360.68 344.08 360.65 337.48C360.63 334.25 360.62 331.61 360.61 329.72C360.61 328.84 360.62 328.14 360.62 327.61C360.63 327.13 360.64 326.88 360.66 326.88Z" fill="#455A64"/>
<path d="M431.44 250.67H414.62C407.85 250.67 402.36 256.16 402.36 262.93V321.63H368.74C364.05 321.63 360.25 325.43 360.25 330.12H437C437 330.1 437 330.09 437 330.07C440.73 329.91 443.71 326.84 443.71 323.08V262.93C443.71 256.16 438.22 250.67 431.44 250.67Z" fill="#455A64"/>
<path d="M407.25 252.61C407.39 252.61 407.51 269.86 407.51 291.14C407.51 312.42 407.39 329.67 407.25 329.67C407.11 329.67 406.99 312.42 406.99 291.14C406.99 269.86 407.1 252.61 407.25 252.61Z" fill="#263238"/>
<path d="M405.12 391.74V330.16H399.65V391.74C396.31 398.32 388.46 402.78 378.9 406.42H427.67C417.76 402.4 408.82 399.31 405.12 391.74Z" fill="#455A64"/>
<path d="M97.06 383.77C97.05 383.77 97.1 383.64 97.21 383.4C97.33 383.14 97.49 382.8 97.7 382.36C98.12 381.44 98.66 380.04 99.14 378.18C100.09 374.46 100.43 368.78 99.02 362.03C98.37 358.65 97.31 355.02 96.02 351.18C94.75 347.33 93.28 343.24 92.08 338.83C90.89 334.42 89.95 329.64 90.13 324.63C90.31 319.61 91.8 314.59 93.44 309.6C95.07 304.6 96.76 299.71 97.27 294.8C97.84 289.89 96.79 285.08 94.56 281.13C92.4 277.14 89.67 273.73 87.63 270.2C85.56 266.68 84.27 263.06 83.47 259.69C81.92 252.9 82.46 247.18 83.21 243.41C84.01 239.62 84.91 237.66 84.91 237.66C84.92 237.66 84.88 237.79 84.81 238.04C84.73 238.31 84.61 238.68 84.47 239.14C84.17 240.11 83.78 241.56 83.41 243.44C82.73 247.2 82.25 252.89 83.83 259.6C84.64 262.93 85.94 266.5 88.01 269.98C90.04 273.47 92.78 276.87 94.99 280.9C97.27 284.89 98.37 289.86 97.79 294.85C97.28 299.85 95.58 304.77 93.95 309.76C92.31 314.75 90.85 319.71 90.66 324.65C90.47 329.59 91.39 334.32 92.56 338.71C93.74 343.1 95.2 347.19 96.45 351.05C97.72 354.91 98.76 358.56 99.4 361.96C100.77 368.76 100.38 374.5 99.36 378.23C98.84 380.1 98.27 381.49 97.82 382.41C97.59 382.84 97.41 383.18 97.28 383.44C97.13 383.66 97.07 383.78 97.06 383.77Z" fill="#263238"/>
<path d="M90.39 273.68C90.39 273.68 86.25 260.44 93.68 252.7C93.94 252.43 94.4 252.56 94.47 252.93C94.86 255.11 95.36 261.77 90.39 273.68Z" fill="#0E9E73"/>
<path d="M92.8701 257.11C92.9401 257.12 92.8201 258.06 92.5901 259.55C92.3201 261.23 92.0001 263.21 91.6501 265.39C91.3001 267.57 90.9901 269.55 90.7201 271.23C90.4901 272.72 90.3601 273.65 90.2801 273.65C90.2101 273.64 90.2201 272.7 90.3501 271.19C90.4901 269.68 90.7501 267.6 91.1301 265.31C91.5001 263.03 91.9001 260.97 92.2301 259.49C92.5501 258 92.8001 257.09 92.8701 257.11Z" fill="#263238"/>
<path d="M95.25 304.9C95.25 304.9 97.78 291.27 107.97 287.89C108.33 287.77 108.67 288.1 108.56 288.46C107.89 290.57 105.21 296.69 95.25 304.9Z" fill="#0E9E73"/>
<path d="M105.2 291.41C105.26 291.46 104.72 292.22 103.81 293.44C102.78 294.8 101.58 296.4 100.25 298.16C98.9201 299.93 97.7201 301.52 96.7001 302.89C95.8001 304.11 95.2501 304.86 95.1801 304.82C95.1201 304.78 95.5701 303.95 96.4001 302.68C97.2301 301.41 98.4401 299.69 99.8401 297.85C101.24 296.01 102.55 294.37 103.53 293.22C104.5 292.05 105.14 291.36 105.2 291.41Z" fill="#263238"/>
<path d="M92.5 339.1C92.5 339.1 90.96 325.32 99.73 319.13C100.04 318.91 100.46 319.13 100.46 319.5C100.43 321.72 99.65 328.35 92.5 339.1Z" fill="#0E9E73"/>
<path d="M98.0999 323.3C98.1699 323.33 97.8699 324.22 97.3599 325.64C96.7699 327.24 96.0799 329.12 95.3199 331.19C94.5599 333.27 93.8799 335.14 93.2999 336.74C92.7899 338.16 92.4799 339.05 92.4099 339.03C92.3499 339.01 92.5299 338.09 92.9499 336.63C93.3699 335.17 94.0299 333.18 94.8399 331.01C95.6399 328.84 96.4299 326.9 97.0299 325.5C97.6199 324.12 98.0299 323.28 98.0999 323.3Z" fill="#263238"/>
<path d="M100.17 373.51C100.17 373.51 99.1301 359.68 108.11 353.81C108.43 353.6 108.84 353.83 108.83 354.21C108.72 356.42 107.7 363.02 100.17 373.51Z" fill="#0E9E73"/>
<path d="M106.33 357.92C106.4 357.95 106.07 358.83 105.51 360.24C104.87 361.82 104.11 363.67 103.27 365.71C102.44 367.76 101.69 369.61 101.05 371.19C100.49 372.6 100.15 373.47 100.08 373.44C100.02 373.42 100.24 372.5 100.71 371.06C101.18 369.62 101.91 367.65 102.8 365.51C103.68 363.37 104.53 361.46 105.18 360.09C105.82 358.72 106.27 357.89 106.33 357.92Z" fill="#263238"/>
<path d="M84.4401 262.05C84.4401 262.05 72.1501 255.63 71.9101 244.9C71.9001 244.52 72.3201 244.29 72.6301 244.5C74.4501 245.77 79.5201 250.12 84.4401 262.05Z" fill="#0E9E73"/>
<path d="M74.4602 248.59C74.5202 248.55 75.0902 249.29 75.9902 250.51C76.9902 251.89 78.1602 253.51 79.4602 255.3C80.7602 257.09 81.9402 258.7 82.9402 260.08C83.8402 261.3 84.4002 262.05 84.3402 262.1C84.2902 262.14 83.6302 261.47 82.6502 260.31C81.6802 259.14 80.3902 257.49 79.0402 255.61C77.6902 253.73 76.5102 252 75.6902 250.72C74.8702 249.44 74.4002 248.63 74.4602 248.59Z" fill="#263238"/>
<path d="M97.64 290.48C97.64 290.48 84.98 284.82 84.09 274.12C84.06 273.74 84.46 273.49 84.78 273.68C86.68 274.83 92 278.87 97.64 290.48Z" fill="#0E9E73"/>
<path d="M86.8601 277.65C86.9201 277.61 87.5401 278.31 88.5101 279.48C89.5901 280.8 90.8601 282.34 92.2601 284.05C93.6701 285.75 94.94 287.3 96.02 288.61C96.99 289.77 97.5901 290.48 97.5401 290.54C97.4901 290.59 96.7901 289.96 95.7501 288.86C94.7101 287.76 93.3201 286.18 91.8601 284.39C90.4001 282.6 89.1201 280.94 88.2201 279.71C87.3201 278.47 86.8101 277.69 86.8601 277.65Z" fill="#263238"/>
<path d="M90.36 322.18C90.36 322.18 81.67 311.37 85.75 301.45C85.89 301.1 86.37 301.05 86.57 301.37C87.73 303.26 90.62 309.28 90.36 322.18Z" fill="#0E9E73"/>
<path d="M86.6099 305.85C86.6799 305.84 86.9099 306.75 87.2399 308.22C87.5999 309.88 88.0299 311.84 88.4999 314C88.9799 316.16 89.4099 318.11 89.7699 319.77C90.1099 321.24 90.3199 322.16 90.2499 322.18C90.1899 322.2 89.8499 321.32 89.4199 319.86C88.9899 318.4 88.4799 316.37 87.9999 314.11C87.5099 311.85 87.1299 309.79 86.8899 308.29C86.6399 306.8 86.5399 305.86 86.6099 305.85Z" fill="#263238"/>
<path d="M98.97 359.49C98.97 359.49 86.41 353.62 85.7 342.91C85.67 342.53 86.08 342.28 86.4 342.48C88.27 343.67 93.52 347.79 98.97 359.49Z" fill="#0E9E73"/>
<path d="M88.4101 346.48C88.4701 346.44 89.0801 347.15 90.0201 348.33C91.0801 349.67 92.3201 351.23 93.6901 352.96C95.0701 354.69 96.3101 356.25 97.3701 357.58C98.3201 358.76 98.9101 359.48 98.8601 359.53C98.8101 359.58 98.1201 358.94 97.0901 357.82C96.0701 356.7 94.7101 355.1 93.2801 353.28C91.8501 351.46 90.6001 349.78 89.7201 348.54C88.8501 347.32 88.3501 346.52 88.4101 346.48Z" fill="#263238"/>
<path d="M123.99 304.97C124 304.97 124.01 305.07 124.01 305.28C124 305.52 124 305.81 123.99 306.17C123.95 307 123.9 308.13 123.84 309.53C123.68 312.49 123.45 316.61 123.18 321.54V321.55V321.57C122.28 326.59 119.73 332.15 116.29 337.55C113.77 341.53 111.13 345.14 108.86 348.51C106.57 351.86 104.63 354.97 103.29 357.72C101.93 360.47 101.14 362.83 100.68 364.48C100.46 365.31 100.29 365.95 100.2 366.4C100.1 366.84 100.03 367.07 100.02 367.07C100 367.07 100.03 366.83 100.1 366.38C100.16 365.93 100.3 365.27 100.49 364.43C100.89 362.75 101.64 360.35 102.96 357.56C104.28 354.76 106.19 351.62 108.47 348.24C110.73 344.85 113.36 341.23 115.86 337.27C119.27 331.9 121.82 326.42 122.75 321.48V321.51C123.1 316.58 123.39 312.47 123.59 309.51C123.7 308.11 123.79 306.99 123.86 306.16C123.9 305.81 123.92 305.52 123.95 305.28C123.96 305.07 123.98 304.97 123.99 304.97Z" fill="#263238"/>
<path d="M116.51 336.51C116.51 336.51 121.83 323.7 115.14 315.31C114.9 315.02 114.44 315.1 114.34 315.47C113.74 317.61 112.64 324.2 116.51 336.51Z" fill="#0E9E73"/>
<path d="M115.54 319.78C115.61 319.77 115.77 320.7 115.96 322.2C116.15 323.7 116.36 325.79 116.52 328.1C116.69 330.41 116.76 332.5 116.76 334.02C116.76 335.54 116.68 336.48 116.61 336.48C116.53 336.48 116.48 335.54 116.39 334.03C116.28 332.33 116.14 330.34 116 328.13C115.85 325.93 115.71 323.93 115.59 322.23C115.5 320.72 115.47 319.79 115.54 319.78Z" fill="#263238"/>
<g opacity="0.3">
<path d="M116.51 336.51C116.51 336.51 121.83 323.7 115.14 315.31C114.9 315.02 114.44 315.1 114.34 315.47C113.74 317.61 112.64 324.2 116.51 336.51Z" fill="black"/>
</g>
<path d="M100.03 367.37C100.03 367.37 104.29 354.17 96.94 346.36C96.68 346.09 96.22 346.21 96.15 346.58C95.74 348.76 95.18 355.41 100.03 367.37Z" fill="#0E9E73"/>
<path d="M97.71 350.77C97.78 350.76 98.02 351.67 98.33 353.15C98.64 354.63 99.02 356.69 99.37 358.98C99.72 361.27 99.97 363.35 100.09 364.86C100.21 366.37 100.21 367.32 100.14 367.32C100.06 367.33 99.94 366.4 99.72 364.9C99.47 363.22 99.17 361.24 98.85 359.05C98.52 356.87 98.22 354.89 97.96 353.2C97.75 351.72 97.64 350.79 97.71 350.77Z" fill="#263238"/>
<g opacity="0.3">
<path d="M100.03 367.37C100.03 367.37 104.29 354.17 96.94 346.36C96.68 346.09 96.22 346.21 96.15 346.58C95.74 348.76 95.18 355.41 100.03 367.37Z" fill="black"/>
</g>
<path d="M123.29 320.86C123.29 320.86 134.65 312.91 133.5 302.24C133.46 301.87 133.02 301.69 132.74 301.94C131.09 303.42 126.63 308.39 123.29 320.86Z" fill="#0E9E73"/>
<g opacity="0.3">
<path d="M123.29 320.86C123.29 320.86 134.65 312.91 133.5 302.24C133.46 301.87 133.02 301.69 132.74 301.94C131.09 303.42 126.63 308.39 123.29 320.86Z" fill="black"/>
</g>
<path d="M131.44 306.22C131.5 306.25 131.14 307.12 130.5 308.49C129.85 309.86 128.91 311.73 127.81 313.77C126.71 315.81 125.65 317.62 124.84 318.9C124.02 320.18 123.45 320.93 123.4 320.89C123.34 320.85 123.79 320.03 124.53 318.71C125.35 317.22 126.3 315.46 127.36 313.52C128.41 311.58 129.37 309.82 130.18 308.32C130.91 307 131.38 306.19 131.44 306.22Z" fill="#263238"/>
<path d="M104.61 354.29C104.61 354.29 118.31 352.15 121.98 342.07C122.11 341.72 121.79 341.36 121.43 341.46C119.3 342.07 113.11 344.57 104.61 354.29Z" fill="#0E9E73"/>
<g opacity="0.3">
<path d="M104.61 354.29C104.61 354.29 118.31 352.15 121.98 342.07C122.11 341.72 121.79 341.36 121.43 341.46C119.3 342.07 113.11 344.57 104.61 354.29Z" fill="black"/>
</g>
<path d="M118.38 344.74C118.42 344.8 117.72 345.42 116.53 346.36C115.34 347.31 113.68 348.57 111.79 349.92C109.91 351.27 108.16 352.42 106.86 353.22C105.56 354.01 104.72 354.43 104.69 354.37C104.65 354.3 105.42 353.77 106.66 352.91C108.05 351.93 109.68 350.77 111.49 349.5C113.29 348.22 114.92 347.06 116.31 346.07C117.56 345.2 118.34 344.68 118.38 344.74Z" fill="#263238"/>
<path d="M91.54 379.5L87.54 406.4H112.45L109.22 379.5H91.54Z" fill="#455A64"/>
<path d="M110.22 387.84C110.22 387.98 105.72 388.1 100.18 388.1C94.6301 388.1 90.1401 387.98 90.1401 387.84C90.1401 387.7 94.6401 387.58 100.18 387.58C105.72 387.58 110.22 387.7 110.22 387.84Z" fill="#263238"/>
<path d="M110.71 389.98C110.71 390.12 106.07 390.24 100.34 390.24C94.61 390.24 89.97 390.12 89.97 389.98C89.97 389.84 94.61 389.72 100.34 389.72C106.07 389.72 110.71 389.84 110.71 389.98Z" fill="#263238"/>
</g>
<defs>
<clipPath id="clip0_193_1491">
<rect width="677.34" height="407.86" fill="white"/>
</clipPath>
</defs>
</svg>
