<svg width="28" height="28" viewBox="0 0 28 28" fill="none" xmlns="http://www.w3.org/2000/svg">
<path d="M25.0833 5.83301H2.91667C2.14312 5.83301 1.40125 6.1403 0.854272 6.68728C0.307291 7.23426 0 7.97613 0 8.74967L0 16.9163C0 17.6899 0.307291 18.4318 0.854272 18.9787C1.40125 19.5257 2.14312 19.833 2.91667 19.833H14.1867L17.78 22.073C17.8739 22.1337 17.9832 22.1661 18.095 22.1663C18.249 22.1608 18.3954 22.0979 18.5055 21.9899C18.6156 21.882 18.6814 21.7369 18.69 21.583C18.6891 21.5012 18.6709 21.4204 18.6368 21.3461C18.6026 21.2717 18.5532 21.2054 18.4917 21.1513L17.6167 19.833H25.0833C25.4664 19.833 25.8456 19.7576 26.1995 19.611C26.5534 19.4644 26.8749 19.2496 27.1457 18.9787C27.4166 18.7079 27.6314 18.3864 27.778 18.0325C27.9246 17.6786 28 17.2994 28 16.9163V8.74967C28 8.36665 27.9246 7.98738 27.778 7.63351C27.6314 7.27965 27.4166 6.95812 27.1457 6.68728C26.8749 6.41644 26.5534 6.2016 26.1995 6.05503C25.8456 5.90845 25.4664 5.83301 25.0833 5.83301ZM12.7167 8.52801C11.55 10.0563 11.0833 14.4897 11.0833 16.9163C11.0835 17.0155 11.0585 17.113 11.0105 17.1998C10.9625 17.2865 10.8932 17.3596 10.8092 17.4122C10.7251 17.4647 10.629 17.495 10.53 17.5001C10.431 17.5052 10.3324 17.485 10.2433 17.4413C8.80833 16.7413 8.06167 14.058 7.42 11.3747C7.07 12.098 6.62667 13.043 6.25333 13.8363C4.585 17.4997 4.56167 17.4997 4.08333 17.4997C3.41833 17.4997 3.38333 17.4997 2.66 11.4097C2.54333 10.4297 2.43833 9.49634 2.345 8.81967C2.32489 8.66496 2.36706 8.5086 2.46223 8.38498C2.55741 8.26137 2.69779 8.18062 2.8525 8.16051C3.00721 8.1404 3.16357 8.18257 3.28719 8.27774C3.41081 8.37291 3.49155 8.5133 3.51167 8.66801C3.605 9.34467 3.71 10.278 3.82667 11.2697C3.97833 12.4947 4.165 14.1163 4.32833 15.2597C4.60833 14.6647 4.94667 13.953 5.215 13.3463C7.05833 9.33301 7.09333 9.33301 7.58333 9.33301C8.07333 9.33301 8.21333 9.70634 8.55167 11.0947C8.85792 12.601 9.33141 14.0684 9.96333 15.4697C10.08 13.358 10.465 9.50801 11.7833 7.80467C11.8812 7.69297 12.0179 7.62276 12.1657 7.60838C12.3135 7.594 12.4612 7.63651 12.5787 7.72726C12.6962 7.81801 12.7747 7.95016 12.7982 8.09678C12.8217 8.2434 12.7883 8.39344 12.705 8.51634L12.7167 8.52801ZM18.55 13.533C18.1183 15.7613 16.59 17.4997 15.05 17.4997C14.7555 17.498 14.4652 17.43 14.2006 17.3008C13.936 17.1715 13.704 16.9843 13.5217 16.753C13.1751 16.2474 12.9424 15.6726 12.8397 15.0684C12.737 14.4641 12.7666 13.8447 12.9267 13.253C13.3583 11.0247 14.8867 9.28634 16.4267 9.28634C16.7211 9.28799 17.0115 9.35597 17.2761 9.48524C17.5406 9.61451 17.7727 9.80173 17.955 10.033C18.3016 10.5386 18.5342 11.1134 18.637 11.7176C18.7397 12.3219 18.71 12.9413 18.55 13.533ZM25.55 13.533C25.1183 15.7613 23.59 17.4997 22.05 17.4997C21.7555 17.498 21.4652 17.43 21.2006 17.3008C20.936 17.1715 20.704 16.9843 20.5217 16.753C20.1751 16.2474 19.9424 15.6726 19.8397 15.0684C19.737 14.4641 19.7666 13.8447 19.9267 13.253C20.3583 11.0247 21.8867 9.28634 23.4267 9.28634C23.7211 9.28799 24.0115 9.35597 24.2761 9.48524C24.5406 9.61451 24.7727 9.80173 24.955 10.033C25.3016 10.5386 25.5342 11.1134 25.637 11.7176C25.7397 12.3219 25.71 12.9413 25.55 13.533Z" fill="white"/>
<path d="M23.4267 10.5C22.5983 10.5 21.4317 11.7483 21.0933 13.5333C20.979 13.9495 20.951 14.3847 21.0112 14.8121C21.0714 15.2394 21.2185 15.65 21.4433 16.0183C21.5164 16.1165 21.6114 16.1961 21.7208 16.2508C21.8303 16.3055 21.951 16.3338 22.0733 16.3333C22.9017 16.3333 24.0683 15.085 24.4067 13.3C24.521 12.8838 24.549 12.4487 24.4888 12.0213C24.4286 11.5939 24.2815 11.1834 24.0567 10.815C23.9836 10.7169 23.8886 10.6372 23.7792 10.5825C23.6697 10.5278 23.549 10.4995 23.4267 10.5Z" fill="white"/>
<path d="M16.4267 10.5C15.5983 10.5 14.4317 11.7483 14.0933 13.5333C13.979 13.9495 13.951 14.3847 14.0112 14.8121C14.0714 15.2394 14.2185 15.65 14.4433 16.0183C14.5164 16.1165 14.6114 16.1961 14.7208 16.2508C14.8303 16.3055 14.951 16.3338 15.0733 16.3333C15.9017 16.3333 17.0683 15.085 17.4067 13.3C17.521 12.8838 17.549 12.4487 17.4888 12.0213C17.4286 11.5939 17.2815 11.1834 17.0567 10.815C16.9836 10.7169 16.8886 10.6372 16.7792 10.5825C16.6697 10.5278 16.549 10.4995 16.4267 10.5Z" fill="white"/>
</svg>
