<svg width="21" height="25" viewBox="0 0 21 25" fill="none" xmlns="http://www.w3.org/2000/svg">
<path d="M20.6218 10.1635H20.0342C19.9856 8.24922 19.3611 6.39402 18.2421 4.83999C17.1232 3.28595 15.5619 2.10525 13.7619 1.45194H18.6303C18.701 1.72567 18.8691 1.96423 19.1031 2.1229C19.3371 2.28157 19.6209 2.34946 19.9013 2.31384C20.1818 2.27821 20.4396 2.14153 20.6265 1.9294C20.8134 1.71727 20.9165 1.44426 20.9165 1.16155C20.9165 0.878836 20.8134 0.605829 20.6265 0.393699C20.4396 0.18157 20.1818 0.0448837 19.9013 0.0092607C19.6209 -0.0263623 19.3371 0.041524 19.1031 0.200195C18.8691 0.358866 18.701 0.597427 18.6303 0.871163H11.6198V0.290389C11.6198 0.213374 11.5892 0.139513 11.5348 0.0850551C11.4803 0.030597 11.4064 2.82809e-06 11.3294 2.82809e-06H9.58711C9.51009 2.82809e-06 9.43623 0.030597 9.38177 0.0850551C9.32732 0.139513 9.29672 0.213374 9.29672 0.290389V0.871163H2.28621C2.21553 0.597427 2.04744 0.358866 1.81346 0.200195C1.57947 0.041524 1.29565 -0.0263623 1.01519 0.0092607C0.734727 0.0448837 0.476887 0.18157 0.289998 0.393699C0.103108 0.605829 0 0.878836 0 1.16155C0 1.44426 0.103108 1.71727 0.289998 1.9294C0.476887 2.14153 0.734727 2.27821 1.01519 2.31384C1.29565 2.34946 1.57947 2.28157 1.81346 2.1229C2.04744 1.96423 2.21553 1.72567 2.28621 1.45194H7.1546C5.35456 2.10525 3.79323 3.28595 2.67433 4.83999C1.55543 6.39402 0.930904 8.24922 0.882248 10.1635H0.294737C0.217722 10.1635 0.143861 10.1941 0.0894032 10.2486C0.0349452 10.303 0.00435091 10.3769 0.00435091 10.4539V12.1962C0.00435091 12.2733 0.0349452 12.3471 0.0894032 12.4016C0.143861 12.456 0.217722 12.4866 0.294737 12.4866H2.03706C2.11407 12.4866 2.18793 12.456 2.24239 12.4016C2.29685 12.3471 2.32744 12.2733 2.32744 12.1962V10.4539C2.32744 10.3769 2.29685 10.303 2.24239 10.2486C2.18793 10.1941 2.11407 10.1635 2.03706 10.1635H1.46308C1.52135 8.02553 2.34348 5.97911 3.78053 4.39502C5.21758 2.81093 7.17448 1.79396 9.29672 1.52834V2.03271C9.29672 2.10972 9.32732 2.18358 9.38177 2.23804C9.43623 2.2925 9.51009 2.3231 9.58711 2.3231H11.3294C11.4064 2.3231 11.4803 2.2925 11.5348 2.23804C11.5892 2.18358 11.6198 2.10972 11.6198 2.03271V1.52834C13.7421 1.79396 15.699 2.81093 17.136 4.39502C18.5731 5.97911 19.3952 8.02553 19.4535 10.1635H18.8795C18.8025 10.1635 18.7286 10.1941 18.6741 10.2486C18.6197 10.303 18.5891 10.3769 18.5891 10.4539V12.1962C18.5891 12.2733 18.6197 12.3471 18.6741 12.4016C18.7286 12.456 18.8025 12.4866 18.8795 12.4866H20.6218C20.6988 12.4866 20.7727 12.456 20.8271 12.4016C20.8816 12.3471 20.9122 12.2733 20.9122 12.1962V10.4539C20.9122 10.3769 20.8816 10.303 20.8271 10.2486C20.7727 10.1941 20.6988 10.1635 20.6218 10.1635Z" fill="white"/>
<path d="M11.2988 3.64494C11.2695 3.58642 11.2214 3.53949 11.1621 3.51175C11.1029 3.48402 11.036 3.47711 10.9723 3.49215C10.9086 3.50718 10.8519 3.54328 10.8113 3.59458C10.7707 3.64589 10.7486 3.7094 10.7486 3.77483V13.1863C10.7487 13.2425 10.765 13.2975 10.7956 13.3446C10.8263 13.3917 10.87 13.4289 10.9213 13.4517C11.1662 13.5581 11.3669 13.7457 11.4897 13.9828C11.6125 14.2198 11.6498 14.492 11.5955 14.7534C11.5411 15.0148 11.3984 15.2495 11.1912 15.418C10.9841 15.5865 10.7253 15.6785 10.4583 15.6785C10.1913 15.6785 9.93241 15.5865 9.72529 15.418C9.51816 15.2495 9.3754 15.0148 9.32104 14.7534C9.26668 14.492 9.30404 14.2198 9.42682 13.9828C9.5496 13.7457 9.75032 13.5581 9.99518 13.4517C10.0466 13.4289 10.0902 13.3917 10.1209 13.3446C10.1515 13.2975 10.1679 13.2425 10.1679 13.1863V3.77483C10.1679 3.7094 10.1458 3.64589 10.1052 3.59458C10.0646 3.54328 10.0079 3.50718 9.94421 3.49215C9.88054 3.47711 9.81365 3.48402 9.7544 3.51175C9.69514 3.53949 9.64698 3.58642 9.61773 3.64494L4.10039 14.6796C4.08024 14.72 4.06975 14.7644 4.06975 14.8095C4.06975 14.8546 4.08024 14.8991 4.10039 14.9394L6.21333 19.1653H14.7032L16.8161 14.9394C16.8363 14.8991 16.8468 14.8546 16.8468 14.8095C16.8468 14.7644 16.8363 14.72 16.8161 14.6796L11.2988 3.64494Z" fill="white"/>
<path d="M15.3948 19.7461H5.52169C5.36132 19.7461 5.23131 19.8761 5.23131 20.0365V21.7788C5.23131 21.9392 5.36132 22.0692 5.52169 22.0692H15.3948C15.5552 22.0692 15.6852 21.9392 15.6852 21.7788V20.0365C15.6852 19.8761 15.5552 19.7461 15.3948 19.7461Z" fill="white"/>
<path d="M6.10248 24.6831C6.10248 24.7601 6.13307 24.834 6.18753 24.8884C6.24199 24.9429 6.31585 24.9735 6.39286 24.9735H14.5237C14.6007 24.9735 14.6746 24.9429 14.729 24.8884C14.7835 24.834 14.8141 24.7601 14.8141 24.6831V22.6504H6.10248V24.6831Z" fill="white"/>
</svg>
