<svg width="27" height="27" viewBox="0 0 27 27" fill="none" xmlns="http://www.w3.org/2000/svg">
<path d="M11.3608 25.6623V23.8779H7.41982V24.8065H5.65687C5.1819 24.8065 4.79678 25.1916 4.79678 25.6708V26.5309H11.5961C11.4464 26.2785 11.3608 25.9875 11.3608 25.6708V25.6623Z" fill="white"/>
<path d="M21.1341 10.9025V7.62473C21.1341 7.14976 20.749 6.76465 20.274 6.76465H0.860083C0.385112 6.76465 0 7.14976 0 7.62473V18.9042H11.3608V12.6183C11.3608 11.6727 12.131 10.9025 13.0767 10.9025H21.1341ZM3.91102 13.273C4.0779 13.4399 4.0779 13.7095 3.91102 13.8764C3.82544 13.962 3.71847 14.0005 3.60721 14.0005C3.49596 14.0005 3.38898 13.9577 3.3034 13.8764L1.84854 12.4215C1.68165 12.2546 1.68165 11.9851 1.84854 11.8182L3.3034 10.3633C3.47028 10.1964 3.73986 10.1964 3.90674 10.3633C4.07363 10.5302 4.07363 10.7998 3.90674 10.9666L2.75141 12.122L3.91102 13.273ZM7.48828 9.5289L4.90803 15.0702C4.83529 15.2243 4.68125 15.3184 4.51864 15.3184C4.45874 15.3184 4.39455 15.3056 4.33892 15.2799C4.12497 15.1815 4.03084 14.9247 4.13353 14.7108L6.71806 9.16946C6.81648 8.95551 7.07322 8.86137 7.28717 8.96406C7.49684 9.0582 7.59098 9.31494 7.48828 9.5289ZM9.769 12.4215L8.31413 13.8764C8.22855 13.962 8.12158 14.0005 8.01032 14.0005C7.89907 14.0005 7.79209 13.9577 7.70651 13.8764C7.53963 13.7095 7.53963 13.4399 7.70651 13.273L8.86185 12.1177L7.70651 10.9624C7.53963 10.7955 7.53963 10.5259 7.70651 10.359C7.87339 10.1921 8.14297 10.1921 8.30985 10.359L9.76472 11.8139C9.93588 11.9851 9.93588 12.2546 9.769 12.4215Z" fill="white"/>
<path d="M11.3608 19.7607H0V22.1613C0 22.6362 0.385112 23.0214 0.860083 23.0214H11.3608V19.7607ZM10.5692 21.6093C10.3296 21.6093 10.137 21.4167 10.137 21.1771C10.137 20.9418 10.3296 20.7492 10.5692 20.7492C10.8045 20.7492 10.9971 20.9418 10.9971 21.1771C10.9971 21.4167 10.8045 21.6093 10.5692 21.6093Z" fill="white"/>
<path d="M22.7687 16.748H15.9479L19.3583 18.2628L22.7687 16.748Z" fill="white"/>
<path d="M15.9479 20.7192H22.7687L19.3583 19.2002L15.9479 20.7192Z" fill="white"/>
<path d="M14.3647 16.9746V20.4877L18.3056 18.7333L14.3647 16.9746Z" fill="white"/>
<path d="M25.6442 11.7588H13.0767C12.6017 11.7588 12.2166 12.1439 12.2166 12.6189V14.1679H26.5042V12.6189C26.5042 12.1439 26.1191 11.7588 25.6442 11.7588ZM14.0523 13.6073C13.8127 13.6073 13.6201 13.4148 13.6201 13.1751C13.6201 12.9398 13.8127 12.7472 14.0523 12.7472C14.2919 12.7472 14.4845 12.9398 14.4845 13.1751C14.4802 13.4148 14.2876 13.6073 14.0523 13.6073ZM15.6013 13.6073C15.3617 13.6073 15.1691 13.4148 15.1691 13.1751C15.1691 12.9398 15.3617 12.7472 15.6013 12.7472C15.8409 12.7472 16.0335 12.9398 16.0335 13.1751C16.0292 13.4148 15.8366 13.6073 15.6013 13.6073ZM17.1503 13.6073C16.9107 13.6073 16.7181 13.4148 16.7181 13.1751C16.7181 12.9398 16.9107 12.7472 17.1503 12.7472C17.3899 12.7472 17.5825 12.9398 17.5825 13.1751C17.5782 13.4148 17.3857 13.6073 17.1503 13.6073Z" fill="white"/>
<path d="M12.2166 25.6687C12.2166 26.1436 12.6017 26.5287 13.0767 26.5287H25.6442C26.1191 26.5287 26.5042 26.1436 26.5042 25.6687V15.0225H12.2166V25.6687ZM22.6317 25.2365H20.6591C20.4238 25.2365 20.2312 25.0439 20.2312 24.8086C20.2312 24.5732 20.4238 24.3807 20.6591 24.3807H22.6317C22.8671 24.3807 23.0596 24.5732 23.0596 24.8086C23.0596 25.0439 22.8714 25.2365 22.6317 25.2365ZM24.7841 23.4051H20.6591C20.4238 23.4051 20.2312 23.2125 20.2312 22.9772C20.2312 22.7418 20.4238 22.5493 20.6591 22.5493H24.7841C25.0194 22.5493 25.212 22.7418 25.212 22.9772C25.212 23.2125 25.0237 23.4051 24.7841 23.4051ZM13.5089 16.319C13.5089 16.0837 13.7014 15.8911 13.9368 15.8911H24.7884C25.0237 15.8911 25.2163 16.0837 25.2163 16.319V21.1457C25.2163 21.3811 25.0237 21.5736 24.7884 21.5736H13.9368C13.7014 21.5736 13.5089 21.3811 13.5089 21.1457V16.319ZM13.9368 22.5493H18.0617C18.2971 22.5493 18.4896 22.7418 18.4896 22.9772C18.4896 23.2125 18.2971 23.4051 18.0617 23.4051H13.9368C13.7014 23.4051 13.5089 23.2125 13.5089 22.9772C13.5089 22.7418 13.6971 22.5493 13.9368 22.5493ZM13.9368 24.3807H15.9094C16.1447 24.3807 16.3373 24.5732 16.3373 24.8086C16.3373 25.0439 16.1447 25.2365 15.9094 25.2365H13.9368C13.7014 25.2365 13.5089 25.0439 13.5089 24.8086C13.5089 24.5732 13.6971 24.3807 13.9368 24.3807Z" fill="white"/>
<path d="M24.3562 20.4877V16.9746L20.4109 18.7333L24.3562 20.4877Z" fill="white"/>
<path d="M20.2312 3.46173C21.6091 3.46173 22.7259 4.57855 22.7259 5.95639C22.7259 6.64959 22.4435 7.27433 21.9899 7.72791V10.2226C22.2209 10.1284 22.4435 10.0129 22.6531 9.88453L23.7143 10.5264C23.8513 10.6077 24.0267 10.5863 24.1379 10.475L24.7456 9.86742C24.8568 9.75616 24.8782 9.58072 24.7969 9.44379L24.1551 8.3826C24.4118 7.96753 24.6044 7.50968 24.7199 7.02187L25.9223 6.72662C26.0763 6.68811 26.1833 6.55118 26.1833 6.39285V5.53277C26.1833 5.37445 26.0763 5.23324 25.9223 5.19901L24.7199 4.90376C24.6044 4.41595 24.4118 3.95809 24.1551 3.54303L24.7969 2.48183C24.8782 2.3449 24.8568 2.16946 24.7456 2.05821L24.1379 1.45059C24.0267 1.33933 23.8513 1.31794 23.7143 1.39924L22.6531 2.04109C22.2381 1.77579 21.7845 1.58324 21.2967 1.4677L20.9971 0.26102C20.9586 0.106975 20.8217 0 20.6634 0H19.799C19.6407 0 19.4995 0.106975 19.4653 0.26102L19.17 1.46342C18.6822 1.57896 18.2243 1.77151 17.8093 2.02825L16.7481 1.3864C16.6112 1.3051 16.4357 1.3265 16.3245 1.43775L15.7168 2.04537C15.6056 2.15663 15.5842 2.33207 15.6655 2.46899L16.3073 3.53019C16.0506 3.94526 15.858 4.40311 15.7425 4.89092L14.5358 5.19045C14.3818 5.22896 14.2748 5.36589 14.2748 5.52421V5.90933H17.7408C17.7665 4.55288 18.8705 3.46173 20.2312 3.46173Z" fill="white"/>
</svg>
