<svg width="24" height="24" viewBox="0 0 24 24" fill="none" xmlns="http://www.w3.org/2000/svg">
<path d="M4.41797 12.1496H19.5811V3.01172H4.41797V12.1496ZM12.4261 5.32116C12.4261 4.93283 12.7409 4.618 13.1293 4.618H13.8824C17.8109 4.76248 17.8048 10.4016 13.8824 10.5432H13.1293C12.7409 10.5432 12.4261 10.2284 12.4261 9.8401V5.32116ZM7.20785 6.61163C7.20785 5.51232 8.10221 4.618 9.20153 4.618C11.0999 4.63661 11.8405 6.93785 10.534 8.2115L9.60851 9.13694H10.4932C11.4251 9.17154 11.4244 10.509 10.4932 10.5432H7.911C7.28932 10.5453 6.9729 9.78084 7.41378 9.34292L9.53956 7.21705C9.70109 7.05556 9.79002 6.84081 9.79002 6.61234C9.76058 5.83376 8.64364 5.83324 8.61416 6.61168C8.58003 7.54322 7.2423 7.54388 7.20785 6.61234V6.61163Z" fill="white"/>
<path d="M15.4387 7.57975C15.4387 6.71731 14.7405 6.02344 13.8824 6.02344H13.8324V9.13607H13.8824C14.7414 9.13611 15.4387 8.44135 15.4387 7.57975Z" fill="white"/>
<path d="M21.7906 -0.000976562H2.20847C0.973173 -0.000976562 -0.000976562 1.00238 -0.000976562 2.20852V12.9527C-0.000976562 14.1631 0.977251 15.1622 2.20847 15.1622H21.7905C23.0258 15.1622 24 14.1588 24 12.9527V2.20852C24 0.998065 23.0218 -0.000976562 21.7906 -0.000976562ZM20.9874 12.8527C20.9874 13.241 20.6726 13.5558 20.2842 13.5558H3.71482C3.32649 13.5558 3.01166 13.241 3.01166 12.8527V2.30851C3.01166 1.92018 3.32649 1.60536 3.71482 1.60536H20.2843C20.6726 1.60536 20.9874 1.92018 20.9874 2.30851V12.8527H20.9874Z" fill="white"/>
<path d="M2.20847 16.5681C1.37688 16.5681 0.610533 16.2852 -0.000976562 15.8115V17.3713C-0.000976562 18.5817 0.977251 19.5808 2.20847 19.5808H21.7905C23.0258 19.5808 24 18.5774 24 17.3713V15.8115C23.3885 16.2852 22.6221 16.5681 21.7905 16.5681H2.20847Z" fill="white"/>
<path d="M19.5311 22.5936H17.2216V20.9873H6.77743V22.5936H4.46795C3.53599 22.6282 3.53669 23.9657 4.46795 23.9999H19.5311C20.463 23.9653 20.4623 22.6279 19.5311 22.5936Z" fill="white"/>
</svg>
