<svg width="23" height="23" viewBox="0 0 23 23" fill="none" xmlns="http://www.w3.org/2000/svg">
<path d="M10.3745 12.5759L10.6534 12.297C10.7271 12.2228 10.7686 12.1226 10.769 12.018V11.5557H9.97997V12.018C9.98037 12.1226 10.0219 12.2228 10.0956 12.297L10.3745 12.5759Z" fill="white"/>
<path d="M0.906036 16.6853H22.9991V9.97852H0.906036V16.6853ZM2.08959 13.5292C2.08959 13.3199 2.17272 13.1192 2.3207 12.9712C2.46867 12.8233 2.66936 12.7401 2.87863 12.7401H9.44263C9.28039 12.5347 9.19176 12.2808 9.19093 12.019V11.5566C9.19093 11.3473 9.27406 11.1466 9.42203 10.9987C9.57 10.8507 9.7707 10.7676 9.97996 10.7676H10.769C10.9783 10.7676 11.179 10.8507 11.3269 10.9987C11.4749 11.1466 11.558 11.3473 11.558 11.5566V12.019C11.5572 12.2808 11.4686 12.5347 11.3063 12.7401H21.0265C21.2358 12.7401 21.4364 12.8233 21.5844 12.9712C21.7324 13.1192 21.8155 13.3199 21.8155 13.5292V14.3182C21.8155 14.5275 21.7324 14.7282 21.5844 14.8762C21.4364 15.0241 21.2358 15.1073 21.0265 15.1073H10.769V15.5018C10.769 15.6064 10.7274 15.7068 10.6534 15.7807C10.5795 15.8547 10.4791 15.8963 10.3745 15.8963C10.2698 15.8963 10.1695 15.8547 10.0955 15.7807C10.0215 15.7068 9.97996 15.6064 9.97996 15.5018V15.1073H2.87863C2.66936 15.1073 2.46867 15.0241 2.3207 14.8762C2.17272 14.7282 2.08959 14.5275 2.08959 14.3182V13.5292Z" fill="white"/>
<path d="M7.21832 13.5283H9.97995V14.3174H7.21832V13.5283Z" fill="white"/>
<path d="M2.87863 13.5283H6.4293V14.3174H2.87863V13.5283Z" fill="white"/>
<path d="M10.769 13.5283H14.7142V14.3174H10.769V13.5283Z" fill="white"/>
<path d="M17.8703 22.208H6.03478C5.93014 22.208 5.8298 22.2496 5.75581 22.3236C5.68182 22.3975 5.64026 22.4979 5.64026 22.6025C5.64026 22.7072 5.68182 22.8075 5.75581 22.8815C5.8298 22.9555 5.93014 22.997 6.03478 22.997H17.8703C17.975 22.997 18.0753 22.9555 18.1493 22.8815C18.2233 22.8075 18.2649 22.7072 18.2649 22.6025C18.2649 22.4979 18.2233 22.3975 18.1493 22.3236C18.0753 22.2496 17.975 22.208 17.8703 22.208Z" fill="white"/>
<path d="M9.04023 19.8418L8.25119 21.4199H15.6539L14.8649 19.8418H9.04023Z" fill="white"/>
<path d="M15.5032 13.5283H21.0269V14.3174H15.5032V13.5283Z" fill="white"/>
<path d="M0.906041 18.5864C0.898812 18.7 0.935853 18.812 1.0094 18.899C1.08295 18.9859 1.18729 19.041 1.30056 19.0527H22.6046C22.7178 19.041 22.8222 18.9859 22.8957 18.899C22.9693 18.812 23.0063 18.7 22.9991 18.5864V17.4746H0.906041V18.5864Z" fill="white"/>
<path d="M22.6046 0.904297H1.30056C1.18729 0.915995 1.08295 0.971083 1.0094 1.05802C0.935853 1.14495 0.898812 1.25698 0.906041 1.37062V9.18919H22.9991V1.37062C23.0063 1.25698 22.9693 1.14495 22.8957 1.05802C22.8222 0.971083 22.7178 0.915995 22.6046 0.904297ZM6.4293 2.87689H6.82382C6.92845 2.87689 7.0288 2.91845 7.10279 2.99244C7.17677 3.06643 7.21834 3.16678 7.21834 3.27141C7.21834 3.37604 7.17677 3.47639 7.10279 3.55037C7.0288 3.62436 6.92845 3.66593 6.82382 3.66593H6.4293C6.32467 3.66593 6.22432 3.62436 6.15033 3.55037C6.07635 3.47639 6.03478 3.37604 6.03478 3.27141C6.03478 3.16678 6.07635 3.06643 6.15033 2.99244C6.22432 2.91845 6.32467 2.87689 6.4293 2.87689ZM5.24574 5.244C5.24574 5.13937 5.28731 5.03902 5.3613 4.96503C5.43528 4.89105 5.53563 4.84948 5.64026 4.84948H6.03478C6.13941 4.84948 6.23976 4.89105 6.31375 4.96503C6.38774 5.03902 6.4293 5.13937 6.4293 5.244C6.4293 5.34863 6.38774 5.44898 6.31375 5.52297C6.23976 5.59695 6.13941 5.63852 6.03478 5.63852H5.64026C5.53563 5.63852 5.43528 5.59695 5.3613 5.52297C5.28731 5.44898 5.24574 5.34863 5.24574 5.244ZM6.82382 7.61111H6.4293C6.32467 7.61111 6.22432 7.56955 6.15033 7.49556C6.07635 7.42157 6.03478 7.32123 6.03478 7.21659C6.03478 7.11196 6.07635 7.01161 6.15033 6.93763C6.22432 6.86364 6.32467 6.82207 6.4293 6.82207H6.82382C6.92845 6.82207 7.0288 6.86364 7.10279 6.93763C7.17677 7.01161 7.21834 7.11196 7.21834 7.21659C7.21834 7.32123 7.17677 7.42157 7.10279 7.49556C7.0288 7.56955 6.92845 7.61111 6.82382 7.61111ZM7.21834 5.244C7.21834 5.13937 7.2599 5.03902 7.33389 4.96503C7.40788 4.89105 7.50822 4.84948 7.61286 4.84948H10.3745C10.4791 4.84948 10.5795 4.89105 10.6535 4.96503C10.7274 5.03902 10.769 5.13937 10.769 5.244C10.769 5.34863 10.7274 5.44898 10.6535 5.52297C10.5795 5.59695 10.4791 5.63852 10.3745 5.63852H7.61286C7.50822 5.63852 7.40788 5.59695 7.33389 5.52297C7.2599 5.44898 7.21834 5.34863 7.21834 5.244ZM11.1635 7.61111H8.40189C8.29726 7.61111 8.19691 7.56955 8.12293 7.49556C8.04894 7.42157 8.00737 7.32123 8.00737 7.21659C8.00737 7.11196 8.04894 7.01161 8.12293 6.93763C8.19691 6.86364 8.29726 6.82207 8.40189 6.82207H11.1635C11.2682 6.82207 11.3685 6.86364 11.4425 6.93763C11.5165 7.01161 11.558 7.11196 11.558 7.21659C11.558 7.32123 11.5165 7.42157 11.4425 7.49556C11.3685 7.56955 11.2682 7.61111 11.1635 7.61111ZM11.1635 3.66593H8.40189C8.29726 3.66593 8.19691 3.62436 8.12293 3.55037C8.04894 3.47639 8.00737 3.37604 8.00737 3.27141C8.00737 3.16678 8.04894 3.06643 8.12293 2.99244C8.19691 2.91845 8.29726 2.87689 8.40189 2.87689H11.1635C11.2682 2.87689 11.3685 2.91845 11.4425 2.99244C11.5165 3.06643 11.558 3.16678 11.558 3.27141C11.558 3.37604 11.5165 3.47639 11.4425 3.55037C11.3685 3.62436 11.2682 3.66593 11.1635 3.66593ZM17.318 6.24292L14.1804 8.21551C13.9987 8.32962 13.7898 8.39295 13.5753 8.39892C13.3608 8.40488 13.1487 8.35327 12.9609 8.24944C12.7745 8.1492 12.6189 8.00011 12.5108 7.81816C12.4026 7.63621 12.346 7.42825 12.3471 7.21659V3.27141C12.3458 3.05995 12.4021 2.85213 12.5099 2.6702C12.6177 2.48827 12.7729 2.33906 12.959 2.23856C13.1467 2.13465 13.3589 2.08299 13.5733 2.08896C13.7878 2.09492 13.9968 2.1583 14.1784 2.27249L17.316 4.24508C17.4856 4.35084 17.6255 4.49804 17.7225 4.6728C17.8195 4.84756 17.8703 5.04414 17.8703 5.244C17.8703 5.44387 17.8195 5.64044 17.7225 5.8152C17.6255 5.98997 17.4856 6.13716 17.316 6.24292H17.318Z" fill="white"/>
<path d="M16.8963 4.91248L13.7583 2.93989C13.6963 2.90019 13.6247 2.87814 13.5512 2.87613C13.4776 2.87411 13.4049 2.8922 13.3409 2.92845C13.2788 2.96145 13.2269 3.0108 13.1908 3.07115C13.1547 3.1315 13.1358 3.20057 13.1361 3.27089V7.21608C13.1358 7.2864 13.1547 7.35546 13.1908 7.41582C13.2269 7.47617 13.2788 7.52552 13.3409 7.55852C13.4049 7.59464 13.4776 7.61266 13.5512 7.61064C13.6247 7.60863 13.6963 7.58666 13.7583 7.54708L16.8963 5.57449C16.9528 5.53971 16.9995 5.49103 17.0319 5.43308C17.0643 5.37514 17.0813 5.30987 17.0813 5.24348C17.0813 5.1771 17.0643 5.11183 17.0319 5.05389C16.9995 4.99594 16.9528 4.94726 16.8963 4.91248Z" fill="white"/>
</svg>
