<svg width="22" height="27" viewBox="0 0 22 27" fill="none" xmlns="http://www.w3.org/2000/svg">
<path d="M13.8846 20.7813H1.64273V3.22341H13.8813V4.5369H15.5263V2.86486C15.5274 1.28981 14.2342 0 12.6602 0H2.866C1.28981 0 0 1.28981 0 2.86486V23.4072C0 24.9845 1.28981 26.2732 2.866 26.2732H12.6602C14.2342 26.2732 15.5274 24.9845 15.5274 23.4072V20.7509H13.8846V20.7813ZM7.76141 24.8391C7.03531 24.8391 6.44907 24.2517 6.44907 23.5267C6.44907 22.7995 7.03536 22.2132 7.76141 22.2132C8.48862 22.2132 9.07606 22.8006 9.07606 23.5267C9.07606 24.2517 8.48867 24.8391 7.76141 24.8391Z" fill="white"/>
<path d="M6.71742 4.98633H3.04529V7.22548H6.71742V4.98633Z" fill="white"/>
<path d="M6.71742 10.7197H3.04529V12.9589H6.71742V10.7197Z" fill="white"/>
<path d="M6.71742 16.7197H3.04529V18.9577H6.71742V16.7197Z" fill="white"/>
<path d="M19.7508 11.703C19.6212 11.0243 19.3585 10.3963 18.9864 9.84722L20.3033 8.52923L18.9582 7.18867L17.6436 8.5044C17.0968 8.13011 16.4654 7.87076 15.7889 7.73999V5.87402H13.8858V7.73999C13.2082 7.87076 12.5825 8.13121 12.03 8.5044L10.7177 7.18867L9.37263 8.53033L10.6873 9.84832C10.3163 10.3974 10.0548 11.0254 9.9251 11.703H8.06139V13.605H9.92505C10.0547 14.2804 10.3174 14.9084 10.6883 15.4597L9.37258 16.7754L10.7176 18.1148L12.0334 16.8002C12.5836 17.1745 13.2116 17.4349 13.8892 17.5669V19.4294H15.7923V17.5658C16.4687 17.4361 17.0956 17.1734 17.647 16.8014L18.9616 18.116L20.3067 16.7754L18.9898 15.4597C19.3618 14.9106 19.6234 14.2815 19.7542 13.6039H21.619V11.703H19.7508ZM14.8396 14.7235C13.6953 14.7235 12.7662 13.799 12.7662 12.6535C12.7662 11.5091 13.6952 10.579 14.8396 10.579C15.9851 10.579 16.9097 11.508 16.9097 12.6535C16.9097 13.8001 15.9828 14.7235 14.8396 14.7235Z" fill="white"/>
</svg>
