<svg width="24" height="24" viewBox="0 0 24 24" fill="none" xmlns="http://www.w3.org/2000/svg">
<path d="M8.68967 20.6807H15.3104V22.3358H8.68967V20.6807Z" fill="white"/>
<path d="M4.96552 12.4046C4.96552 11.0354 3.852 9.92188 2.48276 9.92188C1.11352 9.92188 0 11.0354 0 12.4046C0 13.7739 1.11352 14.8874 2.48276 14.8874C3.852 14.8874 4.96552 13.7739 4.96552 12.4046ZM1.24138 12.4046C1.24138 11.719 1.7971 11.1633 2.48276 11.1633C3.16841 11.1633 3.72414 11.719 3.72414 12.4046C3.72414 13.0903 3.16841 13.646 2.48276 13.646C1.7971 13.646 1.24138 13.0903 1.24138 12.4046Z" fill="white"/>
<path d="M16.5517 23.1631H7.44827C6.90868 23.1631 6.44855 23.509 6.27765 23.9907H17.7223C17.5514 23.509 17.0913 23.1631 16.5517 23.1631Z" fill="white"/>
<path d="M15.3103 4.13803H16.1379C16.3663 4.13803 16.5517 3.95224 16.5517 3.72424V2.06907C16.5517 1.84107 16.3663 1.65527 16.1379 1.65527H15.3103C15.0819 1.65527 14.8965 1.84107 14.8965 2.06907V3.72424C14.8965 3.95224 15.0819 4.13803 15.3103 4.13803Z" fill="white"/>
<path d="M6.20691 5.7931H10.7586V7.21655C10.7586 7.3829 10.9655 7.49462 11.1033 7.40193L13.5302 5.7931H17.7931C18.0215 5.7931 18.2069 5.60731 18.2069 5.37931V0.413793C18.2069 0.185793 18.0215 0 17.7931 0H6.20691C5.9785 0 5.79312 0.185793 5.79312 0.413793V5.37931C5.79312 5.60731 5.9785 5.7931 6.20691 5.7931ZM14.069 2.06897C14.069 1.38455 14.6259 0.827586 15.3104 0.827586H16.1379C16.8224 0.827586 17.3793 1.38455 17.3793 2.06897V3.72414C17.3793 4.40855 16.8224 4.96552 16.1379 4.96552H15.3104C14.6259 4.96552 14.069 4.40855 14.069 3.72414V2.06897ZM10.7586 2.06897C10.7586 1.38455 11.3156 0.827586 12 0.827586H13.2414V1.65517H12C11.7716 1.65517 11.5862 1.84097 11.5862 2.06897V2.48276H13.2414V3.31034H11.5862V3.72414C11.5862 3.95214 11.7716 4.13793 12 4.13793H13.2414V4.96552H12C11.3156 4.96552 10.7586 4.40855 10.7586 3.72414V2.06897ZM8.68967 3.31034H7.86209C7.17767 3.31034 6.62071 2.75338 6.62071 2.06897C6.62071 1.38455 7.17767 0.827586 7.86209 0.827586H8.68967C9.37409 0.827586 9.93105 1.38455 9.93105 2.06897H9.10347C9.10347 1.84097 8.91809 1.65517 8.68967 1.65517H7.86209C7.63367 1.65517 7.44829 1.84097 7.44829 2.06897C7.44829 2.29697 7.63367 2.48276 7.86209 2.48276H8.68967C9.37409 2.48276 9.93105 3.03972 9.93105 3.72414C9.93105 4.40855 9.37409 4.96552 8.68967 4.96552H7.86209C7.17767 4.96552 6.62071 4.40855 6.62071 3.72414H7.44829C7.44829 3.95214 7.63367 4.13793 7.86209 4.13793H8.68967C8.91809 4.13793 9.10347 3.95214 9.10347 3.72414C9.10347 3.49614 8.91809 3.31034 8.68967 3.31034Z" fill="white"/>
<path d="M5.76456 11.9911H7.86208V11.1635H9.51725V14.8876H11.1724V9.50832H12.8276V14.8876H14.4828V10.3359H16.1379V11.9911H19.0345V8.26694H22.3448V7.02556C22.3448 6.34115 21.7879 5.78418 21.1035 5.78418H18.9613C18.7924 6.26956 18.3352 6.62128 17.7931 6.62128H13.7801L11.561 8.09232C11.388 8.20652 11.1877 8.26694 10.9808 8.26694C10.4019 8.26694 9.93104 7.79604 9.93104 7.21714V6.62128H6.20691C5.66484 6.62128 5.2076 6.26956 5.03877 5.78418H2.89656C2.21215 5.78418 1.65518 6.34115 1.65518 7.02556V9.20335C1.92042 9.13466 2.19642 9.09452 2.48277 9.09452C4.16773 9.09452 5.55973 10.3607 5.76456 11.9911Z" fill="white"/>
<path d="M19.0345 12.8184H16.1379V14.8873H17.3793V15.7149H6.6207V14.8873H7.86208V12.8184H5.76456C5.55973 14.4487 4.16773 15.7149 2.48277 15.7149C2.19642 15.7149 1.92042 15.6748 1.65518 15.6061V16.5425H22.3448V15.7149H19.0345V12.8184Z" fill="white"/>
<path d="M19.8621 9.09375V14.8869H24V9.09375H19.8621ZM23.1724 14.0593H20.6896V13.2317H23.1724V14.0593ZM23.1724 12.4041H20.6896V11.5765H23.1724V12.4041ZM23.1724 10.7489H20.6896V9.92134H23.1724V10.7489Z" fill="white"/>
<path d="M1.65518 18.6115C1.65518 19.2959 2.21215 19.8529 2.89656 19.8529H21.1035C21.7879 19.8529 22.3448 19.2959 22.3448 18.6115V17.3701H1.65518V18.6115ZM13.6552 18.1977C13.8836 18.1977 14.069 18.3831 14.069 18.6115C14.069 18.8399 13.8836 19.0253 13.6552 19.0253C13.4268 19.0253 13.2414 18.8399 13.2414 18.6115C13.2414 18.3831 13.4268 18.1977 13.6552 18.1977ZM12 18.1977C12.2284 18.1977 12.4138 18.3831 12.4138 18.6115C12.4138 18.8399 12.2284 19.0253 12 19.0253C11.7716 19.0253 11.5862 18.8399 11.5862 18.6115C11.5862 18.3831 11.7716 18.1977 12 18.1977ZM10.3448 18.1977C10.5733 18.1977 10.7586 18.3831 10.7586 18.6115C10.7586 18.8399 10.5733 19.0253 10.3448 19.0253C10.1164 19.0253 9.93104 18.8399 9.93104 18.6115C9.93104 18.3831 10.1164 18.1977 10.3448 18.1977Z" fill="white"/>
</svg>
