<svg width="25" height="25" viewBox="0 0 25 25" fill="none" xmlns="http://www.w3.org/2000/svg">
<path d="M18.5216 23.0586C17.8986 22.7809 17.3489 22.3617 16.9164 21.8343C16.4838 21.3069 16.1803 20.6859 16.0299 20.0205C16.0158 19.9601 15.9827 19.9057 15.9354 19.8655C15.4688 19.4619 15.0777 18.9786 14.7803 18.4382C14.6629 18.231 14.6066 17.9947 14.618 17.7568C14.6295 17.5189 14.7081 17.2892 14.8449 17.0942C14.9817 16.8992 15.171 16.747 15.3908 16.6553C15.6106 16.5636 15.8519 16.5361 16.0867 16.576C16.2388 16.6036 16.3936 16.6131 16.5479 16.6044C16.5895 16.6019 16.6301 16.5903 16.6667 16.5703C16.7033 16.5504 16.735 16.5226 16.7597 16.489C17.3569 15.672 18.2266 15.0954 19.2117 14.8632C19.2732 14.8484 19.3279 14.8133 19.367 14.7636C19.4061 14.7138 19.4273 14.6524 19.4272 14.5891V12.5209C19.4271 12.4525 19.4025 12.3863 19.3577 12.3346C19.3129 12.2829 19.251 12.249 19.1833 12.2392C19.0188 12.2146 18.8733 12.1881 18.739 12.156C18.1773 12.0202 17.6445 11.7846 17.1661 11.4603C17.114 11.423 17.0503 11.4056 16.9865 11.4111C16.2925 11.4512 15.5969 11.3654 14.9334 11.1578C13.8901 10.888 13.6579 9.38942 14.5705 8.81546C14.7457 8.69689 14.9046 8.55578 15.0431 8.39577C15.0702 8.36518 15.0902 8.32898 15.1016 8.28975C15.113 8.25053 15.1157 8.20926 15.1093 8.1689C14.9812 7.2722 15.1083 6.35756 15.476 5.52975C15.803 4.78535 16.3149 4.13696 16.9631 3.64623C17.6113 3.15551 18.3743 2.83876 19.1795 2.72612C19.2493 2.71586 19.3128 2.67997 19.3575 2.62543C19.4023 2.5709 19.4251 2.50165 19.4215 2.4312C19.3919 1.77599 19.1105 1.15749 18.6361 0.704583C18.1617 0.251673 17.5309 -0.000717924 16.875 1.53393e-06H7.23338C6.55681 0.00100165 5.90823 0.270214 5.42981 0.748626C4.9514 1.22704 4.68219 1.87562 4.68119 2.55219V6.76803C4.68161 6.80769 4.69026 6.84682 4.70661 6.88295C4.72295 6.91908 4.74664 6.95142 4.77615 6.9779C4.80566 7.00439 4.84035 7.02446 4.87803 7.03682C4.91571 7.04918 4.95555 7.05358 4.99502 7.04972C5.21168 7.0267 5.42937 7.01472 5.64724 7.0138C6.84276 7.01492 8.01271 7.36008 9.01738 8.00807C10.0221 8.65607 10.819 9.57952 11.3131 10.6682C11.3293 10.7046 11.353 10.7372 11.3827 10.764C11.4123 10.7907 11.4472 10.8108 11.4851 10.8232C11.8495 10.9426 12.2304 11.0039 12.6138 11.0047C12.8926 11.006 13.1654 11.0861 13.4006 11.2357C13.6359 11.3854 13.8241 11.5985 13.9434 11.8504C14.0628 12.1024 14.1085 12.383 14.0753 12.6599C14.0421 12.9367 13.9313 13.1985 13.7556 13.4151C13.166 14.1636 12.4358 14.7897 11.6061 15.2583C11.5455 15.29 11.4989 15.3433 11.4757 15.4077C11.0324 16.5976 10.2353 17.6233 9.19159 18.3466C8.14787 19.0699 6.90764 19.4562 5.63779 19.4534C5.42303 19.4517 5.20849 19.4391 4.99502 19.4156C4.95556 19.4118 4.91574 19.4162 4.87809 19.4286C4.84044 19.441 4.80576 19.461 4.77627 19.4875C4.74677 19.514 4.72309 19.5463 4.70672 19.5824C4.69036 19.6185 4.68166 19.6576 4.68119 19.6972V21.6464C4.68219 22.3229 4.9514 22.9715 5.42981 23.4499C5.90823 23.9283 6.55681 24.1976 7.23338 24.1986H16.875C17.5133 24.1987 18.1282 23.9584 18.5973 23.5255C18.6317 23.4938 18.6577 23.454 18.673 23.4097C18.6883 23.3654 18.6924 23.318 18.6849 23.2717C18.6774 23.2255 18.6586 23.1818 18.6301 23.1446C18.6016 23.1074 18.5643 23.0778 18.5216 23.0586ZM10.2771 2.07957C10.0601 2.07278 9.84903 2.00732 9.66627 1.89015C9.48352 1.77297 9.33594 1.60846 9.23922 1.4141L8.78549 0.567155H15.3248L14.8692 1.4141C14.7724 1.60846 14.6249 1.77297 14.4421 1.89015C14.2593 2.00732 14.0483 2.07278 13.8313 2.07957H10.2771ZM14.0392 21.7409H10.0692C9.99394 21.7409 9.92181 21.711 9.86863 21.6578C9.81545 21.6047 9.78557 21.5325 9.78557 21.4573C9.78557 21.3821 9.81545 21.31 9.86863 21.2568C9.92181 21.2036 9.99394 21.1737 10.0692 21.1737H14.0392C14.1144 21.1737 14.1866 21.2036 14.2397 21.2568C14.2929 21.31 14.3228 21.3821 14.3228 21.4573C14.3228 21.5325 14.2929 21.6047 14.2397 21.6578C14.1866 21.711 14.1144 21.7409 14.0392 21.7409Z" fill="white"/>
<path d="M19.8966 19.472H20.6456L20.8483 18.7158H20.0992L19.8966 19.472Z" fill="white"/>
<path d="M18.8256 15.5778C18.0857 15.8751 17.4611 16.4028 17.0444 17.0827C17.0381 17.0926 17.0298 17.1011 17.02 17.1076C17.0103 17.1141 16.9992 17.1185 16.9877 17.1205C16.6579 17.1874 16.3187 17.1926 15.987 17.1358C15.8585 17.114 15.7263 17.1291 15.606 17.1793C15.4857 17.2296 15.3821 17.313 15.3072 17.4198C15.2324 17.5266 15.1895 17.6525 15.1833 17.7828C15.1772 17.913 15.2081 18.0424 15.2726 18.1557C15.5752 18.7158 15.9942 19.2046 16.5014 19.5893C16.5103 19.5954 16.5178 19.6033 16.5235 19.6123C16.5293 19.6214 16.5332 19.6315 16.5351 19.6421C16.8011 21.4653 18.5173 22.9079 20.3087 22.8883C20.9946 22.8805 21.6654 22.6861 22.2492 22.326C22.8329 21.9659 23.3077 21.4537 23.6225 20.8443C23.9372 20.2349 24.0802 19.5513 24.0359 18.8669C23.9917 18.1824 23.762 17.5229 23.3714 16.959C22.8811 16.2492 22.1649 15.7263 21.3394 15.4755C20.514 15.2247 19.6279 15.2608 18.8256 15.5778ZM21.9794 18.7161H21.4355L21.233 19.4723H21.7903C21.8655 19.4723 21.9377 19.5022 21.9908 19.5554C22.044 19.6085 22.0739 19.6807 22.0739 19.7559C22.0739 19.8311 22.044 19.9032 21.9908 19.9564C21.9377 20.0096 21.8655 20.0394 21.7903 20.0394H21.081L20.8997 20.7157C20.8901 20.7517 20.8734 20.7854 20.8507 20.815C20.828 20.8446 20.7998 20.8694 20.7675 20.888C20.7352 20.9066 20.6996 20.9187 20.6626 20.9236C20.6257 20.9285 20.5881 20.926 20.5521 20.9164C20.5161 20.9067 20.4824 20.8901 20.4528 20.8674C20.4233 20.8447 20.3984 20.8164 20.3798 20.7841C20.3612 20.7519 20.3491 20.7162 20.3442 20.6793C20.3394 20.6423 20.3418 20.6048 20.3515 20.5688L20.4932 20.0394H19.7442L19.5608 20.724C19.5512 20.76 19.5346 20.7937 19.5119 20.8233C19.4892 20.8529 19.4609 20.8777 19.4286 20.8963C19.3963 20.915 19.3607 20.9271 19.3238 20.9319C19.2868 20.9368 19.2493 20.9343 19.2133 20.9247C19.1773 20.915 19.1435 20.8984 19.114 20.8757C19.0844 20.853 19.0596 20.8247 19.041 20.7925C19.0223 20.7602 19.0102 20.7246 19.0054 20.6876C19.0005 20.6507 19.003 20.6131 19.0126 20.5771L19.1567 20.0394H18.7655C18.6903 20.0394 18.6182 20.0096 18.565 19.9564C18.5118 19.9032 18.4819 19.8311 18.4819 19.7559C18.4819 19.6807 18.5118 19.6085 18.565 19.5554C18.6182 19.5022 18.6903 19.4723 18.7655 19.4723H19.3094L19.5119 18.7161H18.9546C18.8793 18.7161 18.8072 18.6862 18.754 18.633C18.7009 18.5799 18.671 18.5077 18.671 18.4325C18.671 18.3573 18.7009 18.2852 18.754 18.232C18.8072 18.1788 18.8793 18.1489 18.9546 18.1489H19.6639L19.8452 17.4727C19.8647 17.4 19.9122 17.338 19.9774 17.3004C20.0426 17.2627 20.12 17.2525 20.1927 17.272C20.2655 17.2915 20.3274 17.3391 20.3651 17.4042C20.4027 17.4694 20.4129 17.5469 20.3934 17.6196L20.2516 18.1489H21.0007L21.184 17.4644C21.1937 17.4284 21.2103 17.3946 21.233 17.3651C21.2557 17.3355 21.284 17.3107 21.3163 17.2921C21.3485 17.2734 21.3842 17.2613 21.4211 17.2565C21.4581 17.2516 21.4956 17.2541 21.5316 17.2637C21.5676 17.2733 21.6014 17.29 21.6309 17.3127C21.6605 17.3354 21.6853 17.3637 21.7039 17.3959C21.7226 17.4282 21.7347 17.4638 21.7395 17.5008C21.7444 17.5377 21.7419 17.5753 21.7323 17.6113L21.5875 18.1489H21.9794C22.0546 18.1489 22.1267 18.1788 22.1799 18.232C22.2331 18.2852 22.263 18.3573 22.263 18.4325C22.263 18.5077 22.2331 18.5799 22.1799 18.633C22.1267 18.6862 22.0546 18.7161 21.9794 18.7161Z" fill="white"/>
<path d="M15.9955 5.75854C15.6298 6.5771 15.5338 7.49074 15.7214 8.36744C15.7252 8.38611 15.7252 8.40537 15.7212 8.42402C15.7172 8.44266 15.7094 8.46028 15.6983 8.47577C15.4813 8.79337 15.2072 9.06792 14.89 9.28547C14.7745 9.36506 14.6837 9.47557 14.6281 9.60435C14.5726 9.73313 14.5544 9.87496 14.5757 10.0136C14.5971 10.1522 14.657 10.282 14.7488 10.3881C14.8405 10.4943 14.9602 10.5724 15.0943 10.6136C15.7699 10.8324 16.4848 10.9024 17.1899 10.8189C17.206 10.8165 17.2223 10.8173 17.238 10.8213C17.2537 10.8252 17.2685 10.8323 17.2814 10.8419C18.0277 11.4103 18.9388 11.7203 19.8769 11.7248C22.9844 11.739 25.0726 8.3389 23.6366 5.54888C22.0234 2.41592 17.4253 2.52198 15.9955 5.75854ZM20.1594 9.38378C20.0802 9.42867 19.9908 9.45227 19.8998 9.45227C19.8088 9.45227 19.7194 9.42867 19.6402 9.38378C18.5311 8.7533 17.901 7.97043 17.9278 6.9781C17.9271 6.83197 17.9553 6.68714 18.0106 6.55188C18.0659 6.41662 18.1473 6.29357 18.2501 6.18977C18.353 6.08597 18.4753 6.00344 18.61 5.9469C18.7448 5.89036 18.8893 5.86091 19.0355 5.86024C19.2019 5.86016 19.3661 5.89784 19.5158 5.97044C19.6655 6.04304 19.7968 6.14867 19.8998 6.27937C20.0028 6.14867 20.1341 6.04304 20.2838 5.97044C20.4335 5.89784 20.5978 5.86016 20.7641 5.86024C20.9103 5.86091 21.0548 5.89036 21.1896 5.9469C21.3243 6.00344 21.4466 6.08597 21.5495 6.18977C21.6524 6.29357 21.7338 6.41662 21.7891 6.55188C21.8444 6.68714 21.8725 6.83197 21.8718 6.9781C21.8996 7.97043 21.2685 8.75273 20.1594 9.38378Z" fill="white"/>
<path d="M11.0144 15.0096C11.0259 14.976 11.044 14.945 11.0675 14.9184C11.0911 14.8919 11.1197 14.8702 11.1517 14.8548C11.9949 14.418 12.7337 13.804 13.3172 13.0548C13.4246 12.9214 13.4921 12.7604 13.5122 12.5903C13.5322 12.4202 13.5039 12.2479 13.4305 12.0932C13.3571 11.9384 13.2416 11.8075 13.0972 11.7154C12.9528 11.6233 12.7854 11.5738 12.6142 11.5725C12.0794 11.5697 11.5497 11.4676 11.0522 11.2715C11.0149 11.2574 10.9809 11.2359 10.9523 11.2083C10.9237 11.1806 10.901 11.1474 10.8857 11.1106C10.4368 10.0022 9.6473 9.06513 8.63122 8.43458C4.63487 5.92965 -0.49031 9.25469 0.0377101 13.9184C0.349834 16.6748 2.89976 18.9517 5.64913 18.8942C7.96879 18.9449 10.3094 17.2856 11.0144 15.0096ZM4.30308 15.6389C4.21707 15.6893 4.11919 15.7159 4.01951 15.7159H3.2633C3.11288 15.7159 2.96863 15.6561 2.86226 15.5498C2.7559 15.4434 2.69615 15.2992 2.69615 15.1487V12.313C2.69615 12.1625 2.7559 12.0183 2.86226 11.9119C2.96863 11.8056 3.11288 11.7458 3.2633 11.7458H4.01951C4.11904 11.7456 4.21686 11.7717 4.30308 11.8214V15.6389ZM4.87024 15.3849V11.9884C5.42567 11.473 5.78298 10.4238 6.02099 9.92922C6.43993 9.05807 7.28385 10.2266 7.0776 10.8556C7.00633 11.0734 6.85528 11.7441 6.85528 11.7441C7.30653 11.7441 7.7393 11.9234 8.05839 12.2425C8.37747 12.5615 8.55674 12.9943 8.55674 13.4456V14.0127C8.55674 14.464 8.37747 14.8968 8.05839 15.2158C7.7393 15.5349 7.30653 15.7142 6.85528 15.7142H5.79961C5.62353 15.7141 5.44987 15.6731 5.29239 15.5943L4.87024 15.3849Z" fill="white"/>
</svg>
