<svg width="26" height="25" viewBox="0 0 26 25" fill="none" xmlns="http://www.w3.org/2000/svg">
<path fill-rule="evenodd" clip-rule="evenodd" d="M25.7133 23.9637L25.7968 6.59157C25.7979 6.41442 25.6545 6.26991 25.4773 6.26884C25.4768 6.26884 25.4762 6.26884 25.4757 6.26884C25.2991 6.26884 25.1556 6.41174 25.1546 6.58836L25.0727 23.6394L0.322194 23.5441C0.321659 23.5441 0.321659 23.5441 0.321124 23.5441C0.144506 23.5441 0.000536702 23.687 1.49848e-06 23.8642C-0.000533705 24.0414 0.142366 24.1859 0.320053 24.1864L25.3911 24.2833H25.3922C25.5688 24.2833 25.7123 24.1404 25.7133 23.9637ZM18.5919 2.49405L19.8973 3.62065L19.5034 5.29905C19.4739 5.42483 19.5226 5.55595 19.6275 5.63195C19.7319 5.70795 19.8721 5.71384 19.9824 5.64693L21.4574 4.75368L22.9324 5.64693C22.9833 5.67798 23.0411 5.6935 23.0983 5.6935C23.1647 5.6935 23.2311 5.67262 23.2873 5.63195C23.3916 5.55595 23.4409 5.42483 23.4109 5.29905L23.0175 3.62065L24.3223 2.49405C24.4203 2.40949 24.4583 2.27462 24.4181 2.15152C24.378 2.02842 24.2683 1.94172 24.1398 1.93102L22.4213 1.78651L21.7534 0.196955C21.703 0.0776046 21.5864 0 21.4574 0C21.3279 0 21.2112 0.0776046 21.1614 0.196955L20.493 1.78651L18.7749 1.93102C18.646 1.94172 18.5362 2.02896 18.4966 2.15152C18.4565 2.27462 18.494 2.40949 18.5919 2.49405ZM8.0773 4.85644C7.97935 4.77188 7.94189 4.63701 7.98149 4.51391C8.02164 4.39081 8.13135 4.30411 8.26034 4.2934L9.60905 4.17994L10.1341 2.93185C10.1839 2.8125 10.3005 2.73489 10.4301 2.73489C10.559 2.73489 10.6757 2.8125 10.726 2.93185L11.2505 4.17994L12.5998 4.2934C12.7282 4.30411 12.8385 4.39135 12.8781 4.51391C12.9182 4.63647 12.8807 4.77188 12.7828 4.85644L11.7579 5.74113L12.0667 7.05934C12.0967 7.18511 12.0474 7.31677 11.9431 7.39223C11.8869 7.43291 11.8205 7.45378 11.7541 7.45378C11.6969 7.45378 11.6391 7.43826 11.5882 7.40722L10.4301 6.7061L9.27187 7.40722C9.16108 7.47412 9.0214 7.46823 8.91703 7.39223C8.81213 7.31624 8.76343 7.18511 8.79286 7.05934L9.10221 5.74113L8.0773 4.85644ZM6.49523 7.53941L6.77086 8.71472C6.8003 8.8405 6.7516 8.97162 6.64723 9.04762C6.54233 9.12362 6.40264 9.1295 6.29186 9.0626L5.25945 8.43749L4.22651 9.0626C4.17513 9.09365 4.11786 9.10917 4.06006 9.10917C3.99369 9.10917 3.92786 9.08829 3.87167 9.04762C3.76677 8.97162 3.71806 8.8405 3.7475 8.71472L4.02313 7.53941L3.10954 6.75052C3.01159 6.66596 2.97359 6.53109 3.01373 6.40799C3.05387 6.2849 3.16359 6.19819 3.29258 6.18749L4.49518 6.08634L4.96348 4.97365C5.01326 4.8543 5.12993 4.77669 5.25945 4.77669C5.38843 4.77669 5.50511 4.8543 5.55542 4.97365L6.02318 6.08634L7.22632 6.18749C7.35531 6.19819 7.46502 6.28543 7.50463 6.40799C7.54477 6.53109 7.5073 6.66596 7.40936 6.75052L6.49523 7.53941ZM4.0044 12.4317C3.97496 12.4403 3.94499 12.444 3.91609 12.444C3.7764 12.444 3.64795 12.352 3.60727 12.2112C3.55857 12.0405 3.65758 11.8628 3.82831 11.8141C8.42036 10.5039 12.6233 8.25605 16.6614 4.94903L14.9713 4.74458C14.7952 4.72317 14.6699 4.56315 14.6913 4.38706C14.7128 4.21098 14.8728 4.08575 15.0489 4.10662L17.5172 4.4058C17.6018 4.41597 17.6789 4.45932 17.7313 4.52622C17.7838 4.59312 17.8073 4.67822 17.7971 4.76278L17.4985 7.23114C17.4787 7.39437 17.3401 7.51373 17.18 7.51373C17.1672 7.51373 17.1544 7.51319 17.141 7.51158C16.9649 7.49018 16.8397 7.33015 16.8611 7.15407L17.0676 5.44677C12.9605 8.80945 8.68261 11.0964 4.0044 12.4317ZM5.02128 21.9048H2.02575V17.8549H5.02128V21.9048ZM10.9995 21.9048H8.00344V15.6627H10.9995V21.9048ZM16.9772 21.9048H13.9817V12.5628H16.9772V21.9048ZM22.9554 21.9048H19.9594V7.80274H22.9554V21.9048Z" fill="white"/>
</svg>
