<svg width="25" height="25" viewBox="0 0 25 25" fill="none" xmlns="http://www.w3.org/2000/svg">
<path d="M12.2042 16.332L19.1882 9.34807L19.9909 10.1508L13.007 17.1347L12.2042 16.332Z" fill="white"/>
<path d="M18.6108 8.84811C18.3061 8.72506 17.9932 8.61809 17.6666 8.54774C17.5155 8.5152 17.3993 8.39497 17.3715 8.2432L17.1472 7.01563C17.1397 6.97439 17.1037 6.94434 17.0617 6.94434H16.8831V9.95754C17.0629 9.97515 17.2407 10.0032 17.4159 10.0433L18.6108 8.84811Z" fill="white"/>
<path d="M21.3401 11.495L20.5346 10.6895L13.5495 17.6742L14.3604 18.4851L21.3401 11.495Z" fill="white"/>
<path d="M23.374 9.45518C23.9694 8.85977 23.9694 7.89401 23.3757 7.30034C22.8158 6.72555 21.779 6.72903 21.2261 7.29686L19.7298 8.80562L21.8791 10.955L23.374 9.45518Z" fill="white"/>
<path d="M8.64903 1.33691C7.88024 1.33691 7.24708 1.92835 7.18076 2.68024H10.1171C10.0507 1.92835 9.41757 1.33691 8.64903 1.33691Z" fill="white"/>
<path d="M13.6853 18.8892L11.8039 17.0078L11.2207 18.4334L12.2597 19.4723L13.6853 18.8892Z" fill="white"/>
<path d="M10.5016 20.1915L11.4939 19.7856L10.9075 19.1992L10.5016 20.1915Z" fill="white"/>
<path d="M5.79073 5.8933H11.5071C11.5771 5.8933 11.6343 5.83616 11.6343 5.76612V4.32486C11.6342 4.32312 11.6333 4.32169 11.6333 4.31995C11.6333 4.31821 11.6342 4.31678 11.6343 4.31505V4.06932C11.6343 3.72405 11.3536 3.44336 11.0083 3.44336H10.5043H6.79351H6.28976C5.94449 3.44336 5.66355 3.72405 5.66355 4.06932V4.31014C5.66371 4.31446 5.66604 4.31809 5.66604 4.32243C5.66604 4.32678 5.66371 4.33041 5.66355 4.33473V5.76612C5.66355 5.83616 5.72068 5.8933 5.79073 5.8933Z" fill="white"/>
<path d="M14.5061 19.3771C14.5057 19.3772 14.5056 19.3776 14.5052 19.3777L9.94864 21.2417C9.90169 21.2608 9.85276 21.27 9.80407 21.27H8.10703C7.96544 21.27 7.83528 21.1915 7.76946 21.066L7.37649 20.3191L6.98427 21.0658C6.91845 21.1912 6.78829 21.27 6.6467 21.27C6.50512 21.27 6.37471 21.1915 6.30888 21.066L5.91493 20.3174L5.51998 21.0663C5.4539 21.1917 5.32399 21.27 5.18241 21.27C5.04082 21.27 4.91091 21.1915 4.84483 21.0663L4.11231 19.6768C4.0142 19.4905 4.08549 19.2597 4.27203 19.1613C4.45783 19.0637 4.68909 19.1343 4.78745 19.3211L5.18241 20.0705L5.5776 19.3211C5.64368 19.1956 5.77359 19.1174 5.91518 19.1174C6.05676 19.1174 6.18692 19.1959 6.25275 19.3213L6.64621 20.0685L7.03842 19.3215C7.16983 19.0707 7.58192 19.0704 7.71382 19.3213L8.33754 20.5069H9.54779L11.1924 16.4866H4.084C3.87336 16.4866 3.70246 16.3157 3.70246 16.1051C3.70246 15.8944 3.87336 15.7235 4.084 15.7235H11.7368L16.1351 11.324C16.13 11.2991 16.1201 11.2759 16.1201 11.2494V6.33413C16.1201 5.43369 15.3875 4.70117 14.4871 4.70117H12.3973V5.7658C12.3973 6.25663 11.9979 6.65605 11.5071 6.65605H5.79073C5.2999 6.65605 4.90048 6.25663 4.90048 5.7658V4.70366H2.8122C1.91177 4.70366 1.17924 5.43618 1.17924 6.33662V22.0306C1.17924 22.931 1.91177 23.6635 2.8122 23.6635H14.4871C15.3875 23.6635 16.1201 22.931 16.1201 22.0306V17.8023L14.6307 19.294C14.5947 19.3301 14.5522 19.358 14.5061 19.3771ZM4.084 9.34967H13.1127C13.3234 9.34967 13.4943 9.52056 13.4943 9.7312C13.4943 9.94184 13.3234 10.1127 13.1127 10.1127H4.084C3.87336 10.1127 3.70246 9.94184 3.70246 9.7312C3.70246 9.52056 3.87336 9.34967 4.084 9.34967ZM4.084 12.5366H13.1127C13.3234 12.5366 13.4943 12.7075 13.4943 12.9181C13.4943 13.1288 13.3234 13.2997 13.1127 13.2997H4.084C3.87336 13.2997 3.70246 13.1288 3.70246 12.9181C3.70246 12.7075 3.87336 12.5366 4.084 12.5366Z" fill="white"/>
<path d="M23.6271 13.4972L22.4062 13.2774C22.253 13.2498 22.1317 13.1316 22.1002 12.9791C22.0373 12.6755 21.94 12.3789 21.8264 12.0879L20.6261 13.2901C20.6268 13.2934 20.6292 13.2957 20.6299 13.299C20.6915 13.5879 20.7226 13.8855 20.7226 14.1831C20.7226 16.3779 19.0319 18.1997 16.8831 18.4117V21.4213H17.0617C17.1037 21.4213 17.1397 21.3913 17.1472 21.3498L17.3715 20.1225C17.3993 19.9707 17.5155 19.8505 17.6666 19.8179C18.3636 19.6679 19.0116 19.3976 19.5929 19.0146C19.7225 18.9289 19.892 18.9309 20.0201 19.0198L21.047 19.732C21.0815 19.7556 21.1282 19.7521 21.158 19.7221L22.0051 18.8753C22.0346 18.8457 22.0388 18.7988 22.015 18.7642L21.3076 17.7423C21.2199 17.6156 21.2169 17.4487 21.3001 17.3191C21.6851 16.7194 21.9544 16.0684 22.1007 15.3843C22.133 15.2328 22.2537 15.116 22.4062 15.0885L23.6273 14.8686C23.6686 14.8612 23.6986 14.8252 23.6986 14.7832V13.5827C23.6986 13.5407 23.6686 13.5047 23.6271 13.4972Z" fill="white"/>
</svg>
