<svg width="24" height="24" viewBox="0 0 24 24" fill="none" xmlns="http://www.w3.org/2000/svg">
<path d="M1.71429 12.8574H0V23.1431H1.71429C2.18769 23.1431 2.57143 22.7593 2.57143 22.286V13.7146C2.57143 13.2412 2.18769 12.8574 1.71429 12.8574Z" fill="white"/>
<path d="M6 12.8584V2.57143C6 1.62598 6.76883 0.857143 7.71428 0.857143H16.2857C17.2312 0.857143 18 1.62598 18 2.57143V14.6077L18.8571 14.1469V2.57143C18.8571 1.15346 17.7037 0 16.2857 0H7.71428C6.29631 0 5.14285 1.15346 5.14285 2.57143V12.8584H6Z" fill="white"/>
<path d="M23.0177 14.0032C22.3987 13.6333 21.6487 13.6174 21.0151 13.9597L15.4021 16.977C15.271 18.034 14.3774 18.8574 13.2857 18.8574H9.83999C9.6031 18.8574 9.41141 18.6658 9.41141 18.4289C9.41141 18.1921 9.6031 18.0004 9.83999 18.0004H13.2857C13.9947 18.0004 14.5714 17.4237 14.5714 16.7149C14.5714 16.0194 14.0155 15.4546 13.3251 15.4333C13.0685 15.4303 8.92634 15.4293 8.92634 15.4293L7.46317 13.9664C7.30246 13.8056 7.08441 13.7153 6.85715 13.7153H3.42857V22.2872H4.94197L7.71429 23.1426C8.86607 23.5129 10.098 23.9996 11.463 23.9996C12.6973 23.9996 13.9135 23.5903 14.9632 22.786L23.1261 17.3836C23.6731 17.0086 24 16.3893 24 15.7281C24 15.0142 23.633 14.3698 23.0177 14.0032Z" fill="white"/>
<path d="M9.28167 14.5723C10.2916 14.5727 13.1237 14.5735 13.3347 14.576C14.2789 14.6053 15.0511 15.2105 15.3235 16.0463L17.1429 15.0682V2.57101C17.1429 2.0976 16.7591 1.71387 16.2857 1.71387H13.7143C13.7143 2.66063 12.9468 3.42815 12 3.42815C11.0532 3.42815 10.2857 2.66063 10.2857 1.71387H7.71429C7.24088 1.71387 6.85715 2.0976 6.85715 2.57101V12.858C7.31502 12.858 7.74526 13.0363 8.0692 13.3602L9.28167 14.5723ZM13.8398 8.44598C13.6724 8.27856 13.6724 8.00736 13.8398 7.83995C14.0073 7.67254 14.2785 7.67254 14.4459 7.83995L16.1602 9.55423C16.3276 9.72165 16.3276 9.99285 16.1602 10.1603L14.4459 11.8745C14.3622 11.9583 14.2525 12.0001 14.1429 12.0001C14.0332 12.0001 13.9236 11.9583 13.8398 11.8745C13.6724 11.7071 13.6724 11.4359 13.8398 11.2685L15.2511 9.85725L13.8398 8.44598ZM11.1559 11.4683L12.013 8.03969C12.07 7.8095 12.3031 7.6672 12.5324 7.72789C12.7622 7.78523 12.902 8.01793 12.8442 8.24728L11.9871 11.6759C11.9385 11.8709 11.764 12.0006 11.5719 12.0006C11.5376 12.0006 11.5024 11.9964 11.4677 11.9877C11.2379 11.9303 11.0981 11.6976 11.1559 11.4683ZM7.83985 9.55423L9.55413 7.83995C9.72154 7.67254 9.99275 7.67254 10.1602 7.83995C10.3276 8.00736 10.3276 8.27856 10.1602 8.44598L8.74889 9.85725L10.1602 11.2685C10.3276 11.4359 10.3276 11.7071 10.1602 11.8745C10.0765 11.9583 9.9668 12.0001 9.85715 12.0001C9.74749 12.0001 9.63784 11.9583 9.55413 11.8745L7.83985 10.1603C7.67244 9.99285 7.67244 9.72165 7.83985 9.55423Z" fill="white"/>
</svg>
