<svg width="25" height="25" viewBox="0 0 25 25" fill="none" xmlns="http://www.w3.org/2000/svg">
<path fill-rule="evenodd" clip-rule="evenodd" d="M7.26203 22.7731L6.15135 24.6791C6.0672 24.8235 6.18103 24.9818 6.32536 24.9818H18.4957C18.64 24.9818 18.7539 24.8235 18.6697 24.6791L17.5591 22.7731H7.26203ZM13.8766 7.49935C13.5089 7.49935 13.2086 7.19841 13.2086 6.83137V5.3986H9.94803C9.71945 5.3986 9.533 5.58506 9.533 5.81364V12.5553C9.533 12.7839 9.7195 12.9703 9.94803 12.9703H14.873C15.1015 12.9703 15.2881 12.7838 15.2881 12.5553V7.49941H13.8766V7.49935ZM10.9187 6.67627H12.3975C12.6209 6.67627 12.802 6.85741 12.802 7.08083C12.802 7.30425 12.6209 7.4854 12.3975 7.4854H10.9187C10.6953 7.4854 10.5141 7.30425 10.5141 7.08083C10.5141 6.85741 10.6953 6.67627 10.9187 6.67627ZM13.9023 11.6926H10.9187C10.6953 11.6926 10.5141 11.5114 10.5141 11.288C10.5141 11.0646 10.6953 10.8834 10.9187 10.8834H13.9023C14.1258 10.8834 14.3069 11.0646 14.3069 11.288C14.3069 11.5114 14.1258 11.6926 13.9023 11.6926ZM13.9023 10.2902H10.9187C10.6953 10.2902 10.5141 10.109 10.5141 9.88563C10.5141 9.6622 10.6953 9.48106 10.9187 9.48106H13.9023C14.1258 9.48106 14.3069 9.6622 14.3069 9.88563C14.3069 10.109 14.1258 10.2902 13.9023 10.2902ZM13.9023 8.88777H10.9187C10.6953 8.88777 10.5141 8.70662 10.5141 8.4832C10.5141 8.25978 10.6953 8.07864 10.9187 8.07864H13.9023C14.1258 8.07864 14.3069 8.25978 14.3069 8.4832C14.3069 8.70662 14.1258 8.88777 13.9023 8.88777ZM14.0177 5.80312V6.69023H14.9048L14.0177 5.80312ZM20.0569 7.65177C19.8544 6.63698 19.4553 5.69313 18.9006 4.8619L19.9887 3.77388L17.8212 1.60632L16.7331 2.6944C15.9018 2.13969 14.9581 1.74038 13.9432 1.53805V0H10.8779V1.53805C9.86307 1.74044 8.91917 2.13954 8.088 2.69435L6.99997 1.60632L4.83242 3.77377L5.92044 4.8618C5.36573 5.69308 4.96643 6.63682 4.7641 7.65172H3.2261V10.717H4.764C4.96638 11.7319 5.36553 12.6758 5.92034 13.507L4.83237 14.595L6.99982 16.7626L8.08779 15.6745C8.91907 16.2292 9.86287 16.6285 10.8778 16.8308V18.3688H13.9431V16.8309C14.9579 16.6284 15.9017 16.2293 16.733 15.6745L17.821 16.7625L19.9885 14.5951L18.9005 13.507C19.4552 12.6758 19.8545 11.732 20.0568 10.7171H21.5948V7.65182L20.0569 7.65177ZM12.4105 14.6793C9.37577 14.6793 6.91567 12.2192 6.91567 9.18447C6.91567 6.14973 9.37572 3.68963 12.4105 3.68963C15.4451 3.68963 17.9053 6.14973 17.9053 9.18447C17.9053 12.2192 15.4451 14.6793 12.4105 14.6793ZM24.8211 19.7943H0V20.6682C0 21.381 0.583129 21.964 1.29582 21.964H23.5253C24.2379 21.964 24.8211 21.381 24.8211 20.6682V19.7943ZM23.5253 3.77377H21.1328L21.1329 3.77382L19.9232 4.98347C20.2521 5.5708 20.5109 6.19474 20.6938 6.8426H22.404V11.5261H20.6938C20.5109 12.174 20.2521 12.7979 19.9231 13.3853L21.1328 14.595L17.821 17.9067L16.6114 16.6971C16.0241 17.0261 15.4001 17.2849 14.7522 17.4678V18.9852H24.821V5.06959C24.8211 4.35685 24.2379 3.77377 23.5253 3.77377ZM10.0687 18.9852V17.4679C9.42083 17.285 8.79689 17.0262 8.20957 16.6972L6.99992 17.9069L3.68821 14.5951L4.89781 13.3855C4.56879 12.7981 4.31002 12.1741 4.12711 11.5262H2.41697V6.84265H4.12706C4.30997 6.19479 4.56879 5.57085 4.89776 4.98347L3.68811 3.77377H1.29577C0.583129 3.77377 0 4.3568 0 5.06959V18.9852H10.0687Z" fill="white"/>
</svg>
