<svg width="28" height="20" viewBox="0 0 28 20" fill="none" xmlns="http://www.w3.org/2000/svg">
<path d="M22.9083 11.6703C23.2493 12.0112 23.4613 12.4834 23.4613 13.0042C23.4613 13.526 23.2493 13.9971 22.9083 14.3392C22.5662 14.6802 22.0951 14.8906 21.5743 14.8906C21.0525 14.8906 20.5814 14.6802 20.2393 14.3392C19.8983 13.9971 19.688 13.526 19.688 13.0042C19.688 12.4839 19.8989 12.0112 20.2393 11.6703C20.5814 11.3293 21.0525 11.1172 21.5743 11.1172C22.0951 11.1172 22.5662 11.3293 22.9083 11.6703ZM27.98 12.6074V13.402C27.98 13.6392 27.833 13.8419 27.6067 13.9146L27.0428 14.0971C26.8663 14.1545 26.7406 14.2845 26.6914 14.4627C26.5783 14.8594 26.4204 15.237 26.2236 15.5906C26.134 15.7518 26.1308 15.9327 26.2144 16.0971L26.4838 16.6267C26.592 16.8371 26.5521 17.0835 26.3849 17.2524L25.8225 17.8147C25.6553 17.9819 25.4089 18.0207 25.1968 17.9136L24.6673 17.6442C24.5034 17.5589 24.322 17.5622 24.1608 17.6535C23.8077 17.8502 23.4296 18.0081 23.0329 18.1196C22.8547 18.171 22.7246 18.2961 22.6689 18.4726L22.4848 19.0366C22.4121 19.2628 22.2104 19.4082 21.9722 19.4082H21.1776C20.9404 19.4082 20.7377 19.2623 20.665 19.0366L20.4825 18.4726C20.4251 18.2961 20.2951 18.1704 20.1169 18.1196C19.7202 18.0081 19.3426 17.8502 18.989 17.6535C18.8278 17.5639 18.6469 17.5589 18.4825 17.6442L17.9529 17.9136C17.742 18.0207 17.4961 17.9819 17.3272 17.8147L16.7649 17.2524C16.5977 17.0835 16.5589 16.8371 16.666 16.6267L16.9354 16.0971C17.0207 15.9332 17.0174 15.7518 16.9261 15.5906C16.7294 15.2376 16.5715 14.8594 16.46 14.4627C16.4086 14.2845 16.2835 14.1545 16.107 14.0971L15.543 13.9146C15.3168 13.8419 15.1714 13.6386 15.1714 13.402V12.6074C15.1714 12.3686 15.3168 12.1675 15.543 12.0949L16.1086 11.9107C16.2835 11.8533 16.4092 11.7249 16.46 11.5468C16.5731 11.15 16.7294 10.7724 16.9261 10.4189C17.0174 10.2576 17.0207 10.0768 16.9354 9.91228L16.666 9.38276C16.5589 9.17073 16.5977 8.92428 16.7649 8.75706L17.3272 8.19475C17.4961 8.02753 17.7425 7.9871 17.9529 8.09584L18.4825 8.36525C18.6464 8.44886 18.8278 8.44558 18.989 8.35596C19.342 8.15923 19.7202 8.0013 20.1169 7.88819C20.2951 7.83846 20.4251 7.71332 20.4825 7.53681L20.665 6.97286C20.7377 6.74663 20.941 6.59963 21.1776 6.59963H21.9722C22.211 6.59963 22.4121 6.74663 22.4848 6.97286L22.6689 7.53681C22.7246 7.71332 22.8547 7.839 23.0329 7.88819C23.4296 8.0013 23.8072 8.15923 24.1608 8.35596C24.322 8.44558 24.5028 8.44886 24.6673 8.36525L25.1968 8.09584C25.4089 7.98764 25.6553 8.02753 25.8225 8.19475L26.3849 8.75706C26.5521 8.92428 26.5925 9.17073 26.4838 9.38276L26.2144 9.91228C26.1308 10.0762 26.134 10.2576 26.2236 10.4189C26.4204 10.7719 26.5783 11.15 26.6914 11.5468C26.7411 11.7249 26.8663 11.855 27.0428 11.9107L27.6067 12.0949C27.833 12.1675 27.98 12.3686 27.98 12.6074ZM24.3629 13.0042C24.3629 12.2342 24.0515 11.5375 23.5465 11.0325C23.0416 10.5276 22.3443 10.2145 21.5743 10.2145C20.8027 10.2145 20.106 10.5276 19.6011 11.0325C19.0961 11.5375 18.7847 12.2348 18.7847 13.0042C18.7847 13.7758 19.0961 14.4725 19.6011 14.9774C20.106 15.4824 20.8033 15.7939 21.5743 15.7939C22.3443 15.7939 23.041 15.4824 23.5465 14.9774C24.0515 14.4725 24.3629 13.7752 24.3629 13.0042ZM15.5102 18.971H13.5381L12.937 17.295H8.6352L8.03573 18.971H6.06355C5.81436 18.971 5.61108 19.1726 5.61108 19.4218C5.61108 19.671 5.81382 19.8743 6.06355 19.8743H15.5097C15.7589 19.8743 15.9622 19.6716 15.9622 19.4218C15.9627 19.1721 15.76 18.971 15.5102 18.971ZM14.2867 12.3593H0V1.41261C0 0.634989 0.636629 0 1.41425 0H20.1606C20.9383 0 21.5749 0.634989 21.5749 1.41261V5.69578H21.1771C20.5481 5.69578 20 6.09524 19.806 6.69362L19.6803 7.07614C19.3502 7.18161 19.0295 7.31495 18.7213 7.47451L18.3617 7.29145C17.8027 7.0062 17.1316 7.11166 16.6873 7.55648L16.125 8.11879C15.6802 8.56198 15.5753 9.23248 15.86 9.79316L16.0425 10.1527C15.8846 10.4609 15.7512 10.7817 15.6458 11.1118L15.2616 11.2358C14.7452 11.4036 14.3763 11.8375 14.2867 12.3593ZM5.68157 6.40509L8.67127 4.7351C8.88821 4.61433 8.9669 4.34001 8.84614 4.12306C8.72537 3.90611 8.45104 3.82742 8.2341 3.94819L4.54438 6.00836C4.4717 6.04879 4.40831 6.1089 4.3646 6.1865C4.24383 6.40345 4.32252 6.67777 4.53946 6.79854L8.2341 8.86198C8.45104 8.98275 8.72537 8.90515 8.84614 8.68712C8.9669 8.47017 8.88821 8.19584 8.67127 8.07508L5.68157 6.40509ZM11.6593 2.60225C11.4162 2.54652 11.1746 2.69843 11.1189 2.94161L9.57785 9.66911C9.52211 9.91065 9.67403 10.1522 9.91556 10.2079C10.1587 10.2637 10.4003 10.1117 10.456 9.86857L11.997 3.14271C12.0528 2.89953 11.9009 2.65799 11.6593 2.60225ZM13.3402 8.86198L17.0349 6.79854C17.2518 6.67777 17.3305 6.40345 17.2097 6.1865C17.1666 6.1089 17.1026 6.04879 17.03 6.00836L13.3402 3.94819C13.1233 3.82742 12.849 3.90611 12.7282 4.12306C12.6074 4.34001 12.6861 4.61433 12.9031 4.7351L15.8928 6.40509L12.9031 8.07508C12.6861 8.19584 12.6074 8.47017 12.7282 8.68712C12.849 8.90515 13.1233 8.98275 13.3402 8.86198ZM15.2627 14.7731C14.6649 14.5796 14.2665 14.031 14.2665 13.402V13.2626H0V14.9791C0 15.7551 0.636629 16.3917 1.41425 16.3917H15.7846C15.8064 16.3327 15.831 16.2742 15.8605 16.2168L16.0431 15.8573C15.8851 15.549 15.7518 15.2283 15.6447 14.8982L15.2627 14.7731Z" fill="white"/>
</svg>
