<svg width="24" height="24" viewBox="0 0 24 24" fill="none" xmlns="http://www.w3.org/2000/svg">
<path fill-rule="evenodd" clip-rule="evenodd" d="M0 0.461538C0 0.20664 0.20664 0 0.461538 0H23.5385C23.7934 0 24 0.20664 24 0.461538V5.30769C24 5.41098 23.9653 5.51128 23.9016 5.59251L14.7692 17.2363V23.5385C14.7692 23.7934 14.5626 24 14.3077 24H9.69231C9.4374 24 9.23077 23.7934 9.23077 23.5385V17.2363L0.0983769 5.59251C0.0346385 5.51128 0 5.41098 0 5.30769V0.461538ZM10.2092 3.36314C10.2092 2.52531 10.8884 1.84615 11.7262 1.84615H12.2738C13.1116 1.84615 13.7908 2.52531 13.7908 3.36314C13.7908 3.38437 13.7962 3.39457 13.8005 3.40066C13.8063 3.40883 13.8166 3.41806 13.8316 3.42425C13.8466 3.43048 13.8604 3.43126 13.8703 3.42955C13.8776 3.42826 13.8887 3.42494 13.9037 3.40989C14.4961 2.81751 15.4566 2.81751 16.049 3.40989L16.4363 3.79717C17.0286 4.38955 17.0286 5.35002 16.4363 5.94245C16.4213 5.95745 16.4179 5.96852 16.4166 5.97586C16.4149 5.98574 16.4157 5.99954 16.4219 6.01454C16.4281 6.02954 16.4373 6.03988 16.4455 6.04565C16.4516 6.04994 16.4618 6.05539 16.4831 6.05539C17.3208 6.05539 18 6.73454 18 7.57232V8.11994C18 8.95777 17.3208 9.63692 16.483 9.63692C16.4618 9.63692 16.4516 9.64237 16.4455 9.64666C16.4373 9.65243 16.4281 9.66277 16.4219 9.67777C16.4157 9.69277 16.4149 9.70657 16.4166 9.71645C16.4179 9.72378 16.4212 9.73486 16.4363 9.74991C17.0286 10.3423 17.0286 11.3028 16.4363 11.8952L16.049 12.2824C15.4566 12.8748 14.4961 12.8748 13.9037 12.2824C13.8887 12.2674 13.8776 12.264 13.8703 12.2628C13.8604 12.261 13.8466 12.2619 13.8316 12.2681C13.8166 12.2743 13.8063 12.2835 13.8005 12.2917C13.7962 12.2978 13.7908 12.308 13.7908 12.3292C13.7908 13.167 13.1116 13.8462 12.2738 13.8462H11.7262C10.8884 13.8462 10.2092 13.167 10.2092 12.3292C10.2092 12.308 10.2038 12.2978 10.1995 12.2917C10.1937 12.2835 10.1834 12.2743 10.1684 12.2681C10.1534 12.2619 10.1396 12.261 10.1297 12.2628C10.1224 12.264 10.1113 12.2674 10.0963 12.2824C9.50386 12.8748 8.5434 12.8748 7.95097 12.2824L7.56374 11.8952C6.97135 11.3028 6.97135 10.3423 7.56374 9.74991C7.57878 9.73486 7.58211 9.72378 7.5834 9.71645C7.58511 9.70657 7.58432 9.69277 7.57809 9.67777C7.57191 9.66277 7.56268 9.65243 7.55451 9.64666C7.54842 9.64237 7.53822 9.63692 7.51698 9.63692C6.67915 9.63692 6 8.95777 6 8.11994V7.57232C6 6.73454 6.67915 6.05539 7.51694 6.05539C7.53817 6.05539 7.54837 6.04994 7.55446 6.04565C7.56268 6.03988 7.57186 6.02954 7.57809 6.01454C7.58428 5.99954 7.58511 5.98574 7.5834 5.97586C7.58211 5.96852 7.57874 5.95745 7.56374 5.94245C6.97135 5.35002 6.97135 4.38955 7.56374 3.79717L7.95097 3.40989C8.5434 2.81751 9.50386 2.81751 10.0963 3.40989C10.1113 3.42494 10.1224 3.42826 10.1297 3.42955C10.1396 3.43126 10.1534 3.43048 10.1684 3.42425C10.1834 3.41806 10.1937 3.40883 10.1995 3.40066C10.2038 3.39457 10.2092 3.38437 10.2092 3.36314ZM11.7262 2.76923C11.3982 2.76923 11.1323 3.03512 11.1323 3.36314C11.1323 4.24445 10.0668 4.68582 9.44354 4.06265C9.21162 3.83068 8.8356 3.83068 8.60368 4.06265L8.21645 4.44988C7.98452 4.6818 7.98452 5.05782 8.21645 5.28974C8.83966 5.91291 8.39825 6.97846 7.51694 6.97846C7.18897 6.97846 6.92308 7.24435 6.92308 7.57232V8.11994C6.92308 8.44795 7.18897 8.71385 7.51698 8.71385C8.39829 8.71385 8.83966 9.7794 8.21645 10.4026C7.98452 10.6345 7.98452 11.0106 8.21645 11.2425L8.60368 11.6297C8.8356 11.8616 9.21162 11.8616 9.44354 11.6297C10.0668 11.0065 11.1323 11.4479 11.1323 12.3292C11.1323 12.6572 11.3982 12.9231 11.7262 12.9231H12.2738C12.6018 12.9231 12.8677 12.6572 12.8677 12.3292C12.8677 11.4479 13.9332 11.0065 14.5565 11.6297C14.7884 11.8616 15.1644 11.8616 15.3963 11.6297L15.7836 11.2425C16.0155 11.0106 16.0155 10.6345 15.7836 10.4026C15.1603 9.7794 15.6017 8.71385 16.483 8.71385C16.811 8.71385 17.0769 8.44795 17.0769 8.11994V7.57232C17.0769 7.24435 16.811 6.97846 16.4831 6.97846C15.6018 6.97846 15.1603 5.91291 15.7836 5.28974C16.0155 5.05782 16.0155 4.6818 15.7836 4.44988L15.3963 4.06265C15.1644 3.83068 14.7884 3.83068 14.5565 4.06265C13.9332 4.68582 12.8677 4.24445 12.8677 3.36314C12.8677 3.03512 12.6018 2.76923 12.2738 2.76923H11.7262ZM12 5.86814C10.9076 5.86814 10.022 6.75374 10.022 7.84615C10.022 8.93857 10.9076 9.82417 12 9.82417C13.0924 9.82417 13.978 8.93857 13.978 7.84615C13.978 6.75374 13.0924 5.86814 12 5.86814ZM9.23077 7.84615C9.23077 6.31675 10.4706 5.07692 12 5.07692C13.5294 5.07692 14.7692 6.31675 14.7692 7.84615C14.7692 9.37555 13.5294 10.6154 12 10.6154C10.4706 10.6154 9.23077 9.37555 9.23077 7.84615ZM15.6923 19.8462C15.6923 17.552 17.552 15.6923 19.8462 15.6923C22.1403 15.6923 24 17.552 24 19.8462C24 22.1403 22.1403 24 19.8462 24C17.552 24 15.6923 22.1403 15.6923 19.8462ZM20.3077 17.5385C20.3077 17.2836 20.1011 17.0769 19.8462 17.0769C19.5912 17.0769 19.3846 17.2836 19.3846 17.5385V18H19.1538C18.5166 18 18 18.5166 18 19.1538C18 19.7911 18.5166 20.3077 19.1538 20.3077H20.5385C20.6659 20.3077 20.7692 20.411 20.7692 20.5385C20.7692 20.6659 20.6659 20.7692 20.5385 20.7692H18.4615C18.2066 20.7692 18 20.9759 18 21.2308C18 21.4857 18.2066 21.6923 18.4615 21.6923H19.3846V22.1538C19.3846 22.4088 19.5912 22.6154 19.8462 22.6154C20.1011 22.6154 20.3077 22.4088 20.3077 22.1538V21.6923H20.5385C21.1757 21.6923 21.6923 21.1757 21.6923 20.5385C21.6923 19.9012 21.1757 19.3846 20.5385 19.3846H19.1538C19.0264 19.3846 18.9231 19.2813 18.9231 19.1538C18.9231 19.0264 19.0264 18.9231 19.1538 18.9231H21.2308C21.4857 18.9231 21.6923 18.7164 21.6923 18.4615C21.6923 18.2066 21.4857 18 21.2308 18H20.3077V17.5385ZM4.15385 15.6923C1.85972 15.6923 0 17.552 0 19.8462C0 22.1403 1.85972 24 4.15385 24C6.44797 24 8.30769 22.1403 8.30769 19.8462C8.30769 17.552 6.44797 15.6923 4.15385 15.6923ZM4.15385 17.0769C4.40875 17.0769 4.61538 17.2836 4.61538 17.5385V18H5.53846C5.79337 18 6 18.2066 6 18.4615C6 18.7164 5.79337 18.9231 5.53846 18.9231H3.46154C3.33411 18.9231 3.23077 19.0264 3.23077 19.1538C3.23077 19.2813 3.33411 19.3846 3.46154 19.3846H4.84615C5.4834 19.3846 6 19.9012 6 20.5385C6 21.1757 5.4834 21.6923 4.84615 21.6923H4.61538V22.1538C4.61538 22.4088 4.40875 22.6154 4.15385 22.6154C3.89894 22.6154 3.69231 22.4088 3.69231 22.1538V21.6923H2.76923C2.51432 21.6923 2.30769 21.4857 2.30769 21.2308C2.30769 20.9759 2.51432 20.7692 2.76923 20.7692H4.84615C4.97358 20.7692 5.07692 20.6659 5.07692 20.5385C5.07692 20.411 4.97358 20.3077 4.84615 20.3077H3.46154C2.82429 20.3077 2.30769 19.7911 2.30769 19.1538C2.30769 18.5166 2.82429 18 3.46154 18H3.69231V17.5385C3.69231 17.2836 3.89894 17.0769 4.15385 17.0769Z" fill="white"/>
</svg>
