<svg width="25" height="22" viewBox="0 0 25 22" fill="none" xmlns="http://www.w3.org/2000/svg">
<path d="M23.0849 19.5121H22.6575V8.83732C22.2593 8.66562 21.9195 8.38066 21.6821 8.02264C21.2875 8.61812 20.6117 9.01268 19.8445 9.01268C19.0773 9.01268 18.4015 8.61812 18.0069 8.02264C17.6124 8.61812 16.9365 9.01268 16.1693 9.01268C15.4021 9.01268 14.7263 8.61812 14.3317 8.02264C13.9372 8.61812 13.2613 9.01268 12.4941 9.01268C11.727 9.01268 11.0511 8.61812 10.6566 8.02264C10.262 8.61812 9.5898 9.01268 8.82262 9.01268C8.05178 9.01268 7.37228 8.61447 6.97773 8.01168C6.57952 8.59986 5.91097 8.9871 5.14744 8.9871C4.38026 8.9871 3.70441 8.59255 3.30985 7.99707C3.07239 8.35509 2.73264 8.6437 2.33078 8.81175V19.5121H1.90335C1.46131 19.5121 1.10329 19.8702 1.10329 20.3122V21.832H23.885V20.3122C23.885 19.8702 23.527 19.5121 23.0849 19.5121ZM10.8283 19.5121H4.81865V12.0997C4.81865 11.6028 5.22051 11.1973 5.721 11.1973H9.9259C10.4227 11.1973 10.8283 11.6028 10.8283 12.0997V19.5121ZM19.7532 16.0269C19.7532 16.3484 19.4938 16.6078 19.1723 16.6078H14.2733C13.9518 16.6078 13.6888 16.3484 13.6888 16.0269V11.5955C13.6888 11.274 13.9518 11.0147 14.2733 11.0147H19.1723C19.4938 11.0147 19.7532 11.274 19.7532 11.5955V16.0269Z" fill="white"/>
<path d="M21.9415 5.79767H24.78L23.6585 3.42305C23.5379 3.16733 23.2822 3.00293 22.9973 3.00293H21.0026L21.9415 5.79767Z" fill="white"/>
<path d="M3.98935 2.97754H1.99467C1.71337 2.97754 1.45399 3.14194 1.33343 3.39766L0.211884 5.77228H3.04681L3.98935 2.97754Z" fill="white"/>
<path d="M22.0474 6.52832V6.80962C22.0474 7.62064 22.705 8.28188 23.5197 8.28188C24.3307 8.28188 24.9883 7.62064 24.9883 6.80962V6.52832H22.0474Z" fill="white"/>
<path d="M19.8445 8.28188C20.6555 8.28188 21.3168 7.62064 21.3168 6.80962V6.52832H18.3722V6.80962C18.3722 7.62064 19.0335 8.28188 19.8445 8.28188Z" fill="white"/>
<path d="M17.1374 3.70436L16.995 3.00293H14.4852L14.6751 5.79767H17.5612L17.1374 3.70436Z" fill="white"/>
<path d="M3.67517 6.78405C3.67517 7.59507 4.33641 8.25631 5.14743 8.25631C5.95846 8.25631 6.6197 7.59507 6.6197 6.78405V6.52832H3.67517V6.78405Z" fill="white"/>
<path d="M20.2317 3.00293H17.7402L18.164 5.09625L18.3065 5.79767H21.1706L20.2317 3.00293Z" fill="white"/>
<path d="M7.35036 6.80962C7.35036 7.62064 8.00794 8.28188 8.82262 8.28188C9.63364 8.28188 10.2912 7.62064 10.2912 6.80962V6.52832H7.35036V6.80962Z" fill="white"/>
<path d="M2.94453 6.78423V6.50293H0V6.78423C0 7.59525 0.66124 8.25649 1.47226 8.25649C2.28329 8.25649 2.94453 7.59525 2.94453 6.78423Z" fill="white"/>
<path d="M7.24806 3.00293H4.76019L3.82861 5.7721H6.68911L7.24806 3.00293Z" fill="white"/>
<path d="M11.2374 3.00293L11.0475 5.79767H13.9408L13.7545 3.00293H11.2374Z" fill="white"/>
<path d="M16.1693 8.28188C16.9803 8.28188 17.6416 7.62064 17.6416 6.80962V6.52832H14.6971V6.80962C14.6971 7.62064 15.3583 8.28188 16.1693 8.28188Z" fill="white"/>
<path d="M10.5031 3.00293H7.99698L7.43073 5.79767H10.3168L10.5031 3.00293Z" fill="white"/>
<path d="M11.0219 6.80962C11.0219 7.62064 11.6831 8.28188 12.4941 8.28188C13.3052 8.28188 13.9664 7.62064 13.9664 6.80962V6.52832H11.0219V6.80962Z" fill="white"/>
<path d="M5.00131 2.27233H22.6575V1.53072C22.6575 0.686813 21.9743 0 21.1304 0H3.8615C3.01759 0 2.33078 0.686813 2.33078 1.53072V2.24675H5.00862L5.00131 2.27233Z" fill="white"/>
</svg>
