<svg width="24" height="24" viewBox="0 0 24 24" fill="none" xmlns="http://www.w3.org/2000/svg">
<path d="M18.375 0H5.625C2.5184 0 0 2.5184 0 5.625V18.375C0 21.4816 2.5184 24 5.625 24H18.375C21.4816 24 24 21.4816 24 18.375V5.625C24 2.5184 21.4816 0 18.375 0Z" fill="white"/>
<path d="M13.7022 12.0273C13.7022 12.9673 12.9402 13.7294 12.0001 13.7294C11.0601 13.7294 10.298 12.9673 10.298 12.0273C10.298 11.0873 11.06 10.3252 12.0001 10.3252C12.9402 10.3252 13.7022 11.0873 13.7022 12.0273Z" fill="black" stroke="black" stroke-width="0.09375"/>
<path d="M12.0002 8.47168C14.3484 8.47168 16.5299 8.80862 18.1747 9.37496C20.1565 10.0572 21.375 11.0913 21.375 12.0278C21.375 13.0036 20.0837 14.1023 17.9555 14.8074C16.3465 15.3405 14.2293 15.6187 12.0002 15.6187C9.71475 15.6187 7.55053 15.3575 5.92341 14.8015C3.86484 14.0979 2.625 12.9851 2.625 12.0278C2.625 11.0989 3.78844 10.0727 5.74237 9.39156C7.39331 8.81593 9.62859 8.47168 11.9998 8.47168H12.0002Z" stroke="black" stroke-width="0.835406"/>
<path d="M8.90447 10.2598C10.0777 8.22562 11.4592 6.50419 12.7716 5.36231C14.3526 3.98634 15.8572 3.44747 16.6684 3.91519C17.5137 4.40269 17.8204 6.07031 17.368 8.26612C17.0263 9.92615 16.2094 11.8992 15.0957 13.8303C13.9539 15.8101 12.6466 17.5544 11.3522 18.6858C9.71428 20.1175 8.13075 20.6357 7.30153 20.1575C6.49687 19.6938 6.18919 18.1731 6.57525 16.1401C6.9014 14.4223 7.71993 12.314 8.90409 10.2598H8.90447Z" stroke="black" stroke-width="0.835406"/>
<path d="M8.90738 13.835C7.73091 11.8031 6.92991 9.746 6.5956 8.03882C6.19313 5.98185 6.47766 4.40919 7.28813 3.94007C8.13272 3.45107 9.7305 4.01825 11.4069 5.50682C12.6744 6.63219 13.976 8.32503 15.0928 10.2542C16.2379 12.2322 17.0961 14.2361 17.4299 15.9224C17.8523 18.0566 17.5104 19.6872 16.682 20.1667C15.8782 20.6321 14.4071 20.1394 12.8386 18.7896C11.5133 17.6492 10.0955 15.8872 8.90738 13.835Z" stroke="black" stroke-width="0.835406"/>
</svg>
