<svg width="564" height="419" viewBox="0 0 564 419" fill="none" xmlns="http://www.w3.org/2000/svg">
<g clip-path="url(#clip0_207_10918)">
<path opacity="0.5" d="M122.897 158.427C128.303 158.427 132.685 154.045 132.685 148.64C132.685 143.234 128.303 138.852 122.897 138.852C117.491 138.852 113.109 143.234 113.109 148.64C113.109 154.045 117.491 158.427 122.897 158.427Z" fill="url(#paint0_radial_207_10918)"/>
<path opacity="0.5" d="M192.206 171.739C197.611 171.739 201.993 167.357 201.993 161.952C201.993 156.546 197.611 152.164 192.206 152.164C186.8 152.164 182.418 156.546 182.418 161.952C182.418 167.357 186.8 171.739 192.206 171.739Z" fill="url(#paint1_radial_207_10918)"/>
<path opacity="0.5" d="M249.268 123.968C254.673 123.968 259.055 119.586 259.055 114.181C259.055 108.775 254.673 104.393 249.268 104.393C243.862 104.393 239.48 108.775 239.48 114.181C239.48 119.586 243.862 123.968 249.268 123.968Z" fill="url(#paint2_radial_207_10918)"/>
<path opacity="0.5" d="M320.139 135.742C325.545 135.742 329.927 131.36 329.927 125.955C329.927 120.549 325.545 116.167 320.139 116.167C314.734 116.167 310.352 120.549 310.352 125.955C310.352 131.36 314.734 135.742 320.139 135.742Z" fill="url(#paint3_radial_207_10918)"/>
<path opacity="0.5" d="M360.971 87.1763C366.377 87.1763 370.759 82.7942 370.759 77.3887C370.759 71.9831 366.377 67.6011 360.971 67.6011C355.566 67.6011 351.184 71.9831 351.184 77.3887C351.184 82.7942 355.566 87.1763 360.971 87.1763Z" fill="url(#paint4_radial_207_10918)"/>
<path opacity="0.5" d="M439.99 87.75C445.395 87.75 449.777 83.368 449.777 77.9624C449.777 72.5569 445.395 68.1748 439.99 68.1748C434.584 68.1748 430.202 72.5569 430.202 77.9624C430.202 83.368 434.584 87.75 439.99 87.75Z" fill="url(#paint5_radial_207_10918)"/>
<g opacity="0.5">
<path d="M523.424 11.0351L520.822 7.91479L446.937 69.5252C445.568 68.3956 443.908 67.5824 442.05 67.2255C436.148 66.0922 430.415 69.9594 429.26 75.854L371.73 75.4382C370.888 70.8314 367.116 67.0378 362.083 66.5116C356.861 65.9671 351.916 69.3007 350.47 74.3491C349.429 77.9845 350.337 81.6383 352.508 84.3023L325.504 116.425C324.503 115.862 323.396 115.446 322.204 115.218C316.879 114.195 311.691 117.245 309.877 122.18L260.203 113.867C260.089 108.396 255.843 103.594 249.985 103.186C244.948 102.836 240.267 106.078 238.81 110.913C237.905 113.923 238.339 116.962 239.738 119.442L199.13 153.493C197.769 152.374 196.116 151.568 194.269 151.215C189.03 150.207 183.93 153.143 182.038 157.934L133.833 148.676C133.851 143.274 129.837 138.465 124.185 137.785C118.71 137.126 113.522 140.761 112.259 146.13C111.483 149.434 112.289 152.72 114.165 155.218L70.4414 203.207L73.4439 205.941L117.164 157.952C118.257 158.629 119.493 159.122 120.837 159.38C126.076 160.384 131.176 157.452 133.067 152.661L181.273 161.919C181.251 167.475 185.505 172.409 191.418 172.858C196.481 173.241 201.209 169.992 202.67 165.127C203.575 162.121 203.13 159.089 201.739 156.605L242.343 122.555C243.704 123.673 245.356 124.479 247.207 124.836C252.535 125.859 257.719 122.809 259.534 117.874L309.207 126.183C309.318 131.669 313.586 136.478 319.455 136.868C324.54 137.207 329.246 133.888 330.648 128.99C331.689 125.359 330.777 121.705 328.61 119.041L355.614 86.9184C356.615 87.4814 357.722 87.8972 358.914 88.1253C364.816 89.2586 370.549 85.3914 371.705 79.4968L429.234 79.9126C430.073 84.5083 433.83 88.2946 438.845 88.8355C444.019 89.3947 448.938 86.1457 450.451 81.1673C451.363 78.1611 450.925 75.1255 449.546 72.6454L523.424 11.0351ZM129.921 152.057C128.413 155.156 124.961 156.992 121.425 156.311C120.675 156.168 119.968 155.921 119.324 155.582C118.081 154.946 117.054 153.989 116.322 152.841C115.28 151.215 114.839 149.202 115.229 147.167C116.042 142.94 120.141 140.158 124.373 140.971C127.909 141.652 130.436 144.636 130.69 148.069C130.742 148.739 130.705 149.423 130.573 150.115C130.433 150.803 130.216 151.454 129.921 152.057ZM190.733 169.62C187.194 168.939 184.666 165.959 184.415 162.522C184.364 161.852 184.401 161.168 184.533 160.476C184.666 159.785 184.886 159.133 185.181 158.533C186.689 155.439 190.137 153.599 193.677 154.28C194.792 154.493 195.804 154.935 196.676 155.549C197.809 156.344 198.707 157.422 199.285 158.666C199.958 160.101 200.197 161.757 199.877 163.424C199.064 167.655 194.961 170.433 190.733 169.62ZM256.373 117.345C254.912 120.546 251.398 122.463 247.796 121.771C246.681 121.558 245.665 121.112 244.793 120.502C243.66 119.707 242.762 118.629 242.188 117.389C241.515 115.954 241.276 114.302 241.599 112.627C242.413 108.396 246.512 105.618 250.743 106.431C254.217 107.097 256.715 109.986 257.042 113.341C257.112 114.066 257.083 114.82 256.939 115.575C256.818 116.2 256.63 116.793 256.373 117.345ZM327.811 127.427C326.998 131.658 322.899 134.436 318.668 133.623C315.194 132.957 312.696 130.068 312.364 126.713C312.295 125.988 312.324 125.234 312.468 124.479C312.589 123.854 312.78 123.261 313.038 122.706C314.499 119.505 318.009 117.591 321.611 118.283C322.259 118.408 322.87 118.607 323.436 118.875C324.706 119.464 325.765 120.377 326.542 121.491C327.708 123.162 328.223 125.281 327.811 127.427ZM368.492 79.471C367.422 83.3529 363.514 85.8293 359.496 85.0566C358.852 84.9315 358.237 84.7328 357.671 84.4642C356.401 83.8754 355.338 82.9629 354.565 81.848C353.403 80.1812 352.887 78.0654 353.299 75.9129C354.113 71.6851 358.212 68.9033 362.443 69.7165C365.49 70.3016 367.786 72.5939 368.525 75.4125C368.812 76.509 368.868 77.6791 368.64 78.8602C368.599 79.0699 368.551 79.2723 368.492 79.471ZM438.514 85.6306C435.468 85.0455 433.171 82.7532 432.432 79.9346C432.145 78.8418 432.09 77.6717 432.318 76.4869C432.358 76.2772 432.406 76.0748 432.465 75.8761C433.536 71.9942 437.443 69.5178 441.462 70.2905C442.58 70.5039 443.603 70.9528 444.479 71.5747C445.608 72.3695 446.503 73.4513 447.08 74.6949C447.743 76.1263 447.978 77.7711 447.658 79.4342C446.845 83.6657 442.746 86.4437 438.514 85.6306Z" fill="white"/>
<path d="M530.025 18.946L523.423 11.035L520.822 7.91103L514.225 0L531.596 1.57485L530.025 18.946Z" fill="#F3505A"/>
<path d="M126.731 149.375C126.591 150.104 126.253 150.748 125.789 151.263C124.903 152.238 123.545 152.742 122.158 152.473H122.15C120.667 152.186 119.541 151.09 119.148 149.736C118.978 149.158 118.938 148.536 119.059 147.903C119.464 145.788 121.51 144.397 123.629 144.805C125.017 145.07 126.091 146.041 126.551 147.274C126.798 147.925 126.871 148.647 126.731 149.375Z" fill="#F3505A"/>
<path d="M196.042 162.688C195.638 164.803 193.588 166.194 191.472 165.786C190.082 165.517 189.011 164.549 188.551 163.317C188.312 162.666 188.234 161.944 188.374 161.216C188.514 160.487 188.853 159.843 189.316 159.328C190.199 158.353 191.557 157.849 192.948 158.118C193.124 158.151 193.297 158.199 193.463 158.25C194.861 158.721 195.858 159.943 196.072 161.363C196.134 161.793 196.127 162.235 196.042 162.688Z" fill="#F3505A"/>
<path d="M253.105 114.835C252.973 115.531 252.66 116.152 252.226 116.653C251.342 117.672 249.955 118.209 248.535 117.937C248.358 117.904 248.185 117.856 248.016 117.801C246.618 117.326 245.624 116.108 245.411 114.688C245.345 114.257 245.352 113.812 245.437 113.363C245.845 111.244 247.891 109.857 250.007 110.265C251.361 110.526 252.417 111.457 252.895 112.646C253.164 113.319 253.252 114.07 253.105 114.835Z" fill="#F3505A"/>
<path d="M323.973 126.691C323.564 128.81 321.522 130.197 319.403 129.789C318.049 129.528 316.993 128.597 316.514 127.408C316.246 126.735 316.157 125.984 316.305 125.219C316.437 124.523 316.75 123.902 317.184 123.401C318.038 122.415 319.362 121.882 320.731 122.095C320.779 122.102 320.827 122.11 320.875 122.121C322.306 122.397 323.406 123.42 323.837 124.711C324.05 125.326 324.105 126.003 323.973 126.691Z" fill="#F3505A"/>
<path d="M364.805 78.1239C364.713 78.6059 364.537 79.0511 364.29 79.4448C363.488 80.74 361.965 81.4907 360.379 81.2478C360.331 81.2405 360.283 81.2331 360.235 81.2221C358.804 80.9461 357.704 79.9232 357.273 78.6317C357.064 78.0172 357.009 77.3365 357.137 76.6484C357.542 74.5326 359.588 73.1418 361.707 73.5502C362.844 73.7673 363.772 74.4627 364.32 75.3826H364.323C364.798 76.1774 364.993 77.1451 364.805 78.1239Z" fill="#F3505A"/>
<path d="M443.824 78.6985C443.419 80.8142 441.373 82.2051 439.254 81.7967C438.117 81.5796 437.193 80.8878 436.641 79.9679C436.163 79.1731 435.968 78.2054 436.156 77.2267C436.248 76.7446 436.424 76.3031 436.671 75.9094C437.499 74.5737 439.092 73.812 440.729 74.1285C440.91 74.1616 441.086 74.2094 441.255 74.2683C442.657 74.743 443.647 75.9682 443.857 77.3886C443.912 77.8117 443.908 78.2532 443.824 78.6985Z" fill="#F3505A"/>
</g>
<path d="M120.443 106.847L141.361 121.833C141.824 122.165 142.465 122.058 142.796 121.598L152.819 107.608C153.474 106.692 153.264 105.419 152.348 104.764L133.067 90.951C132.151 90.296 130.878 90.5058 130.223 91.422L120.2 105.412C119.876 105.872 119.983 106.515 120.443 106.847Z" fill="#232937"/>
<path d="M144.401 102.84C144.857 102.829 145.302 102.608 145.589 102.21L147.554 99.4691C148.04 98.7921 147.882 97.8501 147.208 97.3644L141.74 93.4457C141.063 92.96 140.121 93.1182 139.636 93.7915L137.671 96.5328C137.435 96.8603 137.343 97.2577 137.41 97.6551C137.476 98.0525 137.693 98.402 138.02 98.6338L143.488 102.553C143.761 102.759 144.081 102.851 144.401 102.84ZM140.85 94.2993C140.931 94.2956 141.008 94.3214 141.078 94.3692L146.546 98.288C146.715 98.4094 146.752 98.6412 146.631 98.8105L144.666 101.552C144.544 101.717 144.312 101.758 144.143 101.636L138.675 97.7176C138.594 97.6588 138.539 97.5741 138.525 97.4748C138.51 97.3754 138.532 97.2761 138.591 97.1951L140.556 94.4539C140.614 94.3729 140.699 94.3177 140.798 94.303C140.813 94.303 140.832 94.303 140.85 94.2993Z" fill="#232937"/>
<path d="M126.374 98.862L147.017 113.654C147.554 114.04 148.304 113.915 148.687 113.378L152.709 107.766C153.364 106.85 153.154 105.577 152.238 104.922L132.957 91.1092C132.041 90.4542 130.768 90.6639 130.113 91.5802L126.091 97.1915C125.712 97.7287 125.833 98.4793 126.374 98.862Z" fill="#666666"/>
<path d="M126.489 98.7038L147.131 113.496C147.668 113.882 148.419 113.757 148.801 113.22L152.823 107.608C153.478 106.692 153.268 105.419 152.352 104.764L133.071 90.951C132.155 90.296 130.882 90.5058 130.227 91.422L126.205 97.0333C125.826 97.5668 125.951 98.3174 126.489 98.7038Z" fill="#111219"/>
<path d="M145.286 109.944L143.229 112.814C143.13 112.951 143.163 113.142 143.299 113.241L144.531 114.124C144.668 114.224 144.859 114.191 144.958 114.054L147.015 111.184L145.286 109.944Z" fill="#F2F2F2"/>
<path d="M145.286 109.944L144.149 111.53C144.175 111.611 144.226 111.685 144.3 111.736L145.635 112.693C145.709 112.744 145.794 112.77 145.878 112.767L147.015 111.181L145.286 109.944Z" fill="#4D4D4D"/>
<path d="M144.366 111.644L145.702 112.601C145.882 112.73 146.136 112.689 146.265 112.509L147.034 111.435C147.163 111.254 147.122 111.001 146.942 110.872L145.606 109.915C145.426 109.786 145.172 109.827 145.043 110.007L144.274 111.081C144.146 111.262 144.186 111.512 144.366 111.644Z" fill="#CCCCCC"/>
<path d="M130.444 99.3069L128.387 102.177C128.288 102.313 128.096 102.346 127.96 102.247L126.728 101.364C126.591 101.264 126.558 101.073 126.658 100.937L128.715 98.0669L130.444 99.3069Z" fill="#F2F2F2"/>
<path d="M130.444 99.3071L129.307 100.893C129.222 100.897 129.138 100.871 129.064 100.819L127.728 99.8627C127.655 99.8112 127.603 99.7376 127.578 99.6567L128.715 98.0708L130.444 99.3071Z" fill="#4D4D4D"/>
<path d="M129.13 100.724L127.795 99.767C127.614 99.6382 127.574 99.3843 127.703 99.204L128.472 98.1296C128.6 97.9493 128.854 97.9088 129.035 98.0376L130.37 98.9943C130.551 99.1231 130.591 99.377 130.462 99.5573L129.693 100.632C129.561 100.812 129.311 100.852 129.13 100.724Z" fill="#CCCCCC"/>
<path d="M211.199 171.909L212.344 173.271L215.843 174.592C216.321 174.772 216.84 174.809 217.337 174.695L223.945 173.193C224.247 173.123 224.556 173.263 224.707 173.532C225.023 174.095 224.946 174.794 224.516 175.272L224.17 175.659L218.058 178.665C217.642 178.871 217.204 179.029 216.756 179.136L212.94 180.063L211.417 179.342L211.49 180.192L207.432 180.549L206.504 178.731C206.07 177.877 205.875 176.917 205.941 175.96L206.195 172.351L211.199 171.909Z" fill="black"/>
<path d="M129.63 127.607L127.879 127.298L124.346 128.531C123.864 128.7 123.441 129.006 123.132 129.414L119.033 134.808C118.846 135.055 118.522 135.147 118.231 135.036C117.631 134.808 117.238 134.223 117.26 133.579L117.278 133.06L120.03 126.831C120.218 126.408 120.45 126.007 120.726 125.635L123.055 122.474L124.685 122.048L124.082 121.444L126.963 118.563L128.839 119.361C129.722 119.737 130.484 120.348 131.051 121.124L133.174 124.053L129.63 127.607Z" fill="black"/>
<path d="M182.454 111.98L202.431 138.889C202.99 139.643 203.406 140.493 203.656 141.398L212.299 172.762L205.934 174.091C203.159 164.09 199.579 154.567 195.2 145.523L171.199 122.025L182.454 111.98Z" fill="#0D0E13"/>
<path d="M185.401 110.044C179.886 122.095 171.64 135.654 160.531 145.284C159.262 146.384 157.341 146.733 155.976 145.758C144.323 137.464 131.404 129.241 128.519 128.185C128.519 128.185 131.503 121.852 131.72 121.852C131.937 121.852 154.541 135.294 154.541 135.294C159.225 130.256 162.595 124.829 164.284 118.894L163.964 118.239C162.632 115.538 163.261 112.282 165.499 110.265L165.752 110.037H185.401V110.044Z" fill="#111219"/>
<path d="M204.712 52.8936C204.712 56.0028 204.634 59.112 204.226 62.2323C204.167 62.6775 204.329 63.1227 204.657 63.4281L207.07 65.68C207.225 65.8235 207.17 66.0774 206.975 66.1473L204.531 67.023C204.049 67.196 203.681 67.5934 203.549 68.0864C203.063 69.8931 202.177 71.8175 201.025 73.8265C200.822 74.1798 200.477 74.4336 200.079 74.5183C199.038 74.7427 197.963 74.8347 196.863 74.8126C195.947 74.7942 195.068 75.1659 194.449 75.8392L190.597 80.0376L183.319 74.6507L187.249 69.4846L185.357 53.5448L204.712 52.8936Z" fill="#F5E0CD"/>
<path d="M190.884 55.3667C190.884 55.3667 191.432 61.9163 193.051 63.5169C194.67 65.1175 192.558 64.389 191.322 64.5361C190.086 64.6833 188.411 66.0632 190.884 68.1752L187.245 69.4851C187.245 69.4851 184.114 64.2455 184.114 57.1145L190.884 55.3667Z" fill="#1A1A1A"/>
<path d="M206.386 53.3281C206.386 53.3281 207.843 58.715 202.239 57.5486C202.239 57.5486 199.181 60.0948 195.906 58.4206C195.906 58.4206 193.724 60.3855 192.194 59.5135C192.194 59.5135 188.338 62.7551 186.008 59.0609C186.008 59.0609 182.296 58.6414 183.315 55.5837C183.315 55.5837 180.478 54.5645 182.152 51.9446C182.152 51.9446 181.269 47.1428 186.369 49.0341C186.369 49.0341 186.811 46.5614 190.159 47.0692C190.159 47.0692 193.724 42.2748 197.801 46.9993C197.801 46.9993 202.46 43.2094 204.277 47.9413C204.277 47.9449 209.3 48.9495 206.386 53.3281Z" fill="black"/>
<path d="M186.564 70.1544C187.543 70.9602 191.969 74.7538 194.243 79.1619C194.376 79.4232 194.332 79.7396 194.129 79.953L191.76 82.4404C191.76 82.4404 188.559 75.4529 183.319 71.9611L186.159 70.1323C186.285 70.0514 186.446 70.0587 186.564 70.1544Z" fill="white"/>
<path d="M193.673 89.502C196.664 96.2723 198.431 103.447 198.696 111.116C197.463 112.201 195.881 112.867 194.037 113.228C193.305 112.024 192.503 110.707 191.782 109.081C192.819 106.218 192.683 99.2012 191.782 89.502H193.673Z" fill="#C1272D"/>
<path d="M222.318 63.7007L223.525 61.7689C224.453 60.7092 225.122 59.5869 225.487 58.38C225.575 58.0857 225.549 57.7692 225.406 57.4969C224.868 56.474 223.941 55.2561 223.087 54.4907L222.848 54.0087C222.672 53.6518 222.212 53.5414 221.892 53.7806L220.541 54.7814L219.875 53.891C219.636 53.5709 219.191 53.4936 218.856 53.7107L218.672 53.8321C218.26 54.1007 218.039 54.5827 218.105 55.0721L218.094 56.7169C218.094 56.9708 218.116 57.221 218.164 57.4675L218.65 60.0174L218.425 62.262L222.318 63.7007Z" fill="#F5E0CD"/>
<path d="M149.861 92.2945L148.716 93.5529C148.507 93.7811 148.404 94.0865 148.422 94.3956L148.529 95.9226C148.554 96.3053 148.319 96.6585 147.955 96.7799L146.913 97.1295L145.971 98.1266C145.846 98.2591 145.662 98.318 145.482 98.2848C143.811 97.9574 142.454 97.2546 141.379 96.2022C141.173 95.9999 141.111 95.6944 141.228 95.4295L142.229 93.1629C142.369 92.8502 142.597 92.5815 142.888 92.3976L144.853 91.1539L145.839 90.0059L149.861 92.2945Z" fill="#F5E0CD"/>
<path d="M149.165 93.0598L145.118 90.8521L144.853 91.1575L148.717 93.5528L149.165 93.0598Z" fill="white"/>
<path d="M222.539 63.557L222.782 62.9645L218.51 61.4302L218.282 61.9784L222.539 63.557Z" fill="white"/>
<path d="M180.508 72.2666C173.005 72.6714 165.848 73.33 159.082 74.2756C158.666 74.3345 158.287 74.5295 157.993 74.8276C153.728 79.1878 149.195 84.5232 144.478 90.5025L149.758 93.3835C153.761 88.9276 157.636 84.8875 161.194 81.8776C161.525 81.5979 161.963 81.4765 162.39 81.5427L178.716 84.1184L180.508 72.2666Z" fill="#043142"/>
<path d="M194.118 91.7795C192.223 98.1525 190.104 103.863 187.514 108.194C186.424 110.015 184.647 111.322 182.579 111.796C176.427 113.217 170.437 114.17 164.638 114.56C162.713 114.688 160.885 113.721 159.913 112.054L153.172 100.452C157.757 99.5139 162.125 98.2629 166.231 96.6439C168.108 95.9043 169.653 94.506 170.566 92.7067C173.101 87.7062 175.912 80.888 178.819 73.4737C179.86 70.8171 183.223 69.9929 185.368 71.8768C188.124 74.2943 191.384 77.8818 193.611 83.0258C194.806 85.7929 194.979 88.8947 194.118 91.7795Z" fill="#042D3D"/>
<path d="M186.549 80.9321C192.087 80.6231 200.977 81.1235 206.091 80.3177C206.504 80.2514 206.864 80.0123 207.081 79.6553L217.995 61.8721L223.091 63.7634L212.67 85.8333C212.321 86.5729 211.67 87.1248 210.882 87.3456C204.248 89.2148 193.864 91.0767 186.553 92.3167V80.9321H186.549Z" fill="#042D3D"/>
<path d="M182.439 92.6696L194.369 90.9438L193.728 93.078C191.484 93.1148 184.964 93.181 182.439 92.6696Z" fill="#032532"/>
<path d="M164.285 118.897C165.01 119.67 166.577 120.616 168.038 121.333L164.108 119.508L164.285 118.897Z" fill="#0D0E13"/>
<path d="M146.913 97.1331C146.913 97.1331 145.747 96.2978 146.516 95.7496C147.289 95.2013 143.388 93.3947 142.961 93.5161C142.961 93.5161 145.364 94.2704 146.317 95.4074C146.394 95.4994 146.387 95.6282 146.306 95.7165C146.188 95.8416 146.049 96.0587 146.107 96.342C146.214 96.8056 146.913 97.1331 146.913 97.1331Z" fill="#CEA28B"/>
<g opacity="0.6">
<path opacity="0.5" d="M65.6763 320.533L0 396H85.487L140.309 320.533H65.6763Z" fill="url(#paint6_linear_207_10918)"/>
<path opacity="0.5" d="M171.397 320.533L116.686 396H202.173L246.03 320.533H171.397Z" fill="url(#paint7_linear_207_10918)"/>
<path opacity="0.5" d="M277.118 320.533L233.313 396H318.796L351.75 320.533H277.118Z" fill="url(#paint8_linear_207_10918)"/>
<path opacity="0.5" d="M382.839 320.533L349.937 396H435.423L457.471 320.533H382.839Z" fill="url(#paint9_linear_207_10918)"/>
<path opacity="0.5" d="M488.56 320.533L466.563 396H552.05L563.192 320.533H488.56Z" fill="url(#paint10_linear_207_10918)"/>
</g>
<path d="M140.308 218.105H65.6758V320.533H140.308V218.105Z" fill="#CC3D46"/>
<path d="M246.029 180.787H171.397V320.533H246.029V180.787Z" fill="#CC3D46"/>
<path d="M351.75 143.473H277.121V320.533H351.75V143.473Z" fill="#CC3D46"/>
<path d="M457.474 106.155H382.842V320.533H457.474V106.155Z" fill="#CC3D46"/>
<path d="M563.195 68.3584H488.562V320.533H563.195V68.3584Z" fill="#CC3D46"/>
<path d="M140.312 218.105H87.8677V320.533H140.312V218.105Z" fill="#DD4952"/>
<path d="M246.034 180.787H193.589V320.533H246.034V180.787Z" fill="#DD4952"/>
<path d="M351.754 143.473H299.31V320.533H351.754V143.473Z" fill="#DD4952"/>
<path d="M457.479 106.155H405.03V320.533H457.479V106.155Z" fill="#DD4952"/>
<path d="M563.198 68.3584H510.75V320.533H563.198V68.3584Z" fill="#DD4952"/>
</g>
<defs>
<radialGradient id="paint0_radial_207_10918" cx="0" cy="0" r="1" gradientUnits="userSpaceOnUse" gradientTransform="translate(122.897 148.64) scale(9.78702)">
<stop stop-color="white"/>
<stop offset="0.8587" stop-color="white"/>
<stop offset="1" stop-color="white"/>
</radialGradient>
<radialGradient id="paint1_radial_207_10918" cx="0" cy="0" r="1" gradientUnits="userSpaceOnUse" gradientTransform="translate(192.207 161.951) scale(9.78702 9.78701)">
<stop stop-color="white"/>
<stop offset="0.8587" stop-color="white"/>
<stop offset="1" stop-color="white"/>
</radialGradient>
<radialGradient id="paint2_radial_207_10918" cx="0" cy="0" r="1" gradientUnits="userSpaceOnUse" gradientTransform="translate(249.269 114.18) scale(9.787 9.78702)">
<stop stop-color="white"/>
<stop offset="0.8587" stop-color="white"/>
<stop offset="1" stop-color="white"/>
</radialGradient>
<radialGradient id="paint3_radial_207_10918" cx="0" cy="0" r="1" gradientUnits="userSpaceOnUse" gradientTransform="translate(320.14 125.954) scale(9.78702)">
<stop stop-color="white"/>
<stop offset="0.8587" stop-color="white"/>
<stop offset="1" stop-color="white"/>
</radialGradient>
<radialGradient id="paint4_radial_207_10918" cx="0" cy="0" r="1" gradientUnits="userSpaceOnUse" gradientTransform="translate(360.97 77.3877) scale(9.78702 9.78701)">
<stop stop-color="white"/>
<stop offset="0.8587" stop-color="white"/>
<stop offset="1" stop-color="white"/>
</radialGradient>
<radialGradient id="paint5_radial_207_10918" cx="0" cy="0" r="1" gradientUnits="userSpaceOnUse" gradientTransform="translate(439.988 77.9614) scale(9.787 9.78701)">
<stop stop-color="white"/>
<stop offset="0.8587" stop-color="white"/>
<stop offset="1" stop-color="white"/>
</radialGradient>
<linearGradient id="paint6_linear_207_10918" x1="67.9868" y1="410.296" x2="70.3543" y2="314.756" gradientUnits="userSpaceOnUse">
<stop offset="0.2905" stop-color="white"/>
<stop offset="0.3994" stop-color="#CFCFCF"/>
<stop offset="0.6126" stop-color="#787878"/>
<stop offset="0.7867" stop-color="#373737"/>
<stop offset="0.9127" stop-color="#0F0F0F"/>
<stop offset="0.9779"/>
</linearGradient>
<linearGradient id="paint7_linear_207_10918" x1="179.198" y1="410.117" x2="181.557" y2="314.905" gradientUnits="userSpaceOnUse">
<stop offset="0.2905" stop-color="white"/>
<stop offset="0.3994" stop-color="#CFCFCF"/>
<stop offset="0.6126" stop-color="#787878"/>
<stop offset="0.7867" stop-color="#373737"/>
<stop offset="0.9127" stop-color="#0F0F0F"/>
<stop offset="0.9779"/>
</linearGradient>
<linearGradient id="paint8_linear_207_10918" x1="290.378" y1="409.939" x2="292.729" y2="315.054" gradientUnits="userSpaceOnUse">
<stop offset="0.2905" stop-color="white"/>
<stop offset="0.3994" stop-color="#CFCFCF"/>
<stop offset="0.6126" stop-color="#787878"/>
<stop offset="0.7867" stop-color="#373737"/>
<stop offset="0.9127" stop-color="#0F0F0F"/>
<stop offset="0.9779"/>
</linearGradient>
<linearGradient id="paint9_linear_207_10918" x1="401.559" y1="409.761" x2="403.902" y2="315.203" gradientUnits="userSpaceOnUse">
<stop offset="0.2905" stop-color="white"/>
<stop offset="0.3994" stop-color="#CFCFCF"/>
<stop offset="0.6126" stop-color="#787878"/>
<stop offset="0.7867" stop-color="#373737"/>
<stop offset="0.9127" stop-color="#0F0F0F"/>
<stop offset="0.9779"/>
</linearGradient>
<linearGradient id="paint10_linear_207_10918" x1="512.74" y1="409.583" x2="515.075" y2="315.352" gradientUnits="userSpaceOnUse">
<stop offset="0.2905" stop-color="white"/>
<stop offset="0.3994" stop-color="#CFCFCF"/>
<stop offset="0.6126" stop-color="#787878"/>
<stop offset="0.7867" stop-color="#373737"/>
<stop offset="0.9127" stop-color="#0F0F0F"/>
<stop offset="0.9779"/>
</linearGradient>
<clipPath id="clip0_207_10918">
<rect width="563.196" height="418.402" fill="white"/>
</clipPath>
</defs>
</svg>
