<svg width="146" height="98" viewBox="0 0 146 98" fill="none" xmlns="http://www.w3.org/2000/svg">
<path d="M93.6075 21.2825C93.6047 21.1306 93.6047 20.9759 93.6158 20.824C93.6489 20.3986 93.892 19.9898 94.2179 19.7191C94.2594 19.686 94.3036 19.6528 94.3478 19.6224C94.392 19.592 94.4389 19.5644 94.4859 19.5396C94.5328 19.5147 94.5825 19.4926 94.6323 19.4705C94.682 19.4512 94.7345 19.4318 94.7842 19.418C94.8367 19.4042 94.8891 19.3904 94.9416 19.3821C94.9941 19.3711 95.0494 19.3655 95.1018 19.36C95.1543 19.3545 95.2096 19.3545 95.2648 19.3545C95.3201 19.3545 95.3725 19.36 95.425 19.3655C95.9526 19.4318 96.3034 19.7053 96.6293 20.1058C96.7288 20.382 96.8337 20.6583 96.9 20.9455C96.7868 21.5118 96.6211 21.9979 96.1073 22.3239C95.7233 22.5697 95.2399 22.6111 94.8063 22.4951C94.5024 22.415 94.2235 22.2244 93.9831 22.0311C93.8478 21.7907 93.729 21.5339 93.6075 21.2825Z" fill="#9F688C"/>
<path d="M65.9248 36.7869C66.0049 36.5162 66.1264 36.2511 66.3198 36.0411C66.3585 35.9997 66.3971 35.961 66.4386 35.9224C66.48 35.8837 66.5242 35.8505 66.5684 35.8174C66.6126 35.7842 66.6596 35.7539 66.7093 35.7235C66.7562 35.6959 66.8059 35.6682 66.8584 35.6461C66.9081 35.6213 66.9606 35.6019 67.0131 35.5826C67.0656 35.5633 67.1208 35.5495 67.1733 35.5356C67.2286 35.5218 67.2838 35.5135 67.3391 35.5053C67.3943 35.497 67.4495 35.4942 67.5048 35.4915C68.1125 35.4749 68.5268 35.7428 68.9494 36.1516L69.2698 36.9029C69.3251 37.4139 69.2533 37.8587 68.919 38.2702C68.8831 38.3117 68.8472 38.3531 68.8085 38.3918C68.7699 38.4304 68.7284 38.4663 68.687 38.5022C68.6456 38.5382 68.6014 38.5713 68.5544 38.6017C68.5075 38.6321 68.4605 38.6597 68.4135 38.6873C68.3638 38.7122 68.3141 38.737 68.2644 38.7591C68.2147 38.7812 68.1622 38.7978 68.1097 38.8144C68.0572 38.8309 68.0047 38.8448 67.9495 38.8558C67.8943 38.8669 67.8418 38.8751 67.7865 38.8807C67.7285 38.8862 67.6705 38.889 67.6125 38.8917C67.5545 38.8917 67.4965 38.889 67.4385 38.8834C67.3805 38.8779 67.3225 38.8696 67.2672 38.8586C67.212 38.8475 67.154 38.8337 67.0987 38.8144C67.0435 38.7978 66.9883 38.7757 66.9358 38.7536C66.8833 38.7315 66.8308 38.7039 66.7783 38.6763C66.7286 38.6486 66.6789 38.6183 66.6292 38.5851C66.5822 38.552 66.5353 38.5161 66.4911 38.4774C66.2342 38.2536 66.0629 37.9553 65.9607 37.6322C65.9303 37.3532 65.9331 37.0687 65.9248 36.7869Z" fill="#9F688C"/>
<path d="M17.6829 57.7848C17.7685 58.3317 17.7188 58.9339 17.3873 59.4007C17.1498 59.7349 16.7797 59.9255 16.3819 59.9918C16.3184 60.0028 16.2548 60.0084 16.1913 60.0139C16.1278 60.0194 16.0642 60.0194 16.0007 60.0166C15.9372 60.0139 15.8736 60.0084 15.8101 60.0001C15.7466 59.9918 15.6831 59.9807 15.6223 59.9642C15.5615 59.9504 15.498 59.931 15.44 59.9089C15.3792 59.8868 15.3212 59.8647 15.2632 59.8371C15.2052 59.8095 15.15 59.7791 15.0947 59.746C15.0395 59.7128 14.987 59.6769 14.9373 59.6382C14.5671 59.3648 14.2799 58.956 14.2219 58.4919C14.1638 58.0417 14.3323 57.6191 14.6086 57.271C14.9096 56.8871 15.3046 56.644 15.7935 56.5888C16.3957 56.5197 16.7962 56.7296 17.252 57.086L17.6829 57.7848Z" fill="#9F688C"/>
<path d="M49.9846 37.7259C49.8492 37.2287 49.8188 36.7951 50.0398 36.3145C50.0647 36.262 50.0923 36.2095 50.1199 36.1598C50.1503 36.1101 50.1807 36.0603 50.2166 36.0161C50.2497 35.9692 50.2884 35.925 50.3271 35.8808C50.3658 35.8366 50.4072 35.7979 50.4486 35.7565C50.4928 35.7178 50.537 35.6819 50.584 35.646C50.6309 35.6129 50.6779 35.5797 50.7276 35.5493C50.7773 35.5189 50.8298 35.4913 50.8823 35.4692C50.9348 35.4444 50.9873 35.4223 51.0425 35.4029C51.1005 35.3808 51.1557 35.3643 51.2165 35.3505C51.2745 35.3366 51.3353 35.3228 51.3933 35.3145C51.4541 35.3063 51.5121 35.3007 51.5728 35.298C51.6336 35.2952 51.6944 35.2952 51.7551 35.298C51.8159 35.3007 51.8767 35.309 51.9347 35.3173C51.9955 35.3256 52.0535 35.3394 52.1115 35.356C52.1695 35.3725 52.2275 35.3891 52.2827 35.4112C52.338 35.4333 52.396 35.4582 52.4485 35.483C53.023 35.7758 53.2412 36.2288 53.429 36.8089C53.4042 37.0906 53.3876 37.3696 53.3103 37.6431C53.023 38.1182 52.6722 38.5104 52.117 38.6651C51.5701 38.817 51.095 38.6789 50.6199 38.4082L50.5536 38.3695C50.5398 38.3612 50.5287 38.353 50.5149 38.3474C50.3216 38.1596 50.1558 37.9331 49.9846 37.7259Z" fill="#9F688C"/>
<path d="M65.9248 36.7866C65.9331 37.0684 65.9304 37.3529 65.9525 37.6319L53.3071 37.6457C53.3845 37.3722 53.401 37.0932 53.4259 36.8115L65.9248 36.7866Z" fill="#E37479"/>
<path d="M19.8896 73.6482C20.478 73.6371 21.5193 73.4852 22.0193 73.8305C22.232 74.104 22.3176 74.3746 22.3729 74.7089C22.4916 75.4685 22.4171 76.3248 22.4143 77.0954L22.3922 81.5785C21.5608 81.5757 20.7238 81.5923 19.8952 81.5702C19.9642 78.9378 19.8924 76.2833 19.8896 73.6482Z" fill="#A8A8A8"/>
<path d="M68.9468 36.1515C72.0322 34.1019 75.2998 32.2789 78.4846 30.384C83.5505 27.3925 88.5943 24.3596 93.6077 21.2798C93.7292 21.5311 93.848 21.788 93.9861 22.0339C88.4672 25.3899 82.9318 28.7129 77.377 32.0054L71.9079 35.2372C71.0737 35.7344 69.9854 36.2619 69.2644 36.9L68.9468 36.1515Z" fill="#E37479"/>
<path d="M96.6353 20.1085C100.961 19.5533 105.3 18.6417 109.593 17.8656C114.338 17.0093 119.111 16.2552 123.837 15.2939C123.951 15.5315 124.009 15.7055 124.009 15.9707L123.893 16.1696C121.998 16.5977 120.048 16.8684 118.136 17.2247L102.01 20.0836C100.314 20.3874 98.5854 20.5753 96.9032 20.9482C96.8397 20.6609 96.7347 20.3847 96.6353 20.1085Z" fill="#E37479"/>
<path d="M22.3926 81.5781L22.4092 91.5828C21.7297 91.5911 21.0529 91.5883 20.3734 91.5828C20.1773 91.5883 20.0558 91.5911 19.8845 91.4944C19.6856 90.6823 19.8376 89.315 19.8403 88.4394L19.8486 81.5836L19.8956 81.5698C20.7242 81.5919 21.5612 81.5781 22.3926 81.5781Z" fill="#E16D3D"/>
<path d="M35.2312 65.7982C35.9632 65.7844 36.8913 65.6407 37.4769 66.1573C37.789 66.4307 37.7918 67.229 37.7973 67.6212C37.8442 70.8392 37.789 74.0682 37.7807 77.2889H35.2119C35.1677 73.4688 35.1456 69.6183 35.2312 65.7982Z" fill="#A8A8A8"/>
<path d="M17.2495 57.086L39.1703 44.1451C42.7777 42.0182 46.4238 39.9383 49.9816 37.7285C50.1528 37.9357 50.3185 38.1594 50.5091 38.3528C47.9071 39.8112 45.3935 41.4464 42.8192 42.9574L26.7929 52.3544C24.7572 53.5835 22.7104 54.7906 20.6553 55.9839C19.6941 56.5474 18.5395 57.0915 17.6832 57.7848L17.2495 57.086Z" fill="#E37479"/>
<path d="M51.468 58.7215C52.073 58.7188 52.8381 58.6138 53.3049 59.0778C53.5148 59.2878 53.5314 59.6441 53.5563 59.9231C53.675 61.2931 53.5894 62.7212 53.5977 64.0995C53.6308 66.8396 53.6446 69.5797 53.6364 72.3198L50.9128 72.3033C50.8963 70.6653 50.783 59.1331 50.9846 58.8072L51.468 58.7215Z" fill="#A8A8A8"/>
<path d="M37.7809 77.2889L37.7643 91.5943L36.397 91.5833C36.0518 91.5032 35.5601 91.5695 35.1982 91.5722L35.2121 77.2861L37.7809 77.2889Z" fill="#F89043"/>
<path d="M111.123 24.2358C112.233 24.1198 113.239 24.2773 114.142 24.9789C114.191 25.0175 114.238 25.0562 114.285 25.0976C114.332 25.1391 114.379 25.1805 114.423 25.2219C114.468 25.2634 114.512 25.3076 114.556 25.3545C114.598 25.3987 114.639 25.4457 114.68 25.4926C114.722 25.5396 114.76 25.5866 114.799 25.6363C114.838 25.686 114.874 25.7357 114.91 25.7854C114.946 25.8352 114.979 25.8876 115.012 25.9401C115.045 25.9926 115.078 26.0451 115.109 26.1003C115.139 26.1556 115.167 26.208 115.197 26.2633C115.225 26.3185 115.252 26.3738 115.277 26.4318C115.302 26.4898 115.327 26.545 115.349 26.603C115.371 26.661 115.393 26.7191 115.412 26.7771C115.432 26.8351 115.448 26.8958 115.465 26.9538C115.481 27.0146 115.495 27.0726 115.509 27.1334C115.523 27.1942 115.534 27.2549 115.545 27.3157C115.556 27.3765 115.564 27.4372 115.573 27.5008C115.581 27.5643 115.586 27.6278 115.592 27.6913C115.597 27.7549 115.6 27.8184 115.6 27.8819C115.603 27.9455 115.603 28.009 115.6 28.0725C115.597 28.1361 115.595 28.1996 115.589 28.2631C115.584 28.3267 115.578 28.3902 115.57 28.4537C115.562 28.5172 115.553 28.5808 115.539 28.6443C115.528 28.7078 115.517 28.7714 115.504 28.8321C115.49 28.8957 115.473 28.9564 115.457 29.0172C115.44 29.078 115.421 29.1415 115.401 29.2023C115.382 29.263 115.36 29.3238 115.338 29.3818C115.316 29.4426 115.291 29.5006 115.263 29.5586C115.236 29.6166 115.211 29.6746 115.18 29.7326C115.153 29.7906 115.122 29.8459 115.089 29.9011C115.059 29.9563 115.026 30.0116 114.99 30.0668C114.957 30.1221 114.921 30.1746 114.885 30.227C114.849 30.2795 114.81 30.332 114.772 30.3817C114.158 31.1579 113.252 31.5667 112.283 31.6717C111.523 31.854 110.487 31.6109 109.819 31.2242C108.946 30.7187 108.316 29.8403 108.065 28.868C108.051 28.8073 108.037 28.7493 108.023 28.6885C108.012 28.6277 108.001 28.567 107.993 28.5062C107.985 28.4454 107.977 28.3847 107.971 28.3239C107.965 28.2631 107.96 28.2024 107.957 28.1388C107.954 28.0781 107.952 28.0145 107.952 27.9538C107.952 27.893 107.954 27.8295 107.957 27.7687C107.96 27.7079 107.965 27.6444 107.971 27.5836C107.977 27.5229 107.985 27.4621 107.996 27.4013C108.004 27.3405 108.015 27.2798 108.029 27.219C108.04 27.1582 108.054 27.0975 108.07 27.0395C108.087 26.9787 108.104 26.9207 108.12 26.8627C108.139 26.8047 108.159 26.7467 108.178 26.6887C108.2 26.6307 108.222 26.5727 108.247 26.5174C108.272 26.4594 108.297 26.4042 108.325 26.3489C108.352 26.2937 108.38 26.2384 108.407 26.1859C108.438 26.1307 108.468 26.0782 108.501 26.0257C109.109 25.012 109.993 24.5093 111.123 24.2358Z" fill="#BBEEE4"/>
<path d="M14.9787 64.8394C15.9095 64.7537 16.7796 64.8394 17.6 65.3172C17.6552 65.3504 17.7077 65.3835 17.763 65.4194C17.8155 65.4553 17.8679 65.4912 17.9204 65.5299C17.9729 65.5686 18.0226 65.6072 18.0723 65.6459C18.1221 65.6873 18.169 65.7288 18.2187 65.7702C18.2657 65.8116 18.3126 65.8558 18.3568 65.9028C18.401 65.947 18.4452 65.994 18.4894 66.0409C18.5336 66.0879 18.5751 66.1348 18.6165 66.1845C18.6579 66.2343 18.6966 66.284 18.7353 66.3337C18.7739 66.3834 18.8098 66.4359 18.8458 66.4884C18.8817 66.5409 18.9148 66.5961 18.948 66.6486C18.9811 66.7038 19.0142 66.7591 19.0446 66.8143C19.075 66.8696 19.1054 66.9276 19.133 66.9856C19.1606 67.0436 19.1883 67.1016 19.2131 67.1596C19.238 67.2176 19.2601 67.2784 19.2822 67.3364C19.3043 67.3971 19.3236 67.4579 19.3429 67.5187C19.3623 67.5795 19.3789 67.6402 19.3954 67.7038C19.412 67.7673 19.4258 67.8308 19.4396 67.8943C19.4534 67.9579 19.4645 68.0214 19.4755 68.0849C19.4866 68.1485 19.4949 68.212 19.5004 68.2783C19.5059 68.3418 19.5114 68.4081 19.517 68.4716C19.5197 68.5352 19.5225 68.6015 19.5225 68.665C19.5225 68.7285 19.5225 68.7948 19.5197 68.8584C19.517 68.9219 19.5142 68.9882 19.5059 69.0517C19.5004 69.1152 19.4921 69.1815 19.4838 69.2451C19.4755 69.3086 19.4645 69.3721 19.4507 69.4356C19.4396 69.4992 19.4258 69.5627 19.4092 69.6262C19.3927 69.6898 19.3761 69.7505 19.3595 69.8141C19.3402 69.8776 19.3208 69.9384 19.2988 69.9991C19.2767 70.0599 19.2546 70.1207 19.2297 70.1814C19.2048 70.2422 19.18 70.3002 19.1524 70.361C19.1247 70.419 19.0971 70.477 19.0667 70.535C19.0363 70.593 19.006 70.6483 18.9728 70.7063C18.3955 71.6675 17.5061 72.173 16.4426 72.4382C15.4344 72.5404 14.487 72.4603 13.5948 71.9437C12.7081 71.43 12.1005 70.5433 11.8546 69.5544C11.8381 69.4937 11.8242 69.4301 11.8132 69.3694C11.8021 69.3058 11.7911 69.2451 11.78 69.1815C11.7718 69.118 11.7635 69.0545 11.758 68.9937C11.7524 68.9302 11.7469 68.8666 11.7441 68.8031C11.7414 68.7396 11.7386 68.676 11.7414 68.6125C11.7414 68.549 11.7441 68.4855 11.7469 68.4219C11.7497 68.3584 11.7552 68.2949 11.7607 68.2313C11.7662 68.1678 11.7745 68.1043 11.7856 68.0435C11.7966 67.98 11.8077 67.9192 11.8187 67.8557C11.8325 67.7921 11.8463 67.7314 11.8629 67.6706C11.8795 67.6098 11.8961 67.5491 11.9154 67.4883C11.9347 67.4275 11.9541 67.3668 11.9762 67.3088C11.9983 67.248 12.0231 67.19 12.048 67.132C12.0728 67.074 12.1005 67.016 12.1281 66.958C12.1557 66.9 12.1861 66.8447 12.2165 66.7895C12.2469 66.7342 12.28 66.679 12.3132 66.6265C12.9264 65.6321 13.8655 65.099 14.9787 64.8394Z" fill="#33ADB4"/>
<path d="M123.837 15.2968C123.862 15.2747 123.889 15.2553 123.914 15.2332C124.105 15.0648 124.132 14.5758 124.215 14.319C124.735 12.681 126.033 11.6065 127.787 11.5982C128.82 11.5927 129.881 12.0457 130.604 12.7804C130.651 12.8274 130.695 12.8771 130.74 12.9268C130.784 12.9765 130.825 13.0263 130.867 13.0787C130.908 13.1312 130.95 13.1837 130.988 13.2362C131.027 13.2887 131.063 13.3439 131.101 13.3991C131.137 13.4544 131.173 13.5124 131.206 13.5676C131.24 13.6256 131.273 13.6837 131.303 13.7417C131.334 13.7997 131.361 13.8604 131.389 13.9212C131.416 13.982 131.441 14.0427 131.466 14.1035C131.491 14.1643 131.513 14.2278 131.535 14.2913C131.557 14.3549 131.577 14.4184 131.593 14.4819C131.612 14.5455 131.626 14.609 131.643 14.6753C131.659 14.7416 131.671 14.8051 131.684 14.8714C131.695 14.9377 131.706 15.0012 131.715 15.0675C131.723 15.1338 131.731 15.2001 131.737 15.2664C131.742 15.3327 131.745 15.399 131.748 15.4653C131.751 15.5316 131.751 15.5979 131.748 15.6642C131.745 15.7277 131.742 15.7884 131.737 15.852C131.731 15.9155 131.726 15.9763 131.717 16.037C131.709 16.0978 131.701 16.1613 131.69 16.2221C131.679 16.2829 131.668 16.3437 131.654 16.4044C131.64 16.4652 131.626 16.526 131.61 16.5867C131.593 16.6475 131.574 16.7055 131.554 16.7663C131.535 16.8243 131.513 16.885 131.491 16.943C131.469 17.0011 131.444 17.0591 131.419 17.1171C131.394 17.1751 131.367 17.2303 131.339 17.2856C131.311 17.3408 131.281 17.396 131.251 17.4513C131.22 17.5065 131.187 17.559 131.154 17.6115C131.121 17.664 131.088 17.7165 131.049 17.7662C131.013 17.8159 130.974 17.8684 130.936 17.9153C130.897 17.9651 130.858 18.012 130.817 18.059C130.776 18.1059 130.734 18.1529 130.69 18.1971C130.646 18.2413 130.602 18.2855 130.557 18.3297C130.51 18.3739 130.463 18.4181 130.414 18.4595C130.367 18.5009 130.317 18.5424 130.265 18.581C130.215 18.6197 130.162 18.6584 130.11 18.697C130.057 18.733 130.002 18.7689 129.947 18.8048C129.892 18.8379 129.836 18.8711 129.781 18.9042C129.726 18.9346 129.668 18.965 129.61 18.9954C129.552 19.023 129.494 19.0506 129.433 19.0782C129.375 19.1031 129.314 19.1279 129.254 19.15C129.193 19.1721 129.132 19.1942 129.071 19.2136C129.011 19.2329 128.947 19.2522 128.886 19.2688C128.823 19.2854 128.762 19.2992 128.698 19.313C128.635 19.3268 128.571 19.3379 128.508 19.3489C128.444 19.36 128.381 19.3683 128.314 19.3738C128.251 19.3793 128.187 19.3848 128.121 19.3904C128.058 19.3931 127.994 19.3959 127.928 19.3959C127.864 19.3959 127.801 19.3959 127.734 19.3931C126.754 19.36 125.801 19.0009 125.13 18.2717C124.657 17.7579 124.177 16.3851 123.887 16.1724L124.003 15.9735C124.011 15.7056 123.95 15.5343 123.837 15.2968Z" fill="#BBEEE4"/>
<path d="M95.1579 31.022C95.9921 30.9253 96.9616 31.2485 97.6384 31.7264C97.6909 31.7623 97.7406 31.8009 97.7903 31.8396C97.84 31.8783 97.8897 31.9197 97.9367 31.9612C97.9836 32.0026 98.0334 32.0468 98.0776 32.091C98.1218 32.1352 98.1687 32.1794 98.2101 32.2263C98.2543 32.2733 98.2958 32.3202 98.3372 32.3672C98.3786 32.4169 98.4173 32.4639 98.456 32.5164C98.4947 32.5661 98.5333 32.6186 98.5692 32.671C98.6051 32.7235 98.641 32.776 98.6742 32.8312C98.7073 32.8865 98.7405 32.939 98.7709 32.9942C98.8013 33.0495 98.8316 33.1047 98.8593 33.1627C98.8869 33.2207 98.9145 33.276 98.9394 33.3367C98.9642 33.3947 98.9891 33.4527 99.0112 33.5135C99.0333 33.5743 99.0554 33.6323 99.0747 33.6931C99.094 33.7538 99.1134 33.8146 99.13 33.8754C99.1465 33.9361 99.1603 33.9997 99.1742 34.0604C99.188 34.124 99.199 34.1847 99.2101 34.2483C99.2211 34.3118 99.2322 34.3781 99.2404 34.4416C99.2487 34.5079 99.2543 34.5714 99.2598 34.6377C99.2653 34.704 99.2681 34.7675 99.2681 34.8338C99.2681 34.9001 99.2708 34.9637 99.2681 35.03C99.2653 35.0963 99.2625 35.1598 99.257 35.2261C99.2515 35.2924 99.2432 35.3559 99.2377 35.4222C99.2294 35.4885 99.2183 35.552 99.2073 35.6155C99.1962 35.6791 99.1824 35.7454 99.1686 35.8089C99.1548 35.8724 99.1382 35.936 99.1189 35.9995C99.0996 36.063 99.0802 36.1238 99.0609 36.1873C99.0388 36.2481 99.0167 36.3116 98.9918 36.3724C98.967 36.4332 98.9421 36.4939 98.9145 36.5519C98.8869 36.6127 98.8593 36.6707 98.8289 36.7287C98.7985 36.7867 98.7653 36.8447 98.7322 36.9C98.6991 36.9552 98.6659 37.0132 98.63 37.0685C98.5941 37.1237 98.5554 37.1762 98.5167 37.2314C97.8317 38.1706 96.9395 38.5987 95.8153 38.77C94.8182 38.7948 93.937 38.6871 93.1028 38.0877C93.0504 38.049 92.9979 38.0104 92.9482 37.9689C92.8984 37.9275 92.8487 37.8861 92.799 37.8419C92.7493 37.7977 92.7023 37.7535 92.6554 37.7093C92.6084 37.6651 92.5642 37.6181 92.52 37.5684C92.4758 37.5215 92.4316 37.4717 92.3902 37.422C92.3488 37.3723 92.3073 37.3198 92.2687 37.2701C92.23 37.2176 92.1913 37.1651 92.1554 37.1127C92.1195 37.0602 92.0836 37.0049 92.0504 36.9497C92.0173 36.8944 91.9842 36.8392 91.951 36.7812C91.9206 36.7232 91.8902 36.6652 91.8626 36.6072C91.835 36.5492 91.8074 36.4884 91.7825 36.4304C91.7576 36.3696 91.7328 36.3089 91.7107 36.2481C91.6886 36.1873 91.6665 36.1265 91.6472 36.063C91.6278 35.9995 91.6085 35.9387 91.5947 35.8752C91.5781 35.8117 91.5643 35.7481 91.5505 35.6846C91.5367 35.6211 91.5256 35.5575 91.5146 35.4912C91.5063 35.4277 91.498 35.3669 91.4925 35.3034C91.487 35.2399 91.4814 35.1791 91.4787 35.1156C91.4759 35.0521 91.4731 34.9913 91.4731 34.9278C91.4731 34.8642 91.4759 34.8007 91.4787 34.7399C91.4814 34.6764 91.487 34.6156 91.4925 34.5521C91.498 34.4886 91.5063 34.4278 91.5146 34.3643C91.5229 34.3035 91.5339 34.24 91.5477 34.1792C91.5588 34.1184 91.5753 34.0549 91.5892 33.9941C91.6057 33.9334 91.6223 33.8726 91.6389 33.8118C91.6582 33.7511 91.6775 33.6931 91.6996 33.6323C91.7217 33.5743 91.7438 33.5135 91.7687 33.4555C91.7936 33.3975 91.8184 33.3395 91.846 33.2842C91.8737 33.2262 91.9013 33.171 91.9317 33.1158C91.962 33.0605 91.9924 33.0053 92.0256 32.9528C92.0587 32.8975 92.0919 32.8451 92.1278 32.7926C92.1637 32.7401 92.1996 32.6904 92.2355 32.6379C92.9564 31.6628 93.9812 31.185 95.1579 31.022Z" fill="#BBEEE4"/>
<path d="M62.4724 44.7755C63.4032 44.723 64.2789 44.8722 65.0716 45.3887C65.9555 45.9633 66.5328 46.8886 66.7345 47.9189C66.7483 47.9852 66.7593 48.0515 66.7676 48.115C66.7759 48.1813 66.7842 48.2476 66.7925 48.3139C66.798 48.3802 66.8035 48.4465 66.8063 48.5128C66.809 48.5791 66.8118 48.6454 66.8118 48.7117C66.8118 48.778 66.809 48.8442 66.8063 48.9133C66.8035 48.9796 66.798 49.0459 66.7897 49.1122C66.7842 49.1785 66.7731 49.2448 66.7648 49.3111C66.7538 49.3774 66.7427 49.4436 66.7289 49.5072C66.7151 49.5735 66.7013 49.637 66.6847 49.7033C66.6682 49.7668 66.6488 49.8331 66.6295 49.8966C66.6102 49.9602 66.5881 50.0237 66.566 50.0872C66.5439 50.1508 66.519 50.2115 66.4941 50.2751C66.4693 50.3358 66.4417 50.3966 66.4113 50.4574C66.3837 50.5181 66.3533 50.5761 66.3201 50.6369C66.287 50.6949 66.2538 50.7529 66.2207 50.8109C66.1848 50.8689 66.1489 50.9242 66.113 50.9794C65.4556 51.9269 64.5579 52.3964 63.4447 52.587C62.5166 52.6423 61.6354 52.5042 60.8427 51.9932C60.7902 51.9572 60.7377 51.9213 60.6852 51.8854C60.6328 51.8468 60.583 51.8081 60.5333 51.7694C60.4836 51.7307 60.4339 51.6893 60.3869 51.6451C60.34 51.6037 60.293 51.5595 60.2461 51.5153C60.2019 51.4711 60.1577 51.4241 60.1135 51.3772C60.0693 51.3302 60.0278 51.2833 59.9864 51.2335C59.945 51.1838 59.9063 51.1341 59.8676 51.0844C59.829 51.0347 59.7931 50.9822 59.7572 50.9297C59.7212 50.8772 59.6881 50.822 59.6549 50.7695C59.6218 50.7143 59.5887 50.659 59.561 50.6038C59.5306 50.5485 59.5003 50.4905 59.4754 50.4325C59.4478 50.3745 59.4229 50.3165 59.3981 50.2585C59.3732 50.2005 59.3511 50.1397 59.329 50.0817C59.3069 50.0209 59.2876 49.9602 59.2682 49.8994C59.2489 49.8386 59.2323 49.7779 59.2158 49.7143C59.1992 49.6536 59.1854 49.59 59.1743 49.5265C59.1605 49.4602 59.1467 49.3939 59.1384 49.3276C59.1274 49.2613 59.1191 49.195 59.1108 49.1288C59.1025 49.0625 59.097 48.9962 59.0942 48.9271C59.0915 48.8608 59.0887 48.7918 59.0859 48.7255C59.0859 48.6592 59.0859 48.5901 59.0887 48.5238C59.0915 48.4575 59.0942 48.3885 59.1025 48.3222C59.108 48.2559 59.1163 48.1896 59.1246 48.1233C59.1329 48.057 59.1439 47.9907 59.1578 47.9244C59.1716 47.8581 59.1854 47.7919 59.1992 47.7283C59.2158 47.662 59.2323 47.5985 59.2517 47.535C59.271 47.4714 59.2903 47.4079 59.3124 47.3444C59.3345 47.2808 59.3594 47.2173 59.3843 47.1565C59.4091 47.093 59.4367 47.0322 59.4644 46.9715C59.492 46.9107 59.5224 46.8499 59.5527 46.7919C59.5831 46.7339 59.6163 46.6732 59.6522 46.6152C59.6853 46.5571 59.7212 46.4991 59.7599 46.4439C60.4007 45.4771 61.3537 44.9882 62.4724 44.7755Z" fill="#FAC04E"/>
<path d="M30.3613 57.0782C31.3336 56.9981 32.2783 57.1777 33.1014 57.7163C33.1539 57.7495 33.2064 57.7854 33.2561 57.8213C33.3058 57.8572 33.3555 57.8959 33.4053 57.9345C33.455 57.9732 33.5019 58.0146 33.5489 58.0561C33.5959 58.0975 33.6428 58.1389 33.687 58.1831C33.7312 58.2273 33.7754 58.2715 33.8196 58.3185C33.861 58.3654 33.9025 58.4124 33.9439 58.4593C33.9853 58.5063 34.024 58.556 34.0599 58.6057C34.0986 58.6555 34.1345 58.7052 34.1704 58.7577C34.2063 58.8101 34.2394 58.8626 34.2726 58.9151C34.3057 58.9676 34.3361 59.0228 34.3665 59.0781C34.3969 59.1333 34.4245 59.1886 34.4521 59.2438C34.4798 59.299 34.5046 59.3571 34.5295 59.4151C34.5543 59.4731 34.5764 59.5311 34.5985 59.5891C34.6206 59.6471 34.64 59.7079 34.6593 59.7659C34.6786 59.8266 34.6952 59.8846 34.709 59.9454C34.7256 60.0062 34.7394 60.0669 34.7505 60.1277C34.9549 61.1525 34.7836 62.2656 34.2008 63.1413C33.571 64.0887 32.6678 64.5362 31.5794 64.7433C30.5353 64.7765 29.6128 64.7157 28.7206 64.1136C28.6653 64.0749 28.6128 64.0362 28.5576 63.9975C28.5051 63.9561 28.4526 63.9147 28.4002 63.8732C28.3504 63.8318 28.298 63.7876 28.251 63.7407C28.2013 63.6965 28.1543 63.6495 28.1074 63.6026C28.0604 63.5556 28.0162 63.5059 27.972 63.4562C27.9278 63.4064 27.8836 63.3567 27.8422 63.3042C27.8008 63.2518 27.7593 63.1993 27.7207 63.1468C27.682 63.0915 27.6433 63.0391 27.6074 62.9811C27.5715 62.9258 27.5356 62.8678 27.5024 62.8126C27.4693 62.7546 27.4362 62.6966 27.4058 62.6385C27.3754 62.5805 27.345 62.5198 27.3174 62.459C27.2898 62.3982 27.2621 62.3375 27.24 62.2767C27.2152 62.2159 27.1931 62.1524 27.171 62.0889C27.1489 62.0253 27.1295 61.9618 27.1102 61.8983C27.0909 61.8347 27.0743 61.7712 27.0605 61.7049C27.0439 61.6414 27.0329 61.5751 27.0191 61.5088C27.008 61.448 26.9997 61.3845 26.9914 61.3237C26.9832 61.2602 26.9776 61.1994 26.9721 61.1359C26.9666 61.0724 26.9638 61.0116 26.9611 60.9481C26.9583 60.8846 26.9583 60.8238 26.9611 60.7603C26.9611 60.6967 26.9666 60.636 26.9693 60.5724C26.9749 60.5089 26.9804 60.4481 26.9887 60.3846C26.997 60.3211 27.0053 60.2603 27.0163 60.1995C27.0273 60.1388 27.0384 60.0752 27.0522 60.0145C27.066 59.9537 27.0798 59.8929 27.0992 59.8322C27.1157 59.7714 27.1351 59.7106 27.1544 59.6526C27.1737 59.5918 27.1958 59.5338 27.2179 59.4758C27.24 59.4178 27.2649 59.3598 27.2898 59.3018C27.3146 59.2438 27.3422 59.1886 27.3699 59.1306C27.3975 59.0753 27.4279 59.0201 27.4583 58.9648C27.4886 58.9096 27.5218 58.8571 27.5549 58.8046C27.5881 58.7521 27.624 58.6997 27.6599 58.6472C28.3283 57.7025 29.2509 57.2799 30.3613 57.0782Z" fill="#33ADB4"/>
<path d="M46.5621 49.7253C47.4184 49.7115 48.247 49.9048 48.9652 50.3882C49.8298 50.971 50.3933 51.877 50.5756 52.9018C50.5866 52.9681 50.5977 53.0316 50.6087 53.0979C50.617 53.1642 50.6253 53.2305 50.6308 53.2968C50.6363 53.3631 50.6419 53.4294 50.6419 53.4957C50.6446 53.562 50.6446 53.6283 50.6446 53.6946C50.6446 53.7609 50.6419 53.8272 50.6363 53.8935C50.6308 53.9597 50.6253 54.026 50.6198 54.0923C50.6142 54.1586 50.6032 54.2249 50.5921 54.2912C50.5811 54.3575 50.57 54.421 50.5535 54.4873C50.5397 54.5536 50.5231 54.6171 50.5065 54.6807C50.4899 54.7442 50.4706 54.8077 50.4485 54.8713C50.4292 54.9348 50.4071 54.9983 50.3822 55.0591C50.3574 55.1226 50.3325 55.1834 50.3076 55.2442C50.28 55.3049 50.2524 55.3657 50.222 55.4237C50.1916 55.4845 50.1612 55.5425 50.1281 55.6005C50.095 55.6585 50.0618 55.7165 50.0259 55.7717C49.99 55.827 49.9541 55.8822 49.9154 55.9375C49.1972 56.9402 48.2498 57.3407 47.0703 57.5423C46.0014 57.5478 45.0954 57.3904 44.2446 56.6998C44.1949 56.6584 44.1452 56.617 44.0982 56.5728C44.0513 56.5286 44.0043 56.4844 43.9601 56.4402C43.9159 56.396 43.8717 56.349 43.8275 56.2993C43.7833 56.2524 43.7419 56.2026 43.7032 56.1529C43.6618 56.1032 43.6231 56.0535 43.5845 56.001C43.5458 55.9485 43.5099 55.896 43.474 55.8436C43.4381 55.7911 43.4049 55.7358 43.3718 55.6806C43.3386 55.6253 43.3082 55.5701 43.2778 55.5121C43.2475 55.4541 43.2198 55.3989 43.1922 55.3408C43.1646 55.2828 43.1397 55.2248 43.1149 55.1641C43.09 55.1061 43.0679 55.0453 43.0458 54.9845C43.0237 54.9237 43.0044 54.863 42.9851 54.8022C42.9657 54.7414 42.9491 54.6779 42.9326 54.6171C42.916 54.5536 42.9022 54.4929 42.8911 54.4293C42.8773 54.3658 42.8663 54.3023 42.858 54.2387C42.8497 54.1752 42.8414 54.1117 42.8331 54.0481C42.8248 53.9818 42.8221 53.9155 42.8166 53.852C42.8138 53.7857 42.811 53.7194 42.811 53.6531C42.811 53.5868 42.811 53.5206 42.8138 53.4543C42.8166 53.388 42.8221 53.3217 42.8276 53.2581C42.8331 53.1919 42.8414 53.1283 42.8497 53.062C42.858 52.9957 42.869 52.9322 42.8829 52.8659C42.8967 52.8024 42.9105 52.7361 42.9243 52.6726C42.9409 52.609 42.9574 52.5455 42.9768 52.482C42.9961 52.4184 43.0154 52.3549 43.0375 52.2941C43.0596 52.2334 43.0817 52.1698 43.1094 52.1091C43.1342 52.0483 43.1618 51.9875 43.1895 51.9268C43.2171 51.866 43.2475 51.808 43.2778 51.75C43.3082 51.692 43.3414 51.634 43.3745 51.5787C43.4077 51.5235 43.4436 51.4655 43.4795 51.4102C43.5154 51.355 43.5541 51.3025 43.5927 51.2473C43.6314 51.1948 43.6728 51.1423 43.7143 51.0926C44.4407 50.2197 45.4462 49.8275 46.5621 49.7253Z" fill="#33ADB4"/>
<path d="M78.6449 38.7005C79.562 38.648 80.3989 38.742 81.2082 39.2088C81.2635 39.2419 81.3187 39.2751 81.374 39.3082C81.4292 39.3441 81.4817 39.38 81.5342 39.4159C81.5867 39.4546 81.6391 39.4933 81.6889 39.5319C81.7386 39.5734 81.7883 39.6148 81.838 39.6562C81.8877 39.6977 81.9347 39.7419 81.9789 39.7888C82.0259 39.833 82.07 39.88 82.1142 39.9269C82.1584 39.9739 82.1999 40.0236 82.2413 40.0733C82.2827 40.1231 82.3214 40.1728 82.3601 40.2253C82.3987 40.2777 82.4374 40.3302 82.4733 40.3827C82.5092 40.4352 82.5451 40.4904 82.5783 40.5457C82.6114 40.6009 82.6446 40.6562 82.675 40.7142C82.7054 40.7722 82.7357 40.8274 82.7634 40.8854C82.791 40.9434 82.8186 41.0014 82.8407 41.0622C82.8656 41.123 82.8877 41.181 82.9098 41.2417C82.9319 41.3025 82.9512 41.3633 82.9705 41.4268C82.9899 41.4876 83.0064 41.5511 83.0202 41.6146C83.0368 41.6782 83.0506 41.7417 83.0617 41.808C83.0755 41.8715 83.0865 41.9378 83.0948 42.0041C83.1031 42.0704 83.1114 42.1339 83.1169 42.2002C83.1224 42.2665 83.128 42.3328 83.1307 42.3963C83.1335 42.4626 83.1335 42.5289 83.1335 42.5952C83.1335 42.6615 83.1307 42.7278 83.128 42.7913C83.1252 42.8576 83.1197 42.9239 83.1114 42.9875C83.1059 43.0537 83.0948 43.1173 83.0865 43.1836C83.0755 43.2499 83.0644 43.3134 83.0506 43.3769C83.0368 43.4405 83.023 43.5067 83.0064 43.5703C82.9899 43.6338 82.9733 43.6973 82.9512 43.7609C82.9319 43.8244 82.9098 43.8852 82.8877 43.9487C82.8656 44.0095 82.8407 44.073 82.8158 44.1338C82.791 44.1945 82.7634 44.2553 82.7357 44.3133C82.7081 44.3713 82.6777 44.4321 82.6446 44.4901C82.6142 44.5481 82.5811 44.6061 82.5452 44.6613C81.8877 45.7303 80.8934 46.2247 79.7111 46.5175C78.7747 46.5921 77.8715 46.4347 77.0705 45.9181C77.0152 45.8822 76.9627 45.8436 76.9075 45.8049C76.855 45.7662 76.8025 45.7248 76.7501 45.6861C76.6976 45.6474 76.6479 45.6033 76.6009 45.5591C76.5512 45.5149 76.5042 45.4707 76.4573 45.4237C76.4103 45.3768 76.3661 45.3298 76.3192 45.2828C76.275 45.2331 76.2308 45.1862 76.1893 45.1337C76.1479 45.084 76.1065 45.0315 76.0678 44.979C76.0291 44.9265 75.9905 44.874 75.9545 44.8188C75.9186 44.7635 75.8827 44.7083 75.8468 44.6531C75.8137 44.5978 75.7805 44.5398 75.7474 44.4818C75.717 44.4238 75.6866 44.3658 75.659 44.305C75.6314 44.247 75.6037 44.1862 75.5789 44.1255C75.554 44.0647 75.5292 44.0039 75.5071 43.9432C75.485 43.8824 75.4629 43.8189 75.4435 43.7553C75.4242 43.6918 75.4076 43.6283 75.3911 43.5648C75.3745 43.5012 75.3607 43.4377 75.3469 43.3714C75.3331 43.3079 75.322 43.2443 75.311 43.178C75.2999 43.1145 75.2916 43.0482 75.2833 42.9847C75.275 42.9184 75.2695 42.8549 75.2668 42.7886C75.264 42.7223 75.2612 42.6588 75.2612 42.5925C75.2612 42.5262 75.2612 42.4626 75.264 42.3963C75.2668 42.33 75.2723 42.2665 75.2778 42.2002C75.2833 42.1339 75.2916 42.0704 75.2999 42.0041C75.3082 41.9406 75.3192 41.8743 75.3331 41.8108C75.3469 41.7472 75.3607 41.6837 75.3745 41.6202C75.3911 41.5566 75.4076 41.4931 75.427 41.4296C75.4463 41.366 75.4656 41.3053 75.4877 41.2417C75.5098 41.181 75.5319 41.1202 75.5595 41.0594C75.5844 40.9987 75.612 40.9379 75.6397 40.8799C75.6673 40.8219 75.6977 40.7611 75.728 40.7059C75.7584 40.6479 75.7916 40.5926 75.8247 40.5346C75.8579 40.4794 75.8938 40.4241 75.9297 40.3689C76.5871 39.4159 77.5345 38.9187 78.6449 38.7005Z" fill="#FAC04E"/>
<path d="M53.6362 72.3191C53.6141 76.3464 53.6114 80.3709 53.6307 84.3982C53.628 86.7903 53.534 89.2127 53.6197 91.5993L51.4983 91.5938L51.1392 91.5634C50.9928 91.428 50.9569 91.3645 50.9348 91.1601C50.8989 90.8231 50.9597 90.4171 50.9569 90.069L50.9459 86.6522L50.9348 75.9846C50.9348 75.2719 51.1144 72.9185 50.8354 72.3661L50.6006 72.3164L50.91 72.2998L53.6362 72.3191Z" fill="#E16D3D"/>
<path d="M99.2402 40.1481C99.9529 40.1232 101.132 39.9354 101.715 40.4326C102.047 40.7171 102.033 41.3469 102.044 41.7474C102.157 46.0205 102.049 50.3185 102.049 54.5916L102.06 59.837C102.063 60.7844 102.116 61.7733 102.041 62.718C102.027 62.8782 101.98 62.9914 101.892 63.124C101.066 63.1378 100.243 63.1434 99.417 63.1461L99.348 63.1185C99.4363 62.0827 99.3728 60.9944 99.3728 59.953V53.9452V45.2443C99.3728 43.7085 99.4225 42.1507 99.359 40.6149C99.3507 40.4381 99.3231 40.3083 99.2402 40.1481Z" fill="#A8A8A8"/>
<path d="M99.4166 63.1461C100.243 63.1434 101.066 63.1378 101.892 63.124C101.93 63.182 101.963 63.24 101.991 63.3063C102.165 63.7262 102.074 82.7909 102.077 85.1912C102.077 86.2381 102.209 90.5388 102.027 91.3399C102.01 91.4144 101.98 91.4752 101.947 91.5443C101.129 91.6631 100.168 91.5553 99.3365 91.5443C99.5161 90.7985 99.3697 87.3789 99.3669 86.3596L99.3807 69.6511L99.3614 65.5575C99.3531 64.7869 99.2702 63.8947 99.4166 63.1461Z" fill="#F6952D"/>
<path d="M9.43824 81.5872V76.7754C9.43548 76.0407 9.33051 75.1236 9.46862 74.4055C9.50453 74.2176 9.59568 74.0906 9.73103 73.9608C9.88572 73.8116 10.0349 73.7205 10.2476 73.6845C11.2696 73.5078 12.5098 73.6348 13.5567 73.6376L19.8904 73.6459C19.8932 76.281 19.9677 78.9355 19.8932 81.5679L19.8462 81.5817C16.3824 81.5237 12.9048 81.5872 9.43824 81.5872Z" fill="white"/>
<path d="M118.321 58.3599C118.47 58.5532 118.476 58.7217 118.484 58.9537C118.545 61.1303 118.503 63.3235 118.506 65.5029V79.452L118.503 87.5508C118.498 88.733 118.6 90.0312 118.473 91.2024C118.459 91.3184 118.429 91.4317 118.39 91.5421C118.014 91.7106 116.208 91.5477 115.683 91.5366C115.879 90.9759 115.722 84.9405 115.722 83.8411L115.772 58.4234L115.854 58.3958C116.672 58.3985 117.512 58.4372 118.321 58.3599Z" fill="#F6952D"/>
<path d="M132.268 20.8679C132.994 20.8403 134.259 20.6304 134.842 21.169C135.03 21.343 135.079 21.4811 135.102 21.7325C135.209 23.028 135.14 24.3787 135.143 25.6769V33.1431C135.14 40.0017 135.218 46.874 135.137 53.7326C135.135 53.9812 135.143 54.2408 135.044 54.4728C134.546 54.6607 132.765 54.5005 132.163 54.4784C132.284 54.2767 132.301 54.1137 132.306 53.8872C132.466 46.189 132.331 38.4631 132.317 30.7621L132.315 24.061C132.317 23.0445 132.433 21.8651 132.268 20.8679Z" fill="#A8A8A8"/>
<path d="M9.43799 81.5867C12.9045 81.5867 16.3822 81.5232 19.8459 81.5839L19.8377 88.4397C19.8349 89.3153 19.683 90.6826 19.8819 91.4947C20.0531 91.5914 20.1774 91.5886 20.3708 91.5831L9.46285 91.5776L9.43799 81.5867Z" fill="#F89043"/>
<path d="M135.047 54.4727C135.257 55.014 135.179 91.1464 135.074 91.4005C135.052 91.4557 135.038 91.4695 135.005 91.522C134.143 91.6491 133.124 91.5441 132.249 91.5386C132.307 91.4143 132.34 91.3204 132.342 91.1823C132.398 89.5912 132.348 87.9753 132.345 86.3816L132.331 77.0951C132.326 69.615 132.398 62.1239 132.298 54.6467C132.199 54.5113 132.047 54.5307 131.887 54.503L132.168 54.4782C132.768 54.5003 134.549 54.6605 135.047 54.4727Z" fill="#E16D3D"/>
<path d="M24.804 77.2746L24.8289 70.0791C24.8317 69.0018 24.7212 67.7837 24.8676 66.7258C24.9035 66.4661 25.0195 66.2396 25.2018 66.0518C25.3454 65.9026 25.467 65.8612 25.6686 65.8363C26.7541 65.6955 27.9667 65.7977 29.0661 65.8032H35.2341C35.1485 69.6233 35.1678 73.471 35.2148 77.2939L24.804 77.2746Z" fill="white"/>
<path d="M40.4549 72.3277L40.4467 63.5991C40.4467 62.3009 40.3085 60.8673 40.466 59.5884C40.4936 59.3591 40.5516 59.2183 40.7118 59.0525C40.9024 58.8537 41.0074 58.8122 41.2781 58.7708C42.4133 58.6023 43.6867 58.7238 44.8386 58.7266L51.4651 58.7238L50.9789 58.8095C50.7773 59.1354 50.8905 70.6676 50.9071 72.3056L50.5977 72.3221C47.2251 72.3774 43.8359 72.3249 40.4549 72.3277Z" fill="white"/>
<path d="M24.8038 77.2754L35.2117 77.292L35.1979 91.5781C35.5598 91.5753 36.0514 91.509 36.3967 91.5891C32.5379 91.6029 28.6764 91.5974 24.8176 91.5725C24.7872 86.805 24.7844 82.0402 24.8038 77.2754Z" fill="#FAC04E"/>
<path d="M40.4549 72.3276C43.8358 72.3249 47.2223 72.3801 50.6005 72.3193L50.8353 72.3691C51.1142 72.9215 50.9319 75.2749 50.9347 75.9875L50.9457 86.6551L50.9568 90.072C50.9595 90.4173 50.8988 90.8233 50.9347 91.163C50.9568 91.3675 50.9927 91.431 51.1391 91.5663L51.4982 91.5967C47.8162 91.6188 44.1342 91.616 40.4521 91.5857L40.4549 72.3276Z" fill="#F89043"/>
<path d="M57.2819 53.9065L64.9746 53.9148C66.2783 53.9148 67.6622 53.8154 68.9549 53.9645C69.2284 54.1358 69.5819 54.3706 69.651 54.7075C69.8609 55.7157 69.6897 58.2155 69.6841 59.3729L69.7118 69.8444L66.9468 69.8416H56.5029L56.5306 60.3038C56.5306 58.4172 56.4864 56.5223 56.5471 54.6385C56.7709 54.3485 56.9946 54.133 57.2819 53.9065Z" fill="white"/>
<path d="M68.9545 53.9648C69.228 54.1361 69.5816 54.3709 69.6506 54.7079C69.8605 55.7161 69.6893 58.2159 69.6838 59.3732L69.7114 69.8447L66.9464 69.842C66.8276 68.0217 66.9492 66.124 66.9547 64.2955L66.9326 54.0035C67.6093 54.009 68.2806 54.0201 68.9545 53.9648Z" fill="#A8A8A8"/>
<path d="M89.0333 63.1326L89.0609 47.9737C89.0609 45.8026 89.0001 43.6204 89.0498 41.4521C89.0609 40.9881 89.0968 40.7146 89.4448 40.3832C89.6244 40.2147 89.9033 40.1953 90.1437 40.1732C91.3286 40.06 92.5772 40.1373 93.7677 40.1346C95.5879 40.1318 97.4193 40.0931 99.2368 40.1484C99.3197 40.3113 99.3501 40.4384 99.3556 40.6207C99.4191 42.1565 99.3694 43.7116 99.3694 45.2501V53.9511V59.9588C99.3694 61.0002 99.4329 62.0885 99.3445 63.1243C98.2203 63.2182 97.0298 63.1437 95.9001 63.1437L89.0333 63.1326Z" fill="white"/>
<path d="M72.8966 67.2788L72.9076 54.1832C72.9049 52.9955 72.7419 49.772 72.9353 48.7638C72.985 48.5069 73.1811 48.3218 73.3551 48.1395C74.6672 47.7915 79.2414 47.9959 80.8434 47.9987C82.208 48.0014 83.741 47.8661 85.0834 48.0567C85.3596 48.1948 85.6027 48.3439 85.6939 48.6588C85.9342 49.4709 85.7519 53.0618 85.7519 54.139L85.7795 67.265L83.0118 67.2733L72.8966 67.2788Z" fill="white"/>
<path d="M85.081 48.0537C85.3573 48.1918 85.6003 48.341 85.6915 48.6559C85.9318 49.468 85.7495 53.0588 85.7495 54.1361L85.7771 67.262L83.0094 67.2703C82.9403 65.1572 83.0122 63.0193 83.0149 60.9035L83.0094 48.0648C83.7027 48.0758 84.3877 48.0869 85.081 48.0537Z" fill="#A8A8A8"/>
<path d="M56.5059 69.8442H66.9497L69.7147 69.847L69.7423 91.5993L69.2948 91.5938C67.7811 91.649 66.2481 91.6048 64.7317 91.6076L56.5307 91.5965L56.5059 69.8442Z" fill="#FAC04E"/>
<path d="M66.9497 69.8442L69.7147 69.847L69.7423 91.5993L69.2948 91.5938C68.5987 91.4391 67.7231 91.5303 67.005 91.5358C66.9387 86.5832 67.0022 81.6195 67.0022 76.6669C66.9994 74.3991 67.0657 72.1065 66.9497 69.8442Z" fill="#F6952D"/>
<path d="M89.0259 91.5781C89.0784 88.291 89.0286 84.993 89.0259 81.706L89.0342 63.133L95.9038 63.1385C97.0335 63.1385 98.224 63.2131 99.3482 63.1191L99.4173 63.1468C99.2709 63.8953 99.3565 64.7875 99.3593 65.5554L99.3786 69.649L99.3648 86.3575C99.3675 87.3768 99.5139 90.7964 99.3344 91.5422C98.3428 91.6913 97.1744 91.5808 96.1662 91.5808C93.7879 91.567 91.4069 91.567 89.0259 91.5781Z" fill="#F89043"/>
<path d="M83.0121 67.2676L85.7799 67.2593V91.5887C84.8711 91.5556 83.9568 91.5694 83.048 91.5694C79.6837 91.6743 76.2641 91.6605 72.897 91.5832V67.2731L83.0121 67.2676Z" fill="#F89043"/>
<path d="M105.529 58.3597C105.753 57.6554 105.615 53.1226 105.615 52.0122L105.587 35.334C105.582 34.7126 105.477 33.8535 105.977 33.3895C106.173 33.2072 106.38 33.1878 106.634 33.1602C107.877 33.0221 109.2 33.1243 110.457 33.1243C112.717 33.1077 114.979 33.105 117.238 33.116C117.584 33.1132 117.86 33.1519 118.119 33.4088C118.387 33.674 118.445 34.0469 118.47 34.4087C118.55 35.729 118.476 37.0936 118.467 38.4139L118.456 45.858L118.476 53.896C118.478 55.2302 118.561 56.6195 118.47 57.9454C118.459 58.1028 118.407 58.2244 118.324 58.357C117.514 58.4343 116.675 58.3956 115.863 58.3956L115.78 58.4233C114.946 58.3238 114.023 58.3956 113.178 58.3984L107.971 58.4177C107.176 58.4205 106.308 58.4813 105.529 58.3597Z" fill="white"/>
<path d="M117.238 33.1159C117.584 33.1131 117.86 33.1518 118.12 33.4086C118.387 33.6738 118.446 34.0467 118.47 34.4086C118.55 35.7289 118.476 37.0934 118.468 38.4138L118.457 45.8579L118.476 53.8959C118.479 55.23 118.562 56.6194 118.47 57.9452C118.459 58.1027 118.407 58.2242 118.324 58.3568C117.515 58.4342 116.675 58.3955 115.863 58.3955C115.774 58.3237 115.769 58.238 115.763 58.1303C115.73 56.7133 115.772 55.288 115.761 53.8682L115.741 39.6706C115.741 38.7425 115.932 33.707 115.606 33.1849C116.018 33.1904 116.882 33.2954 117.238 33.1159Z" fill="#A8A8A8"/>
<path d="M105.529 58.3599C106.308 58.4814 107.176 58.4206 107.966 58.4179L113.172 58.3985C114.015 58.3958 114.94 58.324 115.774 58.4234L115.725 83.8411C115.725 84.9405 115.882 90.9759 115.686 91.5366C114.335 91.625 112.94 91.556 111.587 91.556C109.548 91.5532 107.502 91.5863 105.466 91.5339C105.59 91.3156 105.59 91.1195 105.593 90.8765C105.679 83.1451 105.582 75.3999 105.596 67.6657L105.604 61.5364C105.601 60.5558 105.761 59.3018 105.529 58.3599Z" fill="#FAC04E"/>
<path d="M121.785 54.4787C122.031 53.6335 121.856 49.4708 121.856 48.2417L121.862 29.6355V24.774C121.862 23.694 121.757 22.5146 121.986 21.4566C122.008 21.3544 122.047 21.0782 122.124 21.0174C122.345 20.8407 122.956 20.8379 123.227 20.8241C124.729 20.7468 126.273 20.8379 127.781 20.8379C129.251 20.8379 130.803 20.7329 132.264 20.8655C132.433 21.8627 132.314 23.0421 132.314 24.0586L132.317 30.7597C132.328 38.4607 132.466 46.1866 132.306 53.8848C132.3 54.1141 132.284 54.2743 132.162 54.4759L131.88 54.5008L125.398 54.5174C124.215 54.5229 122.961 54.6085 121.785 54.4787Z" fill="white"/>
<path d="M121.785 54.4785C122.962 54.6083 124.216 54.5227 125.401 54.5199L131.884 54.5034C132.047 54.531 132.196 54.5089 132.295 54.647C132.395 62.127 132.323 69.6154 132.328 77.0954L132.342 86.3819C132.345 87.9757 132.392 89.5888 132.339 91.1826C132.334 91.3207 132.304 91.4146 132.245 91.5389C131.588 91.7295 122.854 91.6025 121.727 91.5417C121.821 91.376 121.846 91.2406 121.851 91.05C121.956 88.1497 121.857 85.2107 121.854 82.3077V65.7814L121.857 58.108C121.857 57.1081 122.006 55.3983 121.785 54.4785Z" fill="#F89043"/>
<path d="M5.30342 0L10.6731 5.46639C9.53234 5.40562 8.38603 5.43877 7.24524 5.44982L7.22867 91.5779H9.46329L20.3712 91.5834C21.0507 91.5917 21.7274 91.5917 22.4069 91.5834C23.2107 91.5586 24.0145 91.553 24.8183 91.5668C28.6771 91.5917 32.5387 91.5972 36.3975 91.5834L37.7648 91.5945C38.6597 91.5724 39.5547 91.5696 40.4496 91.5807C44.1316 91.6083 47.8136 91.6138 51.4957 91.5917L53.617 91.5972C54.5866 91.5834 55.5561 91.5834 56.5284 91.5972L64.7293 91.6083C66.2458 91.6083 67.7788 91.6525 69.2925 91.5945L69.74 91.6C70.7758 91.553 71.8613 91.5254 72.8972 91.5889C76.2615 91.6635 79.6811 91.6773 83.0482 91.5751C83.9598 91.5751 84.8713 91.5613 85.78 91.5945C86.8628 91.5834 87.9428 91.5779 89.0256 91.5807C91.4066 91.5696 93.7877 91.5696 96.1687 91.5862C97.1741 91.5862 98.3453 91.6967 99.3369 91.5475C100.168 91.5613 101.13 91.6663 101.947 91.5475C102.795 91.6276 104.676 91.716 105.463 91.5392C107.502 91.5917 109.546 91.5613 111.584 91.5613C112.941 91.5613 114.336 91.6304 115.684 91.542C116.208 91.553 118.015 91.716 118.391 91.5475C119.205 91.6248 120.957 91.7243 121.725 91.542C122.854 91.6055 131.586 91.7298 132.243 91.5392C133.121 91.5447 134.138 91.6525 135 91.5227C136.69 91.6028 138.405 91.5475 140.099 91.5447C140.137 91.4702 140.176 91.3928 140.195 91.31C140.331 90.7492 140.314 88.7881 140.046 88.2771C140.588 88.5478 145.189 92.9397 145.361 93.365C145.355 93.3788 145.352 93.3954 145.347 93.4092C145.214 93.7048 140.532 97.8039 140.082 98C140.124 97.9227 140.165 97.8426 140.187 97.7569C140.306 97.2708 140.347 95.8123 140.088 95.398L119.843 95.3593L84.6945 95.3621L3.55771 95.3676L3.48866 5.42772L0 5.43048C1.73466 3.58533 3.50247 1.77609 5.30342 0Z" fill="white"/>
</svg>
