<svg width="160" height="115" viewBox="0 0 160 115" fill="none" xmlns="http://www.w3.org/2000/svg">
<g clip-path="url(#clip0_208_14464)">
<g opacity="0.32">
<path opacity="0.0196" d="M109.265 105.838C111.315 100.918 97.3941 90.4391 78.1728 82.4328C58.9516 74.4266 41.7083 71.9247 39.659 76.8448C37.6096 81.7649 51.5301 92.2438 70.7514 100.25C89.9726 108.256 107.216 110.758 109.265 105.838Z" fill="#0F0A26"/>
<path opacity="0.0392" d="M109.058 105.744C111.08 100.889 97.3442 90.5492 78.3781 82.6492C59.4119 74.7492 42.3975 72.2806 40.3753 77.1354C38.3532 81.9902 52.089 92.33 71.0551 100.23C90.0213 108.13 107.036 110.599 109.058 105.744Z" fill="#0F0A26"/>
<path opacity="0.0588" d="M108.847 105.648C110.842 100.859 97.2915 90.6581 78.5808 82.8644C59.87 75.0708 43.0847 72.6355 41.0898 77.425C39.0948 82.2145 52.6456 92.4151 71.3563 100.209C90.0671 108.002 106.852 110.438 108.847 105.648Z" fill="#0F0A26"/>
<path opacity="0.0784" d="M108.638 105.554C110.606 100.83 97.2397 90.7683 78.7844 83.0811C60.3291 75.3939 43.7729 72.9919 41.8052 77.7161C39.8374 82.4403 53.2032 92.5017 71.6585 100.189C90.1138 107.876 106.67 110.278 108.638 105.554Z" fill="#0F0A26"/>
<path opacity="0.098" d="M108.429 105.46C110.369 100.801 97.1884 90.8793 78.9886 83.2985C60.7887 75.7177 44.4617 73.3487 42.5213 78.0073C40.5809 82.6659 53.7617 92.5878 71.9616 100.169C90.1615 107.749 106.488 110.118 108.429 105.46Z" fill="#0F0A26"/>
<path opacity="0.1176" d="M108.22 105.365C110.133 100.771 97.1367 90.9885 79.1919 83.514C61.2471 76.0394 45.149 73.7036 43.2357 78.2969C41.3225 82.8902 54.3186 92.6731 72.2634 100.148C90.2082 107.622 106.306 109.958 108.22 105.365Z" fill="#0F0A26"/>
<path opacity="0.1373" d="M108.011 105.271C109.897 100.743 97.0859 91.0988 79.3965 83.7306C61.7072 76.3624 45.8381 74.06 43.9521 78.588C42.0661 83.116 54.8772 92.7597 72.5665 100.128C90.2559 107.496 106.125 109.798 108.011 105.271Z" fill="#0F0A26"/>
<path opacity="0.1569" d="M107.801 105.176C109.66 100.714 97.0341 91.2091 79.6002 83.9473C62.1663 76.6855 46.5263 74.4164 44.6675 78.8791C42.8087 83.3417 55.4348 92.8463 72.8687 100.108C90.3027 107.37 105.943 109.639 107.801 105.176Z" fill="#0F0A26"/>
<path opacity="0.1765" d="M107.592 105.081C109.423 100.683 96.9824 91.3179 79.8039 84.1625C62.6253 77.0071 47.2146 74.7713 45.3829 79.1687C43.5513 83.5661 55.9923 92.9314 73.1709 100.087C90.3494 107.242 105.76 109.478 107.592 105.081Z" fill="#0F0A26"/>
<path opacity="0.1961" d="M107.382 104.986C109.187 100.654 96.9301 91.4283 80.0067 84.3791C63.0832 77.33 47.9014 75.1271 46.0971 79.4589C44.2928 83.7907 56.5492 93.0167 73.4727 100.066C90.3961 107.115 105.578 109.318 107.382 104.986Z" fill="#0F0A26"/>
<path opacity="0.2157" d="M107.175 104.892C108.952 100.625 96.8803 91.5386 80.2123 84.5958C63.5443 77.6531 48.5916 75.4835 46.8144 79.75C45.0373 84.0164 57.1088 93.1033 73.7768 100.046C90.4448 106.989 105.397 109.158 107.175 104.892Z" fill="#0F0A26"/>
<path opacity="0.2353" d="M106.963 104.798C108.713 100.597 96.8266 91.6488 80.414 84.8125C64.0014 77.9761 49.2778 75.8399 47.5279 80.0411C45.778 84.2422 57.6644 93.1899 74.077 100.026C90.4896 106.863 105.213 108.999 106.963 104.798Z" fill="#0F0A26"/>
<path opacity="0.2549" d="M106.754 104.702C108.477 100.566 96.7758 91.7576 80.6186 85.0277C64.4615 78.2977 49.967 76.1948 48.2443 80.3307C46.5215 84.4665 58.223 93.275 74.3801 100.005C90.5373 106.735 105.032 108.838 106.754 104.702Z" fill="#0F0A26"/>
<path opacity="0.2745" d="M106.544 104.608C108.239 100.537 96.7231 91.8679 80.8213 85.2443C64.9196 78.6208 50.6542 76.5512 48.9587 80.6218C47.2632 84.6923 58.7796 93.3616 74.6813 99.9852C90.583 106.609 104.848 108.678 106.544 104.608Z" fill="#0F0A26"/>
<path opacity="0.2941" d="M106.336 104.514C108.004 100.509 96.6727 91.9788 81.0261 85.4615C65.3794 78.9442 51.343 76.9075 49.6748 80.9125C48.0066 84.9174 59.3384 93.4474 74.985 99.9647C90.6317 106.482 104.668 108.519 106.336 104.514Z" fill="#0F0A26"/>
<path opacity="0.3137" d="M106.127 104.419C107.768 100.479 96.6209 92.0886 81.2297 85.6777C65.8385 79.2668 52.0312 77.2634 50.3902 81.2031C48.7492 85.1427 59.896 93.5335 75.2872 99.9444C90.6784 106.355 104.486 108.359 106.127 104.419Z" fill="#0F0A26"/>
<path opacity="0.3333" d="M105.918 104.324C107.532 100.45 96.5702 92.1979 81.4344 85.8934C66.2986 79.5888 52.7204 77.6188 51.1066 81.4932C49.4928 85.3675 60.4545 93.6191 75.5903 99.9237C90.7261 106.228 104.304 108.198 105.918 104.324Z" fill="#0F0A26"/>
<path opacity="0.3529" d="M105.707 104.23C107.293 100.421 96.5165 92.3086 81.6361 86.1105C66.7558 79.9124 53.4066 77.9757 51.82 81.7847C50.2335 85.5938 61.0102 93.7062 75.8905 99.9044C90.7709 106.102 104.12 108.039 105.707 104.23Z" fill="#0F0A26"/>
<path opacity="0.3725" d="M105.5 104.135C107.06 100.391 96.4676 92.4178 81.8423 86.326C67.2171 80.2341 54.0968 78.3306 52.5374 82.0743C50.978 85.8181 61.57 93.7915 76.1953 99.8834C90.8205 105.975 103.941 107.879 105.5 104.135Z" fill="#0F0A26"/>
<path opacity="0.3922" d="M105.289 104.041C106.821 100.362 96.4139 92.5281 82.0441 86.5426C67.6742 80.5571 54.7831 78.6869 53.2509 82.3654C51.7187 86.0439 62.1256 93.8781 76.4955 99.8636C90.8653 105.849 103.756 107.719 105.289 104.041Z" fill="#0F0A26"/>
<path opacity="0.4118" d="M105.081 103.946C106.586 100.333 96.3636 92.6386 82.2492 86.7595C68.1347 80.8804 55.4728 79.0433 53.968 82.6561C52.4631 86.269 62.6852 93.9637 76.7996 99.8428C90.914 105.722 103.576 107.559 105.081 103.946Z" fill="#0F0A26"/>
<path opacity="0.4314" d="M104.87 103.852C106.348 100.304 96.3108 92.7484 82.4519 86.9757C68.5929 81.203 56.1601 79.3992 54.6824 82.9467C53.2047 86.4943 63.2418 94.0498 77.1008 99.8225C90.9597 105.595 103.393 107.399 104.87 103.852Z" fill="#0F0A26"/>
<path opacity="0.451" d="M104.663 103.757C106.113 100.275 96.261 92.8581 82.6571 87.1916C69.0532 81.5252 56.8492 79.7546 55.3988 83.2368C53.9483 86.7191 63.8006 94.1356 77.4045 99.802C91.0084 105.468 103.212 107.239 104.663 103.757Z" fill="#0F0A26"/>
<path opacity="0.4706" d="M104.452 103.662C105.876 100.245 96.2083 92.9679 82.8598 87.4078C69.5113 81.8478 57.5365 80.1104 56.1132 83.5274C54.6899 86.9444 64.3572 94.2217 77.7057 99.7817C91.0542 105.342 103.029 107.079 104.452 103.662Z" fill="#0F0A26"/>
<path opacity="0.4902" d="M104.244 103.568C105.64 100.216 96.1575 93.0781 83.0645 87.6245C69.9714 82.1708 58.2256 80.4668 56.8296 83.8185C55.4335 87.1701 64.9158 94.3083 78.0088 99.7619C91.1019 105.216 102.848 106.92 104.244 103.568Z" fill="#0F0A26"/>
<path opacity="0.5098" d="M104.034 103.472C105.403 100.186 96.1052 93.1872 83.2676 87.8399C70.43 82.4927 58.9135 80.8217 57.5447 84.1077C56.176 87.3938 65.4734 94.3924 78.311 99.7397C91.1486 105.087 102.665 106.758 104.034 103.472Z" fill="#0F0A26"/>
<path opacity="0.5294" d="M103.824 103.379C105.165 100.158 96.0525 93.2983 83.4699 88.0573C70.8874 82.8163 59.5997 81.1786 58.2582 84.3993C56.9166 87.62 66.0293 94.4796 78.6118 99.7207C91.1943 104.962 102.482 106.599 103.824 103.379Z" fill="#0F0A26"/>
<path opacity="0.549" d="M103.615 103.284C104.929 100.128 96.0017 93.4076 83.6746 88.273C71.3475 83.1384 60.2889 81.5339 58.9746 84.6894C57.6602 87.8448 66.5878 94.5653 78.9149 99.6999C91.242 104.835 102.301 106.439 103.615 103.284Z" fill="#0F0A26"/>
<path opacity="0.5686" d="M103.405 103.189C104.693 100.099 95.9499 93.5174 83.8783 88.4892C71.8066 83.461 60.9771 81.8898 59.69 84.98C58.4028 88.0701 67.1454 94.6514 79.2171 99.6796C91.2888 104.708 102.118 106.279 103.405 103.189Z" fill="#0F0A26"/>
<path opacity="0.5882" d="M103.197 103.095C104.457 100.07 95.8992 93.6277 84.0829 88.7058C72.2666 83.784 61.6663 82.2462 60.4063 85.2711C59.1464 88.2959 67.704 94.738 79.5202 99.6598C91.3365 104.582 101.937 106.119 103.197 103.095Z" fill="#0F0A26"/>
<path opacity="0.6078" d="M102.987 103C104.22 100.041 95.8469 93.7381 84.2857 88.9225C72.7245 84.1069 62.3531 82.6021 61.1205 85.5613C59.8879 88.5205 68.2608 94.8232 79.822 99.6388C91.3832 104.454 101.755 105.959 102.987 103Z" fill="#0F0A26"/>
<path opacity="0.6275" d="M102.78 102.904C103.985 100.01 95.7971 93.8469 84.4913 89.1377C73.1856 84.4285 63.0433 82.957 61.8379 85.8509C60.6325 88.7448 68.8204 94.9084 80.1261 99.6176C91.4319 104.327 101.574 105.798 102.78 102.904Z" fill="#0F0A26"/>
<path opacity="0.6471" d="M102.569 102.811C103.747 99.9825 95.7443 93.9582 84.694 89.3554C73.6437 84.7526 63.7305 83.3143 62.5523 86.143C61.3741 88.9716 69.377 94.996 80.4273 99.5988C91.4776 104.202 101.391 105.64 102.569 102.811Z" fill="#0F0A26"/>
<path opacity="0.6667" d="M102.359 102.716C103.51 99.9526 95.6926 94.0675 84.8977 89.571C74.1028 85.0746 64.4187 83.6697 63.2677 86.433C62.1167 89.1964 69.9346 95.0816 80.7295 99.578C91.5244 104.074 101.208 105.479 102.359 102.716Z" fill="#0F0A26"/>
<path opacity="0.6863" d="M102.149 102.621C103.273 99.9232 95.6398 94.1772 85.1004 89.7872C74.5609 85.3972 65.1059 84.0256 63.9821 86.7236C62.8583 89.4217 70.4912 95.1677 81.0307 99.5577C91.5701 103.948 101.025 105.319 102.149 102.621Z" fill="#0F0A26"/>
<path opacity="0.7059" d="M101.941 102.527C103.038 99.8948 95.5895 94.2882 85.3051 90.0044C75.0207 85.7206 65.7947 84.3819 64.6982 87.0144C63.6018 89.6468 71.05 95.2534 81.3344 99.5372C91.6188 103.821 100.845 105.16 101.941 102.527Z" fill="#0F0A26"/>
<path opacity="0.7255" d="M101.732 102.433C102.801 99.8654 95.5377 94.3979 85.5088 90.2206C75.4798 86.0432 66.4829 84.7378 65.4137 87.3049C64.3444 89.8721 71.6076 95.3396 81.6366 99.5169C91.6655 103.694 100.662 105 101.732 102.433Z" fill="#0F0A26"/>
<path opacity="0.7451" d="M101.523 102.337C102.565 99.8355 95.487 94.5072 85.7134 90.4362C75.9399 86.3653 67.1721 85.0932 66.13 87.595C65.0879 90.0969 72.1662 95.4252 81.9397 99.4962C91.7132 103.567 100.481 104.839 101.523 102.337Z" fill="#0F0A26"/>
<path opacity="0.7647" d="M101.312 102.242C102.326 99.8057 95.4332 94.6165 85.9151 90.6519C76.397 86.6874 67.8584 85.4486 66.8435 87.8852C65.8286 90.3217 72.7218 95.5108 82.2399 99.4754C91.758 103.44 100.297 104.679 101.312 102.242Z" fill="#0F0A26"/>
<path opacity="0.7843" d="M101.104 102.149C102.092 99.7777 95.3834 94.7277 86.1204 90.8693C76.8574 87.011 68.5476 85.8055 67.5599 88.1767C66.5722 90.548 73.2806 95.598 82.5436 99.4563C91.8067 103.315 100.116 104.52 101.104 102.149Z" fill="#0F0A26"/>
<path opacity="0.8039" d="M100.893 102.054C101.854 99.7483 95.3302 94.8377 86.3226 91.0858C77.315 87.3338 69.2344 86.1613 68.274 88.4669C67.3137 90.7725 73.8372 95.6831 82.8448 99.4351C91.8524 103.187 99.933 104.36 100.893 102.054Z" fill="#0F0A26"/>
<path opacity="0.8235" d="M100.684 101.96C101.617 99.7194 95.2784 94.948 86.5262 91.3024C77.7741 87.6569 69.9226 86.5177 68.9894 88.758C68.0563 90.9983 74.3948 95.7698 83.147 99.4153C91.8991 103.061 99.7506 104.2 100.684 101.96Z" fill="#0F0A26"/>
<path opacity="0.8431" d="M100.475 101.865C101.381 99.6895 95.2276 95.0573 86.7309 91.5181C78.2342 87.979 70.6118 86.8731 69.7058 89.0481C68.7999 91.2231 74.9534 95.8554 83.4501 99.3945C91.9468 102.934 99.5692 104.04 100.475 101.865Z" fill="#0F0A26"/>
<path opacity="0.8627" d="M100.267 101.771C101.146 99.6611 95.1768 95.1679 86.9352 91.735C78.6935 88.3021 71.3 87.2295 70.4212 89.3392C69.5425 91.4489 75.5112 95.9421 83.7529 99.375C91.9945 102.808 99.3881 103.881 100.267 101.771Z" fill="#0F0A26"/>
<path opacity="0.8824" d="M100.057 101.675C100.909 99.6303 95.1251 95.2762 87.1389 91.9497C79.1526 88.6232 71.9882 87.5839 71.1366 89.6283C70.2851 91.6727 76.0688 96.0267 84.0551 99.3533C92.0413 102.68 99.2057 103.719 100.057 101.675Z" fill="#0F0A26"/>
<path opacity="0.902" d="M99.8474 101.581C100.672 99.6023 95.0728 95.3877 87.342 92.1676C79.6112 88.9475 72.676 87.9412 71.8518 89.92C71.0275 91.8988 76.6264 96.1133 84.3572 99.3335C92.088 102.554 99.0232 103.56 99.8474 101.581Z" fill="#0F0A26"/>
<path opacity="0.9216" d="M99.6379 101.486C100.435 99.5729 95.021 95.4975 87.5457 92.3838C80.0703 89.2701 73.3642 88.2971 72.5672 90.2106C71.7701 92.1241 77.184 96.1995 84.6594 99.3132C92.1347 102.427 98.8408 103.4 99.6379 101.486Z" fill="#0F0A26"/>
<path opacity="0.9412" d="M99.4285 101.391C100.198 99.543 94.9692 95.6067 87.749 92.5992C80.5287 89.5918 74.0514 88.652 73.2816 90.5002C72.5118 92.3484 77.7409 96.2847 84.9612 99.2922C92.1814 102.3 98.6587 103.239 99.4285 101.391Z" fill="#0F0A26"/>
<path opacity="0.9608" d="M99.2199 101.297C99.9626 99.5141 94.9185 95.717 87.9536 92.8159C80.9888 89.9148 74.7406 89.0084 73.998 90.7913C73.2553 92.5742 78.2994 96.3713 85.2643 99.2724C92.2291 102.173 98.4773 103.08 99.2199 101.297Z" fill="#0F0A26"/>
<path opacity="0.9804" d="M99.0104 101.203C99.7258 99.4852 94.8667 95.8273 88.1573 93.0326C81.4479 90.2379 75.4288 89.3648 74.7134 91.0824C73.9979 92.8 78.857 96.4579 85.5665 99.2526C92.2759 102.047 98.2949 102.92 99.0104 101.203Z" fill="#0F0A26"/>
<path d="M98.8008 101.108C99.489 99.4553 94.815 95.9365 88.361 93.2483C81.907 90.56 76.117 89.7201 75.4288 91.3725C74.7405 93.0248 79.4146 96.5435 85.8686 99.2318C92.3226 101.92 98.1125 102.76 98.8008 101.108Z" fill="#0F0A26"/>
</g>
<path d="M77.3936 32.2844L84.8418 36.7544L92.3073 32.2844L84.8504 27.9976L77.3936 32.2844Z" fill="url(#paint0_linear_208_14464)"/>
<path d="M92.3073 32.2847V91.3949L84.8418 95.8649V36.7547L92.3073 32.2847Z" fill="url(#paint1_linear_208_14464)"/>
<path d="M77.3936 32.2847V91.3949L84.8418 95.8649V36.7547L77.3936 32.2847Z" fill="url(#paint2_linear_208_14464)"/>
<path d="M94.8877 27.8313L102.336 32.3013L109.801 27.8313L102.345 23.5444L94.8877 27.8313Z" fill="url(#paint3_linear_208_14464)"/>
<path d="M109.8 27.8315V104.024L102.335 108.494V32.3016L109.8 27.8315Z" fill="url(#paint4_linear_208_14464)"/>
<path d="M94.8877 27.8315V104.024L102.336 108.494V32.3016L94.8877 27.8315Z" fill="url(#paint5_linear_208_14464)"/>
<path d="M60.7852 38.5684L68.2334 43.0384L75.6989 38.5684L68.242 34.2822L60.7852 38.5684Z" fill="url(#paint6_linear_208_14464)"/>
<path d="M75.6999 38.5684V81.5504L68.2344 86.0211V43.0384L75.6999 38.5684Z" fill="url(#paint7_linear_208_14464)"/>
<path d="M60.7852 38.5684V81.5504L68.2334 86.0211V43.0384L60.7852 38.5684Z" fill="url(#paint8_linear_208_14464)"/>
<path d="M44.1758 40.2857L51.624 44.7564L59.0895 40.2857L51.6327 35.9995L44.1758 40.2857Z" fill="url(#paint9_linear_208_14464)"/>
<path d="M59.0895 40.2856V71.7078L51.624 76.1785V44.7563L59.0895 40.2856Z" fill="url(#paint10_linear_208_14464)"/>
<path d="M44.1758 40.2856V71.7078L51.624 76.1785V44.7563L44.1758 40.2856Z" fill="url(#paint11_linear_208_14464)"/>
<path d="M27.5664 44.2955L35.014 48.7662L42.4795 44.2955L35.0226 40.0093L27.5664 44.2955Z" fill="url(#paint12_linear_208_14464)"/>
<path d="M42.4792 44.2959V61.8647L35.0137 66.3347V48.7666L42.4792 44.2959Z" fill="url(#paint13_linear_208_14464)"/>
<path d="M27.5664 44.2959V61.8647L35.014 66.3347V48.7666L27.5664 44.2959Z" fill="url(#paint14_linear_208_14464)"/>
<path d="M129.201 8.98145L114.624 10.0558L112.02 11.02L119.537 14.0062L72.6991 46.8657L50.8613 15.1576L48.2573 16.1218L9.06243 45.7184L8.22363 49.0968L10.8269 48.1326L50.1433 19.3847L69.3479 52.0166L71.9519 51.0517L121.299 16.4231L121.15 23.5442L123.753 22.5799L129.201 8.98145Z" fill="url(#paint15_linear_208_14464)"/>
<path d="M126.597 9.94629L112.021 11.0207L116.934 14.9711L70.0963 47.8306L48.2579 16.1224L6.45898 46.6832L8.22416 49.0974L47.5399 20.3502L69.3484 52.0172L118.695 17.3879L121.15 23.5448L126.597 9.94629Z" fill="url(#paint16_linear_208_14464)"/>
<g opacity="0.4">
<path d="M126.506 10.1739L126.597 9.94629L112.021 11.0207L112.272 11.2224L126.506 10.1739Z" fill="white"/>
<path d="M48.2373 16.3447L70.0751 48.0522L116.913 15.1933L116.775 15.0825L70.0963 47.8305L48.2579 16.1224L6.45898 46.6832L6.55786 46.8179L48.2373 16.3447Z" fill="white"/>
</g>
<path d="M142.034 69.9375C142.049 69.7656 142.061 69.5918 142.07 69.4173C142.074 69.3376 142.075 69.2573 142.078 69.177C142.08 69.1425 142.081 69.1087 142.082 69.0748C142.084 69.0138 142.087 68.9534 142.088 68.8924C142.091 68.7165 142.092 68.5393 142.09 68.3615C142.088 68.1803 142.083 67.9985 142.076 67.8153C142.076 67.81 142.075 67.8047 142.075 67.7987C142.074 67.7914 142.074 67.7835 142.074 67.7762C142.066 67.6063 142.057 67.4351 142.044 67.2639C142.031 67.0741 142.015 66.8836 141.995 66.6925C141.989 66.6242 141.979 66.5545 141.971 66.4861C141.967 66.4476 141.963 66.4085 141.958 66.37C141.948 66.2857 141.94 66.2015 141.929 66.1172C141.904 65.9227 141.876 65.7276 141.845 65.5319C141.823 65.3885 141.797 65.2452 141.772 65.1012C141.767 65.0753 141.763 65.0494 141.758 65.0236C141.754 64.9983 141.75 64.9725 141.745 64.9472C141.71 64.7561 141.671 64.565 141.631 64.3732C141.591 64.1841 141.549 63.995 141.504 63.8052C141.495 63.77 141.486 63.7342 141.477 63.699C141.47 63.6711 141.463 63.6426 141.456 63.6141C141.427 63.4953 141.398 63.3765 141.367 63.2577C141.319 63.0759 141.269 62.8947 141.218 62.7136C141.18 62.5822 141.14 62.4514 141.1 62.3207C141.093 62.2988 141.087 62.2763 141.08 62.2544C141.072 62.2291 141.066 62.2033 141.058 62.178C141.001 61.9962 140.942 61.8151 140.882 61.6339C140.815 61.4341 140.745 61.2357 140.673 61.0373C140.663 61.0074 140.65 60.9776 140.64 60.9477C140.625 60.9079 140.609 60.8688 140.594 60.8289C140.535 60.6717 140.478 60.5131 140.415 60.3565C140.338 60.1594 140.252 59.9649 140.169 59.7698C140.127 59.671 140.088 59.5721 140.045 59.4739C140.028 59.4347 140.012 59.3942 139.995 59.3551C139.92 59.1845 139.833 59.0193 139.754 58.8507C139.638 58.6046 139.525 58.3577 139.403 58.1161C139.383 58.0777 139.366 58.0378 139.347 57.9993C139.166 57.6463 138.977 57.2979 138.779 56.9555C138.648 56.7266 138.513 56.4996 138.375 56.276C138.264 56.0955 138.15 55.917 138.035 55.7405C138.032 55.7351 138.028 55.7305 138.026 55.7258C138.024 55.7232 138.022 55.7212 138.021 55.7186C137.904 55.5394 137.784 55.3615 137.663 55.187C137.543 55.0151 137.422 54.8453 137.299 54.6774C137.279 54.6502 137.258 54.6243 137.239 54.5977C137.217 54.5692 137.195 54.5407 137.174 54.5121C137.088 54.3967 137.002 54.2805 136.913 54.1677C136.782 53.9992 136.649 53.8326 136.513 53.6694C136.472 53.6196 136.43 53.5718 136.388 53.522C136.357 53.4849 136.325 53.4484 136.294 53.4119C136.227 53.3336 136.161 53.2539 136.093 53.1776C135.953 53.0177 135.809 52.8611 135.665 52.7078C135.602 52.6408 135.537 52.5764 135.473 52.5107C135.442 52.4782 135.41 52.4457 135.378 52.4132C135.33 52.3641 135.282 52.313 135.234 52.2645C135.092 52.1238 134.95 51.9865 134.805 51.8524C134.702 51.7562 134.597 51.6633 134.491 51.5704C134.471 51.5525 134.451 51.5346 134.432 51.5166C134.414 51.5007 134.396 51.4841 134.378 51.4682C134.239 51.3481 134.099 51.23 133.958 51.1158C133.818 51.003 133.678 50.8935 133.537 50.7867C133.504 50.7621 133.472 50.7376 133.439 50.7137C133.333 50.6347 133.226 50.5584 133.12 50.4841C132.983 50.3878 132.845 50.2949 132.708 50.2067C132.619 50.149 132.529 50.0952 132.44 50.0408C132.42 50.0282 132.398 50.0149 132.378 50.0023C132.351 49.9864 132.325 49.9691 132.299 49.9532C132.163 49.8722 132.027 49.7953 131.891 49.7223C131.753 49.6479 131.615 49.5769 131.478 49.5099C131.454 49.498 131.431 49.4887 131.407 49.4774C131.386 49.4674 131.365 49.4581 131.344 49.4482C131.251 49.4044 131.158 49.3606 131.066 49.3208C130.922 49.2591 130.78 49.2013 130.638 49.1482C130.569 49.1224 130.501 49.1011 130.432 49.0772C130.401 49.0666 130.372 49.056 130.342 49.0461C130.298 49.0315 130.254 49.0142 130.21 49.0003C130.056 48.9512 129.902 48.9074 129.751 48.8689C129.656 48.845 129.563 48.8271 129.47 48.8072C129.438 48.8005 129.405 48.7926 129.374 48.7859C129.342 48.7799 129.311 48.7713 129.281 48.7653C129.112 48.7342 128.945 48.7096 128.78 48.691C128.706 48.6831 128.634 48.6817 128.562 48.6764C128.506 48.6724 128.451 48.6678 128.395 48.6651C128.337 48.6625 128.279 48.6545 128.222 48.6539C128.009 48.6492 127.8 48.6552 127.594 48.6724C127.59 48.6731 127.586 48.6738 127.582 48.6744C127.535 48.6784 127.491 48.6904 127.444 48.6957C127.233 48.7189 127.024 48.7461 126.821 48.7926C126.805 48.7965 126.79 48.8045 126.772 48.8085C126.475 48.8801 126.185 48.9724 125.908 49.0938L122.225 50.7037C122.502 50.5823 122.791 50.49 123.089 50.4184C123.308 50.3659 123.534 50.3308 123.762 50.3056C123.808 50.3003 123.852 50.2883 123.898 50.2843C124.163 50.2618 124.435 50.2618 124.711 50.2757C124.766 50.2784 124.822 50.2823 124.877 50.287C125.144 50.3076 125.415 50.3421 125.691 50.3965C125.723 50.4031 125.756 50.4111 125.787 50.4177C126.074 50.4788 126.365 50.5571 126.659 50.6559C126.689 50.6659 126.719 50.6765 126.748 50.6865C127.049 50.7907 127.354 50.9141 127.661 51.0581C127.682 51.068 127.703 51.0773 127.724 51.0873C128.044 51.2399 128.368 51.4144 128.694 51.6115C128.715 51.6241 128.737 51.6381 128.758 51.6507C129.088 51.8531 129.421 52.0754 129.756 52.3229C130.094 52.5731 130.424 52.8425 130.749 53.1265C130.768 53.1438 130.788 53.1624 130.808 53.1803C131.11 53.447 131.406 53.7291 131.695 54.0224C131.727 54.0549 131.759 54.0881 131.791 54.1213C132.07 54.4099 132.344 54.7099 132.61 55.0211C132.642 55.0583 132.674 55.0948 132.706 55.1326C132.976 55.4524 133.238 55.7829 133.493 56.1234C133.513 56.1512 133.534 56.1784 133.555 56.2063C133.826 56.5726 134.09 56.9495 134.343 57.3371C134.346 57.3404 134.348 57.3444 134.35 57.3477C134.846 58.1069 135.302 58.9052 135.719 59.7267C135.842 59.9683 135.955 60.2158 136.07 60.4613C136.168 60.669 136.269 60.8747 136.361 61.0851C136.404 61.1833 136.444 61.2828 136.485 61.3811C136.634 61.7314 136.777 62.0838 136.91 62.4402C136.925 62.48 136.941 62.5191 136.955 62.559C137.114 62.9916 137.262 63.4276 137.397 63.8656C137.403 63.8875 137.41 63.91 137.416 63.9319C137.547 64.3619 137.666 64.7933 137.772 65.2253C137.779 65.2532 137.787 65.2817 137.793 65.3102C137.9 65.7522 137.994 66.1935 138.075 66.6348C138.079 66.6607 138.083 66.6865 138.088 66.7124C138.164 67.1371 138.225 67.5605 138.274 67.9812C138.279 68.0197 138.284 68.0589 138.288 68.0974C138.336 68.5307 138.371 68.9614 138.39 69.3881C138.39 69.3954 138.391 69.4033 138.391 69.4106C138.41 69.8406 138.411 70.2653 138.399 70.6854C138.398 70.7206 138.396 70.7551 138.395 70.7902C138.379 71.2103 138.35 71.6251 138.302 72.0319C138.255 72.438 138.19 72.8255 138.111 73.1985C138.104 73.233 138.096 73.2661 138.089 73.3C138.014 73.6417 137.927 73.9682 137.829 74.2808C137.815 74.3226 137.802 74.3637 137.789 74.4049C137.689 74.7068 137.578 74.9948 137.456 75.2682C137.434 75.3193 137.41 75.3691 137.386 75.4195C137.266 75.6763 137.137 75.9212 136.998 76.1515C136.984 76.176 136.97 76.2032 136.955 76.2278C136.795 76.4866 136.623 76.7275 136.44 76.9511C136.181 77.2683 135.894 77.5384 135.594 77.7833C135.521 77.8423 135.447 77.8987 135.372 77.9532C135.061 78.1814 134.736 78.3858 134.389 78.5378L138.072 76.9279C138.42 76.7759 138.743 76.5715 139.054 76.3439C139.129 76.2888 139.203 76.2331 139.276 76.1734C139.577 75.9285 139.864 75.6584 140.123 75.3412C140.127 75.3366 140.132 75.3333 140.135 75.3286C140.308 75.1156 140.471 74.8873 140.624 74.6425C140.628 74.6345 140.633 74.6252 140.638 74.6179C140.653 74.5933 140.665 74.5661 140.681 74.5416C140.774 74.387 140.865 74.2304 140.95 74.0638C140.992 73.9815 141.029 73.8933 141.069 73.8083C141.092 73.7585 141.115 73.7101 141.138 73.659C141.158 73.6125 141.182 73.5687 141.202 73.5216C141.274 73.3504 141.342 73.1739 141.407 72.9914C141.429 72.9277 141.448 72.86 141.47 72.795C141.484 72.7538 141.497 72.7127 141.51 72.6709C141.53 72.6072 141.553 72.5455 141.572 72.4798C141.62 72.3159 141.665 72.1486 141.707 71.9774C141.73 71.8832 141.75 71.7857 141.771 71.6894C141.778 71.6556 141.786 71.6217 141.794 71.5879C141.802 71.5474 141.812 71.5089 141.82 71.4685C141.853 71.3045 141.882 71.138 141.909 70.9674C141.936 70.7989 141.959 70.627 141.981 70.4518C141.982 70.4419 141.983 70.4312 141.984 70.4213C142.005 70.2614 142.021 70.1001 142.034 69.9375Z" fill="url(#paint17_linear_208_14464)"/>
<path d="M129.756 52.3222C135.275 56.4139 139.103 65.2411 138.303 72.0311C137.504 78.8211 132.377 81.0096 126.859 76.9185C121.34 72.8268 117.512 63.9995 118.312 57.2096C119.111 50.4196 124.238 48.2304 129.756 52.3222Z" fill="url(#paint18_linear_208_14464)"/>
<path opacity="0.4" d="M129.756 52.3224C126.591 49.9759 123.559 49.7045 121.395 51.1724C123.543 49.8658 126.478 50.1963 129.538 52.4644C135.057 56.5562 138.885 65.3834 138.085 72.1734C137.744 75.0687 136.612 77.1185 135.002 78.2102C136.728 77.1603 137.947 75.0554 138.303 72.0307C139.103 65.2414 135.274 56.4135 129.756 52.3224Z" fill="white"/>
<path d="M125.249 64.4711C124.489 64.4711 123.881 64.1745 123.423 63.5805C122.968 62.9866 122.739 62.262 122.739 61.4079C122.739 60.5691 122.968 59.8664 123.427 59.2983C123.887 58.7316 124.501 58.4482 125.272 58.4482C126.132 58.4482 126.769 58.7455 127.185 59.3421C127.597 59.938 127.805 60.6189 127.805 61.3847C127.805 62.3343 127.558 63.0861 127.062 63.6403C126.564 64.1937 125.96 64.4711 125.249 64.4711ZM125.256 63.2998C125.984 63.2998 126.349 62.6668 126.349 61.3999C126.349 60.1968 125.997 59.5943 125.296 59.5943C124.585 59.5943 124.229 60.1935 124.229 61.3913C124.228 62.6634 124.571 63.2998 125.256 63.2998ZM132.428 58.5504L125.738 69.3545H124.544L131.255 58.5504H132.428ZM131.636 69.4501C130.922 69.4501 130.334 69.174 129.868 68.6232C129.4 68.0718 129.167 67.3757 129.167 66.5369C129.167 65.5713 129.425 64.8095 129.946 64.2528C130.465 63.6967 131.062 63.4186 131.738 63.4186C132.377 63.4186 132.949 63.6768 133.455 64.1937C133.963 64.7113 134.216 65.4917 134.216 66.5369C134.216 67.4128 133.972 68.1169 133.485 68.6504C132.996 69.1833 132.38 69.4501 131.636 69.4501ZM131.7 68.302C132.075 68.302 132.348 68.1209 132.519 67.7599C132.689 67.3989 132.776 66.9828 132.776 66.5136C132.776 65.8328 132.693 65.3457 132.525 65.0524C132.36 64.7604 132.106 64.6138 131.763 64.6138C131.013 64.6138 130.638 65.2283 130.638 66.4572C130.639 67.6869 130.992 68.302 131.7 68.302Z" fill="white"/>
</g>
<defs>
<linearGradient id="paint0_linear_208_14464" x1="83.8679" y1="21.5582" x2="85.2298" y2="36.4252" gradientUnits="userSpaceOnUse">
<stop stop-color="#F5B419"/>
<stop offset="1" stop-color="#FDF2D8"/>
</linearGradient>
<linearGradient id="paint1_linear_208_14464" x1="84.4982" y1="7.5169" x2="89.9397" y2="83.0175" gradientUnits="userSpaceOnUse">
<stop stop-color="#8C3F14"/>
<stop offset="1" stop-color="#E27513"/>
</linearGradient>
<linearGradient id="paint2_linear_208_14464" x1="78.1153" y1="102.205" x2="82.9668" y2="40.5914" gradientUnits="userSpaceOnUse">
<stop stop-color="#F58B21"/>
<stop offset="1" stop-color="#F5B419"/>
</linearGradient>
<linearGradient id="paint3_linear_208_14464" x1="101.362" y1="17.1051" x2="102.724" y2="31.9721" gradientUnits="userSpaceOnUse">
<stop stop-color="#F5B419"/>
<stop offset="1" stop-color="#FDF2D8"/>
</linearGradient>
<linearGradient id="paint4_linear_208_14464" x1="100.887" y1="-3.72012" x2="107.803" y2="92.238" gradientUnits="userSpaceOnUse">
<stop stop-color="#8C3F14"/>
<stop offset="1" stop-color="#E27513"/>
</linearGradient>
<linearGradient id="paint5_linear_208_14464" x1="94.7951" y1="116.633" x2="100.962" y2="38.3113" gradientUnits="userSpaceOnUse">
<stop stop-color="#F58B21"/>
<stop offset="1" stop-color="#F5B419"/>
</linearGradient>
<linearGradient id="paint6_linear_208_14464" x1="67.2596" y1="27.8424" x2="68.6215" y2="42.7094" gradientUnits="userSpaceOnUse">
<stop stop-color="#F5B419"/>
<stop offset="1" stop-color="#FDF2D8"/>
</linearGradient>
<linearGradient id="paint7_linear_208_14464" x1="68.9337" y1="20.2057" x2="72.9831" y2="76.3913" gradientUnits="userSpaceOnUse">
<stop stop-color="#8C3F14"/>
<stop offset="1" stop-color="#E27513"/>
</linearGradient>
<linearGradient id="paint8_linear_208_14464" x1="62.2757" y1="90.663" x2="65.8851" y2="44.8236" gradientUnits="userSpaceOnUse">
<stop stop-color="#F58B21"/>
<stop offset="1" stop-color="#F5B419"/>
</linearGradient>
<linearGradient id="paint9_linear_208_14464" x1="50.6503" y1="29.5599" x2="52.0122" y2="44.4268" gradientUnits="userSpaceOnUse">
<stop stop-color="#F5B419"/>
<stop offset="1" stop-color="#FDF2D8"/>
</linearGradient>
<linearGradient id="paint10_linear_208_14464" x1="53.0709" y1="26.5143" x2="56.1225" y2="68.855" gradientUnits="userSpaceOnUse">
<stop stop-color="#8C3F14"/>
<stop offset="1" stop-color="#E27513"/>
</linearGradient>
<linearGradient id="paint11_linear_208_14464" x1="46.2174" y1="79.6027" x2="48.9365" y2="45.0704" gradientUnits="userSpaceOnUse">
<stop stop-color="#F58B21"/>
<stop offset="1" stop-color="#F5B419"/>
</linearGradient>
<linearGradient id="paint12_linear_208_14464" x1="34.0404" y1="33.5695" x2="35.4022" y2="48.4365" gradientUnits="userSpaceOnUse">
<stop stop-color="#F5B419"/>
<stop offset="1" stop-color="#FDF2D8"/>
</linearGradient>
<linearGradient id="paint13_linear_208_14464" x1="37.3564" y1="36.0261" x2="39.2122" y2="61.7758" gradientUnits="userSpaceOnUse">
<stop stop-color="#8C3F14"/>
<stop offset="1" stop-color="#E27513"/>
</linearGradient>
<linearGradient id="paint14_linear_208_14464" x1="30.2677" y1="68.3006" x2="31.9199" y2="47.3182" gradientUnits="userSpaceOnUse">
<stop stop-color="#F58B21"/>
<stop offset="1" stop-color="#F5B419"/>
</linearGradient>
<linearGradient id="paint15_linear_208_14464" x1="75.4948" y1="63.8862" x2="65.8642" y2="14.409" gradientUnits="userSpaceOnUse">
<stop stop-color="#9196C8"/>
<stop offset="1" stop-color="#2C3C91"/>
</linearGradient>
<linearGradient id="paint16_linear_208_14464" x1="80.1439" y1="-7.9732" x2="53.5393" y2="62.9324" gradientUnits="userSpaceOnUse">
<stop stop-color="#9196C8"/>
<stop offset="1" stop-color="#2C3C91"/>
</linearGradient>
<linearGradient id="paint17_linear_208_14464" x1="135.797" y1="75.9296" x2="130.301" y2="49.8089" gradientUnits="userSpaceOnUse">
<stop stop-color="#8C3F14"/>
<stop offset="1" stop-color="#E27513"/>
</linearGradient>
<linearGradient id="paint18_linear_208_14464" x1="131.544" y1="83.2737" x2="124.905" y2="45.0077" gradientUnits="userSpaceOnUse">
<stop stop-color="#F58B21"/>
<stop offset="1" stop-color="#F5B419"/>
</linearGradient>
<clipPath id="clip0_208_14464">
<rect width="159.897" height="115" fill="white"/>
</clipPath>
</defs>
</svg>
