<svg width="64" height="64" viewBox="0 0 64 64" fill="none" xmlns="http://www.w3.org/2000/svg">
<path fill-rule="evenodd" clip-rule="evenodd" d="M32.2599 24.4585L27.1697 24.5691L30.1921 34.9746C30.5681 36.2721 31.9392 37.0277 33.2403 36.648C34.593 36.648 35.2933 34.9009 34.9137 33.6034L32.2599 24.4585Z" fill="#B3B3B3"/>
<path fill-rule="evenodd" clip-rule="evenodd" d="M32.9712 9.2244L24.2505 14.499L27.1697 24.569L32.2599 24.4584L45.8349 24.1709L40.225 4.8418L32.9712 9.2244Z" fill="#FF6973"/>
<path fill-rule="evenodd" clip-rule="evenodd" d="M24.2505 14.499L21.2871 15.3578C19.658 15.8333 18.7107 17.5509 19.1825 19.1801L20.3878 23.3268C20.8596 24.956 22.5809 25.8996 24.21 25.4278L27.1697 24.569L24.2505 14.499Z" fill="#FFE366"/>
<path fill-rule="evenodd" clip-rule="evenodd" d="M41.5889 2.36128C40.5311 2.66718 39.9155 3.78408 40.2251 4.84188L45.835 24.1711C46.093 25.0668 46.9371 25.6455 47.8291 25.6123C47.9913 25.6086 48.1535 25.5828 48.3156 25.5349L49.038 25.3248C49.285 25.2511 49.5098 25.1368 49.7015 24.9857C50.3355 24.4992 50.6377 23.6514 50.4055 22.8442L44.7956 3.51498C44.486 2.45708 43.3692 1.84158 42.3113 2.15118L41.5889 2.36128Z" fill="#FFE366"/>
<path fill-rule="evenodd" clip-rule="evenodd" d="M24.2099 25.4278C22.5808 25.8996 20.8595 24.956 20.3877 23.3268L19.1824 19.1801C18.7106 17.5509 19.6579 15.8333 21.287 15.3578L24.2504 14.499L32.9711 9.22437H14.4903C13.5467 9.22437 12.7764 9.99837 12.7764 10.9384V23.7655V33.4669L25.6216 44.0714L29.7203 47.4514C30.6713 48.2365 30.369 48.2365 31.32 47.4514L36.0711 43.5295L47.829 33.817V25.6121C46.937 25.6453 46.093 25.0666 45.8349 24.1709L32.2599 24.4584L34.9137 33.6033C35.2933 34.9008 34.593 36.6479 33.2403 36.6479C31.9392 37.0276 30.5681 36.2719 30.1921 34.9745L27.1697 24.569L24.2099 25.4278Z" fill="#F7FDFF"/>
<path fill-rule="evenodd" clip-rule="evenodd" d="M12.7764 33.4671L6.17126 28.0193C5.00286 28.9666 4.33936 30.3046 4.33936 31.8674V56.8434C4.33936 58.6127 5.29396 60.1829 6.73886 61.1117L25.6215 44.0715L12.7764 33.4671Z" fill="#FFE366"/>
<path fill-rule="evenodd" clip-rule="evenodd" d="M12.7765 23.7656C9.99369 25.4169 7.34349 27.0682 6.17139 28.0192L12.7765 33.467V23.7656Z" fill="#F5D296"/>
<path fill-rule="evenodd" clip-rule="evenodd" d="M49.038 25.3248L48.3156 25.5349C48.1534 25.5828 47.9912 25.6086 47.8291 25.6123V33.8172L54.8617 28.0118L49.7015 24.9856C49.5098 25.1368 49.2849 25.2511 49.038 25.3248Z" fill="#F5D296"/>
<path fill-rule="evenodd" clip-rule="evenodd" d="M54.8615 28.0117L47.8289 33.8171L36.071 43.5296L55.0163 60.5661C56.052 59.6262 56.7044 58.3029 56.7044 56.8433V31.8673C56.7045 30.3891 56.1 28.7378 54.8615 28.0117Z" fill="#FFE366"/>
<path fill-rule="evenodd" clip-rule="evenodd" d="M36.071 43.5298L31.32 47.4516C30.3691 48.2367 30.6713 48.2367 29.7203 47.4516L25.6216 44.0716L6.73901 61.1118C7.60881 61.6721 8.65931 62.0001 9.78351 62.0001H51.2568C52.709 62.0001 54.0359 61.4546 55.0164 60.5663L36.071 43.5298Z" fill="#FFE366"/>
<path fill-rule="evenodd" clip-rule="evenodd" d="M4.3396 56.8432C4.3396 58.6125 5.2942 60.1827 6.7391 61.1115L11.8809 56.4709H4.3396V56.8432Z" fill="#FAC852"/>
<path fill-rule="evenodd" clip-rule="evenodd" d="M9.78351 62.0001H51.2568C52.709 62.0001 54.0359 61.4546 55.0164 60.5663L48.8684 55.0374C47.888 55.922 46.5611 56.4712 45.1088 56.4712H11.8808L6.73901 61.1118C7.60881 61.6721 8.65931 62.0001 9.78351 62.0001Z" fill="#FAC852"/>
<path fill-rule="evenodd" clip-rule="evenodd" d="M50.5565 51.3143C50.5565 52.7739 49.9041 54.0972 48.8684 55.0371L55.0164 60.566C56.0521 59.6261 56.7045 58.3028 56.7045 56.8432V31.8672C56.7045 30.3891 56.1 28.7378 54.8616 28.0117L50.5565 31.5687V51.3143Z" fill="#FAC852"/>
<path fill-rule="evenodd" clip-rule="evenodd" d="M12.7764 33.467L25.6216 44.0715L29.7203 47.4515C30.6713 48.2366 30.369 48.2366 31.32 47.4515L36.0711 43.5296L47.829 33.8171V27.9675L36.071 37.6764L31.32 41.6019C30.3691 42.387 30.6713 42.387 29.7203 41.6019L25.6216 38.2182L12.7764 27.6174V33.467Z" fill="#DBF4FC"/>
<path fill-rule="evenodd" clip-rule="evenodd" d="M20.3877 23.327C20.8595 24.9562 22.5808 25.8998 24.2099 25.428L27.1696 24.5692L26.215 21.2703L23.2516 22.1291C21.6224 22.6009 19.9012 21.6573 19.4294 20.0281L20.3877 23.327Z" fill="#FAC852"/>
<path fill-rule="evenodd" clip-rule="evenodd" d="M32.26 24.4585L45.835 24.171L44.8766 20.8721L31.3053 21.1596L26.2151 21.2702L27.1698 24.5691L32.26 24.4585Z" fill="#F2434F"/>
<path fill-rule="evenodd" clip-rule="evenodd" d="M45.8351 24.171C46.0931 25.0667 46.9372 25.6454 47.8292 25.6122C47.9914 25.6085 48.1536 25.5827 48.3157 25.5348L49.0381 25.3247C49.2851 25.251 49.5099 25.1367 49.7016 24.9856C50.3356 24.4991 50.6378 23.6513 50.4056 22.8441L49.4473 19.5525H49.451C49.6795 20.3597 49.3736 21.2001 48.747 21.6867C48.5516 21.8378 48.3305 21.9558 48.0799 22.0258L47.3575 22.2359C47.199 22.2838 47.0331 22.3096 46.8747 22.3133C45.979 22.3465 45.135 21.7678 44.877 20.8721L45.8351 24.171Z" fill="#FAC852"/>
<path fill-rule="evenodd" clip-rule="evenodd" d="M27.8442 26.8913L32.9344 26.7844L32.2599 24.4585L27.1697 24.5691L27.8442 26.8913Z" fill="#919191"/>
<path d="M53.4883 11.4679C53.6143 11.9054 54.0137 12.1896 54.4483 12.1896C54.5401 12.1896 54.6338 12.1769 54.7266 12.1496L58.6563 11.01C59.1866 10.8567 59.4922 10.302 59.3379 9.77166C59.1856 9.24136 58.6318 8.93576 58.0996 9.09006L54.1699 10.2297C53.6396 10.3829 53.334 10.9376 53.4883 11.4679Z" fill="white"/>
<path d="M52.3369 6.45899C52.4902 6.54299 52.6553 6.58299 52.8183 6.58299C53.1708 6.58299 53.5136 6.39649 53.6953 6.06539L55.667 2.48239C55.9336 1.99799 55.7568 1.39059 55.2734 1.12399C54.789 0.858387 54.1806 1.03319 53.915 1.51759L51.9433 5.10059C51.6768 5.58499 51.8535 6.19239 52.3369 6.45899Z" fill="white"/>
<path d="M60.1427 17.8955L56.5568 15.9228C56.0724 15.6562 55.464 15.832 55.1984 16.3164C54.9318 16.8008 55.1086 17.4092 55.592 17.6748L59.1779 19.6475C59.3312 19.7315 59.4963 19.7715 59.6593 19.7715C60.0118 19.7715 60.3546 19.585 60.5363 19.2539C60.8028 18.7695 60.6261 18.1611 60.1427 17.8955Z" fill="white"/>
<path d="M55.3672 27.1495L51.179 24.6931C51.178 24.6925 51.1776 24.6913 51.1781 24.6902C51.4853 24.0485 51.578 23.301 51.3653 22.5654L45.7559 3.23338C45.2891 1.64258 43.6182 0.725576 42.0323 1.19138L41.3096 1.40138C40.541 1.62408 39.9043 2.13478 39.5166 2.83988C39.2635 3.30068 39.1512 3.80788 39.1573 4.31738C39.1573 4.31818 39.1569 4.31888 39.1562 4.31928L32.6967 8.22428C32.6963 8.22448 32.6959 8.22468 32.6955 8.22468H14.4926C12.9925 8.22468 11.7764 9.44078 11.7764 10.9409V23.1966C11.7764 23.1974 11.7759 23.1982 11.7752 23.1986C8.65034 25.0643 6.54564 26.4278 5.54104 27.2433C4.12114 28.3947 3.33984 30.0363 3.33984 31.8673V56.8439C3.33984 58.8927 4.40824 60.8029 6.19824 61.9523C7.26174 62.6378 8.50104 63.0001 9.78324 63.0001H51.2568C52.9091 63.0001 54.4824 62.3995 55.6894 61.3067C56.9697 60.1436 57.704 58.5167 57.704 56.8438V31.8673C57.7041 30.3233 57.0918 28.1612 55.3672 27.1495ZM53.1191 28.149C53.1206 28.1498 53.1207 28.1518 53.1194 28.1528L48.8329 31.6925C48.8314 31.6937 48.8291 31.6926 48.8291 31.6907V26.427L49.3164 26.2852C49.4471 26.2474 49.5657 26.1895 49.687 26.136L53.1191 28.149ZM41.2695 3.80278C41.3994 3.56648 41.6113 3.39558 41.8662 3.32228C41.8672 3.32228 41.8672 3.32128 41.8682 3.32128L42.5928 3.11128C42.6856 3.08398 42.7793 3.07128 42.8721 3.07128C43.3057 3.07128 43.7071 3.35648 43.836 3.79298L49.4444 23.1211C49.5977 23.6533 49.2911 24.2109 48.7589 24.3652L48.0382 24.5742C47.503 24.7295 46.9484 24.4238 46.795 23.8926L41.1846 4.56058C41.1104 4.30768 41.1406 4.03818 41.2695 3.80278ZM39.6251 6.37268C39.6264 6.37188 39.6282 6.37258 39.6286 6.37398L44.5106 23.1957C44.511 23.1972 44.5099 23.1987 44.5084 23.1988L27.9178 23.553C27.9167 23.553 27.9158 23.5523 27.9155 23.5513L25.4243 14.9596C25.424 14.9586 25.4244 14.9575 25.4253 14.9569L39.6251 6.37268ZM31.515 25.4789L33.9541 33.8839C34.0957 34.3673 33.9902 34.9933 33.7051 35.3741C33.499 35.6485 33.3047 35.6485 33.2403 35.6485C33.1456 35.6485 33.0518 35.6622 32.961 35.6885C32.5889 35.7969 32.1954 35.753 31.8506 35.5635C31.5078 35.375 31.2608 35.0674 31.1524 34.6953L28.4943 25.5445C28.4939 25.543 28.495 25.5415 28.4965 25.5415L31.5127 25.477C31.5137 25.4772 31.5146 25.4778 31.515 25.4789ZM25.93 23.8855C25.9304 23.8867 25.9296 23.8881 25.9284 23.8884L23.9316 24.4669C23.3994 24.6222 22.8369 24.5577 22.3457 24.2892C21.8564 24.0197 21.5019 23.5792 21.3477 23.048L20.1443 18.9048C19.8238 17.8013 20.4646 16.6369 21.5682 16.3171L23.5662 15.7381C23.5674 15.7378 23.5688 15.7385 23.5691 15.7397L25.93 23.8855ZM13.7764 10.9409C13.7764 10.547 14.0987 10.2247 14.4926 10.2247H29.3794C29.3818 10.2247 29.3827 10.2278 29.3806 10.229L23.8475 13.574C23.8476 13.574 23.8473 13.5741 23.8475 13.574L21.009 14.3964C21.0092 14.3964 21.0089 14.3964 21.009 14.3964C18.9647 15.4186 17.8133 18.0507 18.4509 20.2456L19.3901 23.4792C19.6185 24.2654 20.0277 25.0062 20.6515 25.5364C21.4396 26.2061 22.3883 26.5507 23.3506 26.5507C23.7315 26.5507 24.1133 26.497 24.4883 26.3876L26.4862 25.8082C26.4874 25.8078 26.4888 25.8085 26.4891 25.8098L29.2088 35.175C29.366 35.7163 29.6171 36.2385 30.0098 36.6428C30.721 37.3749 31.6289 37.747 32.5518 37.747C32.8311 37.747 33.1114 37.7128 33.3877 37.6445C34.1416 37.6006 34.8174 37.2246 35.3057 36.5732C35.9688 35.6884 36.1924 34.4121 35.8741 33.3252L33.5841 25.4358C33.5837 25.4343 33.5848 25.4328 33.5863 25.4328L45.2136 25.1846C45.2144 25.1846 45.2151 25.185 45.2156 25.1856C45.484 25.6196 45.8504 25.9872 46.3117 26.2402C46.4773 26.3313 46.6537 26.3878 46.8293 26.4458V33.3461C46.8293 33.3468 46.829 33.3474 46.8284 33.3479L30.6836 46.6798C30.625 46.7286 30.5703 46.7745 30.5205 46.8175C30.4707 46.7745 30.416 46.7286 30.3574 46.6798L13.7772 32.9995C13.7767 32.9991 13.7763 32.9984 13.7763 32.9977L13.7764 10.9409ZM7.79794 28.0623C8.72914 27.4178 10.0751 26.5625 11.7726 25.5345C11.7742 25.5335 11.7763 25.5346 11.7763 25.5365V31.3437C11.7763 31.3457 11.774 31.3468 11.7725 31.3455L7.79794 28.066C7.79674 28.065 7.79664 28.0632 7.79794 28.0623ZM6.68914 59.8069C5.83754 59.0291 5.33994 57.9677 5.33994 56.8438V31.8673C5.33994 30.9111 5.64314 30.0593 6.22414 29.3624C6.22504 29.3614 6.22654 29.3612 6.22764 29.3621L24.0916 44.1023C24.0928 44.1032 24.0928 44.1049 24.0917 44.1059L6.69254 59.8069C6.69154 59.8078 6.69014 59.8078 6.68914 59.8069ZM51.2568 61.0001H9.78324C9.35914 61.0001 8.94354 60.9394 8.54384 60.8297L25.6512 45.3918C25.6521 45.391 25.6534 45.391 25.6543 45.3917L29.084 48.2217C29.209 48.3252 29.3106 48.4141 29.3965 48.4893C30.2344 49.2178 30.8018 49.2207 31.6436 48.4893C31.7295 48.4151 31.8321 48.3262 31.9571 48.2227L35.3861 45.3911C35.387 45.3904 35.3884 45.3904 35.3892 45.3912L52.4847 60.8184C52.0877 60.9262 51.6793 61.0001 51.2568 61.0001ZM55.7041 56.8439C55.7041 57.9651 55.2244 59.0177 54.3578 59.8122C54.3568 59.8131 54.3554 59.8131 54.3544 59.8123L36.9482 44.1047C36.9472 44.1037 36.9472 44.102 36.9483 44.1011L54.8644 29.3064C54.8654 29.3055 54.867 29.3056 54.8679 29.3066C55.442 29.9678 55.7042 30.9979 55.7042 31.8673L55.7041 56.8439Z" fill="black"/>
</svg>
