<svg width="62" height="63" viewBox="0 0 62 63" fill="none" xmlns="http://www.w3.org/2000/svg">
<g clip-path="url(#clip0_1030_365)">
<path d="M62 31.5C62 46.9734 50.6632 59.7984 35.8438 62.1234V40.4609H43.067L44.4414 31.5H35.8438V25.6851C35.8438 23.2329 37.045 20.8437 40.8958 20.8437H44.8047V13.2148C44.8047 13.2148 41.2566 12.6094 37.8648 12.6094C30.7845 12.6094 26.1562 16.9009 26.1562 24.6703V31.5H18.2852V40.4609H26.1562V62.1234C11.3368 59.7984 0 46.9734 0 31.5C0 14.3798 13.8798 0.5 31 0.5C48.1202 0.5 62 14.3798 62 31.5Z" fill="#1877F2"/>
<path d="M43.067 40.4609L44.4414 31.5H35.8438V25.685C35.8438 23.2334 37.0448 20.8438 40.8957 20.8438H44.8047V13.2148C44.8047 13.2148 41.2571 12.6094 37.8654 12.6094C30.7843 12.6094 26.1562 16.9009 26.1562 24.6703V31.5H18.2852V40.4609H26.1562V62.1233C27.7346 62.3709 29.3522 62.5 31 62.5C32.6478 62.5 34.2654 62.3709 35.8438 62.1233V40.4609H43.067Z" fill="white"/>
</g>
<defs>
<clipPath id="clip0_1030_365">
<rect width="62" height="62" fill="white" transform="translate(0 0.5)"/>
</clipPath>
</defs>
</svg>
