<svg width="62" height="62" viewBox="0 0 62 62" fill="none" xmlns="http://www.w3.org/2000/svg">
<circle cx="31" cy="31" r="31" fill="#C2E4FF"/>
<g clip-path="url(#clip0_1032_638)">
<path d="M34.3026 14.5814C31.6218 13.0307 28.1938 13.9509 26.646 16.6368L12.7521 40.7475C11.2044 43.4334 12.1228 46.8678 14.8036 48.4185C17.4844 49.9692 20.9124 49.049 22.4602 46.3631L36.3542 22.2524C37.9019 19.5665 36.9834 16.1321 34.3026 14.5814Z" fill="#FFC107"/>
<path d="M34.3024 14.5814C33.0502 13.857 31.635 13.6721 30.3245 13.9542C30.881 14.0742 31.4288 14.2809 31.9483 14.5814C34.6291 16.1321 35.5476 19.5665 33.9998 22.2524L20.1059 46.3631C19.2811 47.7943 17.9223 48.7239 16.4272 49.0457C18.7424 49.5451 21.2122 48.5284 22.46 46.3631L36.3539 22.2524C37.9018 19.5665 36.9832 16.1321 34.3024 14.5814Z" fill="#FFB300"/>
<path d="M17.5991 49.1719C20.6914 49.1719 23.1982 46.6603 23.1982 43.5622C23.1982 40.4641 20.6914 37.9525 17.5991 37.9525C14.5068 37.9525 12 40.4641 12 43.5622C12 46.6603 14.5068 49.1719 17.5991 49.1719Z" fill="#4CAF50"/>
<path d="M16.4272 49.0458C16.4269 49.0465 16.4267 49.0471 16.4265 49.0477C16.8048 49.1284 17.1968 49.1718 17.5991 49.1718C20.6914 49.1718 23.1982 46.6603 23.1982 43.5622C23.1982 42.8739 23.0739 42.2148 22.8475 41.6055L20.1059 46.3632C19.2811 47.7944 17.9223 48.7239 16.4272 49.0458Z" fill="#43A047"/>
<path d="M50.2482 40.7474L36.3543 16.6368C34.8065 13.9509 31.3786 13.0307 28.6977 14.5814C26.0169 16.1321 25.0984 19.5666 26.6462 22.2525L40.5401 46.3631C42.0879 49.049 45.5158 49.9693 48.1967 48.4186C50.8774 46.8679 51.796 43.4333 50.2482 40.7474Z" fill="#2196F3"/>
<path d="M50.2482 40.7475L36.3543 16.6369C35.1064 14.4715 32.6367 13.4548 30.3215 13.9543C31.8166 14.276 33.1754 15.2056 34.0002 16.6369L47.8942 40.7476C49.442 43.4335 48.5234 46.8679 45.8426 48.4186C45.3231 48.7191 44.7754 48.9258 44.2189 49.0458C45.5293 49.3279 46.9445 49.1429 48.1968 48.4186C50.8774 46.8679 51.796 43.4334 50.2482 40.7475Z" fill="#1E88E5"/>
</g>
<defs>
<clipPath id="clip0_1032_638">
<rect width="39" height="39" fill="white" transform="translate(12 12)"/>
</clipPath>
</defs>
</svg>
