<svg width="62" height="62" viewBox="0 0 62 62" fill="none" xmlns="http://www.w3.org/2000/svg">
<g clip-path="url(#clip0_1032_431)">
<path d="M62 31C62 13.8792 48.1208 0 31 0C13.8792 0 0 13.8792 0 31C0 48.1208 13.8792 62 31 62C48.1208 62 62 48.1208 62 31Z" fill="url(#paint0_linear_1032_431)"/>
<path opacity="0.1" d="M54.3317 10.6053C49.8122 18.9018 43.4205 27.4595 35.434 35.446C27.4474 43.4326 18.8897 49.8121 10.6054 54.3316C10.086 53.8802 9.58159 53.4097 9.09212 52.9203C6.13348 50.0604 3.77381 46.6401 2.15071 42.8589C0.527608 39.0776 -0.326448 35.011 -0.361658 30.8963C-0.396868 26.7816 0.387472 22.701 1.94563 18.8925C3.50379 15.084 5.80457 11.6239 8.71384 8.71379C11.6231 5.80372 15.0826 3.50196 18.8907 1.94274C22.6987 0.383523 26.7791 -0.401957 30.8938 -0.367895C35.0086 -0.333834 39.0754 0.519087 42.8571 2.14113C46.6388 3.76318 50.0597 6.12189 52.9204 9.07973C53.4099 9.5692 53.8803 10.0777 54.3317 10.6053Z" fill="white"/>
<path d="M38.3422 14.6842H23.658C21.278 14.6842 18.9955 15.6296 17.3127 17.3125C15.6298 18.9954 14.6843 21.2779 14.6843 23.6579V38.3421C14.6843 40.7221 15.6298 43.0046 17.3127 44.6875C18.9955 46.3703 21.278 47.3158 23.658 47.3158H38.3422C40.7222 47.3158 43.0047 46.3703 44.6876 44.6875C46.3705 43.0046 47.3159 40.7221 47.3159 38.3421V23.6579C47.3159 21.2779 46.3705 18.9954 44.6876 17.3125C43.0047 15.6296 40.7222 14.6842 38.3422 14.6842ZM44.4606 37.0532C44.4606 39.0177 43.6802 40.9018 42.2911 42.291C40.9019 43.6801 39.0178 44.4605 37.0533 44.4605H24.947C22.9824 44.4605 21.0983 43.6801 19.7092 42.291C18.32 40.9018 17.5396 39.0177 17.5396 37.0532V24.9468C17.5396 22.9823 18.32 21.0982 19.7092 19.709C21.0983 18.3199 22.9824 17.5395 24.947 17.5395H37.0533C39.0178 17.5395 40.9019 18.3199 42.2911 19.709C43.6802 21.0982 44.4606 22.9823 44.4606 24.9468V37.0532Z" fill="white"/>
<path d="M36.9511 25.11L36.8736 25.0325L36.8083 24.9672C35.266 23.4303 33.1772 22.5678 30.9999 22.5688C29.9004 22.5763 28.8131 22.8003 27.8002 23.2281C26.7873 23.6559 25.8686 24.2791 25.0966 25.0621C24.3246 25.8451 23.7145 26.7725 23.301 27.7913C22.8876 28.8102 22.6789 29.9005 22.687 31C22.6853 33.2314 23.5649 35.3732 25.1344 36.9593C25.9031 37.7374 26.8192 38.3546 27.829 38.7748C28.8389 39.195 29.9224 39.4098 31.0162 39.4067C32.6569 39.3723 34.2521 38.8612 35.6074 37.9357C36.9626 37.0103 38.0192 35.7105 38.6484 34.1948C39.2776 32.6791 39.4521 31.0131 39.1507 29.4C38.8494 27.7868 38.0851 26.2962 36.9511 25.11ZM30.9999 36.5311C29.9028 36.5464 28.8259 36.2352 27.9062 35.6368C26.9865 35.0385 26.2655 34.1801 25.8349 33.1709C25.4044 32.1617 25.2837 31.0472 25.4883 29.9692C25.6929 28.8913 26.2135 27.8985 26.9838 27.1172C27.7542 26.3359 28.7395 25.8014 29.8145 25.5816C30.8895 25.3618 32.0055 25.4667 33.0207 25.883C34.0359 26.2992 34.9044 27.008 35.5156 27.9192C36.1269 28.8304 36.4533 29.9028 36.4534 31C36.4588 31.7213 36.322 32.4367 36.0508 33.1051C35.7796 33.7735 35.3793 34.382 34.8728 34.8956C34.3664 35.4093 33.7636 35.8181 33.0991 36.0987C32.4346 36.3793 31.7212 36.5262 30.9999 36.5311Z" fill="white"/>
<path d="M41.7806 22.1813C41.7828 22.4431 41.7333 22.7027 41.635 22.9452C41.5367 23.1878 41.3915 23.4087 41.2077 23.5951C41.024 23.7815 40.8052 23.9298 40.5641 24.0316C40.3229 24.1334 40.0641 24.1866 39.8023 24.1882C39.5428 24.188 39.2858 24.1364 39.0464 24.0363C38.8069 23.9362 38.5897 23.7895 38.4073 23.6049C38.131 23.3245 37.943 22.9692 37.8667 22.583C37.7904 22.1968 37.8292 21.7967 37.9782 21.4323C38.1271 21.0679 38.3798 20.7553 38.7048 20.5331C39.0298 20.311 39.4128 20.1891 39.8064 20.1826C40.2671 20.1825 40.7132 20.3442 41.0668 20.6395L41.1076 20.6803C41.1734 20.7338 41.2335 20.794 41.2871 20.8597L41.3319 20.9087C41.6239 21.2684 41.7824 21.718 41.7806 22.1813Z" fill="white"/>
</g>
<defs>
<linearGradient id="paint0_linear_1032_431" x1="9.07974" y1="9.07974" x2="52.9203" y2="52.9203" gradientUnits="userSpaceOnUse">
<stop stop-color="#FAE100"/>
<stop offset="0.15" stop-color="#FCB720"/>
<stop offset="0.3" stop-color="#FF7950"/>
<stop offset="0.5" stop-color="#FF1C74"/>
<stop offset="1" stop-color="#6C1CD1"/>
</linearGradient>
<clipPath id="clip0_1032_431">
<rect width="62" height="62" fill="white"/>
</clipPath>
</defs>
</svg>
