<svg width="142" height="69" viewBox="0 0 142 69" fill="none" xmlns="http://www.w3.org/2000/svg">
<g clip-path="url(#clip0_1032_887)">
<path d="M42.7878 27.2686C42.7878 20.4504 42.8066 13.6321 42.769 6.79509C42.769 6.02499 42.9944 5.85594 43.727 5.85594C53.7947 5.87472 63.8812 5.87472 73.9489 5.83716C74.7566 5.83716 75.0947 6.00621 75.0759 6.90779C75.0008 8.84245 75.0196 10.7959 75.0759 12.7305C75.0947 13.5194 74.8505 13.7448 74.0804 13.726C66.8489 13.7073 59.6174 13.7073 52.386 13.726C50.7518 13.726 50.9584 13.4631 50.8833 15.1911C50.7706 17.7268 50.8645 20.2626 50.8457 22.7983C50.8457 23.4745 51.1087 23.6435 51.7285 23.6435C55.0719 23.6247 58.4341 23.6247 61.7775 23.6247C65.5905 23.6247 69.4222 23.6435 73.2352 23.6059C74.0053 23.6059 74.287 23.8126 74.2494 24.6014C74.1931 26.4422 74.1931 28.3017 74.2494 30.1425C74.2682 31.0065 73.9489 31.1943 73.16 31.1755C66.1539 31.1567 59.1479 31.1755 52.123 31.138C51.2026 31.138 50.9209 31.3446 50.8833 32.3213C50.8082 34.9509 50.8645 37.5805 50.9209 40.1914C50.9397 40.661 51.1275 40.8676 51.5971 40.8676C52.123 40.8488 52.6677 40.8676 53.1936 40.8676C60.1058 40.8676 67.018 40.8864 73.9489 40.8488C74.7942 40.8488 75.0947 41.0366 75.0571 41.9382C74.982 43.9104 75.0008 45.8827 75.0571 47.8549C75.0759 48.6438 74.8317 48.8504 74.0616 48.8504C65.9661 48.8316 57.8518 48.8316 49.7563 48.8316C47.7841 48.8316 45.8119 48.794 43.8397 48.8316C43.032 48.8504 42.7502 48.625 42.7502 47.7798C42.7878 40.9803 42.769 34.1245 42.7878 27.2686C42.769 27.2686 42.769 27.2686 42.7878 27.2686Z" fill="#F9BC15"/>
<path d="M120.888 50.1842C119.216 48.813 117.789 47.1976 116.267 45.6574C115.704 45.0939 115.385 45.0752 114.746 45.5447C105.467 52.1752 93.4835 51.1797 85.4256 43.1593C79.2272 36.9797 77.2925 27.0622 80.6922 18.9855C84.6367 9.65029 93.5962 4.22199 103.701 5.12357C107.74 5.48045 111.403 6.92675 114.708 9.3122C115.197 9.65029 115.216 9.91326 114.896 10.364C113.769 12.017 112.661 13.6887 111.59 15.3791C111.233 15.9426 110.952 15.8487 110.501 15.5106C107.721 13.3693 104.547 12.3738 101.053 12.449C93.9155 12.5805 87.7171 18.0275 86.6465 25.1275C85.5758 32.2275 89.4827 38.9519 96.207 41.5252C102.518 43.967 110.031 41.6191 113.863 35.8527C116.906 31.2696 117.3 26.3484 115.122 21.2958C114.859 20.7135 114.896 20.2627 115.178 19.7368C116.173 17.7458 117.169 15.7548 118.108 13.7638C118.427 13.0688 118.653 12.9937 119.141 13.6323C123.386 19.2484 124.795 25.522 123.349 32.4154C122.691 35.5521 121.358 38.4072 119.404 40.9429C119.028 41.4312 119.028 41.7318 119.479 42.1826C121.095 43.7603 122.654 45.3757 124.213 46.991C124.307 47.2352 124.156 47.4043 124.006 47.5733C123.217 48.3998 122.409 49.2074 121.583 49.9963C121.433 50.1466 121.207 50.3532 120.888 50.1842Z" fill="#EC4231"/>
<path d="M18.8617 49.5893C14.5416 49.6081 10.6911 49.101 7.12231 47.2602C3.85405 45.5698 1.5813 42.9589 0.097439 39.5967C-0.0903917 39.1459 -0.0152594 38.9205 0.397968 38.7139C2.29506 37.756 4.17336 36.7793 6.07045 35.7838C6.42733 35.5959 6.65273 35.502 6.87813 35.9716C8.83157 39.9724 12.344 41.6441 16.5138 42.1888C19.3125 42.5457 22.0736 42.3578 24.722 41.2684C27.8776 39.9912 29.399 36.9483 28.2908 34.1121C27.6522 32.478 26.281 31.6139 24.7596 30.9565C22.5056 29.9986 20.1202 29.7544 17.716 29.4539C14.4853 29.0407 11.3109 28.4208 8.32442 27.0309C4.30485 25.1713 2.12601 22.0721 1.8067 17.6957C1.4686 13.0187 3.25299 9.41234 7.235 6.9142C9.77072 5.31763 12.5694 4.49118 15.5371 4.19065C20.3456 3.68351 25.0414 4.11552 29.4178 6.38827C31.8408 7.64674 33.6816 9.50626 35.0339 11.9105C35.3157 12.4176 35.2406 12.6618 34.7334 12.9248C32.9678 13.8076 31.221 14.7092 29.4742 15.6108C29.0797 15.8174 28.8355 15.7986 28.535 15.4229C25.5673 11.9293 21.6416 10.8962 17.2464 11.1592C15.7437 11.2531 14.2599 11.5348 12.9075 12.2298C11.6115 12.8684 10.5972 13.77 10.09 15.1224C9.30114 17.2261 10.1276 19.3298 12.1186 20.3629C14.2974 21.4899 16.6829 21.8092 19.0683 22.1285C22.6371 22.5981 26.1871 23.124 29.5305 24.6078C35.2218 27.1436 37.2128 31.6515 36.5929 37.4555C35.9355 43.6539 31.8972 46.9034 26.2623 48.5938C23.7265 49.3639 21.1345 49.6457 18.8617 49.5893Z" fill="#537EC0"/>
<path d="M120.888 50.184C122.221 49.3199 123.179 48.0803 124.25 46.9533C126.034 45.8075 126.542 45.8826 128.044 47.3853C132.383 51.7242 136.722 56.0631 141.061 60.4019C142.301 61.6416 142.301 62.6371 141.08 63.8768C139.953 65.0226 138.845 66.1496 137.699 67.2578C136.647 68.2721 135.595 68.3096 134.581 67.3141C129.96 62.731 125.377 58.1104 120.775 53.5086C119.986 52.7197 119.949 51.7805 120.569 50.8601C120.7 50.616 120.944 50.4657 120.888 50.184Z" fill="white"/>
<path d="M117.864 10.533C116.568 13.2002 115.29 15.8862 113.976 18.5346C111.196 24.1696 108.397 29.7857 105.617 35.4206C105.542 35.5521 105.467 35.6836 105.298 36.0029C104.547 34.5754 103.87 33.2793 103.175 31.9645C102.142 29.9923 101.128 28.0389 100.114 26.0666C99.7381 25.3529 99.4376 25.4844 99.0619 26.1042C96.9582 29.5791 94.8169 33.0164 92.6944 36.4912C92.3751 37.036 92.1122 37.0547 91.7553 36.5664C91.6801 36.4725 91.5862 36.3785 91.5111 36.2846C89.2759 33.7865 89.2759 33.7677 91.0791 31.0254C93.9153 26.724 96.7704 22.4227 99.6066 18.1214C99.6817 18.0275 99.7569 17.9336 99.9447 17.7082C101.692 21.1079 103.401 24.4137 105.204 27.9074C105.936 26.818 106.575 25.8412 107.233 24.8833C110.463 20.0185 113.694 15.1349 116.925 10.2701C117.037 10.0823 117.188 9.93199 117.319 9.76294C117.826 9.76294 118.033 10.0071 117.864 10.533Z" fill="#2CA953"/>
<path d="M117.864 10.533C117.845 10.1573 117.601 9.93192 117.3 9.76287C118.446 7.99727 119.592 6.21287 120.719 4.44727C119.892 6.55097 118.991 8.59832 117.864 10.533Z" fill="#4F9E6A"/>
<path d="M123.086 0.690674C123.198 1.81766 122.992 2.77559 122.804 3.84623C122.56 2.36237 121.79 1.87401 120.381 2.45628C121.17 1.70496 122.071 1.25417 123.086 0.690674Z" fill="#4DA266"/>
</g>
<defs>
<clipPath id="clip0_1032_887">
<rect width="142" height="67.3373" fill="white" transform="translate(0 0.69043)"/>
</clipPath>
</defs>
</svg>
