<svg width="26" height="22" viewBox="0 0 26 22" fill="none" xmlns="http://www.w3.org/2000/svg">
<path d="M0.505184 11.1011C0.505184 10.4439 1.03858 9.91045 1.69581 9.91045L21.2572 9.91045L14.1783 2.64481C14.0644 2.53389 13.9738 2.40128 13.9119 2.2548C13.8501 2.10832 13.8182 1.95093 13.8182 1.79193C13.8182 1.63293 13.85 1.47553 13.9118 1.32902C13.9735 1.18252 14.0641 1.04987 14.1779 0.938913C14.2918 0.827954 14.4268 0.740931 14.5749 0.682977C14.7229 0.625023 14.8811 0.597314 15.04 0.601484C15.199 0.605654 15.3555 0.641619 15.5003 0.707256C15.6451 0.772894 15.7753 0.866874 15.8833 0.983652L24.9291 10.2676C25.1482 10.4897 25.271 10.7891 25.271 11.1011C25.271 11.413 25.1482 11.7124 24.9291 11.9345L15.8833 21.2185C15.7753 21.3353 15.6451 21.4293 15.5003 21.4949C15.3555 21.5605 15.199 21.5965 15.04 21.6007C14.8811 21.6048 14.7229 21.5771 14.5749 21.5192C14.4268 21.4612 14.2918 21.3742 14.1779 21.2632C14.0641 21.1523 13.9735 21.0196 13.9118 20.8731C13.85 20.7266 13.8182 20.5692 13.8182 20.4102C13.8182 20.2512 13.8501 20.0938 13.9119 19.9473C13.9738 19.8009 14.0644 19.6683 14.1783 19.5573L21.2572 12.2917L1.69581 12.2917C1.03858 12.2917 0.505184 11.7583 0.505184 11.1011Z" fill="white"/>
</svg>
