<svg width="100" height="100" viewBox="0 0 100 100" fill="none" xmlns="http://www.w3.org/2000/svg">
<circle cx="49.7778" cy="49.7778" r="49.0278" stroke="white" stroke-width="1.5"/>
<g clip-path="url(#clip0_975_772)">
<path d="M56.191 37.6626C57.9917 38.0139 59.6467 38.8946 60.944 40.1919C62.2413 41.4892 63.122 43.1442 63.4733 44.9449M56.191 30.2881C59.9322 30.7037 63.4209 32.3791 66.0843 35.0391C68.7477 37.6992 70.4275 41.1858 70.8478 44.9265M69.0042 59.6386V65.1694C69.0063 65.6829 68.9011 66.1911 68.6954 66.6616C68.4897 67.132 68.188 67.5543 67.8096 67.9014C67.4313 68.2485 66.9846 68.5128 66.4982 68.6773C66.0118 68.8418 65.4964 68.9029 64.9851 68.8567C59.3119 68.2402 53.8625 66.3017 49.0746 63.1967C44.6201 60.3662 40.8435 56.5895 38.0129 52.135C34.8971 47.3254 32.9581 41.8494 32.353 36.1508C32.3069 35.641 32.3675 35.1272 32.5309 34.642C32.6943 34.1569 32.9569 33.7111 33.302 33.3331C33.6471 32.955 34.0672 32.6529 34.5354 32.4461C35.0037 32.2393 35.5099 32.1322 36.0218 32.1317H41.5526C42.4474 32.1229 43.3148 32.4398 43.9932 33.0232C44.6716 33.6066 45.1147 34.4168 45.2399 35.3028C45.4733 37.0728 45.9063 38.8107 46.5304 40.4833C46.7785 41.1432 46.8322 41.8604 46.6851 42.5498C46.5381 43.2393 46.1965 43.8721 45.7008 44.3734L43.3594 46.7148C45.9839 51.3304 49.8055 55.152 54.4211 57.7765L56.7625 55.4351C57.2638 54.9394 57.8966 54.5978 58.5861 54.4508C59.2755 54.3037 59.9927 54.3574 60.6526 54.6055C62.3252 55.2296 64.0631 55.6626 65.8331 55.896C66.7287 56.0223 67.5466 56.4734 68.1313 57.1635C68.7159 57.8535 69.0266 58.7344 69.0042 59.6386Z" stroke="white" stroke-width="3.68724" stroke-linecap="round" stroke-linejoin="round"/>
</g>
<defs>
<clipPath id="clip0_975_772">
<rect width="44.2469" height="44.2469" fill="white" transform="translate(28.4445 28.4445)"/>
</clipPath>
</defs>
</svg>
