<svg width="69" height="81" viewBox="0 0 69 81" fill="none" xmlns="http://www.w3.org/2000/svg">
<path d="M45.3055 28.1201C45.9532 28.1201 46.478 27.5953 46.478 26.9477V25.4088C46.478 24.7611 45.9532 24.2363 45.3055 24.2363C44.6578 24.2363 44.1331 24.7611 44.1331 25.4088V26.9477C44.1331 27.5953 44.658 28.1201 45.3055 28.1201Z" fill="#B6CCFF"/>
<path d="M35.2042 28.1201C35.8518 28.1201 36.3766 27.5953 36.3766 26.9477V25.4088C36.3766 24.7611 35.8518 24.2363 35.2042 24.2363C34.5565 24.2363 34.0317 24.7611 34.0317 25.4088V26.9477C34.0317 27.5953 34.5567 28.1201 35.2042 28.1201Z" fill="#B6CCFF"/>
<path d="M40.2435 37.4358C42.5113 37.4358 44.3563 35.5907 44.3563 33.3228C44.3563 32.6752 43.8315 32.1504 43.1838 32.1504C42.5362 32.1504 42.0114 32.6752 42.0114 33.3228C42.0114 34.2977 41.2183 35.0909 40.2435 35.0909C39.2686 35.0909 38.4756 34.2978 38.4756 33.3228C38.4756 32.6752 37.9508 32.1504 37.3031 32.1504C36.6555 32.1504 36.1307 32.6752 36.1307 33.3228C36.1307 35.5907 37.9756 37.4358 40.2435 37.4358Z" fill="#B6CCFF"/>
<path d="M66.9502 63.4079C67.5978 63.4079 68.1226 62.8831 68.1226 62.2354V58.5993C68.1226 55.2408 65.9775 52.2848 62.7737 51.2405L48.2752 46.673V42.0087C51.6588 39.5104 53.3229 35.4236 53.1792 31.2883C55.8691 31.4949 58.8001 29.9004 58.8001 26.8491V24.4013C58.8001 23.2289 58.3424 22.1618 57.5973 21.3675C57.6125 21.2921 57.6206 18.0232 57.6206 18.0232C57.6206 17.3755 57.0958 16.8507 56.4482 16.8507C55.8005 16.8507 55.2757 17.3755 55.2757 18.0232V19.9616H38.863C36.9236 19.9616 35.3456 18.3837 35.3456 16.4443V6.40033C35.3456 4.46094 36.9236 2.88298 38.863 2.88298H46.8216C51.4832 2.88298 55.2757 6.67546 55.2757 11.3371V12.9129C55.2757 13.5605 55.8005 14.0853 56.4482 14.0853C57.0958 14.0853 57.6206 13.5605 57.6206 12.9129V11.3371C57.6208 5.38249 52.7762 0.538086 46.8217 0.538086H38.8631C35.9739 0.538086 33.5679 2.63943 33.0891 5.3939H31.1233C26.5979 5.3939 22.9161 9.0757 22.9161 13.601C22.9161 13.601 22.9227 21.2607 22.9324 21.3218C22.1617 22.1208 21.686 23.2062 21.686 24.4013V26.8491C21.686 29.853 24.6034 31.5187 27.3072 31.2883C27.0492 35.3998 28.8792 39.5486 32.2111 42.0087V46.7197L21.6632 50.6621C20.6367 51.0473 19.741 51.7092 19.0733 52.5763L12.2805 61.3942V57.4698C12.2805 56.4109 11.8093 55.4603 11.0663 54.8149V49.9593C11.0663 47.9741 9.45111 46.3589 7.46592 46.3589C5.48073 46.3589 3.86572 47.9741 3.86572 49.9593V53.9525C1.39639 53.9525 0.223938 55.338 0.223938 57.4698V67.3478C0.223938 68.9068 1.24412 70.2317 2.65153 70.6915V74.715C2.65153 80.3543 9.93556 82.8049 13.4398 78.0197L19.6473 70.5198V79.3985C19.6473 80.0462 20.1721 80.571 20.8198 80.571H66.9502C67.5978 80.571 68.1226 80.0462 68.1226 79.3985V67.3457C68.1226 66.6981 67.5978 66.1733 66.9502 66.1733C66.3025 66.1733 65.7777 66.6981 65.7777 67.3457V78.2261H58.4111V62.6697C58.4111 62.0221 57.8864 61.4973 57.2387 61.4973C56.591 61.4973 56.0662 62.0221 56.0662 62.6697V63.6188H21.9924V62.4088C21.9924 61.7611 21.4676 61.2364 20.8199 61.2364C20.1723 61.2364 19.6475 61.7611 19.6475 62.4088V66.8422L11.5972 76.5687C9.67778 78.8855 4.99658 78.9555 4.99658 74.715V70.8653H8.72153V72.1207C8.72153 72.7684 9.24632 73.2932 9.89398 73.2932C10.5416 73.2932 11.0664 72.7684 11.0664 72.1207V70.0028C11.8098 69.3574 12.2812 68.4066 12.2812 67.3472V65.2357L20.9311 54.0072C21.3319 53.4866 21.8701 53.0891 22.4856 52.858L33.1933 48.8558L39.5378 53.633C39.9965 53.9783 40.6009 53.8989 41.0233 53.5767L47.3248 48.8319L62.0581 53.4733C64.2828 54.1987 65.7777 56.2585 65.7777 58.5991V62.2353C65.7777 62.8831 66.3027 63.4079 66.9502 63.4079ZM56.0662 65.9638V73.377H35.9383C35.2906 73.377 34.7658 73.9018 34.7658 74.5494C34.7658 75.1971 35.2906 75.7219 35.9383 75.7219H56.0664V78.2262H21.9924V75.7219H30.8295C31.4772 75.7219 32.002 75.1971 32.002 74.5494C32.002 73.9018 31.4772 73.377 30.8295 73.377H21.9924V65.9638H56.0662ZM6.21062 49.9596C6.21062 49.2672 6.77386 48.7041 7.46592 48.7041C8.15829 48.7041 8.72137 49.2674 8.72137 49.9596V53.9528H6.21062V49.9596ZM2.56899 57.4701C2.56899 56.8236 3.09487 56.2977 3.74144 56.2977H8.76327C9.40984 56.2977 9.93572 56.8236 9.93572 57.4701V58.8088H6.25235C5.60469 58.8088 5.07991 59.3336 5.07991 59.9812C5.07991 60.6289 5.60469 61.1537 6.25235 61.1537H9.93572V63.6647H6.25235C5.60469 63.6647 5.07991 64.1895 5.07991 64.8372C5.07991 65.4848 5.60469 66.0096 6.25235 66.0096H9.93572V67.3483C9.93572 68.13 9.46158 68.4676 8.76405 68.5201L3.74144 68.5207C3.09487 68.5207 2.56899 67.9948 2.56899 67.3483V57.4701ZM56.4553 26.8491C56.4553 28.004 55.5158 28.9434 54.361 28.9434H53.1794V22.3069H54.361C55.516 22.3069 56.4553 23.2464 56.4553 24.4012V26.8491ZM25.261 13.601C25.261 10.3685 27.8907 7.73879 31.1233 7.73879H33.0009V16.4443V16.4446C33.0009 18.384 31.4229 19.962 29.4836 19.962H28.4798H25.261V13.601ZM26.1254 28.9434C24.9704 28.9434 24.031 28.0039 24.031 26.8491V24.4013C24.031 23.2464 24.9706 22.307 26.1254 22.307H27.3073V28.9435L26.1254 28.9434ZM29.6522 32.3196V22.3026C31.4989 22.2501 33.1347 21.3411 34.1735 19.9577C35.2439 21.3828 36.9477 22.3065 38.8631 22.3065H50.8342L50.8345 32.3196C50.8345 45.2031 29.6522 45.188 29.6522 32.3196ZM45.9303 43.3615V46.9433L40.2435 51.2285L34.5562 46.9431V43.3617C37.3519 45.0391 42.9275 44.9348 45.9303 43.3615Z" fill="#B6CCFF"/>
<path d="M6.63722 34.0478C7.18999 34.5056 7.74276 34.5056 8.29538 34.0478L13.1512 29.1919C13.6091 28.7338 13.6091 27.9916 13.151 27.5337C12.6933 27.076 11.9509 27.076 11.493 27.5337L7.46638 31.5607L5.86747 29.9616C5.40943 29.5039 4.6672 29.5039 4.20932 29.9616C3.75144 30.4197 3.75144 31.1619 4.20932 31.6198L6.63722 34.0478Z" fill="#B6CCFF"/>
<path d="M3.74165 41.7297H13.6194C15.5588 41.7297 17.1368 40.1518 17.1368 38.2124V36.8738H20.8203C22.0584 36.8639 22.6056 35.9195 21.654 34.877L17.1368 30.3082V23.3679C17.1368 21.4285 15.5588 19.8506 13.6194 19.8506H3.74165C1.80226 19.8506 0.224304 21.4285 0.224304 23.3679V38.2124C0.224304 40.1518 1.80211 41.7297 3.74165 41.7297ZM2.5692 23.3679C2.5692 22.7214 3.09508 22.1955 3.74165 22.1955H13.6194C14.266 22.1955 14.7919 22.7214 14.7919 23.3679V30.7902C14.7919 31.0989 14.9135 31.395 15.1307 31.6145L18.0124 34.529H15.9643C15.3167 34.529 14.7919 35.0538 14.7919 35.7015V38.2124C14.7919 38.8589 14.266 39.3848 13.6194 39.3848H3.74165C3.09508 39.3848 2.5692 38.8589 2.5692 38.2124V23.3679Z" fill="#B6CCFF"/>
</svg>
