<svg width="57" height="79" viewBox="0 0 57 79" fill="none" xmlns="http://www.w3.org/2000/svg">
<path d="M56.7317 43.7528L50.176 32.4509C50.3762 32.2174 50.642 32.0357 50.9586 31.9266C52.6716 31.3364 54.0643 29.8502 54.6843 27.9512C55.3043 26.0522 55.0551 24.035 54.018 22.5552C53.5797 21.93 53.5796 21.1533 54.0178 20.5281C55.0551 19.0484 55.3045 17.0312 54.6845 15.1322C54.0646 13.2332 52.6717 11.7469 50.9588 11.1567C50.235 10.9072 49.7762 10.2788 49.7615 9.51682C49.7268 7.71292 48.7374 5.93504 47.1144 4.7615C45.4914 3.58766 43.4869 3.20013 41.7525 3.7249C41.0195 3.94674 40.2775 3.70664 39.8156 3.09865C38.7223 1.65915 36.8719 0.799957 34.8659 0.799805C34.8658 0.799805 34.8658 0.799805 34.8656 0.799805C32.8596 0.799805 31.0091 1.659 29.9158 3.09804C29.4539 3.70619 28.712 3.94613 27.9791 3.7246C26.2447 3.20013 24.2402 3.58751 22.6171 4.76105C20.9942 5.93474 20.0044 7.71246 19.9697 9.51636C19.9551 10.2786 19.4965 10.9072 18.7728 11.1564C17.0597 11.7466 15.667 13.2328 15.047 15.1318C14.427 17.0308 14.6761 19.0481 15.7133 20.528C16.1516 21.1531 16.1517 21.9299 15.7135 22.5549C14.6761 24.0346 14.4268 26.0518 15.0468 27.9508C15.6667 29.8499 17.0596 31.3361 18.7725 31.9265C19.0891 32.0356 19.3549 32.2172 19.5552 32.4508L12.9994 43.7528C12.66 44.3382 12.6914 45.045 13.0813 45.5977C13.4713 46.1504 14.1289 46.4197 14.7974 46.3003L21.1634 45.164L23.3579 51.2202C23.5884 51.8559 24.1516 52.2879 24.8274 52.3475C24.8804 52.3522 24.933 52.3545 24.9853 52.3545C25.6001 52.3545 26.1605 52.035 26.4734 51.4956L32.1462 41.7157C32.9724 42.0824 33.9005 42.2831 34.8656 42.2831C35.8308 42.2831 36.759 42.0824 37.5852 41.7157L43.258 51.4959C43.571 52.035 44.131 52.3545 44.7459 52.3545C44.7983 52.3545 44.851 52.3521 44.9042 52.3475C45.58 52.2876 46.143 51.8555 46.3735 51.2196L48.5678 45.164L54.9341 46.3003C55.6022 46.4197 56.26 46.1504 56.6501 45.5974C57.0401 45.0447 57.0712 44.3377 56.7317 43.7528ZM25.1316 48.9401L23.1138 43.3717C22.9116 42.8135 22.3343 42.481 21.7475 42.5866L15.8938 43.6314L20.4749 35.7336C20.9256 36.727 21.6599 37.6297 22.6167 38.3217C24.2396 39.4955 26.2439 39.8827 27.9785 39.3583C28.7117 39.1364 29.4536 39.3767 29.9154 39.9845C29.9918 40.0851 30.0728 40.1822 30.1564 40.277L25.1316 48.9401ZM31.8663 38.5164C31.0478 37.4389 29.8129 36.8428 28.517 36.8428C28.103 36.8428 27.6825 36.9036 27.2675 37.0291C26.2621 37.3333 25.0609 37.0803 24.0543 36.3522C23.0479 35.6243 22.4349 34.5655 22.4149 33.5198C22.3807 31.7377 21.2651 30.2093 19.5726 29.6261C18.5796 29.2839 17.7574 28.3765 17.3728 27.1985C16.9883 26.0207 17.1178 24.8055 17.7192 23.9478C18.7438 22.4861 18.7438 20.5969 17.719 19.1349C17.1178 18.277 16.9883 17.0618 17.3729 15.884C17.7574 14.7062 18.5798 13.7989 19.5728 13.4568C21.2651 12.8737 22.3807 11.3454 22.4149 9.56292C22.4349 8.51719 23.0479 7.45822 24.0545 6.73033C25.0611 6.00259 26.2623 5.74972 27.2677 6.05372C28.9811 6.57194 30.7862 5.98814 31.8663 4.56629C32.5003 3.7322 33.6215 3.23421 34.8658 3.23421C36.1099 3.23421 37.231 3.73236 37.8648 4.5666C38.9449 5.98844 40.7504 6.57209 42.4636 6.05372C43.4688 5.74972 44.6702 6.00259 45.6768 6.73064C46.6832 7.45852 47.2962 8.51734 47.3162 9.56307C47.3505 11.3452 48.466 12.8737 50.1585 13.4569C51.1515 13.7991 51.9738 14.7065 52.3582 15.8843C52.7427 17.0621 52.6132 18.2773 52.012 19.135C50.9872 20.5969 50.9872 22.4861 52.012 23.948C52.6132 24.8058 52.7427 26.021 52.3582 27.1988C51.9738 28.3765 51.1514 29.2839 50.1585 29.6261C48.4662 30.2093 47.3505 31.7376 47.3162 33.5199C47.2962 34.5657 46.6832 35.6246 45.6766 36.3525C44.6702 37.0803 43.469 37.3331 42.4636 37.0291C40.7504 36.5109 38.9451 37.0946 37.8649 38.5164C37.2312 39.3507 36.1099 39.8488 34.8658 39.8488C33.6213 39.8488 32.5001 39.3508 31.8663 38.5164ZM47.9835 42.5868C47.3969 42.4812 46.8196 42.8136 46.6172 43.3718L44.5994 48.9401L39.5745 40.2771C39.6582 40.1823 39.739 40.0854 39.8154 39.9848C40.2774 39.3768 41.0191 39.1369 41.7522 39.3584C43.4867 39.883 45.4909 39.4957 47.114 38.322C48.0709 37.63 48.8052 36.7273 49.2559 35.7337L53.837 43.6316L47.9835 42.5868ZM50.3178 53.8403C49.0397 53.4995 47.7085 53.6723 46.5687 54.3271L34.659 61.1712C34.5492 60.5962 34.3433 60.0361 34.0417 59.5115C33.3317 58.2762 32.1863 57.3913 30.8165 57.0204L16.9568 53.2656C15.008 52.7376 12.917 53.2674 10.9093 54.7976L7.54468 57.3624L7.5005 57.1987C7.209 56.1161 6.08699 55.4715 4.99969 55.7613L1.70216 56.6407C1.17616 56.781 0.736071 57.1176 0.462907 57.5883C0.189743 58.0591 0.117135 58.6067 0.258073 59.1302L5.03913 76.8903C5.2834 77.7973 6.11053 78.3969 7.01211 78.3968C7.18653 78.3968 7.36385 78.3744 7.5401 78.3274L10.8378 77.448C11.9252 77.158 12.5731 76.0412 12.2816 74.9586L12.1487 74.465C13.9965 73.1287 15.6512 72.7743 17.7219 73.2469L25.6605 75.0584C26.3707 75.2203 27.0628 75.3014 27.7357 75.3014C29.1335 75.3013 30.447 74.9521 31.6583 74.2561L51.511 62.8477C53.8706 61.4918 54.682 58.4775 53.3199 56.1285C52.6619 54.9939 51.5957 54.1812 50.3178 53.8403ZM7.29704 75.8718L2.72495 58.8883L5.24258 58.2169L9.81468 75.2004L7.29704 75.8718ZM50.2882 60.7392L30.4354 72.1478C29.176 72.8714 27.7927 73.0474 26.2069 72.6855L18.2684 70.874C15.7911 70.3091 13.6423 70.6489 11.4798 71.9801L8.22965 59.907L12.3965 56.7307C13.7949 55.6646 15.113 55.289 16.3147 55.6146L30.1743 59.3694C30.9137 59.5698 31.5333 60.0497 31.9189 60.7207C32.3044 61.3917 32.4061 62.1664 32.2048 62.9025C31.7861 64.4334 30.194 65.3393 28.6556 64.9234L21.2521 62.9176C20.6003 62.7408 19.9282 63.1236 19.751 63.7724C19.5737 64.421 19.9581 65.0898 20.6098 65.2663L28.0133 67.2721C28.4808 67.3989 28.9508 67.4591 29.4137 67.4591C31.5511 67.4591 33.5301 66.1692 34.3551 64.157L47.7918 56.4355C48.3655 56.1059 49.0377 56.0191 49.6848 56.1918C50.3317 56.3643 50.8704 56.7739 51.2015 57.3451C51.8895 58.5318 51.4799 60.0544 50.2882 60.7392ZM48.6146 21.5419C48.6146 13.9958 42.4468 7.8567 34.8655 7.8567C27.2842 7.8567 21.1163 13.9958 21.1163 21.5419C21.1163 29.0879 27.2842 35.2271 34.8655 35.2271C42.4468 35.2271 48.6146 29.0878 48.6146 21.5419ZM23.5621 21.5419C23.5621 15.3383 28.6329 10.2911 34.8655 10.2911C41.0981 10.2911 46.1688 15.3383 46.1688 21.5419C46.1688 24.3459 45.1306 26.9114 43.4198 28.8836C42.2907 27.3108 40.7705 26.0993 39.0279 25.3531C40.3103 24.2123 41.1195 22.5549 41.1195 20.7124C41.1195 17.28 38.314 14.4874 34.8656 14.4874C31.4172 14.4874 28.6116 17.28 28.6116 20.7124C28.6116 22.5549 29.4209 24.2124 30.7032 25.3531C28.9604 26.0993 27.4404 27.311 26.3113 28.8838C24.6005 26.9114 23.5621 24.3459 23.5621 21.5419ZM34.8656 24.5027C32.7658 24.5027 31.0574 22.8023 31.0574 20.7122C31.0574 18.6221 32.7658 16.9217 34.8656 16.9217C36.9655 16.9217 38.6737 18.6221 38.6737 20.7122C38.6737 22.8023 36.9653 24.5027 34.8656 24.5027ZM28.1192 30.5632C29.6121 28.3053 32.118 26.937 34.8658 26.937C37.6135 26.937 40.1193 28.3053 41.6122 30.5632C39.7279 31.9628 37.3924 32.7925 34.8658 32.7925C32.3391 32.7925 30.0034 31.963 28.1192 30.5632Z" fill="#B6CCFF"/>
</svg>
