<svg width="69" height="68" viewBox="0 0 69 68" fill="none" xmlns="http://www.w3.org/2000/svg">
<path d="M30.3489 26.708C30.0947 26.744 29.8615 26.8687 29.6903 27.0599C29.5191 27.2511 29.421 27.4967 29.4132 27.7532L29.3764 28.9839L21.3501 32.9971L19.0121 32.6842C19.6706 32.0312 20.1305 31.205 20.3386 30.3014C20.5468 29.3977 20.4946 28.4536 20.1882 27.5784C19.8818 26.7032 19.3337 25.9327 18.6073 25.3562C17.881 24.7798 17.0062 24.4209 16.0842 24.3212C15.1623 24.2215 14.231 24.3851 13.3982 24.793C12.5654 25.2009 11.8653 25.8364 11.3789 26.6259C10.8925 27.4154 10.6397 28.3266 10.6499 29.2538C10.6601 30.1811 10.9328 31.0865 11.4365 31.8651C10.5678 31.9957 9.7596 32.3878 9.11924 32.989C8.47889 33.5903 8.03679 34.3723 7.85175 35.231L5.58704 46.3152C5.4893 46.8047 5.50489 47.3101 5.6326 47.7926C5.76032 48.2751 5.99678 48.722 6.32387 49.099L4.20535 55.4676L0.939072 63.0889C0.867996 63.2545 0.839145 63.4351 0.85511 63.6146C0.871075 63.794 0.931356 63.9667 1.03054 64.1171C1.12973 64.2675 1.26471 64.391 1.42337 64.4763C1.58204 64.5617 1.75942 64.6063 1.93959 64.6062H6.29462C6.48656 64.6062 6.67509 64.5555 6.84109 64.4591C7.00709 64.3628 7.14466 64.2242 7.23984 64.0575L11.5949 56.4362C11.6529 56.3347 11.6941 56.2245 11.7172 56.1098L12.5143 52.124L12.8904 52.2853L13.9202 63.6163C13.945 63.8868 14.0699 64.1383 14.2706 64.3215C14.4712 64.5046 14.733 64.6061 15.0047 64.6062H19.3597C19.5031 64.6061 19.6451 64.5778 19.7776 64.5227C19.91 64.4677 20.0302 64.387 20.1314 64.2853C20.2326 64.1837 20.3126 64.063 20.3671 63.9303C20.4215 63.7977 20.4491 63.6555 20.4485 63.5121L20.3794 51.3678C20.4473 50.5687 20.216 49.773 19.7303 49.1349L17.2439 45.8165L18.1253 40.5301L24.9577 39.554C25.1572 39.5251 25.3449 39.4416 25.4999 39.3127L29.1593 36.2669C29.155 36.4125 29.1799 36.5575 29.2326 36.6932C29.2854 36.829 29.3648 36.9528 29.4663 37.0573C29.5677 37.1617 29.6892 37.2448 29.8233 37.3015C29.9575 37.3581 30.1017 37.3873 30.2473 37.3872C30.2948 37.3872 30.3422 37.384 30.3893 37.3776C49.416 34.8748 60.7543 18.6136 64.4799 13.2697C64.5268 13.2027 64.5725 13.1379 64.6166 13.0741L66.8861 13.9172C67.0582 13.981 67.2437 14.0002 67.4253 13.9731C67.6068 13.946 67.7786 13.8734 67.9246 13.7622C68.0706 13.6509 68.1862 13.5045 68.2605 13.3366C68.3348 13.1688 68.3654 12.9848 68.3496 12.8019L67.5395 3.54106C67.5245 3.3684 67.4685 3.20181 67.3761 3.05516C67.2838 2.90851 67.1577 2.78604 67.0085 2.69795C66.8592 2.60985 66.6911 2.55868 66.5181 2.54869C66.345 2.53869 66.1721 2.57017 66.0137 2.64049L56.7571 6.74353C56.5753 6.82407 56.419 6.95289 56.3052 7.116C56.1914 7.27911 56.1245 7.47028 56.1118 7.66874C56.099 7.8672 56.1408 8.06537 56.2328 8.24172C56.3247 8.41806 56.4632 8.56585 56.6332 8.66902L58.5641 9.84183C53.5785 16.4958 46.7968 21.588 39.0164 24.5199C36.2131 25.5548 33.3075 26.2883 30.3489 26.708ZM15.5491 26.4996C16.0874 26.4996 16.6137 26.6593 17.0613 26.9583C17.5089 27.2574 17.8578 27.6825 18.0638 28.1799C18.2698 28.6773 18.3237 29.2245 18.2187 29.7525C18.1136 30.2805 17.8544 30.7655 17.4737 31.1462C17.0931 31.5269 16.6081 31.7861 16.0801 31.8911C15.5521 31.9961 15.0048 31.9422 14.5074 31.7362C14.0101 31.5302 13.585 31.1813 13.2859 30.7337C12.9868 30.2861 12.8272 29.7599 12.8272 29.2215C12.8279 28.4999 13.1149 27.808 13.6252 27.2977C14.1355 26.7874 14.8274 26.5004 15.5491 26.4996ZM9.61672 55.5091L5.66305 62.4287H3.58973L6.2388 56.2406L8.22453 50.2834L10.4693 51.2466L9.61672 55.5091ZM29.2457 33.3622L24.3442 37.4414L17.028 38.4866C16.799 38.5194 16.5864 38.6243 16.4211 38.786C16.2557 38.9477 16.1461 39.1579 16.1083 39.3861L15.0195 45.9187C14.9954 46.0638 15.0009 46.2122 15.0357 46.3551C15.0705 46.4981 15.1339 46.6324 15.222 46.7501L17.995 50.4502C18.1689 50.6915 18.2442 50.99 18.2055 51.2849L18.2651 62.4287H15.9988L15.0004 51.4422C14.9826 51.2468 14.9124 51.0599 14.7971 50.9012C14.6818 50.7425 14.5258 50.6179 14.3455 50.5406L8.35412 47.9697C8.12461 47.8703 7.93634 47.6949 7.82102 47.4729C7.7057 47.251 7.67036 46.9961 7.72096 46.7512L9.98248 35.6818C10.0963 35.1528 10.4044 34.6857 10.8458 34.3727C11.2872 34.0597 11.8299 33.9236 12.3668 33.9912L21.3926 35.2001C21.6089 35.2278 21.8286 35.1912 22.0242 35.0949L29.3027 31.4556L29.2457 33.3622ZM61.0308 10.1544C61.117 10.0325 61.1772 9.89413 61.2077 9.74794C61.2381 9.60176 61.2381 9.45087 61.2078 9.30467C61.1774 9.15847 61.1173 9.02008 61.0311 8.89811C60.945 8.77614 60.8347 8.6732 60.707 8.5957L59.5449 7.88971L65.5033 5.24863L66.0307 11.2772L64.5889 10.7413C64.3655 10.6587 64.1212 10.6515 63.8933 10.7208C63.6654 10.7902 63.4665 10.9322 63.3269 11.1252C63.1546 11.3633 62.9436 11.6663 62.6937 12.0247C59.1887 17.0517 48.6914 32.1072 31.3744 35.029L31.5625 28.7261C34.3614 28.2689 37.11 27.5448 39.7708 26.5634C48.3335 23.3331 55.7364 17.6193 61.0308 10.1544Z" fill="#B6CCFF"/>
<path d="M48.1985 11.3992L47.2187 10.8516C47.24 10.622 47.2506 10.3941 47.2506 10.168C47.2506 9.9415 47.24 9.71361 47.2187 9.4843L48.198 8.93673C48.4092 8.81851 48.5751 8.63332 48.6694 8.41038C48.7638 8.18744 48.7812 7.93944 48.719 7.7055C48.2547 5.97444 47.3215 4.4052 46.0221 3.17082C45.8535 3.01088 45.6383 2.90895 45.4077 2.87988C45.1772 2.85081 44.9434 2.89612 44.7404 3.0092L43.7962 3.53764C43.7626 3.5553 43.7241 3.56128 43.6867 3.55465C43.2866 3.29211 42.8729 3.05078 42.4475 2.83165V1.77799C42.4475 1.53833 42.3684 1.30537 42.2225 1.11525C42.0766 0.925124 41.872 0.788454 41.6405 0.726433C40.7227 0.485783 39.7775 0.366034 38.8287 0.370223C37.9656 0.383911 37.1075 0.504987 36.2743 0.730657C36.0428 0.792767 35.8383 0.92946 35.6924 1.11956C35.5465 1.30967 35.4674 1.54257 35.4673 1.7822L35.4577 2.86987C35.029 3.06362 34.6173 3.29303 34.227 3.55566C34.1902 3.56356 34.1518 3.5571 34.1196 3.53759L33.1792 3.01234C32.9763 2.89922 32.7425 2.8539 32.512 2.88297C32.2816 2.91204 32.0664 3.01399 31.898 3.17395C30.5966 4.40645 29.6612 5.97472 29.1952 7.70548C29.133 7.93943 29.1504 8.18743 29.2447 8.41037C29.3391 8.63331 29.5049 8.8185 29.7162 8.93672L30.696 9.48429C30.6747 9.71395 30.6641 9.94184 30.6641 10.168C30.6641 10.3944 30.6747 10.6223 30.696 10.8516L29.7167 11.3992C29.5054 11.5173 29.3395 11.7025 29.2451 11.9255C29.1508 12.1484 29.1334 12.3965 29.1957 12.6304C29.6594 14.3617 30.5928 15.9311 31.8926 17.1651C32.0612 17.3251 32.2764 17.427 32.507 17.4561C32.7376 17.4852 32.9714 17.4398 33.1744 17.3267L34.1185 16.7983C34.1344 16.7876 34.1525 16.7806 34.1714 16.7777C34.1903 16.7747 34.2097 16.776 34.2281 16.7813C34.6283 17.0436 35.0419 17.285 35.4673 17.5043V18.5579C35.4673 18.7976 35.5464 19.0306 35.6923 19.2207C35.8382 19.4108 36.0428 19.5475 36.2743 19.6095C37.1476 19.8452 38.048 19.9653 38.9526 19.9667C38.9967 19.9667 39.0414 19.9656 39.086 19.9656C39.9492 19.952 40.8072 19.8309 41.6405 19.6052C41.8719 19.5431 42.0764 19.4064 42.2223 19.2163C42.3682 19.0262 42.4473 18.7933 42.4475 18.5537L42.457 17.466C42.8859 17.2721 43.2977 17.0427 43.6883 16.7802C43.7064 16.7758 43.7252 16.7751 43.7436 16.7782C43.7619 16.7813 43.7795 16.7882 43.7951 16.7983L44.7356 17.3235C44.9383 17.4372 45.1722 17.4828 45.4028 17.4537C45.6334 17.4246 45.8486 17.3224 46.0168 17.1619C47.3182 15.9294 48.2535 14.3612 48.7195 12.6304C48.7817 12.3964 48.7643 12.1484 48.67 11.9255C48.5756 11.7026 48.4097 11.5174 48.1985 11.3992ZM44.9668 9.10153C45.1086 9.80543 45.1086 10.5305 44.9668 11.2344C44.924 11.459 44.953 11.6914 45.0497 11.8987C45.1463 12.1059 45.3057 12.2774 45.5053 12.389L46.3543 12.8632C46.0458 13.6463 45.6084 14.3722 45.0604 15.011L44.8562 14.8972C44.4901 14.6899 44.0741 14.5874 43.6536 14.6009C43.2331 14.6144 42.8244 14.7434 42.4724 14.9738C42.1829 15.1684 41.8776 15.3384 41.5596 15.482C41.1732 15.6597 40.8462 15.9449 40.6175 16.3035C40.3888 16.6621 40.2681 17.079 40.2699 17.5043V17.6776C39.8696 17.7462 39.4645 17.7831 39.0584 17.7882C38.5848 17.7981 38.1114 17.7621 37.6448 17.6808V17.5043C37.6466 17.079 37.5259 16.6621 37.2972 16.3035C37.0685 15.9449 36.7414 15.6597 36.3551 15.482C36.038 15.3388 35.7335 15.1691 35.4449 14.9748C35.0921 14.7448 34.683 14.6159 34.262 14.6023C33.8411 14.5886 33.4244 14.6906 33.0574 14.8972L32.8501 15.0131C32.303 14.3737 31.867 13.647 31.5604 12.8632L32.4094 12.389C32.609 12.2774 32.7684 12.1059 32.865 11.8986C32.9617 11.6914 32.9907 11.459 32.9479 11.2343C32.8061 10.5305 32.8061 9.80536 32.9479 9.10147C32.9907 8.87685 32.9617 8.64447 32.865 8.43726C32.7684 8.23004 32.609 8.05848 32.4094 7.9469L31.5604 7.47269C31.8689 6.68961 32.3062 5.96368 32.8543 5.32495L33.0579 5.43871C33.4242 5.64575 33.8403 5.74811 34.2608 5.73461C34.6813 5.72111 35.09 5.59227 35.4423 5.36216C35.7318 5.16753 36.0371 4.99753 36.3551 4.85393C36.7414 4.67618 37.0685 4.39098 37.2972 4.03239C37.5259 3.67379 37.6465 3.25695 37.6448 2.83165V2.65829C38.0451 2.58973 38.4502 2.55276 38.8563 2.54772C39.33 2.53497 39.8036 2.57095 40.2699 2.6551V2.8316C40.2681 3.25691 40.3888 3.67375 40.6175 4.03234C40.8462 4.39094 41.1732 4.67613 41.5596 4.85388C41.8765 4.99702 42.181 5.1663 42.4697 5.35998C42.8222 5.59092 43.2313 5.72042 43.6525 5.7343C44.0736 5.74818 44.4904 5.6459 44.8573 5.43867L45.0646 5.32277C45.6114 5.96248 46.0473 6.68913 46.3544 7.47264L45.5053 7.9469C45.3057 8.05849 45.1463 8.23005 45.0497 8.43728C44.953 8.64452 44.924 8.87691 44.9668 9.10153Z" fill="#B6CCFF"/>
<path d="M38.9574 5.81348C38.096 5.81348 37.254 6.06889 36.5379 6.54743C35.8217 7.02597 35.2635 7.70613 34.9339 8.50191C34.6042 9.29769 34.518 10.1733 34.686 11.0181C34.8541 11.8629 35.2689 12.6389 35.8779 13.248C36.487 13.857 37.263 14.2718 38.1078 14.4399C38.9526 14.6079 39.8282 14.5217 40.624 14.192C41.4198 13.8624 42.0999 13.3042 42.5785 12.588C43.057 11.8719 43.3124 11.0299 43.3124 10.1685C43.3112 9.01386 42.852 7.90686 42.0355 7.0904C41.219 6.27393 40.112 5.81471 38.9574 5.81348ZM38.9574 12.346C38.5267 12.346 38.1057 12.2183 37.7476 11.9791C37.3895 11.7398 37.1104 11.3997 36.9456 11.0018C36.7808 10.6039 36.7377 10.1661 36.8217 9.7437C36.9057 9.3213 37.1131 8.93331 37.4177 8.62877C37.7222 8.32424 38.1102 8.11685 38.5326 8.03283C38.955 7.94881 39.3928 7.99194 39.7907 8.15675C40.1886 8.32156 40.5287 8.60066 40.7679 8.95875C41.0072 9.31684 41.1349 9.73784 41.1349 10.1685C41.1343 10.7458 40.9046 11.2993 40.4964 11.7075C40.0882 12.1157 39.5347 12.3454 38.9574 12.346Z" fill="#B6CCFF"/>
<path d="M55.2887 30.8545C55.1457 30.8545 55.0041 30.8826 54.872 30.9373C54.7399 30.992 54.6198 31.0722 54.5187 31.1733C54.4176 31.2744 54.3374 31.3944 54.2827 31.5266C54.228 31.6587 54.1999 31.8003 54.1999 31.9433V63.5173C54.1999 63.6602 54.228 63.8018 54.2827 63.934C54.3374 64.0661 54.4176 64.1861 54.5187 64.2872C54.6198 64.3883 54.7399 64.4685 54.872 64.5232C55.0041 64.5779 55.1457 64.6061 55.2887 64.606H63.9987C64.1417 64.6061 64.2833 64.5779 64.4154 64.5232C64.5476 64.4685 64.6676 64.3883 64.7687 64.2872C64.8698 64.1861 64.95 64.0661 65.0047 63.934C65.0594 63.8018 65.0875 63.6602 65.0875 63.5173V31.9433C65.0875 31.8003 65.0594 31.6587 65.0047 31.5266C64.95 31.3944 64.8698 31.2744 64.7687 31.1733C64.6676 31.0722 64.5476 30.992 64.4154 30.9373C64.2833 30.8826 64.1417 30.8545 63.9987 30.8545H55.2887ZM62.91 62.4285H56.3774V33.032H62.91V62.4285Z" fill="#B6CCFF"/>
<path d="M41.1351 39.5645C40.9921 39.5644 40.8505 39.5926 40.7184 39.6473C40.5862 39.702 40.4662 39.7822 40.3651 39.8833C40.264 39.9844 40.1838 40.1044 40.1291 40.2365C40.0744 40.3686 40.0463 40.5102 40.0463 40.6532V63.5171C40.0463 63.6601 40.0744 63.8017 40.1291 63.9338C40.1838 64.066 40.264 64.186 40.3651 64.2871C40.4662 64.3882 40.5862 64.4684 40.7184 64.5231C40.8505 64.5778 40.9921 64.6059 41.1351 64.6059H49.8451C49.9881 64.6059 50.1297 64.5778 50.2618 64.5231C50.3939 64.4684 50.514 64.3882 50.6151 64.2871C50.7162 64.186 50.7964 64.066 50.8511 63.9338C50.9058 63.8017 50.9339 63.6601 50.9339 63.5171V40.6532C50.9339 40.5102 50.9058 40.3686 50.8511 40.2365C50.7964 40.1044 50.7162 39.9844 50.6151 39.8833C50.514 39.7822 50.3939 39.702 50.2618 39.6473C50.1297 39.5926 49.9881 39.5644 49.8451 39.5645H41.1351ZM48.7564 62.4284H42.2238V41.742H48.7564V62.4284Z" fill="#B6CCFF"/>
<path d="M26.9811 45.0088C26.8381 45.0088 26.6965 45.0369 26.5644 45.0916C26.4323 45.1463 26.3122 45.2265 26.2111 45.3276C26.11 45.4287 26.0298 45.5487 25.9751 45.6809C25.9204 45.813 25.8923 45.9546 25.8923 46.0975V63.5177C25.8923 63.6607 25.9204 63.8023 25.9751 63.9344C26.0298 64.0665 26.11 64.1865 26.2111 64.2876C26.3122 64.3888 26.4323 64.4689 26.5644 64.5236C26.6965 64.5784 26.8381 64.6065 26.9811 64.6064H35.6912C35.8342 64.6065 35.9757 64.5784 36.1079 64.5236C36.24 64.4689 36.36 64.3888 36.4611 64.2876C36.5622 64.1865 36.6424 64.0665 36.6971 63.9344C36.7518 63.8023 36.78 63.6607 36.7799 63.5177V46.0975C36.78 45.9546 36.7518 45.813 36.6971 45.6809C36.6424 45.5487 36.5622 45.4287 36.4611 45.3276C36.36 45.2265 36.24 45.1463 36.1079 45.0916C35.9757 45.0369 35.8342 45.0088 35.6912 45.0088H26.9811ZM34.6024 62.4289H28.0699V47.1863H34.6024V62.4289Z" fill="#B6CCFF"/>
<path d="M68.3539 65.6943H0.85083V67.8719H68.3539V65.6943Z" fill="#B6CCFF"/>
</svg>
