<svg width="53" height="66" viewBox="0 0 53 66" fill="none" xmlns="http://www.w3.org/2000/svg">
<path d="M32.3399 40.533H24.3399L26.0065 34.9945C26.5163 33.3385 26.356 31.5485 25.5601 30.0094C24.7642 28.4703 23.3962 27.3049 21.7501 26.7637C21.2774 26.6079 20.7776 26.5514 20.282 26.5977C19.7864 26.644 19.3057 26.7922 18.87 27.0329C18.4343 27.2736 18.053 27.6017 17.75 27.9966C17.447 28.3915 17.2288 28.8447 17.1091 29.3278L16.8527 30.4048C15.8857 34.2853 13.8828 37.8303 11.0578 40.6612L9.5963 42.0971C9.22491 41.6292 8.75348 41.2506 8.2166 40.9888C7.67972 40.727 7.09102 40.5888 6.49374 40.5842H4.62194C3.56991 40.5842 2.56019 40.9985 1.8115 41.7376C1.06281 42.4767 0.635436 43.481 0.621948 44.533V61.0458C0.621948 62.1066 1.04338 63.124 1.79352 63.8742C2.54367 64.6243 3.56108 65.0458 4.62194 65.0458H6.49374C7.18228 65.0442 7.8586 64.8637 8.45642 64.5221C9.05424 64.1805 9.55306 63.6894 9.90399 63.097L10.263 63.2765C12.5804 64.4338 15.1342 65.0393 17.7245 65.0458H26.9296C28.4514 65.0531 29.9511 64.6821 31.2939 63.9659C32.6366 63.2498 33.7803 62.2111 34.6219 60.9432C36.4133 58.2647 37.3683 55.1143 37.3655 51.8919V45.5073C37.3655 44.8497 37.2352 44.1987 36.982 43.5918C36.7288 42.9849 36.3578 42.4342 35.8905 41.9717C35.4231 41.5091 34.8687 41.1437 34.2592 40.8968C33.6498 40.6498 32.9974 40.5262 32.3399 40.533ZM7.82707 61.0458C7.82707 61.4266 7.67579 61.7918 7.4065 62.0611C7.13722 62.3304 6.772 62.4817 6.39117 62.4817H4.62194C4.24112 62.4817 3.8759 62.3304 3.60661 62.0611C3.33733 61.7918 3.18605 61.4266 3.18605 61.0458V44.533C3.18605 44.1521 3.33733 43.7869 3.60661 43.5176C3.8759 43.2483 4.24112 43.0971 4.62194 43.0971H6.49374C6.85651 43.123 7.19591 43.2857 7.44339 43.5522C7.69088 43.8188 7.828 44.1693 7.82707 44.533V61.0458ZM34.7501 51.8919C34.7608 54.6281 33.9575 57.3057 32.4424 59.5842C31.8362 60.4905 31.0162 61.2336 30.0547 61.7479C29.0933 62.2621 28.02 62.5318 26.9296 62.5329H17.7245C15.5353 62.5308 13.3764 62.0218 11.4168 61.0458L10.3912 60.5329V44.7894L12.7501 42.4304C15.9063 39.2748 18.1482 35.3227 19.2373 30.9945L19.4937 29.9432C19.5699 29.662 19.7542 29.4223 20.0065 29.2766C20.1359 29.2201 20.2756 29.1909 20.4168 29.1909C20.558 29.1909 20.6977 29.2201 20.8271 29.2766C21.3324 29.4446 21.7996 29.7106 22.202 30.0594C22.6044 30.4081 22.9341 30.8328 23.1723 31.3091C23.4104 31.7854 23.5523 32.3039 23.5899 32.8351C23.6275 33.3663 23.5599 33.8997 23.3912 34.4048L21.2373 41.6099C21.1816 41.801 21.1711 42.0024 21.2067 42.1982C21.2423 42.394 21.323 42.5789 21.4424 42.7381C21.5589 42.9004 21.7132 43.0319 21.8919 43.1212C22.0706 43.2106 22.2683 43.2551 22.4681 43.2509H32.186C32.5025 43.2509 32.816 43.3133 33.1084 43.4344C33.4008 43.5555 33.6665 43.733 33.8903 43.9569C34.1141 44.1807 34.2917 44.4464 34.4128 44.7388C34.5339 45.0312 34.5963 45.3446 34.5963 45.6612L34.7501 51.8919Z" fill="#B6CCFF"/>
<path d="M12.9556 15.8146L12.1351 20.5582C12.0364 21.0832 12.0902 21.6254 12.2901 22.1208C12.4901 22.6161 12.8278 23.0438 13.2633 23.3531C13.7453 23.7124 14.3287 23.9099 14.9299 23.9172C15.3941 23.9098 15.8503 23.7958 16.2633 23.5839L20.6479 21.3275L24.9299 23.5839C25.4008 23.8325 25.9324 23.9428 26.4633 23.9019C26.9942 23.8611 27.5026 23.6708 27.9299 23.3531C28.3609 23.0457 28.6958 22.6223 28.8955 22.1321C29.0952 21.6418 29.1516 21.1049 29.0581 20.5839L28.3402 15.8146L31.6991 12.4813C32.0871 12.1144 32.3629 11.645 32.4945 11.1275C32.6261 10.6101 32.6082 10.0659 32.4427 9.55824C32.2771 9.05113 31.9734 8.6002 31.5658 8.256C31.1582 7.9118 30.6627 7.68794 30.135 7.60953L25.3402 6.91722L23.212 2.53261C22.9726 2.05795 22.6061 1.65906 22.1534 1.38036C21.7007 1.10167 21.1795 0.954102 20.6479 0.954102C20.1163 0.954102 19.5951 1.10167 19.1424 1.38036C18.6897 1.65906 18.3232 2.05795 18.0838 2.53261L15.9556 6.86594L11.1607 7.55825C10.633 7.63666 10.1376 7.86051 9.72998 8.20471C9.32237 8.54891 9.0187 8.99985 8.85302 9.50696C8.67694 10.0216 8.65345 10.5763 8.78539 11.104C8.91732 11.6317 9.19904 12.11 9.5966 12.4813L12.9556 15.8146ZM11.4171 10.0967L16.8786 9.30183C17.1254 9.3178 17.3713 9.26064 17.5857 9.13749C17.8 9.01434 17.9733 8.83069 18.0838 8.60953L20.6479 3.66081C20.6704 3.61172 20.7065 3.57011 20.752 3.54094C20.7974 3.51177 20.8503 3.49627 20.9043 3.49627C20.9583 3.49627 21.0112 3.51177 21.0566 3.54094C21.1021 3.57011 21.1382 3.61172 21.1607 3.66081L23.7248 8.60953C23.8169 8.79676 23.9543 8.9581 24.1244 9.07897C24.2945 9.19984 24.492 9.27643 24.6992 9.30183L30.1607 10.0967C30.2138 10.1075 30.2631 10.1322 30.3037 10.1682C30.3442 10.2042 30.3745 10.2503 30.3915 10.3018C30.4162 10.3447 30.4292 10.3933 30.4292 10.4429C30.4292 10.4924 30.4162 10.541 30.3915 10.5839L26.4427 14.43C26.2934 14.5793 26.1809 14.7612 26.1141 14.9615C26.0474 15.1618 26.0282 15.3749 26.0581 15.5839L27.0068 20.9941C27.0243 21.0487 27.0208 21.1077 26.9971 21.1599C26.9734 21.212 26.9312 21.2534 26.8786 21.2762C26.8343 21.3095 26.7803 21.3275 26.7248 21.3275C26.6693 21.3275 26.6153 21.3095 26.5709 21.2762L21.6992 18.7121C21.519 18.611 21.316 18.5579 21.1094 18.5579C20.9029 18.5579 20.6998 18.611 20.5197 18.7121L15.6222 21.2762C15.5818 21.3074 15.5322 21.3243 15.4812 21.3243C15.4302 21.3243 15.3806 21.3074 15.3402 21.2762C15.2876 21.2534 15.2454 21.212 15.2217 21.1599C15.198 21.1077 15.1946 21.0487 15.212 20.9941L16.1607 15.5839C16.1906 15.3749 16.1714 15.1618 16.1047 14.9615C16.0379 14.7612 15.9254 14.5793 15.7761 14.43L11.8274 10.5839C11.8026 10.541 11.7896 10.4924 11.7896 10.4429C11.7896 10.3933 11.8026 10.3447 11.8274 10.3018C11.7608 10.3056 11.6948 10.2876 11.6393 10.2506C11.5838 10.2137 11.5418 10.1596 11.5197 10.0967H11.4171Z" fill="#B6CCFF"/>
<path d="M52.5708 18.6606C52.4243 18.1966 52.1488 17.7839 51.7765 17.4706C51.4042 17.1573 50.9504 16.9564 50.4682 16.8914L46.5451 16.3273L44.7759 12.7632C44.5398 12.3531 44.1998 12.0125 43.7902 11.7756C43.3806 11.5388 42.9157 11.4141 42.4426 11.4141C41.9694 11.4141 41.5045 11.5388 41.0949 11.7756C40.6853 12.0125 40.3453 12.3531 40.1092 12.7632L38.34 16.3273L34.4169 16.8914C33.9292 16.9484 33.468 17.1444 33.0884 17.4558C32.7087 17.7673 32.4265 18.1813 32.2753 18.6485C32.124 19.1157 32.1101 19.6165 32.2352 20.0914C32.3604 20.5663 32.6192 20.9953 32.981 21.3273L35.8272 24.1222L35.1349 28.0196C35.046 28.5028 35.0979 29.0013 35.2843 29.4559C35.4707 29.9105 35.7837 30.3019 36.1862 30.5837C36.5792 30.871 37.046 31.0405 37.5319 31.0723C38.0177 31.1041 38.5026 30.9968 38.9297 30.7632L42.4426 28.917L45.9554 30.7632C46.3257 30.9631 46.7396 31.0688 47.1605 31.0709C47.5424 31.0779 47.9211 30.9994 48.2688 30.8413C48.6166 30.6831 48.9246 30.4493 49.1703 30.1568C49.4161 29.8644 49.5934 29.5207 49.6893 29.1509C49.7852 28.7812 49.7972 28.3946 49.7246 28.0196L49.0323 24.1222L51.8785 21.3273C52.2357 20.9948 52.4905 20.5672 52.6132 20.0949C52.7358 19.6225 52.7211 19.1249 52.5708 18.6606ZM46.8015 22.7376C46.6522 22.8868 46.5397 23.0688 46.4729 23.2691C46.4062 23.4693 46.387 23.6824 46.4169 23.8914L47.1605 28.5068L43.0323 26.3529C42.8522 26.2519 42.6491 26.1988 42.4426 26.1988C42.236 26.1988 42.0329 26.2519 41.8528 26.3529L37.6733 28.4555L38.5964 23.8914C38.6107 23.6719 38.5715 23.4523 38.4821 23.2513C38.3928 23.0503 38.2561 22.874 38.0836 22.7376L34.7759 19.4299L39.3913 18.7632C39.5953 18.7383 39.7896 18.6616 39.9557 18.5404C40.1217 18.4193 40.254 18.2576 40.34 18.0709L42.4682 13.8914L44.5451 18.0709C44.6311 18.2576 44.7634 18.4193 44.9294 18.5404C45.0955 18.6616 45.2898 18.7383 45.4938 18.7632L50.1092 19.5068L46.8015 22.7376Z" fill="#B6CCFF"/>
</svg>
