<svg width="64" height="65" viewBox="0 0 64 65" fill="none" xmlns="http://www.w3.org/2000/svg">
<path d="M42.8952 5.60449H26.5233C25.9962 5.60449 25.5691 6.03158 25.5691 6.5587C25.5691 7.08582 25.9963 7.51291 26.5233 7.51291H42.8951C43.4222 7.51291 43.8495 7.08582 43.8495 6.5587C43.8495 6.03158 43.4222 5.60449 42.8952 5.60449Z" fill="#B6CCFF"/>
<path d="M33.8139 9.6709H26.5231C25.9959 9.6709 25.5688 10.0981 25.5688 10.6251C25.5688 11.1522 25.9961 11.5793 26.5231 11.5793H33.8139C34.341 11.5793 34.7681 11.1522 34.7681 10.6251C34.7681 10.098 34.3409 9.6709 33.8139 9.6709Z" fill="#B6CCFF"/>
<path d="M60.2387 9.83772C59.7117 9.83772 59.2845 10.2648 59.2845 10.7919C59.2845 11.3189 59.7116 11.7461 60.2387 11.7461C61.1775 11.7461 61.9412 12.5098 61.9412 13.4486V40.5609H54.9772V11.746H56.5674C57.0944 11.746 57.5216 11.3189 57.5216 10.7918C57.5216 10.2648 57.0946 9.83759 56.5674 9.83759H54.9772V3.34455C54.9772 1.76369 53.691 0.477539 52.1102 0.477539H12.1707C10.5899 0.477539 9.30374 1.76369 9.30374 3.34455V9.83772H4.29654C2.30551 9.83772 0.685669 11.4576 0.685669 13.4486V41.5151V50.3079C0.685669 52.2989 2.30551 53.9188 4.29654 53.9188H10.173C10.7 53.9188 11.1272 53.4917 11.1272 52.9646C11.1272 52.4376 10.7001 52.0103 10.173 52.0103H4.29654C3.35775 52.0103 2.59408 51.2467 2.59408 50.3079V42.4692H10.2578H54.0228H61.9411V50.3079C61.9411 51.2467 61.1774 52.0103 60.2386 52.0103H39.1342H25.401H14.6683C14.1413 52.0103 13.7141 52.4374 13.7141 52.9646C13.7141 53.4916 14.1412 53.9188 14.6683 53.9188H24.4468V58.9751C21.8768 59.021 19.7996 61.1246 19.7996 63.7054C19.7996 64.2324 20.2267 64.6596 20.7538 64.6596H43.7814C44.3084 64.6596 44.7356 64.2325 44.7356 63.7054C44.7356 61.1246 42.6585 59.0209 40.0884 58.9751V53.9188H60.2387C62.2298 53.9188 63.8496 52.2989 63.8496 50.3079V41.5151V13.4486C63.8495 11.4576 62.2296 9.83772 60.2387 9.83772ZM9.30374 40.5609H2.59408V13.4486C2.59408 12.5098 3.35775 11.7461 4.29654 11.7461H9.30374V40.5609ZM53.0688 14.418H20.5631C20.0361 14.418 19.6088 14.845 19.6088 15.3722C19.6088 15.8993 20.0359 16.3264 20.5631 16.3264H53.0688V40.5609H11.212V16.3264H15.6012C16.1282 16.3264 16.5554 15.8993 16.5554 15.3722C16.5554 14.845 16.1284 14.418 15.6012 14.418H11.212V3.34455C11.212 2.81592 11.642 2.38595 12.1706 2.38595H52.1102C52.6388 2.38595 53.0688 2.81592 53.0688 3.34455V14.418ZM26.3551 53.9186H38.18V58.9729H26.3551V53.9186ZM42.6614 62.7512H21.8739C22.266 61.662 23.3096 60.8813 24.5322 60.8813H25.401H39.1342H40.0031C41.2257 60.8813 42.2693 61.662 42.6614 62.7512Z" fill="#B6CCFF"/>
<path d="M32.7794 44.3564C31.1894 44.3564 29.8958 45.6501 29.8958 47.2402C29.8958 48.8303 31.1894 50.1239 32.7794 50.1239C34.3697 50.1239 35.6632 48.8304 35.6632 47.2402C35.6632 45.6501 34.3696 44.3564 32.7794 44.3564ZM32.7794 48.2155C32.2418 48.2156 31.8042 47.778 31.8042 47.2402C31.8042 46.7023 32.2418 46.2649 32.7794 46.2649C33.3173 46.2649 33.7548 46.7025 33.7548 47.2402C33.7548 47.778 33.3172 48.2155 32.7794 48.2155Z" fill="#B6CCFF"/>
<path d="M21.6583 10.3466L18.5176 4.90679C18.3472 4.61158 18.0323 4.42969 17.6913 4.42969C17.3503 4.42969 17.0354 4.61158 16.865 4.90679L13.7243 10.3466C13.5538 10.6418 13.5538 11.0056 13.7243 11.3008C13.8948 11.596 14.2097 11.7779 14.5506 11.7779H20.8321C21.1729 11.7779 21.4879 11.596 21.6583 11.3008C21.8288 11.0056 21.8288 10.6418 21.6583 10.3466ZM16.2032 9.86962L17.6913 7.29231L19.1794 9.86962H16.2032Z" fill="#B6CCFF"/>
<path d="M50.257 19.8447H36.438C35.911 19.8447 35.4838 20.2718 35.4838 20.7989C35.4838 21.3259 35.9109 21.7531 36.438 21.7531H50.257C50.784 21.7531 51.2113 21.3261 51.2113 20.7989C51.2113 20.2718 50.784 19.8447 50.257 19.8447Z" fill="#B6CCFF"/>
<path d="M50.257 24.041H36.438C35.911 24.041 35.4838 24.4681 35.4838 24.9952C35.4838 25.5223 35.9109 25.9494 36.438 25.9494H50.257C50.784 25.9494 51.2113 25.5223 51.2113 24.9952C51.2113 24.4681 50.784 24.041 50.257 24.041Z" fill="#B6CCFF"/>
<path d="M50.257 28.2383H36.438C35.911 28.2383 35.4838 28.6654 35.4838 29.1925C35.4838 29.7195 35.9109 30.1467 36.438 30.1467H50.257C50.784 30.1467 51.2113 29.7196 51.2113 29.1925C51.2113 28.6654 50.784 28.2383 50.257 28.2383Z" fill="#B6CCFF"/>
<path d="M50.257 32.4346H36.438C35.911 32.4346 35.4838 32.8617 35.4838 33.3888C35.4838 33.9158 35.9109 34.343 36.438 34.343H50.257C50.784 34.343 51.2113 33.9159 51.2113 33.3888C51.2113 32.8617 50.784 32.4346 50.257 32.4346Z" fill="#B6CCFF"/>
<path d="M42.895 36.6309H36.438C35.911 36.6309 35.4838 37.0579 35.4838 37.5851C35.4838 38.1121 35.9109 38.5393 36.438 38.5393H42.895C43.422 38.5393 43.8492 38.1122 43.8492 37.5851C43.8492 37.0579 43.4222 36.6309 42.895 36.6309Z" fill="#B6CCFF"/>
<path d="M32.1405 19.041H14.5505C14.0235 19.041 13.5963 19.4681 13.5963 19.9952V31.246V37.5852C13.5963 38.1122 14.0234 38.5395 14.5505 38.5395H32.1405C32.6675 38.5395 33.0947 38.1124 33.0947 37.5852V32.1942V19.9952C33.0947 19.4681 32.6675 19.041 32.1405 19.041ZM15.5049 20.9494H31.1863V30.9265C31.0795 30.9082 30.9727 30.8921 30.8661 30.8802C29.203 30.6938 28.2467 31.3593 27.4781 31.8938C26.9011 32.295 26.4028 32.6415 25.5681 32.7092C24.2181 32.82 23.3525 32.1022 22.256 31.1951C21.0354 30.1856 19.651 29.0426 17.4505 29.1751C16.7906 29.2153 16.1403 29.3669 15.5049 29.627V20.9494ZM31.1865 36.631H15.5047V31.7588C16.1816 31.3501 16.8731 31.1222 17.5662 31.08C19.0157 30.9917 19.9537 31.7675 21.0397 32.6657C22.2397 33.6582 23.5989 34.7823 25.7225 34.6113C27.0698 34.502 27.9001 33.9246 28.5675 33.4608C29.252 32.9849 29.7048 32.6709 30.654 32.7767C30.8303 32.7965 31.0083 32.8296 31.1865 32.8759V36.631Z" fill="#B6CCFF"/>
<path d="M25.863 23.0811C24.2532 23.0811 22.9436 24.3906 22.9436 26.0005C22.9436 27.6102 24.2532 28.9199 25.863 28.9199C27.4728 28.9199 28.7824 27.6103 28.7824 26.0005C28.7824 24.3906 27.4728 23.0811 25.863 23.0811ZM25.863 27.0116C25.3056 27.0116 24.8519 26.5579 24.8519 26.0005C24.8519 25.4429 25.3056 24.9893 25.863 24.9893C26.4205 24.9893 26.8741 25.443 26.8741 26.0005C26.8741 26.5579 26.4205 27.0116 25.863 27.0116Z" fill="#B6CCFF"/>
</svg>
