<svg width="73" height="73" viewBox="0 0 73 73" fill="none" xmlns="http://www.w3.org/2000/svg">
<path d="M30.0763 37L44.6263 21.3005C44.7461 21.1739 44.8408 21.0237 44.9049 20.8585C44.9691 20.6933 45.0014 20.5164 45 20.338C44.9985 20.1596 44.9635 19.9833 44.8967 19.8192C44.83 19.6552 44.7329 19.5066 44.6111 19.3822C44.4893 19.2578 44.3453 19.16 44.1872 19.0944C44.0292 19.0289 43.8604 18.9968 43.6905 19.0002C43.5206 19.0036 43.3531 19.0424 43.1975 19.1142C43.042 19.186 42.9016 19.2896 42.7844 19.4187L27.364 36.0591C27.1306 36.311 27 36.6486 27 37C27 37.3514 27.1306 37.689 27.364 37.9409L42.7844 54.5813C42.9016 54.7105 43.042 54.814 43.1975 54.8858C43.3531 54.9576 43.5206 54.9964 43.6905 54.9998C43.8604 55.0032 44.0292 54.9711 44.1872 54.9056C44.3453 54.84 44.4893 54.7422 44.6111 54.6178C44.7329 54.4934 44.83 54.3448 44.8967 54.1808C44.9635 54.0167 44.9985 53.8404 45 53.662C45.0014 53.4836 44.9691 53.3067 44.9049 53.1415C44.8408 52.9763 44.7461 52.8261 44.6263 52.6995L30.0763 37Z" fill="url(#paint0_linear_336_1231)"/>
<circle cx="36.5" cy="36.5" r="34.5" stroke="url(#paint1_linear_336_1231)" stroke-width="4"/>
<defs>
<linearGradient id="paint0_linear_336_1231" x1="45" y1="36.8108" x2="26.9995" y2="37.1652" gradientUnits="userSpaceOnUse">
<stop stop-color="#7411E1"/>
<stop offset="1" stop-color="#396BDB"/>
</linearGradient>
<linearGradient id="paint1_linear_336_1231" x1="73" y1="36.4552" x2="-2.32298e-07" y2="36.5462" gradientUnits="userSpaceOnUse">
<stop stop-color="#7411E1"/>
<stop offset="1" stop-color="#396BDB"/>
</linearGradient>
</defs>
</svg>
