<svg width="100" height="101" viewBox="0 0 100 101" fill="none" xmlns="http://www.w3.org/2000/svg">
<circle cx="50" cy="50.5557" r="49.25" stroke="white" stroke-width="1.5"/>
<path d="M68.6508 45.7938C68.6508 59.6826 50.7937 71.5874 50.7937 71.5874C50.7937 71.5874 32.9365 59.6826 32.9365 45.7938C32.9365 41.0577 34.8179 36.5157 38.1668 33.1669C41.5156 29.818 46.0577 27.9366 50.7937 27.9366C55.5297 27.9366 60.0717 29.818 63.4206 33.1669C66.7694 36.5157 68.6508 41.0577 68.6508 45.7938Z" stroke="white" stroke-width="2.5" stroke-linecap="round" stroke-linejoin="round"/>
<path d="M50.7937 51.7461C54.0811 51.7461 56.7461 49.0812 56.7461 45.7938C56.7461 42.5063 54.0811 39.8414 50.7937 39.8414C47.5063 39.8414 44.8413 42.5063 44.8413 45.7938C44.8413 49.0812 47.5063 51.7461 50.7937 51.7461Z" stroke="white" stroke-width="2.5" stroke-linecap="round" stroke-linejoin="round"/>
</svg>
