<svg width="73" height="73" viewBox="0 0 73 73" fill="none" xmlns="http://www.w3.org/2000/svg">
<path d="M42.8603 36.9008L27.5636 52.4132C27.4376 52.5382 27.3377 52.687 27.2695 52.8509C27.2013 53.0149 27.1662 53.1908 27.1662 53.3685C27.1663 53.5461 27.2015 53.722 27.2698 53.886C27.338 54.0499 27.4381 54.1986 27.564 54.3235C27.69 54.4485 27.8395 54.5471 28.0037 54.6137C28.168 54.6803 28.3437 54.7136 28.5209 54.7116C28.6981 54.7097 28.8731 54.6725 29.0358 54.6023C29.1986 54.532 29.3458 54.4301 29.469 54.3025L45.6809 37.8604C45.9263 37.6115 46.0651 37.2765 46.0679 36.9265C46.0707 36.5766 45.9373 36.2393 45.6959 35.9865L29.7501 19.2864C29.6289 19.1567 29.4833 19.0525 29.3217 18.9797C29.1601 18.9068 28.9857 18.8669 28.8086 18.862C28.6315 18.8572 28.4552 18.8877 28.2899 18.9517C28.1246 19.0156 27.9736 19.1119 27.8457 19.2347C27.7177 19.3576 27.6153 19.5047 27.5444 19.6675C27.4735 19.8303 27.4355 20.0056 27.4326 20.1833C27.4297 20.3609 27.4619 20.5374 27.5275 20.7024C27.5931 20.8675 27.6906 21.0179 27.8145 21.1448L42.8603 36.9008Z" fill="url(#paint0_linear_337_1232)"/>
<circle cx="36.5" cy="36.5" r="34.5" stroke="url(#paint1_linear_337_1232)" stroke-width="4"/>
<defs>
<linearGradient id="paint0_linear_337_1232" x1="48.6064" y1="37.0708" x2="27.2994" y2="37.2227" gradientUnits="userSpaceOnUse">
<stop stop-color="#7411E1"/>
<stop offset="1" stop-color="#396BDB"/>
</linearGradient>
<linearGradient id="paint1_linear_337_1232" x1="73" y1="36.4552" x2="-2.32298e-07" y2="36.5462" gradientUnits="userSpaceOnUse">
<stop stop-color="#7411E1"/>
<stop offset="1" stop-color="#396BDB"/>
</linearGradient>
</defs>
</svg>
