<svg width="1150" height="465" viewBox="0 0 1150 465" fill="none" xmlns="http://www.w3.org/2000/svg">
<g clip-path="url(#clip0_124_4779)">
<path d="M288.852 171.9C293.722 169.419 299.378 168.973 304.576 170.662C309.774 172.351 314.088 176.036 316.57 180.907L369.242 284.287L350.881 293.644C348.469 294.872 345.839 295.614 343.141 295.826C340.442 296.039 337.729 295.717 335.155 294.881C332.58 294.044 330.196 292.708 328.139 290.95C326.081 289.192 324.389 287.046 323.161 284.634L279.846 199.62C277.365 194.75 276.92 189.093 278.609 183.895C280.297 178.696 283.982 174.382 288.852 171.9Z" fill="white" stroke="black" stroke-width="0.75" stroke-miterlimit="10"/>
<path d="M441.466 202.794L350.646 247.462L368.379 284.67L433.37 258.868" fill="white"/>
<path d="M441.466 202.794L350.646 247.462L368.379 284.67L433.37 258.868" stroke="black" stroke-miterlimit="10"/>
<path d="M253.102 150.864L267.064 175.526C267.244 175.853 267.46 176.159 267.707 176.438C267.823 176.677 267.919 176.922 268.047 177.159C269.397 179.681 271.23 181.914 273.443 183.728C275.656 185.542 278.204 186.902 280.942 187.731C283.681 188.56 286.555 188.841 289.403 188.559C292.25 188.277 295.013 187.437 297.536 186.086C301.102 184.178 304.067 181.315 306.098 177.816C308.129 174.318 309.145 170.324 309.034 166.281C309.003 160.393 309.907 154.538 311.713 148.934L313.032 144.53C313.41 143.37 313.368 142.114 312.911 140.983C312.455 139.852 311.614 138.917 310.537 138.345C307.736 136.998 304.225 138.06 303.634 141.371L301.29 148.987C301.186 149.331 300.981 149.635 300.701 149.859C300.421 150.084 300.08 150.22 299.722 150.248C299.364 150.276 299.007 150.195 298.695 150.017C298.384 149.839 298.133 149.57 297.977 149.248C295.334 143.758 290.757 134.31 288.865 130.777C288.321 129.698 287.417 128.845 286.309 128.364C285.201 127.883 283.96 127.806 282.801 128.145C282.116 128.374 281.49 128.749 280.965 129.245C280.44 129.74 280.029 130.345 279.762 131.015C279.494 131.686 279.376 132.407 279.415 133.128C279.454 133.848 279.65 134.552 279.989 135.19L283.995 141.843C284.186 142.209 284.29 142.615 284.298 143.029C284.306 143.442 284.218 143.852 284.042 144.227C283.866 144.601 283.605 144.929 283.281 145.186C282.957 145.443 282.578 145.621 282.174 145.707L282.119 145.719C281.558 145.841 280.972 145.776 280.452 145.531C279.932 145.287 279.508 144.877 279.244 144.367L272.35 131.491C271.838 130.467 271 129.642 269.969 129.146C268.937 128.649 267.77 128.509 266.651 128.747C265.918 128.93 265.238 129.278 264.66 129.763C264.082 130.249 263.622 130.86 263.316 131.549C263.009 132.239 262.864 132.99 262.89 133.744C262.917 134.498 263.115 135.236 263.469 135.903L270.892 149.777C271.151 150.284 271.252 150.856 271.182 151.421C271.112 151.986 270.874 152.517 270.499 152.946L270.46 152.993C270.165 153.33 269.792 153.59 269.374 153.749C268.956 153.909 268.505 153.965 268.06 153.911C267.616 153.856 267.192 153.694 266.824 153.439C266.457 153.183 266.157 152.841 265.952 152.443L261.695 145.919C261.353 145.283 260.876 144.73 260.299 144.297C259.721 143.865 259.055 143.563 258.349 143.414C257.643 143.265 256.913 143.271 256.209 143.433C255.506 143.595 254.846 143.907 254.276 144.35C253.35 145.127 252.725 146.204 252.511 147.394C252.296 148.584 252.505 149.812 253.102 150.864Z" fill="white" stroke="black" stroke-width="0.75" stroke-miterlimit="10"/>
<path d="M443.722 380.247C443.722 279.04 556.522 284.22 556.522 380.247L568.468 463.862C568.509 464.464 492.605 463.862 453.89 463.862C447.884 462.603 428.568 466.966 428.779 463.862L443.722 380.247Z" fill="#5857F9"/>
<path d="M634.104 321.365C638.432 310.838 633.407 298.795 622.881 294.466C612.355 290.138 600.313 295.163 595.984 305.69L559.703 393.935C555.375 404.463 560.4 416.505 570.926 420.834C581.453 425.162 593.495 420.137 597.823 409.61L634.104 321.365Z" fill="white" stroke="black" stroke-width="0.75" stroke-miterlimit="10"/>
<path d="M589.645 443.15L597.835 416.021C597.949 415.664 598.021 415.295 598.051 414.922C598.143 414.672 598.254 414.435 598.338 414.179C600.139 408.689 599.685 402.707 597.077 397.551C594.468 392.395 589.918 388.486 584.428 386.684C580.586 385.423 576.468 385.255 572.536 386.201C568.604 387.147 565.012 389.169 562.164 392.04C557.929 396.129 553.07 399.519 547.769 402.082L543.673 404.171C542.574 404.699 541.696 405.598 541.193 406.71C540.691 407.822 540.597 409.075 540.927 410.25C541.888 413.202 545.084 415.01 547.883 413.152L555.016 409.581C555.336 409.422 555.697 409.362 556.051 409.41C556.406 409.458 556.738 409.611 557.005 409.85C557.271 410.089 557.46 410.402 557.546 410.75C557.632 411.097 557.611 411.463 557.487 411.798C555.342 417.499 551.672 427.336 550.422 431.143C550.019 432.282 550.026 433.526 550.444 434.66C550.862 435.794 551.664 436.746 552.71 437.351C553.348 437.688 554.052 437.881 554.773 437.918C555.494 437.956 556.214 437.835 556.884 437.566C557.553 437.296 558.156 436.884 558.65 436.358C559.144 435.832 559.518 435.205 559.745 434.52L561.789 427.027C561.923 426.636 562.145 426.281 562.438 425.989C562.731 425.698 563.088 425.478 563.48 425.347C563.872 425.216 564.289 425.177 564.699 425.234C565.109 425.291 565.5 425.442 565.841 425.675L565.889 425.705C566.367 426.027 566.725 426.497 566.908 427.043C567.09 427.59 567.086 428.181 566.897 428.726L562.345 442.595C561.959 443.673 561.942 444.849 562.295 445.938C562.649 447.027 563.354 447.967 564.299 448.613C564.937 449.015 565.659 449.267 566.409 449.35C567.158 449.432 567.917 449.343 568.627 449.088C569.337 448.834 569.98 448.42 570.507 447.88C571.034 447.341 571.431 446.688 571.669 445.972L576.575 431.017C576.763 430.48 577.107 430.011 577.564 429.672C578.021 429.332 578.569 429.137 579.137 429.112H579.201C579.647 429.093 580.092 429.183 580.496 429.375C580.901 429.567 581.252 429.854 581.519 430.213C581.787 430.571 581.963 430.99 582.032 431.432C582.101 431.874 582.061 432.326 581.915 432.749L580.13 440.334C579.906 441.02 579.835 441.748 579.921 442.465C580.007 443.182 580.248 443.871 580.628 444.486C581.008 445.1 581.517 445.624 582.12 446.022C582.723 446.419 583.405 446.681 584.119 446.788C585.32 446.923 586.53 446.633 587.54 445.968C588.549 445.304 589.294 444.306 589.645 443.15Z" fill="white" stroke="black" stroke-width="0.75" stroke-miterlimit="10"/>
<path d="M443.723 377.5H556.523L583.251 275.134C595.793 227.102 575.657 209.524 535.091 190.004C524.189 184.724 512.235 181.978 500.123 181.973C488.01 181.979 476.055 184.724 465.153 190.004C424.588 209.524 404.451 227.104 416.995 275.134L443.723 377.5Z" fill="white" stroke="black" stroke-miterlimit="10"/>
<path d="M483.143 184.651C483.143 194.417 491.06 202.335 500.827 202.335C510.593 202.335 518.51 194.417 518.51 184.651V132.957C518.51 123.19 510.593 115.272 500.827 115.272C491.06 115.272 483.143 123.19 483.143 132.957V184.651Z" fill="white" stroke="black" stroke-miterlimit="10"/>
<path d="M465.643 105.5L474.209 99.749C475.204 99.0779 476.128 98.3075 476.967 97.4491L484.216 90.0707C484.993 89.2723 485.939 88.6582 486.985 88.273C488.03 87.8878 489.148 87.7412 490.258 87.8445L500.294 88.8335C501.466 88.9548 502.647 88.9477 503.817 88.8128L513.915 87.6715C514.999 87.5433 516.097 87.6709 517.123 88.0437C518.148 88.4164 519.072 89.0238 519.82 89.8179L526.639 97.0964C527.432 97.938 528.312 98.6917 529.266 99.3454L537.491 104.976C538.391 105.597 539.133 106.421 539.657 107.38C540.182 108.34 540.475 109.409 540.512 110.502L540.924 120.663C540.969 121.836 541.137 123 541.424 124.138L543.934 133.918C544.199 134.999 544.221 136.125 543.998 137.215C543.775 138.306 543.312 139.333 542.643 140.223L536.44 148.517C535.727 149.476 535.109 150.503 534.595 151.583L530.201 160.921C529.725 161.935 529.031 162.832 528.169 163.547C527.307 164.263 526.297 164.779 525.212 165.059L515.315 167.601C514.162 167.899 513.042 168.313 511.973 168.836L502.735 173.369C501.75 173.86 500.665 174.119 499.564 174.127C498.463 174.135 497.374 173.891 496.382 173.413L487.411 169.005C486.365 168.499 485.27 168.102 484.143 167.819L474.394 165.43C473.336 165.174 472.354 164.671 471.528 163.962C470.702 163.254 470.056 162.359 469.643 161.353L465.798 152.077C465.352 151 464.792 149.974 464.127 149.016L458.416 140.819C457.792 139.911 457.385 138.872 457.226 137.782C457.067 136.693 457.16 135.581 457.499 134.533L460.584 124.715C460.939 123.58 461.177 122.412 461.293 121.229L462.299 111.056C462.417 109.942 462.778 108.868 463.355 107.908C463.933 106.948 464.714 106.126 465.643 105.5Z" fill="#020100"/>
<path d="M533.809 139.369C534.835 139.536 535.774 140.048 536.469 140.821C537.164 141.594 537.574 142.581 537.632 143.619C537.667 144.218 537.584 144.818 537.387 145.385C537.19 145.952 536.883 146.474 536.483 146.922C536.084 147.37 535.6 147.735 535.059 147.996C534.519 148.256 533.932 148.407 533.333 148.441C533.158 148.451 532.983 148.451 532.808 148.441L532.681 148.468L533.809 139.369Z" fill="white"/>
<path d="M466.31 139.369C465.284 139.536 464.346 140.048 463.651 140.821C462.955 141.594 462.544 142.581 462.486 143.619C462.451 144.218 462.535 144.818 462.732 145.385C462.929 145.952 463.237 146.475 463.636 146.923C464.036 147.371 464.52 147.735 465.06 147.996C465.601 148.256 466.188 148.407 466.787 148.441C466.962 148.451 467.137 148.451 467.311 148.441L467.438 148.468L466.31 139.369Z" fill="white"/>
<path d="M466.157 141.906L469.932 157.621C470.502 159.98 471.884 162.064 473.834 163.508L486.829 173.121C488.782 174.563 491.18 175.274 493.603 175.128L509.73 174.134C512.155 173.98 514.448 172.98 516.21 171.308L527.927 160.178C529.686 158.507 530.801 156.271 531.077 153.861L532.898 137.802C533.171 135.391 532.587 132.961 531.25 130.936L522.325 117.461C521.733 116.397 520.92 115.473 519.941 114.749C518.962 114.025 517.84 113.52 516.65 113.266C512.464 112.792 504.988 117.69 498.662 117.978C490.923 118.32 484.252 114.214 479.288 115.568C478.144 115.98 477.098 116.624 476.215 117.461C475.333 118.297 474.634 119.308 474.162 120.428L466.957 134.901C465.876 137.069 465.592 139.549 466.157 141.906Z" fill="white" stroke="#707070" stroke-width="0.75"/>
<path d="M466.157 141.906L469.932 157.621C470.502 159.98 471.884 162.064 473.834 163.508L486.829 173.121C488.782 174.563 491.18 175.274 493.603 175.128L509.73 174.134C512.155 173.98 514.448 172.98 516.21 171.308L527.927 160.178C529.686 158.507 530.801 156.271 531.077 153.861L532.898 137.802C533.171 135.391 532.587 132.961 531.25 130.936L522.325 117.461C521.733 116.397 520.92 115.473 519.941 114.749C518.962 114.025 517.84 113.52 516.65 113.266C512.464 112.792 504.988 117.69 498.662 117.978C490.923 118.32 484.252 114.214 479.288 115.568C478.144 115.98 477.098 116.624 476.215 117.461C475.333 118.297 474.634 119.308 474.162 120.428L466.957 134.901C465.876 137.069 465.592 139.549 466.157 141.906Z" stroke="black" stroke-width="0.75" stroke-miterlimit="10"/>
<path d="M514.76 138.642C514.761 138.685 514.772 138.728 514.79 138.767C514.808 138.807 514.834 138.842 514.867 138.871C514.899 138.9 514.937 138.922 514.978 138.936C515.019 138.95 515.063 138.956 515.106 138.952C515.15 138.951 515.192 138.94 515.232 138.922C515.272 138.903 515.307 138.876 515.336 138.844C515.365 138.811 515.387 138.773 515.401 138.731C515.415 138.69 515.421 138.646 515.418 138.602C515.415 138.559 515.405 138.515 515.386 138.476C515.367 138.436 515.34 138.4 515.308 138.371C515.275 138.342 515.237 138.32 515.195 138.305C515.154 138.291 515.11 138.285 515.066 138.288C515.023 138.291 514.98 138.302 514.941 138.321C514.902 138.341 514.868 138.368 514.839 138.401C514.811 138.434 514.789 138.472 514.775 138.513C514.762 138.555 514.756 138.599 514.76 138.642Z" fill="#FCFDFF"/>
<path d="M510.834 142.289C512.68 142.289 514.177 140.792 514.177 138.946C514.177 137.1 512.68 135.604 510.834 135.604C508.989 135.604 507.492 137.1 507.492 138.946C507.492 140.792 508.989 142.289 510.834 142.289Z" fill="black"/>
<path d="M489.335 142.289C491.181 142.289 492.678 140.792 492.678 138.946C492.678 137.1 491.181 135.604 489.335 135.604C487.49 135.604 485.993 137.1 485.993 138.946C485.993 140.792 487.49 142.289 489.335 142.289Z" fill="black"/>
<path d="M507.492 157.641C505.249 159.376 502.5 160.331 499.665 160.36C496.777 160.364 493.97 159.407 491.686 157.641" fill="white"/>
<path d="M507.492 157.641C505.249 159.376 502.5 160.331 499.665 160.36C496.777 160.364 493.97 159.407 491.686 157.641" stroke="black" stroke-miterlimit="10"/>
<path d="M577.281 219.348L633.821 304.062L591.504 314.47L561.73 269.59" fill="white"/>
<path d="M577.281 219.348L633.821 304.062L591.504 314.47L561.73 269.59" stroke="black" stroke-miterlimit="10"/>
<path d="M847.224 0.686615V463.466" stroke="white"/>
<path d="M846.537 396.178H1150" stroke="white"/>
<path d="M998.955 328.89V396.178" stroke="white"/>
<path d="M1150 260.228H1097.82" stroke="white"/>
<path d="M1081.34 396.178V463.466" stroke="white"/>
<path d="M931.672 396.178V463.466" stroke="white"/>
<path d="M846.537 0.686615H1150" stroke="white"/>
<path opacity="0.1" d="M36.3307 213.735L179.194 213.735L179.194 22.1544L36.3307 22.1544L36.3307 213.735Z" fill="#020100"/>
<path opacity="0.1" d="M36.3307 213.735L179.194 213.735L179.194 22.1544L36.3307 22.1544L36.3307 213.735Z" fill="#020100"/>
<path d="M21.8053 199.29L164.669 199.29L164.669 7.70908L21.8053 7.70908L21.8053 199.29Z" fill="white" stroke="black" stroke-width="1.18" stroke-miterlimit="10"/>
<path d="M21.8053 199.29L164.669 199.29L164.669 7.70908L21.8053 7.70908L21.8053 199.29Z" fill="white" stroke="black" stroke-width="1.18" stroke-miterlimit="10"/>
<path d="M34.6234 184.868L151.851 184.868L151.851 22.1292L34.6234 22.1292L34.6234 184.868Z" stroke="black" stroke-width="1.18" stroke-miterlimit="10"/>
<path d="M34.6234 184.868L151.851 184.868L151.851 22.1292L34.6234 22.1292L34.6234 184.868Z" stroke="black" stroke-width="1.18" stroke-miterlimit="10"/>
<path d="M133.745 66.965H52.7305" stroke="black" stroke-linecap="round"/>
<path d="M133.745 66.965H52.7305" stroke="black" stroke-linecap="round"/>
<path d="M68.2803 113.817L93.2371 75.3575L118.194 113.817L92.9377 131.817L68.2803 113.817Z" stroke="black" stroke-width="0.854" stroke-miterlimit="10"/>
<path d="M68.2803 113.817L93.2371 75.3575L118.194 113.817L92.9377 131.817L68.2803 113.817Z" stroke="black" stroke-width="0.854" stroke-miterlimit="10"/>
<path d="M93.2373 75.3575V100.661" stroke="black" stroke-width="0.854" stroke-miterlimit="10"/>
<path d="M93.2373 75.3575V100.661" stroke="black" stroke-width="0.854" stroke-miterlimit="10"/>
<path d="M93.2371 112.322C96.4768 112.322 99.1032 109.695 99.1032 106.455C99.1032 103.215 96.4768 100.589 93.2371 100.589C89.9974 100.589 87.3711 103.215 87.3711 106.455C87.3711 109.695 89.9974 112.322 93.2371 112.322Z" fill="#5857F9"/>
<path d="M93.2371 112.322C96.4768 112.322 99.1032 109.695 99.1032 106.455C99.1032 103.215 96.4768 100.589 93.2371 100.589C89.9974 100.589 87.3711 103.215 87.3711 106.455C87.3711 109.695 89.9974 112.322 93.2371 112.322Z" fill="#5857F9"/>
<path d="M133.29 107.299C133.29 96.6756 129.07 86.4874 121.559 78.9757C114.048 71.4641 103.861 67.2443 93.2382 67.2443C82.6159 67.2443 72.4285 71.4641 64.9173 78.9757C57.4062 86.4874 53.1865 96.6756 53.1865 107.299" stroke="black" stroke-linecap="round"/>
<path d="M133.29 107.299C133.29 96.6756 129.07 86.4874 121.559 78.9757C114.048 71.4641 103.861 67.2443 93.2382 67.2443C82.6159 67.2443 72.4285 71.4641 64.9173 78.9757C57.4062 86.4874 53.1865 96.6756 53.1865 107.299" stroke="black" stroke-linecap="round"/>
<path d="M139.611 72.8324C142.851 72.8324 145.477 70.2059 145.477 66.9659C145.477 63.726 142.851 61.0995 139.611 61.0995C136.371 61.0995 133.745 63.726 133.745 66.9659C133.745 70.2059 136.371 72.8324 139.611 72.8324Z" stroke="black" stroke-width="0.854" stroke-miterlimit="10"/>
<path d="M139.611 72.8324C142.851 72.8324 145.477 70.2059 145.477 66.9659C145.477 63.726 142.851 61.0995 139.611 61.0995C136.371 61.0995 133.745 63.726 133.745 66.9659C133.745 70.2059 136.371 72.8324 139.611 72.8324Z" stroke="black" stroke-width="0.854" stroke-miterlimit="10"/>
<path d="M46.8631 72.8324C50.1028 72.8324 52.7291 70.2059 52.7291 66.9659C52.7291 63.726 50.1028 61.0995 46.8631 61.0995C43.6234 61.0995 40.9971 63.726 40.9971 66.9659C40.9971 70.2059 43.6234 72.8324 46.8631 72.8324Z" stroke="black" stroke-width="0.854" stroke-miterlimit="10"/>
<path d="M46.8631 72.8324C50.1028 72.8324 52.7291 70.2059 52.7291 66.9659C52.7291 63.726 50.1028 61.0995 46.8631 61.0995C43.6234 61.0995 40.9971 63.726 40.9971 66.9659C40.9971 70.2059 43.6234 72.8324 46.8631 72.8324Z" stroke="black" stroke-width="0.854" stroke-miterlimit="10"/>
<path d="M87.6497 72.5538H98.8242V61.3785H87.6497V72.5538Z" fill="white" stroke="black" stroke-width="0.854" stroke-miterlimit="10"/>
<path d="M87.6497 72.5538H98.8242V61.3785H87.6497V72.5538Z" fill="white" stroke="black" stroke-width="0.854" stroke-miterlimit="10"/>
<path d="M127.649 108.083H138.823V96.9077H127.649V108.083Z" fill="white" stroke="black" stroke-width="0.854" stroke-miterlimit="10"/>
<path d="M127.649 108.083H138.823V96.9077H127.649V108.083Z" fill="white" stroke="black" stroke-width="0.854" stroke-miterlimit="10"/>
<path d="M47.5979 108.083H58.7725V96.9077H47.5979V108.083Z" fill="white" stroke="black" stroke-width="0.854" stroke-miterlimit="10"/>
<path d="M47.5979 108.083H58.7725V96.9077H47.5979V108.083Z" fill="white" stroke="black" stroke-width="0.854" stroke-miterlimit="10"/>
<path d="M72.9122 136.874H112.984V126.078H72.9122V136.874Z" fill="white" stroke="black" stroke-width="0.854" stroke-miterlimit="10"/>
<path d="M72.9122 136.874H112.984V126.078H72.9122V136.874Z" fill="white" stroke="black" stroke-width="0.854" stroke-miterlimit="10"/>
<path d="M72.9122 150.286H112.984V139.49H72.9122V150.286Z" fill="white" stroke="black" stroke-width="0.854" stroke-miterlimit="10"/>
<path d="M72.9122 150.286H112.984V139.49H72.9122V150.286Z" fill="white" stroke="black" stroke-width="0.854" stroke-miterlimit="10"/>
<path d="M0 463.466H1098.51" stroke="white"/>
</g>
<defs>
<clipPath id="clip0_124_4779">
<rect width="1150" height="465" fill="white"/>
</clipPath>
</defs>
</svg>
