<svg width="189" height="80" viewBox="0 0 189 80" fill="none" xmlns="http://www.w3.org/2000/svg">
<path d="M186.969 0.750488L179.618 2.53884L170.787 2.9019L174.341 7.01446L122.519 51.368L84.8335 20.0038L3.70312 79.9546H30.0384L84.3389 36.278L120.58 68.8647L181.285 15.0525L183.037 17.3656L184.518 18.7925L186.484 10.4849L188.45 2.17736L186.969 0.750488Z" fill="url(#paint0_linear_200_5638)"/>
<path d="M178.139 1.11196L169.307 1.47502L172.861 5.58759L121.04 49.9411L83.3549 18.5769L0.293457 79.9546H26.7842L82.8603 34.8512L119.101 67.4378L179.805 13.6256L183.038 17.3656L185.004 9.05806L186.97 0.750488L178.139 1.11196Z" fill="url(#paint1_linear_200_5638)"/>
<mask id="mask0_200_5638" style="mask-type:luminance" maskUnits="userSpaceOnUse" x="0" y="0" width="189" height="80">
<path d="M186.971 0.75L178.14 1.11147L169.307 1.47453L172.862 5.5871L121.041 49.9407L83.3558 18.5764L0.294312 79.9541H3.70454H26.785H30.0399L84.3403 36.2776L120.581 68.8642L181.147 15.1757L183.039 17.3651L184.52 18.792L186.485 10.4844L188.451 2.17687L186.971 0.75Z" fill="white"/>
</mask>
<g mask="url(#mask0_200_5638)">
<g opacity="0.25">
<path d="M127.205 41.7607H122.028C109.264 41.7607 102.45 50.2237 102.45 60.8079C102.45 72.5527 109.499 79.955 121.911 79.955C121.913 79.955 121.913 79.955 121.914 79.955H127.089C139.837 79.955 146.807 71.8678 146.807 60.7968C146.807 48.4686 138.904 41.7607 127.205 41.7607ZM120.066 60.708C120.066 56.0009 121.791 52.7936 124.86 51.7584C128.085 52.7049 129.566 55.5507 129.566 60.7968C129.566 65.4024 127.972 68.7746 124.736 69.9066C121.607 68.7873 120.066 65.469 120.066 60.708Z" fill="black"/>
<path d="M123.274 11.7666H116.811H111.633L66.7599 78.6679H71.9363H78.3873H83.5637L128.45 11.7666H123.274Z" fill="black"/>
<path d="M70.1615 48.6165H73.9252C86.6736 48.6165 93.643 40.5293 93.643 29.4583C93.643 17.1301 85.7413 10.4238 74.041 10.4238H68.8646V10.4571C56.1337 10.4809 49.3386 18.9343 49.3386 29.5027C49.3386 41.249 56.4365 48.6498 68.7996 48.6498C69.2609 48.6498 69.7144 48.6387 70.1615 48.6165ZM76.4556 29.4916C76.4556 34.0861 74.8686 37.4551 71.6486 38.5935C68.4682 37.5027 66.905 34.167 66.905 29.3711C66.905 24.6815 68.6189 21.4805 71.6676 20.4326C74.9494 21.36 76.4556 24.2201 76.4556 29.4916Z" fill="black"/>
</g>
</g>
<path d="M70.341 10.4243H65.1646V10.9412C55.7441 12.9261 50.7643 20.4235 50.7643 29.4715C50.7643 39.5405 55.9454 46.4164 65.2439 48.1746L65.0489 48.6185H70.2252C82.9736 48.6185 89.9431 40.5313 89.9431 29.4604C89.9431 17.1306 82.0413 10.4243 70.341 10.4243ZM70.4456 38.9824C65.5847 38.9824 63.205 35.29 63.205 29.3716C63.205 23.5801 65.8178 20.0605 70.3299 20.0605C75.538 20.0605 77.8812 22.8619 77.8812 29.4604C77.8812 35.1679 75.4349 38.9824 70.4456 38.9824Z" fill="url(#paint2_linear_200_5638)"/>
<path d="M123.505 41.7607H118.329V42.2776C108.908 44.2625 103.928 51.76 103.928 60.8079C103.928 70.8769 109.11 77.7528 118.408 79.5111L118.213 79.955H123.389C136.138 79.955 143.107 71.8678 143.107 60.7968C143.107 48.4686 135.204 41.7607 123.505 41.7607ZM123.608 70.3188C118.747 70.3188 116.368 66.6264 116.368 60.708C116.368 54.9165 118.98 51.3969 123.492 51.3969C128.701 51.3969 131.044 54.1983 131.044 60.7968C131.044 66.5043 128.598 70.3188 123.608 70.3188Z" fill="url(#paint3_linear_200_5638)"/>
<path d="M113.11 11.7671L68.235 78.6684H79.8624L124.749 11.7671H113.11Z" fill="url(#paint4_linear_200_5638)"/>
<path d="M84.8191 29.4926C84.8191 40.5636 77.8481 48.6508 65.1013 48.6508C52.7383 48.6508 45.6404 41.2501 45.6404 29.5037C45.6404 18.9195 52.4529 10.4565 65.2171 10.4565C76.9159 10.4581 84.8191 17.1644 84.8191 29.4926ZM58.078 29.4054C58.078 35.2889 60.4592 39.0162 65.3201 39.0162C70.3094 39.0162 72.7557 35.2001 72.7557 29.4926C72.7557 22.9179 70.4125 20.0927 65.2044 20.0927C60.6907 20.0927 58.078 23.6139 58.078 29.4054ZM63.0593 78.669L107.933 11.7677H119.573L74.6868 78.669H63.0593ZM137.929 60.7966C137.929 71.8676 130.958 79.9548 118.211 79.9548C105.799 79.9548 98.7502 72.5541 98.7502 60.8077C98.7502 50.2235 105.564 41.7606 118.328 41.7606C130.027 41.7606 137.929 48.4684 137.929 60.7966ZM111.189 60.7078C111.189 66.6278 113.569 70.3186 118.43 70.3186C123.419 70.3186 125.866 66.5025 125.866 60.795C125.866 54.1966 123.522 51.3951 118.314 51.3951C113.802 51.3967 111.189 54.9163 111.189 60.7078Z" fill="url(#paint5_linear_200_5638)"/>
<defs>
<linearGradient id="paint0_linear_200_5638" x1="-18.473" y1="104.291" x2="202.028" y2="-4.62473" gradientUnits="userSpaceOnUse">
<stop stop-color="#2C8D3A"/>
<stop offset="1" stop-color="#88AE33"/>
</linearGradient>
<linearGradient id="paint1_linear_200_5638" x1="-19.9441" y1="102.86" x2="200.547" y2="-6.05119" gradientUnits="userSpaceOnUse">
<stop stop-color="#39B54A"/>
<stop offset="0.9262" stop-color="#9FD340"/>
<stop offset="1" stop-color="#A7D63F"/>
</linearGradient>
<linearGradient id="paint2_linear_200_5638" x1="70.3538" y1="8.85988" x2="70.3538" y2="78.7827" gradientUnits="userSpaceOnUse">
<stop stop-color="#F8BD3D"/>
<stop offset="0.8611" stop-color="#DD7B09"/>
<stop offset="1" stop-color="#D87000"/>
</linearGradient>
<linearGradient id="paint3_linear_200_5638" x1="123.517" y1="8.86061" x2="123.517" y2="78.7834" gradientUnits="userSpaceOnUse">
<stop stop-color="#F8BD3D"/>
<stop offset="0.8611" stop-color="#DD7B09"/>
<stop offset="1" stop-color="#D87000"/>
</linearGradient>
<linearGradient id="paint4_linear_200_5638" x1="96.492" y1="8.8598" x2="96.492" y2="78.7829" gradientUnits="userSpaceOnUse">
<stop stop-color="#F8BD3D"/>
<stop offset="0.8611" stop-color="#DD7B09"/>
<stop offset="1" stop-color="#D87000"/>
</linearGradient>
<linearGradient id="paint5_linear_200_5638" x1="91.7842" y1="10.8757" x2="91.7842" y2="83.7975" gradientUnits="userSpaceOnUse">
<stop stop-color="#FFD03F"/>
<stop offset="0.9186" stop-color="#E28E05"/>
<stop offset="1" stop-color="#DF8800"/>
</linearGradient>
</defs>
</svg>
