<svg width="89" height="89" viewBox="0 0 89 89" fill="none" xmlns="http://www.w3.org/2000/svg">
<g clip-path="url(#clip0_200_5527)">
<path d="M-0.467651 43.4132C0.721106 44.0423 1.9454 44.6324 3.15548 45.1857L2.42207 46.8031C1.16107 46.2272 -0.0762508 45.6254 -1.29105 44.9726L-0.467651 43.4132ZM6.88169 46.7663C8.13915 47.2675 9.40729 47.7309 10.6861 48.1563L10.1054 49.8413C8.80057 49.3921 7.50757 48.93 6.22523 48.4299L6.88169 46.7663ZM14.5438 49.3569C15.8452 49.7314 17.1441 50.0562 18.4668 50.3549L18.0625 52.0814C16.7268 51.7708 15.39 51.4353 14.0638 51.062L14.5438 49.3569ZM22.4182 51.1647C23.7503 51.4007 25.0813 51.6118 26.4229 51.7851L26.1951 53.553C24.8286 53.3809 23.4727 53.171 22.1027 52.9243L22.4182 51.1647ZM30.4431 52.2053C31.7942 52.3158 33.1311 52.3895 34.4917 52.4372L34.4261 54.2099C33.0406 54.1634 31.6789 54.0908 30.3029 53.9815L30.4431 52.2053ZM38.5321 52.4951C39.8773 52.4812 41.2332 52.4295 42.5749 52.341L42.6716 54.1185C41.292 54.1963 39.9242 54.2611 38.5411 54.2643L38.5321 52.4951ZM46.6095 52.0128C47.9488 51.8746 49.2858 51.6867 50.6216 51.4739L50.9042 53.2301C49.5435 53.4441 48.1686 53.6213 46.8044 53.7607L46.6095 52.0128ZM54.6006 50.762C55.9211 50.4876 57.2403 50.1883 58.5454 49.8524L58.976 51.5766C57.646 51.9138 56.2901 52.2273 54.9448 52.5028L54.6006 50.762ZM62.4439 48.758C63.7336 48.3604 65.0091 47.9262 66.2834 47.467L66.8857 49.1333C65.5996 49.6055 64.2744 50.0421 62.9728 50.4527L62.4439 48.758ZM70.04 46.0055C71.2858 45.473 72.5057 44.9167 73.7244 44.3356L74.4984 45.9439C73.2549 46.5262 71.9983 47.0967 70.7276 47.6304L70.04 46.0055ZM77.3259 42.4951C78.5162 41.8406 79.6804 41.1623 80.8186 40.4604L81.7501 41.974C80.5752 42.6901 79.3873 43.3944 78.1722 44.0502L77.3259 42.4951Z" fill="white"/>
<path d="M72.483 37.8767L72.1036 39.602L80.6553 41.5024L78.1498 49.9082L79.8561 50.4131L82.9103 40.1743L72.483 37.8767Z" fill="white"/>
</g>
<defs>
<clipPath id="clip0_200_5527">
<rect width="60.2059" height="64.1316" fill="white" transform="translate(88.4078 43.6543) rotate(132.288)"/>
</clipPath>
</defs>
</svg>
