<svg width="498" height="534" viewBox="0 0 498 534" fill="none" xmlns="http://www.w3.org/2000/svg">
<g clip-path="url(#clip0_200_3024)">
<path opacity="0.15" d="M497.668 307.887C498.104 307.633 498.112 306.999 497.668 306.745L387.891 242.938C387.281 242.59 386.529 242.582 385.918 242.938L276.649 306.024C276.205 306.278 276.205 306.912 276.649 307.165L386.433 370.965C387.044 371.313 387.796 371.321 388.407 370.965L497.668 307.887Z" fill="black"/>
<path d="M387.098 186.334L288.099 128.803L288.97 306.714L387.978 364.253L387.098 186.334Z" fill="#911313"/>
<path d="M485.638 129.445L386.638 71.9062L288.099 128.803L387.098 186.334L485.638 129.445Z" fill="#C41A1A"/>
<path d="M387.098 186.334L387.977 364.253L486.501 307.348L485.638 129.445L387.098 186.334Z" fill="#FF3E3E"/>
<path opacity="0.15" d="M355.076 391.235C355.511 390.982 355.519 390.348 355.076 390.094L245.291 326.287C244.681 325.938 243.928 325.93 243.318 326.287L134.049 389.381C133.613 389.634 133.605 390.268 134.049 390.522L243.833 454.321C244.443 454.67 245.196 454.678 245.806 454.321L355.076 391.235Z" fill="black"/>
<path d="M243.943 293.797L144.944 236.266L145.824 389.643L244.823 447.182L243.943 293.797Z" fill="#132E44"/>
<path d="M342.483 236.908L243.484 179.361L144.944 236.266L243.944 293.797L342.483 236.908Z" fill="#0077A0"/>
<path d="M243.943 293.797L244.823 447.181L343.355 390.276L342.483 236.908L243.943 293.797Z" fill="#00B0ED"/>
<path opacity="0.15" d="M221.352 470.233C221.788 469.979 221.796 469.345 221.352 469.092L111.568 419.343C110.957 418.994 110.205 418.986 109.594 419.343L0.333033 468.371C-0.102808 468.624 -0.110732 469.258 0.333033 469.512L110.117 533.311C110.728 533.668 111.48 533.668 112.091 533.311L221.352 470.233Z" fill="black"/>
<path d="M109.641 416.712L10.6417 359.181L11.5213 470.17L110.521 527.709L109.641 416.712Z" fill="#AA6504"/>
<path d="M208.181 359.823L109.181 302.284L10.6417 359.181L109.641 416.712L208.181 359.823Z" fill="#E2980C"/>
<path d="M109.642 416.712L110.521 527.709L209.045 470.812L208.181 359.823L109.642 416.712Z" fill="#FFB515"/>
<path d="M236.858 87.3586C236.327 89.0069 239.362 89.9578 240.859 90.4333C241.382 90.5997 237.016 94.3797 241.105 95.0136C241.105 95.0136 242.848 94.0864 244.196 92.2876C244.291 92.1608 244.703 91.3684 244.085 89.9261C242.436 86.0987 241.248 85.6628 239.758 85.1874C238.26 84.704 237.381 85.7183 236.858 87.3586Z" fill="#D8B7A0"/>
<path d="M235.662 81.5024L239.315 84.4899L240.876 85.1556L242.192 87.2397C242.192 87.2397 240.013 93.2939 241.154 93.4524C241.439 93.492 242.794 93.4841 242.794 93.4841C242.794 93.4841 245.583 93.9595 241.154 96.8044C240.028 97.5334 238.602 96.9946 238.602 96.9946C237.009 96.4399 234.885 94.966 234.608 94.7916C232.326 93.2939 232.524 91.3445 232.524 91.3445L232.706 87.2476C232.754 85.3061 233.578 81.4152 235.662 81.5024Z" fill="#E8C5AC"/>
<path d="M238.016 87.1051C234.949 85.8768 232.881 82.9052 233.048 81.7878C233.697 77.469 233.586 61.4776 238.967 52.9827C243.302 46.1281 256.115 34.8438 256.115 34.8438C256.757 34.1147 260.3 32.4506 263.033 36.8011C266.195 41.8172 265.839 48.6005 260.704 52.7925C249.039 62.3414 249.388 61.8342 247.89 63.8708C246.329 65.9945 244.173 86.7564 244.173 86.7564C244.173 86.7564 241.844 88.6266 238.016 87.1051Z" fill="#2D3233"/>
<path d="M269.554 6.57734L277.557 6.25244L277.581 26.9747C277.708 32.9101 275.291 34.0116 273.5 34.17C269.784 34.5029 265.489 32.7437 263.309 31.6818C259.094 29.6215 258.618 22.7114 258.539 22.1488L256.138 8.49504L269.554 6.57734Z" fill="#FFE1CC"/>
<path d="M258.896 37.0863L259.022 24.0903L270.053 24.8194L270.687 37.3161C270.972 39.0674 272.32 42.0232 273.492 43.3466L258.896 37.0863Z" fill="#FFE1CC"/>
<path d="M313.899 120.689C313.899 120.689 314.89 123.423 317.33 122.86C318.836 122.511 323.369 120.396 323.369 120.396C325.722 119.12 328.876 118.145 330.065 119.825C330.065 119.825 330.564 120.467 330.659 120.879C330.96 122.297 331.087 120.982 329.748 123.272C329.748 123.272 327.054 127.123 325.183 128.875C322.83 131.078 321.411 131.593 320.484 131.783C320.484 131.783 318.574 132.013 317.497 132.512C316.3 133.067 317.132 134.533 317.528 135.769L314.208 138.59C310.65 140.888 306.506 138.503 306.197 137.552L303.003 127.702L313.899 120.689Z" fill="#3F3A3B"/>
<path d="M318.733 131.767C319.803 131.395 320.991 130.808 323.923 128.875C326.364 127.258 329.415 123.233 329.415 123.233C330.128 122.226 330.619 121.125 330.35 120.309C330.509 120.594 330.635 120.903 330.699 121.069C331.19 122.298 330.318 123.336 329.613 124.263C329.613 124.263 327.291 127.567 325.223 129.073C322.552 131.022 322.315 131.189 320.983 131.664C320.983 131.664 319.05 132.187 317.933 132.599C317.433 132.782 316.823 133.313 316.871 133.455C316.879 133.384 316.76 132.457 318.733 131.767Z" fill="#231F20"/>
<path d="M313.851 137.552L317.14 134.755C317.274 135.159 317.441 135.579 317.568 135.967L314.247 138.78C310.689 141.071 306.545 138.693 306.228 137.742L305.832 136.506C306.149 137.457 310.293 139.842 313.851 137.552Z" fill="#231F20"/>
<path d="M254.728 79.4341C254.728 79.4341 297.948 91.2018 301.078 93.5236C307.932 98.6032 316.823 124.445 316.823 124.445C316.823 124.445 319.621 124.468 314.953 130.641C312.346 134.096 303.938 133.637 303.455 132.527C295.539 114.325 297.734 111.314 294.873 109.991C288.399 107.003 265.505 104.443 257.272 100.426C250.679 97.2085 252.485 93.5395 252.485 93.5395L254.728 79.4341Z" fill="#404849"/>
<path d="M258.991 32.0465C257.541 31.7532 257.184 32.0148 256.939 32.9102C256.693 33.7898 256.701 33.8453 256.4 34.6932C256.146 35.3985 256.471 35.4302 256.471 35.4302C256.471 35.4302 263.777 37.1656 269.285 40.6365C273.2 43.1089 273.501 43.3387 273.501 43.3387L272.502 40.4384C271.718 37.958 268.73 35.5887 264.348 33.8453C264.348 33.8532 260.766 32.403 258.991 32.0465Z" fill="#F5F5F5"/>
<path d="M255.893 3.92277C256.028 3.52655 256.298 2.90845 256.765 2.49638C257.383 1.95753 258.096 1.85451 258.096 1.85451C258.096 1.85451 257.898 1.94168 257.241 2.47261C256.924 2.72619 256.805 3.05109 256.765 3.32052C258.928 1.9496 261.797 1.11754 265.482 1.06999C265.926 1.06207 268.446 1.27603 270.403 0.848112C270.522 0.824339 269.658 1.25226 269.88 1.83866C269.983 2.12394 270.958 1.92583 271.584 1.82281C272.059 1.74357 274.246 1.81489 274.857 2.61525C274.888 2.6628 273.85 2.99562 274.563 3.40769C275.641 4.04164 276.75 4.69936 277.899 5.90387C278.795 6.83102 279.659 8.81212 279.659 8.81212C279.469 9.41437 277.836 9.034 277.297 9.78682C277.012 10.183 276.156 11.4985 275.776 13.2735C275.395 15.0565 275.253 16.7127 275.181 19.0346L275.086 21.2217C275.181 22.0141 273.676 19.8587 273.042 19.2485C272.408 18.6304 271.433 19.2327 268.85 22.347C267.74 23.6862 263.017 29.0193 263.017 29.0193C261.662 30.1842 260.426 30.9291 258.802 29.1699C258.271 28.5914 254.301 23.5832 253.437 21.6892C250.473 15.2705 250.774 7.88496 255.893 3.92277Z" fill="black"/>
<path d="M270.617 19.9536C270.617 19.9536 268.921 20.0883 268.216 21.9823C267.717 23.3215 268.113 24.4943 268.351 24.8509C268.993 25.7939 269.722 26.0395 269.722 26.0395C269.722 26.0395 269.944 22.7668 270.023 22.1645C270.102 21.5623 270.617 19.9536 270.617 19.9536Z" fill="#EFCFBD"/>
<path d="M271.465 19.3037C271.465 19.3037 272.432 19.3275 271.647 20.6509C270.871 21.9742 270.641 22.7904 270.562 23.5591C270.49 24.2644 270.498 26.396 270.498 26.396C270.498 26.396 269.833 27.2202 269.349 25.8889C269.111 25.2549 269.024 24.0663 269.167 22.5606C269.222 21.9505 270.451 18.9154 271.465 19.3037Z" fill="#FFE8D9"/>
<path d="M208.371 146.823C206.683 146.839 202.53 147.299 202.53 147.299C202.53 147.299 199.86 148.226 201.46 157.696C201.468 157.735 202.443 157.711 202.871 158.06C203.259 158.377 203.584 158.314 203.291 161.024C203.069 163.132 201.587 169.321 202.451 172.356C204.115 178.188 208.378 179.004 208.378 179.004C208.378 179.004 211.073 179.9 211.984 173.719C213.284 164.883 217.634 157.561 217.634 157.561L212.206 147.743C212.222 147.758 209.361 146.815 208.371 146.823Z" fill="#424242"/>
<path d="M208.37 146.823C207.554 146.831 206.143 146.942 204.923 147.061C206.349 152.141 207.062 158.179 206.175 162.949C205.089 168.821 208.679 172.403 211.025 177.205C211.413 176.421 211.762 175.304 211.991 173.734C213.291 164.899 217.641 157.577 217.641 157.577L212.213 147.758C212.221 147.758 209.361 146.815 208.37 146.823Z" fill="#282827"/>
<path d="M272.867 95.6553C269.864 101.044 261.448 140.238 251.416 142.932C244.07 144.905 215.455 162.941 215.455 162.941C214.092 164.051 217.317 159.7 213.672 153.678C212.103 151.086 209.322 147.703 211.398 146.696C218.863 143.091 223.689 140.452 230.012 136.997C233.253 135.222 244.506 129.381 244.87 126.41C244.918 126.029 245.401 124.73 245.599 123.486C246.645 117.027 249.15 95.8217 249.15 95.8217L272.867 95.6553Z" fill="#49595B"/>
<path d="M273.493 43.3463C275.696 45.9534 278.375 57.0238 279.658 65.7565C282.147 82.6354 280.768 95.2748 280.768 95.2748C280.665 96.7725 275.657 98.8883 271.013 99.6649C268.604 100.069 262.407 101.694 256.686 101.234C248.381 100.568 245.584 97.5887 245.449 95.885C245.172 92.5171 246.63 96.5427 247.042 67.9753C247.208 56.4215 247.581 58.0223 248.119 50.9617C248.642 44.0833 253.627 35.0812 256.575 34.5819C261.868 33.6865 268.295 38.8453 268.295 38.8453L273.493 43.3463Z" fill="#323F42"/>
<path d="M324.597 89.3867C324.748 89.6403 324.803 90.0048 324.756 90.3376L324.597 89.3867Z" fill="#6D320A"/>
<path d="M311.332 102.993C311.483 103.247 311.53 103.611 311.491 103.944L311.332 102.993Z" fill="#6D320A"/>
<path d="M309.398 120.886L299.516 120.688C299.104 120.68 298.708 120.403 298.407 119.864L308.288 120.062C308.589 120.609 308.994 120.886 309.398 120.886Z" fill="#723919"/>
<path d="M296.466 98.8803L286.576 98.6743L286.449 98.4365L296.331 98.6426L296.466 98.8803Z" fill="#5C361D"/>
<path d="M332.584 88.1034L323.55 71.2245L322.75 69.7822C322.94 70.226 324.359 75.5829 322.877 86.2966L323.558 87.517L322.449 91.9547C322.195 92.3826 320.515 97.3195 319.049 99.7681C317.647 102.09 308.042 104.063 308.042 104.063L307.456 103.009C307.432 102.97 307.416 102.93 307.393 102.882C303.629 104.087 299.674 102.756 296.465 98.8885L297.099 100.03L296.33 98.6508L297.138 100.093L308.288 120.078C308.89 121.164 309.905 121.18 310.554 120.11L332.521 92.0181C333.155 90.9403 333.187 89.189 332.584 88.1034Z" fill="#6D320A"/>
<path d="M322.751 69.7822C322.941 70.226 324.36 75.5829 322.878 86.2966L322.735 86.0431C322.497 85.6151 322.093 85.6072 321.832 86.0351L320.746 87.834C320.492 88.2619 320.477 88.9592 320.714 89.3951L323.226 90.1954C322.497 92.652 321.57 97.058 319.05 99.7681C317.204 101.741 314.945 103.176 311.49 103.952L309.47 99.6572C309.232 99.2213 308.82 99.2134 308.566 99.6413L307.481 101.448C307.251 101.836 307.219 102.447 307.393 102.874C303.629 104.079 299.675 102.748 296.466 98.8806L296.331 98.6428L313.131 79.1568L314.082 77.5719L322.751 69.7822Z" fill="#A5683D"/>
<path d="M312.869 69.584L322.751 69.7821L296.331 98.6427L297.139 100.085L308.289 120.07C308.59 120.609 308.994 120.886 309.398 120.894L299.517 120.696C299.105 120.688 298.708 120.411 298.407 119.872L286.449 98.4446L312.869 69.584Z" fill="#6D3B18"/>
<path d="M309.042 104.42L309.937 106.036C310.048 106.218 310.191 106.321 310.333 106.321L309.945 106.313C309.795 106.313 309.652 106.218 309.549 106.02L308.646 104.412L309.042 104.42Z" fill="#75460D"/>
<path d="M309.042 104.42L308.646 104.412L310.302 101.662H310.698L309.042 104.42Z" fill="#EB921A"/>
<path d="M310.698 101.662L311.602 103.279C311.816 103.659 311.808 104.269 311.578 104.65L310.738 106.036C310.516 106.409 310.159 106.409 309.945 106.028L309.05 104.412L310.698 101.662Z" fill="#D87A13"/>
<path d="M307.219 101.448L308.304 99.6491C308.431 99.4352 308.598 99.3321 308.756 99.3242L309.556 99.348C309.39 99.3401 309.224 99.451 309.097 99.665L308.011 101.464C307.773 101.852 307.734 102.573 307.979 103.025L309.073 104.982L308.289 104.966L307.187 103.009C306.941 102.565 306.981 101.852 307.219 101.448Z" fill="#89550F"/>
<path d="M309.096 99.6647C309.349 99.2368 309.753 99.2368 309.999 99.6726L311.093 101.63L309.08 104.982L307.986 103.025C307.749 102.589 307.764 101.891 308.018 101.464L309.096 99.6647Z" fill="#F99B1C"/>
<path d="M322.529 90.8059L323.424 92.4145C323.528 92.6047 323.678 92.7077 323.821 92.6998L323.424 92.6919C323.282 92.6919 323.131 92.5889 323.028 92.4066L322.133 90.79L322.529 90.8059Z" fill="#75460D"/>
<path d="M322.529 90.8056L322.133 90.7977L323.789 88.04L324.185 88.048L322.529 90.8056Z" fill="#EB921A"/>
<path d="M324.185 88.0479L325.081 89.6644C325.295 90.0448 325.287 90.6629 325.057 91.0353L324.225 92.43C324.003 92.8025 323.647 92.7946 323.433 92.4142L322.537 90.8055L324.185 88.0479Z" fill="#D87A13"/>
<path d="M320.706 87.8337L321.784 86.0349C321.91 85.813 322.077 85.71 322.243 85.71L323.036 85.7258C322.869 85.7258 322.703 85.8288 322.568 86.0507L321.49 87.8495C321.443 87.9367 321.403 88.0239 321.379 88.1269C321.372 88.1427 321.364 88.1665 321.356 88.1824C321.253 88.5707 321.269 89.062 321.467 89.4107L322.552 91.368L321.76 91.3521L320.666 89.4027C320.436 88.951 320.468 88.2378 320.706 87.8337Z" fill="#89550F"/>
<path d="M322.577 86.0509C322.839 85.623 323.235 85.6309 323.48 86.0588L324.574 88.0161L322.561 91.3682L321.476 89.4108C321.23 88.9829 321.238 88.2856 321.499 87.8497L322.577 86.0509Z" fill="#F99B1C"/>
<mask id="mask0_200_3024" style="mask-type:luminance" maskUnits="userSpaceOnUse" x="298" y="89" width="2" height="2">
<path d="M299.046 90.3462L298.666 89.6567C298.737 89.7756 298.896 89.8628 299.118 89.8628L299.498 90.5522C299.276 90.5443 299.118 90.473 299.046 90.3462Z" fill="white"/>
</mask>
<g mask="url(#mask0_200_3024)">
<path d="M299.11 89.8624L299.49 90.5518C299.268 90.5439 299.118 90.4647 299.039 90.3379L298.658 89.6484C298.738 89.7752 298.888 89.8545 299.11 89.8624Z" fill="#F99B1C"/>
</g>
<mask id="mask1_200_3024" style="mask-type:luminance" maskUnits="userSpaceOnUse" x="304" y="87" width="1" height="3">
<path d="M304.404 87.8418L304.785 88.5312C304.856 88.658 304.84 88.8244 304.729 89.0146L304.349 88.3252C304.46 88.135 304.468 87.9607 304.404 87.8418Z" fill="white"/>
</mask>
<g mask="url(#mask1_200_3024)">
<path d="M304.404 87.8418L304.785 88.5312C304.856 88.658 304.84 88.8244 304.729 89.0146L304.349 88.3252C304.46 88.135 304.468 87.9607 304.404 87.8418Z" fill="#EA921A"/>
</g>
<path d="M304.342 88.3252L304.722 89.0146L304.168 89.9497L303.787 89.2523L304.342 88.3252Z" fill="#EA921A"/>
<path d="M302.589 89.9178L302.97 90.6072L299.499 90.5517L299.11 89.8623L302.589 89.9178Z" fill="#FFC585"/>
<mask id="mask2_200_3024" style="mask-type:luminance" maskUnits="userSpaceOnUse" x="302" y="89" width="3" height="2">
<path d="M303.788 89.2524L304.168 89.9498C303.946 90.3222 303.407 90.6154 302.971 90.6075L302.591 89.9181C303.035 89.926 303.566 89.6249 303.788 89.2524Z" fill="white"/>
</mask>
<g mask="url(#mask2_200_3024)">
<path d="M303.788 89.2524L304.168 89.9498C303.946 90.3222 303.407 90.6154 302.971 90.6075L302.591 89.9181C303.035 89.926 303.566 89.6249 303.788 89.2524Z" fill="#F99B1C"/>
</g>
<path d="M303.96 87.6278C304.396 87.6357 304.57 87.9448 304.349 88.3172L303.786 89.2523C303.572 89.6247 303.033 89.9259 302.589 89.9179L299.118 89.8625C298.675 89.8545 298.5 89.5455 298.722 89.173L299.285 88.238C299.507 87.8655 300.046 87.5723 300.481 87.5802L303.96 87.6278Z" fill="#FFB255"/>
<mask id="mask3_200_3024" style="mask-type:luminance" maskUnits="userSpaceOnUse" x="305" y="78" width="2" height="2">
<path d="M305.785 78.9824L305.404 78.293C305.476 78.4198 305.626 78.499 305.848 78.499L306.229 79.1963C306.007 79.1884 305.856 79.1092 305.785 78.9824Z" fill="white"/>
</mask>
<g mask="url(#mask3_200_3024)">
<path d="M305.848 78.499L306.229 79.1963C306.007 79.1884 305.856 79.1092 305.777 78.9824L305.397 78.293C305.476 78.4198 305.626 78.499 305.848 78.499Z" fill="#F99B1C"/>
</g>
<mask id="mask4_200_3024" style="mask-type:luminance" maskUnits="userSpaceOnUse" x="311" y="76" width="1" height="2">
<path d="M311.134 76.478L311.522 77.1674C311.578 77.2942 311.57 77.4686 311.459 77.6508L311.078 76.9614C311.197 76.7792 311.205 76.6048 311.134 76.478Z" fill="white"/>
</mask>
<g mask="url(#mask4_200_3024)">
<path d="M311.134 76.478L311.522 77.1674C311.578 77.2942 311.57 77.4686 311.459 77.6508L311.078 76.9614C311.197 76.7792 311.205 76.6048 311.134 76.478Z" fill="#EA921A"/>
</g>
<path d="M311.076 76.9614L311.465 77.6508L310.902 78.5938L310.522 77.8965L311.076 76.9614Z" fill="#EA921A"/>
<path d="M309.319 78.5624L309.707 79.2518L306.228 79.1964L305.848 78.499L309.319 78.5624Z" fill="#FFC585"/>
<mask id="mask5_200_3024" style="mask-type:luminance" maskUnits="userSpaceOnUse" x="309" y="77" width="2" height="3">
<path d="M310.523 77.8965L310.911 78.5938C310.689 78.9663 310.15 79.2595 309.707 79.2516L309.326 78.5542C309.762 78.5701 310.301 78.2689 310.523 77.8965Z" fill="white"/>
</mask>
<g mask="url(#mask5_200_3024)">
<path d="M310.523 77.8965L310.911 78.5938C310.689 78.9663 310.15 79.2595 309.707 79.2516L309.326 78.5542C309.762 78.5701 310.301 78.2689 310.523 77.8965Z" fill="#F99B1C"/>
</g>
<path d="M310.689 76.272C311.133 76.28 311.299 76.589 311.078 76.9615L310.515 77.8965C310.293 78.269 309.762 78.5701 309.318 78.5622L305.847 78.4988C305.404 78.4909 305.237 78.1818 305.451 77.8094L306.006 76.8743C306.236 76.5019 306.767 76.2007 307.203 76.2086L310.689 76.272Z" fill="#FFB255"/>
<path d="M304.874 77.1201L306.459 77.1518C307.212 77.1677 307.957 77.5322 308.614 78.2533L307.029 78.2216C306.38 77.5005 305.627 77.128 304.874 77.1201Z" fill="#8C532C"/>
<mask id="mask6_200_3024" style="mask-type:luminance" maskUnits="userSpaceOnUse" x="304" y="77" width="5" height="2">
<path d="M304.875 77.1201L306.46 77.1518C307.213 77.1677 307.958 77.5322 308.615 78.2533L307.03 78.2216C306.381 77.5005 305.628 77.128 304.875 77.1201Z" fill="white"/>
</mask>
<g mask="url(#mask6_200_3024)">
<path d="M308.615 78.2533L307.03 78.2216C306.381 77.5005 305.636 77.128 304.883 77.1201L306.468 77.1518C307.213 77.1677 307.965 77.5322 308.615 78.2533Z" fill="#8C532C"/>
</g>
<path d="M304.921 74.9089C300.523 74.8217 297.829 83.3642 300.222 89.5452L301.807 89.5848C299.422 83.4117 302.1 74.8534 306.506 74.9406L304.921 74.9089Z" fill="#8C532C"/>
<path d="M302.607 77.6194C304.548 74.3863 307.488 74.0851 309.564 76.6685L308.613 78.2534C307.044 76.5179 304.913 76.827 303.486 79.1964C302.06 81.5737 301.806 85.2427 302.749 88.0083L301.798 89.5932C300.38 85.9242 300.665 80.8526 302.607 77.6194Z" fill="#A5683D"/>
<path d="M297.678 75.5037C297.678 75.5037 301.633 73.3721 305.135 74.109C306.847 74.4735 308.582 75.7494 308.226 76.7716C307.774 78.0712 307.243 79.2203 307.243 79.2203C307.243 79.2203 306.776 84.5851 304.454 84.9734C302.14 85.3617 299.065 84.7911 298.265 84.5058C297.044 84.0779 296.466 83.3885 296.466 83.3885L293.629 83.0002L294.802 76.4626L297.678 75.5037Z" fill="#FFE1CC"/>
<path d="M296.387 85.8847C291.798 85.8767 277.471 82.4772 270.078 80.8764C267.375 80.29 263.928 76.9697 262.621 72.7302C260.893 67.1039 257.724 58.8863 256.337 52.9747C254.95 47.0631 259.007 41.2704 262.795 39.1229C266.116 37.2448 271.029 38.7504 271.678 43.4258C272.55 49.6861 272.875 68.9582 274.753 70.337C275.427 70.8283 295.079 75.4245 296.086 75.575C297.084 75.7256 299.929 85.8926 296.387 85.8847Z" fill="#49595B"/>
<path opacity="0.1" d="M263.312 190.898C258.422 191.509 252.162 193.521 245.038 197.404C231.329 204.885 221.313 212.96 222.668 215.448C223.928 217.762 266.585 209.727 283.416 202.658C280.016 200.36 267.94 193.498 263.312 190.898Z" fill="black"/>
<path opacity="0.1" d="M354.734 137.663C353.767 135.895 316.84 138.875 316.84 149.977L319.859 182.847C319.859 183.133 321.674 214.386 323.377 211.629C325.588 208.055 325.454 155.96 329.788 154.692C345.241 150.167 355.693 139.43 354.734 137.663Z" fill="black"/>
</g>
<defs>
<clipPath id="clip0_200_3024">
<rect width="498" height="532.733" fill="white" transform="translate(0 0.848145)"/>
</clipPath>
</defs>
</svg>
