<svg width="200" height="160" viewBox="0 0 200 160" fill="none" xmlns="http://www.w3.org/2000/svg">
<path d="M34.0081 139.457L17.0256 126.793L0.495328 140.042L0.834549 159.476L34.3474 158.891L34.0081 139.457Z" fill="url(#paint0_linear_1_20)"/>
<path d="M6.46893 118.592L6.36778 112.797L7.35113 112.78L7.45228 118.574L6.46893 118.592ZM4.02123 116.228L4.00406 115.245L9.79883 115.143L9.816 116.127L4.02123 116.228ZM14.9977 111.03L15.1546 120.021L14.0659 120.04L13.9289 112.191L13.8762 112.192L11.7067 113.687L11.6874 112.581L13.909 111.049L14.9977 111.03ZM17.7403 119.976L17.7265 119.186L20.6375 115.885C20.9791 115.499 21.2601 115.163 21.4806 114.878C21.701 114.59 21.8631 114.321 21.9671 114.07C22.0739 113.817 22.1249 113.552 22.1201 113.277C22.1146 112.961 22.0337 112.689 21.8775 112.46C21.7242 112.232 21.5162 112.057 21.2536 111.935C20.9909 111.814 20.6971 111.756 20.3723 111.762C20.0269 111.768 19.7267 111.845 19.4717 111.993C19.2195 112.138 19.0254 112.339 18.8894 112.596C18.7563 112.853 18.6927 113.153 18.6987 113.495L17.6627 113.513C17.6535 112.986 17.7668 112.522 18.0028 112.12C18.2388 111.717 18.5641 111.401 18.9787 111.172C19.3963 110.942 19.867 110.822 20.3908 110.813C20.9176 110.804 21.3864 110.907 21.7971 111.122C22.2078 111.338 22.532 111.632 22.7698 112.006C23.0076 112.379 23.1305 112.797 23.1386 113.259C23.1444 113.59 23.09 113.915 22.9755 114.233C22.8639 114.548 22.6652 114.901 22.3793 115.293C22.0962 115.681 21.702 116.156 21.1965 116.719L19.2148 118.914L19.2161 118.984L23.3953 118.911L23.4122 119.877L17.7403 119.976ZM25.9991 119.902C25.7825 119.906 25.5953 119.831 25.4375 119.679C25.2797 119.527 25.1989 119.342 25.1951 119.125C25.1913 118.909 25.2656 118.722 25.4181 118.564C25.5705 118.406 25.7549 118.325 25.9715 118.321C26.1881 118.318 26.3753 118.392 26.5331 118.544C26.6909 118.697 26.7717 118.881 26.7755 119.098C26.778 119.241 26.7437 119.374 26.6727 119.495C26.6045 119.616 26.5111 119.714 26.3924 119.79C26.2765 119.862 26.1454 119.899 25.9991 119.902ZM28.6297 119.786L28.6159 118.995L31.5268 115.695C31.8684 115.309 32.1495 114.973 32.3699 114.688C32.5903 114.4 32.7525 114.131 32.8564 113.88C32.9632 113.627 33.0142 113.362 33.0094 113.087C33.0039 112.771 32.9231 112.499 32.7668 112.27C32.6135 112.042 32.4056 111.867 32.1429 111.745C31.8802 111.624 31.5865 111.566 31.2616 111.572C30.9163 111.578 30.6161 111.655 30.361 111.803C30.1089 111.948 29.9148 112.149 29.7787 112.406C29.6456 112.663 29.582 112.963 29.588 113.305L28.552 113.323C28.5428 112.796 28.6562 112.332 28.8921 111.929C29.1281 111.527 29.4534 111.211 29.868 110.981C30.2856 110.752 30.7563 110.632 31.2802 110.623C31.807 110.614 32.2757 110.717 32.6864 110.932C33.0971 111.148 33.4213 111.442 33.6591 111.815C33.8969 112.189 34.0198 112.607 34.0279 113.069C34.0337 113.4 33.9793 113.725 33.8649 114.043C33.7533 114.358 33.5545 114.711 33.2686 115.103C32.9855 115.491 32.5913 115.966 32.0859 116.528L30.1042 118.724L30.1054 118.794L34.2847 118.721L34.3015 119.687L28.6297 119.786Z" fill="#FDC730"/>
<path d="M74.4002 113.543L57.4176 100.879L40.8873 114.128L41.6789 159.474L75.1917 158.889L74.4002 113.543Z" fill="url(#paint1_linear_1_20)"/>
<path d="M47.0869 92.6848L46.9858 86.8901L47.9691 86.8729L48.0703 92.6677L47.0869 92.6848ZM44.6392 90.3211L44.6221 89.3378L50.4168 89.2366L50.434 90.22L44.6392 90.3211ZM52.1893 94.1766L52.1755 93.3864L55.0864 90.0861C55.4281 89.6995 55.7091 89.3638 55.9296 89.0789C56.15 88.7911 56.3121 88.5218 56.4161 88.2712C56.5229 88.0176 56.5739 87.7532 56.5691 87.4781C56.5636 87.162 56.4827 86.8897 56.3265 86.6611C56.1732 86.4325 55.9652 86.2576 55.7025 86.1363C55.4399 86.015 55.1461 85.9572 54.8213 85.9628C54.4759 85.9689 54.1757 86.0458 53.9207 86.1937C53.6685 86.3387 53.4744 86.5397 53.3384 86.7967C53.2053 87.0538 53.1417 87.3535 53.1477 87.6959L52.1116 87.714C52.1024 87.1872 52.2158 86.7226 52.4518 86.3204C52.6878 85.9181 53.0131 85.6021 53.4277 85.3724C53.8452 85.1426 54.316 85.0231 54.8398 85.014C55.3666 85.0048 55.8354 85.1079 56.2461 85.3232C56.6567 85.5385 56.981 85.8329 57.2188 86.2064C57.4566 86.5799 57.5795 86.9979 57.5876 87.4603C57.5933 87.791 57.539 88.1155 57.4245 88.4336C57.3129 88.7488 57.1142 89.1021 56.8282 89.4936C56.5452 89.882 56.1509 90.3573 55.6455 90.9194L53.6638 93.1145L53.6651 93.1848L57.8443 93.1118L57.8612 94.0776L52.1893 94.1766ZM62.7142 94.1159C62.1348 94.126 61.6165 94.0355 61.1594 93.8444C60.7052 93.6533 60.3418 93.3829 60.0693 93.0335C59.7997 92.681 59.6491 92.2694 59.6174 91.7986L60.7237 91.7793C60.7522 92.0686 60.8561 92.3171 61.0353 92.5248C61.2146 92.7295 61.4471 92.8865 61.733 92.9957C62.0189 93.1048 62.3345 93.1564 62.6798 93.1504C63.0661 93.1436 63.4074 93.0704 63.7035 92.9305C63.9997 92.7907 64.2306 92.5993 64.3961 92.3563C64.5617 92.1134 64.6417 91.8339 64.6362 91.5178C64.6304 91.1871 64.5434 90.8973 64.3751 90.6485C64.2068 90.3967 63.9633 90.2019 63.6447 90.064C63.3261 89.9261 62.9386 89.8612 62.482 89.8691L61.7621 89.8817L61.7452 88.9159L62.4652 88.9033C62.8222 88.8971 63.1342 88.8273 63.4012 88.6938C63.6712 88.5603 63.8802 88.3751 64.0283 88.1383C64.1793 87.9015 64.2521 87.625 64.2466 87.3089C64.2412 87.0046 64.1693 86.7409 64.0307 86.5179C63.8922 86.2949 63.6989 86.1226 63.4509 86.001C63.2057 85.8794 62.9178 85.8215 62.5871 85.8273C62.2769 85.8327 61.9852 85.8949 61.7121 86.0138C61.4419 86.1298 61.2223 86.2961 61.0533 86.5128C60.8843 86.7265 60.7951 86.9828 60.7857 87.2815L59.7321 87.2999C59.7415 86.8284 59.8762 86.4133 60.1363 86.0545C60.3964 85.6928 60.7399 85.4087 61.1666 85.2022C61.5963 84.9956 62.0701 84.8878 62.5881 84.8788C63.1442 84.869 63.6232 84.9734 64.0252 85.1918C64.4271 85.4073 64.738 85.6961 64.9581 86.0582C65.1781 86.4203 65.2918 86.8135 65.2992 87.2379C65.3081 87.7442 65.1824 88.1782 64.9223 88.5399C64.6652 88.9015 64.311 89.1551 63.8597 89.3006L63.861 89.3708C64.4304 89.4545 64.878 89.6883 65.2038 90.0719C65.5295 90.4527 65.6974 90.9284 65.7073 91.4991C65.7159 91.9879 65.5904 92.4292 65.3308 92.8231C65.0742 93.214 64.7195 93.5246 64.2669 93.755C63.8142 93.9854 63.2966 94.1057 62.7142 94.1159ZM68.0416 93.9702C67.8251 93.974 67.6379 93.8997 67.4801 93.7473C67.3222 93.5948 67.2414 93.4104 67.2377 93.1938C67.2339 92.9772 67.3082 92.79 67.4606 92.6322C67.613 92.4744 67.7975 92.3936 68.0141 92.3898C68.2306 92.386 68.4178 92.4603 68.5756 92.6127C68.7335 92.7651 68.8143 92.9496 68.818 93.1662C68.8206 93.3096 68.7863 93.4419 68.7152 93.5632C68.647 93.6844 68.5536 93.7827 68.4349 93.8579C68.3191 93.9302 68.188 93.9676 68.0416 93.9702ZM73.3029 93.931C72.7878 93.94 72.3221 93.8457 71.9059 93.648C71.4896 93.4504 71.154 93.1752 70.899 92.8225C70.644 92.4698 70.5008 92.0653 70.4695 91.6092L71.523 91.5908C71.5711 91.9969 71.7614 92.3302 72.0938 92.5908C72.4291 92.8485 72.8265 92.9733 73.286 92.9653C73.6548 92.9588 73.981 92.8668 74.2648 92.6891C74.5516 92.5114 74.7742 92.2703 74.9329 91.966C75.0944 91.6587 75.1718 91.3134 75.1651 90.93C75.1582 90.5378 75.0658 90.1896 74.8878 89.8853C74.7126 89.5781 74.4742 89.3378 74.1726 89.1645C73.8709 88.9912 73.5284 88.9064 73.145 88.9101C72.8698 88.912 72.5881 88.9594 72.2999 89.0522C72.0117 89.1422 71.775 89.2561 71.5901 89.394L70.5695 89.2888L71.0366 84.8542L75.7075 84.7727L75.7244 85.7385L71.9666 85.8041L71.6968 88.4612L71.7494 88.4602C71.9313 88.3107 72.1604 88.1852 72.4367 88.0838C72.713 87.9823 73.0019 87.929 73.3034 87.9237C73.8536 87.9141 74.3461 88.0373 74.7809 88.2932C75.2186 88.5461 75.5643 88.8972 75.8181 89.3465C76.0748 89.7958 76.2082 90.3117 76.2184 90.8941C76.2284 91.4677 76.1085 91.9821 75.8589 92.4373C75.6121 92.8895 75.2671 93.2498 74.8238 93.5181C74.3805 93.7834 73.8735 93.9211 73.3029 93.931Z" fill="#FF819D"/>
<path d="M114.905 100.586L98.052 87.9206L81.3922 101.171L82.4099 159.473L115.923 158.888L114.905 100.586Z" fill="url(#paint2_linear_1_20)"/>
<path d="M87.7047 79.736L87.6035 73.9413L88.5869 73.9241L88.688 79.7189L87.7047 79.736ZM85.257 77.3723L85.2398 76.389L91.0346 76.2878L91.0517 77.2712L85.257 77.3723ZM96.1247 81.2929C95.5453 81.303 95.027 81.2125 94.5699 81.0214C94.1157 80.8303 93.7524 80.56 93.4798 80.2105C93.2102 79.858 93.0596 79.4464 93.0279 78.9756L94.1342 78.9563C94.1627 79.2457 94.2666 79.4941 94.4458 79.7018C94.6251 79.9065 94.8576 80.0635 95.1435 80.1727C95.4294 80.2818 95.745 80.3334 96.0903 80.3274C96.4766 80.3207 96.8179 80.2474 97.1141 80.1075C97.4102 79.9677 97.6411 79.7763 97.8066 79.5334C97.9722 79.2904 98.0522 79.0109 98.0467 78.6948C98.0409 78.3641 97.9539 78.0743 97.7856 77.8255C97.6173 77.5737 97.3738 77.3789 97.0552 77.241C96.7367 77.1031 96.3491 77.0382 95.8925 77.0461L95.1726 77.0587L95.1557 76.0929L95.8757 76.0804C96.2327 76.0741 96.5448 76.0043 96.8118 75.8708C97.0817 75.7373 97.2907 75.5521 97.4388 75.3153C97.5898 75.0785 97.6626 74.802 97.6571 74.486C97.6518 74.1816 97.5798 73.9179 97.4413 73.6949C97.3027 73.4719 97.1094 73.2996 96.8614 73.1781C96.6163 73.0565 96.3283 72.9985 95.9976 73.0043C95.6874 73.0097 95.3957 73.0719 95.1226 73.1908C94.8524 73.3068 94.6328 73.4731 94.4639 73.6898C94.2949 73.9035 94.2057 74.1598 94.1962 74.4585L93.1426 74.4769C93.152 74.0054 93.2867 73.5903 93.5469 73.2315C93.8069 72.8698 94.1504 72.5857 94.5771 72.3792C95.0068 72.1726 95.4806 72.0648 95.9986 72.0558C96.5547 72.0461 97.0337 72.1504 97.4357 72.3688C97.8376 72.5843 98.1485 72.8731 98.3686 73.2352C98.5886 73.5973 98.7023 73.9905 98.7097 74.4149C98.7186 74.9212 98.5929 75.3552 98.3329 75.7169C98.0757 76.0785 97.7215 76.3321 97.2703 76.4776L97.2715 76.5478C97.8409 76.6316 98.2885 76.8653 98.6143 77.2489C98.94 77.6297 99.1079 78.1054 99.1179 78.6761C99.1264 79.1649 99.0009 79.6062 98.7414 80.0001C98.4847 80.391 98.13 80.7017 97.6774 80.932C97.2247 81.1624 96.7071 81.2827 96.1247 81.2929ZM100.956 81.0856L100.942 80.2954L103.853 76.995C104.195 76.6085 104.476 76.2728 104.696 75.9879C104.917 75.7001 105.079 75.4308 105.183 75.1802C105.29 74.9265 105.341 74.6622 105.336 74.3871C105.33 74.071 105.249 73.7987 105.093 73.5701C104.94 73.3415 104.732 73.1666 104.469 73.0453C104.207 72.924 103.913 72.8661 103.588 72.8718C103.243 72.8778 102.942 72.9548 102.687 73.1027C102.435 73.2476 102.241 73.4486 102.105 73.7057C101.972 73.9627 101.908 74.2624 101.914 74.6049L100.878 74.6229C100.869 74.0961 100.982 73.6316 101.218 73.2294C101.454 72.8271 101.78 72.5111 102.194 72.2814C102.612 72.0516 103.083 71.9321 103.606 71.923C104.133 71.9138 104.602 72.0168 105.013 72.2322C105.423 72.4475 105.748 72.7419 105.985 73.1154C106.223 73.4889 106.346 73.9069 106.354 74.3693C106.36 74.7 106.306 75.0244 106.191 75.3426C106.08 75.6578 105.881 76.0111 105.595 76.4025C105.312 76.791 104.918 77.2663 104.412 77.8284L102.43 80.0235L102.432 80.0938L106.611 80.0208L106.628 80.9866L100.956 81.0856ZM109.215 81.0117C108.998 81.0155 108.811 80.9412 108.653 80.7888C108.495 80.6364 108.415 80.4519 108.411 80.2353C108.407 80.0187 108.481 79.8315 108.634 79.6737C108.786 79.5159 108.971 79.4351 109.187 79.4313C109.404 79.4275 109.591 79.5018 109.749 79.6542C109.907 79.8067 109.987 79.9911 109.991 80.2077C109.994 80.3511 109.959 80.4835 109.888 80.6047C109.82 80.7259 109.727 80.8242 109.608 80.8994C109.492 80.9717 109.361 81.0091 109.215 81.0117ZM114.476 80.9726C113.961 80.9816 113.495 80.8872 113.079 80.6896C112.663 80.4919 112.327 80.2167 112.072 79.864C111.817 79.5113 111.674 79.1069 111.643 78.6507L112.696 78.6323C112.744 79.0384 112.934 79.3718 113.267 79.6324C113.602 79.89 114 80.0148 114.459 80.0068C114.828 80.0003 115.154 79.9083 115.438 79.7306C115.725 79.5529 115.947 79.3118 116.106 79.0075C116.267 78.7003 116.345 78.3549 116.338 77.9715C116.331 77.5794 116.239 77.2311 116.061 76.9268C115.886 76.6196 115.647 76.3793 115.346 76.206C115.044 76.0327 114.701 75.9479 114.318 75.9517C114.043 75.9535 113.761 76.0009 113.473 76.0938C113.185 76.1837 112.948 76.2976 112.763 76.4355L111.743 76.3304L112.21 71.8958L116.881 71.8142L116.897 72.78L113.14 72.8456L112.87 75.5027L112.923 75.5018C113.104 75.3522 113.333 75.2267 113.61 75.1253C113.886 75.0238 114.175 74.9705 114.476 74.9652C115.027 74.9556 115.519 75.0788 115.954 75.3347C116.392 75.5876 116.737 75.9387 116.991 76.388C117.248 76.8373 117.381 77.3532 117.391 77.9356C117.401 78.5092 117.282 79.0236 117.032 79.4788C116.785 79.931 116.44 80.2913 115.997 80.5596C115.554 80.8249 115.047 80.9626 114.476 80.9726Z" fill="#FF63DE"/>
<path d="M155.353 81.1504L138.37 68.4869L121.84 81.7354L123.197 159.471L156.709 158.886L155.353 81.1504Z" fill="url(#paint3_linear_1_20)"/>
<path d="M128.323 60.2985L128.221 54.5038L129.205 54.4866L129.306 60.2814L128.323 60.2985ZM125.875 57.9348L125.858 56.9515L131.653 56.8503L131.67 57.8337L125.875 57.9348ZM133.605 59.9429L133.589 59.0473L137.431 52.727L138.081 52.7157L138.105 54.1029L137.666 54.1106L134.763 58.8863L134.764 58.9565L140.085 58.8636L140.102 59.8294L133.605 59.9429ZM137.869 61.7128L137.832 59.5968L137.825 59.1798L137.712 52.7221L138.748 52.704L138.905 61.6947L137.869 61.7128ZM144.819 61.7144C144.24 61.7245 143.721 61.634 143.264 61.4429C142.81 61.2518 142.447 60.9815 142.174 60.632C141.905 60.2796 141.754 59.8679 141.722 59.3972L142.829 59.3778C142.857 59.6672 142.961 59.9157 143.14 60.1233C143.319 60.328 143.552 60.485 143.838 60.5942C144.124 60.7034 144.439 60.755 144.785 60.7489C145.171 60.7422 145.512 60.6689 145.808 60.5291C146.105 60.3892 146.335 60.1978 146.501 59.9549C146.667 59.7119 146.747 59.4324 146.741 59.1163C146.735 58.7856 146.648 58.4959 146.48 58.247C146.312 57.9953 146.068 57.8004 145.75 57.6626C145.431 57.5247 145.043 57.4597 144.587 57.4677L143.867 57.4802L143.85 56.5144L144.57 56.5019C144.927 56.4956 145.239 56.4258 145.506 56.2923C145.776 56.1588 145.985 55.9736 146.133 55.7369C146.284 55.5 146.357 55.2236 146.351 54.9075C146.346 54.6031 146.274 54.3394 146.136 54.1164C145.997 53.8934 145.804 53.7211 145.556 53.5996C145.311 53.478 145.023 53.4201 144.692 53.4258C144.382 53.4312 144.09 53.4934 143.817 53.6124C143.547 53.7283 143.327 53.8946 143.158 54.1113C142.989 54.325 142.9 54.5813 142.891 54.8801L141.837 54.8985C141.846 54.427 141.981 54.0118 142.241 53.653C142.501 53.2913 142.845 53.0072 143.271 52.8007C143.701 52.5941 144.175 52.4863 144.693 52.4773C145.249 52.4676 145.728 52.5719 146.13 52.7903C146.532 53.0058 146.843 53.2946 147.063 53.6567C147.283 54.0188 147.397 54.412 147.404 54.8364C147.413 55.3427 147.287 55.7767 147.027 56.1384C146.77 56.5001 146.416 56.7536 145.965 56.8991L145.966 56.9693C146.535 57.0531 146.983 57.2868 147.309 57.6705C147.634 58.0512 147.802 58.5269 147.812 59.0976C147.821 59.5864 147.695 60.0277 147.436 60.4216C147.179 60.8125 146.824 61.1232 146.372 61.3536C145.919 61.584 145.402 61.7042 144.819 61.7144ZM150.147 61.5687C149.93 61.5725 149.743 61.4982 149.585 61.3458C149.427 61.1934 149.346 61.0089 149.343 60.7923C149.339 60.5757 149.413 60.3886 149.565 60.2307C149.718 60.0729 149.902 59.9921 150.119 59.9883C150.336 59.9846 150.523 60.0589 150.681 60.2113C150.838 60.3637 150.919 60.5482 150.923 60.7647C150.925 60.9081 150.891 61.0405 150.82 61.1617C150.752 61.283 150.659 61.3812 150.54 61.4565C150.424 61.5288 150.293 61.5662 150.147 61.5687ZM155.479 61.5283C154.9 61.5385 154.381 61.448 153.924 61.2569C153.47 61.0657 153.107 60.7954 152.834 60.4459C152.565 60.0935 152.414 59.6819 152.382 59.2111L153.489 59.1918C153.517 59.4811 153.621 59.7296 153.8 59.9373C153.979 60.142 154.212 60.2989 154.498 60.4081C154.784 60.5173 155.099 60.5689 155.445 60.5629C155.831 60.5561 156.172 60.4828 156.468 60.343C156.765 60.2031 156.995 60.0118 157.161 59.7688C157.327 59.5259 157.407 59.2463 157.401 58.9303C157.395 58.5996 157.308 58.3098 157.14 58.061C156.972 57.8092 156.728 57.6144 156.41 57.4765C156.091 57.3386 155.703 57.2736 155.247 57.2816L154.527 57.2942L154.51 56.3284L155.23 56.3158C155.587 56.3096 155.899 56.2397 156.166 56.1063C156.436 55.9727 156.645 55.7876 156.793 55.5508C156.944 55.3139 157.017 55.0375 157.011 54.7214C157.006 54.417 156.934 54.1533 156.796 53.9303C156.657 53.7073 156.464 53.5351 156.216 53.4135C155.971 53.2919 155.683 53.234 155.352 53.2398C155.042 53.2452 154.75 53.3074 154.477 53.4263C154.207 53.5423 153.987 53.7086 153.818 53.9252C153.649 54.139 153.56 54.3952 153.551 54.694L152.497 54.7124C152.506 54.2409 152.641 53.8257 152.901 53.467C153.161 53.1053 153.505 52.8212 153.931 52.6146C154.361 52.4081 154.835 52.3003 155.353 52.2912C155.909 52.2815 156.388 52.3859 156.79 52.6043C157.192 52.8197 157.503 53.1085 157.723 53.4706C157.943 53.8327 158.057 54.226 158.064 54.6503C158.073 55.1566 157.947 55.5907 157.687 55.9524C157.43 56.314 157.076 56.5676 156.625 56.713L156.626 56.7833C157.195 56.867 157.643 57.1007 157.969 57.4844C158.294 57.8651 158.462 58.3409 158.472 58.9116C158.481 59.4003 158.355 59.8416 158.096 60.2355C157.839 60.6264 157.484 60.9371 157.032 61.1675C156.579 61.3979 156.061 61.5182 155.479 61.5283Z" fill="#8E2DE2"/>
<path d="M195.745 55.2363L178.762 42.5728L162.232 55.8213L164.041 159.469L197.554 158.884L195.745 55.2363Z" fill="url(#paint4_linear_1_20)"/>
<path d="M168.94 34.3738L168.839 28.579L169.822 28.5619L169.923 34.3566L168.94 34.3738ZM166.492 32.0101L166.475 31.0267L172.27 30.9256L172.287 31.9089L166.492 32.0101ZM177.277 35.9321C176.762 35.9411 176.296 35.8468 175.88 35.6491C175.463 35.4514 175.128 35.1762 174.873 34.8235C174.618 34.4708 174.475 34.0664 174.443 33.6103L175.497 33.5919C175.545 33.998 175.735 34.3313 176.068 34.5919C176.403 34.8495 176.8 34.9743 177.26 34.9663C177.629 34.9599 177.955 34.8678 178.239 34.6901C178.525 34.5124 178.748 34.2714 178.907 33.9671C179.068 33.6598 179.146 33.3145 179.139 32.9311C179.132 32.5389 179.04 32.1907 178.862 31.8864C178.686 31.5791 178.448 31.3388 178.146 31.1655C177.845 30.9922 177.502 30.9074 177.119 30.9112C176.844 30.9131 176.562 30.9604 176.274 31.0533C175.985 31.1432 175.749 31.2571 175.564 31.395L174.543 31.2899L175.01 26.8553L179.681 26.7738L179.698 27.7396L175.94 27.8052L175.671 30.4622L175.723 30.4613C175.905 30.3117 176.134 30.1863 176.41 30.0848C176.687 29.9834 176.976 29.93 177.277 29.9248C177.827 29.9152 178.32 30.0383 178.755 30.2942C179.192 30.5471 179.538 30.8982 179.792 31.3476C180.049 31.7969 180.182 32.3127 180.192 32.8951C180.202 33.4687 180.082 33.9832 179.833 34.4384C179.586 34.8906 179.241 35.2508 178.798 35.5191C178.354 35.7845 177.847 35.9221 177.277 35.9321ZM184.798 35.8008C184.283 35.8098 183.817 35.7155 183.401 35.5178C182.985 35.3202 182.649 35.045 182.394 34.6923C182.139 34.3395 181.996 33.9351 181.964 33.479L183.018 33.4606C183.066 33.8667 183.256 34.2 183.589 34.4606C183.924 34.7182 184.321 34.843 184.781 34.835C185.15 34.8286 185.476 34.7365 185.76 34.5589C186.046 34.3811 186.269 34.1401 186.428 33.8358C186.589 33.5285 186.667 33.1832 186.66 32.7998C186.653 32.4076 186.561 32.0594 186.383 31.7551C186.207 31.4478 185.969 31.2076 185.667 31.0342C185.366 30.8609 185.023 30.7762 184.64 30.7799C184.365 30.7818 184.083 30.8292 183.795 30.922C183.507 31.0119 183.27 31.1259 183.085 31.2638L182.064 31.1586L182.531 26.724L187.202 26.6425L187.219 27.6083L183.461 27.6739L183.192 30.3309L183.244 30.33C183.426 30.1805 183.655 30.055 183.932 29.9535C184.208 29.8521 184.497 29.7988 184.798 29.7935C185.348 29.7839 185.841 29.907 186.276 30.1629C186.713 30.4158 187.059 30.767 187.313 31.2163C187.57 31.6656 187.703 32.1814 187.713 32.7638C187.723 33.3375 187.603 33.8519 187.354 34.3071C187.107 34.7593 186.762 35.1196 186.319 35.3878C185.875 35.6532 185.368 35.7909 184.798 35.8008ZM189.943 35.6583C189.726 35.6621 189.539 35.5878 189.381 35.4354C189.224 35.283 189.143 35.0985 189.139 34.8819C189.135 34.6653 189.21 34.4781 189.362 34.3203C189.514 34.1625 189.699 34.0817 189.915 34.0779C190.132 34.0741 190.319 34.1485 190.477 34.3009C190.635 34.4533 190.716 34.6378 190.719 34.8543C190.722 34.9977 190.688 35.1301 190.617 35.2513C190.548 35.3726 190.455 35.4708 190.336 35.5461C190.22 35.6183 190.089 35.6558 189.943 35.6583ZM195.204 35.6192C194.689 35.6282 194.223 35.5338 193.807 35.3362C193.391 35.1385 193.055 34.8633 192.8 34.5106C192.545 34.1579 192.402 33.7535 192.371 33.2973L193.424 33.2789C193.472 33.685 193.663 34.0184 193.995 34.279C194.33 34.5366 194.728 34.6614 195.187 34.6534C195.556 34.6469 195.882 34.5549 196.166 34.3772C196.453 34.1995 196.676 33.9585 196.834 33.6542C196.996 33.3469 197.073 33.0015 197.066 32.6181C197.06 32.226 196.967 31.8777 196.789 31.5735C196.614 31.2662 196.376 31.0259 196.074 30.8526C195.772 30.6793 195.43 30.5945 195.046 30.5983C194.771 30.6001 194.489 30.6475 194.201 30.7404C193.913 30.8303 193.676 30.9442 193.491 31.0821L192.471 30.977L192.938 26.5424L197.609 26.4608L197.626 27.4266L193.868 27.4922L193.598 30.1493L193.651 30.1484C193.833 29.9988 194.062 29.8733 194.338 29.7719C194.614 29.6705 194.903 29.6171 195.205 29.6119C195.755 29.6023 196.247 29.7254 196.682 29.9813C197.12 30.2342 197.466 30.5853 197.719 31.0347C197.976 31.4839 198.11 31.9998 198.12 32.5822C198.13 33.1558 198.01 33.6702 197.76 34.1254C197.513 34.5777 197.168 34.9379 196.725 35.2062C196.282 35.4716 195.775 35.6092 195.204 35.6192Z" fill="#9C27B0"/>
<path d="M1.96139 98.4807C1.96139 98.4807 19.9765 78.7264 58.3157 71.5772C86.3044 66.3583 113.459 56.3479 141.15 29.4533C155.153 15.8548 167.916 6.78141 178.978 1.98215" stroke="#BDBDBD" stroke-width="1.07983" stroke-linecap="round" stroke-linejoin="round"/>
<path d="M17.3981 88.0192C19.0378 87.9906 20.3439 86.638 20.3153 84.9983C20.2867 83.3585 18.9342 82.0524 17.2944 82.081C15.6546 82.1096 14.3485 83.4621 14.3772 85.1019C14.4058 86.7417 15.7583 88.0478 17.3981 88.0192Z" fill="url(#paint5_linear_1_20)"/>
<path d="M57.9784 73.9816C59.6182 73.953 60.9243 72.6005 60.8956 70.9607C60.867 69.3209 59.5145 68.0148 57.8747 68.0434C56.235 68.072 54.9289 69.4246 54.9575 71.0643C54.9861 72.7041 56.3386 74.0102 57.9784 73.9816Z" fill="url(#paint6_linear_1_20)"/>
<path d="M98.5958 62.2379C100.236 62.2093 101.542 60.8568 101.513 59.217C101.484 57.5772 100.132 56.2711 98.4922 56.2998C96.8524 56.3284 95.5463 57.6809 95.5749 59.3207C95.6035 60.9604 96.956 62.2665 98.5958 62.2379Z" fill="url(#paint7_linear_1_20)"/>
<path d="M139.213 35.1076C140.853 35.0789 142.159 33.7264 142.131 32.0867C142.102 30.4469 140.75 29.1408 139.11 29.1694C137.47 29.198 136.164 30.5505 136.193 32.1903C136.221 33.8301 137.574 35.1362 139.213 35.1076Z" fill="url(#paint8_linear_1_20)"/>
<path d="M179.843 6.15736C181.482 6.12874 182.789 4.77623 182.76 3.13646C182.731 1.49668 181.379 0.190579 179.739 0.219201C178.099 0.247824 176.793 1.60033 176.822 3.24011C176.85 4.87988 178.203 6.18598 179.843 6.15736Z" fill="url(#paint9_linear_1_20)"/>
<defs>
<linearGradient id="paint0_linear_1_20" x1="10.2152" y1="131.686" x2="25.4459" y2="169.279" gradientUnits="userSpaceOnUse">
<stop stop-color="#FDC830"/>
<stop offset="1" stop-color="#F37335"/>
</linearGradient>
<linearGradient id="paint1_linear_1_20" x1="46.6638" y1="108.163" x2="70.4147" y2="167.358" gradientUnits="userSpaceOnUse">
<stop stop-color="#FF839D"/>
<stop offset="1" stop-color="#F50B9A"/>
</linearGradient>
<linearGradient id="paint2_linear_1_20" x1="90.2321" y1="103.658" x2="110.247" y2="166.315" gradientUnits="userSpaceOnUse">
<stop stop-color="#FF63DE"/>
<stop offset="1" stop-color="#B122E5"/>
</linearGradient>
<linearGradient id="paint3_linear_1_20" x1="124.259" y1="79.5601" x2="157.992" y2="171.095" gradientUnits="userSpaceOnUse">
<stop stop-color="#8E2DE2"/>
<stop offset="1" stop-color="#4A00E0"/>
</linearGradient>
<linearGradient id="paint4_linear_1_20" x1="168.511" y1="66.8627" x2="197.373" y2="169.525" gradientUnits="userSpaceOnUse">
<stop stop-color="#9C27B0"/>
<stop offset="1" stop-color="#4A148C"/>
</linearGradient>
<linearGradient id="paint5_linear_1_20" x1="15.9766" y1="81.7584" x2="19.2173" y2="89.5318" gradientUnits="userSpaceOnUse">
<stop stop-color="#FDC830"/>
<stop offset="1" stop-color="#F37335"/>
</linearGradient>
<linearGradient id="paint6_linear_1_20" x1="55.817" y1="66.7887" x2="60.2935" y2="75.7556" gradientUnits="userSpaceOnUse">
<stop stop-color="#FF839D"/>
<stop offset="1" stop-color="#F50B9A"/>
</linearGradient>
<linearGradient id="paint7_linear_1_20" x1="96.5921" y1="56.0305" x2="101.18" y2="63.6454" gradientUnits="userSpaceOnUse">
<stop stop-color="#FF63DE"/>
<stop offset="1" stop-color="#B122E5"/>
</linearGradient>
<linearGradient id="paint8_linear_1_20" x1="136.995" y1="28.0615" x2="140.904" y2="35.4183" gradientUnits="userSpaceOnUse">
<stop stop-color="#8E2DE2"/>
<stop offset="1" stop-color="#4A00E0"/>
</linearGradient>
<linearGradient id="paint9_linear_1_20" x1="178.042" y1="-1.07958" x2="182.436" y2="9.63828" gradientUnits="userSpaceOnUse">
<stop stop-color="#9C27B0"/>
<stop offset="1" stop-color="#4A148C"/>
</linearGradient>
</defs>
</svg>
