<svg width="248" height="178" viewBox="0 0 248 178" fill="none" xmlns="http://www.w3.org/2000/svg">
<g clip-path="url(#clip0_200_5546)">
<g opacity="0.32">
<path opacity="0.0196" d="M169.074 163.506C172.231 155.926 150.785 139.782 121.172 127.448C91.5593 115.113 64.9941 111.259 61.8368 118.839C58.6795 126.419 80.1258 142.563 109.738 154.897C139.351 167.232 165.916 171.086 169.074 163.506Z" fill="#0F0A26"/>
<path opacity="0.0392" d="M168.752 163.361C171.867 155.882 150.706 139.952 121.486 127.781C92.2665 115.61 66.0538 111.807 62.9384 119.286C59.823 126.766 80.9847 142.696 110.204 154.866C139.424 167.037 165.637 170.841 168.752 163.361Z" fill="#0F0A26"/>
<path opacity="0.0588" d="M168.429 163.214C171.502 155.835 150.625 140.12 121.799 128.113C92.9733 116.106 67.1135 112.354 64.04 119.733C60.9665 127.112 81.8432 142.827 110.669 154.834C139.495 166.841 165.355 170.593 168.429 163.214Z" fill="#0F0A26"/>
<path opacity="0.0784" d="M168.106 163.069C171.137 155.79 150.546 140.29 122.113 128.446C93.6805 116.603 68.1737 112.903 65.1421 120.181C62.1105 127.459 82.7021 142.96 111.135 154.803C139.567 166.646 165.074 170.347 168.106 163.069Z" fill="#0F0A26"/>
<path opacity="0.098" d="M167.784 162.924C170.774 155.747 150.467 140.461 122.428 128.781C94.3889 117.102 69.2353 113.453 66.2458 120.63C63.2563 127.807 83.563 143.093 111.602 154.772C139.641 166.451 164.795 170.101 167.784 162.924Z" fill="#0F0A26"/>
<path opacity="0.1176" d="M167.462 162.777C170.41 155.701 150.387 140.629 122.741 129.114C95.0952 117.598 70.2942 114 67.3466 121.076C64.399 128.153 84.4211 143.224 112.067 154.74C139.713 166.255 164.514 169.854 167.462 162.777Z" fill="#0F0A26"/>
<path opacity="0.1373" d="M167.14 162.632C170.045 155.656 150.308 140.799 123.056 129.447C95.8032 118.096 71.3551 114.548 68.4494 121.524C65.5438 128.5 85.2808 143.358 112.533 154.709C139.786 166.061 164.234 169.608 167.14 162.632Z" fill="#0F0A26"/>
<path opacity="0.1569" d="M166.818 162.487C169.681 155.611 150.229 140.968 123.37 129.781C96.5112 118.593 72.416 115.097 69.5523 121.973C66.6885 128.848 86.1405 143.491 113 154.678C139.859 165.866 163.954 169.362 166.818 162.487Z" fill="#0F0A26"/>
<path opacity="0.1765" d="M166.493 162.34C169.315 155.565 150.148 141.137 123.683 130.113C97.2173 119.089 73.4752 115.645 70.6533 122.419C67.8314 129.194 86.9984 143.623 113.464 154.646C139.929 165.67 163.672 169.114 166.493 162.34Z" fill="#0F0A26"/>
<path opacity="0.1961" d="M166.172 162.194C168.951 155.52 150.069 141.306 123.996 130.446C97.9238 119.586 74.5344 116.193 71.7546 122.866C68.9749 129.54 87.8574 143.754 113.93 154.614C140.003 165.474 163.392 168.867 166.172 162.194Z" fill="#0F0A26"/>
<path opacity="0.2157" d="M165.851 162.049C168.588 155.476 149.991 141.477 124.312 130.78C98.6329 120.084 75.5964 116.742 72.8586 123.315C70.1207 129.888 88.7182 143.887 114.397 154.583C140.076 165.279 163.113 168.622 165.851 162.049Z" fill="#0F0A26"/>
<path opacity="0.2353" d="M165.526 161.903C168.222 155.431 149.91 141.646 124.624 131.114C99.3389 120.581 76.6554 117.29 73.9595 123.763C71.2635 130.235 89.576 144.02 114.861 154.552C140.147 165.084 162.83 168.376 165.526 161.903Z" fill="#0F0A26"/>
<path opacity="0.2549" d="M165.204 161.756C167.858 155.385 149.831 141.814 124.939 131.446C100.047 121.077 77.7165 117.838 75.0624 124.209C72.4084 130.581 90.4358 144.152 115.328 154.52C140.22 164.888 162.55 168.128 165.204 161.756Z" fill="#0F0A26"/>
<path opacity="0.2745" d="M164.881 161.611C167.493 155.34 149.751 141.984 125.252 131.779C100.754 121.575 78.7765 118.386 76.1643 124.658C73.5521 130.929 91.2945 144.285 115.793 154.489C140.292 164.694 162.269 167.882 164.881 161.611Z" fill="#0F0A26"/>
<path opacity="0.2941" d="M164.56 161.466C167.131 155.296 149.673 142.154 125.567 132.114C101.462 122.073 79.8368 118.935 77.2667 125.105C74.6967 131.275 92.1546 144.417 116.26 154.458C140.366 164.498 161.99 167.636 164.56 161.466Z" fill="#0F0A26"/>
<path opacity="0.3137" d="M164.237 161.32C166.765 155.251 149.593 142.324 125.881 132.447C102.169 122.57 80.8968 119.484 78.3686 125.553C75.8405 131.623 93.0134 144.55 116.725 154.426C140.437 164.303 161.709 167.39 164.237 161.32Z" fill="#0F0A26"/>
<path opacity="0.3333" d="M163.914 161.173C166.401 155.204 149.513 142.492 126.194 132.779C102.876 123.066 81.9568 120.031 79.4706 126C76.9844 131.969 93.8722 144.681 117.191 154.394C140.509 164.107 161.428 167.142 163.914 161.173Z" fill="#0F0A26"/>
<path opacity="0.3529" d="M163.591 161.029C166.035 155.16 149.432 142.662 126.508 133.113C103.583 123.564 83.0167 120.58 80.5723 126.449C78.128 132.317 94.7308 144.815 117.656 154.364C140.581 163.913 161.147 166.897 163.591 161.029Z" fill="#0F0A26"/>
<path opacity="0.3725" d="M163.272 160.883C165.674 155.115 149.356 142.831 126.824 133.446C104.292 124.06 84.0787 121.128 81.6763 126.895C79.2739 132.663 95.5921 144.947 118.124 154.332C140.656 163.718 160.869 166.65 163.272 160.883Z" fill="#0F0A26"/>
<path opacity="0.3922" d="M162.947 160.737C165.308 155.07 149.275 143 127.136 133.779C104.998 124.557 85.1374 121.676 82.7768 127.343C80.4163 133.01 96.4494 145.08 118.588 154.301C140.726 163.523 160.587 166.404 162.947 160.737Z" fill="#0F0A26"/>
<path opacity="0.4118" d="M162.625 160.591C164.943 155.025 149.195 143.171 127.45 134.113C105.705 125.056 86.1981 122.225 83.8796 127.791C81.5612 133.357 97.3095 145.212 119.054 154.27C140.799 163.327 160.307 166.157 162.625 160.591Z" fill="#0F0A26"/>
<path opacity="0.4314" d="M162.302 160.445C164.579 154.98 149.115 143.339 127.764 134.446C106.412 125.552 87.2583 122.773 84.9817 128.239C82.7052 133.704 98.1685 145.344 119.52 154.238C140.871 163.131 160.026 165.911 162.302 160.445Z" fill="#0F0A26"/>
<path opacity="0.451" d="M161.981 160.3C164.215 154.935 149.037 143.509 128.078 134.779C107.12 126.049 88.318 123.321 86.0834 128.686C83.8487 134.051 99.0274 145.477 119.986 154.207C140.944 162.937 159.746 165.664 161.981 160.3Z" fill="#0F0A26"/>
<path opacity="0.4706" d="M161.657 160.154C163.85 154.89 148.956 143.678 128.391 135.113C107.826 126.547 89.3777 123.87 87.185 129.134C84.9923 134.399 99.8859 145.61 120.451 154.176C141.016 162.742 159.464 165.418 161.657 160.154Z" fill="#0F0A26"/>
<path opacity="0.4902" d="M161.336 160.008C163.487 154.845 148.878 143.848 128.707 135.446C108.536 127.044 90.4399 124.418 88.2891 129.582C86.1382 134.746 100.747 145.743 120.918 154.145C141.09 162.547 159.185 165.172 161.336 160.008Z" fill="#0F0A26"/>
<path opacity="0.5098" d="M161.012 159.862C163.121 154.799 148.797 144.017 129.019 135.779C109.241 127.541 91.4985 124.966 89.3898 130.029C87.2811 135.091 101.605 145.874 121.383 154.112C141.161 162.35 158.903 164.924 161.012 159.862Z" fill="#0F0A26"/>
<path opacity="0.5294" d="M160.689 159.717C162.756 154.755 148.717 144.187 129.332 136.113C109.947 128.038 92.5572 125.515 90.4904 130.477C88.4236 135.439 102.463 146.007 121.848 154.081C141.232 162.156 158.623 164.679 160.689 159.717Z" fill="#0F0A26"/>
<path opacity="0.549" d="M160.367 159.571C162.392 154.71 148.638 144.356 129.647 136.446C110.655 128.535 93.6182 126.063 91.5933 130.925C89.5684 135.786 103.322 146.14 122.314 154.05C141.305 161.961 158.342 164.433 160.367 159.571Z" fill="#0F0A26"/>
<path opacity="0.5686" d="M160.045 159.425C162.028 154.664 148.559 144.525 129.961 136.778C111.363 129.031 94.6791 126.611 92.6961 131.372C90.7131 136.132 104.182 146.272 122.78 154.018C141.378 161.765 158.062 164.185 160.045 159.425Z" fill="#0F0A26"/>
<path opacity="0.5882" d="M159.722 159.28C161.663 154.62 148.479 144.695 130.275 137.112C112.07 129.529 95.7393 127.16 93.7982 131.82C91.8571 136.48 105.041 146.405 123.245 153.988C141.45 161.571 157.781 163.94 159.722 159.28Z" fill="#0F0A26"/>
<path opacity="0.6078" d="M159.4 159.134C161.299 154.575 148.4 144.865 130.588 137.446C112.777 130.027 96.7986 127.709 94.8996 132.268C93.0006 136.827 105.9 146.537 123.711 153.956C141.523 161.375 157.501 163.693 159.4 159.134Z" fill="#0F0A26"/>
<path opacity="0.6275" d="M159.079 158.987C160.936 154.528 148.322 145.033 130.904 137.778C113.486 130.523 97.8606 128.255 96.0035 132.714C94.1465 137.172 106.761 146.668 124.179 153.923C141.597 161.178 157.222 163.445 159.079 158.987Z" fill="#0F0A26"/>
<path opacity="0.6471" d="M158.756 158.843C160.571 154.485 148.242 145.203 131.217 138.112C114.193 131.021 98.9205 128.805 97.1053 133.163C95.2901 137.521 107.62 146.802 124.644 153.893C141.668 160.985 156.941 163.2 158.756 158.843Z" fill="#0F0A26"/>
<path opacity="0.6667" d="M158.433 158.696C160.206 154.439 148.162 145.372 131.531 138.445C114.9 131.518 99.9807 129.353 98.2074 133.61C96.4341 137.868 108.479 146.934 125.109 153.862C141.74 160.789 156.66 162.953 158.433 158.696Z" fill="#0F0A26"/>
<path opacity="0.6863" d="M158.11 158.55C159.841 154.393 148.082 145.541 131.844 138.778C115.607 132.014 101.041 129.901 99.3091 134.058C97.5778 138.214 109.337 147.067 125.574 153.83C141.812 160.593 156.378 162.707 158.11 158.55Z" fill="#0F0A26"/>
<path opacity="0.7059" d="M157.789 158.405C159.478 154.35 148.003 145.712 132.159 139.112C116.315 132.513 102.101 130.45 100.412 134.506C98.7223 138.561 110.197 147.199 126.042 153.799C141.886 160.398 156.1 162.461 157.789 158.405Z" fill="#0F0A26"/>
<path opacity="0.7255" d="M157.466 158.26C159.113 154.305 147.923 145.881 132.472 139.446C117.021 133.01 103.161 130.999 101.513 134.954C99.866 138.909 111.056 147.332 126.507 153.768C141.957 160.203 155.818 162.214 157.466 158.26Z" fill="#0F0A26"/>
<path opacity="0.7451" d="M157.144 158.113C158.749 154.259 147.844 146.05 132.787 139.778C117.73 133.506 104.222 131.547 102.616 135.401C101.011 139.255 111.916 147.464 126.973 153.736C142.03 160.008 155.538 161.968 157.144 158.113Z" fill="#0F0A26"/>
<path opacity="0.7647" d="M156.819 157.967C158.383 154.213 147.763 146.219 133.099 140.111C118.435 134.003 105.281 132.094 103.717 135.848C102.153 139.602 112.773 147.596 127.437 153.704C142.101 159.812 155.256 161.721 156.819 157.967Z" fill="#0F0A26"/>
<path opacity="0.7843" d="M156.499 157.822C158.021 154.169 147.686 146.389 133.415 140.445C119.144 134.501 106.342 132.643 104.82 136.296C103.298 139.95 113.634 147.73 127.904 153.674C142.175 159.618 154.977 161.476 156.499 157.822Z" fill="#0F0A26"/>
<path opacity="0.8039" d="M156.175 157.677C157.655 154.125 147.604 146.559 133.727 140.779C119.85 134.999 107.401 133.192 105.921 136.744C104.442 140.296 114.492 147.862 128.369 153.642C142.247 159.422 154.696 161.229 156.175 157.677Z" fill="#0F0A26"/>
<path opacity="0.8235" d="M155.851 157.531C157.289 154.079 147.524 146.728 134.04 141.112C120.556 135.496 108.46 133.741 107.023 137.192C105.585 140.643 115.35 147.994 128.834 153.611C142.318 159.227 154.414 160.982 155.851 157.531Z" fill="#0F0A26"/>
<path opacity="0.8431" d="M155.53 157.384C156.926 154.034 147.446 146.897 134.356 141.445C121.265 135.992 109.522 134.288 108.126 137.639C106.731 140.99 116.211 148.127 129.301 153.579C142.391 159.032 154.135 160.735 155.53 157.384Z" fill="#0F0A26"/>
<path opacity="0.8627" d="M155.209 157.24C156.563 153.99 147.367 147.067 134.67 141.779C121.973 136.49 110.582 134.837 109.228 138.088C107.874 141.338 117.07 148.26 129.767 153.549C142.464 158.838 153.855 160.49 155.209 157.24Z" fill="#0F0A26"/>
<path opacity="0.8824" d="M154.886 157.093C156.197 153.943 147.287 147.235 134.983 142.11C122.679 136.985 111.642 135.384 110.33 138.534C109.018 141.684 117.928 148.391 130.232 153.516C142.536 158.641 153.574 160.242 154.886 157.093Z" fill="#0F0A26"/>
<path opacity="0.902" d="M154.563 156.948C155.833 153.899 147.207 147.406 135.297 142.445C123.387 137.484 112.702 135.934 111.433 138.983C110.163 142.031 118.789 148.524 130.699 153.485C142.609 158.446 153.293 159.996 154.563 156.948Z" fill="#0F0A26"/>
<path opacity="0.9216" d="M154.24 156.802C155.468 153.854 147.128 147.575 135.611 142.778C124.094 137.981 113.763 136.482 112.535 139.43C111.307 142.378 119.648 148.657 131.164 153.454C142.681 158.251 153.012 159.75 154.24 156.802Z" fill="#0F0A26"/>
<path opacity="0.9412" d="M153.918 156.655C155.104 153.808 147.048 147.744 135.924 143.11C124.8 138.477 114.821 137.029 113.635 139.877C112.449 142.724 120.505 148.788 131.629 153.422C142.753 158.055 152.732 159.503 153.918 156.655Z" fill="#0F0A26"/>
<path opacity="0.9608" d="M153.597 156.511C154.741 153.764 146.97 147.914 136.24 143.445C125.509 138.975 115.883 137.579 114.739 140.325C113.595 143.072 121.366 148.922 132.096 153.391C142.826 157.861 152.452 159.257 153.597 156.511Z" fill="#0F0A26"/>
<path opacity="0.9804" d="M153.273 156.365C154.376 153.719 146.89 148.084 136.553 143.778C126.216 139.473 116.943 138.127 115.841 140.774C114.739 143.42 122.225 149.055 132.561 153.361C142.898 157.666 152.171 159.012 153.273 156.365Z" fill="#0F0A26"/>
<path d="M152.95 156.219C154.011 153.673 146.81 148.252 136.867 144.11C126.923 139.969 118.003 138.675 116.943 141.22C115.883 143.766 123.084 149.187 133.027 153.329C142.97 157.47 151.89 158.764 152.95 156.219Z" fill="#0F0A26"/>
</g>
<path d="M119.97 50.1884L131.445 57.075L142.946 50.1884L131.458 43.584L119.97 50.1884Z" fill="url(#paint0_linear_200_5546)"/>
<path d="M142.946 50.189V141.255L131.445 148.142V57.0756L142.946 50.189Z" fill="url(#paint1_linear_200_5546)"/>
<path d="M119.969 50.189V141.255L131.444 148.142V57.0756L119.969 50.189Z" fill="url(#paint2_linear_200_5546)"/>
<path d="M146.921 43.3281L158.396 50.2146L169.898 43.3281L158.409 36.7236L146.921 43.3281Z" fill="url(#paint3_linear_200_5546)"/>
<path d="M169.897 43.3286V160.711L158.396 167.599V50.2152L169.897 43.3286Z" fill="url(#paint4_linear_200_5546)"/>
<path d="M146.921 43.3286V160.711L158.396 167.599V50.2152L146.921 43.3286Z" fill="url(#paint5_linear_200_5546)"/>
<path d="M94.3822 59.8705L105.857 66.7571L117.359 59.8705L105.87 53.2671L94.3822 59.8705Z" fill="url(#paint6_linear_200_5546)"/>
<path d="M117.36 59.8706V126.09L105.858 132.977V66.7572L117.36 59.8706Z" fill="url(#paint7_linear_200_5546)"/>
<path d="M94.3822 59.8706V126.09L105.857 132.977V66.7572L94.3822 59.8706Z" fill="url(#paint8_linear_200_5546)"/>
<path d="M68.7927 62.5155L80.2676 69.4031L91.7691 62.5155L80.2809 55.9121L68.7927 62.5155Z" fill="url(#paint9_linear_200_5546)"/>
<path d="M91.769 62.5156V110.925L80.2675 117.813V69.4032L91.769 62.5156Z" fill="url(#paint10_linear_200_5546)"/>
<path d="M68.7922 62.5156V110.925L80.2672 117.813V69.4032L68.7922 62.5156Z" fill="url(#paint11_linear_200_5546)"/>
<path d="M43.2051 68.6937L54.679 75.5813L66.1805 68.6937L54.6923 62.0903L43.2051 68.6937Z" fill="url(#paint12_linear_200_5546)"/>
<path d="M66.1814 68.6948V95.7617L54.6799 102.648V75.5824L66.1814 68.6948Z" fill="url(#paint13_linear_200_5546)"/>
<path d="M43.2051 68.6948V95.7617L54.679 102.648V75.5824L43.2051 68.6948Z" fill="url(#paint14_linear_200_5546)"/>
<path d="M199.786 14.2876L177.329 15.9428L173.318 17.4283L184.898 22.0289L112.739 72.6529L79.0953 23.8027L75.0835 25.2881L14.6991 70.8852L13.4069 76.09L17.4176 74.6045L77.9891 30.3151L107.576 80.5884L111.588 79.1019L187.612 25.7523L187.383 36.7232L191.394 35.2377L199.786 14.2876Z" fill="url(#paint15_linear_200_5546)"/>
<path d="M195.774 15.7734L173.317 17.4286L180.887 23.5147L108.728 74.1387L75.0831 25.2885L10.687 72.371L13.4065 76.0904L73.977 31.8019L107.576 80.5887L183.6 27.2381L187.383 36.7235L195.774 15.7734Z" fill="url(#paint16_linear_200_5546)"/>
<g opacity="0.4">
<path d="M195.635 16.1246L195.775 15.7739L173.318 17.4291L173.705 17.7399L195.635 16.1246Z" fill="white"/>
<path d="M75.0515 25.631L108.695 74.4802L180.854 23.8573L180.642 23.6865L108.728 74.1387L75.0831 25.2886L10.687 72.3711L10.8393 72.5786L75.0515 25.631Z" fill="white"/>
</g>
<path d="M219.558 108.198C219.581 107.933 219.599 107.665 219.612 107.397C219.618 107.274 219.62 107.15 219.626 107.026C219.628 106.973 219.63 106.921 219.631 106.869C219.634 106.775 219.639 106.682 219.641 106.588C219.646 106.317 219.647 106.044 219.644 105.77C219.641 105.491 219.633 105.211 219.621 104.929C219.621 104.92 219.62 104.912 219.62 104.903C219.619 104.892 219.619 104.88 219.618 104.868C219.607 104.607 219.593 104.343 219.573 104.079C219.553 103.787 219.527 103.493 219.498 103.199C219.488 103.093 219.473 102.986 219.461 102.881C219.454 102.822 219.448 102.761 219.44 102.702C219.425 102.572 219.413 102.442 219.395 102.312C219.357 102.013 219.314 101.712 219.267 101.411C219.232 101.19 219.192 100.969 219.153 100.747C219.146 100.707 219.14 100.667 219.133 100.628C219.126 100.589 219.119 100.549 219.112 100.51C219.058 100.216 218.999 99.9211 218.936 99.6257C218.875 99.3343 218.81 99.0429 218.74 98.7505C218.727 98.6963 218.713 98.6411 218.699 98.5869C218.689 98.544 218.678 98.5 218.667 98.4561C218.622 98.2731 218.578 98.0901 218.53 97.9071C218.456 97.6269 218.379 97.3478 218.3 97.0687C218.241 96.8663 218.18 96.6649 218.119 96.4635C218.108 96.4298 218.098 96.395 218.088 96.3613C218.076 96.3224 218.065 96.2826 218.053 96.2437C217.966 95.9636 217.875 95.6845 217.782 95.4054C217.679 95.0976 217.572 94.792 217.461 94.4863C217.445 94.4403 217.425 94.3943 217.409 94.3483C217.387 94.2869 217.362 94.2266 217.34 94.1653C217.249 93.923 217.16 93.6786 217.064 93.4373C216.944 93.1337 216.812 92.8342 216.684 92.5336C216.62 92.3812 216.559 92.2289 216.493 92.0776C216.466 92.0173 216.443 91.9549 216.416 91.8946C216.3 91.6319 216.167 91.3773 216.044 91.1176C215.866 90.7383 215.693 90.358 215.503 89.9859C215.474 89.9266 215.447 89.8652 215.418 89.8059C215.138 89.262 214.847 88.7253 214.543 88.1978C214.341 87.8451 214.133 87.4954 213.921 87.1509C213.749 86.8728 213.574 86.5978 213.396 86.3258C213.391 86.3177 213.386 86.3105 213.382 86.3033C213.38 86.2992 213.377 86.2962 213.375 86.2921C213.194 86.0161 213.01 85.7421 212.823 85.4732C212.639 85.2084 212.453 84.9467 212.263 84.688C212.232 84.6461 212.2 84.6062 212.169 84.5653C212.137 84.5214 212.103 84.4774 212.07 84.4335C211.937 84.2556 211.805 84.0766 211.669 83.9028C211.466 83.6432 211.261 83.3866 211.052 83.1351C210.989 83.0584 210.923 82.9848 210.859 82.9081C210.811 82.8508 210.762 82.7946 210.714 82.7384C210.61 82.6177 210.509 82.4951 210.405 82.3775C210.188 82.1311 209.967 81.8898 209.745 81.6537C209.648 81.5504 209.548 81.4512 209.45 81.35C209.401 81.2999 209.353 81.2498 209.304 81.1997C209.229 81.1241 209.156 81.0454 209.081 80.9707C208.863 80.754 208.643 80.5424 208.421 80.3358C208.261 80.1876 208.1 80.0445 207.937 79.9013C207.906 79.8737 207.876 79.8461 207.845 79.8185C207.817 79.794 207.79 79.7684 207.762 79.7439C207.548 79.5589 207.333 79.3769 207.115 79.201C206.9 79.0272 206.685 78.8586 206.467 78.694C206.417 78.6561 206.367 78.6183 206.315 78.5815C206.152 78.4598 205.988 78.3423 205.825 78.2278C205.613 78.0795 205.4 77.9364 205.19 77.8004C205.052 77.7115 204.914 77.6287 204.777 77.5448C204.745 77.5254 204.712 77.5049 204.681 77.4855C204.64 77.461 204.599 77.4344 204.559 77.4099C204.35 77.2851 204.14 77.1665 203.931 77.0541C203.719 76.9396 203.506 76.8302 203.294 76.7269C203.258 76.7085 203.222 76.6942 203.185 76.6768C203.152 76.6615 203.121 76.6472 203.088 76.6319C202.945 76.5644 202.802 76.4969 202.66 76.4356C202.439 76.3405 202.219 76.2515 202 76.1697C201.894 76.1299 201.79 76.0972 201.683 76.0604C201.636 76.044 201.59 76.0276 201.544 76.0123C201.477 75.9898 201.408 75.9632 201.342 75.9418C201.104 75.8661 200.867 75.7986 200.633 75.7393C200.488 75.7025 200.345 75.6749 200.202 75.6443C200.152 75.634 200.102 75.6218 200.053 75.6115C200.004 75.6023 199.956 75.5891 199.909 75.5799C199.65 75.5318 199.392 75.494 199.138 75.4654C199.024 75.4531 198.914 75.451 198.802 75.4429C198.716 75.4367 198.63 75.4296 198.545 75.4255C198.456 75.4214 198.366 75.4091 198.278 75.4081C197.951 75.4009 197.628 75.4101 197.311 75.4367C197.304 75.4378 197.298 75.4388 197.292 75.4398C197.22 75.4459 197.152 75.4643 197.08 75.4725C196.755 75.5083 196.432 75.5502 196.121 75.6218C196.095 75.6279 196.071 75.6402 196.045 75.6463C195.587 75.7567 195.14 75.8988 194.713 76.0859L189.039 78.5662C189.466 78.3791 189.912 78.237 190.371 78.1265C190.708 78.0458 191.056 77.9916 191.408 77.9527C191.478 77.9446 191.546 77.9262 191.617 77.92C192.025 77.8853 192.444 77.8853 192.869 77.9067C192.954 77.9108 193.04 77.917 193.125 77.9241C193.536 77.9558 193.953 78.009 194.378 78.0928C194.429 78.103 194.479 78.1153 194.528 78.1255C194.969 78.2196 195.417 78.3402 195.871 78.4926C195.917 78.5079 195.963 78.5242 196.008 78.5396C196.471 78.7001 196.94 78.8902 197.414 79.1121C197.447 79.1274 197.479 79.1417 197.511 79.1571C198.005 79.3922 198.504 79.6611 199.006 79.9647C199.038 79.9842 199.071 80.0056 199.104 80.0251C199.613 80.3369 200.126 80.6794 200.641 81.0607C201.162 81.4461 201.671 81.8612 202.171 82.2988C202.202 82.3254 202.232 82.354 202.263 82.3816C202.728 82.7926 203.183 83.2271 203.629 83.679C203.679 83.7291 203.728 83.7802 203.777 83.8313C204.207 84.276 204.629 84.7381 205.039 85.2176C205.088 85.2748 205.137 85.3311 205.186 85.3894C205.602 85.8821 206.006 86.3913 206.398 86.9157C206.43 86.9587 206.463 87.0006 206.494 87.0435C206.913 87.6079 207.318 88.1886 207.709 88.7856C207.713 88.7907 207.716 88.7969 207.719 88.802C208.483 89.9716 209.186 91.2014 209.828 92.4671C210.017 92.8393 210.192 93.2206 210.369 93.5989C210.519 93.9189 210.676 94.2358 210.818 94.5599C210.884 94.7112 210.945 94.8646 211.009 95.0159C211.238 95.5557 211.459 96.0985 211.663 96.6475C211.686 96.7089 211.71 96.7692 211.733 96.8305C211.978 97.4971 212.205 98.1688 212.413 98.8436C212.423 98.8773 212.433 98.9121 212.443 98.9458C212.645 99.6083 212.828 100.273 212.991 100.938C213.002 100.981 213.014 101.025 213.024 101.069C213.189 101.75 213.334 102.43 213.458 103.11C213.465 103.15 213.471 103.19 213.478 103.229C213.595 103.884 213.69 104.536 213.765 105.184C213.773 105.244 213.78 105.304 213.786 105.363C213.859 106.031 213.914 106.694 213.943 107.352C213.943 107.363 213.944 107.375 213.945 107.386C213.974 108.049 213.976 108.703 213.957 109.35C213.956 109.404 213.952 109.458 213.95 109.512C213.927 110.159 213.882 110.798 213.808 111.425C213.735 112.05 213.635 112.647 213.514 113.222C213.503 113.275 213.49 113.326 213.479 113.378C213.365 113.905 213.23 114.408 213.078 114.889C213.058 114.954 213.037 115.017 213.017 115.081C212.864 115.546 212.692 115.989 212.505 116.411C212.47 116.489 212.433 116.566 212.396 116.644C212.211 117.039 212.013 117.417 211.799 117.771C211.777 117.809 211.756 117.851 211.733 117.889C211.487 118.288 211.221 118.659 210.94 119.003C210.54 119.492 210.098 119.908 209.635 120.285C209.524 120.376 209.409 120.463 209.294 120.547C208.814 120.899 208.314 121.214 207.78 121.448L213.454 118.968C213.989 118.733 214.487 118.419 214.967 118.068C215.082 117.983 215.197 117.897 215.309 117.805C215.772 117.428 216.214 117.012 216.613 116.523C216.619 116.516 216.627 116.511 216.632 116.504C216.898 116.176 217.149 115.824 217.385 115.447C217.392 115.434 217.399 115.42 217.406 115.409C217.43 115.371 217.449 115.329 217.472 115.291C217.616 115.053 217.757 114.812 217.888 114.555C217.952 114.428 218.009 114.292 218.071 114.162C218.106 114.085 218.142 114.01 218.177 113.931C218.209 113.86 218.244 113.792 218.275 113.72C218.386 113.456 218.492 113.184 218.591 112.903C218.626 112.805 218.655 112.701 218.689 112.6C218.71 112.537 218.73 112.474 218.75 112.409C218.781 112.311 218.816 112.216 218.845 112.115C218.92 111.862 218.99 111.605 219.054 111.341C219.09 111.196 219.119 111.045 219.152 110.897C219.163 110.845 219.176 110.793 219.187 110.741C219.2 110.678 219.216 110.619 219.228 110.557C219.278 110.304 219.324 110.048 219.365 109.785C219.406 109.525 219.443 109.26 219.475 108.99C219.477 108.975 219.479 108.959 219.48 108.943C219.512 108.697 219.538 108.449 219.558 108.198Z" fill="url(#paint17_linear_200_5546)"/>
<path d="M200.642 81.0597C209.144 87.3635 215.042 100.963 213.81 111.424C212.578 121.884 204.68 125.256 196.178 118.953C187.676 112.649 181.778 99.05 183.01 88.5893C184.242 78.1286 192.14 74.7558 200.642 81.0597Z" fill="url(#paint18_linear_200_5546)"/>
<path opacity="0.4" d="M200.641 81.06C195.765 77.445 191.095 77.0268 187.76 79.2883C191.069 77.2753 195.592 77.7844 200.306 81.2788C208.808 87.5827 214.706 101.182 213.474 111.643C212.948 116.103 211.204 119.261 208.724 120.943C211.383 119.326 213.26 116.083 213.809 111.423C215.041 100.963 209.143 87.3629 200.641 81.06Z" fill="white"/>
<path d="M193.697 99.7755C192.526 99.7755 191.589 99.3185 190.885 98.4035C190.183 97.4885 189.831 96.3721 189.831 95.0563C189.831 93.764 190.183 92.6814 190.891 91.8062C191.599 90.9331 192.545 90.4966 193.733 90.4966C195.058 90.4966 196.039 90.9546 196.679 91.8737C197.315 92.7918 197.635 93.8407 197.635 95.0205C197.635 96.4835 197.254 97.6418 196.49 98.4955C195.723 99.3481 194.793 99.7755 193.697 99.7755ZM193.707 97.971C194.83 97.971 195.391 96.9957 195.391 95.044C195.391 93.1905 194.849 92.2622 193.77 92.2622C192.674 92.2622 192.126 93.1854 192.126 95.0307C192.125 96.9906 192.653 97.971 193.707 97.971ZM204.758 90.654L194.451 107.299H192.61L202.95 90.654H204.758ZM203.537 107.446C202.437 107.446 201.53 107.021 200.813 106.172C200.092 105.323 199.733 104.25 199.733 102.958C199.733 101.471 200.131 100.297 200.933 99.4391C201.733 98.5824 202.653 98.154 203.694 98.154C204.679 98.154 205.561 98.5517 206.34 99.3481C207.123 100.146 207.511 101.348 207.511 102.958C207.511 104.308 207.136 105.392 206.386 106.214C205.632 107.035 204.683 107.446 203.537 107.446ZM203.635 105.678C204.213 105.678 204.634 105.398 204.898 104.842C205.159 104.286 205.293 103.645 205.293 102.922C205.293 101.873 205.166 101.123 204.907 100.671C204.653 100.221 204.261 99.9953 203.733 99.9953C202.577 99.9953 202 100.942 202 102.835C202.001 104.73 202.546 105.678 203.635 105.678Z" fill="white"/>
</g>
<defs>
<linearGradient id="paint0_linear_200_5546" x1="129.944" y1="33.6635" x2="132.042" y2="56.5678" gradientUnits="userSpaceOnUse">
<stop stop-color="#F5B419"/>
<stop offset="1" stop-color="#FDF2D8"/>
</linearGradient>
<linearGradient id="paint1_linear_200_5546" x1="130.915" y1="12.0313" x2="139.299" y2="128.349" gradientUnits="userSpaceOnUse">
<stop stop-color="#8C3F14"/>
<stop offset="1" stop-color="#E27513"/>
</linearGradient>
<linearGradient id="paint2_linear_200_5546" x1="121.081" y1="157.91" x2="128.556" y2="62.9865" gradientUnits="userSpaceOnUse">
<stop stop-color="#F58B21"/>
<stop offset="1" stop-color="#F5B419"/>
</linearGradient>
<linearGradient id="paint3_linear_200_5546" x1="156.895" y1="26.803" x2="158.994" y2="49.7074" gradientUnits="userSpaceOnUse">
<stop stop-color="#F5B419"/>
<stop offset="1" stop-color="#FDF2D8"/>
</linearGradient>
<linearGradient id="paint4_linear_200_5546" x1="156.165" y1="-5.28046" x2="166.82" y2="142.554" gradientUnits="userSpaceOnUse">
<stop stop-color="#8C3F14"/>
<stop offset="1" stop-color="#E27513"/>
</linearGradient>
<linearGradient id="paint5_linear_200_5546" x1="146.779" y1="180.138" x2="156.28" y2="59.474" gradientUnits="userSpaceOnUse">
<stop stop-color="#F58B21"/>
<stop offset="1" stop-color="#F5B419"/>
</linearGradient>
<linearGradient id="paint6_linear_200_5546" x1="104.357" y1="43.3458" x2="106.455" y2="66.2501" gradientUnits="userSpaceOnUse">
<stop stop-color="#F5B419"/>
<stop offset="1" stop-color="#FDF2D8"/>
</linearGradient>
<linearGradient id="paint7_linear_200_5546" x1="106.936" y1="31.5808" x2="113.174" y2="118.141" gradientUnits="userSpaceOnUse">
<stop stop-color="#8C3F14"/>
<stop offset="1" stop-color="#E27513"/>
</linearGradient>
<linearGradient id="paint8_linear_200_5546" x1="96.6785" y1="140.129" x2="102.239" y2="69.5075" gradientUnits="userSpaceOnUse">
<stop stop-color="#F58B21"/>
<stop offset="1" stop-color="#F5B419"/>
</linearGradient>
<linearGradient id="paint9_linear_200_5546" x1="78.7675" y1="45.9911" x2="80.8656" y2="68.8954" gradientUnits="userSpaceOnUse">
<stop stop-color="#F5B419"/>
<stop offset="1" stop-color="#FDF2D8"/>
</linearGradient>
<linearGradient id="paint10_linear_200_5546" x1="82.4965" y1="41.2992" x2="87.1979" y2="106.53" gradientUnits="userSpaceOnUse">
<stop stop-color="#8C3F14"/>
<stop offset="1" stop-color="#E27513"/>
</linearGradient>
<linearGradient id="paint11_linear_200_5546" x1="71.9376" y1="123.088" x2="76.1266" y2="69.8871" gradientUnits="userSpaceOnUse">
<stop stop-color="#F58B21"/>
<stop offset="1" stop-color="#F5B419"/>
</linearGradient>
<linearGradient id="paint12_linear_200_5546" x1="53.179" y1="52.1691" x2="55.2771" y2="75.0735" gradientUnits="userSpaceOnUse">
<stop stop-color="#F5B419"/>
<stop offset="1" stop-color="#FDF2D8"/>
</linearGradient>
<linearGradient id="paint13_linear_200_5546" x1="58.2891" y1="55.9543" x2="61.1483" y2="95.6247" gradientUnits="userSpaceOnUse">
<stop stop-color="#8C3F14"/>
<stop offset="1" stop-color="#E27513"/>
</linearGradient>
<linearGradient id="paint14_linear_200_5546" x1="47.3667" y1="105.677" x2="49.9121" y2="73.351" gradientUnits="userSpaceOnUse">
<stop stop-color="#F58B21"/>
<stop offset="1" stop-color="#F5B419"/>
</linearGradient>
<linearGradient id="paint15_linear_200_5546" x1="117.046" y1="98.875" x2="102.209" y2="22.6494" gradientUnits="userSpaceOnUse">
<stop stop-color="#9196C8"/>
<stop offset="1" stop-color="#2C3C91"/>
</linearGradient>
<linearGradient id="paint16_linear_200_5546" x1="124.207" y1="-11.8337" x2="83.2198" y2="97.4048" gradientUnits="userSpaceOnUse">
<stop stop-color="#9196C8"/>
<stop offset="1" stop-color="#2C3C91"/>
</linearGradient>
<linearGradient id="paint17_linear_200_5546" x1="209.948" y1="117.43" x2="201.482" y2="77.1876" gradientUnits="userSpaceOnUse">
<stop stop-color="#8C3F14"/>
<stop offset="1" stop-color="#E27513"/>
</linearGradient>
<linearGradient id="paint18_linear_200_5546" x1="203.396" y1="128.744" x2="193.168" y2="69.7909" gradientUnits="userSpaceOnUse">
<stop stop-color="#F58B21"/>
<stop offset="1" stop-color="#F5B419"/>
</linearGradient>
<clipPath id="clip0_200_5546">
<rect width="246.341" height="177.171" fill="white" transform="translate(0.734497 0.450195)"/>
</clipPath>
</defs>
</svg>
