<svg width="80" height="80" viewBox="0 0 80 80" fill="none" xmlns="http://www.w3.org/2000/svg">
<path d="M43.4531 37.4657C42.7672 37.4657 42.2047 36.9079 42.2047 36.2172C42.2047 35.5266 42.7672 34.9641 43.4531 34.9641H43.6172V25.9735C43.6172 25.2829 44.1797 24.725 44.8703 24.725H50.1547C50.8406 24.725 51.4031 25.2829 51.4031 25.9735V34.9641H53.9625V19.0985C53.9625 18.4079 54.5203 17.85 55.2109 17.85H60.4953C61.1859 17.85 61.7437 18.4079 61.7437 19.0985V34.9641H64.3078V14.6204C64.3078 13.9297 64.8656 13.3719 65.5562 13.3719H70.8406C71.5312 13.3719 72.089 13.9297 72.089 14.6204V34.9641H72.2531C72.9437 34.9641 73.5015 35.5266 73.5015 36.2172C73.5015 36.9079 72.9437 37.4657 72.2531 37.4657H43.4531ZM46.1187 34.9641H48.9V27.2219H46.1187V34.9641ZM56.4609 34.9641H59.2469V20.3532H56.4609V34.9641ZM66.8078 34.9641H69.589V15.8704H66.8078V34.9641ZM63.6094 9.80161L44.1172 22.225C43.5375 22.5922 42.7656 22.425 42.3984 21.8438C42.0265 21.2641 42.1984 20.4922 42.7797 20.125L62.2765 7.70317C61.7281 7.58755 61.3062 7.1188 61.2797 6.53442C61.2484 5.84849 61.7844 5.26255 62.4719 5.23599L66.75 5.04536C67.7203 5.00474 68.3437 6.02817 67.9109 6.86567L67.9156 6.87036L65.9359 10.6657C65.6172 11.2766 64.864 11.5157 64.2531 11.1969C63.7344 10.9313 63.4812 10.3469 63.6094 9.80161ZM49.5953 54.2922C49.5953 53.6016 50.1578 53.0438 50.8437 53.0438C51.5344 53.0438 52.0969 53.6016 52.0969 54.2922V61.0735C52.0969 61.7641 51.5344 62.3266 50.8437 62.3266C50.1578 62.3266 49.5953 61.7641 49.5953 61.0735V54.2922ZM55.2515 61.0735C55.2515 61.7641 54.689 62.3266 53.9984 62.3266C53.3125 62.3266 52.75 61.7641 52.75 61.0735V54.2922C52.75 53.6016 53.3125 53.0438 53.9984 53.0438C54.4015 53.0438 55.6765 53.0079 55.9922 53.0844C58.5125 53.6954 59.4078 56.5969 57.8531 58.4829C57.375 59.0672 56.6969 59.4922 55.9125 59.6485C55.8328 59.661 55.7531 59.6704 55.6734 59.6704H55.2531V61.0735H55.2515ZM55.2515 55.5422V57.1719H55.5312C55.8015 57.1282 56.1203 56.7641 56.1203 56.3563C56.1203 55.9485 55.8015 55.5813 55.5312 55.5407H55.2515V55.5422ZM62.4406 53.0438C65.6781 53.0438 67.2469 57.8797 65.164 60.8032C63.7203 62.8313 61.164 62.8313 59.7156 60.8032C57.6344 57.8797 59.2031 53.0438 62.4406 53.0438ZM63.1312 56.0063C61.939 54.336 60.514 57.6235 61.75 59.3594C62.9406 61.0297 64.3672 57.7422 63.1312 56.0063ZM57.8515 45.886C64.3672 45.886 69.6469 51.1704 69.6469 57.6844C69.6469 64.1954 64.3672 69.4797 57.8515 69.4797C51.3359 69.4797 46.0531 64.1954 46.0531 57.6844C46.0531 51.1704 51.3359 45.886 57.8515 45.886ZM64.425 51.1079C60.7937 47.4797 54.9062 47.4797 51.2797 51.1079C47.6484 54.7391 47.6484 60.6266 51.2797 64.2579C54.9078 67.886 60.7937 67.886 64.425 64.2579C68.0562 60.6266 68.0562 54.7391 64.425 51.1079ZM59.8453 43.9907L59.0297 41.8204H56.6734L55.8578 43.9907C55.7031 44.4063 55.3437 44.6954 54.9359 44.775C53.4969 45.0844 52.0125 45.7235 50.764 46.5157C50.3781 46.7594 49.9094 46.7688 49.5328 46.5735L47.464 45.6344L45.8031 47.3L46.764 49.4172C46.9406 49.8157 46.8969 50.2547 46.6797 50.6C45.864 51.8797 45.2672 53.3157 44.939 54.7938C44.8422 55.2188 44.5406 55.5469 44.1547 55.6891L41.989 56.5047V58.8657L44.1547 59.6813C44.575 59.836 44.8594 60.1907 44.9437 60.5985C45.25 62.0422 45.8875 63.5219 46.6797 64.7704C46.9234 65.1563 46.9328 65.625 46.7375 66.0063L45.8031 68.0704L47.464 69.736L49.5812 68.775C49.9797 68.5938 50.4234 68.6422 50.764 68.8547C51.4594 69.2969 52.0531 69.5985 52.7875 69.9126V69.9079C53.4922 70.2001 54.2187 70.4344 54.9578 70.5985C55.3875 70.6922 55.7109 70.9969 55.8562 71.3782L56.6719 73.5485H59.0281L59.8437 71.3782C59.9984 70.9625 60.3578 70.6735 60.7656 70.5938C62.1969 70.2844 63.6937 69.6422 64.9328 68.8532C65.3219 68.6094 65.7875 68.6047 66.1687 68.7954L68.2328 69.7344L69.8984 68.0688L68.9375 65.9516C68.7562 65.5532 68.8047 65.1141 69.0219 64.7688C69.8328 63.4891 70.4344 62.0532 70.7625 60.575C70.8562 60.15 71.1609 59.8219 71.5422 59.6797L73.7125 58.8641V56.5032L71.5422 55.6875C71.1265 55.5329 70.8422 55.1782 70.7578 54.7704C70.5937 54.0313 70.3641 53.3125 70.075 52.6219C69.7828 51.9172 69.4281 51.2407 69.0203 50.5985C68.7719 50.2125 68.7672 49.7438 68.9578 49.3625L69.8969 47.2985L68.2312 45.6329L66.114 46.5985C65.7203 46.7751 65.2765 46.7313 64.9359 46.5141H64.9312C63.6515 45.6985 62.2203 45.0969 60.7406 44.7688C60.314 44.6766 59.9859 44.3719 59.8453 43.9907ZM61.0578 40.1376L61.9484 42.5032C63.264 42.8579 64.5172 43.375 65.6859 44.0532L67.9219 43.0391C68.3953 42.786 68.9937 42.8625 69.3922 43.2563L72.275 46.1438C72.6297 46.5032 72.7484 47.0516 72.5281 47.5391L71.4828 49.8469C71.8156 50.4266 72.1156 51.0391 72.3781 51.6672C72.6219 52.2438 72.8656 52.9688 73.0297 53.5891L75.2969 54.4391C75.8234 54.586 76.214 55.0688 76.214 55.6438V59.7235H76.2094C76.2094 60.2282 75.9 60.7016 75.3937 60.8922L73.0281 61.7782C72.6734 63.0985 72.1562 64.3469 71.4828 65.5204L72.4969 67.7563C72.7453 68.2251 72.6734 68.8235 72.275 69.2219L69.3922 72.1094L69.3875 72.1047C69.0328 72.4641 68.4797 72.5782 67.9922 72.361L65.6844 71.311C64.5156 71.9891 63.2656 72.5063 61.9469 72.861L61.0937 75.1266C60.9515 75.6579 60.464 76.0438 59.889 76.0438H55.8094V76.0391C55.3047 76.0391 54.8312 75.7297 54.6437 75.2282L53.7531 72.8625C53.089 72.686 52.4469 72.4641 51.8312 72.211V72.2063C51.1984 71.9454 50.5906 71.6438 50.0109 71.311L47.7781 72.3297C47.3047 72.5782 46.7062 72.5032 46.3078 72.1079L43.425 69.2204C43.0703 68.8657 42.9515 68.3125 43.1687 67.825L44.2187 65.5172C43.5453 64.3485 43.0234 63.0907 42.6734 61.775L40.4062 60.925C39.8797 60.7782 39.489 60.2954 39.489 59.7204V55.6407H39.4937C39.4937 55.136 39.8031 54.6625 40.3047 54.4719L42.675 53.586C43.025 52.2657 43.5469 51.0172 44.2203 49.8438L43.2062 47.6079C42.9531 47.1391 43.0297 46.5407 43.4281 46.1422L46.3109 43.2547V43.2594C46.6703 42.9 47.2234 42.786 47.7062 43.0032L50.014 44.0532C51.1875 43.3797 52.4406 42.8579 53.7562 42.5032L54.6062 40.2391C54.7531 39.7079 55.2359 39.3219 55.8109 39.3219H59.8906V39.3266C60.3984 39.3266 60.8719 39.636 61.0578 40.1376ZM31.175 28.3782C31.175 31.1204 30.1609 33.5079 28.589 35.2516C27.9594 35.9516 27.2422 36.5454 26.4594 37.0141C26.0515 38.4891 27.0172 39.4375 28.5094 40.225H31.5125C32.275 40.225 32.8984 39.5954 32.8984 38.8344V24.7188C32.8984 18.3188 27.7125 13.1282 21.3078 13.1282C14.9078 13.1282 9.71717 18.3188 9.71717 24.7188V38.8344C9.71717 39.5969 10.3469 40.225 11.1078 40.225H13.3265C13.5 40.15 13.6672 40.0751 13.8265 39.9985C15.4828 39.2282 16.5859 38.2266 15.8859 36.4063C15.5453 36.1625 15.2172 35.8875 14.9031 35.5875C13.2297 33.9891 11.9844 31.6235 11.5812 28.2922C11.1687 24.8735 11.7234 22.1938 12.9094 20.1875C14.3047 17.836 16.5281 16.4407 19.0922 15.8782C19.9156 15.7016 20.7125 16.3735 20.5937 17.286C20.3281 19.2969 21.2844 21.3469 22.7953 22.6844C24.2172 23.9422 26.1969 24.7172 28.3937 24.7172C29.5281 24.7172 30.2047 24.8938 30.7187 25.7094C31.0953 26.3047 31.175 27.0797 31.175 28.3782ZM23.7437 38.0954C22.1453 38.436 20.289 38.286 18.7172 37.8032C18.7 39.8579 17.1844 41.1422 15.0937 42.1563C16.139 45.2219 18.4015 47.7235 21.1312 49.7657C23.7969 47.7719 26.0078 45.3063 27.089 42.3329C25.1515 41.3469 23.7469 40.1141 23.7437 38.0954ZM26.7375 33.5813C27.9156 32.275 28.6734 30.4625 28.6734 28.3766C28.6734 27.5579 28.664 27.1313 28.6109 27.0485C28.5219 26.911 28.6109 27.2219 28.3937 27.2219C23.3094 27.2219 18.6187 23.7766 18.1047 18.8063C14.6281 20.3204 13.5609 23.8329 14.0609 28.0016C14.3844 30.6985 15.3453 32.5641 16.6203 33.7813C18.1484 35.2469 20.1719 35.8141 22.1031 35.7875C23.8797 35.761 25.5453 34.9016 26.7375 33.5813ZM29.7172 53.1407C29.7172 52.4501 30.275 51.8922 30.9656 51.8922C31.6562 51.8922 32.214 52.4501 32.214 53.1407V60.9938H36.3422L36.3594 48.7297C36.3594 45.7797 32.3687 44.5532 29.3703 43.3485C28.8219 44.8063 28.0234 46.2094 26.9828 47.5516C25.6672 49.2485 23.9625 50.8375 21.8672 52.3047C21.4515 52.6141 20.8656 52.6375 20.414 52.3219C16.9422 49.8954 14.1156 46.8875 12.7828 43.1094C9.95311 44.15 5.96248 45.2266 5.96248 47.6626L5.89998 60.9938H10.0406V53.1407C10.0406 52.4501 10.5984 51.8922 11.289 51.8922C11.9797 51.8922 12.5375 52.4501 12.5375 53.1407V60.9938H29.714V53.1407H29.7172ZM30.9719 63.4969H4.64842C3.93123 63.4969 3.36873 62.9204 3.40311 62.1329C3.41248 60.436 3.42498 57.9829 3.43436 55.5469C3.45154 52.6813 3.46561 49.8376 3.46561 47.6626C3.46561 44.5485 5.89686 43.0688 8.75467 41.9313C7.81092 41.2141 7.21717 40.0844 7.21717 38.836V24.7188C7.21717 16.9375 13.525 10.625 21.3062 10.625C29.0875 10.625 35.4 16.936 35.4 24.7188V38.8344C35.4 40.2954 34.5844 41.5938 33.3453 42.2626C36.2859 43.5469 38.864 45.225 38.864 48.7297L38.8281 62.2516C38.8281 62.9344 38.2703 63.4922 37.5828 63.4922V63.4969H30.9719Z" fill="#91BB3B"/>
</svg>
