<svg width="110" height="129" viewBox="0 0 110 129" fill="none" xmlns="http://www.w3.org/2000/svg">
<path style="mix-blend-mode:multiply" d="M89.6672 74.5709L81.4124 69.7905L64.0151 79.8379L72.2699 84.6184L89.6672 74.5709Z" fill="url(#paint0_linear_205_10255)"/>
<path d="M97.8106 5.22911L89.5303 0.414551L81.1816 5.22911L81.3694 69.7732L89.6583 74.5878L97.9985 69.7732L97.8106 5.22911Z" fill="#FD9033"/>
<path d="M89.6583 74.5877L81.3694 69.7731L81.1816 5.229L89.4705 10.0436L89.6583 74.5877Z" fill="#CF762A"/>
<path d="M89.4705 10.0437L81.1816 5.22911L89.5303 0.414551L97.8106 5.22911L89.4705 10.0437Z" fill="#FFA354"/>
<path d="M97.8108 5.229L97.9986 69.7731L89.6585 74.5877L89.4707 10.0436L97.8108 5.229Z" fill="#FD9033"/>
<path d="M49.5202 112.276C50.3738 112.788 50.186 113.514 48.7946 114.325L45.952 115.972L40.8301 113.036L43.5276 111.474C44.919 110.62 46.0885 110.62 46.9422 111.055C47.4117 111.328 47.5653 111.687 47.3349 112.088C48.0596 111.861 48.8449 111.928 49.5202 112.276ZM46.4129 114.308L47.4373 113.71C47.8129 113.497 47.8641 113.309 47.5995 113.155C47.4459 113.084 47.2757 113.055 47.1072 113.073C46.9387 113.091 46.7783 113.155 46.6434 113.258L45.619 113.847L46.4129 114.308ZM44.4837 113.198L45.2776 112.737C45.6617 112.515 45.7044 112.336 45.4568 112.191C45.3068 112.115 45.1376 112.084 44.9706 112.104C44.8035 112.124 44.646 112.193 44.5178 112.302L43.7239 112.754L44.4837 113.198Z" fill="#00BAE8"/>
<path d="M34.7774 106.796C34.9481 106.89 34.9396 107.043 34.7774 107.137C34.6838 107.186 34.5798 107.211 34.4744 107.211C34.3689 107.211 34.2649 107.186 34.1713 107.137L34.0518 107.069C34.0172 107.053 33.9878 107.028 33.9672 106.996C33.9465 106.965 33.9355 106.927 33.9355 106.89C33.9355 106.852 33.9465 106.815 33.9672 106.783C33.9878 106.751 34.0172 106.726 34.0518 106.71C34.1454 106.662 34.2494 106.636 34.3548 106.636C34.4603 106.636 34.5643 106.662 34.6579 106.71L34.7774 106.796Z" fill="#858488"/>
<path d="M40.5569 110.108C40.5921 110.121 40.6224 110.145 40.6438 110.177C40.6651 110.208 40.6765 110.245 40.6765 110.283C40.6765 110.32 40.6651 110.357 40.6438 110.389C40.6224 110.42 40.5921 110.444 40.5569 110.458C40.461 110.504 40.356 110.528 40.2496 110.528C40.1432 110.528 40.0381 110.504 39.9423 110.458L39.7203 110.321C39.5496 110.227 39.5496 110.073 39.7203 109.971C39.8139 109.922 39.9179 109.897 40.0234 109.897C40.1289 109.897 40.2328 109.922 40.3264 109.971L40.5569 110.108Z" fill="#858488"/>
<path d="M38.6276 109.015C38.7898 109.118 38.7983 109.271 38.6276 109.365C38.5334 109.412 38.4297 109.436 38.3246 109.436C38.2194 109.436 38.1157 109.412 38.0215 109.365L37.791 109.237C37.7558 109.223 37.7255 109.199 37.7042 109.168C37.6828 109.137 37.6714 109.1 37.6714 109.062C37.6714 109.024 37.6828 108.987 37.7042 108.956C37.7255 108.925 37.7558 108.901 37.791 108.887C37.8837 108.841 37.9861 108.816 38.0898 108.816C38.1936 108.816 38.2959 108.841 38.3886 108.887L38.6276 109.015Z" fill="#858488"/>
<path d="M36.6983 107.905C36.7335 107.919 36.7638 107.943 36.7851 107.974C36.8065 108.006 36.8179 108.043 36.8179 108.08C36.8179 108.118 36.8065 108.155 36.7851 108.186C36.7638 108.218 36.7335 108.242 36.6983 108.255C36.6039 108.301 36.5002 108.325 36.3952 108.325C36.2902 108.325 36.1866 108.301 36.0922 108.255L35.8702 108.127C35.6995 108.025 35.6995 107.871 35.8702 107.777C35.9634 107.727 36.0675 107.701 36.1733 107.701C36.279 107.701 36.3832 107.727 36.4763 107.777L36.6983 107.905Z" fill="#858488"/>
<path d="M69.5467 101.222C69.7089 101.887 69.2906 102.553 68.3004 103.125C67.469 103.597 66.5331 103.853 65.5775 103.871C64.6218 103.889 63.6769 103.668 62.8285 103.228C61.2663 102.323 61.3602 101 62.9907 100.061C63.9825 99.4863 65.1267 99.23 66.2687 99.3265L66.1663 100.513C65.58 100.435 64.984 100.54 64.459 100.812C63.7419 101.222 63.759 101.785 64.5358 102.229C64.9064 102.45 65.3282 102.57 65.7594 102.577C66.1906 102.585 66.6163 102.479 66.9943 102.272C67.1824 102.196 67.3373 102.055 67.4311 101.875C67.525 101.695 67.5517 101.488 67.5065 101.29L69.5467 101.222Z" fill="#00948F"/>
<path d="M55.0004 95.4338C55.1711 95.5277 55.1626 95.6813 55.0004 95.7752C54.9083 95.8238 54.8057 95.8492 54.7016 95.8492C54.5975 95.8492 54.4949 95.8238 54.4028 95.7752L54.2833 95.707C54.1126 95.6045 54.1126 95.4509 54.2833 95.3484C54.3769 95.2998 54.4809 95.2744 54.5864 95.2744C54.6919 95.2744 54.7958 95.2998 54.8894 95.3484L55.0004 95.4338Z" fill="#858488"/>
<path d="M60.7793 98.7715C60.95 98.8654 60.95 99.019 60.7793 99.1215C60.6851 99.1681 60.5814 99.1924 60.4763 99.1924C60.3711 99.1924 60.2674 99.1681 60.1732 99.1215L59.9427 98.9849C59.7805 98.891 59.772 98.7373 59.9427 98.6349C60.0369 98.5882 60.1407 98.564 60.2458 98.564C60.3509 98.564 60.4546 98.5882 60.5488 98.6349L60.7793 98.7715Z" fill="#858488"/>
<path d="M58.859 97.653C59.0212 97.7554 59.0212 97.909 58.859 98.0029C58.7648 98.0496 58.6611 98.0739 58.556 98.0739C58.4509 98.0739 58.3472 98.0496 58.253 98.0029L58.0225 97.8749C57.9872 97.8612 57.9569 97.8371 57.9356 97.8059C57.9142 97.7747 57.9028 97.7377 57.9028 97.6999C57.9028 97.6621 57.9142 97.6251 57.9356 97.5939C57.9569 97.5627 57.9872 97.5386 58.0225 97.5249C58.1152 97.4784 58.2175 97.4541 58.3212 97.4541C58.425 97.4541 58.5273 97.4784 58.62 97.5249L58.859 97.653Z" fill="#858488"/>
<path d="M56.9297 96.5436C56.965 96.5573 56.9952 96.5814 57.0166 96.6126C57.0379 96.6438 57.0494 96.6808 57.0494 96.7186C57.0494 96.7564 57.0379 96.7934 57.0166 96.8246C56.9952 96.8558 56.965 96.8798 56.9297 96.8936C56.8355 96.9402 56.7318 96.9645 56.6267 96.9645C56.5215 96.9645 56.4178 96.9402 56.3236 96.8936L56.1017 96.7655C55.931 96.6631 55.931 96.5095 56.1017 96.407C56.1938 96.3584 56.2963 96.333 56.4005 96.333C56.5046 96.333 56.6071 96.3584 56.6992 96.407L56.9297 96.5436Z" fill="#858488"/>
<path d="M88.3696 88.5617C89.9403 89.4666 89.7525 90.6959 88.0623 91.6776L85.5696 93.1287L80.4478 90.1922L82.9404 88.741C83.752 88.2427 84.6794 87.9641 85.6313 87.9327C86.5832 87.9012 87.5268 88.118 88.3696 88.5617ZM85.9367 91.3276L86.6538 90.9178C87.3708 90.4995 87.422 89.9703 86.6538 89.5178C86.2881 89.3057 85.8729 89.194 85.4501 89.194C85.0274 89.194 84.6122 89.3057 84.2465 89.5178L83.5294 89.9276L85.9367 91.3276Z" fill="#FFB300"/>
<path d="M75.215 84.174C75.3857 84.2679 75.3857 84.4216 75.215 84.5155C75.1214 84.5641 75.0174 84.5895 74.9119 84.5895C74.8064 84.5895 74.7025 84.5641 74.6089 84.5155L74.4894 84.4472C74.3186 84.3447 74.3186 84.1911 74.4894 84.0886C74.5815 84.0401 74.684 84.0146 74.7881 84.0146C74.8923 84.0146 74.9948 84.0401 75.0869 84.0886L75.215 84.174Z" fill="#858488"/>
<path d="M80.9942 87.5119C81.1649 87.6058 81.1649 87.7594 80.9942 87.8619C80.8998 87.9079 80.7961 87.9318 80.6911 87.9318C80.5861 87.9318 80.4825 87.9079 80.3881 87.8619L80.1661 87.7253C79.9954 87.6314 79.9954 87.4777 80.1661 87.3753C80.2597 87.3267 80.3637 87.3013 80.4692 87.3013C80.5747 87.3013 80.6786 87.3267 80.7722 87.3753L80.9942 87.5119Z" fill="#858488"/>
<path d="M79.0732 86.3937C79.2354 86.4961 79.2354 86.6498 79.0732 86.7437C78.9788 86.7897 78.8751 86.8136 78.7701 86.8136C78.6651 86.8136 78.5615 86.7897 78.4671 86.7437L78.2451 86.6156C78.2099 86.6019 78.1796 86.5778 78.1583 86.5466C78.1369 86.5154 78.1255 86.4784 78.1255 86.4406C78.1255 86.4028 78.1369 86.3659 78.1583 86.3346C78.1796 86.3034 78.2099 86.2794 78.2451 86.2656C78.3378 86.2191 78.4402 86.1948 78.5439 86.1948C78.6477 86.1948 78.75 86.2191 78.8427 86.2656L79.0732 86.3937Z" fill="#858488"/>
<path d="M77.1443 85.2839C77.1796 85.2976 77.2098 85.3217 77.2312 85.3529C77.2525 85.3841 77.2639 85.4211 77.2639 85.4589C77.2639 85.4967 77.2525 85.5337 77.2312 85.5649C77.2098 85.5961 77.1796 85.6202 77.1443 85.6339C77.0484 85.68 76.9434 85.704 76.837 85.704C76.7306 85.704 76.6256 85.68 76.5297 85.6339L76.3077 85.5058C76.137 85.4034 76.137 85.2498 76.3077 85.1559C76.4009 85.1058 76.505 85.0796 76.6108 85.0796C76.7165 85.0796 76.8207 85.1058 76.9138 85.1559L77.1443 85.2839Z" fill="#858488"/>
<path d="M109.762 79.0953L105.562 81.5367L100.474 78.6002L104.58 76.21L105.878 76.9612L103.445 78.3697L104.042 78.7197L106.176 77.4734L107.406 78.1904L105.272 79.4282L105.946 79.8123L108.464 78.3526L109.762 79.0953Z" fill="#FD9033"/>
<path d="M95.2325 72.4873C95.3946 72.5898 95.3946 72.7434 95.2325 72.8373C95.1388 72.886 95.0349 72.9114 94.9294 72.9114C94.8239 72.9114 94.72 72.886 94.6264 72.8373L94.5068 72.7691C94.4716 72.7553 94.4413 72.7313 94.42 72.7001C94.3986 72.6688 94.3872 72.6319 94.3872 72.5941C94.3872 72.5562 94.3986 72.5193 94.42 72.4881C94.4413 72.4568 94.4716 72.4328 94.5068 72.4191C94.6011 72.3724 94.7048 72.3481 94.8099 72.3481C94.915 72.3481 95.0187 72.3724 95.1129 72.4191L95.2325 72.4873Z" fill="#858488"/>
<path d="M101.046 75.8253C101.217 75.9277 101.217 76.0814 101.046 76.1753C100.952 76.2219 100.848 76.2462 100.743 76.2462C100.638 76.2462 100.534 76.2219 100.44 76.1753L100.218 76.0473C100.047 75.9448 100.047 75.7912 100.218 75.6973C100.311 75.6507 100.413 75.6265 100.517 75.6265C100.62 75.6265 100.723 75.6507 100.815 75.6973L101.046 75.8253Z" fill="#858488"/>
<path d="M99.0825 74.7157C99.2447 74.8096 99.2447 74.9632 99.0825 75.0657C98.9898 75.1122 98.8875 75.1365 98.7837 75.1365C98.68 75.1365 98.5777 75.1122 98.4849 75.0657L98.2545 74.9291C98.0923 74.8352 98.0923 74.6815 98.2545 74.5791C98.3472 74.5326 98.4495 74.5083 98.5532 74.5083C98.657 74.5083 98.7593 74.5326 98.852 74.5791L99.0825 74.7157Z" fill="#858488"/>
<path d="M97.1535 73.5974C97.3242 73.6998 97.3242 73.8535 97.1535 73.9474C97.0603 73.9975 96.9562 74.0237 96.8504 74.0237C96.7447 74.0237 96.6406 73.9975 96.5474 73.9474L96.3169 73.8194C96.2817 73.8056 96.2514 73.7816 96.23 73.7503C96.2087 73.7191 96.1973 73.6822 96.1973 73.6444C96.1973 73.6065 96.2087 73.5696 96.23 73.5384C96.2514 73.5071 96.2817 73.4831 96.3169 73.4694C96.4111 73.4227 96.5148 73.3984 96.62 73.3984C96.7251 73.3984 96.8288 73.4227 96.923 73.4694L97.1535 73.5974Z" fill="#858488"/>
<path d="M28.1616 126.224L26.9409 125.909L25.0202 127.027L25.5665 127.727L23.8592 128.734L20.9824 124.517L22.6897 123.544L29.9884 125.192L28.1616 126.224ZM24.2177 126.037L25.1994 125.465L23.4324 125.012L24.2177 126.037Z" fill="#8F7CCD"/>
<path d="M13.9742 118.644C14.1449 118.747 14.1449 118.901 13.9742 118.994C13.8805 119.043 13.7766 119.068 13.6711 119.068C13.5656 119.068 13.4617 119.043 13.3681 118.994L13.2486 118.926C13.2133 118.912 13.183 118.888 13.1617 118.857C13.1403 118.826 13.1289 118.789 13.1289 118.751C13.1289 118.713 13.1403 118.676 13.1617 118.645C13.183 118.614 13.2133 118.59 13.2486 118.576C13.3413 118.53 13.4436 118.505 13.5473 118.505C13.6511 118.505 13.7534 118.53 13.8461 118.576L13.9742 118.644Z" fill="#858488"/>
<path d="M19.7451 121.974C19.9159 122.076 19.9159 122.23 19.7451 122.324C19.6508 122.37 19.5471 122.394 19.4421 122.394C19.3371 122.394 19.2334 122.37 19.1391 122.324L18.9171 122.196C18.7464 122.093 18.7464 121.94 18.9171 121.846C19.0113 121.799 19.115 121.775 19.2202 121.775C19.3253 121.775 19.429 121.799 19.5232 121.846L19.7451 121.974Z" fill="#858488"/>
<path d="M17.8242 120.864C17.9864 120.957 17.9864 121.111 17.8242 121.214C17.7299 121.26 17.6262 121.283 17.5212 121.283C17.4162 121.283 17.3125 121.26 17.2182 121.214L16.9962 121.077C16.8255 120.983 16.8255 120.829 16.9962 120.735C17.0878 120.685 17.1906 120.659 17.295 120.659C17.3994 120.659 17.5021 120.685 17.5938 120.735L17.8242 120.864Z" fill="#858488"/>
<path d="M15.8952 119.754C16.0659 119.848 16.0659 120.001 15.8952 120.095C15.8007 120.146 15.6951 120.173 15.5879 120.173C15.4806 120.173 15.375 120.146 15.2806 120.095L15.0586 119.967C15.0234 119.954 14.9931 119.93 14.9717 119.898C14.9504 119.867 14.939 119.83 14.939 119.792C14.939 119.754 14.9504 119.718 14.9717 119.686C14.9931 119.655 15.0234 119.631 15.0586 119.617C15.1528 119.571 15.2565 119.546 15.3617 119.546C15.4668 119.546 15.5705 119.571 15.6647 119.617L15.8952 119.754Z" fill="#858488"/>
<path style="mix-blend-mode:multiply" d="M69.1794 85.8131L60.9246 81.0327L43.5273 91.0716L51.7821 95.8605L69.1794 85.8131Z" fill="url(#paint1_linear_205_10255)"/>
<path d="M77.3321 23.6764L69.0432 18.8618L60.7031 23.6764L60.8909 81.1608L69.1713 85.9839L77.5114 81.1608L77.3321 23.6764Z" fill="#FFB300"/>
<path d="M69.1713 85.9838L60.8909 81.1607L60.7031 23.6763L68.992 28.4908L69.1713 85.9838Z" fill="#CC8F00"/>
<path d="M68.992 28.4909L60.7031 23.6764L69.0432 18.8618L77.3321 23.6764L68.992 28.4909Z" fill="#FFC336"/>
<path d="M77.3318 23.6763L77.5111 81.1607L69.171 85.9838L68.9917 28.4908L77.3318 23.6763Z" fill="#FFB300"/>
<path style="mix-blend-mode:multiply" d="M49.1188 97.1925L40.8641 92.4121L23.4668 102.46L31.7215 107.24L49.1188 97.1925Z" fill="url(#paint2_linear_205_10255)"/>
<path d="M57.2882 45.8458L49.0078 41.0312L40.6592 45.8458L40.847 92.3609L49.1359 97.1755L57.476 92.3609L57.2882 45.8458Z" fill="#00948F"/>
<path d="M49.1359 97.1754L40.847 92.3608L40.6592 45.8457L48.9481 50.6603L49.1359 97.1754Z" fill="#006E6A"/>
<path d="M48.9481 50.6604L40.6592 45.8458L49.0078 41.0312L57.2882 45.8458L48.9481 50.6604Z" fill="#00C2BB"/>
<path d="M57.2884 45.8457L57.4762 92.3608L49.136 97.1754L48.9482 50.6603L57.2884 45.8457Z" fill="#00948F"/>
<path style="mix-blend-mode:multiply" d="M29.0583 108.153L20.8035 103.364L3.40625 113.411L11.661 118.192L29.0583 108.153Z" fill="url(#paint3_linear_205_10255)"/>
<path d="M37.108 66.4012L28.8191 61.5781L20.479 66.4012L20.6583 103.509L28.9472 108.324L37.2958 103.501L37.108 66.4012Z" fill="#00BAE8"/>
<path d="M28.9472 108.324L20.6583 103.509L20.479 66.4014L28.7594 71.2159L28.9472 108.324Z" fill="#008FB3"/>
<path d="M28.7594 71.2158L20.479 66.4012L28.8191 61.5781L37.108 66.4012L28.7594 71.2158Z" fill="#5ECBFF"/>
<path d="M37.1084 66.4014L37.2962 103.501L28.9476 108.324L28.7598 71.2159L37.1084 66.4014Z" fill="#00BAE8"/>
<path d="M16.6205 31.5299L8.34012 26.7153L0 31.5299L0.230485 115.238L8.51938 120.053L16.8595 115.238L16.6205 31.5299Z" fill="#8F7CCD"/>
<path d="M8.51938 120.053L0.230485 115.239L0 31.5303L8.28036 36.3448L8.51938 120.053Z" fill="#6B5D99"/>
<path d="M8.28036 36.3444L0 31.5299L8.34012 26.7153L16.6205 31.5299L8.28036 36.3444Z" fill="#B29AFF"/>
<path d="M16.6204 31.5303L16.8594 115.239L8.51929 120.053L8.28027 36.3448L16.6204 31.5303Z" fill="#8F7CCD"/>
<defs>
<linearGradient id="paint0_linear_205_10255" x1="83.3161" y1="68.6723" x2="71.9967" y2="83.5854" gradientUnits="userSpaceOnUse">
<stop stop-color="#C4C4C4"/>
<stop offset="0.1" stop-color="#CBCBCB"/>
<stop offset="0.69" stop-color="#F1F1F1"/>
<stop offset="1" stop-color="white"/>
</linearGradient>
<linearGradient id="paint1_linear_205_10255" x1="62.8283" y1="79.9059" x2="51.5089" y2="94.8276" gradientUnits="userSpaceOnUse">
<stop stop-color="#C4C4C4"/>
<stop offset="0.1" stop-color="#CBCBCB"/>
<stop offset="0.69" stop-color="#F1F1F1"/>
<stop offset="1" stop-color="white"/>
</linearGradient>
<linearGradient id="paint2_linear_205_10255" x1="42.7677" y1="91.2938" x2="31.4484" y2="106.207" gradientUnits="userSpaceOnUse">
<stop stop-color="#C4C4C4"/>
<stop offset="0.1" stop-color="#CBCBCB"/>
<stop offset="0.69" stop-color="#F1F1F1"/>
<stop offset="1" stop-color="white"/>
</linearGradient>
<linearGradient id="paint3_linear_205_10255" x1="22.7072" y1="102.245" x2="11.3878" y2="117.167" gradientUnits="userSpaceOnUse">
<stop stop-color="#C4C4C4"/>
<stop offset="0.1" stop-color="#CBCBCB"/>
<stop offset="0.69" stop-color="#F1F1F1"/>
<stop offset="1" stop-color="white"/>
</linearGradient>
</defs>
</svg>
