<svg width="671" height="423" viewBox="0 0 671 423" fill="none" xmlns="http://www.w3.org/2000/svg">
<path d="M336.484 193.326C337.357 194.591 337.9 196.067 338.502 197.484C339.888 198.327 341.696 198.809 343.233 199.352L339.587 201.461C338.261 202.214 337.719 204.263 337.177 205.649L336.393 205.377L335.58 203.208C334.706 201.22 332.296 200.677 330.428 199.924L334.616 197.996C335.55 196.73 335.972 194.832 336.484 193.326Z" fill="#F9D767"/>
<path d="M251.759 64.0709C252.693 63.8901 253.778 63.7696 254.682 64.0408C255.887 64.4023 256.731 65.3062 257.333 66.3909C257.966 67.5659 258.056 68.9217 257.665 70.1871C257.183 71.784 256.158 72.5975 254.742 73.3507C253.808 73.5917 252.332 73.652 251.398 73.3808C250.283 73.0494 249.289 71.9949 248.776 70.9404C248.144 69.6448 248.083 68.1384 248.656 66.8428C249.319 65.2761 250.313 64.7036 251.759 64.0709Z" fill="#87A7E7"/>
<path d="M252.453 65.1859C252.935 65.0654 253.417 65.0955 253.899 65.1859C254.773 65.3366 255.526 66.0296 255.978 66.7527C256.701 67.9578 256.641 69.0123 256.28 70.338C255.436 71.3926 254.924 71.8144 253.628 72.1759C253.297 72.206 253.206 72.2362 252.845 72.2061C251.67 72.0554 250.706 71.5733 250.043 70.5791C249.38 69.5848 249.561 68.5001 249.802 67.4155C250.585 66.1501 251.158 65.7584 252.453 65.1859Z" fill="#FEFEFE"/>
<path d="M155.497 36.7138C155.678 35.6291 155.799 32.797 156.371 31.9232C156.702 31.4411 157.938 30.718 158.45 30.3565L164.446 25.7769C164.265 28.6693 163.542 32.4354 163.903 35.2676L174.569 37.7984L167.73 41.7453C166.976 42.1973 165.53 43.2217 164.657 43.2819C163.482 43.3723 161.162 42.6191 159.956 42.2877L157.546 41.7453C156.552 41.5043 155.799 41.1428 154.925 40.6607C155.286 39.4254 155.316 37.9792 155.497 36.7138Z" fill="#243271"/>
<path d="M339.226 103.149C340.672 102.516 341.576 102.426 343.112 102.546C344.529 102.908 345.613 103.179 346.427 104.535C347.541 106.343 347.27 108.271 348.084 110.079C348.506 111.043 348.445 112.278 348.054 113.272L347.572 114.327C346.246 115.863 345.191 117.069 343.022 117.249L340.943 117.219C339.166 117.822 338.262 119.72 337.267 121.287C335.429 119.057 333.411 116.707 331.874 114.267C331.031 112.881 330.458 111.344 329.675 109.928L330.157 109.777C332.386 106.312 335.701 105.047 339.226 103.149Z" fill="#F6C2AC"/>
<path d="M339.647 113.633C338.984 112.308 338.472 111.163 338.231 109.687L341.786 106.011H342.268C342.057 107.246 341.846 107.336 340.912 108.21C340.762 109.476 341.244 110.59 341.636 111.765C341.003 112.579 340.521 113.121 339.647 113.633Z" fill="#F1764E"/>
<path d="M341.605 111.766C341.937 112.911 341.967 112.85 343.021 113.483C344.317 113.393 345.552 113.242 346.848 113.393L347.571 114.327C346.245 115.863 345.191 117.068 343.021 117.249L340.943 117.219L339.647 113.664C340.521 113.121 341.003 112.579 341.605 111.766Z" fill="#F79160"/>
<path d="M373.422 143.974L380.683 149.879L380.412 150.09C378.604 151.657 380.291 154.037 379.99 155.905C379.689 157.833 377.67 159.822 376.164 160.967C374.085 162.563 371.132 163.979 368.451 163.588C366.462 163.286 364.383 161.991 363.238 160.364C362.154 158.857 361.521 156.748 361.973 154.911C363.208 149.638 368.661 148.885 372.548 146.535C373.181 145.751 373.362 145.269 373.452 144.245L373.422 143.974Z" fill="#F1B5A1"/>
<path d="M301.835 81.7271C302.046 81.8174 302.257 81.8476 302.498 81.8777L303.824 85.674C305.421 89.9825 308.494 92.905 312.893 94.2909C314.399 94.773 316.056 94.9839 317.472 95.6468L310.513 98.1475C305.873 100.347 304.366 104.806 302.739 109.325L302.227 109.928C301.142 108.301 300.781 106.132 299.937 104.324C297.195 98.5994 293.008 97.575 287.343 95.5865C289.784 94.8031 292.405 94.1102 294.695 92.9351C299.124 90.6152 300.389 86.1862 301.835 81.7271Z" fill="#F9D767"/>
<path d="M347.691 36.8945C348.896 36.9548 350.613 37.2561 351.758 37.0753L343.111 102.546C341.545 102.426 340.641 102.486 339.225 103.149L347.691 36.8945Z" fill="#364DA1"/>
<path d="M368.271 44.6981L368.21 36.1414C370.862 34.3337 373.905 33.2189 376.827 31.8631C385.896 27.6751 395.809 23.4872 405.45 20.9563L408.825 22.7038L379.419 38.7928L371.886 42.8904C370.802 43.493 369.446 44.3968 368.271 44.6981Z" fill="#C2363D"/>
<path d="M547.9 55.183L548.021 54.9419C549.196 52.3207 549.105 48.434 548.021 45.7826C547.479 44.4268 546.424 43.523 545.641 42.3178C546.153 41.5344 546.424 41.1427 547.328 40.8113C549.226 41.1729 550.672 41.9864 551.787 43.6435C552.54 44.7582 553.022 46.2346 553.474 47.5C554.619 44.5775 556.457 38.7023 559.078 37.0452C560.253 37.1054 560.886 37.2259 561.85 37.9189C563.477 37.708 563.989 37.708 565.315 38.7324L565.918 39.2145C567.545 39.2747 567.605 39.3049 568.87 40.3293C569.955 42.4082 569.172 45.4211 568.479 47.5301C567.032 51.9893 564.984 56.358 561.398 59.4914C560.374 60.3953 559.018 60.9678 558.114 61.962C557.15 59.853 550.19 56.6292 547.9 55.183Z" fill="#F6C2AC"/>
<path d="M29.9487 390.702C33.4437 390.762 36.999 390.642 40.4639 391.365L44.5313 392.178C46.0378 392.751 46.9416 394.046 48.2372 394.559C48.5686 394.98 48.7795 395.372 49.2616 395.643L49.8039 396.397C49.1109 397.752 49.593 399.59 49.8039 401.067C50.768 404.019 52.2444 406.942 53.6604 409.684C52.6361 412.214 49.8943 414.564 48.2673 416.824C48.4782 417.216 48.5686 417.397 48.9 417.698L39.0177 417.638C33.8354 413.329 29.4064 408.84 25.9717 403.025C23.8325 399.44 22.2357 395.432 20.6689 391.576L29.9487 390.702Z" fill="#7190DE"/>
<path d="M40.4331 391.365L44.5006 392.179C46.007 392.751 46.9109 394.047 48.2065 394.559C48.5379 394.981 48.7488 395.372 49.2309 395.644L49.7732 396.397C49.0802 397.753 49.5623 399.59 49.7732 401.067C47.6943 398.958 45.3442 397.15 43.0544 395.252C41.8492 394.258 40.403 393.324 39.6196 391.998L40.4331 391.365Z" fill="#4E6FD0"/>
<path d="M547.9 55.1831C550.19 56.6293 557.15 59.8531 558.084 61.9923C552.962 74.0741 546.755 85.1918 537.746 94.8633C536.903 94.321 535.095 94.4716 534.071 94.4415C532.082 94.3511 530.033 94.0799 528.105 93.7184C523.013 92.7543 518.223 90.8561 513.342 89.2291C514.939 88.958 516.566 88.5362 517.982 87.6925C521.025 85.9149 523.827 82.8116 526.297 80.341C534.041 72.4472 540.91 63.7398 547.9 55.1831Z" fill="#3AB0A7"/>
<path d="M476.645 75.0381C481.646 76.5445 486.497 78.3824 491.288 80.4613L503.189 86.0051C506.322 87.4513 509.817 89.1687 513.312 89.229C518.193 90.8861 522.984 92.7541 528.076 93.7182C530.034 94.0798 532.083 94.3509 534.041 94.4413C535.065 94.4714 536.903 94.3208 537.717 94.8631C533.981 98.7197 530.034 102.847 524.731 104.414C521.146 105.469 516.837 105.408 513.131 105.469L480.773 104.263C480.652 98.4184 480.562 92.272 479.477 86.4872C479.025 84.0467 478.423 81.6063 477.669 79.2562C477.398 78.3824 476.464 76.8458 476.434 76.0323C476.404 75.7913 476.585 75.3092 476.645 75.0381Z" fill="#1B8681"/>
<path d="M208.434 9.53727C210.031 9.38662 211.809 9.41675 213.345 9.92895C217.382 11.3149 219.07 14.4483 220.817 18.0638C222.836 17.4311 225.487 16.9792 227.506 17.8228C228.982 18.4555 229.856 19.962 230.489 21.3781C230.549 21.5287 230.579 21.7095 230.669 21.7999C230.85 21.9806 232.116 21.589 232.387 21.5588C234.044 21.2877 235.822 21.5588 237.268 22.4024C238.865 23.3365 239.799 24.7827 240.251 26.5603L240.612 27.7956C242.812 27.9161 245.282 28.2174 247.03 29.7239C248.114 30.6579 249.229 31.9233 249.319 33.3996L248.868 33.9118H210.603L169.356 33.8516C172.249 31.8329 176.166 28.7296 179.48 27.5244L179.872 27.4039C182.643 26.4699 184.481 27.9161 186.982 27.7052C186.922 26.7411 186.922 25.6865 187.253 24.7525C187.705 23.3666 189.121 21.7999 190.417 21.137C193.068 19.7812 196.141 20.655 198.732 21.589C199.335 19.3594 199.606 17.0997 200.751 15.0208C202.529 11.8572 205.09 10.5315 208.434 9.53727Z" fill="#ABC7F5"/>
<path d="M46.5502 103.661L47.7855 103.601C51.9735 103.45 55.5589 104.414 57.8788 108.18C58.4513 109.114 58.9032 110.35 59.6866 111.103C61.1328 110.771 62.4886 110.47 63.995 110.681C67.0984 111.103 68.6651 113.152 70.4427 115.532L70.7139 115.351C72.2504 114.508 74.5101 114.297 76.1673 114.839C79.6321 116.014 81.3194 119.238 82.8559 122.311C83.1271 122.371 83.338 122.401 83.6092 122.371C84.513 122.341 85.5676 122.221 86.4715 122.492C89.635 123.426 91.0812 125.896 92.6781 128.548H55.7999L10.7266 128.427C12.2029 125.354 13.86 122.462 16.9633 120.744C18.4095 119.931 20.9705 119.78 22.5372 120.292L24.6764 121.076C25.0681 120.563 25.0982 120.142 25.2187 119.509C25.6405 117.249 26.9361 115.411 28.8342 114.146C30.642 112.941 33.1126 112.67 35.1614 113.302C36.1255 113.604 36.9992 114.206 37.9935 114.387C38.3249 112.76 38.5358 111.163 39.2589 109.657C40.8558 106.342 43.1155 104.896 46.5502 103.661Z" fill="#ABC7F5"/>
<path d="M347.691 36.8947C347.118 36.5934 346.455 36.2921 345.973 35.8703C345.1 35.1171 344.467 33.7914 344.407 32.6163C344.316 29.3925 344.858 25.9578 345.069 22.7339C345.22 20.2935 345.039 17.2504 345.642 14.9003C345.853 14.0567 346.214 13.3336 346.847 12.7009C347.419 12.1586 348.082 11.797 348.866 11.6464C350.945 11.2547 353.295 11.4656 355.404 11.4656L367.877 11.5259L367.817 0.709473L405.448 20.9563C395.807 23.4872 385.894 27.6751 376.826 31.8631C373.933 33.2189 370.89 34.3337 368.209 36.1414L368.269 44.6981C367.455 43.493 367.907 38.371 367.937 36.744L351.758 37.0453C350.613 37.2562 348.866 36.9549 347.691 36.8947Z" fill="#EC6455"/>
<path d="M456.819 62.866C452.45 59.4614 449.106 56.087 446.454 51.1458C444.647 47.8014 443.08 43.6135 444.285 39.7871C447.268 30.4169 459.35 31.2002 466.611 27.2834C470.588 25.1442 471.763 22.764 472.968 18.6062L474.475 22.1313C476.162 26.6206 476.795 30.5072 474.746 34.9664C475.499 36.4126 476.102 38.0396 476.915 39.4255C478.391 41.9865 482.278 47.3194 481.826 50.2419L480.049 51.3265L480.109 54.0683C480.229 54.6106 480.38 55.153 480.41 55.7254C480.742 57.6838 481.736 60.6967 480.501 62.4141C479.777 63.4084 478.633 64.0411 477.427 64.1917C475.71 64.4026 473.932 64.1315 472.305 63.5891L469.805 73.3811C469.714 74.2549 469.503 75.1588 469.744 76.0024C467.635 77.9306 466.49 77.9306 463.719 78.1114L461.188 77.8403L459.621 77.9005C458.054 77.0268 456.548 75.5203 455.041 74.4357C455.734 73.351 455.764 71.724 455.915 70.4586L456.819 62.866Z" fill="#243271"/>
<path d="M456.82 62.8662L457.724 62.9566C459.833 61.6007 460.586 59.4013 461.49 57.1717L460.526 56.8102C459.773 56.539 458.959 56.298 458.296 55.8461C457.001 54.9723 455.886 53.0742 455.675 51.5376C455.555 50.5735 455.645 49.3984 456.368 48.6753C457.272 47.7714 458.447 48.0426 459.622 48.0727C461.068 48.7356 461.49 49.3984 462.243 50.7542C462.424 53.3755 463.599 56.6596 464.533 59.1301C465.196 60.8475 469.173 62.4444 470.77 63.0771L472.276 63.6194L469.776 73.4114C469.685 74.2852 469.474 75.189 469.715 76.0326C467.606 77.9609 466.461 77.9609 463.689 78.1417L461.159 77.8705L459.592 77.9308C458.025 77.057 456.519 75.5506 455.012 74.4659C455.705 73.3813 455.735 71.7543 455.886 70.4889L456.82 62.8662Z" fill="#F6C2AC"/>
<path d="M474.745 34.9966C475.499 36.4428 476.101 38.0698 476.915 39.4557C478.391 42.0167 482.278 47.3496 481.826 50.2721L480.048 51.3568L480.108 54.0985C480.229 54.6408 480.38 55.1832 480.41 55.7556C480.741 57.714 481.735 60.7269 480.5 62.4443C479.777 63.4386 478.632 64.0713 477.427 64.2219C475.71 64.4328 473.932 64.1617 472.305 63.6194L470.799 63.077C469.172 62.4443 465.195 60.8776 464.562 59.1301C463.628 56.6595 462.453 53.3754 462.272 50.7542L463.507 48.856L460.946 38.823C465.405 38.3409 470.949 38.2204 474.565 35.2376L474.745 34.9966Z" fill="#F6C2AC"/>
<path d="M475.922 48.5547C474.747 47.6207 474.626 47.5002 474.205 46.054L474.446 45.12C475.35 44.6379 475.44 44.7584 476.374 44.9693C477.157 45.8431 477.549 46.3553 477.609 47.5604L476.735 48.5547H475.922Z" fill="#112160"/>
<path d="M476.765 48.5247V49.8805C477.97 50.8747 478.995 50.0311 480.019 51.3568L480.079 54.0986C480.2 54.6409 480.35 55.1832 480.38 55.7557L478.482 57.5333L476.705 55.8159V55.4544C477.157 55.3339 477.518 55.1531 477.91 54.912C478.151 53.6768 478.091 53.4357 477.699 52.2305C477.187 52.11 476.885 51.9895 476.494 51.6581C475.801 51.0254 475.952 49.4888 475.921 48.5849L476.765 48.5247Z" fill="#F1B5A1"/>
<path d="M463.448 48.8557C464.291 51.2661 465.677 56.2675 468.087 57.322C470.498 58.3765 475.258 58.949 477.759 58.1958L478.512 57.5028L480.41 55.7252C480.742 57.6836 481.736 60.6965 480.501 62.4139C479.778 63.4081 478.633 64.0408 477.427 64.1915C475.71 64.4024 473.932 64.1312 472.306 63.5889L470.799 63.0466C469.172 62.4139 465.195 60.8471 464.562 59.0997C463.628 56.6291 462.453 53.345 462.272 50.7237L463.448 48.8557Z" fill="#C2363D"/>
<path d="M244.257 140.177C243.022 138.912 241.998 137.375 240.823 136.05C237.93 132.796 234.044 129.09 232.989 124.721C232.477 122.612 232.778 120.563 233.953 118.755C235.399 116.556 237.84 115.953 240.25 115.441C240.431 112.519 240.642 109.687 241.998 107.035C243.354 104.384 245.402 102.516 248.265 101.672C252.844 100.286 254.351 102.757 258.026 104.745C259.021 104.625 259.864 104.414 260.587 103.721C262.275 102.124 262.124 99.7138 262.214 97.5746C262.696 96.7009 263.209 96.1887 264.143 95.797C265.83 95.104 268.783 95.556 270.44 96.1887C273.483 97.3939 275.803 99.6234 277.068 102.636C278.454 105.951 278.454 109.777 277.068 113.091C275.562 116.707 273.031 118.454 269.506 119.87L270.831 123.968L271.012 125.263C271.313 131.892 272.88 138.671 267.939 144.124C266.342 145.902 264.052 146.926 261.642 146.956C260.497 146.987 259.262 146.836 258.117 146.565C255.405 146.053 252.272 145.601 249.892 144.124C246.818 142.226 246.276 139.515 245.583 136.2C245.402 137.375 245.161 139.424 244.257 140.177Z" fill="#243271"/>
<path d="M245.675 136.231C245.825 135.719 245.795 135.206 245.795 134.664L244.65 134.453C243.867 134.333 243.355 134.212 242.722 133.67C241.487 132.525 240.884 131.139 240.914 129.482C240.944 128.006 241.426 127.584 242.421 126.59C243.174 126.348 243.686 126.258 244.469 126.469C246.217 127.011 247.362 129.271 248.205 130.747C250.646 128.156 251.821 122.884 252.454 119.479C258.269 120.082 263.782 121.136 269.597 119.81L270.923 123.908L271.104 125.204C271.405 131.832 272.972 138.611 268.03 144.064C266.434 145.842 264.144 146.866 261.733 146.897C260.589 146.927 259.353 146.776 258.208 146.505C255.497 145.993 252.363 145.541 249.983 144.064C246.91 142.257 246.368 139.545 245.675 136.231Z" fill="#F6C2AC"/>
<path d="M268.572 127.704C269.024 127.794 269.205 127.975 269.566 128.246L269.627 129.542L268.723 130.114C268.361 129.934 268 129.662 267.668 129.452L267.608 128.548L268.572 127.704Z" fill="#243271"/>
<path d="M260.649 128.427C261.342 128.337 261.493 128.457 262.125 128.759C262.276 129.843 262.276 129.904 261.734 130.868C261.161 130.838 260.92 130.687 260.408 130.476C260.107 129.391 260.197 129.391 260.649 128.427Z" fill="#112160"/>
<path d="M271.073 125.264C269.657 125.234 267.789 125.565 266.765 124.571L267.186 123.637C268.572 123.426 269.506 123.577 270.862 123.938L271.073 125.264Z" fill="#853647"/>
<path d="M261.552 124.028C262.155 123.848 262.576 123.817 263.209 123.817L263.631 124.751C262.667 125.987 261.492 125.866 259.985 126.167H258.268L257.937 125.685C258.75 124.601 260.256 124.45 261.552 124.028Z" fill="#853647"/>
<path d="M329.675 109.898C330.458 111.314 331.031 112.851 331.874 114.237C333.411 116.707 335.43 119.027 337.268 121.257C331.754 128.759 325.577 135.658 319.28 142.528L294.002 168.108C287.856 173.832 281.498 180.641 273.635 183.865C273.062 181.515 273.092 178.804 272.761 176.393C271.526 167.113 269.386 158.617 263.812 150.964C269.055 149.699 274.177 146.806 278.817 144.155C291.712 136.803 303.402 127.765 315.454 119.178C319.913 115.984 324.674 112.097 329.675 109.898Z" fill="url(#paint0_linear_200_9525)"/>
<path d="M584.868 110.651C587.55 110.32 590.472 110.289 593.093 111.012C599.933 112.881 603.367 116.918 606.802 122.883C609.454 121.799 611.834 121.497 614.666 122.1C618.974 123.064 621.174 126.017 623.343 129.542C624.699 129.06 626.115 128.548 627.561 128.337C630.454 127.915 633.557 128.97 635.847 130.717C639.131 133.188 639.794 136.894 640.336 140.75C642.234 140.69 644.193 140.599 646.091 140.871C651.273 141.594 655.792 144.004 658.956 148.192L599.722 148.102L527.412 147.951C529.039 144.335 531.479 141.473 535.095 139.786C539.614 137.677 543.953 138.279 548.502 139.937C549.496 136.894 549.466 134.212 551.726 131.711C553.443 129.813 555.944 128.548 558.475 128.487C562.271 128.397 563.898 129.632 566.58 132.193C567.212 127.674 568.207 123.426 570.768 119.569C574.112 114.568 579.053 111.826 584.868 110.651Z" fill="#ABC7F5"/>
<path d="M469.745 73.4111C472.065 73.8631 474.415 74.2548 476.645 75.0682C476.585 75.3093 476.374 75.8215 476.404 76.0625C476.464 76.876 477.368 78.4126 477.639 79.2863C478.392 81.6364 478.995 84.107 479.447 86.5173C480.532 92.272 480.622 98.4184 480.743 104.294C479.989 115.893 479.146 128.397 476.012 139.635C474.867 145.028 472.487 159.46 468.48 162.684C464.895 165.426 461.52 165.848 457.181 165.878C445.491 165.607 432.656 161.479 422.232 156.327C420.123 155.604 417.893 154.157 415.874 153.163L412.259 150.873L410.813 149.849L410.3 149.879L409.246 148.614C408.704 146.926 410.391 143.703 411.054 142.015L412.199 138.852C418.194 139.063 423.286 138.068 428.89 135.899L431.12 131.229L432.506 130.385C433.41 130.024 434.283 129.572 435.157 129.12C446.606 123.034 457.513 113.905 461.369 101.01C463.72 93.1156 463.539 85.282 459.532 77.9305L461.098 77.8703L463.629 78.1414C466.401 77.9606 467.546 77.9606 469.655 76.0324C469.444 75.1888 469.655 74.2548 469.745 73.4111Z" fill="#3AB0A7"/>
<path d="M447.238 139.786C447.931 140.991 448.172 141.413 447.841 142.829C447.238 145.42 441.815 148.433 439.555 149.548C436.362 151.115 432.867 152.681 429.492 153.887C427.172 154.7 424.37 155.032 422.261 156.297C420.152 155.574 417.923 154.128 415.904 153.133L412.288 150.844L410.842 149.819C412.288 149.518 413.976 149.669 415.452 149.578L421.87 148.945C430.848 147.891 439.616 144.516 447.238 139.786Z" fill="#1B8681"/>
<path d="M469.685 76.0024C473.24 79.2865 474.385 86.3368 474.566 90.9465C475.108 105.68 468.238 119.871 458.326 130.506C454.951 134.122 451.245 136.894 447.268 139.756C439.646 144.486 430.878 147.861 421.93 148.915L415.512 149.548C414.006 149.638 412.349 149.488 410.902 149.789L410.39 149.819L409.336 148.554C408.793 146.866 410.481 143.643 411.143 141.955L412.288 138.792C418.284 139.003 423.376 138.008 428.98 135.839L431.21 131.169L432.595 130.325C433.499 129.964 434.373 129.512 435.247 129.06C446.696 122.974 457.603 113.845 461.459 100.949C463.809 93.0556 463.629 85.222 459.621 77.8705L461.188 77.8102L463.719 78.0814C466.431 77.9608 467.606 77.9307 469.685 76.0024Z" fill="#FEFEFE"/>
<path d="M459.531 77.9006L461.098 77.8403L463.629 78.1115C467.757 87.4516 467.726 97.4846 464.021 107.066C458.537 121.287 446.817 131.621 433.048 137.617L425.304 140.539C424.431 143.462 422.713 146.023 421.87 148.945L415.452 149.578C413.946 149.668 412.289 149.518 410.842 149.819L410.33 149.849L409.276 148.584C408.733 146.897 410.421 143.673 411.083 141.985L412.228 138.822C418.224 139.033 423.316 138.039 428.92 135.869L431.149 131.199L432.535 130.356C433.439 129.994 434.313 129.542 435.187 129.09C446.636 123.004 457.543 113.875 461.399 100.98C463.689 93.0857 463.538 85.2521 459.531 77.9006Z" fill="#1B8681"/>
<path d="M411.083 141.985C415.994 142.829 420.634 141.955 425.334 140.539C424.461 143.462 422.743 146.023 421.9 148.945L415.482 149.578C413.976 149.668 412.318 149.518 410.872 149.819L410.36 149.849L409.306 148.584C408.733 146.866 410.42 143.642 411.083 141.985Z" fill="#ABC7F5"/>
<path d="M459.531 77.9006L461.097 77.8403C465.316 84.7701 465.647 92.5434 463.779 100.317C460.676 113.212 451.727 123.516 440.549 130.325C436.904 132.555 432.957 134.513 428.919 135.869L431.149 131.199L432.535 130.356C433.439 129.994 434.313 129.542 435.186 129.09C446.635 123.004 457.542 113.875 461.399 100.98C463.689 93.0857 463.538 85.2521 459.531 77.9006Z" fill="#FEFEFE"/>
<path d="M373.422 143.974C374.446 140.84 376.134 137.737 377.55 134.754L386.498 117.249C388.336 113.814 390.174 109.506 392.735 106.583C398.278 100.256 406.534 94.8631 413.494 90.2232C418.314 86.9993 423.406 84.1371 428.558 81.4555C436.422 77.3278 445.822 72.6277 454.952 74.4656C456.458 75.5201 457.934 77.0567 459.531 77.9304C463.538 85.282 463.689 93.1156 461.369 101.009C457.543 113.905 446.606 123.034 435.157 129.12C434.283 129.572 433.439 130.054 432.505 130.385L431.119 131.229L428.89 135.899C423.286 138.038 418.194 139.033 412.198 138.852C412.831 137.225 413.403 135.507 414.277 134.001L422.171 115.502L410.903 119.539L396.049 134.995L385.474 146.565C384.6 147.529 383.214 149.548 382.189 150.18C381.979 150.301 381.707 150.271 381.466 150.331L380.683 149.909L373.422 143.974Z" fill="#3AB0A7"/>
<path d="M422.201 115.472L457.512 95.978C450.583 108.391 440.881 118.967 432.535 130.386L431.149 131.229L428.92 135.899C423.316 138.038 418.224 139.033 412.228 138.852C412.861 137.225 413.433 135.508 414.307 134.001L422.201 115.472Z" fill="#1B8681"/>
<path d="M414.307 133.971C419.007 135.96 426.69 132.917 431.149 131.199L428.92 135.869C423.316 138.008 418.224 139.003 412.228 138.822C412.861 137.195 413.433 135.478 414.307 133.971Z" fill="#EEF2FA"/>
<path d="M53.63 409.653C56.7032 412.696 61.8854 415.589 65.8625 417.306C67.7305 418.12 74.2384 416.553 75.3532 417.607C77.2815 417.638 79.5412 417.909 81.3489 417.246C83.3977 417.638 85.7177 417.728 87.7966 417.397L88.0979 417.336C90.1467 417.848 92.3461 417.668 94.4551 417.638L104.82 417.457L133.593 417.336L231.332 417.517L286.589 417.638L406.805 417.668L567.785 417.577L572.154 417.336L575.589 417.306L609.093 417.517C613.07 418.18 617.89 417.668 621.988 417.668L654.648 417.638C659.167 417.638 664.259 417.095 668.718 417.638C669.713 417.758 669.984 418.24 670.556 418.963C670.556 420.349 670.616 420.711 669.773 421.916C669.261 422.157 668.718 422.368 668.146 422.428C664.078 422.76 659.83 422.488 655.733 422.488L632.262 422.428L561.85 422.488H150.526L41.5783 422.187L12.8351 422.157C9.46058 422.157 4.97132 422.729 1.68724 422.127C0.723103 421.946 0.482068 421.404 0 420.62C0.0301292 419.084 -0.0301265 419.024 1.0244 417.939C3.88667 416.975 8.61696 417.638 11.7805 417.638L38.9571 417.607L48.8395 417.668C48.5081 417.366 48.3875 417.186 48.2068 416.794C49.8639 414.534 52.6056 412.184 53.63 409.653Z" fill="#7388C8"/>
<path d="M53.6304 409.653C56.7036 412.696 61.8858 415.589 65.8629 417.306C67.7309 418.12 74.2388 416.553 75.3536 417.607C72.6119 417.939 69.5085 417.638 66.7367 417.638L48.87 417.668C48.5386 417.366 48.4181 417.186 48.2373 416.794C49.8643 414.534 52.6061 412.184 53.6304 409.653Z" fill="#4E6FD0"/>
<path d="M79.9944 59.7928C80.6271 51.9291 84.3933 43.1615 89.5454 37.226C97.0174 28.6091 107.472 22.8845 118.951 22.1313C128.081 21.5287 137.36 23.457 145.134 28.368C148.9 30.7482 152.154 33.7611 155.468 36.7138C155.317 38.0094 155.257 39.4254 154.896 40.6607C155.8 41.1729 156.523 41.5345 157.517 41.7454L159.927 42.2877L159.957 42.4986C160.259 44.0955 161.313 45.5115 162.036 46.9276C162.85 48.5245 163.392 50.3322 163.904 52.0195C167.761 64.5231 166.134 78.5332 158.933 89.5304C152.636 99.1115 143.386 106.132 132.028 108.452C120.759 110.711 108.768 108.753 99.1566 102.305C89.3646 95.7068 82.465 84.9808 80.2656 73.4112C79.4822 69.0124 79.2713 64.2218 79.9944 59.7928Z" fill="url(#paint1_linear_200_9525)"/>
<path d="M90.5388 71.031L90.3882 68.3796C89.9664 59.3409 92.678 50.3322 98.9147 43.5833C104.85 37.1055 113.045 33.0983 121.873 32.7368C129.677 32.4053 138.324 35.6593 144.018 40.9922C145.254 42.1672 147.332 43.8846 147.423 45.6923L147.272 45.9334L143.205 49.0969C139.921 45.5718 136.275 42.6493 131.725 40.9018C125.187 38.401 118.258 39.2748 111.991 42.0166C105.784 44.909 100.813 50.1514 98.4929 56.5991C98.1013 57.6838 97.8903 58.8287 97.6794 59.9434V59.9736C96.2031 66.4514 97.3781 72.7484 100.421 78.5934C103.404 84.3481 108.646 88.6867 114.853 90.615C121.331 92.6337 129.285 91.8202 135.251 88.6265C141.397 85.3424 145.675 79.6178 147.664 72.9593C149.893 65.5174 148.598 58.3767 145.012 51.6579L149.472 48.1027L149.743 48.0123C151.822 49.0668 153.419 53.9176 154.111 56.0869C156.672 64.1314 155.738 73.4112 151.761 80.8531C147.573 88.7169 140.312 94.6825 131.756 97.2133C123.621 99.5935 114.733 98.6896 107.291 94.5921C99.9693 90.5547 93.9735 83.3539 91.5933 75.3094L90.5388 71.031Z" fill="#FEFEFE"/>
<path d="M111.96 42.0165C118.227 39.2446 125.157 38.401 131.695 40.9017C136.214 42.6492 139.89 45.5718 143.174 49.0969L147.241 45.9333L147.392 45.6923C149.802 43.8845 152.183 41.9563 154.894 40.6306C155.798 41.1428 156.521 41.5043 157.516 41.7152L149.712 47.952L149.441 48.0424L144.982 51.5976C148.567 58.3164 149.863 65.4571 147.633 72.899C145.645 79.5274 141.366 85.2821 135.22 88.5662C129.254 91.7599 121.3 92.5432 114.822 90.5547C108.616 88.6264 103.373 84.2878 100.391 78.5332C97.3474 72.6881 96.1724 66.3911 97.6487 59.9133L97.6789 59.8832C97.8898 58.7684 98.1007 57.6235 98.4924 56.5388C100.812 50.1514 105.784 44.9089 111.96 42.0165Z" fill="url(#paint2_linear_200_9525)"/>
<path d="M154.924 40.6609C155.828 41.1731 156.551 41.5346 157.545 41.7455L149.742 47.9823L149.471 48.0727L145.012 51.6279L138.413 56.4185C139.377 58.6179 140.04 60.8776 140.221 63.2578C140.613 67.9881 139.377 73.2607 136.184 76.9063C132.869 80.7026 128.591 82.9925 123.529 83.2335C119.221 83.4444 114.792 81.8174 111.628 78.8949C107.953 75.5807 105.602 71.2722 105.482 66.2707C105.361 61.4501 106.536 57.2621 110.001 53.7671C113.255 50.483 118.227 47.7714 122.927 47.8015C128.049 47.8618 132.508 50.5734 136.033 54.0985L143.143 49.0971L147.211 45.9335L147.362 45.6925C149.832 43.9148 152.182 41.9866 154.924 40.6609Z" fill="#FEFEFE"/>
<path d="M154.925 40.6609C155.829 41.1731 156.552 41.5346 157.546 41.7455L149.743 47.9823L149.471 48.0727L145.012 51.6279L138.414 56.4185L132.509 60.6366C133.292 63.5591 133.533 66.1201 132.539 69.0426C131.966 70.7299 131.093 72.1761 129.707 73.3511C127.718 75.0383 124.675 76.1531 122.054 75.9121C119.252 75.6711 116.631 74.3152 114.853 72.1158C113.256 70.1574 112.382 67.265 112.714 64.7341C113.136 61.5404 114.732 58.7987 117.354 56.9005C119.523 55.3338 122.415 54.6107 125.067 55.1531C127.206 55.605 129.044 56.8403 130.761 58.1358L136.094 54.0684L143.204 49.0669L147.272 45.9034L147.423 45.6623C149.833 43.9148 152.183 41.9866 154.925 40.6609Z" fill="#EC6455"/>
<path d="M154.925 40.6609C155.829 41.1731 156.552 41.5346 157.546 41.7455L149.743 47.9823L149.472 48.0727L145.013 51.6279L138.414 56.4185L132.509 60.6366C130.159 62.5347 125.398 67.024 122.536 67.2047C121.783 66.572 121.632 66.5419 121.421 65.5476C123.741 62.7155 127.869 60.5763 130.731 58.166L136.064 54.0985L143.175 49.0971L147.242 45.9335L147.393 45.6925C149.833 43.9148 152.183 41.9866 154.925 40.6609Z" fill="#992A6C"/>
<path d="M375.108 316.524L375.379 317.518C372.969 320.802 370.047 323.725 367.275 326.738L352.12 343.188L295.175 407.394C293.518 409.322 286.92 415.86 286.589 417.638L231.332 417.517L133.592 417.336L104.819 417.457L94.4544 417.638C92.3755 417.668 90.146 417.849 88.0972 417.336C88.6696 416.794 89.0613 416.252 89.4831 415.589C89.9049 415.077 90.4774 414.685 91.0197 414.293C92.5262 414.052 96.6237 409.955 97.9193 408.84L107.079 401.458L108.314 400.434C116.328 394.679 124.825 386.454 134.978 384.947C137.358 384.586 139.859 384.857 142.27 384.978C146.367 385.791 150.435 387.056 154.381 388.412L175.261 396.095C177.34 396.879 182.311 399.5 184.3 399.138C185.746 399.62 187.011 400.223 188.367 400.916C190.235 402.332 193.881 403.266 196.141 404.14L240.762 371.118L260.225 375.186C261.129 372.414 261.852 368.316 263.479 366.026L271.825 367.593C273.392 367.894 274.868 368.437 276.345 367.774L276.947 367.563C279.117 370.124 281.557 372.353 284.66 373.8C286.498 374.643 288.667 375.035 290.415 376.029C292.765 377.385 293.548 380.066 294.271 382.477C294.543 383.17 294.482 383.29 295.145 383.592L375.108 316.524Z" fill="#7190DE"/>
<path d="M263.51 366.057L271.856 367.623C273.422 367.925 274.899 368.467 276.375 367.804L276.978 367.593C279.147 370.154 281.587 372.384 284.691 373.83C286.529 374.674 288.698 375.065 290.445 376.06C292.795 377.415 293.579 380.097 294.302 382.507L293.76 383.351L260.256 375.216C261.16 372.474 261.883 368.377 263.51 366.057Z" fill="#112160"/>
<path d="M468.509 162.654C472.516 159.43 474.896 144.998 476.041 139.605C479.988 142.015 482.911 145.209 486.165 148.463C493.486 155.845 500.084 163.407 505.839 172.084L514.034 185.673C514.245 186.064 515.631 188.685 515.842 188.776C516.625 189.047 521.386 187.842 522.531 187.661C529.129 186.667 535.818 186.004 542.506 186.094C559.77 186.335 576.161 189.619 592.159 196.067C594.178 196.881 596.347 197.634 597.884 199.291L572.334 205.407L563.687 207.456C562.482 207.757 561.126 207.938 560.162 208.752C559.921 209.475 559.71 209.686 560.072 210.409C561.126 212.367 563.115 214.205 564.621 215.832L574.835 226.648L572.786 228.456L479.175 304.984C472.486 303.086 464.472 303.207 457.512 303.327L454.981 303.177L455.041 302.875C455.915 302.453 456.608 302.122 457.301 301.429L457.21 300.495C455.855 298.597 453.715 297.723 451.667 296.729L441.061 291.848L445.249 283.231L443.17 281.905L436.964 278.621C436.09 278.169 435.276 277.838 434.764 276.934L465.134 219.688L449.829 200.978C447.479 198.026 444.857 195.103 442.869 191.909L442.628 191.488L453.957 170.909L454.137 170.096C454.951 168.71 456.216 167.595 457.331 166.45L457.18 165.727C461.579 165.817 464.954 165.365 468.509 162.654Z" fill="#EEF2FA"/>
<path d="M528.376 228.848C529.37 228.818 530.033 228.968 530.877 229.451L531.118 229.601C531.781 229.963 532.202 230.595 532.624 231.228C532.926 231.65 532.805 233.277 532.684 233.819L532.594 234.211C532.534 234.482 532.594 234.512 532.413 234.753C531.781 235.687 530.877 236.26 529.822 236.591H527.984C527.291 236.531 526.387 235.838 525.966 235.265C525.273 234.301 525.002 233.096 525.212 231.981C525.303 231.469 525.363 231.288 525.664 230.867L525.966 230.505C526.689 229.511 527.261 229.3 528.376 228.848Z" fill="#FEFEFE"/>
<path d="M502.165 252.741C503.4 252.409 504.876 252.379 506.142 252.62C508.371 253.042 510.571 255.091 511.806 256.898C514.759 261.147 516.717 269.161 515.874 274.223L514.005 273.259C508.522 270.487 502.436 267.564 499.543 261.809C498.67 260.092 498.399 257.561 499.092 255.723C499.694 254.157 500.719 253.464 502.165 252.741Z" fill="#7190DE"/>
<path d="M468.509 162.654L485.924 190.222C489.449 196.007 493.938 202.304 496.137 208.721C497.312 212.096 497.704 215.772 497.071 219.297C496.378 223.033 494.782 226.468 492.793 229.691C490.654 233.156 488.033 236.44 485.592 239.724L470.859 258.947C463.929 267.955 457.331 277.687 449.708 286.063L445.249 283.321L443.17 281.996L436.964 278.712C436.09 278.26 435.276 277.928 434.764 277.024L465.134 219.779L449.829 201.069C447.479 198.116 444.857 195.193 442.869 192L442.628 191.578L453.957 171L454.137 170.186C454.951 168.8 456.216 167.685 457.331 166.54L457.18 165.817C461.579 165.817 464.954 165.365 468.509 162.654Z" fill="#364DA1"/>
<path d="M453.957 171L458.928 171.452C460.404 180.129 460.314 189.831 460.675 198.598C460.766 200.918 460.404 204.413 460.977 206.583C461.097 207.095 462.061 208.149 462.423 208.662L468.388 216.525C468.961 217.279 472.848 221.979 472.727 222.611C472.576 223.304 471.733 224.57 471.371 225.233L467.936 232.102L450.793 266.51C448.292 271.541 445.129 276.693 443.17 281.966L436.964 278.682C436.09 278.23 435.276 277.899 434.764 276.995L465.134 219.749L449.829 201.039C447.479 198.086 444.857 195.164 442.869 191.97L442.628 191.548L453.957 171Z" fill="#112160"/>
<path d="M597.914 199.321L611.412 195.736L608.46 204.142L608.64 204.293C614.305 208.752 620.391 212.518 625.784 217.369C646.784 236.199 660.252 261.87 663.777 289.799C666.278 309.474 663.174 330.444 655.552 348.732C652.599 355.812 648.773 362.561 644.765 369.099L637.474 380.338C635.727 382.868 633.256 385.46 632.141 388.352L638.438 389.919L640.788 390.732C640.788 391.636 640.126 392.209 639.583 392.871C633.889 399.56 628.134 405.556 620.963 410.708C618.794 412.275 616.293 414.113 613.793 415.107L613.371 415.288L609.032 417.638L575.528 417.427L572.094 417.457L567.725 417.698L564.953 413.781L563.055 410.919L557.15 402.724L549.617 392.118C548.412 390.31 547.327 388.201 545.942 386.544C547.358 379.584 548.954 372.594 548.713 365.424C549.105 362.953 548.713 360.603 548.804 358.102L547.81 346.231L546.303 338.096L545.972 336.289L540.488 317.096L539.976 316.584L538.952 313.903L535.758 306.551L530.485 296.157L529.913 295.373L528.406 293.083C528.346 292.481 527.231 290.854 526.9 290.251C524.67 286.244 522.17 282.478 519.548 278.712L575.709 232.072L578.752 229.963L583.302 226.558L579.626 223.093L574.805 226.889L564.592 216.073C563.085 214.416 561.097 212.608 560.042 210.65C559.65 209.927 559.891 209.746 560.132 208.993C561.097 208.149 562.452 207.998 563.658 207.697L572.305 205.648L597.914 199.321Z" fill="#EEF2FA"/>
<path d="M586.737 268.197C587.64 267.895 588.514 267.805 589.448 268.016C590.653 268.287 591.768 269.191 592.401 270.215C593.094 271.39 593.244 272.987 592.823 274.313C592.31 275.849 591.196 276.542 589.84 277.235C589.207 277.416 588.484 277.567 587.821 277.476C586.586 277.326 585.351 276.301 584.688 275.277C584.085 274.313 583.663 272.927 583.934 271.812C584.356 269.944 585.11 269.131 586.737 268.197Z" fill="#F5AB41"/>
<path d="M587.188 269.673C588.424 269.553 589.297 269.372 590.352 270.246C591.226 270.939 591.587 272.084 591.467 273.168C591.346 274.343 590.653 274.795 589.81 275.488C589.237 275.639 588.574 275.669 587.972 275.729C587.339 275.458 586.676 275.217 586.194 274.705C585.501 273.921 585.411 273.078 585.531 272.053C585.652 270.848 586.345 270.426 587.188 269.673Z" fill="#FEFEFE"/>
<path d="M623.072 274.554C623.704 276.814 624.367 279.315 625.482 281.394C627.44 285.069 631.508 285.672 635.184 286.817C632.834 287.389 630.393 287.901 628.254 289.076C624.97 290.884 624.126 295.434 623.132 298.748C622.499 296.247 621.565 293.686 620.179 291.487C618.04 288.082 614.063 287.63 610.417 286.787C612.858 286.154 615.901 285.672 618.1 284.437C621.204 282.689 622.138 277.688 623.072 274.554Z" fill="#F79160"/>
<path d="M538.981 313.752C539.584 308.871 540.428 302.333 544.585 299.079C546.243 297.784 548.261 297.121 550.34 297.422C551.756 297.633 553.082 298.627 553.895 299.832C554.86 301.309 554.92 303.418 554.558 305.105C553.865 308.479 550.702 311.733 547.87 313.481C545.58 314.897 543.049 316.012 540.518 316.916L540.006 316.403L538.981 313.752Z" fill="#7190DE"/>
<path d="M529.973 295.193C530.154 289.077 529.853 281.062 534.643 276.452C536.24 274.916 538.259 274.072 540.488 274.042C541.754 274.042 542.929 274.765 543.833 275.639C545.188 276.965 545.851 278.983 545.761 280.881C545.61 284.949 543.29 288.112 540.277 290.613C537.325 293.114 534.01 294.439 530.546 295.976L529.973 295.193Z" fill="#87A7E7"/>
<path d="M546.003 336.138C547.449 335.565 548.715 331.649 549.468 330.112C552.029 325.05 557.211 317.156 564.05 319.928C565.557 320.531 566.641 321.676 567.214 323.182C568.238 325.864 568.178 326.948 566.973 329.57C565.677 332.402 562.634 334.42 559.772 335.445C555.343 337.012 550.854 337.162 546.304 337.976L546.003 336.138Z" fill="#87A7E7"/>
<path d="M548.864 357.982L549.014 361.417L549.406 361.718C552.358 356.204 556.848 349.757 563.145 347.858C565.103 347.256 567.755 347.196 569.592 348.19C571.159 349.033 572.123 350.359 572.545 352.046C573.027 353.914 572.696 355.873 571.671 357.5C569.562 360.844 565.284 363.013 561.518 363.736C557.39 364.55 553.473 364.008 549.376 364.098L548.803 365.303C549.135 362.863 548.743 360.513 548.864 357.982Z" fill="#87A7E7"/>
<path d="M597.915 199.321L611.413 195.736L608.46 204.142L594.33 244.063L593.697 244.334L593.275 244.154C591.317 243.37 589.509 241.05 588.033 239.544L578.843 229.782L583.393 226.377L579.717 222.912L574.896 226.709L564.682 215.892C563.176 214.235 561.187 212.427 560.133 210.469C559.741 209.746 559.982 209.565 560.223 208.812C561.187 207.968 562.543 207.818 563.748 207.516L572.396 205.468L597.915 199.321Z" fill="#F9D767"/>
<path d="M583.363 226.377C586.406 228.969 588.545 234.904 590.564 238.52C591.528 240.207 592.914 241.864 593.516 243.732L593.275 244.154C591.317 243.37 589.509 241.05 588.033 239.544L578.843 229.782L583.363 226.377Z" fill="#F5AB41"/>
<path d="M560.192 208.812L579.686 222.913L574.865 226.709L564.651 215.892C563.145 214.235 561.156 212.428 560.102 210.469C559.74 209.746 559.981 209.535 560.192 208.812Z" fill="#F5AB41"/>
<path d="M624.218 322.55L625.664 322.188L625.996 323.182C626.689 327.973 626.086 333.185 625.785 338.006L625.574 340.085L624.338 348.069C624.037 349.636 623.374 351.534 623.314 353.101L622.681 355.179L618.975 366.87L618.162 368.768L611.714 382.477L610.66 383.923L610.449 384.887L611.383 385.279C612.709 385.339 615.39 385.098 616.475 385.731C621.386 385.731 627.472 387.026 632.202 388.322L638.499 389.888L640.849 390.702C640.849 391.606 640.186 392.178 639.644 392.841C633.95 399.53 628.195 405.525 621.024 410.678C618.855 412.244 616.354 414.082 613.854 415.076L613.432 415.257L609.093 417.607L575.589 417.396L572.155 417.426L567.786 417.668L565.014 413.751L563.116 410.888L557.211 402.693L549.678 392.088L551.607 388.683C554.107 383.893 557.783 379.192 560.916 374.824C567.816 365.213 574.776 355.451 583.061 346.984C586.496 343.489 590.172 340.507 594.179 337.705L595.686 336.62L606.954 329.66L609.424 328.425L624.218 322.55Z" fill="#364DA1"/>
<path d="M625.784 338.006L615.541 338.699L622.862 328.335C623.856 326.828 624.82 324.388 626.026 323.183C626.688 327.943 626.086 333.186 625.784 338.006Z" fill="#3860CE"/>
<path d="M609.394 328.335L624.218 322.55L612.889 338.91L609.394 328.335Z" fill="#3860CE"/>
<path d="M623.283 353.071L604.753 353.703L613.822 340.929L625.543 340.085L624.307 348.069C624.006 349.606 623.343 351.504 623.283 353.071Z" fill="#3860CE"/>
<path d="M595.655 336.53L606.923 329.57C608.761 333.065 609.785 337.193 611.171 340.929L602.404 353.282L595.655 336.53Z" fill="#3860CE"/>
<path d="M618.944 366.87L594.389 368.165L603.096 355.903L622.65 355.18L618.944 366.87Z" fill="#3860CE"/>
<path d="M611.684 382.447C609.696 381.121 605.448 381.814 603.158 381.904L584.267 383.11C584.387 382.236 585.743 380.699 586.285 379.916L593.004 370.305L618.102 368.768L611.684 382.447Z" fill="#3860CE"/>
<path d="M601.109 397.331L600.687 397.09C598.728 395.764 594.48 396.367 592.1 396.427L574.715 396.728L582.609 385.369C583.634 384.345 607.857 383.803 610.629 383.893L610.418 384.857L611.353 385.249C611.051 385.309 610.268 385.4 610.027 385.58C609.002 386.303 607.074 389.798 606.291 390.913C604.754 393.052 602.916 394.981 601.47 397.15L601.109 397.331Z" fill="#3860CE"/>
<path d="M599.994 398.746H600.566L601.199 404.14L575.8 415.197C574.535 415.83 573.239 416.372 572.154 417.336L567.786 417.577L565.014 413.66L565.375 413.028C565.315 411.732 566.189 410.165 566.821 409.051C568.87 405.435 571.281 401.97 573.57 398.505L599.994 398.746Z" fill="#3860CE"/>
<path d="M599.994 398.747H600.566L601.199 404.14L575.8 415.197C574.535 415.83 573.239 416.372 572.154 417.336L567.786 417.577L565.014 413.661L565.375 413.028C567.786 412.003 571.341 411.732 573.962 411.069C583.603 408.719 592.401 405.315 599.994 398.747Z" fill="#243271"/>
<path d="M611.352 385.279C612.678 385.339 615.359 385.098 616.444 385.731C621.355 385.731 627.441 387.026 632.172 388.322L638.469 389.889L640.819 390.702C640.819 391.606 640.156 392.178 639.614 392.841C633.919 399.53 628.164 405.526 620.994 410.678C618.824 412.244 616.324 414.082 613.823 415.077L613.401 415.257L609.062 417.607L575.559 417.397L572.124 417.427C573.209 416.463 574.504 415.92 575.77 415.288L601.169 404.23L600.536 398.837L601.078 397.391L601.44 397.21C602.886 395.041 604.754 393.112 606.26 390.973C607.044 389.889 608.942 386.363 609.996 385.64C610.268 385.429 611.051 385.339 611.352 385.279Z" fill="#112160"/>
<path d="M611.353 385.279C612.679 385.339 615.36 385.098 616.445 385.731L615.24 386.032C613.522 389.798 611.865 393.564 610.479 397.481C610.268 398.084 609.696 400.825 609.365 401.127C609.093 401.368 608.069 401.669 607.677 401.85L602.585 404.019C602.284 401.85 602.073 399.771 602.073 397.572L601.471 397.18C602.917 395.011 604.785 393.082 606.291 390.943C607.075 389.858 608.973 386.333 610.027 385.61C610.268 385.429 611.052 385.339 611.353 385.279Z" fill="#243271"/>
<path d="M616.445 385.701C621.356 385.701 627.443 386.996 632.173 388.292L638.47 389.859C637.807 390.582 637.265 391.003 636.361 391.395L610.329 400.886L614.668 391.244C615.361 389.587 616.385 387.78 616.445 385.942V385.701Z" fill="#243271"/>
<path d="M578.331 415.89C581.253 414.685 600.325 405.887 601.59 406.038C602.374 406.128 605.748 409.503 606.501 410.136C608.279 411.582 611.111 414.474 613.22 415.137L613.431 415.197L609.093 417.547L575.589 417.337C576.432 416.764 577.397 416.342 578.331 415.89Z" fill="#243271"/>
<path d="M613.823 415.016C613.19 412.154 605.748 407.604 603.308 405.736C611.111 402.091 619.366 399.198 627.531 396.517C631.539 395.191 635.486 393.715 639.613 392.811C633.919 399.5 628.164 405.495 620.993 410.648C618.824 412.214 616.323 414.052 613.823 415.016Z" fill="#243271"/>
<path d="M551.607 388.593C554.108 383.802 557.783 379.102 560.917 374.733C567.816 365.122 574.776 355.36 583.062 346.894C586.496 343.399 590.172 340.416 594.179 337.614L594.3 338.066C595.686 343.911 598.518 349.786 600.928 355.27L591.076 369.28C589.961 366.508 584.749 352.076 583.484 351.022C583.243 350.811 582.911 350.72 582.64 350.57L581.917 350.962C582.399 353.492 583.634 356.144 584.568 358.554C586.225 362.802 587.792 367.051 589.841 371.148L580.471 384.254C579.356 381.332 574.475 366.358 572.697 365.243L571.703 365.695C571.552 368.165 576.885 380.338 578.06 383.501C578.241 383.983 579.085 385.761 579.024 386.092C578.964 386.544 577.819 388.02 577.518 388.503L570.95 398.385C569.895 396.607 569.232 394.498 568.539 392.54L564.442 381.181C563.839 379.614 563.297 377.566 562.212 376.27L561.067 376.511C560.435 378.228 566.551 393.173 567.756 396.095C568.088 396.909 569.594 399.741 569.534 400.434C569.504 400.795 568.148 402.482 567.907 402.874C566.25 405.345 564.291 408.056 563.086 410.798L557.181 402.603L549.648 391.998L551.607 388.593Z" fill="#3860CE"/>
<path d="M551.607 388.593C553.535 391.004 554.86 395.252 556.096 398.114C556.608 399.289 557.452 400.705 557.301 402.001L557.211 402.603L549.678 391.998L551.607 388.593Z" fill="#364DA1"/>
<path d="M412.319 150.843L415.935 153.133C417.954 154.157 420.183 155.604 422.292 156.297C432.717 161.449 445.552 165.576 457.242 165.848L457.393 166.571C456.278 167.716 455.012 168.8 454.199 170.216L454.018 171.03L442.69 191.608L442.931 192.03C444.919 195.254 447.51 198.146 449.891 201.099L465.196 219.809L434.826 277.055C435.308 277.958 436.152 278.29 437.025 278.742L443.232 282.026L445.311 283.352L441.123 291.969C436.814 292.662 432.657 292.872 428.288 292.842L423.618 303.056C422.413 303.93 418.466 303.478 416.839 303.478L395.598 303.357C394.362 303.357 391.47 302.966 390.446 303.357C389.843 303.568 388.547 305.105 388.035 305.557L381.377 311.221L376.767 315.078C376.315 315.469 375.441 316.042 375.2 316.554L295.207 383.561C294.544 383.26 294.604 383.14 294.333 382.447C293.58 380.036 292.797 377.355 290.477 375.999C288.729 375.005 286.56 374.613 284.722 373.769C281.619 372.353 279.178 370.124 277.009 367.533L276.708 367.02C276.768 364.52 277.943 360.965 278.937 358.645L279.962 358.253H280.564C281.92 357.349 286.379 340.567 287.283 337.584L296.563 301.61C297.346 298.266 299.124 293.324 298.943 289.92C298.853 288.202 297.858 286.575 297.105 285.069L293.098 277.235L274.388 241.743L272.158 237.314C273.152 237.314 274.358 236.802 275.322 236.531L275.352 214.687C277.28 215.35 279.148 216.676 280.986 217.58C285.807 219.99 290.808 222.129 296.081 223.394C321.902 229.661 348.747 222.671 367.035 203.117C372.398 197.363 376.797 191.036 381.648 184.919C386.649 178.562 392.193 172.476 398.129 166.993L404.516 161.268C405.932 159.972 407.378 158.376 409.035 157.381C409.698 156.99 410.24 156.598 410.783 156.086L412.319 150.843Z" fill="#EEF2FA"/>
<path d="M320.243 317.85C320.786 317.729 321.298 317.639 321.87 317.76C323.015 317.97 324.01 318.663 324.642 319.658C325.305 320.652 325.305 321.857 324.944 322.972C324.522 324.358 323.618 325.081 322.413 325.774C321.84 325.864 321.208 325.894 320.665 325.834C319.641 325.714 318.707 325.111 318.134 324.267C317.472 323.273 317.17 322.008 317.472 320.833C317.803 319.387 319.008 318.513 320.243 317.85Z" fill="#F5AB41"/>
<path d="M320.154 319.326C321.208 319.085 321.781 319.115 322.805 319.507C323.468 320.351 324.01 320.893 323.86 322.098C323.709 323.273 322.926 323.725 322.052 324.388C321.299 324.659 320.937 324.539 320.214 324.328C319.25 323.605 318.979 323.062 318.647 321.917C318.979 320.471 319.099 320.321 320.154 319.326Z" fill="#EEF2FA"/>
<path d="M338.503 241.804C338.744 242.497 339.226 243.37 339.317 244.063L341.938 252.952L340.733 252.319C338.563 254.368 333.682 254.609 330.85 255.693L328.741 243.431C331.845 243.581 335.4 242.376 338.503 241.804Z" fill="#F1764E"/>
<path d="M340.731 252.319H340.099L341.003 251.987C340.641 251.566 340.31 251.204 339.828 250.903L339.466 250.692L338.894 248.673C338.592 247.227 338.472 245.299 339.315 244.033L341.937 252.921L340.731 252.319Z" fill="#EC6455"/>
<path d="M436.964 278.712L443.171 281.996L445.25 283.322L441.062 291.939C436.753 292.632 432.595 292.843 428.227 292.812C431.39 288.263 433.559 283.111 436.964 278.712Z" fill="#F1764E"/>
<path d="M330.849 255.693L332.144 263.888C332.235 264.611 332.536 265.997 332.415 266.66C332.265 267.534 331.331 268.92 330.909 269.703L327.113 276.904C325.666 274.042 324.823 270.637 323.768 267.624L316.356 244.907C320.394 244.334 324.672 243.431 328.74 243.461L330.849 255.693Z" fill="#243271"/>
<path d="M412.319 150.843L415.934 153.133C417.953 154.157 420.182 155.604 422.291 156.297C432.716 161.449 445.551 165.576 457.241 165.848L457.392 166.571C456.277 167.716 455.012 168.8 454.198 170.216L454.018 171.03L442.689 191.608L425.997 222.852C424.009 226.498 422.352 230.535 419.67 233.699C416.537 237.374 412.68 240.026 408.04 241.412L343.172 256.085L341.997 253.011L339.376 244.123C339.285 243.4 338.803 242.527 338.562 241.864V241.532L337.508 237.133L391.801 216.615C392.705 214.868 393.156 212.729 393.759 210.831L397.073 200.135L410.812 156.116L412.319 150.843Z" fill="url(#paint3_linear_200_9525)"/>
<path d="M415.934 153.103C417.952 154.127 420.182 155.574 422.291 156.267C432.716 161.419 445.551 165.546 457.241 165.818L457.391 166.541C456.277 167.686 455.011 168.77 454.198 170.186C442.086 170.006 429.522 166.571 419.82 159.099L415.934 153.103Z" fill="#243271"/>
<path d="M412.319 150.843L415.934 153.133L419.761 159.129C417.501 161.178 401.563 208.179 399.183 214.717C398.731 215.953 397.556 220.623 396.712 221.316C396.381 221.587 395.326 221.918 394.874 222.069L388.788 224.298L363.299 233.277L344.498 239.996C342.961 240.508 340.431 241.713 338.804 241.562L338.502 241.502L337.448 237.103L391.741 216.585C392.645 214.838 393.096 212.699 393.699 210.8L397.013 200.105L410.752 156.086L412.319 150.843Z" fill="url(#paint4_linear_200_9525)"/>
<path d="M579.687 222.882L583.363 226.347L578.814 229.752L575.771 231.861L519.61 278.501C522.201 282.267 524.702 286.033 526.961 290.04C527.293 290.643 528.408 292.24 528.468 292.873L529.974 295.162L530.547 295.946L535.819 306.34L539.013 313.692L540.037 316.373L540.55 316.886L546.033 336.078L546.365 337.886L547.871 346.021L548.865 357.891C548.745 360.392 549.167 362.742 548.775 365.213C549.016 372.384 547.419 379.374 546.003 386.333C547.419 387.991 548.504 390.069 549.679 391.907L557.211 402.513L563.116 410.708L565.015 413.57L567.786 417.487L406.806 417.577L286.59 417.547C286.952 415.77 293.52 409.232 295.177 407.303L352.121 343.098L367.276 326.647C370.018 323.634 372.941 320.712 375.381 317.428L375.11 316.434C375.351 315.921 376.225 315.349 376.677 314.957L381.286 311.101L387.945 305.436C388.457 304.954 389.783 303.448 390.355 303.237C391.38 302.845 394.272 303.237 395.507 303.237L416.749 303.358C418.376 303.358 422.353 303.84 423.528 302.936L428.198 292.722C432.566 292.752 436.724 292.541 441.033 291.848L451.638 296.729C453.687 297.693 455.826 298.597 457.182 300.495L457.272 301.429C456.579 302.092 455.886 302.454 455.013 302.875L454.952 303.177L457.483 303.327C464.443 303.207 472.427 303.086 479.146 304.985L572.758 228.456L574.807 226.648L579.687 222.882Z" fill="#87A7E7"/>
<path d="M441.063 291.938L451.669 296.819C453.717 297.784 455.856 298.687 457.212 300.586L457.303 301.52C456.61 302.182 455.917 302.544 455.043 302.966C454.049 302.695 452.512 302.996 451.458 303.056L444.136 303.267C437.297 303.297 430.337 302.725 423.528 303.086L428.198 292.872C432.597 292.842 436.755 292.631 441.063 291.938Z" fill="#112160"/>
<path d="M579.687 222.882L583.363 226.347L578.813 229.752L575.77 231.861L519.609 278.501C522.201 282.267 524.701 286.033 526.961 290.04C527.292 290.643 528.407 292.24 528.467 292.873L529.974 295.162L530.546 295.946L535.819 306.34L539.013 313.692L540.037 316.373L539.585 317.277C537.747 317.548 535.759 318.633 533.951 319.175C529.221 320.652 523.737 321.586 519.157 319.115C516.928 317.91 515.482 316.403 514.698 313.933C514.789 312.487 515.241 311.492 516.265 310.438C518.314 308.329 521.809 307.304 524.701 307.335C530.546 307.395 535.457 312.065 539.284 315.982L534.915 306.581L529.793 297.06C528.558 297.512 527.443 298.416 526.298 299.049C522.261 301.218 515.723 303.327 511.143 301.851C509.124 301.188 507.136 299.772 506.232 297.814C505.72 296.699 505.84 296.006 506.292 294.951C506.985 293.264 508.944 291.999 510.571 291.306C515.06 289.438 520.513 290.372 524.762 292.511C526.057 293.174 527.112 294.198 528.467 294.801L528.106 293.776L521.206 282.9C520.483 281.875 519.579 280.309 518.555 279.616L485.533 306.883L456.037 330.805C451.186 334.752 445.522 338.85 441.304 343.429C433.621 348.973 426.39 355.722 419.189 361.868L384.781 390.431C380.623 393.775 376.676 397.783 372.247 400.705C371.253 400.735 370.922 400.886 370.138 400.223C369.265 399.5 369.204 398.596 369.144 397.541C369.325 397.09 369.536 396.607 369.867 396.246C371.494 394.498 373.844 393.052 375.712 391.486L391.771 378.138L426.751 348.762C433.621 342.977 440.942 337.464 447.39 331.257C447.209 329.239 449.408 325.834 450.282 324.056C453.687 317.127 457.031 310.408 461.309 303.99L457.603 303.478C464.563 303.358 472.548 303.237 479.266 305.135L572.878 228.607L574.927 226.799L579.687 222.882Z" fill="#4E6FD0"/>
<path d="M457.543 303.358C464.503 303.237 472.487 303.117 479.206 305.015L447.329 331.167C447.148 329.148 449.348 325.744 450.221 323.966C453.626 317.036 456.97 310.318 461.249 303.9L457.543 303.358Z" fill="#ABC7F5"/>
<path d="M485.473 306.852L518.494 279.585C519.519 280.309 520.423 281.845 521.146 282.87L528.045 293.746L528.407 294.771C527.051 294.198 525.996 293.144 524.701 292.481C520.453 290.342 514.999 289.438 510.51 291.276C508.883 291.938 506.925 293.234 506.232 294.921C505.78 296.006 505.659 296.699 506.171 297.784C507.075 299.772 509.064 301.188 511.083 301.821C515.662 303.297 522.2 301.218 526.238 299.019C527.382 298.386 528.497 297.482 529.733 297.03L534.854 306.551L539.223 315.951C535.397 312.065 530.486 307.365 524.641 307.304C521.718 307.274 518.253 308.268 516.204 310.408C515.21 311.432 514.728 312.456 514.638 313.903C515.391 316.373 516.837 317.88 519.097 319.085C523.677 321.555 529.16 320.621 533.89 319.145C535.698 318.573 537.687 317.518 539.525 317.247L539.976 316.343L540.489 316.855L545.972 336.048L546.304 337.855L547.81 345.99L548.804 357.861C548.684 360.362 549.106 362.712 548.714 365.183C548.955 372.353 547.358 379.343 545.942 386.303C545.611 385.851 545.43 385.369 545.219 384.857C543.803 383.32 542.718 381.392 541.543 379.675L533.107 366.478C532.052 364.761 530.275 362.712 529.913 360.723C529.19 360.121 528.738 358.946 528.286 358.132L524.821 351.956C516.928 339.03 508.552 323.936 496.801 314.114C494.963 312.607 492.945 311.101 490.866 309.956C489.118 308.961 487.1 308.178 485.593 306.883L485.473 306.852Z" fill="#EEF2FA"/>
<path d="M539.585 317.337L540.037 316.434L540.549 316.946L546.033 336.138L546.364 337.946L547.871 346.081L546.515 344.815L545.641 338.006L536 340.266C532.384 340.808 527.564 341.32 524.551 338.88C523.255 337.855 522.381 336.198 522.261 334.541C522.14 332.703 522.954 330.926 524.189 329.6C525.665 328.003 527.805 327.28 529.944 327.22C535.879 327.129 541.182 332.312 545.129 336.228L539.585 317.337Z" fill="#364DA1"/>
<path d="M546.484 344.815L547.84 346.081L548.834 357.952C548.714 360.452 549.136 362.803 548.744 365.273C548.985 372.444 547.388 379.434 545.972 386.394C545.641 385.942 545.46 385.46 545.249 384.948C543.833 383.411 542.748 381.483 541.573 379.765L533.137 366.569C532.083 364.851 530.305 362.803 529.943 360.814C529.22 360.211 528.768 359.036 528.316 358.223L524.852 352.046C525.484 350.902 526.027 349.275 527.021 348.401C528.678 347.015 530.817 346.834 532.866 347.135C539.525 348.16 544.496 356.084 548.111 361.085L546.484 344.815Z" fill="#3860CE"/>
<path d="M529.973 360.844C535.939 362.471 541.844 363.616 548.051 363.707L545.249 384.948C543.833 383.411 542.748 381.483 541.573 379.765L533.137 366.569C532.082 364.882 530.335 362.863 529.973 360.844Z" fill="#EEF2FA"/>
<path d="M441.242 343.399C445.49 338.82 451.125 334.722 455.975 330.775L485.472 306.853L485.623 307.003C487.159 308.299 489.148 309.112 490.895 310.076C492.974 311.251 494.993 312.728 496.831 314.234C508.611 324.056 516.957 339.151 524.851 352.077L528.316 358.253C528.768 359.066 529.25 360.272 529.943 360.844C530.304 362.833 532.082 364.851 533.136 366.599L541.573 379.795C542.748 381.513 543.832 383.411 545.248 384.978C545.459 385.49 545.64 385.972 545.971 386.424C547.388 388.081 548.472 390.16 549.647 391.998L557.18 402.603L563.085 410.798L564.983 413.661L567.755 417.577L406.774 417.668C407.859 416.463 408.853 413.118 409.546 411.612L417.229 394.619L441.242 343.399Z" fill="#ABC7F5"/>
<path d="M245.673 136.23C246.366 139.545 246.909 142.226 249.982 144.154C252.362 145.631 255.495 146.083 258.207 146.595C258.207 148.252 257.936 150.723 258.87 152.109C260.557 151.898 262.154 151.446 263.781 150.964C269.355 158.616 271.494 167.113 272.729 176.393C273.061 178.803 273.031 181.515 273.603 183.865C273.995 187.48 274.537 191.307 274.386 194.952L275.32 214.687V236.531C274.356 236.802 273.151 237.314 272.157 237.314L274.386 241.743L293.097 277.235L297.074 285.099C297.827 286.605 298.791 288.232 298.912 289.95C299.092 293.354 297.315 298.265 296.531 301.64L287.252 337.614C286.378 340.597 281.889 357.409 280.533 358.283H279.93L278.906 358.675C277.912 360.995 276.737 364.55 276.676 367.051L276.978 367.563L276.375 367.774C274.899 368.436 273.392 367.894 271.856 367.593L263.51 366.026C261.853 368.316 261.16 372.414 260.256 375.185L240.792 371.118L196.171 404.14C193.911 403.266 190.266 402.332 188.398 400.916C187.072 400.223 185.776 399.59 184.33 399.138C182.311 399.47 177.37 396.878 175.291 396.095L154.412 388.412C150.435 387.056 146.397 385.791 142.3 384.977C139.89 384.857 137.389 384.616 135.009 384.947C124.855 386.424 116.389 394.649 108.344 400.434L107.109 401.458L97.9497 408.84C96.624 409.955 92.5565 414.052 91.0501 414.293C90.5379 414.715 89.9654 415.077 89.5135 415.589C89.0917 416.252 88.7 416.794 88.1275 417.336L87.8262 417.396C85.7473 417.698 83.4274 417.607 81.3786 417.246C79.5708 417.939 77.3111 417.637 75.3829 417.607C74.2681 416.553 67.7602 418.12 65.8922 417.306C61.885 415.589 56.7329 412.696 53.6597 409.653C52.2436 406.911 50.7673 403.989 49.8031 401.036C49.5922 399.56 49.1102 397.722 49.8031 396.366L49.2608 395.613C48.7788 395.372 48.5377 394.98 48.2364 394.528C46.9409 394.016 46.037 392.721 44.5305 392.148L40.4631 391.335C37.0284 390.612 33.4731 390.702 29.948 390.672L30.1589 390.371L35.5219 390.31L34.7385 389.406C29.6768 383.411 26.0011 376.119 22.5964 369.099C8.67674 340.687 2.92206 310.679 5.72408 279.103C9.12868 240.447 28.7127 205.347 58.3297 180.551C78.6368 163.588 104.186 152.53 130.459 149.096C142.601 147.499 155.286 147.589 167.488 148.704C179.6 149.819 192.104 152.952 203.432 157.411C205.692 158.315 208.675 159.099 210.271 161.027C216.056 158.586 221.6 156.447 227.656 154.73C230.187 154.007 233.019 153.073 235.64 152.922L236.695 152.38C238.171 152.47 240.069 152.229 241.485 151.837C242.751 148.162 244.016 144.245 244.317 140.328L244.227 140.177C245.161 139.424 245.402 137.375 245.673 136.23Z" fill="#EEF2FA"/>
<path d="M172.459 290.251C174.749 290.04 174.026 292.903 175.111 294.048C175.563 294.53 177.581 294.56 178.365 295.253C178.847 295.675 178.757 295.885 178.787 296.488C177.792 297.392 176.888 297.753 175.623 298.175C174.719 298.477 174.147 301.429 173.183 302.363L172.851 302.333C171.345 301.821 171.616 299.772 170.953 298.597C170.411 297.663 168.633 297.934 167.91 297.362C167.639 297.151 167.307 296.548 167.096 296.247C167.096 295.946 167.006 295.644 167.127 295.373C167.639 294.289 169.688 294.65 170.501 294.198C171.284 293.807 171.736 291.155 172.459 290.251Z" fill="#F1764E"/>
<path d="M40.8555 253.132C41.6087 252.891 42.6331 252.861 43.4466 252.951C44.6518 253.042 45.6762 254.006 46.339 254.97C47.0923 256.054 47.3333 257.41 47.0019 258.676C46.5801 260.333 45.5557 261.116 44.1999 261.96C43.4466 262.141 42.5428 262.261 41.7895 262.201C40.6145 262.08 39.6202 261.357 38.8971 260.423C38.0535 259.308 37.7221 257.772 38.0535 256.416C38.4452 254.759 39.4997 253.945 40.8555 253.132Z" fill="#F79160"/>
<path d="M41.4576 254.578C42.8435 254.458 43.6269 254.247 44.7417 255.301C45.7058 256.205 45.6154 257.049 45.6757 258.254C45.1333 259.339 44.6513 259.851 43.657 260.514L43.2955 260.574C42.03 260.664 41.2768 260.574 40.3428 259.64C39.6498 258.917 39.5594 257.893 39.5293 256.959C39.8908 255.753 40.403 255.332 41.4576 254.578Z" fill="#EEF2FA"/>
<path d="M75.4434 328.455C77.1005 327.401 90.2368 327.973 93.0991 327.973L93.0087 345.147C92.9786 347.587 93.1895 350.389 92.7677 352.769L92.7375 335.023C86.2899 334.782 80.5352 332.372 75.4434 328.455Z" fill="#F79160"/>
<path d="M69.9297 322.941L93.0689 322.851L93.0991 328.003C90.2368 328.003 77.1004 327.431 75.4433 328.485C73.3042 326.949 71.5567 324.96 69.9297 322.941Z" fill="#F9D767"/>
<path d="M93.0988 327.973C98.9137 328.003 105.542 327.371 111.267 328.154C106.085 332.613 100.993 334.33 94.2738 335.023L94.6957 370.546L93.2495 374.402L92.8578 374.011L92.8276 352.77C93.2494 350.389 93.0084 347.587 93.0687 345.147L93.0988 327.973Z" fill="#F1764E"/>
<path d="M93.0391 315.47L93.3706 315.56C92.6173 317.458 92.9487 320.742 93.0994 322.821L69.9601 322.912C68.2428 320.622 66.9472 318.121 65.7119 315.56L93.0391 315.47Z" fill="#F79160"/>
<path d="M184.663 234.904C187.194 235.356 191.894 236.32 194.304 235.326C196.142 237.736 200.39 237.164 202.288 240.387C202.921 241.472 203.072 242.255 202.771 243.491C202.409 244.967 201.475 246.775 200.21 247.618C199.577 248.04 198.824 248.221 198.251 248.763C197.136 249.788 196.263 250.993 194.937 251.746C193.491 252.56 191.352 252.831 189.755 252.349C187.405 251.656 185.055 249.486 184 247.287C182.283 243.702 183.337 238.519 184.663 234.904Z" fill="#F6C2AC"/>
<path d="M196.473 241.352C197.046 241.171 197.528 241.171 198.1 241.141C198.853 241.593 198.974 241.683 199.396 242.436L198.914 243.551L198.582 243.581C197.377 243.551 197.015 242.979 196.262 242.195L196.473 241.352Z" fill="#FEFEFE"/>
<path d="M93.3716 315.56L120.277 315.771L116.3 322.851C114.733 324.84 113.197 326.497 111.268 328.154C105.544 327.371 98.9154 328.003 93.1004 327.973L93.0703 322.821C92.9197 320.742 92.5882 317.458 93.3716 315.56Z" fill="#F1764E"/>
<path d="M93.0698 322.821H116.299C114.733 324.809 113.196 326.466 111.268 328.124C105.543 327.34 98.9149 327.973 93.1 327.943L93.0698 322.821Z" fill="#F5AB41"/>
<path d="M93.4008 269.312C101.596 269.944 109.369 273.68 114.762 279.947C116.269 281.695 117.354 283.653 118.378 285.702C115.907 286.425 112.744 286.033 110.153 286.033L92.979 285.973L92.8886 285.521C92.286 282.056 92.7982 277.537 92.8284 273.982C92.8585 272.626 92.5572 270.456 93.4008 269.312Z" fill="#F1764E"/>
<path d="M66.7354 285.732C68.1816 282.96 69.8688 280.399 72.0682 278.17C77.853 272.294 85.1744 269.372 93.3696 269.312C92.526 270.456 92.8273 272.626 92.8273 274.012C92.7971 277.567 92.2849 282.056 92.8875 285.551L92.9779 286.003L92.8273 286.093L74.8702 286.063C72.3996 286.033 69.0854 286.455 66.7354 285.732Z" fill="#F79160"/>
<path d="M118.377 285.702L120.848 291.637L122.324 297.934L105.542 297.964C101.414 297.964 97.1361 298.175 93.0084 297.723L93.1289 291.637L92.8578 291.517C93.2494 289.799 93.0084 287.811 92.8276 286.093L92.9783 286.003L110.152 286.063C112.743 286.063 115.907 286.425 118.377 285.702Z" fill="#F1764E"/>
<path d="M118.377 285.702L120.848 291.637H93.1289L92.8578 291.517C93.2494 289.799 93.0084 287.811 92.8276 286.093L92.9783 286.003L110.152 286.063C112.743 286.063 115.907 286.425 118.377 285.702Z" fill="#F5AB41"/>
<path d="M66.7358 285.732C69.0859 286.455 72.4001 286.033 74.8707 286.033L92.8277 286.063C93.0085 287.811 93.2797 289.799 92.8579 291.487L93.129 291.607L93.0085 297.693L92.6168 297.814L63.0601 297.844L64.3255 291.456C65.0185 289.498 65.7717 287.63 66.7358 285.732Z" fill="#F79160"/>
<path d="M66.7362 285.732C69.0863 286.455 72.4005 286.033 74.8711 286.033L92.8281 286.063C93.0089 287.811 93.28 289.799 92.8582 291.487H64.356C65.0188 289.498 65.772 287.63 66.7362 285.732Z" fill="#F9D767"/>
<path d="M169.266 368.768L169.869 368.828C172.942 371.088 176.648 372.836 179.51 375.336C177.883 376.602 175.382 379.705 174.78 381.663C177.371 383.562 178.275 386.273 180.444 388.473C182.463 390.521 185.235 391.817 187.193 393.926C187.886 394.649 188.639 395.583 188.76 396.607C188.91 397.993 188.669 399.62 188.428 401.006C187.103 400.313 185.807 399.681 184.361 399.229L158.329 384.164C159.836 381.874 162.366 377.385 164.777 376.21C165.59 375.607 165.982 374.372 166.464 373.498L169.266 368.768Z" fill="#112160"/>
<path d="M169.266 368.768L169.868 368.828C172.941 371.088 176.647 372.836 179.51 375.336C177.883 376.602 175.382 379.705 174.779 381.663L173.875 381.724C170.35 381.694 167.126 378.47 164.776 376.18C165.59 375.577 165.982 374.342 166.464 373.468L169.266 368.768Z" fill="#F1764E"/>
<path d="M63.0608 297.904L92.6176 297.874L93.0093 297.753C97.137 298.205 101.415 297.964 105.543 297.994L122.325 297.964C122.446 299.893 122.687 301.851 122.536 303.779L121.843 310.317L120.276 315.771L93.3708 315.56L93.0394 315.469L65.7122 315.59L63.8743 310.106L62.9102 303.388L63.0608 297.904Z" fill="#F79160"/>
<path d="M63.8433 310.106L84.7529 310.016C87.2537 310.016 90.7788 309.594 93.0987 310.257L93.0385 315.469L65.7113 315.59L63.8433 310.106Z" fill="#F9D767"/>
<path d="M93.009 297.724C97.1367 298.176 101.415 297.935 105.543 297.965L122.325 297.935C122.445 299.863 122.686 301.821 122.536 303.749L122.295 303.629C120.306 302.695 116.058 303.267 113.768 303.298L93.0391 303.388C93.0693 301.731 93.4308 299.29 92.6475 297.874L93.009 297.724Z" fill="#F5AB41"/>
<path d="M63.0607 297.904L92.6174 297.874C93.4008 299.32 93.0392 301.761 93.0091 303.388H62.8799L63.0607 297.904Z" fill="#F9D767"/>
<path d="M93.1303 310.227L93.0098 303.81C94.004 303.207 119.765 303.599 122.295 303.599L122.536 303.719L121.843 310.257L120.277 315.771L93.3713 315.56L93.0399 315.47L93.1303 310.227Z" fill="#F1764E"/>
<path d="M121.844 310.257L120.277 315.771L93.3715 315.56L93.04 315.469L93.1304 310.257C96.0228 309.896 99.3069 310.197 102.229 310.197L121.844 310.257Z" fill="#F5AB41"/>
<path d="M105.784 195.254C107.652 195.103 110.153 194.922 111.96 195.405C116.992 196.76 119.372 200.135 121.722 204.473C123.108 204.443 124.554 204.473 125.91 204.714C128.622 205.197 131.062 207.095 132.569 209.354L133.593 210.891C135.31 210.65 137.48 210.379 139.167 210.861C142.903 211.885 144.44 213.964 146.278 217.218C147.061 217.067 147.904 216.917 148.718 216.977C150.737 217.067 152.906 217.73 154.292 219.297C154.985 220.08 155.256 220.593 155.166 221.617C153.448 222.009 151.49 221.828 149.742 221.828L139.92 221.768L107.622 221.707H69.2069L62.8497 221.677C62.4279 221.677 61.1022 221.828 60.7406 221.677C60.4695 221.557 60.3188 221.286 60.1079 221.105C60.3489 219.93 60.4695 219.749 61.2829 218.875C62.217 218.604 63.0003 218.363 63.9644 218.544C64.5068 218.664 64.8081 218.694 65.3504 218.544L65.7119 217.519C66.7062 215.199 69.0563 213.181 71.3461 212.217C74.2686 211.011 77.0405 212.066 79.7823 213.181L80.2644 211.644C81.1984 208.963 82.735 206.823 85.3863 205.648C88.7307 204.142 92.1955 205.257 95.4495 206.372C95.7508 205.076 96.0822 203.841 96.6547 202.636C98.6131 198.478 101.596 196.73 105.784 195.254Z" fill="#ABC7F5"/>
<path d="M25.4904 321.827L26.334 321.887C32.6913 323.695 38.8376 326.165 44.8635 328.847C46.5507 329.6 49.0515 330.444 50.4073 331.679C54.083 333.336 58.1505 335.596 61.2538 338.127L62.1878 338.91L73.9081 348.642C72.6125 350.449 72.2811 353.643 71.7086 355.843C70.9554 358.765 66.1046 378.048 65.2007 378.56L64.2968 377.626L63.3026 378.409C63.7244 379.042 64.2065 379.645 64.2667 380.398C61.8262 380.669 58.4819 379.765 56.0113 379.464L36.578 377.144L31.3053 362.26L31.2149 361.868C30.5822 360.814 30.3412 359.097 30.0399 357.891L27.6898 347.346L27.4488 346.261L25.3699 327.491C25.2795 325.743 24.7974 323.303 25.4904 321.827Z" fill="#87A7E7"/>
<path d="M25.4897 321.827L26.3334 321.887L45.0135 348.099C46.3994 344.213 47.2431 340.085 48.3578 336.138C48.6591 335.084 48.9604 333.125 49.5027 332.221C49.563 332.101 50.2258 331.799 50.3765 331.709V331.98C50.3765 333.909 49.5931 335.867 49.0809 337.705L46.761 346.563C46.5501 347.376 45.9475 348.913 46.0379 349.726C46.068 350.028 47.1527 351.414 47.3636 351.745C49.0809 354.306 51.0393 356.927 52.4554 359.669C52.9977 359.91 54.6548 363.013 55.1068 363.706L61.1929 338.217L62.1269 339L57.487 358.343C57.1556 359.699 55.9504 363.285 56.1613 364.52C56.2818 365.213 57.5472 366.9 57.9389 367.593L64.2058 377.686L63.2115 378.47L54.8657 365.725L31.1842 362.32L31.0938 361.929C31.2746 361.718 31.3649 361.447 31.606 361.326C33.1727 360.543 50.3765 364.52 53.5702 363.767L51.2201 360.302L44.3808 349.787L27.5988 347.376L27.3578 346.292C32.6605 346.472 38.2344 347.497 43.4769 348.491L32.9015 333.396C30.6418 330.112 28.4424 326.497 25.7609 323.574C25.4596 323.032 25.55 322.399 25.4897 321.827Z" fill="#3860CE"/>
<path d="M25.4904 321.827C25.5507 322.399 25.4603 323.032 25.8519 323.454C28.5334 326.376 30.7329 329.992 32.9926 333.276L43.5679 348.371C38.3556 347.346 32.7817 346.352 27.4488 346.171L25.3699 327.401C25.2795 325.743 24.7974 323.303 25.4904 321.827Z" fill="#7190DE"/>
<path d="M26.333 321.857C32.6903 323.665 38.8366 326.135 44.8625 328.817C46.5497 329.57 49.0504 330.414 50.4063 331.649C50.2556 331.739 49.6229 332.041 49.5325 332.161C48.9902 333.065 48.6889 335.023 48.3876 336.078C47.2728 340.055 46.3991 344.183 45.0433 348.039L26.333 321.857Z" fill="#7190DE"/>
<path d="M27.7188 347.256L44.5007 349.666L51.3401 360.181L53.6901 363.646C50.4964 364.399 33.3228 360.422 31.7259 361.206C31.4849 361.326 31.3644 361.597 31.2137 361.808C30.581 360.754 30.34 359.036 30.0387 357.831L27.7188 347.256Z" fill="#7190DE"/>
<path d="M31.2739 362.2L54.9555 365.604L63.3013 378.349C63.7231 378.982 64.2052 379.584 64.2654 380.338C61.825 380.609 58.4806 379.705 56.01 379.404L36.5767 377.084L31.2739 362.2Z" fill="#87A7E7"/>
<path d="M62.1866 338.91L73.9069 348.642C72.6113 350.45 72.2799 353.643 71.7074 355.843C70.9542 358.765 66.1034 378.048 65.1995 378.56L64.2956 377.626L58.0288 367.533C57.6069 366.84 56.3717 365.153 56.2511 364.46C56.0402 363.224 57.2755 359.639 57.5768 358.283L62.1866 338.91Z" fill="#87A7E7"/>
<path d="M73.9073 348.642L74.54 349.365C79.1196 354.276 84.332 359.518 87.375 365.544C89.5745 368.075 90.87 371.299 92.8585 374.01L93.2502 374.402L92.3765 377.566L91.804 379.645L89.0321 397.361L89.6046 399.711L89.3334 400.404C89.5745 405.074 89.936 409.774 91.0508 414.323C90.5386 414.745 89.9661 415.107 89.5142 415.619C89.0924 416.282 88.7007 416.824 88.1283 417.366L87.827 417.427C85.7481 417.728 83.4281 417.638 81.3793 417.276C79.5716 417.969 77.3119 417.668 75.3836 417.638C74.2688 416.583 67.7609 418.15 65.8929 417.336C61.8857 415.619 56.7336 412.727 53.6604 409.683C52.2443 406.942 50.768 404.019 49.8039 401.066C49.593 399.59 49.1109 397.752 49.8039 396.396L49.2616 395.643C48.7795 395.402 48.5384 395.01 48.2372 394.559C46.9416 394.046 46.0377 392.751 44.5313 392.178C44.6217 391.094 38.1137 380.639 37.2701 378.259L36.5771 377.084L56.0105 379.404C58.4811 379.705 61.8254 380.639 64.2659 380.338C64.1755 379.584 63.6934 378.982 63.3018 378.349L64.296 377.566L65.1999 378.5C66.1038 377.988 70.9546 358.705 71.7078 355.782C72.2803 353.643 72.6117 350.449 73.9073 348.642Z" fill="#87A7E7"/>
<path d="M73.9075 348.642L74.5402 349.365L68.0323 374.131C67.5502 375.878 66.3752 378.53 66.3149 380.187C66.2848 380.548 67.7611 382.597 68.0624 383.14L71.0753 388.231L70.3522 389.738C70.1714 389.647 69.6291 388.714 69.4785 388.472L65.3206 381.874L37.2101 378.259L36.5171 377.084L55.9504 379.404C58.421 379.705 61.7654 380.639 64.2059 380.338C64.1155 379.584 63.6334 378.982 63.2417 378.349L64.236 377.566L65.1399 378.5C66.0437 377.988 70.8945 358.705 71.6478 355.782C72.2805 353.643 72.6119 350.449 73.9075 348.642Z" fill="#4E6FD0"/>
<path d="M37.2402 378.289L65.3508 381.905L69.5086 388.503C69.6593 388.714 70.2016 389.678 70.3824 389.768L74.9319 396.819L57.4871 395.252C54.444 394.981 51.2503 394.529 48.2073 394.589C46.9117 394.077 46.0078 392.781 44.5014 392.209C44.6219 391.124 38.114 380.639 37.2402 378.289Z" fill="#87A7E7"/>
<path d="M71.1054 388.232L75.7453 395.011C76.9806 392.962 77.6434 390.13 78.3967 387.84C80.807 380.699 82.7052 372.775 85.8687 365.966L86.863 365.604C85.8386 370.244 76.4684 395.161 76.6492 396.758C76.7396 397.511 78.0653 398.506 78.1556 399.289L85.4168 410.889L89.0323 397.331L89.6047 399.681L89.3336 400.374C89.5746 405.044 89.9362 409.744 91.0509 414.293C90.5387 414.715 89.9663 415.077 89.5144 415.589C89.0925 416.252 88.7009 416.794 88.1284 417.336L87.8271 417.397C85.7482 417.698 83.4282 417.608 81.3795 417.246C79.5717 417.939 77.312 417.638 75.3837 417.608C74.269 416.553 67.761 418.12 65.893 417.306C61.8858 415.589 56.7337 412.696 53.6606 409.653C52.2445 406.912 50.7682 403.989 49.804 401.036C49.5931 399.56 49.1111 397.722 49.804 396.366L49.2617 395.613C48.7796 395.372 48.5386 394.98 48.2373 394.529C51.2804 394.468 54.4741 394.92 57.5171 395.191L74.9619 396.758L70.4124 389.708L71.1054 388.232Z" fill="#3860CE"/>
<path d="M89.5437 415.589L88.6097 416.041L88.1276 415.499C87.6455 414.866 86.3198 412.817 86.1391 412.034C86.0186 411.522 86.6814 409.804 86.832 409.232C87.525 406.611 88.3385 403.869 88.7302 401.187C88.7904 400.765 89.0616 400.615 89.3629 400.313C89.6039 404.984 89.9655 409.684 91.0803 414.233C90.5379 414.715 89.9655 415.077 89.5437 415.589Z" fill="#87A7E7"/>
<path d="M69.9897 410.979L84.9338 412.787L87.8263 417.397C85.7473 417.698 83.4274 417.607 81.3786 417.246L69.9897 410.979Z" fill="#87A7E7"/>
<path d="M49.2607 395.644L75.5033 398.144L77.0098 400.073C79.3598 403.718 82.6439 407.846 84.3312 411.763L68.9954 410.166C67.2178 409.744 65.169 408.358 63.6022 407.334C58.6008 404.14 54.1115 400.434 49.7729 396.367L49.2607 395.644Z" fill="#87A7E7"/>
<path d="M150.135 311.522L151.37 310.799L151.611 311.824C152.123 315.078 152.304 332.522 151.219 334.601C151.34 338.458 150.677 342.194 150.376 346.051L150.044 347.708L148.538 358.855L148.206 360.513L146.037 371.781L145.615 373.197L142.271 385.008C139.861 384.887 137.36 384.646 134.98 384.978C124.826 386.454 116.36 394.679 108.315 400.464L107.08 401.488L97.9207 408.87C96.595 409.985 92.5276 414.082 91.0211 414.323C89.9063 409.774 89.5448 405.074 89.3037 400.404L89.5749 399.711L89.0024 397.361L91.7743 379.645L92.3468 377.566L93.2205 374.402L94.6667 370.546L98.463 361.447L99.0656 359.85L107.321 346.502L107.833 345.749C110.876 341.682 114.823 337.795 118.559 334.391L119.945 333.185L131.394 323.966C136.908 319.326 143.868 315.017 150.135 311.522Z" fill="#243271"/>
<path d="M151.641 311.824C152.154 315.078 152.334 332.523 151.25 334.601C151.22 334.029 151.159 333.758 150.858 333.246L136.607 337.524L148.267 317.036C149.231 315.5 150.195 312.999 151.641 311.824Z" fill="#364DA1"/>
<path d="M134.225 341.953C134.557 341.381 135.22 339.995 135.762 339.633C136.545 339.121 138.353 338.82 139.347 338.488L151.248 334.602C151.369 338.458 150.706 342.194 150.405 346.051C144.921 347.376 139.468 349.666 134.135 351.474C132.629 351.986 130.309 353.131 128.772 353.101L134.225 341.953Z" fill="#364DA1"/>
<path d="M150.044 347.708L148.537 358.856L121.632 368.497L127.658 355.572C130.339 354.156 133.623 353.312 136.516 352.318C141.005 350.721 145.464 348.973 150.044 347.708Z" fill="#364DA1"/>
<path d="M108.345 400.434L109.52 397.24C110.063 395.764 113.196 386.996 114.1 386.213C114.672 385.731 115.878 385.46 116.601 385.188L122.566 382.838L145.675 373.137L142.331 384.947C139.921 384.827 137.42 384.586 135.04 384.917C124.856 386.454 116.36 394.679 108.345 400.434Z" fill="#364DA1"/>
<path d="M118.559 334.36L126.091 350.721L127.055 353.312L120.336 367.623C119.282 366.87 118.227 364.188 117.595 362.983L110.635 350.359C109.821 348.853 109.309 347.075 108.044 345.87L107.863 345.719C110.906 341.682 114.853 337.795 118.559 334.36Z" fill="#364DA1"/>
<path d="M89.0625 397.331L91.8344 379.615L103.615 397.09C104.549 398.385 105.754 400.735 107.14 401.458L97.9808 408.84C96.6551 409.955 92.5876 414.052 91.0812 414.293C89.9664 409.744 89.6048 405.044 89.3638 400.374L89.635 399.681L89.0625 397.331Z" fill="#364DA1"/>
<path d="M146.067 371.751C142.873 372.233 139.288 374.373 136.275 375.638L114.492 384.526L120.759 370.426L148.206 360.483L146.067 371.751Z" fill="#364DA1"/>
<path d="M150.135 311.522L135.733 335.957L133.323 328.244C133.022 327.28 132.78 325.653 132.298 324.809C132.208 324.659 131.545 324.297 131.364 324.177C131.033 328.184 133.022 331.86 134.046 335.626C134.197 336.138 134.709 337.434 134.649 337.946C134.588 338.669 133.715 340.055 133.413 340.778L129.798 347.949C129.316 348.943 128.834 350.389 127.869 350.932L127.237 350.028L119.976 333.155L131.425 323.936C136.908 319.326 143.868 315.017 150.135 311.522Z" fill="#364DA1"/>
<path d="M94.6969 370.546L98.4932 361.447L102.169 368.407L112.594 385.851L107.201 399.5L92.377 377.566L93.2507 374.402L94.6969 370.546Z" fill="#364DA1"/>
<path d="M107.35 346.472L119.552 369.461L113.074 384.073L106.114 372.323C105.301 370.907 104.457 368.738 103.312 367.623C102.921 367.984 102.71 368.286 102.167 368.376L98.4917 361.416L99.0943 359.819L107.35 346.472Z" fill="#364DA1"/>
<path d="M99.0645 359.82C100.812 362.08 102.138 365.032 103.283 367.623C102.891 367.985 102.68 368.286 102.138 368.376L98.4619 361.417L99.0645 359.82Z" fill="#112160"/>
<path d="M245.674 136.23C246.367 139.545 246.909 142.226 249.982 144.154C252.362 145.631 255.496 146.083 258.207 146.595C258.207 148.252 257.936 150.723 258.87 152.109C260.558 151.898 262.154 151.446 263.781 150.964C269.355 158.616 271.494 167.113 272.73 176.393C273.061 178.803 273.031 181.515 273.604 183.865C273.995 187.48 274.537 191.307 274.387 194.952L275.321 214.687V236.531C274.357 236.802 273.152 237.314 272.157 237.314L257.123 240.96C241.124 244.575 225.156 242.496 210.151 236.32L205.963 234.211L211.748 192.602C206.958 194.048 202.318 194.862 197.316 195.223L195.84 224.81C195.509 228.185 195.388 232.132 194.273 235.356C191.863 236.35 187.163 235.386 184.632 234.934L183.577 234.03C181.167 224.509 175.925 192.361 179.269 183.774C180.474 180.641 182.854 178.351 185.325 176.182C191.019 171.18 197.889 166.842 204.818 163.799C206.355 162.684 208.494 161.901 210.242 161.057C216.027 158.616 221.57 156.477 227.626 154.76C230.157 154.037 232.989 153.103 235.611 152.952L236.665 152.41C238.141 152.5 240.04 152.259 241.456 151.868C242.721 148.192 243.986 144.275 244.288 140.358L244.197 140.208C245.161 139.424 245.403 137.375 245.674 136.23Z" fill="url(#paint5_linear_200_9525)"/>
<path d="M258.78 156.206C258.66 154.85 258.57 153.675 258.931 152.35C260.739 156.477 260.287 161.84 259.383 166.119L259.323 166.45L258.389 168.348C257.425 170.005 255.768 171.15 253.9 171.632C251.489 172.235 248.898 171.964 246.759 170.638C240.763 166.962 237.328 159.49 235.671 152.892L236.726 152.35C239.407 158.888 241.456 166.902 248.687 169.885C250.224 170.518 252.242 170.879 253.839 170.186C256.129 169.192 257.214 167.384 258.178 165.215C259.022 162.322 258.901 159.219 258.78 156.206Z" fill="#F5AB41"/>
<path d="M245.673 136.23C246.366 139.545 246.909 142.226 249.982 144.154C252.362 145.631 255.495 146.083 258.207 146.595C258.207 148.252 257.936 150.723 258.87 152.109L258.9 152.38C258.539 153.705 258.659 154.88 258.749 156.236C258.87 159.249 258.99 162.353 258.147 165.275C257.183 167.444 256.098 169.252 253.808 170.246C252.211 170.939 250.193 170.578 248.656 169.945C241.425 166.962 239.376 158.948 236.695 152.41C238.171 152.5 240.069 152.259 241.485 151.868C242.751 148.192 244.016 144.275 244.318 140.358L244.227 140.208C245.161 139.424 245.402 137.375 245.673 136.23Z" fill="#F6C2AC"/>
<path d="M245.674 136.23C246.367 139.545 246.909 142.226 249.982 144.154C252.362 145.631 255.496 146.083 258.208 146.595C258.208 148.252 257.936 150.723 258.87 152.109L258.9 152.38C258.539 153.705 258.659 154.88 258.75 156.236C253.568 154.007 248.476 149.337 246.096 144.215C245.433 142.769 245.553 141.593 244.318 140.358L244.228 140.208C245.162 139.424 245.403 137.375 245.674 136.23Z" fill="#F79160"/>
<path d="M210.152 236.32C225.156 242.526 241.124 244.575 257.123 240.96L272.158 237.314L274.387 241.743L293.097 277.235L297.074 285.099C297.828 286.606 298.792 288.232 298.912 289.95C299.093 293.354 297.315 298.266 296.532 301.64L287.252 337.614C286.379 340.597 281.889 357.409 280.533 358.283H279.931L278.906 358.675C277.912 360.995 276.737 364.55 276.677 367.051L276.978 367.563L276.376 367.774C274.899 368.436 273.393 367.894 271.856 367.593L263.51 366.026C261.853 368.316 261.16 372.414 260.256 375.185L240.793 371.118L196.172 404.14C193.912 403.266 190.266 402.332 188.398 400.916C188.669 399.56 188.88 397.903 188.73 396.517C188.609 395.493 187.856 394.559 187.163 393.835C185.205 391.726 182.463 390.431 180.414 388.382C178.245 386.213 177.341 383.471 174.75 381.573C175.352 379.645 177.883 376.511 179.48 375.246C176.618 372.745 172.912 370.997 169.839 368.738L169.236 368.678L168.151 367.774C167.338 366.659 171.586 357.831 172.249 356.294L190.748 312.547C192.857 307.304 195.509 302.032 197.196 296.669C198.642 292.029 199.456 286.997 200.601 282.267L210.152 236.32Z" fill="#243271"/>
<path d="M257.123 240.96L272.157 237.314L274.387 241.743C272.217 242.828 269.807 243.19 267.487 243.822C263.691 244.817 259.925 245.962 256.038 246.685L255.315 246.413L257.123 240.96Z" fill="#112160"/>
<path d="M265.921 355.542L279.961 358.283L278.937 358.675C277.942 360.995 276.767 364.55 276.707 367.051L277.008 367.563L276.406 367.774C274.929 368.437 273.423 367.894 271.886 367.593L263.541 366.026L264.324 365.635C264.836 363.345 266.855 357.711 265.921 355.542Z" fill="#EC6455"/>
<path d="M252.875 251.776C253.658 253.283 253.748 254.97 254.11 256.627C254.471 258.375 255.074 260.122 255.616 261.84C257.966 269.221 261.1 276.512 264.745 283.382C265.981 285.702 267.096 288.172 268.451 290.432C269.024 291.366 270.229 292.692 270.169 293.777L267.819 294.56C265.077 293.535 262.667 291.637 260.316 289.92C254.05 285.28 248.446 279.977 242.781 274.614L252.875 251.776Z" fill="#112160"/>
<path d="M169.869 368.798C175.503 358.795 180.203 348.039 185.295 337.735C192.105 323.996 199.908 309.895 204.97 295.403L212.592 271.33C214.551 263.948 216.057 256.175 218.678 249.004C220.727 249.305 222.806 249.818 224.885 249.968C232.719 250.511 241.486 249.486 249.019 247.437C249.621 247.287 250.284 247.407 250.857 247.257C251.58 247.046 252.001 246.925 252.755 246.895C253.387 246.865 254.201 246.473 254.984 246.413L252.815 251.806L242.782 274.554L227.627 304.382C216.389 324.629 203.373 344.062 190.176 363.073L183.638 372.233C182.795 373.378 181.861 375.065 180.655 375.788L179.541 375.306C176.648 372.835 172.942 371.088 169.869 368.798Z" fill="#364DA1"/>
<path d="M242.782 274.554C248.446 279.917 254.02 285.22 260.317 289.86C262.667 291.577 265.078 293.475 267.819 294.5C268.06 310.107 266.554 325.985 265.921 341.592L265.62 351.625C265.59 352.981 265.288 354.336 265.951 355.542C266.885 357.711 264.867 363.345 264.324 365.665L263.541 366.057C261.884 368.346 261.191 372.444 260.287 375.216L240.824 371.149L196.202 404.17C193.942 403.296 190.297 402.362 188.429 400.946C188.7 399.591 188.911 397.933 188.76 396.547C188.64 395.523 187.886 394.589 187.194 393.866C185.235 391.757 182.493 390.461 180.445 388.413C178.275 386.243 177.371 383.501 174.78 381.603C175.383 379.675 177.914 376.542 179.511 375.276L180.625 375.758C181.831 375.035 182.765 373.348 183.608 372.203L190.146 363.044C203.343 344.032 216.359 324.599 227.597 304.352L242.782 274.554Z" fill="#EEF2FA"/>
<defs>
<linearGradient id="paint0_linear_200_9525" x1="265.405" y1="174.553" x2="327.078" y2="108.95" gradientUnits="userSpaceOnUse">
<stop stop-color="#D47131"/>
<stop offset="1" stop-color="#EB993E"/>
</linearGradient>
<linearGradient id="paint1_linear_200_9525" x1="159.508" y1="88.2075" x2="85.3018" y2="42.8197" gradientUnits="userSpaceOnUse">
<stop stop-color="#EC6854"/>
<stop offset="1" stop-color="#F4B892"/>
</linearGradient>
<linearGradient id="paint2_linear_200_9525" x1="148.053" y1="73.0599" x2="102.838" y2="47.8571" gradientUnits="userSpaceOnUse">
<stop stop-color="#EF715B"/>
<stop offset="1" stop-color="#F4B791"/>
</linearGradient>
<linearGradient id="paint3_linear_200_9525" x1="407.682" y1="240.546" x2="388.381" y2="168.136" gradientUnits="userSpaceOnUse">
<stop stop-color="#5556B2"/>
<stop offset="1" stop-color="#6A73C8"/>
</linearGradient>
<linearGradient id="paint4_linear_200_9525" x1="389.966" y1="223.49" x2="366.681" y2="173.682" gradientUnits="userSpaceOnUse">
<stop stop-color="#373189"/>
<stop offset="1" stop-color="#4D5FB9"/>
</linearGradient>
<linearGradient id="paint5_linear_200_9525" x1="225.747" y1="241.972" x2="229.076" y2="149.805" gradientUnits="userSpaceOnUse">
<stop stop-color="#DC6D1D"/>
<stop offset="1" stop-color="#FFFA70"/>
</linearGradient>
</defs>
</svg>
