<svg width="30" height="31" viewBox="0 0 30 31" fill="none" xmlns="http://www.w3.org/2000/svg">
<path d="M18.1017 6.67259C19.3929 6.92451 20.5795 7.556 21.5098 8.48623C22.44 9.41646 23.0715 10.6031 23.3234 11.8943M18.1017 1.38477C20.7843 1.68278 23.2858 2.8841 25.1956 4.79146C27.1054 6.69882 28.3098 9.19886 28.6112 11.8811M27.2893 22.4303V26.3962C27.2908 26.7644 27.2154 27.1288 27.0679 27.4661C26.9204 27.8034 26.704 28.1063 26.4327 28.3551C26.1615 28.604 25.8412 28.7935 25.4924 28.9115C25.1436 29.0294 24.7741 29.0732 24.4074 29.0401C20.3395 28.5981 16.432 27.2081 12.9989 24.9817C9.80485 22.952 7.09683 20.244 5.06718 17.05C2.83305 13.6012 1.4427 9.67475 1.00878 5.58859C0.975742 5.22302 1.01919 4.85458 1.13635 4.50673C1.25351 4.15888 1.44181 3.83923 1.68928 3.56814C1.93674 3.29705 2.23794 3.08045 2.5737 2.93214C2.90946 2.78384 3.27242 2.70707 3.63947 2.70672H7.60534C8.24689 2.70041 8.86886 2.92759 9.3553 3.34593C9.84174 3.76427 10.1595 4.34522 10.2493 4.98049C10.4166 6.24965 10.7271 7.49581 11.1746 8.69519C11.3525 9.16835 11.391 9.68257 11.2855 10.1769C11.1801 10.6713 10.9352 11.1251 10.5797 11.4845L8.90086 13.1634C10.7827 16.473 13.523 19.2133 16.8326 21.0951L18.5115 19.4163C18.8709 19.0608 19.3247 18.8159 19.8191 18.7105C20.3134 18.605 20.8276 18.6435 21.3008 18.8214C22.5002 19.2689 23.7463 19.5794 25.0155 19.7467C25.6577 19.8373 26.2441 20.1608 26.6634 20.6556C27.0826 21.1504 27.3054 21.782 27.2893 22.4303Z" stroke="white" stroke-width="2" stroke-linecap="round" stroke-linejoin="round"/>
</svg>
