<svg width="25" height="34" viewBox="0 0 25 34" fill="none" xmlns="http://www.w3.org/2000/svg">
<path d="M23.8312 13.8043C23.8312 23.7633 12.867 32.2995 12.867 32.2995C12.867 32.2995 1.90283 23.7633 1.90283 13.8043C1.90283 10.4084 3.05798 7.15159 5.11416 4.75031C7.17034 2.34903 9.95912 1 12.867 1C15.7749 1 18.5637 2.34903 20.6198 4.75031C22.676 7.15159 23.8312 10.4084 23.8312 13.8043Z" stroke="white" stroke-width="2" stroke-linecap="round" stroke-linejoin="round"/>
<path d="M12.8676 18.0724C14.8861 18.0724 16.5223 16.1615 16.5223 13.8042C16.5223 11.447 14.8861 9.53613 12.8676 9.53613C10.8492 9.53613 9.21289 11.447 9.21289 13.8042C9.21289 16.1615 10.8492 18.0724 12.8676 18.0724Z" stroke="white" stroke-width="2" stroke-linecap="round" stroke-linejoin="round"/>
</svg>
