<svg width="62" height="103" viewBox="0 0 62 103" fill="none" xmlns="http://www.w3.org/2000/svg">
<path d="M2.93164 0.551758V69.9746" stroke="white" stroke-width="0.102021" stroke-miterlimit="10"/>
<path d="M6.68555 2.73193V72.1602" stroke="white" stroke-width="0.102021" stroke-miterlimit="10"/>
<path d="M10.4443 4.91748V74.3457" stroke="white" stroke-width="0.102021" stroke-miterlimit="10"/>
<path d="M14.1973 7.10254V76.5308" stroke="white" stroke-width="0.102021" stroke-miterlimit="10"/>
<path d="M17.9561 9.28809V78.7163" stroke="white" stroke-width="0.102021" stroke-miterlimit="10"/>
<path d="M21.71 11.4736V80.8965" stroke="white" stroke-width="0.102021" stroke-miterlimit="10"/>
<path d="M25.4678 13.6538V83.0821" stroke="white" stroke-width="0.102021" stroke-miterlimit="10"/>
<path d="M29.2266 15.8389V85.2671" stroke="white" stroke-width="0.102021" stroke-miterlimit="10"/>
<path d="M32.9805 18.0244V87.4527" stroke="white" stroke-width="0.102021" stroke-miterlimit="10"/>
<path d="M36.7393 20.21V89.6382" stroke="white" stroke-width="0.102021" stroke-miterlimit="10"/>
<path d="M40.4922 22.3896V91.8179" stroke="white" stroke-width="0.102021" stroke-miterlimit="10"/>
<path d="M44.251 24.5752V94.0034" stroke="white" stroke-width="0.102021" stroke-miterlimit="10"/>
<path d="M48.0039 26.7607V96.189" stroke="white" stroke-width="0.102021" stroke-miterlimit="10"/>
<path d="M51.7627 28.9463V98.3745" stroke="white" stroke-width="0.102021" stroke-miterlimit="10"/>
<path d="M55.5166 31.1313V100.554" stroke="white" stroke-width="0.102021" stroke-miterlimit="10"/>
<path d="M59.2754 33.3115V102.74" stroke="white" stroke-width="0.102021" stroke-miterlimit="10"/>
<path d="M61.0955 36.4797L1.1123 1.59912" stroke="white" stroke-width="0.102021" stroke-miterlimit="10"/>
<path d="M61.0955 40.8234L1.1123 5.94287" stroke="white" stroke-width="0.102021" stroke-miterlimit="10"/>
<path d="M61.0955 45.1726L1.1123 10.292" stroke="white" stroke-width="0.102021" stroke-miterlimit="10"/>
<path d="M61.0955 49.5222L1.1123 14.6416" stroke="white" stroke-width="0.102021" stroke-miterlimit="10"/>
<path d="M61.0955 53.8664L1.1123 18.9912" stroke="white" stroke-width="0.102021" stroke-miterlimit="10"/>
<path d="M61.0955 58.2155L1.1123 23.335" stroke="white" stroke-width="0.102021" stroke-miterlimit="10"/>
<path d="M61.0955 62.5652L1.1123 27.6846" stroke="white" stroke-width="0.102021" stroke-miterlimit="10"/>
<path d="M61.0955 66.9143L1.1123 32.0337" stroke="white" stroke-width="0.102021" stroke-miterlimit="10"/>
<path d="M61.0955 71.258L1.1123 36.3774" stroke="white" stroke-width="0.102021" stroke-miterlimit="10"/>
<path d="M61.0955 75.6076L1.1123 40.7271" stroke="white" stroke-width="0.102021" stroke-miterlimit="10"/>
<path d="M61.0955 79.9568L1.1123 45.0762" stroke="white" stroke-width="0.102021" stroke-miterlimit="10"/>
<path d="M61.0955 84.3005L1.1123 49.4199" stroke="white" stroke-width="0.102021" stroke-miterlimit="10"/>
<path d="M61.0955 88.6501L1.1123 53.7695" stroke="white" stroke-width="0.102021" stroke-miterlimit="10"/>
<path d="M61.0955 92.9992L1.1123 58.1187" stroke="white" stroke-width="0.102021" stroke-miterlimit="10"/>
<path d="M61.0955 97.3435L1.1123 62.4629" stroke="white" stroke-width="0.102021" stroke-miterlimit="10"/>
<path d="M61.0955 101.693L1.1123 66.8125" stroke="white" stroke-width="0.102021" stroke-miterlimit="10"/>
<path d="M2.40527 52.7976L13.4612 34.8149L19.62 56.3576L27.5992 46.8642L38.886 75.3711L49.6734 37.5319L57.6955 78.4962" stroke="#00FFFF" stroke-width="0.698041" stroke-miterlimit="10"/>
<path d="M15.8674 34.2138C15.8703 34.1799 15.8703 34.1458 15.8674 34.1118V34.0098C15.8674 33.9776 15.8674 33.94 15.8674 33.9078V33.8058V33.7091C15.8674 33.6715 15.8674 33.6393 15.8406 33.6017C15.8137 33.5641 15.8406 33.5749 15.8406 33.5641C15.8381 33.5481 15.8381 33.5318 15.8406 33.5158L15.8084 33.403C15.8084 33.3762 15.8084 33.3493 15.8084 33.3225V33.2581L15.7762 33.1507C15.7762 33.1131 15.7493 33.0809 15.7386 33.0433V33.0057V32.9413C15.7386 32.909 15.7117 32.8768 15.6956 32.8392C15.689 32.8151 15.68 32.7917 15.6688 32.7694L15.6204 32.6674C15.6058 32.6301 15.5878 32.5941 15.5667 32.56C15.5546 32.5286 15.5403 32.4981 15.5238 32.4687L15.4647 32.3667L15.4325 32.3077L15.3734 32.2164L15.2929 32.0875C15.2553 32.0231 15.207 31.9586 15.164 31.8996C15.1318 31.8566 15.0996 31.819 15.0727 31.7761L14.9922 31.6794L14.9117 31.5828L14.8311 31.4969L14.772 31.4378L14.6861 31.3519H14.6539C14.6383 31.3389 14.6239 31.3246 14.611 31.3089L14.5143 31.2284L14.4767 31.1962L14.4445 31.1693L14.3532 31.0995L14.2888 31.0512L14.2029 30.9921L14.117 30.9384L14.0472 30.9008L13.9666 30.8579L13.9075 30.831H13.8807L13.7948 30.7934L13.7142 30.7612H13.3599H13.3008H13.2149H13.1773H13.129H13.0377H12.7424H12.6242L12.5061 30.7988L12.345 30.874L11.6523 31.2767C11.7016 31.248 11.7538 31.2246 11.808 31.2069L11.9369 31.1693H11.9638H12.1195H12.2859C12.3439 31.1734 12.4014 31.1824 12.4578 31.1962L12.6403 31.2499L12.839 31.325L13.0431 31.4324L13.2525 31.5667L13.4404 31.7063L13.6176 31.862C13.6767 31.9157 13.7303 31.9747 13.7894 32.0338C13.8538 32.0982 13.9129 32.168 13.9666 32.2325C14.0811 32.367 14.187 32.5087 14.2834 32.6567L14.3693 32.7909C14.3906 32.8297 14.4139 32.8673 14.4391 32.9037C14.4391 32.9037 14.4391 32.9413 14.466 32.9574C14.4928 32.9735 14.5412 33.0862 14.5734 33.1507L14.6861 33.3923L14.7828 33.6339C14.8152 33.7143 14.8422 33.7969 14.8633 33.8809C14.8904 33.958 14.912 34.037 14.9278 34.1172C14.949 34.1984 14.9652 34.2809 14.9761 34.3642C14.9761 34.4447 14.9761 34.5253 15.0083 34.6058C15.0083 34.6864 15.0083 34.7669 15.0083 34.8421C15.0083 34.9173 15.0083 34.9978 15.0083 35.073C15.0083 35.1374 15.0083 35.2018 14.9815 35.2663C14.9703 35.3243 14.956 35.3817 14.9385 35.4381V35.4703C14.9221 35.5217 14.9023 35.5719 14.8794 35.6207C14.854 35.6726 14.8253 35.7228 14.7935 35.771L14.713 35.8784L14.6808 35.916L14.6056 35.9912C14.5911 35.9969 14.5782 36.0062 14.568 36.018L14.4499 36.1039L15.1479 35.6958L15.266 35.6153L15.2983 35.5831L15.3788 35.5079L15.5077 35.4059L15.5882 35.2985C15.6165 35.2519 15.6416 35.2035 15.6634 35.1535C15.679 35.1226 15.6916 35.0902 15.701 35.0569C15.703 35.0408 15.703 35.0246 15.701 35.0085C15.6986 34.9979 15.6986 34.9869 15.701 34.9763C15.7131 34.9414 15.7221 34.9054 15.7278 34.8689C15.7278 34.8689 15.7278 34.8689 15.7278 34.8313C15.7278 34.8313 15.7278 34.8313 15.7278 34.7938V34.6971C15.7278 34.6971 15.7278 34.6595 15.7278 34.638V34.5951C15.7278 34.5629 15.7278 34.5306 15.7278 34.4984V34.332L15.8674 34.2138Z" fill="url(#paint0_linear_234_14930)"/>
<path d="M13.1019 31.11C13.7049 31.503 14.2068 32.0326 14.5669 32.6558C14.9271 33.2789 15.1352 33.9782 15.1746 34.6969C15.1746 36.0178 14.2349 36.5494 13.0858 35.8889C12.4835 35.4957 11.9824 34.966 11.6232 34.3427C11.264 33.7195 11.0569 33.0204 11.0186 32.3021C11.0186 30.9919 11.9528 30.4603 13.1019 31.11Z" fill="url(#paint1_linear_234_14930)"/>
<path d="M4.82739 53.4097V53.3131C4.82479 53.2971 4.82479 53.2807 4.82739 53.2647C4.82488 53.2541 4.82488 53.2431 4.82739 53.2325C4.82739 53.1949 4.82739 53.1627 4.82739 53.1305V53.0231V52.9265C4.82739 52.8889 4.82739 52.8513 4.82739 52.8191C4.82739 52.7868 4.82739 52.8191 4.82739 52.7761C4.82739 52.7761 4.82739 52.7439 4.82739 52.7278C4.82739 52.7117 4.8274 52.658 4.80055 52.6204L4.77371 52.5398V52.5076C4.77371 52.4754 4.74686 52.4378 4.73612 52.4002C4.72597 52.3654 4.7134 52.3313 4.69853 52.2982V52.2606V52.1962C4.69853 52.1586 4.67168 52.1264 4.66094 52.0942L4.62872 52.019L4.5804 51.9223C4.5647 51.8837 4.54677 51.8461 4.5267 51.8096L4.47838 51.7237C4.46075 51.6868 4.44104 51.6509 4.41932 51.6163V51.5626L4.36562 51.4713L4.27971 51.3371C4.23675 51.278 4.19379 51.2136 4.14547 51.1545L4.05419 51.0364L3.97901 50.9397L3.89847 50.8484L3.81793 50.7571C3.79961 50.7361 3.77987 50.7164 3.75886 50.6981L3.67294 50.6122L3.6461 50.5853L3.60314 50.5477L3.51186 50.4672L3.4689 50.435H3.43668C3.40862 50.4088 3.37805 50.3854 3.34541 50.3652L3.28098 50.3169L3.18969 50.2578L3.10377 50.2041L3.03934 50.1665L2.95343 50.1235H2.89973L2.81919 50.0913L2.73327 50.0591H2.70643H2.65273H2.56682H2.08356H1.99227H1.69158C1.65238 50.0539 1.61265 50.0539 1.57345 50.0591L1.45532 50.0913C1.40094 50.1109 1.34877 50.1361 1.29961 50.1665L0.601562 50.5692C0.653186 50.5399 0.70706 50.5148 0.762659 50.494C0.80294 50.4802 0.844217 50.4694 0.886148 50.4618H0.913005C0.964763 50.4563 1.01695 50.4563 1.06871 50.4618H1.27813L1.44996 50.4887L1.63252 50.537L1.82582 50.6175L2.02986 50.7249L2.23928 50.8592C2.30372 50.9075 2.36816 50.9505 2.42722 51.0042L2.60441 51.1599C2.66347 51.2189 2.72254 51.2726 2.77624 51.3317C2.8353 51.3961 2.89436 51.4606 2.94805 51.5304C3.05965 51.6677 3.16363 51.8111 3.2595 51.9599L3.34541 52.0888C3.34541 52.1264 3.39374 52.164 3.41522 52.2069L3.44743 52.2606L3.54946 52.4539C3.59344 52.5313 3.63115 52.6121 3.66221 52.6956C3.699 52.7724 3.73127 52.8512 3.75886 52.9318C3.79108 53.0177 3.81793 53.0983 3.84477 53.1842C3.84477 53.2647 3.88774 53.3453 3.90385 53.4258C3.92511 53.5052 3.94125 53.5859 3.95217 53.6674C3.96784 53.7491 3.9786 53.8315 3.98439 53.9144C3.98439 53.995 3.98439 54.0755 3.98439 54.1561C3.98439 54.2366 3.98439 54.3118 3.98439 54.387C3.97715 54.4519 3.96639 54.5165 3.95217 54.5803V54.6071C3.94101 54.6651 3.92666 54.7225 3.90921 54.7789C3.90921 54.7789 3.90921 54.7789 3.90921 54.8112C3.89277 54.8607 3.87305 54.9092 3.85015 54.9561L3.76961 55.1119C3.74627 55.1502 3.71929 55.1861 3.68905 55.2192L3.65684 55.2515L3.58167 55.3266L3.54946 55.3589C3.5065 55.3857 3.46891 55.4179 3.42595 55.4394L4.12398 55.0367L4.24212 54.9508L4.27971 54.9239L4.35489 54.8488L4.3871 54.8112C4.41651 54.7774 4.44342 54.7415 4.46764 54.7038C4.49587 54.659 4.52098 54.6124 4.54281 54.5642L4.58577 54.4675V54.4138C4.58291 54.4051 4.58291 54.3957 4.58577 54.387C4.58332 54.3512 4.58332 54.3153 4.58577 54.2796C4.58577 54.2796 4.58577 54.2527 4.58577 54.242V54.2151C4.58838 54.2027 4.58838 54.19 4.58577 54.1776V54.0755C4.58842 54.0577 4.58842 54.0396 4.58577 54.0218V53.9789C4.58844 53.9467 4.58844 53.9144 4.58577 53.8822C4.5883 53.8483 4.5883 53.8142 4.58577 53.7802C4.71168 53.6931 4.79842 53.5601 4.82739 53.4097Z" fill="url(#paint2_linear_234_14930)"/>
<path d="M2.08359 50.3224C2.68779 50.7141 3.19062 51.2433 3.55088 51.8668C3.91114 52.4902 4.11858 53.1902 4.15623 53.9092C4.15623 55.2301 3.21657 55.7617 2.07286 55.0959C1.46806 54.7049 0.964765 54.1758 0.604427 53.5522C0.244089 52.9286 0.0369991 52.2283 0.00020521 51.5091C-0.0159034 50.1935 0.9184 49.6619 2.08359 50.3224Z" fill="url(#paint3_linear_234_14930)"/>
<path d="M21.5868 58.3228V58.2261C21.5842 58.2101 21.5842 58.1938 21.5868 58.1778C21.5843 58.1672 21.5843 58.1562 21.5868 58.1456C21.5894 58.1116 21.5894 58.0775 21.5868 58.0436V57.9415V57.8449C21.5868 57.8073 21.5868 57.7751 21.5868 57.7375C21.5875 57.725 21.5875 57.7124 21.5868 57.6999V57.6731C21.5868 57.6731 21.5868 57.6408 21.5868 57.6301C21.5868 57.6194 21.5868 57.5549 21.5599 57.5173C21.5331 57.4797 21.5599 57.4636 21.5331 57.4368V57.4099C21.5331 57.3724 21.5331 57.3348 21.4955 57.3026C21.4862 57.2657 21.4736 57.2298 21.4579 57.1952V57.1576L21.431 57.0931L21.3935 56.9911L21.3612 56.9213L21.3129 56.8193C21.2983 56.782 21.2803 56.746 21.2592 56.7119L21.2109 56.626L21.1518 56.5186L21.125 56.4649L21.0713 56.3736C21.0444 56.3307 21.0122 56.2877 20.9854 56.2394C20.9424 56.175 20.8995 56.1105 20.8511 56.0515C20.8189 56.0085 20.7921 55.9655 20.7598 55.928L20.6847 55.8313L20.6041 55.7346L20.5236 55.6434L20.4645 55.5843L20.3786 55.4984C20.3786 55.4984 20.3786 55.4984 20.3518 55.4715L20.3088 55.434L20.2175 55.3534L20.1746 55.3212H20.1424C20.1143 55.295 20.0837 55.2716 20.0511 55.2514L19.9866 55.2031L19.8954 55.144L19.8094 55.0903L19.745 55.0527L19.6591 55.0098L19.6054 54.9829L19.5249 54.9507L19.4389 54.9185H19.4121H19.3584L19.2725 54.8916H19.1866H19.0953H18.7946C18.7554 54.8864 18.7157 54.8864 18.6765 54.8916H18.6496L18.5315 54.9239C18.4771 54.9434 18.4249 54.9686 18.3758 54.999L17.6777 55.4017C17.7284 55.3721 17.7825 55.3486 17.8388 55.3319L17.9623 55.2943H17.9892C18.041 55.2914 18.093 55.2914 18.1449 55.2943H18.3543L18.5261 55.3212L18.7087 55.3749L18.902 55.4554L19.106 55.5628L19.3154 55.6971L19.5034 55.842L19.6806 55.9978L19.8524 56.1696L20.0296 56.3683C20.1424 56.5028 20.2464 56.6445 20.341 56.7925C20.3728 56.8351 20.4015 56.88 20.4269 56.9267L20.4967 57.0394L20.529 57.0931L20.631 57.2864C20.673 57.3649 20.7106 57.4455 20.7437 57.5281C20.7806 57.6067 20.8128 57.6874 20.8404 57.7697C20.8726 57.8502 20.8995 57.9308 20.9263 58.0167C20.9263 58.0973 20.9693 58.1778 20.9854 58.2583C21.0071 58.3395 21.0233 58.422 21.0337 58.5053C21.0494 58.587 21.0601 58.6694 21.0659 58.7523C21.0659 58.8329 21.0659 58.9134 21.0659 58.9886C21.0659 59.0638 21.0659 59.1443 21.0659 59.2195C21.0587 59.2845 21.0479 59.349 21.0337 59.4128C21.0225 59.4708 21.0082 59.5282 20.9907 59.5846C20.9931 59.5952 20.9931 59.6062 20.9907 59.6168C20.9743 59.6682 20.9546 59.7184 20.9317 59.7672L20.8511 59.9175C20.8289 59.9565 20.8018 59.9926 20.7706 60.0249L20.7384 60.0571C20.7161 60.0848 20.6909 60.11 20.6632 60.1323L20.631 60.1645C20.588 60.1914 20.5504 60.2236 20.5075 60.2451L21.2055 59.8424L21.3236 59.7564L21.3612 59.7296C21.3876 59.7059 21.4127 59.6808 21.4364 59.6544L21.4686 59.6168L21.5492 59.5148L21.6297 59.3698L21.6727 59.2732V59.2249V59.1926C21.6727 59.1926 21.6727 59.1926 21.6727 59.1658C21.6791 59.1294 21.6881 59.0935 21.6995 59.0584C21.6995 59.0584 21.6995 59.0315 21.6995 59.0208C21.7021 59.0084 21.7021 58.9956 21.6995 58.9832C21.7021 58.9511 21.7021 58.9187 21.6995 58.8866C21.7022 58.867 21.7022 58.8471 21.6995 58.8275V58.7845C21.7022 58.7524 21.7022 58.7201 21.6995 58.6879C21.7022 58.6539 21.7022 58.6198 21.6995 58.5859C21.6843 58.4902 21.6456 58.3998 21.5868 58.3228Z" fill="url(#paint4_linear_234_14930)"/>
<path d="M18.8217 55.235C19.4253 55.6273 19.9276 56.1567 20.2878 56.78C20.648 57.4034 20.8558 58.103 20.8943 58.8218C20.8943 60.1427 19.9546 60.6743 18.8109 60.0085C18.2061 59.6175 17.7028 59.0884 17.3425 58.4648C16.9822 57.8412 16.7751 57.1409 16.7383 56.4216C16.7437 55.1061 17.6565 54.5745 18.8217 55.235Z" fill="url(#paint5_linear_234_14930)"/>
<path d="M30.0491 46.853V46.751C30.0464 46.7368 30.0464 46.7223 30.0491 46.7081C30.0461 46.6957 30.0461 46.6828 30.0491 46.6705C30.0491 46.6382 30.0491 46.606 30.0491 46.5738V46.4664V46.3698C30.0491 46.3322 30.0491 46.2946 30.0491 46.257C30.0484 46.2445 30.0484 46.2319 30.0491 46.2194C30.0491 46.2194 30.0491 46.1872 30.0491 46.1711C30.0382 46.1358 30.0293 46.1 30.0222 46.0637C30.0222 46.0637 30.0222 46.01 30.0222 45.9832V45.9509C30.0222 45.9134 30.0222 45.8811 29.9846 45.8436C29.947 45.806 29.9846 45.7738 29.9471 45.7362V45.7039C29.9471 45.7039 29.947 45.661 29.9202 45.6341L29.8826 45.5375L29.8504 45.4623L29.8021 45.3657C29.7864 45.3271 29.7684 45.2894 29.7484 45.2529L29.7 45.167C29.6824 45.1301 29.6627 45.0942 29.641 45.0596C29.6299 45.0428 29.6209 45.0248 29.6141 45.0059L29.5605 44.9146C29.5282 44.8717 29.5014 44.8233 29.4745 44.7804C29.4316 44.716 29.3886 44.6569 29.3403 44.5978L29.249 44.4797L29.1685 44.383L29.0879 44.2918L29.0074 44.2005L28.9483 44.136L28.8624 44.0501H28.8356L28.7926 44.0072L28.7013 43.9266L28.6584 43.8944L28.6261 43.8676L28.5349 43.7978L28.4704 43.7548L28.3791 43.7011L28.2932 43.6474L28.2288 43.6098L28.1429 43.5669H28.0892H28.057L27.9764 43.5293L27.8905 43.4971H27.8637H27.8046H27.7241H27.6811H27.6543H27.563H27.2623H27.1442H26.7844C26.7442 43.5046 26.7047 43.5154 26.6663 43.5293C26.612 43.547 26.5598 43.5704 26.5105 43.5991L25.8125 44.0072C25.863 43.9757 25.9171 43.9505 25.9736 43.932L26.0971 43.8944H26.1239H26.2796H26.4891H26.6609C26.723 43.9055 26.784 43.9216 26.8434 43.9427L27.0368 44.0233C27.1012 44.0555 27.171 44.0877 27.2408 44.1307C27.3106 44.1736 27.3804 44.2166 27.4502 44.2595L27.6381 44.3992L27.8153 44.5495L27.9872 44.7213C28.0462 44.7858 28.1053 44.8502 28.159 44.92C28.2705 45.0556 28.3745 45.1972 28.4704 45.3442L28.5563 45.4784L28.6261 45.5912C28.6362 45.6085 28.6451 45.6265 28.653 45.6449C28.6906 45.7093 28.7282 45.7738 28.7604 45.8382C28.798 45.9187 28.8409 45.9993 28.8731 46.0798C28.9109 46.1562 28.9432 46.2352 28.9698 46.3161C29.002 46.3966 29.0289 46.4825 29.0557 46.5631C29.0815 46.6406 29.103 46.7195 29.1201 46.7993C29.1414 46.8788 29.1575 46.9595 29.1685 47.041C29.1845 47.1207 29.1952 47.2014 29.2007 47.2826C29.2007 47.3631 29.2007 47.4437 29.2007 47.5242C29.2007 47.6048 29.2007 47.6799 29.2007 47.7498C29.2007 47.8142 29.2007 47.8786 29.1685 47.9431V47.9699C29.1573 48.0279 29.143 48.0853 29.1255 48.1417C29.1255 48.1417 29.1255 48.1417 29.1255 48.1686C29.1091 48.2199 29.0894 48.2701 29.0664 48.3189L28.9859 48.4693L28.9054 48.5713L28.8731 48.6089C28.8508 48.6365 28.8256 48.6617 28.798 48.684C28.7856 48.6865 28.7728 48.6865 28.7604 48.684L28.6422 48.77L29.4692 48.2921L29.5873 48.2062H29.6195L29.7 48.131L29.7323 48.0934L29.8128 47.986C29.841 47.9412 29.8662 47.8946 29.888 47.8464L29.9309 47.7498V47.6961V47.6638C29.9315 47.6549 29.9315 47.6459 29.9309 47.637L29.9632 47.535C29.9632 47.535 29.9632 47.5081 29.9632 47.492C29.9632 47.492 29.9632 47.492 29.9632 47.4544V47.3524C29.9658 47.3346 29.9658 47.3165 29.9632 47.2987V47.2558C29.9658 47.2218 29.9658 47.1877 29.9632 47.1537C29.9632 47.1215 29.9632 47.0893 29.9632 47.0571C30.0057 46.9958 30.0349 46.9263 30.0491 46.853Z" fill="url(#paint6_linear_234_14930)"/>
<path d="M27.2836 43.7657C27.8884 44.1567 28.3917 44.6858 28.752 45.3094C29.1124 45.933 29.3194 46.6332 29.3562 47.3525C29.3562 48.668 28.4166 49.1996 27.2728 48.5392C26.668 48.1481 26.1648 47.619 25.8044 46.9954C25.4441 46.3718 25.237 45.6716 25.2002 44.9523C25.2056 43.6314 26.1345 43.0998 27.2836 43.7657Z" fill="url(#paint7_linear_234_14930)"/>
<path d="M40.9271 76.7512C40.9297 76.7191 40.9297 76.6867 40.9271 76.6546C40.9297 76.6386 40.9297 76.6223 40.9271 76.6063V76.5526C40.9244 76.5186 40.9244 76.4845 40.9271 76.4505V76.3485C40.9296 76.3163 40.9296 76.284 40.9271 76.2519C40.9296 76.2161 40.9296 76.1802 40.9271 76.1445C40.9271 76.1445 40.9271 76.1176 40.9271 76.1069V76.08C40.9247 76.0658 40.9247 76.0513 40.9271 76.0371L40.8949 75.9243C40.8949 75.8975 40.8949 75.8706 40.8949 75.8438V75.8169L40.7445 75.6773C40.7445 75.6397 40.7177 75.6021 40.7069 75.5699C40.7069 75.5699 40.7069 75.527 40.7069 75.5055C40.7069 75.484 40.6801 75.4357 40.664 75.4035L40.6318 75.3337V75.3068C40.6207 75.2715 40.6063 75.2374 40.5888 75.2048C40.5888 75.1672 40.5512 75.1296 40.5351 75.0974L40.4921 75.0115C40.4921 74.9793 40.4546 74.9417 40.4331 74.9041L40.4009 74.8504C40.4009 74.8504 40.3633 74.7913 40.3418 74.7591L40.2613 74.6303L40.1324 74.4423L40.0357 74.3188L39.9606 74.2222L39.88 74.1255L39.7995 74.0342L39.7458 73.9752L39.6545 73.8893H39.6277L39.5847 73.8517L39.4934 73.7711L39.4558 73.7389L39.4236 73.7121L39.3323 73.6423L39.2679 73.5939L39.182 73.5349L39.0907 73.4812L39.0209 73.4436L38.935 73.4006L38.8813 73.3738L38.7954 73.3416L38.7148 73.3093H38.688H38.6289L38.543 73.2825H38.4571H38.3658H38.0705C38.0313 73.2769 37.9915 73.2769 37.9523 73.2825H37.9201L37.8074 73.3147C37.7517 73.3353 37.6978 73.3604 37.6463 73.3899L36.9482 73.7926C36.9999 73.7648 37.0538 73.7415 37.1093 73.7228L37.2382 73.6852C37.2901 73.6826 37.3421 73.6826 37.3939 73.6852H37.6033L37.7752 73.7121L37.9577 73.7658C38.0222 73.7926 38.092 73.8141 38.1564 73.8463L38.3658 73.9537L38.5752 74.0879L38.7632 74.2329L38.9404 74.3886L39.1122 74.5658L39.2894 74.7645C39.4039 74.899 39.5097 75.0407 39.6062 75.1887L39.6867 75.3229C39.7119 75.3593 39.7352 75.3969 39.7565 75.4357L39.7887 75.4894L39.8961 75.6827L40.0089 75.9243L40.1055 76.166C40.1324 76.2465 40.1646 76.327 40.1861 76.4129C40.2129 76.4935 40.229 76.574 40.2505 76.6546L40.2989 76.9016C40.2989 76.9875 40.2989 77.068 40.2989 77.1486C40.2989 77.2291 40.2989 77.3097 40.2989 77.3848C40.2989 77.46 40.2989 77.5405 40.2989 77.6157C40.3022 77.6801 40.3022 77.7446 40.2989 77.809C40.2877 77.8671 40.2733 77.9244 40.2559 77.9809C40.2536 77.9915 40.2536 78.0025 40.2559 78.0131C40.2395 78.0644 40.2197 78.1146 40.1968 78.1634C40.1714 78.2153 40.1427 78.2655 40.1109 78.3138L40.0304 78.4212L39.9981 78.4534L39.9176 78.5285L39.8854 78.5608C39.8495 78.5924 39.8098 78.6195 39.7673 78.6413L40.4599 78.2386C40.5032 78.2131 40.5445 78.1843 40.5834 78.1527L40.6157 78.1258L40.6962 78.0507L40.7284 78.0131L40.8089 77.9111C40.8399 77.8651 40.8668 77.8166 40.8895 77.7661L40.9271 77.6694V77.6211C40.9294 77.6105 40.9294 77.5995 40.9271 77.5889C40.9385 77.5538 40.9475 77.5179 40.9539 77.4815C40.9539 77.4815 40.9539 77.4815 40.9539 77.4439C40.9539 77.4439 40.9539 77.4171 40.9539 77.4063V77.3097C40.9539 77.3097 40.9539 77.2721 40.9539 77.2506V77.2076C40.9539 77.1754 40.9539 77.1432 40.9539 77.111V77.009L40.9271 76.7512Z" fill="url(#paint8_linear_234_14930)"/>
<path d="M38.1615 73.6472C38.7645 74.0402 39.2664 74.5697 39.6265 75.1929C39.9866 75.8161 40.1948 76.5154 40.2341 77.234C40.2341 78.555 39.2945 79.0865 38.1454 78.4207C37.5422 78.0284 37.0404 77.4989 36.6811 76.8755C36.3218 76.2521 36.1152 75.5525 36.0781 74.8339C36.0781 73.5291 37.0124 72.9921 38.1615 73.6472Z" fill="url(#paint9_linear_234_14930)"/>
<path d="M52.8426 38.1919C52.8453 38.1579 52.8453 38.1238 52.8426 38.0899V37.9878C52.8397 37.9539 52.8397 37.9198 52.8426 37.8858V37.7838C52.8451 37.7516 52.8451 37.7193 52.8426 37.6872C52.8447 37.6514 52.8447 37.6155 52.8426 37.5798C52.8426 37.5798 52.8426 37.5529 52.8426 37.5422C52.8401 37.5262 52.8401 37.5099 52.8426 37.4939L52.8104 37.3811C52.8104 37.3542 52.8104 37.3274 52.8104 37.3005V37.2737L52.7782 37.1663C52.7782 37.1287 52.7514 37.0965 52.7406 37.0589C52.7406 37.0589 52.7406 37.016 52.7406 36.9945C52.7406 36.973 52.7406 36.9301 52.6977 36.8925C52.6864 36.8702 52.6774 36.8468 52.6708 36.8227C52.6588 36.7877 52.6444 36.7536 52.6279 36.7206C52.6279 36.683 52.5903 36.6508 52.5742 36.6132C52.5631 36.5831 52.5487 36.5543 52.5312 36.5273C52.5312 36.4897 52.4936 36.4522 52.4721 36.4199L52.4399 36.3662C52.4234 36.3339 52.4036 36.3033 52.3809 36.275L52.3003 36.1407L52.1714 35.9528C52.1392 35.9098 52.107 35.8722 52.0802 35.8293L51.9996 35.738L51.9191 35.6414L51.8385 35.5554L51.7848 35.4964L51.6936 35.4105C51.6936 35.4105 51.6936 35.4105 51.6667 35.3836L51.6238 35.3407L51.5325 35.2601L51.4949 35.2279L51.4627 35.2011L51.3714 35.1313L51.307 35.0829L51.221 35.0239L51.1297 34.9702L51.0599 34.9326L50.974 34.8896L50.9203 34.8628H50.8935L50.8076 34.8252L50.727 34.793H50.7002H50.6411H50.5552H50.5176H50.4693H50.378H50.0827H49.9646C49.9238 34.7979 49.884 34.8088 49.8464 34.8252L49.6853 34.9004L48.9873 35.3031L49.1484 35.2333L49.2773 35.1957H49.433H49.6424C49.7004 35.1989 49.758 35.2079 49.8142 35.2225L49.9968 35.2762L50.1955 35.3514C50.2673 35.381 50.3372 35.4151 50.4049 35.4534L50.6143 35.5877L50.8022 35.7273L50.9794 35.883C51.0385 35.9367 51.0922 35.9958 51.1512 36.0548L51.3284 36.2589C51.4417 36.3944 51.5475 36.536 51.6452 36.6831L51.7258 36.8173C51.751 36.8536 51.7743 36.8913 51.7956 36.93L51.8278 36.9837L51.9352 37.177L52.0479 37.4187L52.1446 37.6603C52.1714 37.7408 52.2037 37.8268 52.2251 37.9073C52.252 37.9825 52.2681 38.063 52.2896 38.1436L52.3379 38.3906C52.3379 38.4711 52.3379 38.5516 52.3379 38.6322C52.3379 38.7127 52.3379 38.7933 52.3379 38.8738C52.3379 38.9544 52.3379 39.0242 52.3379 39.0993C52.3379 39.1638 52.3379 39.2282 52.3379 39.2927C52.3267 39.3524 52.3124 39.4116 52.2949 39.4698C52.2921 39.4786 52.2921 39.488 52.2949 39.4967C52.2785 39.548 52.2588 39.5982 52.2359 39.647C52.2105 39.6989 52.1818 39.7491 52.15 39.7974L52.0694 39.9048L52.0372 39.9424L51.9567 40.0175L51.9244 40.0444L51.8063 40.1303L52.499 39.7222C52.5421 39.6985 52.5834 39.6716 52.6225 39.6417L52.6547 39.6095L52.7352 39.5343L52.7675 39.5021L52.848 39.3947C52.8811 39.3501 52.9082 39.3014 52.9286 39.2497C52.9286 39.2175 52.9554 39.1906 52.9661 39.153C52.9641 39.137 52.9641 39.1208 52.9661 39.1047C52.9661 39.1047 52.9661 39.1047 52.9661 39.0725C52.9661 39.0403 52.9661 39.0725 52.9661 39.0456C52.9782 39.0107 52.9872 38.9748 52.993 38.9383C52.993 38.9383 52.993 38.9114 52.993 38.9007C52.993 38.9007 52.993 38.9007 52.993 38.8631V38.7664C52.993 38.7664 52.993 38.7288 52.993 38.7074V38.6644C52.993 38.6322 52.993 38.6 52.993 38.5678V38.4657L52.8426 38.1919Z" fill="url(#paint10_linear_234_14930)"/>
<path d="M50.0775 35.0991C50.6812 35.4926 51.1836 36.023 51.5437 36.6472C51.9039 37.2714 52.1116 37.9717 52.1502 38.6913C52.1502 40.0069 51.2105 40.5385 50.0614 39.878C49.4591 39.4848 48.958 38.955 48.5988 38.3318C48.2396 37.7086 48.0325 37.0094 47.9941 36.2911C47.9941 34.9702 48.9284 34.4386 50.0775 35.0991Z" fill="url(#paint11_linear_234_14930)"/>
<path d="M59.9036 78.8989C59.9061 78.865 59.9061 78.8309 59.9036 78.7969V78.7325C59.9011 78.7219 59.9011 78.7109 59.9036 78.7003C59.9036 78.6627 59.9036 78.6305 59.9036 78.5982V78.4908V78.3942C59.901 78.3567 59.901 78.319 59.9036 78.2814C59.9029 78.2689 59.9029 78.2564 59.9036 78.2438C59.9036 78.2438 59.9036 78.2116 59.9036 78.1955C59.8927 78.1602 59.8838 78.1244 59.8767 78.0881C59.8767 78.0881 59.8767 78.0344 59.8499 78.0076V77.9754C59.8499 77.9432 59.823 77.9056 59.8123 77.868C59.8016 77.8304 59.8123 77.7982 59.7747 77.7606V77.7284C59.7747 77.7284 59.7747 77.6854 59.7479 77.6586L59.7103 77.5619L59.6781 77.4867L59.6297 77.3901C59.614 77.3515 59.5961 77.3139 59.576 77.2773L59.5277 77.1914C59.5101 77.1545 59.4903 77.1187 59.4686 77.084L59.4364 77.0303L59.3827 76.9391C59.3505 76.8961 59.3237 76.8478 59.2968 76.8048C59.2538 76.7404 59.2109 76.6813 59.1626 76.6223L59.0713 76.5041L58.9908 76.4075L58.9102 76.3162L58.8297 76.2249L58.7706 76.1605L58.6847 76.0745H58.6578L58.6149 76.037L58.5236 75.9564L58.4806 75.9188L58.4484 75.892L58.3571 75.8276L58.2927 75.7792C58.2663 75.7565 58.2374 75.7367 58.2068 75.7202L58.1209 75.6665L58.0564 75.6343L57.9705 75.5859H57.9168L57.8363 75.5483L57.7504 75.5215H57.3906H57.3316H57.2456H57.2081H57.1651H57.0738H56.7731H56.655H56.6281C56.588 75.529 56.5484 75.5398 56.51 75.5537L56.3543 75.6235L55.6562 76.0316C55.7054 76.0012 55.7576 75.976 55.812 75.9564L55.9408 75.9188H55.9677H56.1234H56.3167L56.4885 75.9457C56.5506 75.9568 56.6117 75.9729 56.6711 75.994C56.7374 76.0162 56.802 76.0432 56.8644 76.0745C56.9288 76.1068 56.9986 76.139 57.0684 76.1819C57.1382 76.2249 57.2081 76.2679 57.2779 76.3108C57.344 76.3544 57.4068 76.4029 57.4658 76.4558L57.643 76.6061C57.7021 76.6598 57.7611 76.7189 57.8148 76.778C57.8739 76.8424 57.9329 76.9068 57.9866 76.9766C58.0977 77.1144 58.2017 77.2578 58.2981 77.4062L58.384 77.5351L58.4538 77.6478C58.4638 77.6652 58.4728 77.6831 58.4806 77.7015C58.5182 77.766 58.5558 77.8304 58.588 77.9002L58.7008 78.1418C58.7384 78.217 58.7652 78.2975 58.7974 78.3781C58.8297 78.464 58.8565 78.5445 58.8834 78.6251C58.9091 78.7026 58.9306 78.7815 58.9478 78.8613V78.8882C58.969 78.9676 58.9852 79.0483 58.9961 79.1298C59.0125 79.2113 59.0232 79.2939 59.0283 79.3768C59.0283 79.4574 59.0283 79.5379 59.0283 79.6185C59.0283 79.699 59.0283 79.7742 59.0283 79.844C59.0227 79.9088 59.0138 79.9734 59.0015 80.0373V80.0641C58.9903 80.1222 58.976 80.1795 58.9585 80.2359C58.9585 80.2359 58.9585 80.2359 58.9585 80.2682C58.9585 80.3004 58.9209 80.3648 58.8995 80.4132C58.8726 80.4668 58.8458 80.5205 58.8189 80.5635L58.7384 80.6655L58.7062 80.7031L58.631 80.7783C58.6186 80.7807 58.6058 80.7807 58.5934 80.7783L58.4753 80.8642L59.1733 80.4615L59.2914 80.3756H59.3237L59.4042 80.3004L59.4364 80.2628L59.517 80.1554C59.5452 80.1106 59.5703 80.064 59.5921 80.0158L59.6351 79.9191V79.8654C59.6328 79.8548 59.6328 79.8438 59.6351 79.8332C59.6356 79.8243 59.6356 79.8153 59.6351 79.8064L59.6673 79.7044C59.6673 79.7044 59.6673 79.6775 59.6673 79.6614C59.6673 79.6614 59.6673 79.6614 59.6673 79.6238V79.5218C59.6699 79.504 59.6699 79.4859 59.6673 79.4681V79.4252C59.6701 79.3912 59.6701 79.3571 59.6673 79.3231C59.6673 79.2909 59.6673 79.2587 59.6673 79.2265C59.7824 79.1488 59.8662 79.0327 59.9036 78.8989Z" fill="url(#paint12_linear_234_14930)"/>
<path d="M57.1381 75.7904C57.7429 76.1814 58.2462 76.7105 58.6065 77.3341C58.9668 77.9577 59.1739 78.658 59.2107 79.3772C59.2107 80.6981 58.2711 81.2244 57.1273 80.5639C56.5225 80.1728 56.0192 79.6437 55.6589 79.0202C55.2986 78.3966 55.0915 77.6963 55.0547 76.977C55.0601 75.6776 55.989 75.1406 57.1381 75.7904Z" fill="url(#paint13_linear_234_14930)"/>
<defs>
<linearGradient id="paint0_linear_234_14930" x1="11.6255" y1="33.2366" x2="15.8674" y2="33.2366" gradientUnits="userSpaceOnUse">
<stop stop-color="#6C8FFF"/>
<stop offset="1" stop-color="#C2CFFF"/>
</linearGradient>
<linearGradient id="paint1_linear_234_14930" x1="11.0186" y1="33.5102" x2="15.1746" y2="33.5102" gradientUnits="userSpaceOnUse">
<stop stop-color="#264AA3"/>
<stop offset="1" stop-color="#4663CE"/>
</linearGradient>
<linearGradient id="paint2_linear_234_14930" x1="0.585454" y1="52.4378" x2="4.83276" y2="52.4378" gradientUnits="userSpaceOnUse">
<stop stop-color="#EA931F"/>
<stop offset="1" stop-color="#FFD524"/>
</linearGradient>
<linearGradient id="paint3_linear_234_14930" x1="-0.021273" y1="52.7118" x2="4.13475" y2="52.7118" gradientUnits="userSpaceOnUse">
<stop stop-color="#D34F0D"/>
<stop offset="1" stop-color="#E2871A"/>
</linearGradient>
<linearGradient id="paint4_linear_234_14930" x1="17.3448" y1="57.3509" x2="21.5921" y2="57.3509" gradientUnits="userSpaceOnUse">
<stop stop-color="#8AFFB9"/>
<stop offset="1" stop-color="#55FF9A"/>
</linearGradient>
<linearGradient id="paint5_linear_234_14930" x1="16.7383" y1="57.6244" x2="20.8943" y2="57.6244" gradientUnits="userSpaceOnUse">
<stop stop-color="#32CC73"/>
<stop offset="1" stop-color="#45D881"/>
</linearGradient>
<linearGradient id="paint6_linear_234_14930" x1="25.8071" y1="45.8811" x2="30.0544" y2="45.8811" gradientUnits="userSpaceOnUse">
<stop stop-color="#FF71D7"/>
<stop offset="1" stop-color="#FFB6DE"/>
</linearGradient>
<linearGradient id="paint7_linear_234_14930" x1="25.2002" y1="46.1497" x2="29.3562" y2="46.1497" gradientUnits="userSpaceOnUse">
<stop stop-color="#AC44E2"/>
<stop offset="1" stop-color="#C268FC"/>
</linearGradient>
<linearGradient id="paint8_linear_234_14930" x1="36.6798" y1="75.7632" x2="40.9271" y2="75.7632" gradientUnits="userSpaceOnUse">
<stop stop-color="#FF71D7"/>
<stop offset="1" stop-color="#FFB6DE"/>
</linearGradient>
<linearGradient id="paint9_linear_234_14930" x1="36.0781" y1="76.0366" x2="40.2341" y2="76.0366" gradientUnits="userSpaceOnUse">
<stop stop-color="#ED4CB7"/>
<stop offset="1" stop-color="#ED5AA4"/>
</linearGradient>
<linearGradient id="paint10_linear_234_14930" x1="48.5953" y1="37.2146" x2="52.8426" y2="37.2146" gradientUnits="userSpaceOnUse">
<stop stop-color="#90E05C"/>
<stop offset="1" stop-color="#91FF4A"/>
</linearGradient>
<linearGradient id="paint11_linear_234_14930" x1="47.9941" y1="37.4886" x2="52.1502" y2="37.4886" gradientUnits="userSpaceOnUse">
<stop stop-color="#569E26"/>
<stop offset="1" stop-color="#63B230"/>
</linearGradient>
<linearGradient id="paint12_linear_234_14930" x1="55.6616" y1="77.9056" x2="59.9089" y2="77.9056" gradientUnits="userSpaceOnUse">
<stop stop-color="#67B8F4"/>
<stop offset="1" stop-color="#7BE3FF"/>
</linearGradient>
<linearGradient id="paint13_linear_234_14930" x1="55.0547" y1="78.1744" x2="59.2107" y2="78.1744" gradientUnits="userSpaceOnUse">
<stop stop-color="#135E7C"/>
<stop offset="1" stop-color="#1A8FAA"/>
</linearGradient>
</defs>
</svg>
