<svg width="207" height="101" viewBox="0 0 207 101" fill="none" xmlns="http://www.w3.org/2000/svg">
<g clip-path="url(#clip0_237_18203)">
<path d="M195.499 0.739746L188.148 2.52809L179.317 2.89115L182.872 7.00372L131.049 51.3573L93.3638 19.993L12.2334 79.9439H38.5687L92.8692 36.2673L129.11 68.8539L189.816 15.0418L191.568 17.3549L193.048 18.7818L195.014 10.4742L196.98 2.16662L195.499 0.739746Z" fill="url(#paint0_linear_237_18203)"/>
<path d="M186.669 1.10122L177.836 1.46428L181.391 5.57685L129.57 49.9304L91.8847 18.5661L8.82324 79.9439H35.3139L91.3901 34.8404L127.631 67.427L188.335 13.6149L191.568 17.3549L193.534 9.04732L195.499 0.739746L186.669 1.10122Z" fill="url(#paint1_linear_237_18203)"/>
<mask id="mask0_237_18203" style="mask-type:luminance" maskUnits="userSpaceOnUse" x="8" y="0" width="189" height="80">
<path d="M195.5 0.739258L186.67 1.10073L177.837 1.46379L181.392 5.57636L129.571 49.9299L91.8857 18.5657L8.82422 79.9434H12.2344H35.3149H38.5698L92.8702 36.2668L129.111 68.8534L189.677 15.1649L191.569 17.3544L193.049 18.7813L195.015 10.4737L196.981 2.16613L195.5 0.739258Z" fill="white"/>
</mask>
<g mask="url(#mask0_237_18203)">
<g opacity="0.25">
<path d="M135.734 41.75H130.558C117.794 41.75 110.979 50.2129 110.979 60.7972C110.979 72.5419 118.028 79.9442 130.44 79.9442C130.442 79.9442 130.442 79.9442 130.444 79.9442H135.618C148.367 79.9442 155.336 71.857 155.336 60.7861C155.336 48.4579 147.433 41.75 135.734 41.75ZM128.595 60.6973C128.595 55.9902 130.32 52.7829 133.389 51.7476C136.614 52.6941 138.095 55.5399 138.095 60.7861C138.095 65.3917 136.502 68.7639 133.266 69.8959C130.136 68.7766 128.595 65.4583 128.595 60.6973Z" fill="black"/>
<path d="M131.803 11.7559H125.341H120.163L75.2891 78.6572H80.4654H86.9165H92.0929L136.979 11.7559H131.803Z" fill="black"/>
<path d="M78.691 48.6057H82.4548C95.2031 48.6057 102.173 40.5185 102.173 29.4476C102.173 17.1194 94.2709 10.4131 82.5705 10.4131H77.3941V10.4464C64.6633 10.4702 57.8682 18.9236 57.8682 29.492C57.8682 41.2383 64.9661 48.639 77.3291 48.639C77.7905 48.639 78.2439 48.6279 78.691 48.6057ZM84.9851 29.4809C84.9851 34.0754 83.3981 37.4444 80.1781 38.5827C76.9978 37.492 75.4346 34.1563 75.4346 29.3604C75.4346 24.6707 77.1484 21.4698 80.1971 20.4218C83.479 21.3493 84.9851 24.2094 84.9851 29.4809Z" fill="black"/>
</g>
</g>
<path d="M78.8706 10.4136H73.6943V10.9304C64.2737 12.9154 59.2939 20.4128 59.2939 29.4607C59.2939 39.5297 64.4751 46.4057 73.7735 48.1639L73.5785 48.6078H78.7549C91.5032 48.6078 98.4727 40.5206 98.4727 29.4496C98.4727 17.1199 90.571 10.4136 78.8706 10.4136ZM78.9753 38.9717C74.1144 38.9717 71.7347 35.2792 71.7347 29.3609C71.7347 23.5693 74.3475 20.0497 78.8595 20.0497C84.0676 20.0497 86.4109 22.8512 86.4109 29.4496C86.4109 35.1571 83.9646 38.9717 78.9753 38.9717Z" fill="url(#paint2_linear_237_18203)"/>
<path d="M132.035 41.75H126.858V42.2668C117.438 44.2518 112.458 51.7492 112.458 60.7972C112.458 70.8661 117.639 77.7421 126.938 79.5003L126.743 79.9442H131.919C144.667 79.9442 151.637 71.857 151.637 60.7861C151.637 48.4579 143.733 41.75 132.035 41.75ZM132.138 70.3081C127.277 70.3081 124.897 66.6156 124.897 60.6973C124.897 54.9058 127.51 51.3862 132.022 51.3862C137.23 51.3862 139.573 54.1876 139.573 60.7861C139.573 66.4936 137.127 70.3081 132.138 70.3081Z" fill="url(#paint3_linear_237_18203)"/>
<path d="M121.64 11.7563L76.7646 78.6577H88.3921L133.278 11.7563H121.64Z" fill="url(#paint4_linear_237_18203)"/>
<path d="M93.3487 29.4819C93.3487 40.5528 86.3776 48.64 73.6309 48.64C61.2678 48.64 54.1699 41.2393 54.1699 29.493C54.1699 18.9087 60.9824 10.4458 73.7466 10.4458C85.4454 10.4474 93.3487 17.1537 93.3487 29.4819ZM66.6075 29.3947C66.6075 35.2782 68.9888 39.0055 73.8497 39.0055C78.839 39.0055 81.2853 35.1894 81.2853 29.4819C81.2853 22.9072 78.942 20.082 73.7339 20.082C69.2203 20.082 66.6075 23.6032 66.6075 29.3947ZM71.5889 78.6583L116.462 11.7569H128.103L83.2163 78.6583H71.5889ZM146.458 60.7859C146.458 71.8568 139.487 79.944 126.741 79.944C114.328 79.944 107.28 72.5433 107.28 60.797C107.28 50.2128 114.094 41.7498 126.858 41.7498C138.557 41.7498 146.458 48.4577 146.458 60.7859ZM119.719 60.6971C119.719 66.617 122.099 70.3079 126.959 70.3079C131.949 70.3079 134.395 66.4918 134.395 60.7843C134.395 54.1858 132.052 51.3844 126.844 51.3844C122.332 51.386 119.719 54.9056 119.719 60.6971Z" fill="url(#paint5_linear_237_18203)"/>
<path d="M197.566 86.0046H8.61514L0 78.5991H206.182L197.566 86.0046Z" fill="url(#paint6_linear_237_18203)"/>
</g>
<defs>
<linearGradient id="paint0_linear_237_18203" x1="-9.94274" y1="104.281" x2="210.558" y2="-4.63547" gradientUnits="userSpaceOnUse">
<stop stop-color="#2C8D3A"/>
<stop offset="1" stop-color="#88AE33"/>
</linearGradient>
<linearGradient id="paint1_linear_237_18203" x1="-11.4143" y1="102.85" x2="209.077" y2="-6.06193" gradientUnits="userSpaceOnUse">
<stop stop-color="#39B54A"/>
<stop offset="0.9262" stop-color="#9FD340"/>
<stop offset="1" stop-color="#A7D63F"/>
</linearGradient>
<linearGradient id="paint2_linear_237_18203" x1="78.8835" y1="8.84913" x2="78.8835" y2="78.772" gradientUnits="userSpaceOnUse">
<stop stop-color="#F8BD3D"/>
<stop offset="0.8611" stop-color="#DD7B09"/>
<stop offset="1" stop-color="#D87000"/>
</linearGradient>
<linearGradient id="paint3_linear_237_18203" x1="132.046" y1="8.84987" x2="132.046" y2="78.7727" gradientUnits="userSpaceOnUse">
<stop stop-color="#F8BD3D"/>
<stop offset="0.8611" stop-color="#DD7B09"/>
<stop offset="1" stop-color="#D87000"/>
</linearGradient>
<linearGradient id="paint4_linear_237_18203" x1="105.022" y1="8.84906" x2="105.022" y2="78.7722" gradientUnits="userSpaceOnUse">
<stop stop-color="#F8BD3D"/>
<stop offset="0.8611" stop-color="#DD7B09"/>
<stop offset="1" stop-color="#D87000"/>
</linearGradient>
<linearGradient id="paint5_linear_237_18203" x1="100.314" y1="10.865" x2="100.314" y2="83.7867" gradientUnits="userSpaceOnUse">
<stop stop-color="#FFD03F"/>
<stop offset="0.9186" stop-color="#E28E05"/>
<stop offset="1" stop-color="#DF8800"/>
</linearGradient>
<linearGradient id="paint6_linear_237_18203" x1="103.091" y1="78.5478" x2="103.091" y2="86.5756" gradientUnits="userSpaceOnUse">
<stop stop-color="#F1F1F1"/>
<stop offset="0.2035" stop-color="#EAEBEB"/>
<stop offset="0.5063" stop-color="#D6D9DC"/>
<stop offset="0.8692" stop-color="#B5BCC3"/>
<stop offset="1" stop-color="#A7B0B9"/>
</linearGradient>
<clipPath id="clip0_237_18203">
<rect width="206.182" height="99.545" fill="white" transform="translate(0 0.739746)"/>
</clipPath>
</defs>
</svg>
