<svg width="1512" height="383" viewBox="0 0 1512 383" fill="none" xmlns="http://www.w3.org/2000/svg">
<mask id="mask0_327_1237" style="mask-type:alpha" maskUnits="userSpaceOnUse" x="0" y="0" width="1512" height="383">
<rect width="1512" height="383" fill="#D9D9D9"/>
</mask>
<g mask="url(#mask0_327_1237)">
<path d="M809.272 -401V-280.889C809.272 -266.53 797.632 -254.889 783.272 -254.889H44C29.6406 -254.889 18 -243.249 18 -228.889V183.012C18 197.371 29.6406 209.012 44 209.012H1446C1460.36 209.012 1472 220.652 1472 235.012V646.913C1472 661.272 1460.36 672.913 1446 672.913H44C29.6406 672.913 18 684.553 18 698.913V1108.99C18 1123.35 29.6406 1134.99 44 1134.99H1446C1460.36 1134.99 1472 1146.63 1472 1160.99V1575.17C1472 1589.53 1460.36 1601.17 1446 1601.17H44C29.6406 1601.17 18 1612.81 18 1627.17V2034.96C18 2049.32 29.6406 2060.96 44 2060.96H1446C1460.36 2060.96 1472 2072.6 1472 2086.96V2497.04C1472 2511.4 1460.36 2523.04 1446 2523.04H44C29.6406 2523.04 18 2534.68 18 2549.04V2961.85C18 2976.21 29.6406 2987.85 44 2987.85H1446C1460.36 2987.85 1472 2999.49 1472 3013.85V3423.93C1472 3438.29 1460.36 3449.93 1446 3449.93H44C29.6406 3449.93 18 3461.57 18 3475.93V3886.92C18 3901.27 29.6406 3912.92 44 3912.92H782.772C797.131 3912.92 808.772 3924.56 808.772 3938.92V4033" stroke="#A5A5A5" stroke-width="3" stroke-dasharray="8 8"/>
</g>
</svg>
