<svg width="1512" height="383" viewBox="0 0 1512 383" fill="none" xmlns="http://www.w3.org/2000/svg">
<mask id="mask0_327_1239" style="mask-type:alpha" maskUnits="userSpaceOnUse" x="0" y="0" width="1512" height="383">
<rect width="1512" height="383" fill="#D9D9D9"/>
</mask>
<g mask="url(#mask0_327_1239)">
<path d="M809.272 -875V-754.889C809.272 -740.53 797.632 -728.889 783.272 -728.889H44C29.6406 -728.889 18 -717.249 18 -702.889V-290.988C18 -276.629 29.6406 -264.988 44 -264.988H1446C1460.36 -264.988 1472 -253.348 1472 -238.988V172.913C1472 187.272 1460.36 198.913 1446 198.913H44C29.6406 198.913 18 210.553 18 224.913V634.988C18 649.347 29.6406 660.988 44 660.988H1446C1460.36 660.988 1472 672.628 1472 686.988V1101.17C1472 1115.53 1460.36 1127.17 1446 1127.17H44C29.6406 1127.17 18 1138.81 18 1153.17V1560.96C18 1575.32 29.6406 1586.96 44 1586.96H1446C1460.36 1586.96 1472 1598.6 1472 1612.96V2023.04C1472 2037.4 1460.36 2049.04 1446 2049.04H44C29.6406 2049.04 18 2060.68 18 2075.04V2487.85C18 2502.21 29.6406 2513.85 44 2513.85H1446C1460.36 2513.85 1472 2525.49 1472 2539.85V2949.93C1472 2964.29 1460.36 2975.93 1446 2975.93H44C29.6406 2975.93 18 2987.57 18 3001.93V3412.92C18 3427.27 29.6406 3438.92 44 3438.92H782.772C797.131 3438.92 808.772 3450.56 808.772 3464.92V3559" stroke="#A5A5A5" stroke-width="3" stroke-dasharray="8 8"/>
</g>
</svg>
