<svg width="905" height="341" viewBox="0 0 905 341" fill="none" xmlns="http://www.w3.org/2000/svg">
<mask id="mask0_327_1235" style="mask-type:alpha" maskUnits="userSpaceOnUse" x="0" y="0" width="905" height="341">
<rect width="905" height="341" fill="#D9D9D9"/>
</mask>
<g mask="url(#mask0_327_1235)">
<path d="M886.272 8V128.111C886.272 142.47 874.632 154.111 860.272 154.111H121C106.641 154.111 95 165.751 95 180.111V592.012C95 606.371 106.641 618.012 121 618.012H1523C1537.36 618.012 1549 629.652 1549 644.012V1055.91C1549 1070.27 1537.36 1081.91 1523 1081.91H121C106.641 1081.91 95 1093.55 95 1107.91V1517.99C95 1532.35 106.641 1543.99 121 1543.99H1523C1537.36 1543.99 1549 1555.63 1549 1569.99V1984.17C1549 1998.53 1537.36 2010.17 1523 2010.17H121C106.641 2010.17 95 2021.81 95 2036.17V2443.96C95 2458.32 106.641 2469.96 121 2469.96H1523C1537.36 2469.96 1549 2481.6 1549 2495.96V2906.04C1549 2920.4 1537.36 2932.04 1523 2932.04H121C106.641 2932.04 95 2943.68 95 2958.04V3370.85C95 3385.21 106.641 3396.85 121 3396.85H1523C1537.36 3396.85 1549 3408.49 1549 3422.85V3832.93C1549 3847.29 1537.36 3858.93 1523 3858.93H121C106.641 3858.93 95 3870.57 95 3884.93V4295.92C95 4310.27 106.641 4321.92 121 4321.92H859.772C874.131 4321.92 885.772 4333.56 885.772 4347.92V4442" stroke="#A5A5A5" stroke-width="3" stroke-dasharray="8 8"/>
</g>
</svg>
