<svg width="814" height="481" viewBox="0 0 814 481" fill="none" xmlns="http://www.w3.org/2000/svg">
<path d="M611.995 372.601C609.976 380.36 649.855 397.526 701.097 410.959C752.339 424.38 795.542 428.969 797.561 421.21C799.607 413.452 759.702 396.286 708.46 382.865C657.217 369.431 614.04 364.843 611.995 372.601Z" fill="url(#paint0_radial_200_19436)"/>
<path fill-rule="evenodd" clip-rule="evenodd" d="M813.997 241.191L699.958 248.26L638.797 376.397L764.493 420.367L813.997 241.191Z" fill="url(#paint1_radial_200_19436)"/>
<path fill-rule="evenodd" clip-rule="evenodd" d="M650.094 370.184L759.992 408.632L803.872 249.844L704.595 256.005L650.094 370.184Z" fill="url(#paint2_radial_200_19436)"/>
<path fill-rule="evenodd" clip-rule="evenodd" d="M651.477 370.684L757.029 406.537L800.487 252.605L704.495 256.926L651.477 370.684Z" fill="url(#paint3_linear_200_19436)"/>
<path d="M800.49 252.605L782.775 315.172C772.767 318.125 764.433 318.496 754.693 315.147C729.334 308.232 709.049 301.598 678.82 311.875L704.512 256.926L800.49 252.605Z" fill="url(#paint4_linear_200_19436)"/>
<path d="M733.398 313.127C731.915 313.382 730.88 312.322 724.821 305.867C713.305 293.609 689.364 268.084 652.629 246.725C624.612 234.57 586.292 232.742 538.756 241.242C505.92 247.147 469.338 257.82 430.034 273.03C328.125 316.015 241.426 330.791 179.051 315.44C116.535 302.684 73.8185 277.12 55.5916 266.192C52.2045 264.173 49.6353 262.639 47.7692 261.667C17.438 241.779 2.94343 227.45 0.75774 215.193C-0.45653 208.457 2.21487 202.257 8.64411 196.812C11.9929 193.924 15.5846 192.122 19.3425 191.444C32.5844 189.079 46.5933 200.66 61.4329 212.943C65.9193 216.663 70.5464 220.497 75.2117 224.012C76.7455 224.996 78.7651 226.364 81.2192 228.064C97.7205 239.427 136.36 266.039 194.082 279.702C225.935 289.097 264.37 289.557 311.547 281.096C344.179 275.267 381.336 265.093 428.437 249.141C456.608 240.232 483.705 233.432 508.911 228.908C573.727 217.302 624.19 220.829 659.008 239.465C695.116 264.569 717.088 290.81 727.646 303.425C730.343 306.621 732.886 309.65 733.589 310.046L733.27 311.222L734.714 312.181L734.19 312.973L733.398 313.127ZM509.435 232.014C484.357 236.5 457.413 243.262 429.395 252.119C382.154 268.135 344.882 278.335 312.084 284.214C264.408 292.74 225.513 292.254 193.264 282.732C135.043 268.966 96.0716 242.098 79.4169 230.633C77.0012 228.971 75.02 227.604 73.3967 226.568C68.6035 222.964 63.9382 219.104 59.4134 215.346C45.1489 203.536 31.7025 192.415 19.9049 194.524C16.6583 195.112 13.6546 196.608 10.7148 199.177C5.09077 203.919 2.84117 208.968 3.83815 214.617C5.8449 225.789 20.3522 239.9 49.3414 258.932C51.1052 259.814 53.7383 261.386 57.2149 263.457C75.3012 274.308 117.711 299.68 179.767 312.334C241.541 327.532 327.55 312.82 428.871 270.103C468.418 254.803 505.179 244.041 538.22 238.123C586.381 229.495 625.328 231.4 654.087 243.901C669.949 253.103 683.421 263.061 694.592 272.404C684.418 262.792 672.058 252.349 657.359 242.124C623.308 223.935 573.548 220.51 509.435 232.014Z" fill="#F0AECA"/>
<path fill-rule="evenodd" clip-rule="evenodd" d="M580.079 304.371C555.538 287.41 539.868 299.118 533.336 273.171C550.988 279.83 575.81 283.332 594.766 284.61C479.755 282.284 390.883 172.488 297.602 101.537C274.467 79.0919 269.597 74.4393 309.374 113.347L308.735 113.718L306.306 115.277L301.769 118.741C298.663 121.489 303.775 116.095 304.555 115.303C307.086 112.248 315.023 106.368 322.398 102.943C329.863 99.1849 339.475 96.9352 349.253 95.4653C416.383 146.912 456.237 220.599 521.59 268.71C509.831 264.287 511.122 258.906 506.571 251.314C512.438 253.538 511.122 258.919 517.027 261.117C463.433 217.455 411.142 168.398 360.68 120.198C351.835 110.816 337.724 95.0308 336.842 94.0849L336.893 93.5608L337.072 92.5894C336.893 92.0654 338.312 90.9789 338.912 90.2376C340.523 88.6271 343.079 86.7737 346.224 84.9843C352.461 81.4309 360.731 77.7498 375.635 75.4746C496.077 83.1181 626.132 208.456 620.253 311.81C612.417 396.847 513.755 248.169 443.161 221.545C479.116 258.574 524.862 281.696 574.507 288.701C567.323 291.845 576.475 307.03 563.412 307.963C586.943 264.032 536.621 286.119 515.698 266.499C535.97 262.421 547.729 266.856 563.463 284.853C571.081 291.845 576.449 298.645 580.079 304.371Z" fill="url(#paint5_linear_200_19436)"/>
<path fill-rule="evenodd" clip-rule="evenodd" d="M596.648 331.98C590.18 329.807 582.997 332.977 575.801 336.134C582.997 332.977 588.877 335.201 591.497 324.452C505.233 362.324 349.716 315.377 295.752 215.832C290.447 200.852 284.951 186.753 283.98 172.936C281.257 143.602 289.744 126.462 301.619 113.897C313.288 103.684 326.032 98.5461 339.21 96.3477C444.455 110.599 543.131 206.488 584.953 298.517C561.421 289.66 543.131 259.29 515.675 266.525C536.599 286.145 591.497 271.663 563.39 307.989C576.453 307.056 567.301 291.871 574.484 288.727L568.618 286.49C609.775 302.02 583.662 356.7 624.819 372.23C580.377 290.925 496.72 265.246 418.304 218.069C449.031 276.584 518.296 308.589 573.654 328.657C598.437 335.904 594.386 330.766 596.648 331.98Z" fill="url(#paint6_linear_200_19436)"/>
<path fill-rule="evenodd" clip-rule="evenodd" d="M580.066 304.359C558.823 300.384 542.488 288.356 533.336 273.172C545.095 277.607 559.475 271.293 569.917 281.122C488.254 273.772 417.661 194.346 345.137 149.393C362.763 156.039 371.915 171.237 383.674 175.659C383.674 175.659 360.807 190.499 382.37 181.028C433.983 153.585 479.742 229.496 521.564 268.736C491.501 233.944 445.768 210.822 417.022 170.636C488.242 168.182 554.873 210.924 597.36 273.875C616.967 298.876 598.676 321.308 582.993 332.99C563.386 307.989 542.475 288.369 514.381 271.906C535.304 291.539 554.247 292.817 574.493 288.727C567.31 291.871 576.462 307.056 563.399 307.989C586.93 264.058 536.608 286.145 515.684 266.525C535.956 262.448 547.715 266.883 563.45 284.88C571.081 291.846 576.449 298.646 580.066 304.359Z" fill="#84D3F6"/>
<path fill-rule="evenodd" clip-rule="evenodd" d="M581.831 310.583C576.45 307.043 569.254 310.2 562.084 313.37C562.084 313.37 584.963 298.504 563.4 307.989C518.971 332.3 445.117 292.702 397.416 251.25L403.295 253.474C376.492 231.63 346.455 196.838 363.416 179.774C421.573 125.452 552.267 221.673 577.767 301.687C562.723 284.291 543.141 259.29 515.673 266.537C536.597 286.157 591.494 271.675 563.387 308.001C576.45 307.068 567.299 291.884 574.482 288.739C577.767 301.687 594.102 313.728 584.286 327.634C564.691 302.633 549.66 285.237 521.552 268.761C527.432 270.985 537.9 280.789 543.767 283C524.825 281.735 514.369 271.918 505.217 256.734C517.654 284.879 547.039 295.974 570.788 308.768C584.26 311.989 581.359 309.893 581.831 310.583Z" fill="url(#paint7_linear_200_19436)"/>
<path fill-rule="evenodd" clip-rule="evenodd" d="M580.083 304.372C560.796 265.924 484.974 207.997 469.955 243.377C466.018 259.495 513.746 300.972 548.359 290.568L547.055 295.936C554.251 292.792 561.435 289.634 567.314 291.859C561.435 289.634 555.555 287.41 550.992 279.831C552.935 298.16 563.403 307.976 573.859 317.78C576.466 307.031 579.099 296.294 568.631 286.477C566.01 297.24 558.827 300.384 547.055 295.949C558.827 300.384 566.662 320.95 573.859 317.793C581.042 314.648 590.846 300.742 581.694 285.544C555.542 234.622 509.822 264.314 471.272 238.022C493.474 252.273 513.081 277.262 545.099 277.607C539.207 275.383 539.207 275.383 533.34 273.172C543.783 282.975 561.435 289.634 574.204 298.812C578.025 302.237 580.083 304.551 580.083 304.372Z" fill="white"/>
<path fill-rule="evenodd" clip-rule="evenodd" d="M654.84 306.709C625.339 311.042 621.85 330.279 599.379 315.772C616.814 308.601 637.38 294.247 652.117 282.258C566.402 358.987 426.531 339.265 309.923 350.947C277.687 350.308 270.938 350.231 326.577 351.561L326.373 352.264L325.657 355.05L324.698 360.687C324.315 364.803 324.366 357.402 324.379 356.277C324.162 352.302 325.951 342.601 328.993 335.072C331.907 327.25 337.404 319.031 343.552 311.285C427.745 303.156 507.146 329.883 587.748 320.527C576.116 325.307 573.407 320.475 564.881 318.034C570.697 315.657 573.407 320.475 579.21 318.085C510.252 322.699 438.559 322.457 368.77 321.587C355.886 320.782 334.822 318.852 333.505 318.75L333.211 318.315L332.674 317.497C332.189 317.242 332.483 315.491 332.406 314.532C332.508 312.257 333.109 309.138 334.183 305.7C336.317 298.836 339.87 290.515 349.201 278.692C442.534 202.154 623.115 205.158 689.299 284.801C741.551 352.34 568 310.863 498.211 339.495C549.735 342.089 598.983 327.799 640.089 299.079C636.971 306.275 654.021 311.145 645.1 320.744C632.356 272.582 610.615 323.045 581.945 322.93C593.973 306.121 605.604 301.354 629.404 303.782C639.731 303.693 648.283 305.009 654.84 306.709Z" fill="url(#paint8_linear_200_19436)"/>
<path fill-rule="evenodd" clip-rule="evenodd" d="M685.769 315.606C679.57 318.443 676.477 325.652 673.371 332.848C676.477 325.652 682.279 323.262 676.873 313.625C639.588 400.119 493.812 471.85 386.47 435.806C372.372 428.482 358.734 421.899 348.585 412.453C326.6 392.846 321.104 374.53 321.245 357.223C322.843 341.808 328.645 329.359 336.775 318.75C423.486 257.436 561.057 260.286 654.402 299.104C631.152 308.64 597.05 298.913 581.917 322.917C610.586 323.019 640.854 274.998 645.072 320.731C654.006 311.132 636.955 306.262 640.061 299.066L634.245 301.431C674.955 284.725 693.106 342.563 733.803 325.831C645.877 296.663 567.167 334.919 477.643 353.874C540.005 375.744 612.491 351.906 666.686 328.835C689.757 317.28 683.289 316.283 685.769 315.606Z" fill="url(#paint9_linear_200_19436)"/>
<path fill-rule="evenodd" clip-rule="evenodd" d="M654.812 306.722C636.56 318.302 616.416 320.629 599.365 315.772C611.009 310.991 617.208 296.586 631.55 296.624C566.784 346.946 461.015 336.977 377.281 353.529C394.728 346.384 411.779 351.254 423.398 346.473C423.398 346.473 416.79 372.919 426.108 351.292C445.153 296.011 530.382 320.36 587.721 320.539C542 315.58 492.765 329.857 444.347 320.066C494.772 269.693 572.664 255.518 646.67 272.607C678.05 277.528 679.98 306.415 676.465 325.652C645.073 320.731 616.403 320.629 584.628 327.748C613.31 327.838 628.035 315.848 640.075 299.066C636.956 306.262 654.007 311.132 645.086 320.731C632.342 272.569 610.6 323.032 581.931 322.917C593.958 306.109 605.59 301.341 629.389 303.769C639.73 303.693 648.281 305.009 654.812 306.722Z" fill="#84D3F6"/>
<path fill-rule="evenodd" clip-rule="evenodd" d="M660.361 310.058C654.008 311.144 650.902 318.353 647.796 325.575C647.796 325.575 654.417 299.129 645.087 320.743C629.16 368.816 548.149 390.212 484.982 392.398L490.81 390.008C456.325 392.309 410.604 387.337 411.397 363.268C416.893 283.881 578.11 265.155 651.324 306.3C628.445 303.82 597.065 298.912 581.932 322.916C610.601 323.018 640.869 274.997 645.087 320.731C654.021 311.131 636.97 306.262 640.076 299.065C651.311 306.313 671.468 303.961 673.769 320.82C642.364 315.899 619.536 313.419 587.735 320.539C593.538 318.161 607.891 318.2 613.707 315.81C598.97 327.799 584.629 327.748 567.59 322.891C595.864 335.008 624.93 323.07 651.03 316.231C663.109 309.444 659.543 309.866 660.361 310.058Z" fill="url(#paint10_linear_200_19436)"/>
<path fill-rule="evenodd" clip-rule="evenodd" d="M654.855 306.721C614.516 291.741 519.547 301.059 532.7 337.193C540.829 351.662 603.984 349.476 622.236 318.238L624.933 323.069C628.052 315.86 631.171 308.651 636.974 306.261C631.171 308.639 625.342 311.041 616.817 308.6C630.762 320.679 645.103 320.73 659.431 320.781C654.025 311.131 648.618 301.493 634.277 301.43C639.696 311.08 636.577 318.302 624.946 323.069C636.59 318.302 656.338 327.99 659.444 320.781C662.563 313.572 660.249 296.713 643.198 291.83C589.361 272.415 576.132 325.319 530.016 332.374C555.988 327.658 587.368 332.553 611.039 310.978C605.211 313.355 605.211 313.355 599.395 315.758C613.736 315.796 631.184 308.639 646.765 306.645C651.89 306.555 654.958 306.849 654.855 306.721Z" fill="white"/>
<path fill-rule="evenodd" clip-rule="evenodd" d="M477.504 251.442C477.504 251.442 455.749 245.191 416.317 215.921C377.933 187.379 341.441 150.67 347.845 98.7118C349.059 88.7292 354.555 74.452 362.046 62.207C367.606 53.0808 374.751 45.8207 379.633 41.3599C391.022 30.9427 404.456 25.2548 412.84 24.2962C448.77 20.1421 484.086 55.0109 467.956 89.8668C461.002 104.962 446.265 113.705 431.31 103.441C425.328 99.3381 423.731 92.3337 427.373 86.339C428.038 85.227 428.882 84.9203 431.246 85.1248C435.464 85.4827 436.806 86.5819 438.289 87.2849C439.772 87.9496 441.101 87.7195 441.906 85.1248C444.82 75.7557 427.476 77.3918 423.705 86.0451C416.995 101.524 436.985 112.912 449.984 109.397C461.859 106.176 470.678 92.436 472.928 81.2008C474.973 70.9498 473.337 61.9258 469.911 54.0778C467.265 47.9681 463.968 42.6509 457.883 37.3464C413.237 -1.47191 363.094 38.3306 348.292 86.2496C336.635 123.918 352.242 157.943 377.972 185.36C405.759 214.937 440.551 238.532 477.504 251.442Z" fill="url(#paint11_linear_200_19436)"/>
<path fill-rule="evenodd" clip-rule="evenodd" d="M493.199 243.504C493.199 243.504 449.267 224.574 429.123 206.948C372.206 157.162 378.367 74.3364 432.447 26.7881C448.309 12.856 472.952 6.28613 492.879 15.4507C501.353 19.3747 521.561 31.249 524.808 42.3436C529.205 57.49 511.528 64.4561 509.495 53.2976C508.23 46.2676 513.24 47.942 513.24 47.942L513.432 49.7698C513.701 52.4412 516.538 52.5179 517.663 50.4089C517.995 49.8082 518.264 49.233 518.302 48.5683C518.57 43.2511 511.847 43.0977 508.69 46.2676C505.507 49.4503 507.783 56.3269 510.761 58.781C514.02 61.4652 518.545 61.5291 522.942 58.1291C530.33 52.4412 528.285 41.4233 523.798 34.8151C521.127 30.8783 511.553 20.9852 500.05 15.374C459.263 -4.54005 419.869 19.9499 397.45 54.5886C384.86 74.0424 378.699 93.343 377.651 111.851C374.187 172.334 425.199 224.471 484.328 246.379C491.435 249.012 491.447 249 491.447 249L493.199 243.504Z" fill="url(#paint12_linear_200_19436)"/>
<path fill-rule="evenodd" clip-rule="evenodd" d="M507.708 187.571C507.708 187.571 510.06 174.456 497.84 170.315C485.595 166.161 474.002 166.723 464.94 172.577C455.878 178.406 452.056 188.133 453.04 200.084C454.024 212.048 460.862 223.168 466.346 227.705C471.804 232.23 486.528 241.829 486.528 241.829C474.104 240.653 456.772 232.793 447.684 223.04C442.201 217.135 441.46 211.549 443.287 203.599C443.287 203.599 440.565 195.24 440.028 191.993C437.267 175.147 447.71 146.03 470.129 152.484C474.756 153.827 478.501 156.779 478.501 156.779C478.501 156.779 483.18 150.35 488.254 150.708C493.29 151.053 517.026 157.674 507.708 187.571Z" fill="url(#paint13_linear_200_19436)"/>
<path d="M733.281 292.113C733.281 292.113 522.075 287.78 435.324 227.054C344.011 163.145 297.78 104.348 272.382 65.4535C247.01 26.5584 210.889 1.54445 163.762 0.751975C127.028 0.125667 65.5215 29.511 95.6098 101.945C119.448 159.349 124.637 113.909 227.02 179.326C329.427 244.718 405.965 281.389 589.332 292.982C772.7 304.563 733.281 292.113 733.281 292.113Z" fill="url(#paint14_linear_200_19436)"/>
<path d="M702.938 290.796C702.938 290.796 500.692 295.858 406.592 247.287C307.546 196.173 256.419 159.706 226.062 124.543C195.718 89.4063 158.523 64.3412 100.66 76.6245C47.9605 87.8214 18.3962 148.522 45.5575 187.647C72.706 226.785 75.9015 195.636 186.132 246.75C296.349 297.877 377.13 323.94 560.396 310.902C743.648 297.89 702.938 290.796 702.938 290.796Z" fill="url(#paint15_linear_200_19436)"/>
<path d="M634.033 365.545C632.614 367.194 626.786 338.704 589.015 320.119C551.859 300.397 491.72 301.585 434.432 297.904C376.416 293.788 317.032 286.081 277.728 266.039C237.925 246.636 221.628 219.513 216.822 212.113C206.929 196.11 202.826 176.081 176.547 184.785C151.648 192.838 154.434 209.876 177.275 239.325C183.053 245.46 208.335 280.572 258.286 299.387C307.228 319.339 370.83 321.41 429.869 319.94C490.033 318.521 547.487 310.878 585.155 325.858C623.245 339.151 632.857 367.079 634.033 365.545Z" fill="url(#paint16_linear_200_19436)"/>
<path d="M620.892 273.989C622.055 275.459 613.977 285.863 599.342 285.48C592.273 284.853 584.361 280.456 580.655 273.516C576.373 267.023 581.894 257.769 587.736 254.535C591.059 254.062 590.254 257.04 585.652 259.021C583.134 259.213 577.574 256.963 573.471 252.4C565.981 243.568 567.119 235.528 567.451 233.624C566.927 228.051 572.564 220.855 565.201 206.884C556.663 192.249 533.324 217.774 538.935 234.237C538.986 237.42 541.005 255.391 557.456 268.633C565.483 273.861 576.27 282.22 593.334 275.535C599.968 271.241 605.656 265.847 604.966 254.356C604.314 248.157 601.08 245.92 597.616 242.456C591.583 238.877 586.087 240.155 581.92 242.443C570.915 251.148 565.559 264.952 573.049 276.89C580.195 286.668 590.152 289.915 598.958 289.442C615.805 287.474 621.965 275.139 620.892 273.989Z" fill="url(#paint17_linear_200_19436)"/>
<path fill-rule="evenodd" clip-rule="evenodd" d="M548.594 312.589C548.594 312.589 530.649 301.801 485.938 293.582C442.365 285.593 394.471 284.06 363.335 321.178C357.353 328.323 351.154 341.041 347.575 353.848C344.916 363.371 344.494 372.816 344.558 378.913C344.686 393.203 349.326 405.896 353.966 412.172C373.829 439.116 419.728 441.033 433.149 408.12C438.99 393.855 435.616 378.364 419.23 374.721C412.685 373.264 406.933 376.587 405.157 382.863C404.837 383.988 405.157 384.78 406.793 386.25C409.694 388.87 411.305 389.088 412.685 389.663C414.091 390.251 414.769 391.286 413.516 393.472C409.004 401.358 399.162 388.551 402.639 380.562C408.889 366.234 429.225 372.599 435.053 383.63C440.371 393.702 436.638 408.35 430.439 416.939C424.79 424.8 417.657 429.376 410.18 432.022C404.352 434.08 398.689 435.23 391.263 434.438C336.8 428.711 332.083 369.634 355.206 329.358C373.356 297.711 406.243 286.808 441.061 286.923C478.601 287.025 516.537 295.704 548.594 312.589Z" fill="#EC529E"/>
<path fill-rule="evenodd" clip-rule="evenodd" d="M553.143 328.233C553.143 328.233 512.599 310.428 487.943 307.922C418.295 300.79 366.107 357.247 368.024 423.866C368.612 443.41 379.694 464.231 398.496 471.951C406.484 475.223 427.28 481.423 436.854 476.591C449.879 470.021 443.437 453.661 434.604 459.323C429.057 462.889 433.352 465.241 433.352 465.241L434.707 464.193C436.675 462.697 438.516 464.563 437.813 466.66C437.608 467.273 437.391 467.823 436.969 468.27C433.544 471.811 429.198 467.363 429.351 463.209C429.492 459.029 435.589 456.242 439.129 456.703C442.989 457.227 445.904 460.256 446.364 465.381C447.182 473.971 438.413 479.531 431.115 480.681C426.769 481.371 414.013 481.116 402.957 476.872C363.729 461.815 355.447 419.674 364.765 382.632C369.992 361.836 379.183 345.488 391.057 333.064C429.824 292.572 497.35 294.208 549.5 320.423C555.776 323.567 555.776 323.593 555.776 323.593L553.143 328.233Z" fill="#EC529E"/>
<path fill-rule="evenodd" clip-rule="evenodd" d="M524.413 373.353C524.413 373.353 517.025 383.234 506.493 377.571C495.948 371.896 489.007 363.69 487.269 353.861C485.479 344.019 489.672 335.289 498.376 328.425C507.106 321.536 518.955 319.171 525.499 320.015C532.018 320.846 547.803 324.757 547.803 324.757C539.163 317.075 522.905 310.314 510.57 310.301C503.105 310.339 498.862 313.343 494.631 319.619C494.631 319.619 487.256 323.031 484.7 324.731C471.56 333.487 458.42 358.948 476.954 370.043C480.788 372.344 485.134 373.008 485.134 373.008C485.134 373.008 483.754 380.217 487.179 383.438C490.592 386.646 510.059 398.534 524.413 373.353Z" fill="#EC529E"/>
<path d="M759.945 367.077C758.514 368.202 747.227 339.405 716.871 309.086C682.117 281.606 617.633 279.854 557.776 287.6C497.215 296.726 435.288 301.341 391.957 279.637C348.243 260.643 324.124 233.265 316.698 226.414C302.05 210.641 290.585 190.65 275.528 199.585C261.225 207.867 268.638 222.733 294.662 247.35C301.59 252.578 329.084 280.877 378.115 300.369C427.35 322.264 496.73 315.362 555.577 302.082C614.718 290.591 677.63 288.086 713.023 311.604C744.939 338.715 758.693 368.637 759.945 367.077Z" fill="url(#paint18_linear_200_19436)"/>
<path d="M746.063 360.701C745.04 361.634 743.519 343.279 721.164 328.785C699.294 313.626 661.409 309.881 625.684 303.285C589.537 296.37 552.802 287.078 529.59 271.561C506.046 256.389 497.828 238.124 495.361 233.126C490.337 222.338 489.251 209.454 472.085 212.969C455.852 216.152 456.312 227.067 468.468 247.288C471.663 251.583 484.918 275.536 514.904 291.066C544.161 307.273 583.964 313.319 621.172 316.808C659.095 320.413 695.766 319.889 718.301 332.121C741.257 343.318 745.206 361.583 746.063 360.701Z" fill="url(#paint19_linear_200_19436)"/>
<path d="M714.673 356.699C712.346 358.233 724.425 332.427 699.053 310.468C672.454 290.4 623.909 289.787 578.24 291.129C531.586 293.826 484.92 304 448.364 305.304C411.642 307.668 386.053 300.702 378.562 299.041C363.058 294.963 348.129 286.629 340.639 302.428C333.379 317.421 344.41 324.003 371.635 328.63C378.294 329.372 407.948 334.894 446.689 329.845C485.508 325.755 531.331 311.861 576.45 305.38C620.893 300.165 669.476 297.187 695.73 313.305C721.575 330.854 712.858 358.386 714.673 356.699Z" fill="url(#paint20_linear_200_19436)"/>
<path d="M699.528 313.65C699.771 314.711 692.447 288.879 663.177 278.756C634.201 272.736 621.355 258.612 624.461 257.167C624.333 255.519 623.502 247.773 604.406 246.674C587.202 246.073 587.803 265.782 596.149 275.113C598.015 276.966 606.86 287.256 620.268 290.796C633.216 294.771 647.915 294.196 660.301 293.838C683.359 293.57 700.282 313.867 699.528 313.65Z" fill="url(#paint21_linear_200_19436)"/>
<path d="M698.413 298.16C700.446 300.09 657.512 330.728 610.181 318.866C589.551 315.786 569.241 296.881 541.287 298.16C514.24 299.208 498.992 314.712 495.362 317.013C485.648 324.95 467.958 346.858 485.162 361.187C501.037 374.748 518.101 353.62 523.354 345.554C525.143 343.535 531.368 333.667 543.856 330.037C555.756 323.953 577.817 335.751 607.484 337.182C662.56 339.943 701.366 299.157 698.413 298.16Z" fill="url(#paint22_linear_200_19436)"/>
<path d="M599.573 337.232C598.652 339.034 585.679 321.421 559.463 323.147C529.759 333.116 533.657 371.232 538.412 376.574C540.687 383.285 556.051 394.814 563.643 378.913C570.532 364.981 565.969 361.377 563.681 360.329C563.132 359.741 560.32 358.974 559.847 354.078C558.939 348.442 559.847 339.022 564.282 336.056C576.821 328.592 600.838 338.421 599.573 337.232Z" fill="url(#paint23_linear_200_19436)"/>
<path d="M174.703 256.784C174.703 257.935 175.636 258.855 176.774 258.855C177.911 258.855 178.844 257.935 178.844 256.784C178.844 255.647 177.911 254.727 176.774 254.727C175.636 254.727 174.703 255.647 174.703 256.784Z" fill="white"/>
<path d="M201.727 273.976C201.727 276.225 203.542 278.053 205.804 278.053C208.041 278.053 209.869 276.225 209.869 273.976C209.869 271.739 208.041 269.924 205.804 269.924C203.554 269.924 201.727 271.739 201.727 273.976Z" fill="white"/>
<path d="M233.422 262.728C233.422 264.734 235.045 266.358 237.039 266.358C239.046 266.358 240.682 264.734 240.682 262.728C240.682 260.734 239.059 259.098 237.039 259.098C235.045 259.11 233.422 260.734 233.422 262.728Z" fill="white"/>
<path d="M259.359 311.926C259.359 312.258 259.641 312.527 259.973 312.527C260.292 312.527 260.548 312.258 260.548 311.926C260.548 311.606 260.292 311.338 259.973 311.338C259.641 311.338 259.359 311.606 259.359 311.926Z" fill="white"/>
<path d="M287.477 281.415C287.477 282.144 288.077 282.732 288.806 282.732C289.534 282.732 290.135 282.144 290.135 281.415C290.135 280.687 289.547 280.086 288.806 280.086C288.077 280.086 287.477 280.687 287.477 281.415Z" fill="white"/>
<path d="M320.336 283.23C320.336 286.234 322.752 288.649 325.73 288.649C328.721 288.649 331.137 286.234 331.137 283.23C331.137 280.252 328.721 277.836 325.73 277.836C322.752 277.836 320.336 280.252 320.336 283.23Z" fill="white"/>
<path d="M353.738 307.146C353.738 307.925 354.403 308.564 355.17 308.564C355.962 308.564 356.601 307.925 356.601 307.146C356.601 306.353 355.962 305.701 355.17 305.701C354.39 305.701 353.738 306.353 353.738 307.146Z" fill="white"/>
<path d="M380.922 334.767C380.922 337.208 382.89 339.177 385.332 339.177C387.773 339.177 389.754 337.208 389.754 334.767C389.754 332.326 387.773 330.357 385.332 330.357C382.89 330.357 380.922 332.326 380.922 334.767Z" fill="white"/>
<path d="M413.812 329.589C413.812 333.04 416.599 335.827 420.037 335.827C423.488 335.827 426.288 333.04 426.288 329.589C426.288 326.125 423.488 323.326 420.037 323.326C416.599 323.326 413.812 326.125 413.812 329.589Z" fill="white"/>
<path d="M449.398 292.023C449.398 295.436 452.159 298.197 455.572 298.197C458.985 298.197 461.733 295.436 461.733 292.023C461.733 288.61 458.985 285.85 455.572 285.85C452.172 285.85 449.398 288.61 449.398 292.023Z" fill="white"/>
<path d="M489.738 353.313C489.738 356.508 492.346 359.103 495.528 359.103C498.737 359.103 501.331 356.508 501.331 353.313C501.331 350.104 498.737 347.51 495.528 347.51C492.346 347.51 489.738 350.104 489.738 353.313Z" fill="white"/>
<path d="M521.023 294.772C521.023 296.306 522.276 297.584 523.823 297.584C525.369 297.584 526.635 296.306 526.635 294.772C526.635 293.225 525.369 291.947 523.823 291.947C522.276 291.947 521.023 293.225 521.023 294.772Z" fill="white"/>
<path d="M546.219 334.984C546.219 337.285 548.072 339.138 550.386 339.138C552.686 339.138 554.527 337.285 554.527 334.984C554.527 332.684 552.674 330.83 550.386 330.83C548.085 330.817 546.219 332.684 546.219 334.984Z" fill="white"/>
<path d="M569.277 285.902C569.277 287.678 570.709 289.097 572.486 289.097C574.224 289.097 575.668 287.678 575.668 285.902C575.668 284.15 574.224 282.719 572.486 282.719C570.696 282.706 569.277 284.138 569.277 285.902Z" fill="white"/>
<path d="M604.426 285.607C604.426 286.949 605.512 288.023 606.841 288.023C608.171 288.023 609.244 286.949 609.244 285.607C609.244 284.29 608.158 283.217 606.841 283.217C605.512 283.217 604.426 284.29 604.426 285.607Z" fill="white"/>
<path d="M637.086 330.024C637.086 330.906 637.789 331.622 638.658 331.622C639.54 331.622 640.256 330.906 640.256 330.024C640.256 329.155 639.54 328.439 638.658 328.439C637.802 328.439 637.086 329.142 637.086 330.024Z" fill="white"/>
<path d="M667.969 276.968C667.969 278.067 668.863 278.962 669.963 278.962C671.062 278.962 671.944 278.067 671.944 276.968C671.944 275.868 671.062 274.961 669.963 274.961C668.863 274.974 667.969 275.868 667.969 276.968Z" fill="white"/>
<path d="M723.148 310.725C723.148 311.274 723.609 311.735 724.184 311.735C724.746 311.735 725.194 311.274 725.194 310.725C725.194 310.137 724.746 309.689 724.184 309.689C723.621 309.689 723.148 310.137 723.148 310.725Z" fill="white"/>
<path d="M716.699 240.066C716.699 241.229 717.632 242.188 718.795 242.188C719.959 242.188 720.917 241.229 720.917 240.066C720.917 238.89 719.959 237.957 718.795 237.957C717.632 237.957 716.699 238.89 716.699 240.066Z" fill="white"/>
<path d="M612.712 267.457C609.082 266.92 605.695 269.451 605.158 273.093C604.621 276.723 607.152 280.111 610.795 280.647C614.425 281.184 617.825 278.653 618.361 275.036C618.885 271.393 616.355 267.993 612.712 267.457ZM610.897 279.957C607.65 279.471 605.401 276.455 605.874 273.208C606.334 269.962 609.376 267.699 612.622 268.172C615.856 268.658 618.131 271.675 617.646 274.934C617.173 278.168 614.143 280.43 610.897 279.957Z" fill="white"/>
<path d="M541.682 247.914C540.864 247.786 540.097 248.362 539.956 249.205C539.841 250.023 540.416 250.803 541.247 250.918C542.091 251.046 542.87 250.471 542.985 249.64C543.088 248.796 542.512 248.017 541.682 247.914ZM541.26 250.765C540.531 250.65 540.007 249.959 540.135 249.218C540.237 248.489 540.927 247.965 541.669 248.068C542.397 248.195 542.921 248.873 542.819 249.614C542.704 250.343 542.001 250.867 541.26 250.765Z" fill="white"/>
<path d="M472.414 210.604C471.187 210.425 470.036 211.281 469.87 212.508C469.679 213.722 470.548 214.873 471.762 215.052C473.002 215.244 474.139 214.374 474.331 213.16C474.497 211.933 473.641 210.783 472.414 210.604ZM471.788 214.822C470.701 214.668 469.934 213.646 470.088 212.534C470.241 211.447 471.289 210.668 472.376 210.847C473.475 211 474.242 212.035 474.075 213.122C473.922 214.234 472.9 214.988 471.788 214.822Z" fill="white"/>
<path d="M402.396 204.021C399.596 203.612 396.989 205.567 396.567 208.354C396.171 211.153 398.101 213.761 400.9 214.17C403.712 214.579 406.32 212.636 406.729 209.837C407.138 207.037 405.195 204.417 402.396 204.021ZM400.99 213.633C398.497 213.275 396.759 210.936 397.117 208.443C397.487 205.938 399.827 204.2 402.332 204.571C404.824 204.928 406.563 207.267 406.192 209.773C405.821 212.252 403.482 214.003 400.99 213.633Z" fill="white"/>
<path d="M341.799 182.79C338.77 182.343 335.945 184.464 335.498 187.481C335.05 190.497 337.147 193.309 340.176 193.757C343.192 194.204 346.017 192.108 346.464 189.079C346.912 186.049 344.828 183.212 341.799 182.79ZM340.278 193.169C337.581 192.773 335.702 190.255 336.098 187.558C336.495 184.861 339.013 182.982 341.71 183.365C344.407 183.774 346.285 186.279 345.902 188.989C345.493 191.686 342.975 193.552 340.278 193.169Z" fill="white"/>
<path d="M269.555 189.106C267.791 188.837 266.168 190.051 265.912 191.815C265.643 193.566 266.87 195.202 268.622 195.445C270.373 195.701 272.009 194.487 272.264 192.736C272.52 190.984 271.319 189.361 269.555 189.106ZM268.673 195.113C267.113 194.883 266.014 193.426 266.257 191.866C266.487 190.307 267.944 189.221 269.504 189.451C271.063 189.668 272.149 191.138 271.919 192.697C271.702 194.257 270.245 195.343 268.673 195.113Z" fill="white"/>
<path d="M204.18 203.089C199.092 202.348 194.376 205.863 193.635 210.937C192.906 215.999 196.421 220.741 201.483 221.482C206.57 222.211 211.286 218.696 212.028 213.608C212.782 208.547 209.241 203.805 204.18 203.089ZM201.623 220.485C197.111 219.833 193.954 215.602 194.619 211.065C195.271 206.54 199.502 203.383 204.039 204.06C208.564 204.712 211.721 208.956 211.056 213.481C210.379 218.018 206.161 221.15 201.623 220.485Z" fill="white"/>
<path d="M127.526 204.175C124.778 203.779 122.209 205.683 121.813 208.432C121.404 211.192 123.321 213.749 126.069 214.158C128.817 214.554 131.399 212.65 131.795 209.901C132.179 207.128 130.274 204.571 127.526 204.175ZM126.146 213.621C123.679 213.263 121.992 210.962 122.35 208.508C122.708 206.041 124.995 204.354 127.462 204.712C129.916 205.07 131.616 207.345 131.259 209.825C130.901 212.253 128.6 213.979 126.146 213.621Z" fill="white"/>
<path d="M131.207 181.678C126.823 181.039 122.745 184.094 122.093 188.465C121.467 192.85 124.509 196.927 128.893 197.566C133.278 198.205 137.368 195.163 138.007 190.779C138.633 186.408 135.578 182.343 131.207 181.678ZM128.996 196.735C125.072 196.16 122.375 192.517 122.95 188.606C123.512 184.682 127.168 181.972 131.066 182.547C134.99 183.11 137.7 186.765 137.125 190.677C136.562 194.588 132.92 197.298 128.996 196.735Z" fill="white"/>
<path d="M198.083 212.854C195.718 212.509 193.52 214.158 193.175 216.51C192.83 218.862 194.466 221.06 196.83 221.405C199.195 221.75 201.381 220.114 201.726 217.762C202.084 215.398 200.435 213.199 198.083 212.854ZM196.894 220.945C194.798 220.626 193.341 218.67 193.635 216.574C193.955 214.465 195.91 212.995 198.019 213.302C200.128 213.621 201.573 215.577 201.266 217.686C200.972 219.795 199.003 221.252 196.894 220.945Z" fill="white"/>
<path d="M264.905 174.38C261.825 173.92 258.923 176.068 258.489 179.161C258.041 182.241 260.189 185.143 263.269 185.577C266.362 186.025 269.251 183.877 269.698 180.797C270.158 177.704 267.998 174.828 264.905 174.38ZM263.359 184.989C260.61 184.593 258.68 182.011 259.077 179.263C259.486 176.489 262.068 174.585 264.816 174.981C267.577 175.377 269.494 177.959 269.098 180.72C268.701 183.468 266.119 185.398 263.359 184.989Z" fill="white"/>
<path d="M334.053 193.285C328.991 192.556 324.249 196.071 323.508 201.146C322.754 206.207 326.281 210.949 331.356 211.691C336.443 212.432 341.172 208.904 341.914 203.843C342.655 198.768 339.127 194.026 334.053 193.285ZM331.509 210.719C326.984 210.042 323.827 205.824 324.492 201.286C325.157 196.762 329.375 193.605 333.912 194.282C338.463 194.934 341.594 199.177 340.929 203.702C340.265 208.24 336.034 211.384 331.509 210.719Z" fill="white"/>
<path d="M340.42 253.436C338.094 253.104 335.946 254.714 335.601 257.028C335.256 259.341 336.867 261.489 339.18 261.834C341.506 262.179 343.654 260.568 343.999 258.255C344.344 255.928 342.734 253.768 340.42 253.436ZM339.27 261.374C337.199 261.08 335.767 259.137 336.061 257.079C336.381 255.021 338.298 253.577 340.356 253.883C342.427 254.19 343.858 256.12 343.552 258.178C343.258 260.236 341.315 261.667 339.27 261.374Z" fill="white"/>
<path d="M397.543 283.204C394.399 282.744 391.472 284.929 391.011 288.061C390.564 291.205 392.737 294.132 395.881 294.592C399.013 295.052 401.94 292.854 402.4 289.735C402.86 286.578 400.687 283.664 397.543 283.204ZM395.958 293.966C393.159 293.557 391.216 290.95 391.625 288.138C392.047 285.338 394.654 283.383 397.454 283.792C400.266 284.201 402.196 286.821 401.799 289.607C401.39 292.432 398.77 294.375 395.958 293.966Z" fill="white"/>
<path d="M450.008 330.957C448.589 330.752 447.285 331.724 447.055 333.168C446.863 334.574 447.848 335.891 449.254 336.108C450.672 336.312 452.002 335.328 452.206 333.922C452.423 332.491 451.439 331.161 450.008 330.957ZM449.305 335.827C448.039 335.648 447.17 334.459 447.336 333.194C447.528 331.928 448.704 331.046 449.982 331.238C451.248 331.417 452.13 332.593 451.938 333.871C451.746 335.124 450.57 336.006 449.305 335.827Z" fill="white"/>
<path d="M513.016 333.272C508.785 332.645 504.823 335.585 504.222 339.816C503.609 344.034 506.523 347.983 510.766 348.597C514.997 349.223 518.934 346.283 519.56 342.053C520.161 337.809 517.234 333.885 513.016 333.272ZM510.881 347.766C507.111 347.217 504.478 343.702 505.04 339.931C505.59 336.16 509.105 333.54 512.888 334.077C516.659 334.639 519.292 338.154 518.73 341.925C518.18 345.696 514.665 348.316 510.881 347.766Z" fill="white"/>
<path d="M594.112 317.307C588.923 316.553 584.053 320.157 583.299 325.359C582.545 330.549 586.162 335.406 591.351 336.16C596.566 336.914 601.41 333.322 602.165 328.107C602.919 322.918 599.289 318.074 594.112 317.307ZM591.492 335.163C586.852 334.473 583.618 330.152 584.308 325.513C584.973 320.86 589.306 317.639 593.946 318.329C598.599 319.007 601.832 323.34 601.142 327.98C600.477 332.619 596.144 335.853 591.492 335.163Z" fill="white"/>
<path d="M657.332 347.138C653.369 346.563 649.663 349.324 649.075 353.286C648.487 357.261 651.26 360.968 655.236 361.556C659.211 362.119 662.905 359.37 663.493 355.383C664.068 351.433 661.32 347.713 657.332 347.138ZM655.351 360.789C651.81 360.278 649.33 356.967 649.854 353.427C650.378 349.874 653.689 347.419 657.23 347.918C660.783 348.442 663.237 351.74 662.713 355.293C662.214 358.834 658.904 361.313 655.351 360.789Z" fill="white"/>
<path d="M704.482 289.403C699.319 288.649 694.513 292.228 693.746 297.392C693.004 302.543 696.583 307.349 701.747 308.103C706.885 308.844 711.691 305.265 712.458 300.114C713.238 294.963 709.633 290.144 704.482 289.403ZM701.888 307.106C697.273 306.416 694.104 302.121 694.768 297.52C695.446 292.931 699.728 289.735 704.342 290.4C708.943 291.077 712.152 295.372 711.474 299.974C710.784 304.562 706.489 307.771 701.888 307.106Z" fill="white"/>
<path d="M115.973 146.145C113.762 145.813 111.704 147.346 111.385 149.57C111.052 151.782 112.599 153.839 114.798 154.146C117.022 154.479 119.067 152.945 119.386 150.734C119.706 148.522 118.172 146.477 115.973 146.145ZM114.849 153.712C112.88 153.43 111.525 151.603 111.807 149.634C112.088 147.653 113.941 146.298 115.91 146.579C117.878 146.861 119.246 148.688 118.952 150.67C118.658 152.638 116.83 154.006 114.849 153.712Z" fill="white"/>
<path d="M195.963 151.563C194.582 151.372 193.291 152.33 193.087 153.711C192.895 155.091 193.854 156.395 195.234 156.599C196.615 156.791 197.918 155.833 198.136 154.452C198.327 153.072 197.356 151.768 195.963 151.563ZM195.26 156.331C194.046 156.139 193.176 154.989 193.355 153.749C193.521 152.509 194.685 151.653 195.924 151.845C197.164 152.024 198.033 153.174 197.842 154.414C197.663 155.654 196.525 156.51 195.26 156.331Z" fill="white"/>
<path d="M259.461 178.533C256.112 178.047 252.981 180.361 252.482 183.723C251.997 187.071 254.31 190.203 257.672 190.701C261.021 191.187 264.165 188.861 264.651 185.512C265.136 182.15 262.81 179.032 259.461 178.533ZM257.774 190.037C254.783 189.602 252.7 186.816 253.134 183.825C253.569 180.834 256.355 178.738 259.346 179.172C262.337 179.62 264.433 182.406 263.973 185.397C263.564 188.401 260.765 190.471 257.774 190.037Z" fill="white"/>
<path d="M325.214 206.68C321.507 206.143 318.069 208.713 317.532 212.407C316.995 216.1 319.552 219.552 323.258 220.101C326.965 220.638 330.403 218.069 330.94 214.375C331.49 210.681 328.921 207.217 325.214 206.68ZM323.361 219.385C320.076 218.912 317.775 215.832 318.248 212.534C318.734 209.224 321.814 206.923 325.112 207.409C328.422 207.895 330.697 210.962 330.224 214.273C329.726 217.57 326.658 219.871 323.361 219.385Z" fill="white"/>
<path d="M399.079 194.435C398.453 194.358 397.89 194.78 397.801 195.393C397.711 196.007 398.146 196.582 398.759 196.672C399.373 196.748 399.935 196.326 400.025 195.726C400.114 195.112 399.692 194.524 399.079 194.435ZM398.772 196.557C398.235 196.467 397.852 195.956 397.929 195.406C398.018 194.857 398.517 194.473 399.079 194.55C399.616 194.639 399.999 195.151 399.923 195.7C399.833 196.237 399.309 196.62 398.772 196.557Z" fill="white"/>
<path d="M471.716 211.422C466.207 210.617 461.107 214.426 460.314 219.909C459.509 225.392 463.318 230.505 468.802 231.31C474.272 232.116 479.385 228.307 480.19 222.823C480.995 217.34 477.186 212.227 471.716 211.422ZM468.968 230.249C464.06 229.534 460.66 224.971 461.388 220.062C462.091 215.18 466.667 211.78 471.562 212.496C476.458 213.211 479.871 217.774 479.129 222.683C478.426 227.565 473.85 230.952 468.968 230.249Z" fill="white"/>
<path d="M544.814 226.44C542.871 226.158 541.068 227.501 540.787 229.431C540.506 231.361 541.848 233.15 543.778 233.457C545.708 233.725 547.523 232.383 547.804 230.44C548.086 228.51 546.744 226.708 544.814 226.44ZM543.817 233.073C542.104 232.818 540.902 231.207 541.158 229.482C541.414 227.756 543.011 226.567 544.75 226.81C546.475 227.066 547.689 228.676 547.434 230.402C547.153 232.14 545.555 233.329 543.817 233.073Z" fill="white"/>
<path d="M557.994 243.145C554.07 242.57 550.427 245.292 549.839 249.204C549.277 253.115 551.987 256.77 555.911 257.346C559.835 257.921 563.49 255.198 564.066 251.274C564.628 247.363 561.918 243.707 557.994 243.145ZM556.026 256.592C552.524 256.08 550.095 252.821 550.606 249.319C551.118 245.816 554.364 243.388 557.879 243.912C561.381 244.423 563.81 247.683 563.299 251.185C562.775 254.661 559.541 257.09 556.026 256.592Z" fill="white"/>
<path d="M494.993 253.832C490.826 253.218 486.954 256.12 486.34 260.274C485.726 264.428 488.615 268.314 492.782 268.927C496.949 269.528 500.822 266.626 501.435 262.472C502.036 258.318 499.147 254.433 494.993 253.832ZM492.897 268.109C489.19 267.56 486.608 264.108 487.145 260.389C487.695 256.669 491.146 254.1 494.865 254.637C498.585 255.174 501.167 258.651 500.617 262.357C500.08 266.064 496.617 268.646 492.897 268.109Z" fill="white"/>
<path d="M476.83 271.648C474.184 271.265 471.743 273.093 471.36 275.713C470.976 278.359 472.791 280.813 475.437 281.184C478.07 281.58 480.511 279.752 480.895 277.119C481.291 274.499 479.451 272.032 476.83 271.648ZM475.501 280.685C473.149 280.34 471.526 278.154 471.871 275.803C472.216 273.464 474.402 271.827 476.754 272.16C479.093 272.505 480.729 274.703 480.396 277.042C480.051 279.394 477.866 281.03 475.501 280.685Z" fill="white"/>
<path d="M542.375 303.387C537.339 302.659 532.648 306.148 531.92 311.171C531.178 316.207 534.668 320.898 539.704 321.627C544.74 322.368 549.418 318.879 550.159 313.843C550.901 308.832 547.411 304.129 542.375 303.387ZM539.844 320.681C535.371 320.004 532.226 315.811 532.891 311.337C533.568 306.838 537.761 303.732 542.235 304.384C546.734 305.036 549.853 309.228 549.201 313.728C548.536 318.201 544.344 321.333 539.844 320.681Z" fill="white"/>
<path d="M592.507 328.771C588.787 328.222 585.323 330.791 584.774 334.523C584.237 338.243 586.819 341.719 590.538 342.269C594.271 342.806 597.734 340.211 598.271 336.504C598.834 332.772 596.226 329.308 592.507 328.771ZM590.641 341.528C587.317 341.042 585.004 337.936 585.502 334.613C585.988 331.289 589.081 328.989 592.404 329.474C595.728 329.96 598.028 333.053 597.556 336.364C597.07 339.712 593.964 342.013 590.641 341.528Z" fill="white"/>
<path d="M638.724 364.7C636.794 364.406 634.979 365.761 634.697 367.691C634.416 369.621 635.758 371.423 637.688 371.717C639.631 371.999 641.433 370.657 641.715 368.727C642.009 366.784 640.666 364.981 638.724 364.7ZM637.765 371.334C636.039 371.078 634.825 369.468 635.081 367.742C635.336 366.004 636.947 364.815 638.673 365.058C640.411 365.314 641.612 366.924 641.357 368.65C641.101 370.375 639.491 371.59 637.765 371.334Z" fill="white"/>
<path d="M660.347 288.521C662.904 284.111 664.041 284.124 666.227 288.712C666.15 283.625 667.109 283.127 671.263 286.067C668.694 281.682 669.307 280.724 674.407 281.094C669.998 278.512 670.01 277.413 674.599 275.228C669.525 275.304 669.013 274.333 671.953 270.191C667.569 272.761 666.623 272.147 666.994 267.047C664.412 271.457 663.3 271.444 661.127 266.855C661.191 271.943 660.245 272.441 656.091 269.501C658.647 273.885 658.047 274.844 652.947 274.461C657.356 277.03 657.344 278.155 652.742 280.34C657.829 280.251 658.353 281.222 655.414 285.363C659.759 282.82 660.718 283.421 660.347 288.521Z" fill="url(#paint24_linear_200_19436)"/>
<path d="M645.663 280.839C651.21 279.663 652.015 280.596 649.855 285.824C653.984 281.964 655.121 282.373 655.799 287.984C657.499 282.603 658.726 282.411 662.215 286.872C661.039 281.325 661.985 280.507 667.2 282.68C663.34 278.551 663.749 277.427 669.36 276.724C663.979 275.024 663.787 273.809 668.235 270.32C662.701 271.483 661.883 270.537 664.03 265.322C659.914 269.182 658.777 268.761 658.1 263.162C656.4 268.543 655.185 268.735 651.67 264.274C652.846 269.821 651.913 270.639 646.685 268.492C650.558 272.608 650.136 273.745 644.551 274.423C649.932 276.123 650.111 277.35 645.663 280.839Z" fill="url(#paint25_linear_200_19436)"/>
<path d="M607.098 245.369C614.102 245.216 614.882 246.545 611.06 252.373C616.952 248.641 618.243 249.408 617.783 256.361C621.081 250.226 622.628 250.29 625.849 256.476C625.695 249.485 627.024 248.718 632.84 252.514C629.095 246.647 629.875 245.343 636.841 245.791C630.693 242.493 630.744 240.959 636.956 237.738C629.951 237.892 629.172 236.562 632.994 230.721C627.101 234.466 625.81 233.686 626.27 226.733C622.973 232.881 621.452 232.843 618.231 226.631C618.384 233.623 617.042 234.389 611.213 230.58C614.933 236.46 614.179 237.751 607.213 237.304C613.348 240.614 613.31 242.148 607.098 245.369Z" fill="url(#paint26_linear_200_19436)"/>
<path d="M578.471 218.514C582.83 216.942 583.597 217.594 582.446 222.08C585.335 218.476 586.307 218.68 587.508 223.128C588.275 218.591 589.234 218.284 592.595 221.492C591.01 217.146 591.675 216.367 596.148 217.517C592.531 214.615 592.749 213.644 597.209 212.455C592.659 211.701 592.352 210.704 595.573 207.368C591.202 208.953 590.435 208.301 591.573 203.815C588.684 207.419 587.7 207.215 586.511 202.754C585.77 207.317 584.785 207.611 581.424 204.39C583.022 208.749 582.344 209.515 577.871 208.391C581.462 211.267 581.271 212.251 576.797 213.452C581.373 214.194 581.68 215.178 578.471 218.514Z" fill="url(#paint27_linear_200_19436)"/>
<path d="M531.305 204.723C536.661 202.358 537.709 203.151 536.609 208.864C539.984 204.097 541.211 204.276 543.09 209.797C543.665 203.994 544.879 203.534 549.366 207.305C547.014 201.949 547.781 200.927 553.52 202.001C548.739 198.652 548.906 197.399 554.44 195.52C548.637 194.932 548.164 193.743 551.948 189.244C546.592 191.609 545.544 190.842 546.63 185.103C543.281 189.883 542.016 189.704 540.163 184.17C539.588 189.973 538.361 190.433 533.887 186.662C536.239 192.031 535.472 193.053 529.733 191.967C534.513 195.316 534.347 196.568 528.812 198.447C534.628 199.035 535.076 200.249 531.305 204.723Z" fill="url(#paint28_linear_200_19436)"/>
<path d="M547.524 172.155C546.207 165.176 547.422 164.167 553.902 167.03C549.16 161.738 549.722 160.332 556.778 159.629C550.067 157.354 549.863 155.794 555.538 151.538C548.559 152.867 547.549 151.653 550.412 145.173C545.134 149.902 543.702 149.34 543.012 142.297C540.737 148.995 539.177 149.212 534.934 143.511C536.25 150.49 535.036 151.5 528.556 148.649C533.298 153.928 532.735 155.334 525.68 156.037C532.39 158.312 532.595 159.872 526.907 164.128C533.898 162.824 534.895 164.013 532.045 170.494C537.324 165.777 538.755 166.327 539.446 173.382C541.708 166.672 543.255 166.467 547.524 172.155Z" fill="url(#paint29_linear_200_19436)"/>
<defs>
<radialGradient id="paint0_radial_200_19436" cx="0" cy="0" r="1" gradientUnits="userSpaceOnUse" gradientTransform="translate(704.779 396.911) rotate(-165.322) scale(95.8869 14.5307)">
<stop offset="0.3455" stop-color="#565759"/>
<stop offset="0.5455" stop-color="#A1A3A6"/>
<stop offset="0.5701" stop-color="#B1B3B5"/>
<stop offset="0.6235" stop-color="#CDCED0"/>
<stop offset="0.6808" stop-color="#E3E4E5"/>
<stop offset="0.7433" stop-color="#F3F3F4"/>
<stop offset="0.8148" stop-color="#FCFCFC"/>
<stop offset="0.9152" stop-color="white"/>
</radialGradient>
<radialGradient id="paint1_radial_200_19436" cx="0" cy="0" r="1" gradientUnits="userSpaceOnUse" gradientTransform="translate(745.056 273.711) rotate(180) scale(88.737 88.737)">
<stop offset="0.3333" stop-color="white"/>
<stop offset="1" stop-color="#D1D3D4"/>
</radialGradient>
<radialGradient id="paint2_radial_200_19436" cx="0" cy="0" r="1" gradientUnits="userSpaceOnUse" gradientTransform="translate(736.343 306.272) rotate(180) scale(78.3233 78.3233)">
<stop offset="0.0909" stop-color="#919396"/>
<stop offset="1" stop-color="#231F20"/>
</radialGradient>
<linearGradient id="paint3_linear_200_19436" x1="800.489" y1="329.575" x2="651.477" y2="329.575" gradientUnits="userSpaceOnUse">
<stop offset="0.097" stop-color="#84D3F6"/>
<stop offset="1" stop-color="white"/>
</linearGradient>
<linearGradient id="paint4_linear_200_19436" x1="850.349" y1="285.07" x2="706.69" y2="285.07" gradientUnits="userSpaceOnUse">
<stop offset="0.097" stop-color="#84D3F6"/>
<stop offset="1" stop-color="white"/>
</linearGradient>
<linearGradient id="paint5_linear_200_19436" x1="701.04" y1="377.459" x2="408.393" y2="119.691" gradientUnits="userSpaceOnUse">
<stop stop-color="#F2A4C4"/>
<stop offset="1" stop-color="white"/>
</linearGradient>
<linearGradient id="paint6_linear_200_19436" x1="580.674" y1="222.93" x2="319.639" y2="300.132" gradientUnits="userSpaceOnUse">
<stop offset="0.097" stop-color="#84D3F6"/>
<stop offset="1" stop-color="white"/>
</linearGradient>
<linearGradient id="paint7_linear_200_19436" x1="354.705" y1="177.973" x2="706.738" y2="338.598" gradientUnits="userSpaceOnUse">
<stop stop-color="white"/>
<stop offset="0.2182" stop-color="#FBFFD2"/>
<stop offset="0.6" stop-color="#F88B02"/>
<stop offset="0.7939" stop-color="#F9003B"/>
</linearGradient>
<linearGradient id="paint8_linear_200_19436" x1="793.158" y1="277.693" x2="403.327" y2="288.688" gradientUnits="userSpaceOnUse">
<stop stop-color="#F2A4C4"/>
<stop offset="1" stop-color="white"/>
</linearGradient>
<linearGradient id="paint9_linear_200_19436" x1="599.733" y1="246.732" x2="461.423" y2="481.186" gradientUnits="userSpaceOnUse">
<stop offset="0.097" stop-color="#84D3F6"/>
<stop offset="1" stop-color="white"/>
</linearGradient>
<linearGradient id="paint10_linear_200_19436" x1="403.789" y1="367.91" x2="770.832" y2="245.384" gradientUnits="userSpaceOnUse">
<stop stop-color="white"/>
<stop offset="0.2182" stop-color="#FBFFD2"/>
<stop offset="0.6" stop-color="#F88B02"/>
<stop offset="0.7939" stop-color="#F9003B"/>
</linearGradient>
<linearGradient id="paint11_linear_200_19436" x1="387.07" y1="60.2589" x2="614.686" y2="448.171" gradientUnits="userSpaceOnUse">
<stop stop-color="#FBFFD2"/>
<stop offset="0.4182" stop-color="#F88B02"/>
<stop offset="0.7939" stop-color="#F9003B"/>
</linearGradient>
<linearGradient id="paint12_linear_200_19436" x1="421.103" y1="40.2886" x2="648.711" y2="428.186" gradientUnits="userSpaceOnUse">
<stop stop-color="#FBFFD2"/>
<stop offset="0.4182" stop-color="#F88B02"/>
<stop offset="0.7939" stop-color="#F9003B"/>
</linearGradient>
<linearGradient id="paint13_linear_200_19436" x1="396.045" y1="54.9969" x2="623.653" y2="442.894" gradientUnits="userSpaceOnUse">
<stop stop-color="#FBFFD2"/>
<stop offset="0.4182" stop-color="#F88B02"/>
<stop offset="0.7939" stop-color="#F9003B"/>
</linearGradient>
<linearGradient id="paint14_linear_200_19436" x1="781.892" y1="108.128" x2="168.535" y2="182.017" gradientUnits="userSpaceOnUse">
<stop offset="0.0848" stop-color="white"/>
<stop offset="0.6364" stop-color="#C0A3D4"/>
<stop offset="1" stop-color="#01B1C0"/>
</linearGradient>
<linearGradient id="paint15_linear_200_19436" x1="706.789" y1="193.859" x2="35.2846" y2="193.859" gradientUnits="userSpaceOnUse">
<stop offset="0.1273" stop-color="#0F017F"/>
<stop offset="0.703" stop-color="#01B1C0"/>
<stop offset="1" stop-color="white"/>
</linearGradient>
<linearGradient id="paint16_linear_200_19436" x1="119.244" y1="205.685" x2="580.032" y2="360.673" gradientUnits="userSpaceOnUse">
<stop stop-color="#FBFFD2"/>
<stop offset="0.4182" stop-color="#F88B02"/>
<stop offset="0.7939" stop-color="#F9003B"/>
</linearGradient>
<linearGradient id="paint17_linear_200_19436" x1="624.21" y1="267.906" x2="536.023" y2="228.345" gradientUnits="userSpaceOnUse">
<stop offset="0.1273" stop-color="#0F017F"/>
<stop offset="0.703" stop-color="#01B1C0"/>
<stop offset="1" stop-color="white"/>
</linearGradient>
<linearGradient id="paint18_linear_200_19436" x1="759.945" y1="282.258" x2="268.327" y2="282.258" gradientUnits="userSpaceOnUse">
<stop offset="0.1273" stop-color="#0F017F"/>
<stop offset="0.703" stop-color="#01B1C0"/>
<stop offset="1" stop-color="white"/>
</linearGradient>
<linearGradient id="paint19_linear_200_19436" x1="746.069" y1="286.552" x2="459.618" y2="286.552" gradientUnits="userSpaceOnUse">
<stop offset="0.1273" stop-color="#0F017F"/>
<stop offset="0.703" stop-color="#01B1C0"/>
<stop offset="1" stop-color="white"/>
</linearGradient>
<linearGradient id="paint20_linear_200_19436" x1="715.568" y1="323.736" x2="338.461" y2="323.736" gradientUnits="userSpaceOnUse">
<stop offset="0.1273" stop-color="#0F017F"/>
<stop offset="0.703" stop-color="#01B1C0"/>
<stop offset="1" stop-color="white"/>
</linearGradient>
<linearGradient id="paint21_linear_200_19436" x1="704.912" y1="294.053" x2="589.171" y2="262.373" gradientUnits="userSpaceOnUse">
<stop offset="0.0182" stop-color="#32002E"/>
<stop offset="0.3939" stop-color="#77046F"/>
<stop offset="1" stop-color="white"/>
</linearGradient>
<linearGradient id="paint22_linear_200_19436" x1="476.314" y1="341.773" x2="696.847" y2="290.872" gradientUnits="userSpaceOnUse">
<stop stop-color="#FBFFD2"/>
<stop offset="0.4182" stop-color="#F88B02"/>
<stop offset="0.7939" stop-color="#F9003B"/>
</linearGradient>
<linearGradient id="paint23_linear_200_19436" x1="599.617" y1="354.975" x2="535.125" y2="354.975" gradientUnits="userSpaceOnUse">
<stop stop-color="#EC398F"/>
<stop offset="0.2121" stop-color="#EC398F"/>
<stop offset="0.7576" stop-color="#A42453"/>
</linearGradient>
<linearGradient id="paint24_linear_200_19436" x1="722.228" y1="325.479" x2="507.436" y2="150.546" gradientUnits="userSpaceOnUse">
<stop offset="0.1273" stop-color="#0F017F"/>
<stop offset="0.703" stop-color="#01B1C0"/>
<stop offset="1" stop-color="white"/>
</linearGradient>
<linearGradient id="paint25_linear_200_19436" x1="720.628" y1="327.437" x2="505.861" y2="152.524" gradientUnits="userSpaceOnUse">
<stop offset="0.1273" stop-color="#0F017F"/>
<stop offset="0.703" stop-color="#01B1C0"/>
<stop offset="1" stop-color="white"/>
</linearGradient>
<linearGradient id="paint26_linear_200_19436" x1="723.297" y1="324.037" x2="508.666" y2="149.235" gradientUnits="userSpaceOnUse">
<stop offset="0.1273" stop-color="#0F017F"/>
<stop offset="0.703" stop-color="#01B1C0"/>
<stop offset="1" stop-color="white"/>
</linearGradient>
<linearGradient id="paint27_linear_200_19436" x1="723.397" y1="324.016" x2="508.682" y2="149.146" gradientUnits="userSpaceOnUse">
<stop offset="0.1273" stop-color="#0F017F"/>
<stop offset="0.703" stop-color="#01B1C0"/>
<stop offset="1" stop-color="white"/>
</linearGradient>
<linearGradient id="paint28_linear_200_19436" x1="713.075" y1="336.616" x2="498.4" y2="161.778" gradientUnits="userSpaceOnUse">
<stop offset="0.1273" stop-color="#0F017F"/>
<stop offset="0.703" stop-color="#01B1C0"/>
<stop offset="1" stop-color="white"/>
</linearGradient>
<linearGradient id="paint29_linear_200_19436" x1="732.224" y1="313.396" x2="517.387" y2="138.427" gradientUnits="userSpaceOnUse">
<stop offset="0.1273" stop-color="#0F017F"/>
<stop offset="0.703" stop-color="#01B1C0"/>
<stop offset="1" stop-color="white"/>
</linearGradient>
</defs>
</svg>
