<svg width="41" height="42" viewBox="0 0 41 42" fill="none" xmlns="http://www.w3.org/2000/svg">
<path d="M28.8308 33.42H22.7469V27.9445C22.7469 26.0546 21.2337 24.5224 19.367 24.5224H15.3112V20.7648L24.491 14.1258C24.6397 14.0192 24.7396 13.8563 24.7681 13.674C24.7951 13.4924 24.7488 13.3074 24.6397 13.1607L22.6117 10.423C22.3932 10.1288 21.9841 10.0623 21.6857 10.2724L14.7569 15.125C15.9821 12.7879 15.104 9.88749 12.7957 8.64703C10.4874 7.40649 7.62283 8.29557 6.3977 10.6328C5.41255 12.512 5.76938 14.8238 7.27377 16.3091H6.52344C6.33273 16.3096 6.15097 16.3916 6.02321 16.535L1.65638 21.4492C0.457448 22.8055 0.51685 24.8747 1.79158 26.1582L5.36751 29.7994C5.50803 29.9418 5.70339 30.0144 5.90153 29.9978C6.10222 29.9822 6.28557 29.8769 6.40176 29.7104L7.19942 28.5674V40.9488C7.19942 41.3268 7.50209 41.6333 7.87539 41.6333H11.9313C12.3046 41.6333 12.6073 41.3268 12.6073 40.9488V29.9978H17.3391V33.42H15.3112C14.9379 33.42 14.6352 33.7265 14.6352 34.1045V40.9488C14.6352 41.3268 14.9379 41.6333 15.3112 41.6333H28.8308C29.2041 41.6333 29.5067 41.3268 29.5067 40.9488V34.1045C29.5067 33.7265 29.2042 33.42 28.8308 33.42ZM7.19942 12.8869C7.19942 10.997 8.71268 9.46476 10.5793 9.46476C12.4459 9.46476 13.9592 10.997 13.9592 12.8869C13.9592 14.7769 12.4459 16.3091 10.5793 16.3091C8.71268 16.3091 7.19942 14.7769 7.19942 12.8869ZM12.1881 17.678L11.2553 19.567L10.3224 17.678H12.1881ZM7.19942 25.0083L6.11785 23.8379L7.19942 22.7428V25.0083ZM11.9313 28.629C11.558 28.629 11.2553 28.9354 11.2553 29.3134V40.2644H8.55137V21.1002C8.55002 20.8238 8.38466 20.5755 8.13227 20.4705C7.88055 20.3633 7.58988 20.42 7.39545 20.6142L4.69153 23.352C4.4339 23.6181 4.4339 24.044 4.69153 24.3102L6.90198 26.6441L5.75958 28.2594L2.73119 25.2068C1.95897 24.433 1.92618 23.1805 2.65683 22.3664L6.82763 17.678H8.80825L10.6537 21.4082C10.8239 21.7446 11.2312 21.8776 11.5635 21.7052C11.6897 21.6398 11.7924 21.5359 11.8569 21.4082L13.8105 17.459L21.9222 11.7713L23.1458 13.4208L14.2431 19.8613C14.0658 19.9891 13.9602 20.1954 13.9592 20.4157V25.2068C13.9592 25.5848 14.2619 25.8912 14.6352 25.8912H19.367C20.4871 25.8912 21.395 26.8105 21.395 27.9445V33.42H18.6911V29.3134C18.6911 28.9354 18.3884 28.629 18.0151 28.629H11.9313ZM28.1548 40.2644H15.9871V34.7889H28.1548V40.2644Z" fill="white"/>
<path d="M40.3256 6.04287C37.7123 6.04287 35.5938 3.89785 35.5938 1.25182C35.5938 0.873839 35.2911 0.567383 34.9178 0.567383C34.5445 0.567383 34.2418 0.873839 34.2418 1.25182C34.2418 3.89785 32.1233 6.04287 29.51 6.04287C29.1367 6.04287 28.834 6.34933 28.834 6.72731C28.834 7.10529 29.1367 7.41175 29.51 7.41175C32.1233 7.41175 34.2418 9.55677 34.2418 12.2028C34.2418 12.5808 34.5445 12.8872 34.9178 12.8872C35.2911 12.8872 35.5938 12.5808 35.5938 12.2028C35.5938 9.55677 37.7123 7.41175 40.3256 7.41175C40.6989 7.41175 41.0016 7.10529 41.0016 6.72731C41.0016 6.34933 40.699 6.04287 40.3256 6.04287ZM34.9178 9.38292C34.335 8.24505 33.4189 7.31746 32.295 6.72731C33.4188 6.13715 34.3349 5.20957 34.9178 4.0717C35.5007 5.20957 36.4168 6.13715 37.5406 6.72731C36.4168 7.31746 35.5007 8.24505 34.9178 9.38292Z" fill="white"/>
<path d="M23.5145 17.8096L21.6719 19.1776L22.4714 20.2816L24.314 18.9136L23.5145 17.8096Z" fill="white"/>
<path d="M31.8168 11.6493L25.0586 16.6705L25.8585 17.7743L32.6167 12.753L31.8168 11.6493Z" fill="white"/>
<path d="M29.1295 8.20892L25.0742 10.9464L25.8243 12.0855L29.8795 9.34798L29.1295 8.20892Z" fill="white"/>
</svg>
