<svg width="40" height="39" viewBox="0 0 40 39" fill="none" xmlns="http://www.w3.org/2000/svg">
<path d="M10.6993 24.7271C11.0729 24.5089 11.2007 24.0246 10.9853 23.6463C10.7695 23.2684 10.2916 23.1386 9.91807 23.3568C9.54454 23.5753 9.41637 24.0596 9.63213 24.4375C9.84758 24.8158 10.3258 24.9456 10.6993 24.7271Z" fill="white"/>
<path d="M7.49874 30.1865L11.4331 37.0866C12.282 38.5772 14.1918 39.129 15.7021 38.245C17.1966 37.3706 17.7102 35.4372 16.8456 33.9228L14.5019 29.812L16.5316 28.6255C16.9051 28.4067 17.0333 27.9231 16.8176 27.5449L15.8016 25.7633C15.9228 25.7395 16.7193 25.5813 30.7656 22.7914C32.502 22.6959 33.5423 20.773 32.6653 19.2358L30.0688 14.6825L31.7281 12.1379C31.891 11.8876 31.9008 11.566 31.7528 11.3064L30.1903 8.56628C30.0423 8.30673 29.7612 8.1547 29.4667 8.17232L26.4611 8.35493L23.5787 3.29981C23.1612 2.5675 22.4132 2.1241 21.5783 2.11359C21.5682 2.11328 21.5584 2.11328 21.5484 2.11328C20.7415 2.11328 20.0091 2.51992 19.5751 3.20742L9.36946 16.3711L2.73466 20.2496C0.125109 21.7745 -0.778818 25.1641 0.733017 27.8134C2.11424 30.2359 5.02621 31.1889 7.49874 30.1865ZM15.4928 34.7142C15.9243 35.47 15.6689 36.4371 14.9203 36.8749C14.1692 37.3146 13.2128 37.0446 12.7862 36.2959L8.87996 29.4446L11.5862 27.8626C16.1071 35.7919 15.4202 34.5872 15.4928 34.7142ZM13.7206 28.4416L12.9394 27.0715L14.2925 26.2805L15.0738 27.6506L13.7206 28.4416ZM29.0786 9.78062L30.1583 11.6741L29.1954 13.1505L27.3345 9.88661L29.0786 9.78062ZM20.8819 4.07477C21.0915 3.72746 21.4242 3.69161 21.5591 3.69532C21.6924 3.69687 22.0247 3.73889 22.2253 4.09052L31.3121 20.0268C31.6082 20.5456 31.2483 21.1979 30.6548 21.2127C30.5483 21.2152 30.4991 21.2347 30.2263 21.2863L20.6142 4.42918C20.816 4.16654 20.8419 4.1412 20.8819 4.07477ZM19.5745 5.77021L28.6055 21.6082L14.9758 24.315L10.8316 17.0472L19.5745 5.77021ZM2.08616 27.0224C1.74315 26.4214 1.56187 25.7392 1.56187 25.0489C1.56187 23.638 2.31077 22.3242 3.5159 21.6197L9.60505 18.0601L13.5113 24.9104L7.42214 28.4703C5.55661 29.5605 3.16312 28.911 2.08616 27.0224Z" fill="white"/>
<path d="M8.27945 25.2287C8.06369 24.8504 7.58578 24.7206 7.21225 24.9391L5.85911 25.7303C5.48618 25.9485 5.00736 25.8184 4.79191 25.4407C4.57615 25.0624 4.09825 24.9326 3.72471 25.1511C3.35118 25.3696 3.22301 25.8536 3.43877 26.2319C4.08177 27.36 5.51609 27.7577 6.64035 27.1007L7.9935 26.3095C8.36703 26.091 8.4952 25.6073 8.27945 25.2287Z" fill="white"/>
<path d="M38.8388 3.80516L34.4855 6.25819C34.1086 6.4708 33.9728 6.95257 34.1828 7.33422C34.3921 7.71555 34.8676 7.85368 35.2454 7.64077L39.5984 5.18774C39.9756 4.97513 40.1111 4.49336 39.9011 4.11171C39.6915 3.72976 39.2157 3.59255 38.8388 3.80516Z" fill="white"/>
<path d="M38.3832 11.998L35.3647 11.1788C34.9478 11.0657 34.5194 11.316 34.4077 11.7383C34.296 12.1605 34.5435 12.5942 34.9603 12.7074L37.9791 13.5265C38.3984 13.6406 38.8248 13.3862 38.9359 12.967C39.0475 12.5448 38.8 12.1108 38.3832 11.998Z" fill="white"/>
<path d="M30.7974 0.93123L29.9878 3.9881C29.8761 4.41022 30.1233 4.84378 30.5401 4.95719C30.9567 5.06999 31.3852 4.8203 31.4972 4.39786L32.3065 1.341C32.4182 0.91887 32.171 0.485 31.7541 0.371897C31.3376 0.258794 30.9091 0.509104 30.7974 0.93123Z" fill="white"/>
</svg>
