<svg width="36" height="43" viewBox="0 0 36 43" fill="none" xmlns="http://www.w3.org/2000/svg">
<path d="M35.7129 6.26808L34.0034 4.70602L35.7129 3.14429C35.9787 2.90105 36.0696 2.52193 35.9448 2.17798C35.8194 1.8337 35.5096 1.61137 35.1553 1.61137H28.0813V1.29592C28.0813 0.959878 27.8188 0.6875 27.495 0.6875C27.1712 0.6875 26.9087 0.959878 26.9087 1.29592V9.50146L22.0935 12.2148C22.067 11.995 22.0035 11.779 21.9031 11.5756L21.2246 10.2011C20.7589 9.25727 19.64 8.88322 18.7311 9.36622L18.2065 9.64493C17.7658 9.8793 17.4395 10.2771 17.2875 10.7661C17.1355 11.2548 17.1761 11.7758 17.402 12.2328L18.0804 13.6077C18.2388 13.9285 18.4729 14.1826 18.7482 14.3606C18.3881 14.8638 18.2172 15.4827 18.0414 16.1256L17.915 16.5899C17.8268 16.9133 18.0081 17.2497 18.3197 17.3409C18.3728 17.3567 18.4265 17.364 18.4793 17.364C18.7351 17.364 18.9701 17.1892 19.0434 16.9209L19.1697 16.4575C19.4267 15.5172 19.5845 15.0136 20.0868 14.7305L20.9875 14.2228L21.0986 14.1639C21.1355 14.1442 21.17 14.1221 21.2051 14.1002L27.6241 10.483C27.5835 11.3156 27.1516 12.1024 26.4405 12.5505L22.2663 15.1824C22.2614 15.1853 22.2565 15.1881 22.2519 15.1913L20.9527 16.0103C20.6762 16.1849 20.588 16.5592 20.7561 16.8465C20.9145 17.1173 21.2442 17.2136 21.513 17.0777L20.5272 20.1701L19.8067 20.4767L17.8473 21.31L18.4119 19.2387C18.4998 18.9153 18.3188 18.5789 18.0072 18.4874C17.6953 18.3955 17.3715 18.584 17.2833 18.9074L16.3912 22.1813C16.3796 22.2234 16.3719 22.2696 16.3701 22.3137L16.1366 26.7642C16.1296 26.934 16.1644 27.2548 16.0887 27.4204L13.4957 33.0815H11.6114C10.5075 33.0815 9.60958 34.0133 9.60958 35.1585V36.9147C9.35687 36.7947 9.07639 36.7275 8.78065 36.7275H3.99539C2.89178 36.7275 1.99388 37.659 1.99388 38.8046V40.9836H0.586292C0.262473 40.9836 0 41.256 0 41.592C0 41.928 0.262473 42.2004 0.586292 42.2004H35.1546C35.4785 42.2004 35.7409 41.928 35.7409 41.592C35.7409 41.256 35.4785 40.9836 35.1546 40.9836H33.6299V25.3013C33.6299 24.156 32.732 23.2242 31.6283 23.2242H28.0813V12.6101C28.7314 11.6957 28.9722 10.4972 28.6703 9.3583C28.623 9.17936 28.4994 9.0324 28.3346 8.95987C28.2537 8.92408 28.1671 8.90824 28.0813 8.91173V7.801H35.1549C35.5096 7.801 35.8194 7.57866 35.9445 7.2347C36.0696 6.89075 35.9787 6.51132 35.7129 6.26808ZM18.4037 11.1398C18.4595 10.9603 18.5791 10.8139 18.7409 10.7281L19.2655 10.4494C19.3644 10.3968 19.47 10.3718 19.5744 10.3718C19.8216 10.3718 20.0606 10.5121 20.1808 10.7557L20.8596 12.1305C21.018 12.4517 20.9155 12.8409 20.6338 13.0376L20.4427 13.145L20.0395 13.3594C19.706 13.5368 19.2951 13.3993 19.1242 13.0528L18.4455 11.6783C18.3628 11.5104 18.3478 11.3191 18.4037 11.1398ZM17.2256 33.2686C17.0263 33.1743 16.8096 33.1125 16.5819 33.0907L17.2256 32.2035V33.2686ZM20.0093 28.3662C20.2913 28.0156 20.3692 27.606 20.432 27.276C20.4479 27.1975 20.7372 25.5575 20.7372 25.5575C20.7372 25.5575 21.011 25.7345 21.0397 25.7472C21.0595 25.7564 21.0736 25.7767 21.0757 25.8004L21.3946 29.1649H19.4297L20.0093 28.3662ZM23.4764 25.008L22.9814 29.1621H22.5727L22.2428 25.6813C22.2007 25.2354 21.9376 24.8462 21.5521 24.6526L20.9625 24.2647L21.3553 22.0055C21.3553 22.0055 23.0101 24.0455 23.0485 24.0974C23.391 24.5595 23.5082 24.7445 23.4764 25.008ZM17.1435 27.9525C17.2619 27.5826 17.3168 27.206 17.3077 26.8231L17.5207 22.764L20.2324 21.6109L19.7395 24.4442C19.738 24.4518 19.7365 24.4598 19.7356 24.4674L19.3278 26.8101C19.2747 27.0527 19.2283 27.4208 19.0824 27.6206L15.1206 33.0815H14.794L17.1435 27.9525ZM3.16647 38.8043C3.16647 38.3301 3.5382 37.9444 3.99539 37.9444H8.78065C9.23784 37.9444 9.60988 38.3301 9.60988 38.8043V40.9836H3.16647V38.8043ZM10.7822 38.8043V35.1585C10.7822 34.6841 11.1542 34.2983 11.6114 34.2983H16.3966C16.8538 34.2983 17.2256 34.6841 17.2256 35.1585V40.9836H10.7825L10.7822 38.8043ZM32.4573 25.3013V40.9836H26.0142V37.3356C26.0142 36.9996 25.7517 36.7272 25.4279 36.7272C25.1037 36.7272 24.8413 36.9996 24.8413 37.3356V40.9836H18.3982V31.2416C18.3982 30.7675 18.7699 30.3818 19.2271 30.3818H24.0123C24.4695 30.3818 24.8413 30.7675 24.8413 31.2416V34.2916C24.8413 34.6277 25.1037 34.9001 25.4276 34.9001C25.7517 34.9001 26.0139 34.6277 26.0139 34.2916V25.3013C26.0139 24.8268 26.3859 24.4411 26.8431 24.4411H27.4889C27.4889 24.4411 27.4929 24.4414 27.495 24.4414L27.5008 24.4411H31.628C32.0852 24.4411 32.4573 24.8271 32.4573 25.3013ZM26.8431 23.2242C25.7395 23.2242 24.8416 24.156 24.8416 25.3013V29.3521C24.6316 29.2527 24.4027 29.1896 24.1619 29.1713L24.6401 25.1578C24.7341 24.3755 24.3496 23.857 23.9779 23.3554C23.9385 23.3021 21.6595 20.4941 21.6595 20.4941L23.0577 16.1076L26.9087 13.6796V23.2242H26.8431ZM28.0813 6.58385V2.82852H34.2839L32.948 4.04915C32.7661 4.21543 32.6618 4.45487 32.6618 4.70634C32.6618 4.95782 32.7661 5.19725 32.948 5.36353L34.2839 6.58416L28.0813 6.58385Z" fill="white"/>
</svg>
