<svg width="99" height="65" viewBox="0 0 99 65" fill="none" xmlns="http://www.w3.org/2000/svg">
<path d="M6.53381 24.7461L4.03304 20.5251H2.1683V24.7461H1.15643V14.6418H4.19205C5.31956 14.6418 6.17243 14.9116 6.75064 15.4513C7.33849 15.991 7.63242 16.6993 7.63242 17.5762C7.63242 18.3087 7.42041 18.935 6.99638 19.4554C6.582 19.9662 5.96524 20.2987 5.1461 20.4529L7.74806 24.7461H6.53381ZM2.1683 19.7012H4.2065C4.99673 19.7012 5.5894 19.5084 5.98451 19.123C6.38926 18.7375 6.59163 18.2219 6.59163 17.5762C6.59163 16.9113 6.3989 16.4005 6.01342 16.044C5.62794 15.6778 5.02082 15.4947 4.19205 15.4947H2.1683V19.7012ZM11.086 15.4658V19.2386H14.9167V20.077H11.086V23.9077H15.3503V24.7461H10.0741V14.6274H15.3503V15.4658H11.086ZM25.7861 14.6418L21.9554 24.7461H20.799L16.9683 14.6418H18.0669L21.3772 23.6475L24.7164 14.6418H25.7861ZM28.752 14.6418V24.7461H27.7401V14.6418H28.752ZM32.4889 15.4658V19.2386H36.3196V20.077H32.4889V23.9077H36.7533V24.7461H31.4771V14.6274H36.7533V15.4658H32.4889ZM51.4389 14.6418L48.5767 24.7461H47.4492L44.9051 16.1307L42.3031 24.7461L41.2045 24.7605L38.4001 14.6418H39.4843L41.7972 23.5029L44.3847 14.6418H45.5122L48.0274 23.5029L50.3547 14.6418H51.4389ZM54.4322 15.4658V19.2386H58.2629V20.077H54.4322V23.9077H58.6966V24.7461H53.4204V14.6274H58.6966V15.4658H54.4322ZM64.1163 14.6418C65.2342 14.6418 66.1931 14.8442 66.9929 15.2489C67.7928 15.6537 68.4047 16.2367 68.8287 16.998C69.2528 17.7593 69.4648 18.6652 69.4648 19.7156C69.4648 20.7564 69.2528 21.6575 68.8287 22.4188C68.4047 23.1705 67.7928 23.7487 66.9929 24.1534C66.1931 24.5485 65.2342 24.7461 64.1163 24.7461H61.1241V14.6418H64.1163ZM64.1163 23.9077C65.5233 23.9077 66.593 23.5415 67.3254 22.8091C68.0674 22.067 68.4385 21.0359 68.4385 19.7156C68.4385 18.3857 68.0674 17.3498 67.3254 16.6077C66.593 15.8561 65.5233 15.4802 64.1163 15.4802H62.1359V23.9077H64.1163ZM80.7034 24.8473C79.7686 24.8473 78.9205 24.6305 78.1592 24.1968C77.3979 23.7535 76.7956 23.1416 76.3523 22.361C75.9186 21.5707 75.7018 20.6793 75.7018 19.6867C75.7018 18.6941 75.9186 17.8075 76.3523 17.0269C76.7956 16.2367 77.3979 15.6248 78.1592 15.1911C78.9205 14.7478 79.7686 14.5262 80.7034 14.5262C81.6478 14.5262 82.5006 14.7478 83.2619 15.1911C84.0233 15.6248 84.6207 16.2367 85.0544 17.0269C85.4881 17.8075 85.7049 18.6941 85.7049 19.6867C85.7049 20.6793 85.4881 21.5707 85.0544 22.361C84.6207 23.1416 84.0233 23.7535 83.2619 24.1968C82.5006 24.6305 81.6478 24.8473 80.7034 24.8473ZM80.7034 23.9655C81.455 23.9655 82.1296 23.792 82.7271 23.4451C83.3246 23.0982 83.7968 22.6019 84.1437 21.9562C84.4907 21.3009 84.6641 20.5444 84.6641 19.6867C84.6641 18.829 84.4907 18.0774 84.1437 17.4317C83.7968 16.786 83.3246 16.2897 82.7271 15.9428C82.1296 15.5959 81.455 15.4224 80.7034 15.4224C79.9517 15.4224 79.2771 15.5959 78.6796 15.9428C78.0821 16.2897 77.6099 16.786 77.263 17.4317C76.9161 18.0774 76.7426 18.829 76.7426 19.6867C76.7426 20.5444 76.9161 21.3009 77.263 21.9562C77.6099 22.6019 78.0821 23.0982 78.6796 23.4451C79.2771 23.792 79.9517 23.9655 80.7034 23.9655ZM95.608 24.7461H94.5962L89.002 16.2464V24.7461H87.9901V14.6418H89.002L94.5962 23.1271V14.6418H95.608V24.7461Z" fill="white"/>
<g clip-path="url(#clip0_489_1236)">
<path fill-rule="evenodd" clip-rule="evenodd" d="M24.1667 42.4564H12.6971V45.8152H20.8319C20.4299 50.5252 16.4589 52.5339 12.7109 52.5339C7.91554 52.5339 3.73104 48.8106 3.73104 43.5916C3.73104 38.5076 7.7201 34.5925 12.7213 34.5925C16.5802 34.5925 18.8541 37.0199 18.8541 37.0199L21.2366 34.5846C21.2366 34.5846 18.1783 31.2242 12.5996 31.2242C5.49615 31.2239 0 37.1408 0 43.5318C0 49.7939 5.16939 55.9007 12.7808 55.9007C19.4746 55.9003 24.3744 51.3752 24.3744 44.6833C24.3744 43.2714 24.1667 42.4556 24.1667 42.4556V42.4564Z" fill="#176BEF"/>
<path fill-rule="evenodd" clip-rule="evenodd" d="M33.6094 43.139C35.9239 43.139 38.1172 44.9855 38.1172 47.9608C38.1172 50.8736 35.9331 52.7724 33.599 52.7724C31.0341 52.7724 29.0102 50.7455 29.0102 47.9381C29.0102 45.1905 31.0083 43.139 33.6094 43.139ZM33.5625 40.0238C28.8562 40.0238 25.4834 43.6547 25.4834 47.8899C25.4834 52.187 28.7552 55.8857 33.6178 55.8857C38.02 55.8857 41.627 52.5651 41.627 47.982C41.627 42.729 37.4314 40.0238 33.5625 40.0238Z" fill="#FF3E30"/>
<path fill-rule="evenodd" clip-rule="evenodd" d="M51.1793 43.139C53.4942 43.139 55.6875 44.9855 55.6875 47.9608C55.6875 50.8736 53.5031 52.7724 51.1689 52.7724C48.6044 52.7724 46.5809 50.7455 46.5809 47.9381C46.5809 45.1905 48.579 43.139 51.1793 43.139ZM51.1328 40.0238C46.4269 40.0238 43.0537 43.6547 43.0537 47.8899C43.0537 52.187 46.3251 55.8857 51.1881 55.8857C55.5903 55.8857 59.197 52.5651 59.197 47.982C59.197 42.729 55.0017 40.0238 51.1328 40.0238Z" fill="#F7B529"/>
<path fill-rule="evenodd" clip-rule="evenodd" d="M68.6817 43.1413C70.7997 43.1413 72.9745 44.9257 72.9745 47.9734C72.9745 51.0715 70.8039 52.7789 68.6349 52.7789C66.3322 52.7789 64.1893 50.9336 64.1893 48.0029C64.1893 44.9579 66.4148 43.1413 68.6817 43.1413ZM68.3688 40.0322C64.0491 40.0322 60.6533 43.7662 60.6533 47.9571C60.6533 52.7304 64.5902 55.8964 68.2943 55.8964C70.5851 55.8964 71.803 54.9991 72.7027 53.9695V55.533C72.7027 58.2696 71.0186 59.9084 68.4775 59.9084C66.0228 59.908 64.7917 58.107 64.364 57.0847L61.275 58.359C62.3708 60.6451 64.5767 63.0296 68.5032 63.0296C72.7983 63.0296 76.0716 60.3597 76.0716 54.7607V40.5089H72.7027V41.8526C71.6667 40.7507 70.2495 40.0322 68.3688 40.0322Z" fill="#176BEF"/>
<path fill-rule="evenodd" clip-rule="evenodd" d="M91.1944 43.0648C92.6627 43.0648 93.7194 43.8348 94.1682 44.7586L86.9719 47.7271C86.6616 45.4289 88.8679 43.0648 91.1944 43.0648ZM91.0539 40.014C86.9788 40.014 83.5576 43.2137 83.5576 47.9347C83.5576 52.9305 87.3712 55.8933 91.4451 55.8933C94.8456 55.8933 96.9324 54.0574 98.1784 52.4125L95.3996 50.5884C94.6789 51.6925 93.4736 52.7714 91.4624 52.7714C89.2035 52.7714 88.1645 51.5505 87.5206 50.3682L98.2971 45.9552L97.7376 44.6619C96.6963 42.1296 94.2677 40.0144 91.0542 40.0144L91.0539 40.014Z" fill="#FF3E30"/>
<path fill-rule="evenodd" clip-rule="evenodd" d="M78.417 55.4219H81.9568V32.0448H78.417V55.4219Z" fill="#179C52"/>
</g>
<defs>
<clipPath id="clip0_489_1236">
<rect width="98.2963" height="39.0294" fill="white" transform="translate(0 25.5293)"/>
</clipPath>
</defs>
</svg>
