<svg width="125" height="124" viewBox="0 0 125 124" fill="none" xmlns="http://www.w3.org/2000/svg">
<path d="M6.46777 83.3042H18.0345V106.438H6.46777V83.3042Z" fill="#F7E5A3"/>
<path d="M18.0342 87.1595H31.5287V106.437H18.0342V87.1595Z" fill="#F7E5A3"/>
<path d="M18.0342 87.1595H19.962V100.654H18.0342V87.1595Z" fill="#F7C733"/>
<path d="M95.1461 118.004H72.0127L79.7238 70.1953L81.6516 58.243H85.5072L95.1461 118.004Z" fill="#93D5F0"/>
<path d="M81.6514 58.243V118.004H95.1458L85.5069 58.243H81.6514Z" fill="#39679E"/>
<path d="M91.2904 55.3518C91.2905 55.7315 91.2158 56.1076 91.0705 56.4585C90.9252 56.8094 90.7122 57.1282 90.4437 57.3967C90.1752 57.6653 89.8563 57.8782 89.5055 58.0235C89.1546 58.1688 88.7785 58.2435 88.3987 58.2434H78.7598C78.3799 58.2442 78.0036 58.1699 77.6525 58.0248C77.3014 57.8796 76.9824 57.6665 76.714 57.3976C76.1737 56.8536 75.8697 56.1185 75.8682 55.3518C75.8681 54.972 75.9428 54.5959 76.0881 54.245C76.2334 53.8942 76.4463 53.5753 76.7149 53.3068C76.9834 53.0383 77.3022 52.8253 77.6531 52.68C78.004 52.5347 78.3801 52.46 78.7598 52.4601H88.3987C88.7786 52.4596 89.1549 52.534 89.5059 52.6792C89.857 52.8243 90.176 53.0373 90.4446 53.3059C90.7132 53.5745 90.9262 53.8935 91.0713 54.2446C91.2165 54.5956 91.2909 54.9719 91.2904 55.3518Z" fill="#93D5F0"/>
<path d="M91.2904 42.8211V50.5322L87.4349 52.46H79.7237L75.8682 50.5322V42.8211L79.7237 40.8933H87.4349L91.2904 42.8211Z" fill="#93D5F0"/>
<path d="M79.7236 44.7485H91.2903V48.6041H79.7236V44.7485Z" fill="#5D8BCC"/>
<path d="M77.7959 35.1094H89.3626V40.8927H77.7959V35.1094Z" fill="#93D5F0"/>
<path d="M87.4348 35.1101H79.7236L81.6514 27.3989H85.507L87.4348 35.1101Z" fill="#93D5F0"/>
<path d="M81.6514 4.26526H85.5069V27.3986H81.6514V4.26526Z" fill="#93D5F0"/>
<path d="M91.2904 50.5315L87.4349 52.4593H79.7237L75.8682 50.5315H91.2904Z" fill="#37A7CC"/>
<path d="M75.8682 42.8211L79.7237 40.8933H87.4349L91.2904 42.8211H75.8682Z" fill="#37A7CC"/>
<path d="M91.2902 55.3518C91.2903 55.7315 91.2156 56.1076 91.0703 56.4585C90.925 56.8094 90.712 57.1282 90.4435 57.3967C90.1749 57.6653 89.8561 57.8782 89.5052 58.0235C89.1543 58.1688 88.7783 58.2435 88.3985 58.2434H78.7596C78.3797 58.2442 78.0033 58.1699 77.6522 58.0248C77.3011 57.8796 76.9822 57.6665 76.7137 57.3976C76.4082 57.0931 76.1758 56.7231 76.0342 56.3157H82.6152C82.9949 56.3158 83.371 56.241 83.7219 56.0957C84.0728 55.9505 84.3916 55.7375 84.6601 55.4689C84.9287 55.2004 85.1416 54.8816 85.2869 54.5307C85.4322 54.1798 85.5069 53.8037 85.5068 53.424C85.5075 53.0955 85.4513 52.7694 85.3406 52.4601H88.3985C88.7784 52.4596 89.1546 52.534 89.5057 52.6792C89.8568 52.8243 90.1757 53.0373 90.4444 53.3059C90.713 53.5745 90.926 53.8935 91.0711 54.2446C91.2162 54.5956 91.2907 54.9719 91.2902 55.3518Z" fill="#37A7CC"/>
<path d="M77.7959 37.0371H89.3626V38.9649H77.7959V37.0371Z" fill="#5D8BCC"/>
<path d="M87.4348 35.1095H79.7236L80.2056 33.1818H86.9528L87.4348 35.1095Z" fill="#37A7CC"/>
<path d="M81.6514 25.4703H85.5069V27.3981H81.6514V25.4703Z" fill="#37A7CC"/>
<path d="M83.5792 58.243V118.004H79.7236V70.1953L81.6514 58.243H83.5792Z" fill="#37A7CC"/>
<path d="M70.085 98.7263H81.6517V118.004H70.085V98.7263Z" fill="#F7E5A3"/>
<path d="M52.7344 91.0157H62.3733V118.005H52.7344V91.0157Z" fill="#F7E5A3"/>
<path d="M58.5176 79.449H70.0843V91.0157H58.5176V79.449Z" fill="#F7E5A3"/>
<path d="M62.374 91.0157H77.7963V98.7269H62.374V91.0157Z" fill="#F7E5A3"/>
<path d="M81.6514 110.293H89.3625V118.004H81.6514V110.293Z" fill="#F7E5A3"/>
<path d="M89.3623 98.7263H99.0012V118.004H89.3623V98.7263Z" fill="#F7E5A3"/>
<path d="M99.002 79.449H110.569V110.293H99.002V79.449Z" fill="#F7E5A3"/>
<path d="M99.002 110.293H110.569V118.004H99.002V110.293Z" fill="#F7E5A3"/>
<path d="M110.567 98.7263H118.279V118.004H110.567V98.7263Z" fill="#F7E5A3"/>
<path d="M6.46777 106.438H52.7346V118.005H6.46777V106.438Z" fill="#93D5F0"/>
<path d="M52.7346 106.438H6.46777C6.91357 105.77 7.38588 105.128 7.88469 104.51C10.32 101.5 13.3974 99.0722 16.8916 97.4045C20.3859 95.7368 24.2088 94.8712 28.0806 94.871H31.1217C35.3979 94.8712 39.6079 95.9271 43.3782 97.9448C47.1484 99.9626 50.3623 102.88 52.7346 106.438Z" fill="#93D5F0"/>
<path d="M52.7346 106.438H6.46777C6.91357 105.77 7.38588 105.128 7.88469 104.51H48.879C46.7767 101.354 44.008 98.6983 40.7679 96.7289C45.6475 98.6793 49.8203 102.065 52.7346 106.438Z" fill="#37A7CC"/>
<path d="M52.7346 106.438H50.8068V116.077H6.46777V118.005H52.7346V106.438Z" fill="#37A7CC"/>
<path d="M12.251 112.221H21.8899V118.004H12.251V112.221Z" fill="#39679E"/>
<path d="M29.6016 112.221H39.2405V118.004H29.6016V112.221Z" fill="#39679E"/>
<path d="M10.3232 87.1595H18.0344V91.0151H10.3232V87.1595Z" fill="#5D8BCC"/>
<path d="M10.3232 92.9434H18.0344V96.7989H10.3232V92.9434Z" fill="#5D8BCC"/>
<path d="M102.856 83.3042H110.568V87.1598H102.856V83.3042Z" fill="#5D8BCC"/>
<path d="M102.856 89.0872H110.568V92.9427H102.856V89.0872Z" fill="#5D8BCC"/>
<path d="M102.856 94.871H110.568V98.7265H102.856V94.871Z" fill="#5D8BCC"/>
<path d="M102.856 100.654H110.568V104.509H102.856V100.654Z" fill="#5D8BCC"/>
<path d="M93.2178 102.582H99.0011V106.437H93.2178V102.582Z" fill="#5D8BCC"/>
<path d="M93.2178 108.365H99.0011V112.221H93.2178V108.365Z" fill="#5D8BCC"/>
<path d="M73.9404 102.582H81.6516V106.437H73.9404V102.582Z" fill="#5D8BCC"/>
<path d="M73.9404 108.365H81.6516V112.221H73.9404V108.365Z" fill="#5D8BCC"/>
<path d="M56.5898 94.871H62.3732V98.7265H56.5898V94.871Z" fill="#5D8BCC"/>
<path d="M62.373 83.3042H70.0842V87.1598H62.373V83.3042Z" fill="#5D8BCC"/>
<path d="M56.5898 100.654H62.3732V104.509H56.5898V100.654Z" fill="#5D8BCC"/>
<path d="M56.5898 106.438H62.3732V110.293H56.5898V106.438Z" fill="#5D8BCC"/>
<path d="M62.374 98.7263H70.0852V118.004H62.374V98.7263Z" fill="#F7C733"/>
<path d="M64.3008 98.7263H68.1563V118.004H64.3008V98.7263Z" fill="#F7E5A3"/>
<path d="M58.5176 89.0872H70.0843V91.0149H58.5176V89.0872Z" fill="#F7C733"/>
<path d="M62.374 91.0157H64.3018V96.7991H77.7963V98.7269H62.374V91.0157Z" fill="#F7C733"/>
<path d="M97.0732 98.7263H99.001V118.004H97.0732V98.7263Z" fill="#F7C733"/>
<path d="M116.352 98.7263H118.279V118.004H116.352V98.7263Z" fill="#F7C733"/>
<path d="M110.569 110.293H99.002V108.366H108.641V79.449H110.569V110.293Z" fill="#F7C733"/>
<path d="M110.569 118.004H99.002V116.076H108.641V110.293H110.569V118.004Z" fill="#F7C733"/>
<path d="M62.374 94.871H64.3018V98.7265H62.374V94.871Z" fill="#37A7CC"/>
<path d="M62.374 100.654H64.3018V104.509H62.374V100.654Z" fill="#37A7CC"/>
<path d="M62.374 106.438H64.3018V110.293H62.374V106.438Z" fill="#37A7CC"/>
<path d="M97.0732 108.365H99.001V112.221H97.0732V108.365Z" fill="#37A7CC"/>
<path d="M97.0732 102.582H99.001V106.437H97.0732V102.582Z" fill="#37A7CC"/>
<path d="M108.641 100.654H110.568V104.509H108.641V100.654Z" fill="#37A7CC"/>
<path d="M108.641 94.871H110.568V98.7265H108.641V94.871Z" fill="#37A7CC"/>
<path d="M108.641 89.0872H110.568V92.9427H108.641V89.0872Z" fill="#37A7CC"/>
<path d="M108.641 83.3042H110.568V87.1598H108.641V83.3042Z" fill="#37A7CC"/>
<path d="M87.4346 110.293H89.3624V118.004H87.4346V110.293Z" fill="#F7C733"/>
<path d="M79.7236 98.7263H81.6514V118.004H79.7236V98.7263Z" fill="#F7C733"/>
<path d="M79.7236 102.582H83.5792V106.437H79.7236V102.582Z" fill="#37A7CC"/>
<path d="M81.6514 112.221H79.7236V108.365H83.5792L81.6514 110.293V112.221Z" fill="#37A7CC"/>
</svg>
