<svg width="125" height="124" viewBox="0 0 125 124" fill="none" xmlns="http://www.w3.org/2000/svg">
<g clip-path="url(#clip0_200_1650)">
<path d="M86.1424 46.0596H38.75V51.369H86.1424V46.0596Z" fill="#7A7979"/>
<path d="M122.904 77.0322H1.99219V122.517H122.904V77.0322Z" fill="#71C9FF"/>
<path d="M53.8857 77.0317C53.8857 72.3035 57.7189 68.4703 62.4471 68.4703C67.1753 68.4703 71.008 72.3035 71.008 77.0317H53.8857Z" fill="#F6B330"/>
<path d="M53.8857 77.0317C53.8857 72.3035 57.7189 68.4703 62.4471 68.4703C67.1753 68.4703 71.008 72.3035 71.008 77.0317H53.8857Z" fill="#F6B330"/>
<path d="M56.8305 87.9052H45.9733C45.2916 87.9052 44.7402 87.3536 44.7402 86.6722C44.7402 85.9904 45.2918 85.4391 45.9733 85.4391H56.8305C57.5122 85.4391 58.0631 85.9907 58.0631 86.6722C58.0631 87.3541 57.5119 87.9052 56.8305 87.9052Z" fill="#F6F6F6"/>
<path d="M80.8067 97.6864H44.084V102.838H80.8067V97.6864Z" fill="#7A7979"/>
<path d="M32.731 38.4884H13.3457V97.6884H32.731V38.4884Z" fill="#C6C6C6"/>
<path d="M32.7307 38.4879V32.3715L23.038 6.07117L13.3457 32.3715V38.4879" fill="#7A7979"/>
<path d="M28.0176 38.4882H18.0596V30.2555C18.0596 27.8194 19.2832 25.5461 21.3173 24.2043L23.0384 23.0693L24.7594 24.2043C26.7935 25.5458 28.0176 27.8194 28.0176 30.2555V38.4882Z" fill="white"/>
<path d="M13.3448 32.3719H7.3252V97.6867H13.3448V32.3719Z" fill="#C6C6C6"/>
<path d="M15.2087 27.3145H5.46191L7.32538 32.3711H13.345L15.2087 27.3145Z" fill="#C6C6C6"/>
<path d="M10.3357 18.8134L7.32617 27.3143H13.3457L10.3357 18.8134Z" fill="#7A7979"/>
<path d="M38.7505 32.3719H32.7314V97.6867H38.7505V32.3719Z" fill="#C6C6C6"/>
<path d="M40.6127 27.3145H30.8672L32.7302 32.3711H38.7495L40.6127 27.3145Z" fill="#C6C6C6"/>
<path d="M35.74 18.8134L32.7305 27.3143H38.7498L35.74 18.8134Z" fill="#7A7979"/>
<path d="M27.705 43.5624H18.3691V52.4445H27.705V43.5624Z" fill="white"/>
<path d="M27.705 73.9539H18.3691V91.1234H27.705V73.9539Z" fill="white"/>
<path d="M44.0868 97.6864H1.99219V122.518H44.0868V97.6864Z" fill="#C6C6C6"/>
<path d="M6.92595 123.752C6.24423 123.752 5.69336 123.2 5.69336 122.518V108.093C5.69336 107.411 6.24447 106.86 6.92595 106.86C7.60791 106.86 8.15902 107.412 8.15902 108.093V122.518C8.15902 123.2 7.60791 123.752 6.92595 123.752Z" fill="#F6F6F6"/>
<path d="M6.92595 104.997C6.24423 104.997 5.69336 104.446 5.69336 103.764V102.622C5.69336 101.941 6.24447 101.389 6.92595 101.389C7.60791 101.389 8.15902 101.941 8.15902 102.622V103.764C8.15902 104.446 7.60791 104.997 6.92595 104.997Z" fill="#F6F6F6"/>
<path d="M111.548 38.4884H92.1631V97.6884H111.548V38.4884Z" fill="#C6C6C6"/>
<path d="M111.548 38.4879V32.3715L101.856 6.07117L92.1631 32.3715V38.4879" fill="#7A7979"/>
<path d="M106.834 38.4882H96.876V30.2555C96.876 27.8194 98.0997 25.5461 100.134 24.2043L101.855 23.0693L103.576 24.2043C105.61 25.5458 106.834 27.8194 106.834 30.2555L106.834 38.4882Z" fill="white"/>
<path d="M92.1641 32.3719H86.1445V97.6867H92.1641V32.3719Z" fill="#C6C6C6"/>
<path d="M94.0258 27.3145H84.2793L86.1428 32.3711H92.1623L94.0258 27.3145Z" fill="#C6C6C6"/>
<path d="M89.1538 18.8134L86.1436 27.3143H92.1631L89.1538 18.8134Z" fill="#7A7979"/>
<path d="M117.568 32.3719H111.549V97.6867H117.568V32.3719Z" fill="#C6C6C6"/>
<path d="M119.43 27.3145H109.685L111.548 32.3711H117.567L119.43 27.3145Z" fill="#C6C6C6"/>
<path d="M114.557 18.8134L111.548 27.3143H117.567L114.557 18.8134Z" fill="#7A7979"/>
<path d="M106.522 43.5624H97.1865V52.4445H106.522V43.5624Z" fill="white"/>
<path d="M106.522 73.9539H97.1865V91.1234H106.522V73.9539Z" fill="white"/>
<path d="M122.904 97.6854H80.8096V122.517H122.904V97.6854Z" fill="#C6C6C6"/>
<path d="M67.5462 35.4109H57.3477V51.3688H67.5462V35.4109Z" fill="#C6C6C6"/>
<path d="M63.1045 87.9041H61.7887C61.107 87.9041 60.5557 87.3525 60.5557 86.6711C60.5557 85.9893 61.1073 85.438 61.7887 85.438H63.1045C63.7864 85.438 64.3375 85.9896 64.3375 86.6711C64.3378 87.353 63.7867 87.9041 63.1045 87.9041Z" fill="#F6F6F6"/>
<path d="M75.0316 118.404H67.2174C66.5357 118.404 65.9844 117.853 65.9844 117.171C65.9844 116.489 66.536 115.938 67.2174 115.938H75.0316C75.7133 115.938 76.2642 116.489 76.2642 117.171C76.2642 117.853 75.713 118.404 75.0316 118.404Z" fill="#F6F6F6"/>
<path d="M62.939 118.404H61.2946C60.6126 118.404 60.0615 117.853 60.0615 117.171C60.0615 116.489 60.6126 115.938 61.2946 115.938H62.939C63.621 115.938 64.1721 116.489 64.1721 117.171C64.1721 117.853 63.621 118.404 62.939 118.404Z" fill="#F6F6F6"/>
<path d="M79.3077 87.9041H75.9352C75.2535 87.9041 74.7021 87.3525 74.7021 86.6711C74.7021 85.9893 75.2537 85.438 75.9352 85.438H79.3077C79.9894 85.438 80.5403 85.9896 80.5403 86.6711C80.5405 87.353 79.9894 87.9041 79.3077 87.9041Z" fill="#F6F6F6"/>
<path d="M85.7424 123.749C85.0606 123.749 84.5098 123.198 84.5098 122.516V108.091C84.5098 107.409 85.0609 106.858 85.7424 106.858C86.4243 106.858 86.9754 107.41 86.9754 108.091V122.516C86.9754 123.198 86.4243 123.749 85.7424 123.749Z" fill="#F6F6F6"/>
<path d="M85.7424 104.996C85.0606 104.996 84.5098 104.445 84.5098 103.763V102.621C84.5098 101.94 85.0609 101.388 85.7424 101.388C86.4243 101.388 86.9754 101.94 86.9754 102.621V103.763C86.9754 104.445 86.4243 104.996 85.7424 104.996Z" fill="#F6F6F6"/>
<path d="M63.6797 60.6587V61.9636C63.6797 62.6456 63.1286 63.1967 62.4471 63.1967C61.7651 63.1967 61.214 62.6456 61.214 61.9636V60.6587C61.214 59.977 61.7651 59.4262 62.4471 59.4262C63.1286 59.4259 63.6797 59.9768 63.6797 60.6587ZM73.1365 63.8546C72.6567 63.3709 71.8731 63.3709 71.3933 63.8546L70.472 64.7758C69.9884 65.2573 69.9884 66.0371 70.472 66.5186C70.7116 66.7605 71.0275 66.8803 71.3434 66.8803C71.6593 66.8803 71.975 66.7603 72.2148 66.5186L73.1365 65.5973C73.6199 65.1158 73.6199 64.336 73.1365 63.8546ZM53.498 63.8524C53.0143 63.3726 52.2367 63.3709 51.7531 63.8546C51.2716 64.336 51.2738 65.118 51.7552 65.5995L52.6789 66.5207C52.9208 66.7603 53.2343 66.8803 53.5503 66.8803C53.8662 66.8803 54.1819 66.7603 54.4238 66.5186C54.9053 66.0371 54.9036 65.2551 54.4216 64.7737L53.498 63.8524ZM7.32487 53.677C8.00659 53.677 8.55794 53.1259 8.55794 52.4439V51.6969C8.55794 51.0149 8.00635 50.4638 7.32487 50.4638C6.64339 50.4638 6.0918 51.0149 6.0918 51.6969V52.4439C6.0918 53.1261 6.64339 53.677 7.32487 53.677ZM28.9387 73.9536V91.1241C28.9387 91.8058 28.3876 92.3567 27.7061 92.3567H18.3693C17.6875 92.3567 17.1362 91.8056 17.1362 91.1241V73.9536C17.1362 73.2719 17.6878 72.721 18.3693 72.721H27.7059C28.3876 72.7208 28.9387 73.2717 28.9387 73.9536ZM26.473 75.1867H19.6026V89.8908H26.473V75.1867ZM23.0377 32.3048C22.3557 32.3048 21.8046 32.8559 21.8046 33.5374V34.2741C21.8046 34.9558 22.3557 35.5072 23.0377 35.5072C23.7194 35.5072 24.2703 34.9556 24.2703 34.2741V33.5374C24.2705 32.8557 23.7194 32.3048 23.0377 32.3048ZM23.0377 49.7254C23.7194 49.7254 24.2703 49.1738 24.2703 48.4924V47.7562C24.2703 47.0742 23.7192 46.5231 23.0377 46.5231C22.3557 46.5231 21.8046 47.0742 21.8046 47.7562V48.4924C21.8046 49.1743 22.3557 49.7254 23.0377 49.7254ZM23.0377 80.7393C23.7194 80.7393 24.2703 80.1881 24.2703 79.5067V78.77C24.2703 78.0883 23.7192 77.5374 23.0377 77.5374C22.3557 77.5374 21.8046 78.0885 21.8046 78.77V79.5067C21.8046 80.1881 22.3557 80.7393 23.0377 80.7393ZM1.98991 106.481C1.30819 106.481 0.756836 107.033 0.756836 107.714V108.991C0.756836 109.673 1.30843 110.224 1.98991 110.224C2.67139 110.224 3.22322 109.673 3.22322 108.991V107.714C3.22322 107.033 2.67163 106.481 1.98991 106.481ZM1.98991 112.649C1.30819 112.649 0.756836 113.2 0.756836 113.881V122.516C0.756836 123.198 1.30843 123.75 1.98991 123.75C2.67139 123.75 3.22322 123.198 3.22322 122.517V113.881C3.22322 113.2 2.67163 112.649 1.98991 112.649ZM23.0377 86.961C23.7194 86.961 24.2703 86.4094 24.2703 85.7279V84.9917C24.2703 84.3098 23.7192 83.7587 23.0377 83.7587C22.3557 83.7587 21.8046 84.3098 21.8046 84.9917V85.7279C21.8046 86.4094 22.3557 86.961 23.0377 86.961ZM107.755 73.9536V91.1241C107.755 91.8058 107.204 92.3567 106.522 92.3567H97.188C96.5061 92.3567 95.955 91.8056 95.955 91.1241V73.9536C95.955 73.2719 96.5061 72.721 97.188 72.721H106.522C107.204 72.7208 107.755 73.2717 107.755 73.9536ZM105.289 75.1867H98.4204V89.8908H105.289V75.1867ZM101.854 32.3048C101.172 32.3048 100.621 32.8559 100.621 33.5374V34.2741C100.621 34.9558 101.172 35.5072 101.854 35.5072C102.536 35.5072 103.087 34.9556 103.087 34.2741V33.5374C103.087 32.8557 102.536 32.3048 101.854 32.3048ZM101.854 49.7254C102.536 49.7254 103.087 49.1738 103.087 48.4924V47.7562C103.087 47.0742 102.536 46.5231 101.854 46.5231C101.172 46.5231 100.621 47.0742 100.621 47.7562V48.4924C100.621 49.1743 101.172 49.7254 101.854 49.7254ZM101.854 80.7393C102.536 80.7393 103.087 80.1881 103.087 79.5067V78.77C103.087 78.0883 102.536 77.5374 101.854 77.5374C101.172 77.5374 100.621 78.0885 100.621 78.77V79.5067C100.621 80.1881 101.172 80.7393 101.854 80.7393ZM124.134 97.6851V122.517C124.134 123.198 123.583 123.75 122.901 123.75C122.22 123.75 121.669 123.198 121.669 122.517V98.918H117.566H111.548H92.1625H86.1439H82.042V102.839V122.517C82.042 123.198 81.4904 123.75 80.8089 123.75C80.1272 123.75 79.5759 123.198 79.5759 122.517V112.764C75.1675 110.352 69.0031 108.948 62.4473 108.948C55.8899 108.948 49.7245 110.353 45.3185 112.764V122.517C45.3185 123.198 44.7674 123.75 44.0855 123.75C43.4037 123.75 42.8529 123.198 42.8529 122.517V102.839V98.918H38.7488H32.7317H32.7295H13.3459H7.32511H3.22322V102.621C3.22322 103.303 2.67163 103.854 1.99015 103.854C1.30867 103.854 0.757077 103.303 0.757077 102.621V97.6851C0.757077 97.0032 1.30867 96.4521 1.99015 96.4521H6.09204V78.2644H1.99232C1.3106 78.2644 0.759246 77.7133 0.759246 77.0318C0.759246 76.3499 1.31084 75.7988 1.99232 75.7988H6.0918V56.139C6.0918 55.457 6.64339 54.9059 7.32487 54.9059C8.00635 54.9059 8.55794 55.457 8.55794 56.139V61.4325H12.1128V44.7939H8.55794V47.2554C8.55794 47.9372 8.00635 48.488 7.32487 48.488C6.64339 48.488 6.0918 47.9369 6.0918 47.2554V32.5892L4.30544 27.741C4.16616 27.3622 4.21845 26.9393 4.44955 26.6084C4.68016 26.2773 5.05946 26.0816 5.46213 26.0816H6.45254L9.1023 18.6008V18.0887H8.79723C8.11527 18.0887 7.56416 17.5371 7.56416 16.8556C7.56416 16.1739 8.11527 15.6226 8.79723 15.6226H9.10206V15.3156C9.10206 14.6336 9.65366 14.0825 10.3351 14.0825C11.0166 14.0825 11.5682 14.6336 11.5682 15.3156V15.6226H11.8752C12.5572 15.6226 13.1083 16.1742 13.1083 16.8556C13.1083 17.5374 12.5572 18.0887 11.8752 18.0887H11.5684V18.5996L14.2185 26.0814H14.3493L21.8046 5.85029V1.60429C21.8046 0.922574 22.3557 0.371704 23.0377 0.371704C23.7194 0.371704 24.2703 0.922815 24.2703 1.60429V5.85029L31.7273 26.0814H31.8567L34.5067 18.5991V18.0887H34.1992C33.5175 18.0887 32.9666 17.5371 32.9666 16.8556C32.9666 16.1739 33.5177 15.6226 34.1992 15.6226H34.5067V15.3156C34.5067 14.6336 35.0578 14.0825 35.7393 14.0825C36.4212 14.0825 36.9723 14.6336 36.9723 15.3156V15.6226H37.2777C37.9594 15.6226 38.5102 16.1742 38.5102 16.8556C38.5102 17.5374 37.9591 18.0887 37.2777 18.0887H36.9723V18.5991L39.6207 26.0814H40.6123C41.0154 26.0814 41.3942 26.2773 41.6256 26.6082C41.8562 26.9393 41.909 27.3619 41.7692 27.7408L39.9807 32.5894V37.2542H56.1138V35.4115C56.1138 34.7295 56.6653 34.1784 57.3468 34.1784H67.5459C68.2278 34.1784 68.779 34.7295 68.779 35.4115V37.2545H84.9099V32.5901L83.1213 27.741C82.9821 27.3622 83.0343 26.9393 83.2654 26.6084C83.4961 26.2773 83.8751 26.0816 84.278 26.0816H85.2704L87.9204 18.5998V18.0887H87.6134C86.9314 18.0887 86.3803 17.5371 86.3803 16.8556C86.3803 16.1739 86.9314 15.6226 87.6134 15.6226H87.9204V15.3156C87.9204 14.6336 88.472 14.0825 89.1535 14.0825C89.8352 14.0825 90.3865 14.6336 90.3865 15.3156V15.6226H90.6914C91.3733 15.6226 91.9244 16.1742 91.9244 16.8556C91.9244 17.5374 91.3733 18.0887 90.6914 18.0887H90.3865V18.601L93.0348 26.0814H93.1652L100.621 5.85029V1.60429C100.62 0.922574 101.171 0.371704 101.853 0.371704C102.535 0.371704 103.086 0.922815 103.086 1.60429V5.84836L110.543 26.0812H110.674L113.322 18.5989V18.0887H113.017C112.335 18.0887 111.784 17.5371 111.784 16.8556C111.784 16.1739 112.336 15.6226 113.017 15.6226H113.322V15.3156C113.322 14.6336 113.873 14.0825 114.555 14.0825C115.237 14.0825 115.788 14.6336 115.788 15.3156V15.6226H116.095C116.777 15.6226 117.328 16.1742 117.328 16.8556C117.328 17.5374 116.777 18.0887 116.095 18.0887H115.788V18.5991L118.438 26.0814H119.428C119.831 26.0814 120.21 26.2773 120.441 26.6082C120.672 26.9393 120.725 27.3619 120.585 27.7408L118.799 32.5899V75.7988H122.902C123.584 75.7988 124.135 76.3499 124.135 77.0318C124.135 77.7136 123.584 78.2644 122.902 78.2644H118.8V96.4521H122.902C123.583 96.4521 124.134 97.0029 124.134 97.6851ZM84.9103 75.7985V52.6008H67.5464H57.3473H39.9812V75.7985H52.7782C53.3922 70.9843 57.4688 67.2376 62.4471 67.2376C67.4249 67.2376 71.5022 70.9841 72.116 75.7985H84.9103ZM62.4471 69.7035C58.8262 69.7035 55.8118 72.3439 55.2231 75.7988H69.6703C69.0823 72.3437 66.0673 69.7035 62.4471 69.7035ZM26.473 44.7936H19.6026V51.2113H26.473V44.7936ZM31.4964 42.3277V39.7199H28.0177H18.0579H14.579V42.3277H18.3693H27.7059H31.4964ZM8.18563 31.1373H12.4854L13.4396 28.5471H13.3459H7.32487H7.23113L8.18563 31.1373ZM14.5845 32.5752L14.579 32.5901V37.2545H16.8246V31.0522V30.2549C16.8246 27.3947 18.2493 24.7476 20.6368 23.1728L22.3574 22.0378C22.7714 21.7679 23.3028 21.7679 23.7168 22.0378L25.4378 23.1728C27.8249 24.7476 29.25 27.3947 29.25 30.2549V31.0522V37.2545H31.4957V32.5901L29.7093 27.741C29.7089 27.7398 29.7093 27.7379 29.7089 27.7367L23.0377 9.63842L14.5845 32.5752ZM37.5153 33.603H33.9645V38.4868V42.3277H37.5153V33.603ZM33.9645 61.4323H37.5153V44.7936H33.9645V61.4323ZM38.7483 28.5468H32.7292H32.6365L33.5912 31.1371H37.888L38.8423 28.5468H38.7483ZM19.2908 37.2542H26.7846V31.7115C26.4285 31.4609 26.0788 31.2057 25.6867 30.9872C24.0794 30.0895 21.9988 30.0895 20.391 30.9872C19.9975 31.2057 19.6474 31.4619 19.291 31.7115L19.2908 37.2542ZM19.5187 28.6594C21.6969 27.5877 24.3828 27.5887 26.5567 28.6594C26.5434 28.6116 26.5174 28.5687 26.5027 28.5213C26.3364 27.968 26.0781 27.4528 25.7622 26.9723C25.6711 26.8344 25.5778 26.6993 25.4756 26.5691C25.0804 26.066 24.6308 25.5973 24.0792 25.2339L23.0379 24.5454L21.9967 25.2339C21.4451 25.597 20.9961 26.0645 20.6012 26.5679C20.498 26.6993 20.4041 26.8352 20.313 26.9737C19.9971 27.4547 19.738 27.9704 19.572 28.5237C19.5575 28.5702 19.5315 28.6121 19.5187 28.6594ZM31.4964 63.8979H14.579V66.1595H31.4962L31.4964 63.8979ZM33.9645 66.1595H37.5153V63.8979H33.9645V66.1595ZM39.9831 47.2923V50.1349H56.114V47.2923H39.9831ZM68.7794 47.2923V50.1349H84.9103V47.2923H68.7794ZM95.1848 27.7345C95.1839 27.7362 95.1848 27.7383 95.1839 27.7408L93.3953 32.5899V37.2542H95.6434V31.052V30.2546C95.6434 27.3966 97.068 24.7498 99.4535 23.1726L101.174 22.0376C101.588 21.7677 102.119 21.7677 102.533 22.0376L104.257 23.1726C106.642 24.7495 108.067 27.3966 108.067 30.2546V31.052V37.2542H110.315V32.5899L108.526 27.7408C108.526 27.7395 108.526 27.7376 108.526 27.7364L101.854 9.63842L95.1848 27.7345ZM87.3765 42.3277H90.9292V38.4868V33.603H87.3765V42.3277ZM98.1093 37.2542H105.601V31.7111C105.245 31.4609 104.895 31.2057 104.503 30.9872C102.891 30.0895 100.818 30.0895 99.2096 30.9872C98.8158 31.2057 98.4659 31.4619 98.1095 31.7115V37.2542H98.1093ZM98.3373 28.6594C99.425 28.1237 100.639 27.8543 101.854 27.8543C103.071 27.8543 104.285 28.1241 105.373 28.6594C105.36 28.6116 105.333 28.5697 105.32 28.522C105.152 27.9682 104.893 27.4513 104.577 26.9694C104.487 26.8337 104.395 26.6995 104.295 26.5708C103.899 26.0662 103.449 25.5973 102.898 25.2334L101.854 24.5449L100.813 25.2334C100.262 25.5965 99.813 26.065 99.4176 26.5686C99.3154 26.6985 99.2221 26.8342 99.131 26.9718C98.8146 27.4533 98.5563 27.9694 98.3896 28.5239C98.3761 28.5707 98.35 28.6121 98.3373 28.6594ZM93.3953 39.7201V42.328H97.188H106.522H110.315V39.7201H106.834H96.8767H93.3953ZM116.334 33.603H112.781V38.4868V42.3277H116.334V33.603ZM105.289 44.7936H98.4204V51.2113H105.289V44.7936ZM87.3765 61.4323H90.9292V44.7936H87.3765V46.0592V51.3677V61.4323ZM93.3953 61.4323H110.315V44.7936H107.755V52.4439C107.755 53.1259 107.204 53.677 106.522 53.677H105.882V54.9797C105.882 55.6614 105.331 56.2127 104.649 56.2127C103.967 56.2127 103.416 55.6612 103.416 54.9797V53.677H100.295V54.9797C100.295 55.6614 99.7431 56.2127 99.0616 56.2127C98.3799 56.2127 97.8286 55.6612 97.8286 54.9797V53.677H97.1885C96.5066 53.677 95.9555 53.1259 95.9555 52.4439V44.7936H93.3961V61.4323H93.3953ZM112.781 61.4323H116.334V44.7936H112.781V61.4323ZM117.566 28.5468H111.548H111.454L112.408 31.1371H116.706L117.66 28.5468H117.566ZM92.162 28.5468H86.1434H86.0497L87.0039 31.1371H91.3015L92.2558 28.5468H92.162ZM87.3765 66.1595H90.9292V63.8979H87.3765V66.1595ZM93.3953 66.1595H110.315V63.8979H93.3953V66.1595ZM112.781 66.1595H116.334V63.8979H112.781V66.1595ZM113.292 26.0814H115.821L114.556 22.5109L113.292 26.0814ZM87.8883 26.0814H90.4174L89.1539 22.5111L87.8883 26.0814ZM84.9103 39.7201H77.103V44.8262H84.9103V39.7201ZM68.7794 39.7201V44.8262H74.6373V39.7201H68.7794ZM58.5804 50.1351H66.3135V36.6441H58.5804V50.1351ZM56.114 39.7201H50.2544V44.8262H56.114V39.7201ZM39.9809 39.7201V44.8262H47.7883V39.7201H39.9809ZM34.4739 26.0814H37.0029L35.7395 22.5111L34.4739 26.0814ZM9.06977 26.0814H11.601L10.3354 22.5087L9.06977 26.0814ZM12.1126 42.3277V38.4868V33.603H8.55794V42.3277H12.1126ZM14.579 61.4323H31.4962V44.7936H28.9387V52.4439C28.9387 53.1259 28.3876 53.677 27.7061 53.677H27.0656V54.9797C27.0656 55.6614 26.5145 56.2127 25.8325 56.2127C25.1508 56.2127 24.5999 55.6612 24.5999 54.9797V53.677H21.4783V54.9797C21.4783 55.6614 20.9267 56.2127 20.2453 56.2127C19.5635 56.2127 19.0122 55.6612 19.0122 54.9797V53.677H18.369C17.6873 53.677 17.136 53.1259 17.136 52.4439V44.7936H14.579V61.4323ZM8.55794 63.8979V66.1595H12.1128V63.8979H8.55794ZM8.55794 96.4521H12.1128V68.6252H8.55794V96.4521ZM14.579 96.4521H31.4962V68.6252H14.579V96.4521ZM37.5153 96.4521V68.6252H33.9645V96.4518L37.5153 96.4521ZM44.085 96.4521H80.8085H84.9103V78.2644H71.008H53.8859H39.9814V96.4521H44.085ZM71.9683 101.606V98.918H67.2635V101.606H71.9683ZM67.2635 104.072V106.748C68.8847 106.911 70.448 107.169 71.9685 107.49V104.072H67.2635ZM57.6283 101.606V98.918H52.9252V101.606H57.6283ZM52.9252 104.072V107.49C54.4448 107.17 56.007 106.911 57.6283 106.748V104.072H52.9252ZM45.3181 101.606H50.4593V98.918H45.3181V101.606ZM60.094 101.606H64.7971V98.918H60.094V101.606ZM74.4347 101.606H79.5754V98.918H74.4347V101.606ZM45.3181 110.042C46.8873 109.287 48.5975 108.641 50.4593 108.119V104.072H45.3181V110.042ZM62.4471 106.481C63.2437 106.481 64.0113 106.573 64.7973 106.612V104.072H60.0942V106.612C60.8815 106.573 61.6492 106.481 62.4471 106.481ZM79.5754 110.042V104.072H74.4347V108.12C76.2959 108.642 78.0061 109.287 79.5754 110.042ZM87.3765 96.4521H90.9292V68.6252H87.3765V96.4521ZM93.3953 96.4521H110.315V68.6252H93.3953V96.4521ZM116.334 96.4521V68.6252H112.781V96.4518L116.334 96.4521ZM101.854 86.961C102.536 86.961 103.087 86.4094 103.087 85.7279V84.9917C103.087 84.3098 102.536 83.7587 101.854 83.7587C101.172 83.7587 100.621 84.3098 100.621 84.9917V85.7279C100.621 86.4094 101.172 86.961 101.854 86.961Z" fill="#231F20"/>
</g>
<defs>
<clipPath id="clip0_200_1650">
<rect width="123.378" height="123.378" fill="white" transform="translate(0.756836 0.371826)"/>
</clipPath>
</defs>
</svg>
