<svg width="123" height="123" viewBox="0 0 123 123" fill="none" xmlns="http://www.w3.org/2000/svg">
<path d="M120.609 104.394V100.469H119.235V98.5064H116.292V101.254H113.741V103.216H105.106V101.254H101.966V104.001H93.7236V101.45H92.5462V101.254H90.1912V100.273V97.7214H87.6401V100.273H87.2476V102.039H84.8926V101.45H83.3227V101.843H82.1452H81.7527V93.2078H76.6504V101.843H75.8654V102.824H71.548V101.843H70.1743V100.469H68.6043V101.45H68.0156V104.394H67.8193V112.244H122.572V104.394H120.609Z" fill="#C4E8F7"/>
<path d="M122.572 109.889H0.900391V122.056H122.572V109.889Z" fill="#4DBBFF"/>
<path d="M122.572 111.263H0.900391V112.44H122.572V111.263Z" fill="#80D5FF"/>
<path d="M122.572 114.795H0.900391V115.972H122.572V114.795Z" fill="#80D5FF"/>
<path d="M122.572 118.328H0.900391V119.505H122.572V118.328Z" fill="#80D5FF"/>
<path d="M73.7074 116.953C73.7074 117.934 72.9225 118.915 71.745 118.915H51.5318C50.5506 118.915 49.5693 118.13 49.5693 116.953V105.767C49.5693 104.786 50.3543 103.804 51.5318 103.804H71.745C72.7262 103.804 73.7074 104.589 73.7074 105.767V116.953Z" fill="#057A5E"/>
<path d="M49.7656 105.767C49.7656 104.786 50.5506 103.804 51.7281 103.804H71.9413C72.9225 103.804 73.9037 104.589 73.9037 105.767V116.953C73.9037 117.934 73.1188 118.915 71.9413 118.915" fill="#085B45"/>
<path d="M66.6422 30.8024C66.6422 35.316 64.2873 34.3348 61.5399 34.3348C58.7924 34.3348 56.4375 35.316 56.4375 30.8024C56.4375 26.2888 58.7924 22.7563 61.5399 22.7563C64.4835 22.7563 66.6422 26.2888 66.6422 30.8024Z" fill="#0EAD9A"/>
<path d="M51.7279 10.981V0.383789C49.9616 0.776279 48.7842 3.71995 48.7842 7.25236C48.7842 8.62607 48.9804 9.80354 49.3729 10.981H51.7279Z" fill="#15CE87"/>
<path d="M51.5312 10.981V0.383789C53.2975 0.776279 54.4749 3.71995 54.4749 7.25236C54.4749 8.62607 54.2787 9.80354 53.8862 10.981H51.5312Z" fill="#13BC9C"/>
<path d="M63.2167 53.5475L71.5938 57.4086L77.3442 44.9323L68.9672 41.0712L63.2167 53.5475Z" fill="#3AE8A6"/>
<path d="M71.5479 57.491L63.3057 53.5661L68.9968 41.0065L75.6691 45.1276L71.5479 57.491Z" fill="#0EC196"/>
<path d="M69.7816 35.9041C69.7816 35.9041 71.9403 39.044 75.2765 41.3989C75.4728 41.5951 79.0052 43.7538 76.2577 44.7351C75.4728 44.9313 75.2765 46.1088 76.2577 47.09C79.0052 50.0337 74.2953 50.4262 72.7253 51.6036C71.1554 52.9774 73.1178 53.9586 71.5479 55.136C69.9779 56.1173 67.2305 52.7811 67.2305 52.7811L68.9967 36.689L69.7816 35.9041Z" fill="#1DD894"/>
<path d="M76.0624 44.7351C75.2774 44.9313 75.0812 46.1088 76.0624 47.09C78.8098 50.0337 74.1 50.4262 72.53 51.6036C70.9601 52.9774 72.9225 53.9586 71.3525 55.136C69.7826 56.1173 67.0352 52.7811 67.0352 52.7811L68.8014 36.689L69.7826 35.9041" fill="#15CE87"/>
<path d="M72.53 51.6036C70.9601 52.9774 72.9225 53.9586 71.3525 55.136C69.7826 56.1173 67.0352 52.7811 67.0352 52.7811L68.8014 36.689L69.7826 35.9041" fill="#0EC196"/>
<path d="M63.2158 53.5485L71.5928 57.4095L77.3432 44.9333L68.9662 41.0722L63.2158 53.5485Z" fill="#3AE8A6"/>
<path d="M71.5479 57.491L63.3057 53.5661L68.9968 41.0065L75.6691 45.1276L71.5479 57.491Z" fill="#15CE87"/>
<path d="M64.8755 38.4553H58.3994L59.9694 30.998H63.3055L64.8755 38.4553Z" fill="#13BC9C"/>
<path d="M75.2767 51.0151C75.473 51.2113 75.6692 51.4076 75.473 51.8001L74.0993 54.7437C73.903 54.94 73.7068 55.1362 73.3143 54.94L71.7443 54.155C71.5481 53.9587 71.3518 53.7625 71.5481 53.37L72.9218 50.4263C73.118 50.2301 73.5105 50.0338 73.7068 50.2301L75.2767 51.0151Z" fill="#1DD894"/>
<path d="M54.6715 43.7535C54.6715 44.7347 53.8865 45.5197 52.9053 45.5197H50.9429C49.9616 45.5197 49.1767 44.7347 49.1767 43.7535L48.7842 30.8014C48.7842 29.8201 49.5692 29.0352 50.5504 29.0352H52.5128C53.4941 29.0352 54.279 29.8201 54.279 30.8014L54.6715 43.7535Z" fill="#13BC9C"/>
<path d="M53.4936 35.9041C53.4936 35.9041 51.3349 39.044 47.9988 41.3989C47.8025 41.5951 44.2701 43.7538 47.0175 44.7351C47.8025 44.9313 47.9988 46.1088 47.0175 47.09C44.2701 50.0337 48.98 50.4262 50.55 51.6036C52.1199 52.9774 50.1575 53.9586 51.7274 55.136C53.2974 56.1173 56.0448 52.7811 56.0448 52.7811L54.2786 36.689L53.4936 35.9041Z" fill="#1DD894"/>
<path d="M47.2135 44.7351C47.9985 44.9313 48.1947 46.1088 47.2135 47.09C44.4661 50.0337 49.176 50.4262 50.7459 51.6036C52.3159 52.9774 50.3534 53.9586 51.9234 55.136C53.4934 56.1173 56.2408 52.7811 56.2408 52.7811L54.4746 36.689L53.4934 35.9041" fill="#15CE87"/>
<path d="M50.7461 51.6034C52.3161 52.9771 50.3536 53.9583 51.9236 55.1358C53.4935 56.117 56.2409 52.7809 56.2409 52.7809L54.4747 36.6888L53.4935 35.9038" fill="#0EC196"/>
<path d="M72.9217 104.197C72.9217 104.982 72.3329 105.571 71.548 105.571H51.7272C50.9422 105.571 50.3535 104.982 50.3535 104.197L53.1009 54.155C53.1009 53.37 53.6897 52.7812 54.4747 52.7812H68.8005C69.5855 52.7812 70.1742 53.37 70.1742 54.155L72.9217 104.197Z" fill="#0EC196"/>
<path d="M51.3348 83.1992L50.5498 96.5439L59.3808 105.375H71.548C72.333 105.375 72.9217 104.786 72.9217 104.001L72.333 93.6002L56.6334 77.9006L51.3348 83.1992Z" fill="#0FB293"/>
<path d="M53.1016 54.1552C53.1016 53.3702 53.6903 52.7815 54.4753 52.7815H68.8011C69.5861 52.7815 70.1749 53.3702 70.1749 54.1552L72.9223 104.198C72.9223 104.983 72.3335 105.571 71.5486 105.571" fill="#13BC9C"/>
<path d="M74.8837 95.1704C74.8837 96.1516 74.0987 96.7404 73.3137 96.7404H49.9606C48.9794 96.7404 48.3906 95.9554 48.3906 95.1704L53.2967 36.6895C53.2967 35.7082 54.0817 35.1195 54.8667 35.1195H68.4076C69.3888 35.1195 69.9775 35.9045 69.9775 36.6895L74.8837 95.1704Z" fill="#1DD894"/>
<path d="M53.2979 36.8859C53.2979 35.9047 54.0828 35.3159 54.8678 35.3159H68.4087C69.3899 35.3159 69.9787 36.1009 69.9787 36.8859L74.8848 95.3668C74.8848 96.348 74.0998 96.9368 73.3148 96.9368H60.7552" fill="#15CE87"/>
<path d="M49.9606 96.7404C48.9794 96.7404 48.3906 95.9554 48.3906 95.1704L53.2967 36.6895C53.2967 35.7082 54.0817 35.1195 54.8667 35.1195H68.4076" fill="#79F2C1"/>
<path d="M68.4087 35.1195H54.8678C53.8866 35.1195 53.2979 35.9045 53.2979 36.6895L57.6152 71.2285L68.4087 35.1195Z" fill="#3AE8A6"/>
<path d="M54.8672 35.1195H68.4081C69.3893 35.1195 69.978 35.9045 69.978 36.6895L74.8842 95.1704C74.8842 96.1516 74.0992 96.7404 73.3142 96.7404" fill="#0EC196"/>
<path d="M68.4081 35.1195H54.8672L61.5395 57.6877L68.4081 35.1195Z" fill="#15CE87"/>
<path d="M54.279 30.4088C54.279 31.7825 53.1016 32.96 51.5316 32.96C49.9616 32.96 48.7842 31.7825 48.7842 30.4088L50.7466 15.1017C50.7466 13.728 49.9616 12.5505 51.5316 12.5505C53.1016 12.5505 52.3166 13.728 52.3166 15.1017L54.279 30.4088Z" fill="#1DD894"/>
<path d="M50.746 14.9063C50.746 13.5326 49.9611 12.3551 51.531 12.3551C53.101 12.3551 52.316 13.5326 52.316 14.9063L54.2785 30.2134C54.2785 31.5871 53.101 32.7646 51.531 32.7646" fill="#15CE87"/>
<path d="M53.6905 14.71C53.6905 15.495 53.1017 16.2799 52.1205 16.2799H51.1393C50.3543 16.2799 49.5693 15.6912 49.5693 14.71V12.5513C49.5693 11.7663 50.1581 10.9813 51.1393 10.9813H52.1205C52.9055 10.9813 53.6905 11.5701 53.6905 12.5513V14.71Z" fill="#3AE8A6"/>
<path d="M49.5693 12.5513C49.5693 11.7663 50.1581 10.9813 51.1393 10.9813H52.1205C52.9055 10.9813 53.6905 11.5701 53.6905 12.5513V14.9062C53.6905 15.6912 53.1017 16.4762 52.1205 16.4762H51.1393" fill="#13BC9C"/>
<path d="M55.4564 11.1767C55.4564 11.5692 55.0639 11.9617 54.6714 11.9617H48.9803C48.5878 11.9617 48.1953 11.5692 48.1953 11.1767C48.1953 10.7842 48.5878 10.3917 48.9803 10.3917H54.6714C55.0639 10.3917 55.4564 10.7842 55.4564 11.1767Z" fill="#1DD894"/>
<path d="M65.8575 26.8763C65.8575 29.035 63.8951 33.7449 61.7364 33.7449C59.3814 33.7449 57.6152 28.8388 57.6152 26.8763C57.6152 24.9139 59.5777 25.8951 61.7364 25.8951C63.8951 25.8951 65.8575 24.9139 65.8575 26.8763Z" fill="#1DD894"/>
<path d="M57.4189 26.8768C57.4189 24.9144 59.3814 25.8956 61.5401 25.8956C63.895 25.8956 65.6612 24.9144 65.6612 26.8768" fill="#15CE87"/>
<path d="M61.54 25.8963C63.895 25.8963 65.6612 24.9151 65.6612 26.8775C65.6612 29.0362 63.6987 33.7461 61.54 33.7461" fill="#13BC9C"/>
<path d="M66.4461 25.6998C66.4461 26.0923 66.2498 26.2886 65.8573 26.2886H57.4188C57.0263 26.2886 56.8301 26.0923 56.8301 25.6998C56.8301 25.3073 57.0263 25.1111 57.4188 25.1111H65.8573C66.2498 25.1111 66.4461 25.5036 66.4461 25.6998Z" fill="#13BC9C"/>
<path d="M58.2034 24.3258V25.5033H56.8296L54.8672 22.1671L58.2034 24.3258Z" fill="#1DD894"/>
<path d="M54.8672 22.1671L58.2034 24.3258V25.5033" fill="#13BC9C"/>
<path d="M60.1662 24.1295L59.7737 25.8957L58.2037 25.5032L56.4375 20.7933L60.1662 24.1295Z" fill="#1DD894"/>
<path d="M56.4375 20.7933L60.1662 24.1295L59.7737 25.8957" fill="#13BC9C"/>
<path d="M61.7358 24.1298L60.9508 25.6998L59.3808 24.9148L59.1846 20.0087L61.7358 24.1298Z" fill="#1DD894"/>
<path d="M59.1846 20.0087L61.7358 24.1298L60.9508 25.6998" fill="#13BC9C"/>
<path d="M65.0723 24.3258V25.5033H66.446L68.4084 22.1671L65.0723 24.3258Z" fill="#1DD894"/>
<path d="M68.4084 22.1671L65.0723 24.3258V25.5033" fill="#13BC9C"/>
<path d="M63.1104 24.1295L63.5028 25.8957L65.0728 25.5032L66.839 20.7933L63.1104 24.1295Z" fill="#1DD894"/>
<path d="M66.839 20.7933L63.1104 24.1295L63.5028 25.8957" fill="#13BC9C"/>
<path d="M61.54 24.1298L62.325 25.6998L63.895 24.9148L64.0912 20.0087L61.54 24.1298Z" fill="#1DD894"/>
<path d="M64.0912 20.0087L61.54 24.1298L62.325 25.6998" fill="#13BC9C"/>
<path d="M62.7172 24.7184L61.5398 25.8958L60.3623 24.7184L61.5398 19.8123L62.7172 24.7184Z" fill="#1DD894"/>
<path d="M61.54 19.8123L62.7175 24.7184L61.54 25.8958" fill="#13BC9C"/>
<path d="M75.0808 105.179C75.0808 105.571 74.6884 105.964 74.2959 105.964H48.9803C48.5878 105.964 48.1953 105.571 48.1953 105.179C48.1953 104.786 48.5878 104.394 48.9803 104.394H74.2959C74.6884 104.394 75.0808 104.786 75.0808 105.179Z" fill="#15CE87"/>
<path d="M88.4254 120.093C88.4254 121.074 87.6405 122.055 86.463 122.055H37.0093C36.0281 122.055 35.0469 121.27 35.0469 120.093V118.523C35.0469 117.542 35.8319 116.56 37.0093 116.56H86.463C87.6405 116.56 88.4254 117.345 88.4254 118.523V120.093Z" fill="#085B45"/>
<path d="M39.5607 104.393C39.5607 104.786 39.3644 104.982 38.972 104.982H27.786C27.3935 104.982 27.1973 104.786 27.1973 104.393V98.1133C27.1973 97.7208 27.3935 97.5245 27.786 97.5245H38.972C39.3644 97.5245 39.5607 97.7208 39.5607 98.1133V104.393Z" fill="#219352"/>
<path d="M35.4395 104.393V98.1133C35.4395 97.7208 35.2433 97.5245 34.8508 97.5245H27.786C27.3935 97.5245 27.1973 97.7208 27.1973 98.1133V104.393C27.1973 104.786 27.3935 104.982 27.786 104.982H34.8508C35.2433 104.982 35.4395 104.786 35.4395 104.393Z" fill="#42B779"/>
<path d="M18.5624 91.8348C18.5624 92.031 18.3662 92.0311 18.3662 92.0311C18.1699 92.0311 18.1699 92.031 18.1699 91.8348V83.7888C18.1699 83.5925 18.1699 83.5925 18.3662 83.5925C18.5624 83.5925 18.5624 83.5925 18.5624 83.7888V91.8348Z" fill="#143647"/>
<path d="M19.5434 95.3662C19.5434 95.7587 19.3472 95.9549 18.9547 95.9549H17.7772C17.3847 95.9549 17.1885 95.7587 17.1885 95.3662V90.4601C17.1885 90.0676 17.3847 89.8713 17.7772 89.8713H19.1509C19.5434 89.8713 19.7397 90.0676 19.7397 90.4601V95.3662H19.5434Z" fill="#143647"/>
<path d="M21.3102 103.609C21.3102 103.806 21.114 104.002 20.9177 104.002H16.0116C15.8154 104.002 15.6191 103.806 15.6191 103.609V91.4422C15.6191 91.2459 15.8154 91.0497 16.0116 91.0497H21.114C21.3102 91.0497 21.5065 91.2459 21.5065 91.4422V103.609H21.3102Z" fill="#143647"/>
<path d="M18.9553 103.609V91.4418C18.9553 91.2456 18.7591 91.0493 18.5628 91.0493H16.0116C15.8154 91.0493 15.6191 91.2456 15.6191 91.4418V103.609C15.6191 103.805 15.8154 104.001 16.0116 104.001H18.5628C18.7591 104.001 18.9553 103.805 18.9553 103.609Z" fill="#1C4859"/>
<path d="M24.4494 103.804C24.4494 104.197 24.2532 104.393 23.8607 104.393H13.0672C12.6748 104.393 12.4785 104.197 12.4785 103.804V98.1133C12.4785 97.7208 12.6748 97.5245 13.0672 97.5245H23.6645C24.057 97.5245 24.2532 97.7208 24.2532 98.1133V103.804H24.4494Z" fill="#92A0A5"/>
<path d="M13.0672 97.5245C12.6748 97.5245 12.4785 97.7208 12.4785 98.1133V103.608H20.917C21.3095 103.608 21.5058 103.412 21.5058 103.019V97.5245H13.0672Z" fill="#ACB8BC"/>
<path d="M20.7203 103.021C20.7203 103.413 20.5241 103.609 20.1316 103.609H19.5428C19.1503 103.609 18.9541 103.413 18.9541 103.021V99.4881C18.9541 99.0957 19.1503 98.8994 19.5428 98.8994H20.1316C20.5241 98.8994 20.7203 99.0957 20.7203 99.4881V103.021Z" fill="#458599"/>
<path d="M44.2701 103.216C44.0738 103.02 43.8776 102.823 43.6813 102.823H8.55353C8.35729 102.823 8.16104 102.823 7.9648 103.02C7.76855 103.216 7.76855 103.412 7.76855 103.608L9.731 109.888C9.731 110.084 10.1235 110.281 10.3197 110.281H40.3452C40.5414 110.281 40.7377 110.084 40.9339 109.888L44.0738 103.608C44.2701 103.608 44.2701 103.412 44.2701 103.216Z" fill="#143647"/>
<path d="M9.73122 109.889C9.73122 110.085 10.1237 110.281 10.32 110.281H40.3454C40.5417 110.281 40.7379 110.085 40.9341 109.889L42.8966 106.16H8.75L9.73122 109.889Z" fill="#0B232D"/>
<path d="M8.35738 105.375H43.4852L43.8777 104.394H8.16113L8.35738 105.375Z" fill="#E00E0E"/>
<path d="M13.0677 107.536C13.393 107.536 13.6568 107.272 13.6568 106.947C13.6568 106.621 13.393 106.358 13.0677 106.358C12.7423 106.358 12.4785 106.621 12.4785 106.947C12.4785 107.272 12.7423 107.536 13.0677 107.536Z" fill="#0C91C4"/>
<path d="M17.7776 107.536C18.103 107.536 18.3668 107.272 18.3668 106.947C18.3668 106.621 18.103 106.358 17.7776 106.358C17.4522 106.358 17.1885 106.621 17.1885 106.947C17.1885 107.272 17.4522 107.536 17.7776 107.536Z" fill="#0C91C4"/>
<path d="M22.6839 107.536C23.0092 107.536 23.273 107.272 23.273 106.947C23.273 106.621 23.0092 106.358 22.6839 106.358C22.3585 106.358 22.0947 106.621 22.0947 106.947C22.0947 107.272 22.3585 107.536 22.6839 107.536Z" fill="#0C91C4"/>
<path d="M27.3929 107.536C27.7182 107.536 27.982 107.272 27.982 106.947C27.982 106.621 27.7182 106.358 27.3929 106.358C27.0675 106.358 26.8037 106.621 26.8037 106.947C26.8037 107.272 27.0675 107.536 27.3929 107.536Z" fill="#0C91C4"/>
<path d="M32.1028 107.536C32.4282 107.536 32.692 107.272 32.692 106.947C32.692 106.621 32.4282 106.358 32.1028 106.358C31.7774 106.358 31.5137 106.621 31.5137 106.947C31.5137 107.272 31.7774 107.536 32.1028 107.536Z" fill="#0C91C4"/>
<path d="M36.8137 107.536C37.1391 107.536 37.4029 107.272 37.4029 106.947C37.4029 106.621 37.1391 106.358 36.8137 106.358C36.4884 106.358 36.2246 106.621 36.2246 106.947C36.2246 107.272 36.4884 107.536 36.8137 107.536Z" fill="#0C91C4"/>
<path d="M14.6372 100.078H13.6553V99.0957H14.6372V100.078Z" fill="#0C91C4"/>
<path d="M16.4038 100.078H15.4219V99.0957H16.4038V100.078Z" fill="#0C91C4"/>
<path d="M18.1704 100.078H17.1885V99.0957H18.1704V100.078Z" fill="#0C91C4"/>
<path d="M20.9178 85.7509C20.9178 85.9472 20.7216 85.9472 20.7216 85.9472H16.208C16.0117 85.9472 16.0117 85.7509 16.0117 85.7509C16.0117 85.5547 16.208 85.5547 16.208 85.5547H20.7216C20.7216 85.5547 20.9178 85.5547 20.9178 85.7509Z" fill="#143647"/>
<path d="M20.9178 86.7319C20.9178 86.9281 20.7216 86.9281 20.7216 86.9281H16.208C16.0117 86.9281 16.0117 86.7319 16.0117 86.7319C16.0117 86.5356 16.208 86.5356 16.208 86.5356H20.7216C20.7216 86.5356 20.9178 86.5356 20.9178 86.7319Z" fill="#143647"/>
<path d="M20.9178 87.5175C20.9178 87.7138 20.7216 87.7138 20.7216 87.7138H16.208C16.0117 87.7138 16.0117 87.5175 16.0117 87.5175C16.0117 87.3213 16.208 87.3213 16.208 87.3213H20.7216L20.9178 87.5175Z" fill="#143647"/>
</svg>
