<svg width="130" height="97" viewBox="0 0 130 97" fill="none" xmlns="http://www.w3.org/2000/svg">
<path d="M50.8039 49.331V58.0098H44.749V49.331C44.749 45.4743 48.0153 43.5121 49.939 46.2458C50.4868 47.053 50.8039 48.12 50.8039 49.331Z" fill="#FF9F1C"/>
<path d="M50.8036 52.1863C50.1116 52.3593 49.3331 52.1863 48.7277 51.7826C47.0067 50.525 46.437 47.4879 46.5652 45.3529C47.5444 44.6748 48.9774 44.8806 49.9386 46.2467C51.2019 48.1081 50.6822 50.2218 50.8036 52.1863Z" fill="#FFCA28"/>
<path d="M47.7793 53.6919C48.4297 53.6919 48.957 52.5178 48.957 51.0695C48.957 49.6211 48.4297 48.447 47.7793 48.447C47.1288 48.447 46.6016 49.6211 46.6016 51.0695C46.6016 52.5178 47.1288 53.6919 47.7793 53.6919Z" fill="#19345D"/>
<path d="M57.654 49.331V58.0098H51.5991V49.331C51.5991 45.4743 54.8654 43.5121 56.7891 46.2458C57.3369 47.053 57.654 48.12 57.654 49.331Z" fill="#FF9F1C"/>
<path d="M57.6542 52.1863C56.9622 52.3593 56.1836 52.1863 55.5783 51.7826C53.8573 50.525 53.2875 47.4879 53.4158 45.3529C54.395 44.6748 55.8279 44.8806 56.7892 46.2467C58.0525 48.1081 57.5328 50.2218 57.6542 52.1863Z" fill="#FFCA28"/>
<path d="M54.6318 53.6929C55.2822 53.6929 55.8095 52.5188 55.8095 51.0705C55.8095 49.6221 55.2822 48.448 54.6318 48.448C53.9814 48.448 53.4541 49.6221 53.4541 51.0705C53.4541 52.5188 53.9814 53.6929 54.6318 53.6929Z" fill="#19345D"/>
<path d="M64.5217 49.3315V58.0103H58.4668V49.3315C58.4668 45.4651 61.7433 43.527 63.6567 46.2463C64.2046 47.0536 64.5217 48.1205 64.5217 49.3315Z" fill="#FF9F1C"/>
<path d="M64.5228 52.1863C63.8308 52.3593 63.0523 52.1863 62.4469 51.7826C60.7259 50.525 60.1562 47.4879 60.2844 45.3529C61.2636 44.6748 62.6966 44.8806 63.6579 46.2467C64.9211 48.1081 64.4014 50.2218 64.5228 52.1863Z" fill="#FFCA28"/>
<path d="M61.497 53.6929C62.1475 53.6929 62.6747 52.5188 62.6747 51.0705C62.6747 49.6221 62.1475 48.448 61.497 48.448C60.8466 48.448 60.3193 49.6221 60.3193 51.0705C60.3193 52.5188 60.8466 53.6929 61.497 53.6929Z" fill="#19345D"/>
<path d="M71.3957 49.331V58.0098H65.3408V49.331C65.3408 45.4743 68.6071 43.5121 70.5308 46.2458C71.0786 47.053 71.3957 48.12 71.3957 49.331Z" fill="#FF9F1C"/>
<path d="M71.3954 52.1863C70.7034 52.3593 69.9249 52.1863 69.3195 51.7826C67.5985 50.525 67.0287 47.4879 67.157 45.3529C68.1362 44.6748 69.5692 44.8806 70.5304 46.2467C71.7937 48.1081 71.274 50.2218 71.3954 52.1863Z" fill="#FFCA28"/>
<path d="M68.3711 53.6919C69.0215 53.6919 69.5488 52.5178 69.5488 51.0695C69.5488 49.6211 69.0215 48.447 68.3711 48.447C67.7206 48.447 67.1934 49.6211 67.1934 51.0695C67.1934 52.5178 67.7206 53.6919 68.3711 53.6919Z" fill="#19345D"/>
<path d="M78.2634 49.3318V58.0107H72.2085V49.3318C72.2085 47.5442 72.9582 46.016 74.025 45.3529C75.0042 44.6748 76.4372 44.8806 77.3984 46.2467C77.9463 47.0539 78.2634 48.1209 78.2634 49.3318Z" fill="#FF9F1C"/>
<path d="M78.263 52.1863C77.5711 52.3593 76.7925 52.1863 76.1871 51.7826C74.4662 50.525 73.8964 47.4879 74.0247 45.3529C75.0039 44.6748 76.4368 44.8806 77.3981 46.2467C78.6614 48.1081 78.1417 50.2218 78.263 52.1863Z" fill="#FFCA28"/>
<path d="M75.2402 53.6919C75.8906 53.6919 76.4179 52.5178 76.4179 51.0695C76.4179 49.6211 75.8906 48.447 75.2402 48.447C74.5898 48.447 74.0625 49.6211 74.0625 51.0695C74.0625 52.5178 74.5898 53.6919 75.2402 53.6919Z" fill="#19345D"/>
<path d="M7.53955 26.0908V52.3578H27.5498V26.0908H7.53955ZM13.9693 35.9517H9.52905V30.9636C9.52905 30.2428 9.87503 29.6084 10.394 29.2047C10.7689 28.9164 11.2301 28.7434 11.7491 28.7434C12.9889 28.7434 13.9693 29.7238 13.9693 30.9636V35.9517ZM19.5341 35.9517H15.0938V30.9636C15.0938 30.2428 15.4398 29.6084 15.9588 29.2047C17.406 28.0917 19.5341 29.1142 19.5341 30.9636V35.9517ZM25.0988 35.9517H20.6586V30.9636C20.6586 30.2428 20.9757 29.6372 21.4947 29.2047C22.9203 28.1083 25.0988 29.0733 25.0988 30.9636V35.9517Z" fill="#19345D"/>
<path d="M49.2363 30.9947C46.9119 30.9947 45.9213 27.8893 47.7944 26.4528C47.9929 26.2942 48.2498 26.2244 48.4424 26.0595C48.7564 25.7914 48.9388 24.5918 49.61 25.5647C49.6742 25.6726 49.68 25.7931 49.7676 25.8946C49.9194 26.0785 50.147 26.1293 50.3514 26.2371C52.6142 27.4998 51.7359 30.9947 49.2363 30.9947Z" fill="#D0DCEE"/>
<path d="M49.4989 25.4125C49.4031 25.5583 49.2099 25.4785 48.8746 25.5013C48.8455 25.5013 48.8163 25.5013 48.793 25.4949C48.97 25.1427 49.2019 25.0898 49.4989 25.4125Z" fill="black"/>
<path d="M49.4903 25.3552C49.4862 25.4172 49.4454 25.466 49.3801 25.466H48.9804C48.8988 25.466 48.8458 25.3773 48.8825 25.302L49.066 24.9075C48.863 24.8024 48.8686 24.47 49.0987 24.38V23.786C48.9355 23.7172 48.9327 23.4435 49.1068 23.3738C49.1607 22.55 49.1167 23.0577 49.168 22.4785C49.1721 22.474 49.1802 22.4696 49.1843 22.4696C49.2047 22.474 49.2047 22.5583 49.2047 22.576C49.2061 22.6092 49.2104 22.6958 49.2129 22.7223C49.23 22.983 49.237 23.0778 49.2537 23.3738C49.4268 23.447 49.4251 23.7131 49.2618 23.786V24.38C49.4905 24.4695 49.5007 24.8036 49.2904 24.9075L49.478 25.302C49.4862 25.3197 49.4903 25.3374 49.4903 25.3552Z" fill="#FFCA28"/>
<path d="M49.4903 25.3552C49.4862 25.4172 49.4454 25.466 49.3801 25.466H48.9804C48.8988 25.466 48.8458 25.3773 48.8825 25.302L49.066 24.9075C48.863 24.8024 48.8686 24.47 49.0987 24.38V23.786C48.9355 23.7172 48.9327 23.4435 49.1068 23.3738C49.1607 22.55 49.1167 23.0577 49.168 22.4785C49.1721 22.474 49.1802 22.4696 49.1843 22.4696C49.2047 22.474 49.2047 22.5583 49.2047 22.576V22.5937C49.1395 22.7825 49.1766 23.3135 49.1313 23.4403C49.119 23.4758 49.0987 23.5201 49.115 23.5556C49.1231 23.5777 49.1435 23.591 49.1598 23.6088C49.1966 23.6575 49.1966 23.724 49.1884 23.7816C49.1611 24.0488 49.2177 24.1795 49.119 24.513C49.0569 24.6821 49.105 24.6687 49.168 24.8055C49.2006 24.8676 49.2047 24.9518 49.1762 25.0183C49.1558 25.067 49.115 25.1114 49.1027 25.169C49.0707 25.3166 49.2283 25.4381 49.4046 25.3817C49.4332 25.3729 49.4617 25.3596 49.4903 25.3552Z" fill="#FF9F1C"/>
<path d="M51.6588 28.4451C50.7125 29.0277 48.0277 29.2013 47.8234 27.9249C47.765 27.6077 47.8934 27.2779 48.0569 26.9987C48.6055 26.062 49.2205 25.8351 49.5572 25.4954C49.5747 25.5207 49.5923 25.5398 49.6098 25.5651C49.674 25.673 49.6798 25.7935 49.7674 25.895C49.9192 26.0789 50.1468 26.1297 50.3512 26.2375C51.2165 26.7204 51.6588 27.6288 51.6588 28.4451Z" fill="#F2F8FD"/>
<path d="M49.9757 28.0861C50.0938 27.9474 49.8795 27.6601 49.7067 27.5811C49.5009 27.487 49.418 27.6899 49.5061 27.869C49.582 28.0235 49.864 28.2172 49.9757 28.0861Z" fill="#D0DCEE"/>
<path d="M49.8242 27.2921C49.896 27.2078 49.7658 27.0332 49.6607 26.9852C49.5356 26.928 49.4853 27.0513 49.5388 27.1602C49.57 27.2236 49.7563 27.3718 49.8242 27.2921Z" fill="#D0DCEE"/>
<path d="M55.4164 30.9952C53.4079 30.9952 52.3128 28.6112 53.455 27.0052C53.9259 26.3091 54.3264 26.3135 54.6225 26.06C54.9504 25.7801 55.0665 24.7473 55.6792 25.413C55.6924 25.4274 55.7128 25.4532 55.7901 25.5652C55.8543 25.6731 55.8601 25.7936 55.9477 25.8951C56.0995 26.079 56.3271 26.1298 56.5315 26.2376C58.7861 27.4957 57.9313 30.9952 55.4164 30.9952Z" fill="#D0DCEE"/>
<path d="M55.6786 25.4124C55.5828 25.5581 55.3896 25.4784 55.0543 25.5011C55.0252 25.5011 54.996 25.5011 54.9727 25.4948C55.1476 25.1467 55.3468 25.145 55.5502 25.2856C55.5969 25.3236 55.6377 25.368 55.6786 25.4124Z" fill="black"/>
<path d="M55.6704 25.3552C55.6664 25.4172 55.6255 25.466 55.5603 25.466H55.1605C55.079 25.466 55.0259 25.3773 55.0626 25.302L55.2462 24.9075C55.0432 24.8024 55.0488 24.47 55.2788 24.38V23.786C55.1157 23.7172 55.1128 23.4435 55.287 23.3738C55.3409 22.55 55.2969 23.0577 55.3482 22.4785C55.3523 22.474 55.3604 22.4696 55.3645 22.4696C55.3849 22.474 55.3849 22.5583 55.3849 22.576C55.3856 22.5944 55.4175 23.0899 55.4298 23.3561C55.4298 23.3605 55.4338 23.365 55.4338 23.3738C55.607 23.447 55.6053 23.7131 55.442 23.786V24.38C55.6707 24.4695 55.6809 24.8036 55.4705 24.9075L55.6582 25.302C55.6664 25.3197 55.6704 25.3374 55.6704 25.3552Z" fill="#FFCA28"/>
<path d="M55.6704 25.3552C55.6664 25.4172 55.6255 25.466 55.5603 25.466H55.1605C55.079 25.466 55.0259 25.3773 55.0626 25.302L55.2462 24.9075C55.0432 24.8024 55.0488 24.47 55.2788 24.38V23.786C55.1157 23.7172 55.1128 23.4435 55.287 23.3738C55.3068 23.0706 55.3327 22.6062 55.34 22.5184C55.34 22.5051 55.34 22.4918 55.3482 22.4785C55.3523 22.474 55.3645 22.4696 55.3645 22.4696C55.3849 22.474 55.3849 22.5583 55.3849 22.576V22.5937C55.3472 22.7027 55.3359 23.0718 55.3359 23.1877C55.3359 23.4766 55.2708 23.5027 55.2951 23.5556C55.3033 23.5777 55.3237 23.591 55.34 23.6088C55.3767 23.6575 55.3767 23.724 55.3686 23.7816C55.3563 23.9013 55.3645 24.0165 55.3604 24.1362C55.3563 24.2603 55.3359 24.3889 55.2992 24.513C55.2829 24.5573 55.2666 24.6061 55.2748 24.6548C55.2829 24.7124 55.3237 24.7523 55.3482 24.8055C55.3808 24.8676 55.3849 24.9518 55.3563 25.0183C55.3359 25.067 55.2951 25.1114 55.2829 25.169C55.2509 25.3166 55.4084 25.4381 55.5848 25.3817C55.6133 25.3729 55.6419 25.3596 55.6704 25.3552Z" fill="#FF9F1C"/>
<path d="M57.839 28.4451C57.3805 28.7273 56.3677 28.985 55.2587 28.8383C54.0095 28.6613 53.7164 27.8877 54.2371 26.9987C54.7857 26.062 55.4007 25.8351 55.7374 25.4954C55.7549 25.5207 55.7724 25.5398 55.7899 25.5651C55.8541 25.673 55.86 25.7935 55.9476 25.895C56.0993 26.0789 56.327 26.1297 56.5313 26.2375C57.3966 26.7204 57.839 27.6288 57.839 28.4451Z" fill="#F2F8FD"/>
<path d="M61.5962 30.9947C59.2718 30.9947 58.2812 27.8893 60.1543 26.4528C60.3528 26.2942 60.6096 26.2244 60.8023 26.0595C61.1163 25.7914 61.2987 24.5918 61.9698 25.5647C62.034 25.6726 62.0399 25.7931 62.1275 25.8946C62.2792 26.0785 62.5069 26.1293 62.7112 26.2371C64.974 27.4998 64.0958 30.9947 61.5962 30.9947Z" fill="#D0DCEE"/>
<path d="M61.8592 25.4125C61.7634 25.5583 61.5703 25.4785 61.235 25.5013C61.2058 25.5013 61.1767 25.5013 61.1533 25.4949C61.3303 25.1427 61.5622 25.0898 61.8592 25.4125Z" fill="black"/>
<path d="M61.8506 25.3552C61.8465 25.4172 61.8057 25.466 61.7405 25.466H61.3407C61.2591 25.466 61.2061 25.3773 61.2428 25.302L61.4264 24.9075C61.2234 24.8024 61.229 24.47 61.459 24.38V23.786C61.2959 23.7172 61.293 23.4435 61.4672 23.3738C61.4856 23.0916 61.5114 22.6233 61.5202 22.5184C61.5202 22.5051 61.5202 22.4918 61.5283 22.4785C61.5324 22.474 61.5406 22.4696 61.5447 22.4696C61.5651 22.474 61.5651 22.5583 61.5651 22.576V22.5937C61.5684 22.6299 61.6132 23.3597 61.614 23.3738C61.7872 23.447 61.7854 23.7131 61.6222 23.786V24.38C61.8509 24.4695 61.8611 24.8036 61.6507 24.9075L61.8384 25.302C61.8465 25.3197 61.8506 25.3374 61.8506 25.3552Z" fill="#FFCA28"/>
<path d="M61.8506 25.3552C61.8465 25.4172 61.8057 25.466 61.7405 25.466H61.3407C61.2591 25.466 61.2061 25.3773 61.2428 25.302L61.4264 24.9075C61.2234 24.8024 61.229 24.47 61.459 24.38V23.786C61.2959 23.7172 61.293 23.4435 61.4672 23.3738C61.4856 23.0916 61.5114 22.6233 61.5202 22.5184C61.5202 22.5051 61.5202 22.4918 61.5283 22.4785C61.5324 22.474 61.5406 22.4696 61.5447 22.4696C61.5651 22.474 61.5651 22.5583 61.5651 22.576V22.5937C61.4999 22.7825 61.537 23.3135 61.4917 23.4403C61.4794 23.4758 61.459 23.5201 61.4753 23.5556C61.4835 23.5777 61.5039 23.591 61.5202 23.6088C61.5569 23.6575 61.5569 23.724 61.5487 23.7816C61.5214 24.0488 61.5781 24.1795 61.4794 24.513C61.4172 24.6821 61.4654 24.6687 61.5283 24.8055C61.561 24.8676 61.5651 24.9518 61.5365 25.0183C61.5161 25.067 61.4753 25.1114 61.4631 25.169C61.4311 25.3166 61.5886 25.4381 61.7649 25.3817C61.7935 25.3729 61.8221 25.3596 61.8506 25.3552Z" fill="#FF9F1C"/>
<path d="M64.0192 28.4451C63.5607 28.7273 62.5479 28.985 61.4389 28.8383C60.1896 28.6613 59.8966 27.8877 60.4173 26.9987C60.9658 26.062 61.5809 25.8351 61.9176 25.4954C61.9351 25.5207 61.9526 25.5398 61.9701 25.5651C62.0343 25.673 62.0401 25.7935 62.1277 25.895C62.2795 26.0789 62.5072 26.1297 62.7115 26.2375C63.5768 26.7204 64.0192 27.6288 64.0192 28.4451Z" fill="#F2F8FD"/>
<path d="M70.2 28.4442V28.4759C70.2 29.8651 69.1142 30.9942 67.7773 30.9942C65.7688 30.9942 64.6736 28.6103 65.8158 27.0042C66.2868 26.3082 66.6872 26.3126 66.9834 26.0591C67.3237 25.7685 67.4786 24.5897 68.1509 25.5643C68.2151 25.6721 68.221 25.7926 68.3085 25.8941C68.4603 26.0781 68.688 26.1288 68.8923 26.2367C69.7576 26.7195 70.2 27.6279 70.2 28.4442Z" fill="#D0DCEE"/>
<path d="M68.0389 25.4125C67.9431 25.5583 67.7499 25.4785 67.4147 25.5013C67.3855 25.5013 67.3564 25.5013 67.333 25.4949C67.51 25.1427 67.7419 25.0898 68.0389 25.4125Z" fill="black"/>
<path d="M68.0313 25.3552C68.0272 25.4172 67.9864 25.466 67.9211 25.466H67.5214C67.4398 25.466 67.3868 25.3773 67.4235 25.302L67.607 24.9075C67.404 24.8024 67.4096 24.47 67.6397 24.38V23.786C67.4765 23.7172 67.4737 23.4435 67.6478 23.3738C67.6663 23.0916 67.6921 22.6233 67.7008 22.5184C67.7008 22.5051 67.7008 22.4918 67.709 22.4785C67.7131 22.474 67.7253 22.4696 67.7253 22.4696C67.7457 22.474 67.7457 22.5583 67.7457 22.576V22.5937C67.7491 22.6299 67.7938 23.3597 67.7947 23.3738C67.9678 23.447 67.9661 23.7131 67.8028 23.786V24.38C68.0316 24.4695 68.0418 24.8036 67.8314 24.9075L68.019 25.302C68.0272 25.3197 68.0313 25.3374 68.0313 25.3552Z" fill="#FFCA28"/>
<path d="M68.0313 25.3552C68.0272 25.4172 67.9864 25.466 67.9211 25.466H67.5214C67.4398 25.466 67.3868 25.3773 67.4235 25.302L67.607 24.9075C67.404 24.8024 67.4096 24.47 67.6397 24.38V23.786C67.4765 23.7172 67.4737 23.4435 67.6478 23.3738C67.6663 23.0916 67.6921 22.6233 67.7008 22.5184C67.7008 22.5051 67.7008 22.4918 67.709 22.4785C67.7131 22.474 67.7253 22.4696 67.7253 22.4696C67.7457 22.474 67.7457 22.5583 67.7457 22.576V22.5937C67.6771 22.7926 67.7207 23.3049 67.6723 23.4403C67.6601 23.4758 67.6397 23.5201 67.656 23.5556C67.6641 23.5777 67.6845 23.591 67.7008 23.6088C67.7376 23.6575 67.7376 23.724 67.7294 23.7816C67.7172 23.9013 67.7253 24.0165 67.7213 24.1362C67.7172 24.2603 67.6968 24.3889 67.6601 24.513C67.5979 24.6821 67.6461 24.6687 67.709 24.8055C67.7417 24.8676 67.7457 24.9518 67.7172 25.0183C67.6968 25.067 67.656 25.1114 67.6438 25.169C67.6118 25.3166 67.7693 25.4381 67.9456 25.3817C67.9742 25.3729 68.0027 25.3596 68.0313 25.3552Z" fill="#FF9F1C"/>
<path d="M70.1996 28.4451C70.0245 28.5529 69.826 28.629 69.6333 28.6861C67.7615 29.2491 65.6055 28.6927 66.5977 26.9987C67.1463 26.062 67.7613 25.8351 68.098 25.4954C68.1155 25.5207 68.133 25.5398 68.1505 25.5651C68.2147 25.673 68.2206 25.7935 68.3082 25.895C68.46 26.0789 68.6876 26.1297 68.8919 26.2375C69.7573 26.7204 70.1996 27.6288 70.1996 28.4451Z" fill="#F2F8FD"/>
<path d="M68.5167 28.0861C68.6348 27.9474 68.4206 27.6601 68.2477 27.5811C68.0419 27.487 67.959 27.6899 68.0471 27.869C68.0984 27.9734 68.4051 28.2172 68.5167 28.0861Z" fill="#D0DCEE"/>
<path d="M68.3652 27.2921C68.437 27.2078 68.3068 27.0332 68.2017 26.9852C68.0766 26.928 68.0263 27.0513 68.0798 27.1602C68.111 27.2236 68.2974 27.3718 68.3652 27.2921Z" fill="#D0DCEE"/>
<path d="M73.9575 30.9947C71.9489 30.9947 70.8538 28.6107 71.996 27.0047C72.4669 26.3086 72.8674 26.313 73.1635 26.0595C73.4776 25.7914 73.6599 24.5918 74.3311 25.5647C74.3953 25.6726 74.4011 25.7931 74.4887 25.8946C74.6405 26.0785 74.8682 26.1293 75.0725 26.2371C75.7988 26.6424 76.2316 27.3392 76.3451 28.0704C76.3827 28.2645 75.5214 30.9947 73.9575 30.9947Z" fill="#D0DCEE"/>
<path d="M74.2196 25.4125C74.1238 25.5583 73.9306 25.4785 73.5954 25.5013C73.5662 25.5013 73.537 25.5013 73.5137 25.4949C73.6907 25.1427 73.9226 25.0898 74.2196 25.4125Z" fill="black"/>
<path d="M74.2115 25.3552C74.2074 25.4172 74.1666 25.466 74.1013 25.466H73.7016C73.62 25.466 73.5669 25.3773 73.6036 25.302L73.7872 24.9075C73.5842 24.8024 73.5898 24.47 73.8199 24.38V23.786C73.6567 23.7172 73.6538 23.4435 73.828 23.3738C73.8478 23.0706 73.8737 22.6062 73.881 22.5184C73.881 22.5051 73.881 22.4918 73.8892 22.4785C73.8933 22.474 73.9055 22.4696 73.9055 22.4696C73.9259 22.474 73.9259 22.5583 73.9259 22.576C73.9318 22.6521 73.9601 23.125 73.9708 23.3561C73.9708 23.3561 73.9749 23.365 73.9749 23.3738C74.148 23.447 74.1463 23.7131 73.983 23.786V24.38C74.2117 24.4695 74.2219 24.8036 74.0116 24.9075L74.1992 25.302C74.2074 25.3197 74.2115 25.3374 74.2115 25.3552Z" fill="#FFCA28"/>
<path d="M74.2115 25.3552C74.2074 25.4172 74.1666 25.466 74.1013 25.466H73.7016C73.62 25.466 73.5669 25.3773 73.6036 25.302L73.7872 24.9075C73.5842 24.8024 73.5898 24.47 73.8199 24.38V23.786C73.6567 23.7172 73.6538 23.4435 73.828 23.3738C73.847 23.0837 73.8307 23.3062 73.8892 22.4785C73.8933 22.474 73.9014 22.4696 73.9055 22.4696C73.9259 22.474 73.9259 22.5583 73.9259 22.576V22.5937C73.8883 22.7027 73.877 23.0718 73.877 23.1877C73.877 23.2719 73.881 23.3605 73.8525 23.4403C73.8402 23.4758 73.8199 23.5201 73.8362 23.5556C73.8443 23.5777 73.8647 23.591 73.881 23.6088C73.9177 23.6575 73.9177 23.724 73.9096 23.7816C73.8823 24.0488 73.9389 24.1795 73.8402 24.513C73.7781 24.6821 73.8262 24.6687 73.8892 24.8055C73.9218 24.8676 73.9259 24.9518 73.8974 25.0183C73.877 25.067 73.8362 25.1114 73.8239 25.169C73.7919 25.3166 73.9495 25.4381 74.1258 25.3817C74.1543 25.3729 74.1829 25.3596 74.2115 25.3552Z" fill="#FF9F1C"/>
<path d="M76.38 28.4451C75.4327 29.0283 72.7492 29.203 72.5446 27.9249C72.4862 27.6077 72.6146 27.2779 72.7781 26.9987C73.3267 26.062 73.9417 25.8351 74.2784 25.4954C74.2959 25.5207 74.3135 25.5398 74.3309 25.5651C74.3952 25.673 74.401 25.7935 74.4886 25.895C74.6404 26.0789 74.868 26.1297 75.0724 26.2375C75.2884 26.3581 75.4927 26.5103 75.6678 26.6943C76.0181 27.0622 76.2632 27.5443 76.345 28.0708C76.3683 28.1913 76.38 28.3245 76.38 28.4451Z" fill="#F2F8FD"/>
<path d="M82.5603 28.4761C82.5603 29.8653 81.4745 30.9944 80.1376 30.9944C78.1291 30.9944 77.034 28.6105 78.1762 27.0044C78.6471 26.3084 79.0476 26.3128 79.3437 26.0593C79.5579 25.8764 79.6557 25.4716 79.8224 25.3108C80.063 25.0492 80.3109 25.274 80.5113 25.5645C80.5755 25.6723 80.5813 25.7928 80.6689 25.8943C80.8207 26.0783 81.0483 26.129 81.2527 26.2369C81.979 26.6422 82.4118 27.3389 82.5253 28.0701C82.5629 28.2643 82.554 28.3223 82.5603 28.4761Z" fill="#D0DCEE"/>
<path d="M80.4002 25.4125C80.3045 25.5583 80.1113 25.4785 79.776 25.5013C79.7469 25.5013 79.7177 25.5013 79.6943 25.4949C79.8713 25.1427 80.1033 25.0898 80.4002 25.4125Z" fill="black"/>
<path d="M80.3916 25.3552C80.3876 25.4172 80.3467 25.466 80.2815 25.466H79.8817C79.8001 25.466 79.7471 25.3773 79.7838 25.302L79.9674 24.9075C79.7644 24.8024 79.77 24.47 80 24.38V23.786C79.8369 23.7172 79.834 23.4435 80.0082 23.3738C80.0123 23.3118 80.054 22.7023 80.0694 22.4785C80.0734 22.474 80.0816 22.4696 80.0857 22.4696C80.1061 22.474 80.1061 22.5583 80.1061 22.576C80.1068 22.5944 80.1387 23.0899 80.151 23.3561C80.151 23.3605 80.155 23.365 80.155 23.3738C80.3282 23.447 80.3265 23.7131 80.1632 23.786V24.38C80.3919 24.4695 80.4021 24.8036 80.1917 24.9075L80.3794 25.302C80.3876 25.3197 80.3916 25.3374 80.3916 25.3552Z" fill="#FFCA28"/>
<path d="M80.3916 25.3552C80.3876 25.4172 80.3467 25.466 80.2815 25.466H79.8817C79.8001 25.466 79.7471 25.3773 79.7838 25.302L79.9674 24.9075C79.7644 24.8024 79.77 24.47 80 24.38V23.786C79.8369 23.7172 79.834 23.4435 80.0082 23.3738C80.0272 23.0837 80.0108 23.3062 80.0694 22.4785C80.0734 22.474 80.0816 22.4696 80.0857 22.4696C80.1061 22.474 80.1061 22.5583 80.1061 22.576V22.5937C80.0409 22.7825 80.078 23.3135 80.0327 23.4403C80.0204 23.4758 80 23.5201 80.0163 23.5556C80.0245 23.5777 80.0449 23.591 80.0612 23.6088C80.0979 23.6575 80.0979 23.724 80.0898 23.7816C80.0625 24.0488 80.1191 24.1795 80.0204 24.513C79.9582 24.6821 80.0064 24.6687 80.0694 24.8055C80.102 24.8676 80.1061 24.9518 80.0775 25.0183C80.0571 25.067 80.0163 25.1114 80.0041 25.169C79.9721 25.3166 80.1296 25.4381 80.306 25.3817C80.3345 25.3729 80.3631 25.3596 80.3916 25.3552Z" fill="#FF9F1C"/>
<path d="M82.5609 28.4451C82.3858 28.5529 82.1873 28.629 81.9946 28.6861C80.1229 29.2491 77.9669 28.6927 78.959 26.9987C79.5076 26.062 80.1226 25.8351 80.4593 25.4954C80.4768 25.5207 80.4944 25.5398 80.5119 25.5651C80.5761 25.673 80.5819 25.7935 80.6695 25.895C80.8213 26.0789 81.0489 26.1297 81.2533 26.2375C81.9796 26.6428 82.4124 27.3396 82.5259 28.0708C82.5492 28.1913 82.5609 28.3245 82.5609 28.4451Z" fill="#F2F8FD"/>
<path d="M40.1973 30.5415V41.6711H88.7524V30.5415H40.1973ZM50.6349 40.5467H45.4449V34.2611C45.4449 32.8194 46.5983 31.666 48.04 31.666C49.4816 31.666 50.6349 32.8194 50.6349 34.2611V40.5467ZM57.3242 40.5467H52.1054V34.2611C52.1054 32.8194 53.2876 31.666 54.7293 31.666C56.1421 31.666 57.3242 32.8194 57.3242 34.2611V40.5467ZM63.9846 40.5467H58.7947V34.2611C58.7947 32.8194 59.9481 31.666 61.3897 31.666C62.8314 31.666 63.9846 32.8194 63.9846 34.2611V40.5467ZM70.6739 40.5467H65.484V34.2611C65.484 32.8194 66.6374 31.666 68.0791 31.666C69.5207 31.666 70.6739 32.8194 70.6739 34.2611V40.5467ZM77.3632 40.5467H72.1445V34.2611C72.1445 32.8194 73.3265 31.666 74.7395 31.666C76.1812 31.666 77.3632 32.8194 77.3632 34.2611V40.5467ZM84.0237 40.5467H78.8338V34.2611C78.8338 32.8194 79.987 31.666 81.4286 31.666C82.8703 31.666 84.0237 32.8194 84.0237 34.2611V40.5467Z" fill="#19345D"/>
<path d="M40.4097 30.329V41.4585H88.9648V30.329H40.4097ZM50.8473 40.3342H45.6573V34.0486C45.6573 33.097 46.1763 32.2609 46.926 31.8284C48.5864 30.8064 50.8473 31.9752 50.8473 34.0486V40.3342ZM57.5366 40.3342H52.3178V34.0486C52.3178 32.6069 53.5 31.4535 54.9417 31.4535C56.3545 31.4535 57.5366 32.6069 57.5366 34.0486V40.3342ZM64.197 40.3342H59.0071V34.0486C59.0071 32.6069 60.1605 31.4535 61.6021 31.4535C63.0438 31.4535 64.197 32.6069 64.197 34.0486V40.3342ZM70.8863 40.3342H65.6964V34.0486C65.6964 32.6069 66.8498 31.4535 68.2915 31.4535C69.7331 31.4535 70.8863 32.6069 70.8863 34.0486V40.3342ZM77.5756 40.3342H72.3568V34.0486C72.3568 32.6069 73.5389 31.4535 74.9519 31.4535C76.3936 31.4535 77.5756 32.6069 77.5756 34.0486V40.3342ZM84.2361 40.3342H79.0462V34.0486C79.0462 32.6069 80.1994 31.4535 81.641 31.4535C83.0827 31.4535 84.2361 32.6069 84.2361 34.0486V40.3342Z" fill="#E2212E"/>
<path d="M86.3545 7.20654H87.201V13.9763H86.3545V7.20654Z" fill="#19345D"/>
<path d="M90.7051 7.20654H91.5516V13.9763H90.7051V7.20654Z" fill="#19345D"/>
<path d="M88.5576 7.20654H89.4042V13.9763H88.5576V7.20654Z" fill="#19345D"/>
<path d="M92.7524 8.70232H85.2006C84.8287 8.70232 84.5869 8.28258 84.7542 7.94263C84.8472 7.72275 84.9588 7.54278 85.089 7.34291C86.0219 5.87282 86.8323 5.88864 87.3954 5.34375C88.0175 4.77073 88.2548 2.99946 89.1811 3.66453C89.1998 3.66453 89.237 3.68442 89.2555 3.70443C89.4416 3.8644 89.5904 4.06426 89.7205 4.30415C89.8507 4.54404 89.8693 4.78405 90.0368 5.00393C90.3343 5.40379 90.7994 5.50372 91.19 5.7236C92.0205 6.2071 92.684 6.95473 93.0501 7.66284C93.1058 7.74277 93.143 7.8427 93.1989 7.94263C93.3662 8.28258 93.1244 8.70232 92.7524 8.70232Z" fill="#D0DCEE"/>
<path d="M93.05 7.66209C92.0114 8.21972 89.8937 8.077 88.8276 8.00191C88.158 7.94188 87.4698 7.90198 86.8187 7.78203C86.0585 7.66515 86.0248 7.11933 86.4282 6.78245C87.0158 6.15066 88.1341 5.97369 88.4556 5.02319C88.6215 4.63103 88.5588 3.72668 89.0137 3.56372C89.8054 3.98981 89.7806 4.66685 90.0367 5.00318C90.3342 5.40303 90.7993 5.50296 91.1899 5.72284C92.0204 6.20634 92.6839 6.95397 93.05 7.66209Z" fill="#F2F8FD"/>
<path d="M89.1821 3.66381C89.1821 3.74379 89.1263 3.82377 89.0518 3.86382C88.8352 3.95705 88.6861 3.8624 88.4934 3.90387C88.419 3.92377 88.3631 3.92377 88.3074 3.9438C88.2887 3.9438 88.2701 3.94379 88.2515 3.92377C88.2887 3.86382 88.3259 3.80374 88.3631 3.76382C88.5801 3.49178 88.8628 3.43456 89.1821 3.66381Z" fill="black"/>
<path d="M89.157 3.67254C89.1524 3.7412 89.1068 3.79514 89.0338 3.79514H88.5866C88.4954 3.79514 88.4361 3.69705 88.4771 3.61369L88.6824 3.17722C88.4553 3.06096 88.4618 2.69319 88.719 2.59364V1.93648C88.5361 1.8601 88.5337 1.5574 88.7281 1.4804C88.7397 1.30481 88.7587 1.02788 88.7646 0.852696C88.7737 0.74479 88.7783 0.641823 88.7874 0.533919C88.7874 0.519222 88.7874 0.504496 88.7965 0.489798C88.8011 0.484891 88.8102 0.47998 88.8148 0.47998C88.8376 0.484891 88.8376 0.578068 88.8376 0.597674C88.8391 0.634444 88.844 0.730207 88.8467 0.759515C88.8558 0.896814 88.8811 1.30017 88.8923 1.4804C89.086 1.56137 89.0841 1.85572 88.9015 1.93648V2.59364C89.1586 2.69315 89.1668 3.06325 88.9334 3.17722L89.1433 3.61369C89.1524 3.6333 89.157 3.6529 89.157 3.67254Z" fill="#FFCA28"/>
<path d="M89.157 3.67254C89.1524 3.7412 89.1068 3.79514 89.0338 3.79514H88.5866C88.4954 3.79514 88.4361 3.69705 88.4771 3.61369L88.6824 3.17722C88.4553 3.06096 88.4618 2.69319 88.719 2.59364V1.93648C88.5361 1.8601 88.5337 1.5574 88.7281 1.4804C88.7397 1.30481 88.7587 1.02788 88.7646 0.852696C88.7737 0.74479 88.7783 0.641823 88.7874 0.533919C88.7874 0.519222 88.7874 0.504496 88.7965 0.489798C88.8011 0.484891 88.8102 0.47998 88.8148 0.47998C88.8376 0.484891 88.8376 0.578068 88.8376 0.597674V0.617279C88.7646 0.826456 88.806 1.41411 88.7555 1.55397C88.6775 1.77722 88.858 1.66196 88.8193 1.9316C88.7909 2.20698 88.8519 2.3727 88.7418 2.74075C88.6722 2.92795 88.7261 2.91307 88.7965 3.06444C88.833 3.13307 88.8376 3.22625 88.8057 3.29982C88.7828 3.35376 88.7372 3.40282 88.7235 3.46655C88.6879 3.62928 88.8634 3.76447 89.0612 3.70196C89.0931 3.69214 89.1251 3.67745 89.157 3.67254Z" fill="#FF9F1C"/>
<path d="M85.1301 49.3309V58.0097H79.0752V49.3309C79.0752 47.2575 80.238 44.9771 82.1026 44.9771C84.0809 44.9771 85.1301 47.2966 85.1301 49.3309Z" fill="#FF9F1C"/>
<path d="M85.1302 52.1853C84.4383 52.3583 83.6597 52.1853 83.0543 51.7816C81.3334 50.524 80.7636 47.487 80.8918 45.3519C81.2667 45.0923 81.6702 44.9771 82.1028 44.9771C82.9389 44.9771 83.7174 45.4672 84.2653 46.2457C85.5286 48.1072 85.0088 50.2208 85.1302 52.1853Z" fill="#FFCA28"/>
<path d="M82.1059 53.6919C82.7563 53.6919 83.2836 52.5178 83.2836 51.0695C83.2836 49.6211 82.7563 48.447 82.1059 48.447C81.4555 48.447 80.9282 49.6211 80.9282 51.0695C80.9282 52.5178 81.4555 53.6919 82.1059 53.6919Z" fill="#19345D"/>
<path d="M85.938 14.0121H92.0214V64.1805H85.938V14.0121Z" fill="#E2212E"/>
<path d="M37.9009 14.3557H43.955V64.5241H37.9009V14.3557Z" fill="#E2212E"/>
<path d="M34.7578 55.9626H96.3747V58.8174H34.7578V55.9626Z" fill="#19345D"/>
<path d="M28.6062 22.6379C28.5361 23.3474 27.9124 23.8776 27.2028 23.8776H8.2954C7.55469 23.8776 6.94656 23.3084 6.87637 22.5755C6.01211 14.7951 13.8125 8.55009 21.2538 11.2077C26.0167 12.8768 29.1578 17.6793 28.6062 22.6379Z" fill="#E2212E"/>
<path d="M28.6602 21.8036C28.3171 21.9752 27.9663 22.1233 27.6076 22.2403C23.8067 23.5006 16.2009 22.2576 13.9943 21.2813C13.1132 20.8914 12.3023 20.3066 11.7722 19.5114C10.7118 17.913 11.0158 15.6597 12.1776 14.1315C14.2398 11.4144 17.884 11.0383 21.2531 11.2077C25.8956 12.8346 28.8224 17.3463 28.6602 21.8036Z" fill="#F72F43"/>
<path d="M7.53955 25.7156V52.3574H27.9246V25.7156H7.53955ZM9.90389 35.5765V30.5884C9.90389 30.0694 10.0769 29.5791 10.394 29.2043C10.7977 28.6853 11.432 28.3682 12.1239 28.3682C12.6429 28.3682 13.1332 28.5412 13.508 28.8583C14.027 29.262 14.3441 29.8676 14.3441 30.5884V35.5765H9.90389ZM25.4737 35.5765H21.0334C21.1627 31.0972 20.7158 30.2172 21.4947 29.2043C22.8529 27.5747 25.4737 28.4848 25.4737 30.5884V35.5765ZM19.9089 35.5765H15.4687C15.6018 30.9624 15.1425 30.1691 15.9588 29.2043C16.3625 28.6853 16.9967 28.3682 17.6887 28.3682C18.8998 28.3682 19.9089 29.3486 19.9089 30.5884V35.5765Z" fill="#E2212E"/>
<path d="M27.9246 25.7156V26.1768C15.7093 27.3193 11.7168 25.2127 7.53955 27.3014V25.7156H27.9246Z" fill="black"/>
<path d="M4.83078 46.636L4.46045 45.3529C6.03173 44.9004 7.77122 44.5301 9.93841 44.1871C17.5294 42.9888 25.2004 42.7323 32.3823 45.2824L31.9363 46.5395C24.9516 44.0619 17.4407 44.3491 10.147 45.5067C8.03592 45.8405 6.34598 46.1991 4.83078 46.636Z" fill="#19345D"/>
<path d="M21.322 41.8914V50.5702H15.2671V41.8914C15.2671 38.1492 18.4867 36.076 20.4282 38.8351C20.976 39.6136 21.322 40.6804 21.322 41.8914Z" fill="#FF9F1C"/>
<path d="M21.3215 41.8912V45.8991C21.1817 46.2492 20.279 46.8428 19.4761 46.6199C19.1015 46.5045 18.813 46.2451 18.5823 45.9279C17.8049 44.858 16.7418 41.2871 17.1984 37.8834C19.0971 36.7757 21.3215 38.7778 21.3215 41.8912Z" fill="#FFCA28"/>
<path d="M28.0398 42.8137V51.4926L21.9561 50.5699V41.8911C21.9561 40.0168 22.7922 38.5176 24.0031 38.1428C23.9742 38.1139 24.0031 38.1139 24.0031 38.1139C25.9731 37.3983 28.0398 39.86 28.0398 42.8137Z" fill="#FF9F1C"/>
<path d="M28.04 46.5051C27.2163 47.2257 25.7559 47.0426 24.8107 45.0347C23.9169 43.1316 23.8303 40.9403 23.9169 38.8067C23.9169 38.5759 23.9169 38.3454 24.0033 38.1436C23.9744 38.1147 24.0033 38.1147 24.0033 38.1147C24.9204 37.7815 26.202 38.1233 27.1462 39.6141C28.4944 41.7428 27.8863 43.8288 28.04 46.5051Z" fill="#FFCA28"/>
<path d="M34.9021 43.8512V52.53L28.8184 51.6073V42.9285C28.8184 39.1564 32.0529 37.6376 34.0083 40.6219C34.5561 41.5157 34.9021 42.6402 34.9021 43.8512Z" fill="#FF9F1C"/>
<path d="M34.9018 43.8519V48.2057C34.6133 48.4653 34.2387 48.6094 33.8638 48.6383C32.686 48.7 32.0014 47.7158 31.4995 46.6488C30.4902 44.342 30.3461 41.776 30.6056 39.2675C30.9805 39.0657 31.4129 39.0079 31.8743 39.0657C33.7679 39.3267 34.9018 41.7679 34.9018 43.8519Z" fill="#FFCA28"/>
<path d="M14.7195 41.8919V50.5707L8.63574 51.4934V42.8146C8.63574 40.7769 9.73482 38.3542 11.692 38.0283C13.3642 37.7688 14.7195 39.4987 14.7195 41.8919Z" fill="#FF9F1C"/>
<path d="M14.7191 41.8922V45.1215C14.0722 46.0908 12.6512 46.463 11.605 45.2081C10.5385 43.7855 10.1902 40.7242 10.2211 38.8071C12.0706 36.9576 14.7191 38.4205 14.7191 41.8922Z" fill="#FFCA28"/>
<path d="M7.8567 42.93V51.6088L1.77295 52.5315V43.8526C1.77295 42.6417 2.11893 41.5172 2.66677 40.6233C4.55139 37.7107 7.8567 39.029 7.8567 42.93Z" fill="#FF9F1C"/>
<path d="M7.85709 42.929V47.4558C6.61709 48.3043 4.88092 47.8407 4.28181 45.2934C3.76283 43.4193 3.58984 41.4298 3.82038 39.4692C5.47674 38.2648 7.85709 39.618 7.85709 42.929Z" fill="#FFCA28"/>
<path d="M35.3638 93.879H3.82028C2.14809 93.879 0.821699 92.5237 0.85056 90.8513L1.34067 52.6474C1.34067 52.215 1.68666 51.8113 2.11923 51.7536C2.38964 51.708 10.8596 50.2816 10.3366 50.3696H25.1857L34.5854 51.7536C35.0466 51.8402 35.3638 52.215 35.3638 52.6763V52.9647C35.4215 59.5097 35.7097 93.879 35.3638 93.879Z" fill="#19345D"/>
<path d="M34.7656 57.4331H96.0007V96.396H34.7656V57.4331Z" fill="#E2212E"/>
<path d="M86.4133 83.6063C77.2492 92.5845 44.5802 93.2453 45.0469 66.3012C45.1004 63.2568 45.5811 60.0523 47.0498 57.4351H91.968C93.117 65.8222 92.4986 77.6497 86.4133 83.6063Z" fill="#F72F43"/>
<path d="M96.3751 55.9626V58.8171H96.0003V96.3868H92.2231C92.3384 96.1561 92.4537 95.9254 92.5403 95.666C92.9728 94.4837 93.0304 93.1862 93.0881 91.9464C93.6071 80.9034 94.1261 69.8602 93.9819 58.8171C94.0108 58.3558 94.0108 57.8944 93.9819 57.4332V55.9626H96.3751Z" fill="black"/>
<path d="M42.0241 96.3868H34.7583V55.9626H36.2286C36.2575 56.4528 36.2575 56.9431 36.2864 57.4332C36.2864 57.8944 36.3152 58.3558 36.3441 58.8171C36.6612 68.3033 37.0072 77.8471 37.3532 87.3331C37.4398 90.1587 37.6992 93.3305 39.8905 95.1181C40.5249 95.6371 41.2744 96.0119 42.0241 96.3868Z" fill="black"/>
<path d="M35.3638 96.386H3.82028C2.14809 96.386 0.821699 95.0308 0.85056 93.3584L1.36954 54.3761L10.2789 52.8767H25.1857L25.5606 52.9344L35.3638 54.3761C35.3638 54.3761 35.7386 96.386 35.3638 96.386Z" fill="#E2212E"/>
<path d="M25.5605 52.9344V96.386H10.2788V52.8767H25.1857L25.5605 52.9344Z" fill="#F72F43"/>
<path d="M30.4335 24.246V25.1687C30.4335 25.5724 30.0875 25.9183 29.6838 25.9183H6.18475C5.75236 25.9183 5.43506 25.5724 5.43506 25.1687V24.246C5.43506 23.8423 5.75236 23.5251 6.18475 23.5251H29.6838C30.0875 23.5251 30.4335 23.8423 30.4335 24.246Z" fill="#19345D"/>
<path d="M19.6207 10.81C19.4188 10.9541 19.1592 10.9253 18.9285 10.9253H17.0833C16.9392 10.9253 16.7949 10.9253 16.6508 10.8675C16.5644 10.81 16.4778 10.6945 16.5066 10.5504C16.5066 10.4927 16.5355 10.4638 16.5355 10.4063C16.7658 9.56109 16.0356 12.6715 17.7464 4.81264C17.7753 4.66851 17.8042 4.5242 17.833 4.38007C17.8617 4.29366 17.8906 4.23594 17.9483 4.20708C18.0347 4.14953 18.1501 4.17822 18.2366 4.2648C18.2654 4.29366 18.3231 4.32252 18.352 4.38007C18.5284 4.64485 19.4929 9.47594 19.5341 9.74299C19.5618 9.77073 19.6417 10.2522 19.6494 10.2908C19.6782 10.4638 19.7648 10.6657 19.6207 10.81Z" fill="#D0DCEE"/>
<path d="M32.1591 47.6092C32.8096 47.6092 33.3368 46.4351 33.3368 44.9867C33.3368 43.5384 32.8096 42.3643 32.1591 42.3643C31.5087 42.3643 30.9814 43.5384 30.9814 44.9867C30.9814 46.4351 31.5087 47.6092 32.1591 47.6092Z" fill="#19345D"/>
<path d="M4.6445 47.6092C5.29492 47.6092 5.8222 46.4351 5.8222 44.9867C5.8222 43.5384 5.29492 42.3643 4.6445 42.3643C3.99407 42.3643 3.4668 43.5384 3.4668 44.9867C3.4668 46.4351 3.99407 47.6092 4.6445 47.6092Z" fill="#19345D"/>
<path d="M25.0742 46.6978C25.7246 46.6978 26.2519 45.5237 26.2519 44.0753C26.2519 42.627 25.7246 41.4529 25.0742 41.4529C24.4238 41.4529 23.8965 42.627 23.8965 44.0753C23.8965 45.5237 24.4238 46.6978 25.0742 46.6978Z" fill="#19345D"/>
<path d="M11.6787 46.6978C12.3291 46.6978 12.8564 45.5237 12.8564 44.0753C12.8564 42.627 12.3291 41.4529 11.6787 41.4529C11.0283 41.4529 10.501 42.627 10.501 44.0753C10.501 45.5237 11.0283 46.6978 11.6787 46.6978Z" fill="#19345D"/>
<path d="M18.2856 46.273C18.936 46.273 19.4633 45.0989 19.4633 43.6505C19.4633 42.2022 18.936 41.0281 18.2856 41.0281C17.6352 41.0281 17.1079 42.2022 17.1079 43.6505C17.1079 45.0989 17.6352 46.273 18.2856 46.273Z" fill="#19345D"/>
<path d="M85.1821 13.0956H92.7691V14.5056H85.1821V13.0956Z" fill="#095DA4"/>
<path d="M38.2959 7.20654H39.1425V13.9763H38.2959V7.20654Z" fill="#19345D"/>
<path d="M42.6489 7.20654H43.4955V13.9763H42.6489V7.20654Z" fill="#19345D"/>
<path d="M40.499 7.20654H41.3456V13.9763H40.499V7.20654Z" fill="#19345D"/>
<path d="M44.6957 8.70232H37.144C36.772 8.70232 36.5302 8.28258 36.6976 7.94263C36.7905 7.72275 36.9021 7.54278 37.0324 7.34291C37.9652 5.87282 38.7756 5.88864 39.3388 5.34375C39.9609 4.77073 40.1982 2.99946 41.1245 3.66453C41.1431 3.66453 41.1803 3.68442 41.1988 3.70443C41.3849 3.8644 41.5338 4.06426 41.6639 4.30415C41.7941 4.54404 41.8127 4.78405 41.9802 5.00393C42.2777 5.40379 42.7427 5.50372 43.1334 5.7236C43.9638 6.2071 44.6274 6.95473 44.9934 7.66284C45.0492 7.74277 45.0864 7.8427 45.1423 7.94263C45.3096 8.28258 45.0678 8.70232 44.6957 8.70232Z" fill="#D0DCEE"/>
<path d="M44.9934 7.66209C43.9548 8.21972 41.8371 8.077 40.7711 8.00191C39.3406 7.87366 38.2308 7.86916 38.1298 7.36216C37.9869 6.79968 39.0487 6.29237 39.4876 6.02276C40.492 5.40601 40.4215 4.86716 40.5479 4.32341C40.5909 4.04595 40.6936 3.65813 40.9571 3.56372C41.7488 3.98981 41.724 4.66685 41.9801 5.00318C42.2777 5.40303 42.7427 5.50296 43.1334 5.72284C43.5797 5.98274 43.9704 6.30255 44.3238 6.70241C44.5656 6.98232 44.8073 7.30213 44.9934 7.66209Z" fill="#F2F8FD"/>
<path d="M41.125 3.66408C41.125 3.74406 41.0692 3.82404 40.9947 3.86409C40.7781 3.95732 40.629 3.86266 40.4363 3.90414C40.3619 3.92404 40.306 3.92404 40.2502 3.94406C40.2316 3.94406 40.213 3.94406 40.1943 3.92404C40.3894 3.61016 40.6045 3.43747 40.9575 3.56396C41.0133 3.58398 41.0692 3.62403 41.125 3.66408Z" fill="black"/>
<path d="M41.1004 3.67254C41.0958 3.7412 41.0501 3.79514 40.9772 3.79514H40.53C40.4387 3.79514 40.3794 3.69705 40.4205 3.61369L40.6258 3.17722C40.3986 3.06096 40.4051 2.69319 40.6623 2.59364V1.93648C40.4794 1.8601 40.477 1.5574 40.6715 1.4804C40.6998 1.05194 40.7174 0.692313 40.7307 0.533919C40.7307 0.519222 40.7307 0.504496 40.7399 0.489798C40.7444 0.484891 40.7536 0.47998 40.7581 0.47998C40.781 0.484891 40.781 0.578068 40.781 0.597674C40.784 0.672119 40.8312 1.40894 40.8357 1.4804C41.0294 1.56137 41.0275 1.85572 40.8448 1.93648V2.59364C41.1019 2.69315 41.1101 3.06325 40.8768 3.17722L41.0867 3.61369C41.0958 3.6333 41.1004 3.6529 41.1004 3.67254Z" fill="#FFCA28"/>
<path d="M41.1004 3.67254C41.0958 3.7412 41.0501 3.79514 40.9772 3.79514H40.53C40.4387 3.79514 40.3794 3.69705 40.4205 3.61369L40.6258 3.17722C40.3986 3.06096 40.4051 2.69319 40.6623 2.59364V1.93648C40.4794 1.8601 40.477 1.5574 40.6715 1.4804C40.6998 1.05194 40.7174 0.692313 40.7307 0.533919C40.7307 0.519222 40.7307 0.504496 40.7399 0.489798C40.7444 0.484891 40.7536 0.47998 40.7581 0.47998C40.781 0.484891 40.781 0.578068 40.781 0.597674V0.617279C40.7079 0.826456 40.7494 1.41411 40.6988 1.55397C40.6209 1.77722 40.8013 1.66196 40.7627 1.9316C40.7342 2.20698 40.7952 2.3727 40.6851 2.74075C40.6155 2.92795 40.6695 2.91307 40.7399 3.06444C40.7764 3.13307 40.781 3.22625 40.749 3.29982C40.7262 3.35376 40.6806 3.40282 40.6669 3.46655C40.6312 3.62928 40.8068 3.76447 41.0045 3.70196C41.0365 3.69214 41.0684 3.67745 41.1004 3.67254Z" fill="#FF9F1C"/>
<path d="M37.1265 13.0956H44.7134V14.5056H37.1265V13.0956Z" fill="#095DA4"/>
<path d="M22.3313 62.9684V71.3301H14.0562V62.9684C14.0562 60.6618 15.9013 58.8164 18.1793 58.8164C20.457 58.8164 22.3313 60.6618 22.3313 62.9684Z" fill="#19345D"/>
<path d="M33.9508 61.4116V69.802L33.4607 69.8886L26.3677 71.2148V62.8244C26.3677 60.6206 28.0828 58.3554 30.1448 57.9805C30.3467 57.9516 30.5774 57.9227 30.7792 57.9227C32.5669 57.9227 33.9508 59.3644 33.9508 61.4116Z" fill="#19345D"/>
<path d="M33.4607 61.9014V69.8882L26.3677 71.2144V62.8241C26.3677 61.5554 26.9839 60.1895 27.6941 59.4793C30.0332 57.3743 33.4607 58.597 33.4607 61.9014Z" fill="#FFCA28"/>
<path d="M9.38471 62.9691V71.3308C9.11723 71.2811 1.27317 69.8252 1.77289 69.918V61.5274C1.77289 57.9767 5.6699 56.8889 8.00078 59.5379C8.86574 60.4606 9.38471 61.7004 9.38471 62.9691Z" fill="#19345D"/>
<path d="M9.38505 62.9694V71.3311L2.17676 70.0047V61.9603C2.17676 58.8664 5.34268 57.2789 8.00111 59.5382C8.86607 60.4609 9.38505 61.7007 9.38505 62.9694Z" fill="#FFCA28"/>
<path d="M9.38477 84.6879V93.0496L2.17648 91.7232L1.77295 91.6368V83.2463C1.77295 81.2279 3.12802 79.7863 4.91566 79.7863C7.26743 79.7863 9.38477 82.1386 9.38477 84.6879Z" fill="#19345D"/>
<path d="M9.38505 84.6802V93.0417L2.17676 91.7155V83.6709C2.17676 80.4209 5.42749 79.061 8.00111 81.249C8.86607 82.1717 9.38505 83.4115 9.38505 84.6802Z" fill="#FFCA28"/>
<path d="M22.3313 84.7961V93.1865H14.0562V84.7961C14.0562 82.5183 15.9013 80.673 18.1793 80.673C20.457 80.673 22.3313 82.5183 22.3313 84.7961Z" fill="#19345D"/>
<path d="M22.3313 63.9498V71.3311H14.0562V63.9498C14.0562 61.5809 16.011 59.8267 18.1793 59.8267C20.457 59.8267 22.3313 61.6718 22.3313 63.9498Z" fill="#FFCA28"/>
<path d="M22.3313 85.8037V93.185H14.0562V85.8037C14.0562 83.5022 15.8961 81.6517 18.1793 81.6517C20.457 81.6517 22.3313 83.4971 22.3313 85.8037Z" fill="#FFCA28"/>
<path d="M33.9508 83.2608V91.6512L33.4607 91.7378L26.3677 93.064V84.6736C26.3677 83.4338 26.8867 82.2228 27.6941 81.3289C29.9283 78.5869 33.9508 79.6284 33.9508 83.2608Z" fill="#19345D"/>
<path d="M33.4607 83.7569V91.7435L26.3677 93.0699V84.6795C26.3677 83.4397 26.8867 82.2575 27.6652 81.3637L27.6941 81.3348C30.0332 79.2298 33.4607 80.4525 33.4607 83.7569Z" fill="#FFCA28"/>
<path d="M17.6892 35.8662H17.5737C17.6316 35.8662 17.6605 35.8662 17.6892 35.8373V35.8662Z" fill="#28B6F4"/>
<path d="M83.1018 70.8132V83.4982C83.1018 84.1658 82.5678 84.7 81.9268 84.7H49.0527C48.385 84.7 47.8511 84.1658 47.8511 83.4982V70.8132H83.1018Z" fill="#F58210"/>
<path d="M83.1018 70.8132V72.2554C74.0489 71.9615 64.969 71.6678 55.9159 72.2287C53.5391 72.3889 51.109 72.6024 48.9459 73.6707C48.572 73.8309 48.2248 74.0446 47.8511 74.2316V70.8132H83.1018Z" fill="black"/>
<path d="M86.0811 71.0421C86.1964 71.3017 85.9946 71.5899 85.7063 71.5899H45.2822C44.9939 71.5899 44.7632 71.3017 44.8784 71.0421L46.7815 65.8522C46.9418 65.3719 45.0859 65.6833 83.8032 65.5928C84.3003 65.5928 84.0978 65.8975 85.5044 69.4275L86.0811 71.0421Z" fill="#FFCA28"/>
<path d="M30.4334 24.246V24.8515C28.4545 25.3646 24.0827 24.1868 11.6052 24.9091C9.95433 25.0271 8.04839 24.9905 7.19385 23.5251H29.6837C30.0874 23.5251 30.4334 23.8423 30.4334 24.246Z" fill="#095DA4"/>
<path d="M16.651 28.1374C15.5841 28.3104 14.5173 28.4834 13.5082 28.8582C14.0272 29.2619 14.3443 29.8675 14.3443 30.5883V35.5764H11.3169C14.2752 37.8777 19.4245 35.3438 25.0991 36.9028C25.8547 37.1232 26.9866 37.5659 27.9248 37.5659V27.186C24.1764 27.3879 20.3992 27.6184 16.651 28.1374ZM19.9091 35.5764H15.4689C15.602 30.9623 15.1427 30.1691 15.959 29.2042C16.3627 28.6852 16.9969 28.3681 17.6889 28.3681C18.9 28.3681 19.9091 29.3485 19.9091 30.5883V35.5764ZM25.4739 35.5764H21.0337C21.1629 31.0971 20.716 30.2171 21.4949 29.2042C22.8531 27.5747 25.4739 28.4847 25.4739 30.5883V35.5764Z" fill="#F72F43"/>
<path d="M20.4242 20.8465C21.6793 21.2 21.5646 19.7371 20.4863 18.8487C20.1996 18.6125 19.0369 17.8101 18.6734 18.3206C18.4305 18.6617 18.8908 19.348 19.0502 19.6469C19.3434 20.1969 19.8114 20.6739 20.4242 20.8465Z" fill="#E2212E"/>
<path d="M20.5403 16.6178C21.1864 16.7998 21.0998 16.0436 20.5716 15.6084C20.4268 15.4891 19.8393 15.0837 19.6557 15.3416C19.5329 15.5139 19.7655 15.8607 19.846 16.0117C19.9942 16.2896 20.2307 16.5306 20.5403 16.6178Z" fill="#E2212E"/>
<path d="M33.4612 61.9012V68.1004C29.6749 67.8585 27.3382 63.5323 27.4638 59.7675C27.7043 59.2873 28.9232 58.4412 30.3183 58.4412C32.1059 58.4412 33.4612 59.8828 33.4612 61.9012Z" fill="#FFD880"/>
<path d="M22.3314 63.9487V67.4663C19.0358 67.3485 16.6075 63.4593 16.334 60.5176C16.334 60.4599 16.334 60.3735 16.3052 60.2869C18.9755 58.8818 22.3314 60.8364 22.3314 63.9487Z" fill="#FFD880"/>
<path d="M9.38528 62.9694V67.0925C6.15386 67.5903 3.78409 61.9941 3.61865 59.0193C5.82535 57.462 9.38528 59.3679 9.38528 62.9694Z" fill="#FFD880"/>
<path d="M9.38472 84.6802V89.899C5.40854 90.7811 3.32276 83.3323 4.71376 80.2398C7.41598 79.8535 9.38472 82.081 9.38472 84.6802Z" fill="#FFD880"/>
<path d="M22.3305 85.8059V90.3328C22.0998 90.3616 21.898 90.3905 21.6673 90.3905C19.9662 90.3328 18.6109 88.92 17.6019 87.5072C16.5312 86.0543 15.5835 84.3755 15.5835 82.5766C18.1408 80.4459 22.3305 82.2046 22.3305 85.8059Z" fill="#FFD880"/>
<path d="M33.4605 83.7569V88.5431C30.6043 88.8522 27.665 86.4788 27.665 81.3637L27.6939 81.3348C30.033 79.2298 33.4605 80.4525 33.4605 83.7569Z" fill="#FFD880"/>
<path d="M35.3635 52.6743V52.9627C34.9311 53.0203 34.4121 52.9339 33.9507 52.8473C24.9548 51.0021 15.584 50.8578 6.53032 52.4724C5.80949 52.5879 5.00226 52.732 4.33898 52.4438C3.96431 52.2706 3.64701 51.9246 3.53174 51.5211L10.3363 50.3677H25.1855L34.5851 51.7516C35.0464 51.8382 35.3635 52.213 35.3635 52.6743Z" fill="#095DA4"/>
<path d="M19.5344 9.74244C19.1596 9.74244 18.7559 9.59831 18.4676 9.36777C17.7743 8.67406 17.8303 7.7411 17.8909 6.77272C18.0342 5.77065 17.9528 4.77906 18.3523 4.37952C18.547 4.67166 19.4933 9.4753 19.5344 9.74244Z" fill="#F2F8FD"/>
<path d="M18.3521 4.37961C18.3488 4.42928 18.3157 4.46831 18.2629 4.46831H17.9394C17.8734 4.46831 17.8305 4.39734 17.8602 4.33703L18.0087 4.02125C17.8444 3.93714 17.8491 3.67106 18.0351 3.59903V3.12358C17.9028 3.06833 17.9011 2.84933 18.0418 2.79362C18.0502 2.66658 18.0639 2.46622 18.0681 2.33948C18.0684 2.33658 18.0648 2.37237 18.0913 2.07693C18.0946 2.07338 18.1012 2.06982 18.1045 2.06982C18.121 2.07338 18.121 2.14079 18.121 2.15497C18.1221 2.18158 18.1256 2.25086 18.1276 2.27207C18.1408 2.47036 18.1468 2.55095 18.1606 2.79362C18.3007 2.8522 18.2993 3.06515 18.1672 3.12358V3.59903C18.3532 3.67103 18.3591 3.93879 18.1903 4.02125L18.3421 4.33703C18.3488 4.35122 18.3521 4.3654 18.3521 4.37961Z" fill="#FFCA28"/>
<path d="M18.3521 4.37961C18.3488 4.42928 18.3157 4.46831 18.2629 4.46831H17.9394C17.8734 4.46831 17.8305 4.39734 17.8602 4.33703L18.0087 4.02125C17.8444 3.93714 17.8491 3.67106 18.0351 3.59903V3.12358C17.9028 3.06833 17.9011 2.84933 18.0418 2.79362C18.0502 2.66658 18.0639 2.46622 18.0681 2.33948C18.0748 2.26141 18.0781 2.18692 18.0846 2.10885C18.0846 2.09822 18.0846 2.08756 18.0913 2.07693C18.0946 2.07338 18.1012 2.06982 18.1045 2.06982C18.121 2.07338 18.121 2.14079 18.121 2.15497V2.16916C18.0654 2.32835 18.1007 2.73847 18.0616 2.84685C18.0516 2.87524 18.0351 2.91071 18.0483 2.9391C18.0549 2.95684 18.0715 2.96747 18.0846 2.98168C18.1144 3.0207 18.1144 3.07393 18.1078 3.12005C18.0979 3.21584 18.1045 3.30809 18.1012 3.40389C18.0979 3.50323 18.0814 3.60614 18.0516 3.70547C18.0384 3.74096 18.0252 3.77999 18.0318 3.81901C18.0384 3.86514 18.0715 3.89708 18.0913 3.93965C18.1177 3.98931 18.121 4.05672 18.0979 4.10995C18.0814 4.14897 18.0483 4.18447 18.0384 4.23057C18.0127 4.34831 18.1397 4.44611 18.2827 4.40089C18.3058 4.39379 18.329 4.38316 18.3521 4.37961Z" fill="#FF9F1C"/>
<path d="M101.043 26.0908V52.3578H121.054V26.0908H101.043ZM107.473 35.9517H103.033V30.9636C103.033 30.2428 103.379 29.6084 103.898 29.2047C105.318 28.1129 107.473 29.0633 107.473 30.9636V35.9517ZM113.038 35.9517H108.598V30.9636C108.598 30.2428 108.944 29.6084 109.463 29.2047C109.838 28.9164 110.299 28.7434 110.818 28.7434C112.029 28.7434 113.038 29.7238 113.038 30.9636V35.9517ZM118.603 35.9517H114.163V30.9636C114.163 30.2428 114.48 29.6372 114.999 29.2047C115.373 28.9164 115.864 28.7434 116.383 28.7434C117.594 28.7434 118.603 29.7238 118.603 30.9636V35.9517Z" fill="#19345D"/>
<path d="M122.11 22.6379C122.04 23.3474 121.416 23.8776 120.707 23.8776H101.799C101.059 23.8776 100.45 23.3084 100.38 22.5755C99.516 14.7951 107.316 8.55009 114.758 11.2077C119.579 12.8971 122.655 17.7383 122.11 22.6379Z" fill="#E2212E"/>
<path d="M122.164 21.8033C121.821 21.9748 121.47 22.1229 121.112 22.2399C117.311 23.5002 109.705 22.2573 107.498 21.2809C104.224 19.8323 103.901 16.4739 105.682 14.1311C106.836 12.6108 108.699 11.7375 110.578 11.3945C111.958 11.1449 113.362 11.1371 114.757 11.2073C119.4 12.8342 122.326 17.3459 122.164 21.8033Z" fill="#F72F43"/>
<path d="M101.043 25.7156V52.3574H121.429V25.7156H101.043ZM103.408 35.5765C103.541 30.9624 103.082 30.1691 103.898 29.2043C105.159 27.5825 107.848 28.4676 107.848 30.5884V35.5765H103.408ZM118.978 35.5765H114.537V30.5884C114.537 30.0694 114.71 29.5791 114.999 29.2043C115.431 28.6853 116.037 28.3682 116.757 28.3682C117.969 28.3682 118.978 29.3486 118.978 30.5884V35.5765ZM113.413 35.5765H108.973C109.106 30.9624 108.646 30.1691 109.463 29.2043C109.866 28.6853 110.501 28.3682 111.193 28.3682C112.404 28.3682 113.413 29.3486 113.413 30.5884V35.5765Z" fill="#E2212E"/>
<path d="M121.429 25.7156V26.1768C117.421 26.5517 113.413 26.6383 109.405 26.4364C106.59 26.2827 103.566 26.0402 101.043 27.3014V25.7156H121.429Z" fill="black"/>
<path d="M98.3357 46.6357L97.9653 45.3526C99.5327 44.9014 101.272 44.5311 103.442 44.1869C110.952 43.0013 118.662 42.7172 125.887 45.2809L125.441 46.5405C118.47 44.0643 110.956 44.3467 103.651 45.5065C101.537 45.8416 99.8483 46.2002 98.3357 46.6357Z" fill="#19345D"/>
<path d="M114.825 41.8902V50.569H108.771V41.8902C108.771 38.1309 111.998 36.0855 113.932 38.8339C114.479 39.6124 114.825 40.6793 114.825 41.8902Z" fill="#FF9F1C"/>
<path d="M114.826 41.8912V45.8991C114.686 46.2492 113.784 46.8428 112.981 46.6199C112.218 46.3849 111.851 45.5976 111.568 44.9187C110.732 42.6986 110.386 40.2477 110.703 37.8834C112.602 36.7757 114.826 38.7778 114.826 41.8912Z" fill="#FFCA28"/>
<path d="M121.544 42.8145V51.4933L115.46 50.5706V41.8918C115.46 40.0176 116.296 38.5184 117.507 38.1436C117.478 38.1147 117.507 38.1147 117.507 38.1147C118.424 37.7815 119.706 38.1233 120.65 39.6141C121.198 40.479 121.544 41.6036 121.544 42.8145Z" fill="#FF9F1C"/>
<path d="M121.544 46.5051C120.72 47.2257 119.26 47.0426 118.315 45.0347C117.421 43.1316 117.334 40.9403 117.421 38.8067C117.421 38.5759 117.421 38.3454 117.507 38.1436C117.478 38.1147 117.507 38.1147 117.507 38.1147C118.424 37.7815 119.706 38.1233 120.65 39.6141C121.998 41.7428 121.39 43.8288 121.544 46.5051Z" fill="#FFCA28"/>
<path d="M128.407 43.8519V52.5307L122.323 51.608V42.9292C122.323 41.1993 123.044 39.7865 124.11 39.2675C124.485 39.0657 124.918 39.0079 125.379 39.0657C126.215 39.1809 126.965 39.7865 127.513 40.6226C128.061 41.5164 128.407 42.6409 128.407 43.8519Z" fill="#FF9F1C"/>
<path d="M128.406 48.2057C128.118 48.4653 127.743 48.6094 127.368 48.6383C126.19 48.7 125.506 47.7158 125.004 46.6488C123.995 44.342 123.85 41.776 124.11 39.2675C124.485 39.0657 124.917 39.0079 125.379 39.0657C126.215 39.1809 126.964 39.7865 127.512 40.6226C128.892 42.8736 128.235 44.9038 128.406 48.2057Z" fill="#FFCA28"/>
<path d="M108.223 41.8917V50.5705L102.14 51.4932V42.8144C102.14 41.6035 102.486 40.4789 103.033 39.614C104.927 36.6377 108.223 38.0079 108.223 41.8917Z" fill="#FF9F1C"/>
<path d="M108.223 41.8922V45.1215C107.568 46.1027 106.155 46.4626 105.109 45.2081C104.042 43.7855 103.694 40.7242 103.725 38.8071C105.574 36.9576 108.223 38.4205 108.223 41.8922Z" fill="#FFCA28"/>
<path d="M101.361 42.9289V51.6077L95.2773 52.5304V43.8516C95.2773 41.7389 96.4124 39.3801 98.3048 39.0653C100.006 38.8058 101.361 40.5359 101.361 42.9289Z" fill="#FF9F1C"/>
<path d="M101.361 42.929V47.4558C100.158 48.2786 98.3947 47.8847 97.7852 45.2934C97.2662 43.4193 97.0933 41.4298 97.3238 39.4692C98.9802 38.2648 101.361 39.618 101.361 42.929Z" fill="#FFCA28"/>
<path d="M128.868 93.877H97.3242C95.652 93.877 94.3256 92.5217 94.3545 90.8494L94.8446 52.6454C94.8446 52.213 95.1906 51.8093 95.6231 51.7516L97.0359 51.5211L103.841 50.3677H118.69L128.089 51.7516C128.551 51.8382 128.868 52.213 128.868 52.6743V52.9627C128.925 59.5077 129.214 93.877 128.868 93.877Z" fill="#19345D"/>
<path d="M97.3242 96.386C93.7151 96.6035 94.3256 95.0308 94.3545 93.3584L94.8735 54.3761L103.783 52.8767H118.69L119.065 52.9344L128.868 54.3761C128.877 55.3679 129.258 95.1725 128.824 96.0237C128.531 96.5994 129.421 96.386 97.3242 96.386Z" fill="#E2212E"/>
<path d="M119.065 52.9344V96.386H103.783V52.8767H118.69L119.065 52.9344Z" fill="#F72F43"/>
<path d="M123.937 24.246V25.1687C123.937 25.5724 123.591 25.9183 123.188 25.9183H99.6887C99.2563 25.9183 98.939 25.5724 98.939 25.1687V24.246C98.939 23.8423 99.2563 23.5251 99.6887 23.5251H123.188C123.591 23.5251 123.937 23.8423 123.937 24.246Z" fill="#19345D"/>
<path d="M113.125 10.8104C112.923 10.9545 112.664 10.9257 112.433 10.9257H110.588C110.444 10.9257 110.299 10.9257 110.155 10.868C110.069 10.8104 109.982 10.695 110.011 10.5508C110.011 10.4931 110.04 10.4643 110.04 10.4067C110.114 10.1357 111.283 4.65199 111.337 4.38049C111.417 4.14127 111.598 4.12248 111.741 4.26523C111.77 4.29409 111.828 4.32295 111.856 4.38049C112.015 4.61897 112.997 9.47635 113.038 9.74342C113.066 9.77116 113.146 10.2526 113.154 10.2913C113.183 10.4643 113.269 10.6661 113.125 10.8104Z" fill="#D0DCEE"/>
<path d="M125.662 47.6092C126.312 47.6092 126.84 46.4351 126.84 44.9867C126.84 43.5384 126.312 42.3643 125.662 42.3643C125.012 42.3643 124.484 43.5384 124.484 44.9867C124.484 46.4351 125.012 47.6092 125.662 47.6092Z" fill="#19345D"/>
<path d="M98.1504 47.6092C98.8008 47.6092 99.3281 46.4351 99.3281 44.9867C99.3281 43.5384 98.8008 42.3643 98.1504 42.3643C97.4999 42.3643 96.9727 43.5384 96.9727 44.9867C96.9727 46.4351 97.4999 47.6092 98.1504 47.6092Z" fill="#19345D"/>
<path d="M118.577 46.6978C119.228 46.6978 119.755 45.5237 119.755 44.0753C119.755 42.627 119.228 41.4529 118.577 41.4529C117.927 41.4529 117.399 42.627 117.399 44.0753C117.399 45.5237 117.927 46.6978 118.577 46.6978Z" fill="#19345D"/>
<path d="M105.182 46.6978C105.833 46.6978 106.36 45.5237 106.36 44.0753C106.36 42.627 105.833 41.4529 105.182 41.4529C104.532 41.4529 104.004 42.627 104.004 44.0753C104.004 45.5237 104.532 46.6978 105.182 46.6978Z" fill="#19345D"/>
<path d="M111.791 46.273C112.442 46.273 112.969 45.0989 112.969 43.6505C112.969 42.2022 112.442 41.0281 111.791 41.0281C111.141 41.0281 110.614 42.2022 110.614 43.6505C110.614 45.0989 111.141 46.273 111.791 46.273Z" fill="#19345D"/>
<path d="M115.835 62.9684V71.3301H107.56V62.9684C107.56 60.6618 109.405 58.8164 111.683 58.8164C113.961 58.8164 115.835 60.6618 115.835 62.9684Z" fill="#19345D"/>
<path d="M127.455 61.4118V69.8021C125.551 70.1567 119.482 71.2876 119.871 71.2149V62.8246C119.871 60.6208 121.587 58.3556 123.649 57.9806C126.007 57.6434 127.455 59.337 127.455 61.4118Z" fill="#19345D"/>
<path d="M126.965 61.9012V69.888L119.872 71.2142V62.8239C119.872 61.6993 120.304 60.6036 120.967 59.7675C121.208 59.2873 122.427 58.4412 123.822 58.4412C125.609 58.4412 126.965 59.8828 126.965 61.9012Z" fill="#FFCA28"/>
<path d="M102.889 62.9691V71.3308C102.621 71.2811 94.7771 69.8252 95.2768 69.918V61.5274C95.2768 57.9767 99.1738 56.8889 101.505 59.5379C102.37 60.4606 102.889 61.7004 102.889 62.9691Z" fill="#19345D"/>
<path d="M102.889 62.9694V71.3311L95.6812 70.0047V61.9603C95.6812 58.8664 98.8471 57.2789 101.505 59.5382C102.37 60.4609 102.889 61.7007 102.889 62.9694Z" fill="#FFCA28"/>
<path d="M102.889 84.688V93.0497C102.621 93 94.7771 91.5441 95.2768 91.6369V83.2463C95.2768 79.641 99.2143 78.6538 101.505 81.2568C102.37 82.1795 102.889 83.4193 102.889 84.688Z" fill="#19345D"/>
<path d="M102.889 84.6802V93.0417L95.6812 91.7155V83.671C95.6812 80.4807 98.8861 79.0221 101.505 81.2491C102.37 82.1718 102.889 83.4116 102.889 84.6802Z" fill="#FFCA28"/>
<path d="M115.835 84.7961V93.1865H107.56V84.7961C107.56 82.5183 109.405 80.673 111.683 80.673C113.961 80.673 115.835 82.5183 115.835 84.7961Z" fill="#19345D"/>
<path d="M115.835 63.9498V71.3311H107.56V63.9498C107.56 61.5809 109.515 59.8267 111.683 59.8267C113.961 59.8267 115.835 61.6718 115.835 63.9498Z" fill="#FFCA28"/>
<path d="M115.835 85.8037V93.185H107.56V85.8037C107.56 83.5022 109.4 81.6517 111.683 81.6517C113.961 81.6517 115.835 83.4971 115.835 85.8037Z" fill="#FFCA28"/>
<path d="M127.455 83.2611V91.6515C125.551 92.0061 119.482 93.1369 119.871 93.0643V84.6739C119.871 82.3484 121.831 79.7722 124.283 79.7722C126.071 79.7722 127.455 81.2139 127.455 83.2611Z" fill="#19345D"/>
<path d="M126.965 83.7569V91.7435L119.872 93.0699V84.6795C119.872 83.4397 120.391 82.2575 121.169 81.3637L121.198 81.3348C123.537 79.2298 126.965 80.4525 126.965 83.7569Z" fill="#FFCA28"/>
<path d="M111.193 35.8662H111.078C111.135 35.8662 111.164 35.8662 111.193 35.8373V35.8662Z" fill="#28B6F4"/>
<path d="M123.937 24.246V24.8515C123.159 25.0534 122.351 24.9957 121.573 24.9379C116.095 24.6208 110.588 24.592 105.109 24.9091C104.302 24.9668 103.466 24.9957 102.658 24.8227C101.851 24.6497 101.101 24.2171 100.698 23.5251H123.188C123.591 23.5251 123.937 23.8423 123.937 24.246Z" fill="#095DA4"/>
<path d="M107.012 28.8582C107.531 29.2619 107.848 29.8675 107.848 30.5883V35.5764H104.821C107.779 37.8777 112.928 35.3438 118.603 36.9028C119.295 37.1046 119.958 37.3641 120.65 37.4795C120.91 37.537 121.169 37.5659 121.429 37.5659V27.186C118.161 27.362 109.873 27.7956 107.012 28.8582ZM113.413 35.5764H108.973C109.106 30.9623 108.647 30.1691 109.463 29.2042C109.867 28.6852 110.501 28.3681 111.193 28.3681C112.404 28.3681 113.413 29.3485 113.413 30.5883V35.5764ZM118.978 35.5764H114.538V30.5883C114.538 30.0694 114.711 29.5791 114.999 29.2042C115.431 28.6852 116.037 28.3681 116.758 28.3681C117.969 28.3681 118.978 29.3485 118.978 30.5883V35.5764Z" fill="#F72F43"/>
<path d="M114.802 20.0708C114.682 19.5879 114.374 19.1651 113.99 18.8487C113.703 18.6125 112.54 17.8101 112.177 18.3206C111.934 18.6617 112.394 19.348 112.554 19.6469C113.352 21.1442 115.111 21.3099 114.802 20.0708Z" fill="#E2212E"/>
<path d="M114.044 16.6178C114.69 16.7998 114.604 16.0436 114.076 15.6084C113.931 15.4891 113.343 15.0837 113.16 15.3416C113.037 15.5139 113.269 15.8607 113.35 16.0117C113.498 16.2896 113.735 16.5306 114.044 16.6178Z" fill="#E2212E"/>
<path d="M126.965 61.9012V68.1004C123.178 67.8585 120.842 63.5323 120.967 59.7675C121.208 59.2873 122.427 58.4412 123.822 58.4412C125.609 58.4412 126.965 59.8828 126.965 61.9012Z" fill="#FFD880"/>
<path d="M115.835 63.9487V67.4663C112.539 67.3485 110.111 63.4593 109.837 60.5176C109.837 60.4599 109.837 60.3735 109.809 60.2869C112.479 58.8818 115.835 60.8364 115.835 63.9487Z" fill="#FFD880"/>
<path d="M102.888 62.9694V67.0925C99.7555 67.5751 97.3002 62.2319 97.1216 59.0193C99.3283 57.462 102.888 59.3679 102.888 62.9694Z" fill="#FFD880"/>
<path d="M102.889 84.6802V89.899C99.0508 90.7506 96.7644 83.4723 98.2184 80.2398C100.921 79.8535 102.889 82.081 102.889 84.6802Z" fill="#FFD880"/>
<path d="M115.835 85.8059V90.3328C115.604 90.3616 115.402 90.3905 115.172 90.3905C113.471 90.3328 112.115 88.92 111.106 87.5072C110.036 86.0543 109.088 84.3755 109.088 82.5766C111.645 80.4459 115.835 82.2046 115.835 85.8059Z" fill="#FFD880"/>
<path d="M126.964 83.7569V88.5431C124.108 88.8522 121.169 86.4788 121.169 81.3637L121.198 81.3348C123.537 79.2298 126.964 80.4525 126.964 83.7569Z" fill="#FFD880"/>
<path d="M128.867 52.6743V52.9627C128.435 53.0203 127.916 52.9339 127.455 52.8473C118.459 51.0021 109.088 50.8578 100.034 52.4724C99.3134 52.5879 98.5062 52.732 97.8429 52.4438C97.4682 52.2706 97.1509 51.9246 97.0356 51.5211L103.84 50.3677H118.689L128.089 51.7516C128.55 51.8382 128.867 52.213 128.867 52.6743Z" fill="#095DA4"/>
<path d="M113.038 9.74244C112.663 9.74244 112.26 9.59831 111.972 9.36777C111.278 8.67406 111.334 7.7411 111.395 6.77272C111.538 5.77065 111.457 4.77906 111.856 4.37952C112.015 4.61799 112.997 9.47537 113.038 9.74244Z" fill="#F2F8FD"/>
<path d="M111.856 4.37961C111.853 4.42928 111.82 4.46831 111.767 4.46831H111.444C111.378 4.46831 111.335 4.39734 111.365 4.33703L111.513 4.02125C111.349 3.93714 111.353 3.67106 111.54 3.59903V3.12358C111.407 3.06833 111.405 2.84933 111.546 2.79362C111.549 2.74396 111.553 2.69073 111.556 2.64106C111.566 2.4961 111.578 2.24226 111.589 2.10885C111.589 2.09822 111.589 2.08756 111.596 2.07693C111.599 2.07338 111.606 2.06982 111.609 2.06982C111.625 2.07338 111.625 2.14079 111.625 2.15497V2.16916C111.626 2.17229 111.622 2.128 111.652 2.57009C111.655 2.6375 111.658 2.70847 111.662 2.77943C111.662 2.78299 111.665 2.78654 111.665 2.79362C111.805 2.8522 111.804 3.06515 111.672 3.12358V3.59903C111.858 3.67103 111.864 3.93879 111.695 4.02125L111.847 4.33703C111.853 4.35122 111.856 4.3654 111.856 4.37961Z" fill="#FFCA28"/>
<path d="M111.856 4.37961C111.853 4.42928 111.82 4.46831 111.767 4.46831H111.444C111.378 4.46831 111.335 4.39734 111.365 4.33703L111.513 4.02125C111.349 3.93714 111.353 3.67106 111.54 3.59903V3.12358C111.407 3.06833 111.405 2.84933 111.546 2.79362C111.549 2.74396 111.553 2.69073 111.556 2.64106C111.563 2.54172 111.569 2.43881 111.573 2.33948C111.579 2.26141 111.582 2.18692 111.589 2.10885C111.589 2.09822 111.589 2.08756 111.596 2.07693C111.599 2.07338 111.606 2.06982 111.609 2.06982C111.625 2.07338 111.625 2.14079 111.625 2.15497V2.16916C111.595 2.25655 111.586 2.55204 111.586 2.64461C111.586 2.71202 111.589 2.78299 111.566 2.84685C111.556 2.87524 111.54 2.91071 111.553 2.9391C111.559 2.95684 111.576 2.96747 111.589 2.98168C111.619 3.0207 111.619 3.07393 111.612 3.12005C111.602 3.21584 111.609 3.30809 111.606 3.40389C111.602 3.50323 111.586 3.60614 111.556 3.70547C111.543 3.74096 111.53 3.77999 111.536 3.81901C111.543 3.86514 111.576 3.89708 111.596 3.93965C111.622 3.98931 111.625 4.05672 111.602 4.10995C111.586 4.14897 111.553 4.18447 111.543 4.23057C111.53 4.29091 111.566 4.35477 111.615 4.38669C111.668 4.41508 111.731 4.41863 111.787 4.40089C111.81 4.39379 111.833 4.38316 111.856 4.37961Z" fill="#FF9F1C"/>
<path d="M86.0811 71.0426C86.1964 71.3022 85.9946 71.5905 85.7063 71.5905H45.2822C44.9939 71.5905 44.7632 71.3022 44.8784 71.0426L46.7815 65.8527C46.932 65.4018 47.2475 65.6726 51.7985 65.5933C51.4595 67.0633 52.6916 68.3689 53.9898 69.1397C57.3344 71.1004 61.4864 70.9274 65.379 70.6967C72.0683 70.2643 78.7863 69.8606 85.5044 69.428L86.0811 71.0426Z" fill="#FF9F1C"/>
<path d="M92.0209 15.4805V53.0211C91.992 53.0211 91.9632 53.05 91.9343 53.0788C91.2135 53.569 90.2332 53.7419 89.4836 53.3384C88.5031 52.7906 88.2437 51.4931 88.0996 50.3685C87.4363 44.6596 87.4075 38.893 87.3499 33.1552C87.3211 29.0896 87.2922 24.9954 87.9266 20.9875C88.1283 19.6325 88.4456 18.2195 89.2528 17.0951C89.8873 16.2013 90.9541 15.538 92.0209 15.4805Z" fill="#F72F43"/>
<path d="M43.9567 16.5767V53.2235C42.5017 53.7327 41.2812 53.1772 40.9868 50.5997C40.266 44.9772 40.6408 39.297 41.0156 33.6458C41.3039 29.4939 41.5923 25.313 42.0247 21.161C42.2058 19.4426 42.5066 17.5999 43.9567 16.5767Z" fill="#F72F43"/>
<path d="M84.7837 34.8847C84.6396 35.1729 84.4666 35.4325 84.2359 35.6632V34.0486C84.2359 32.6069 83.0825 31.4535 81.6408 31.4535C80.1992 31.4535 79.046 32.6069 79.046 34.0486V37.1336C78.5558 37.1624 78.0656 37.1913 77.5754 37.2201V34.0486C77.5754 32.6069 76.3934 31.4535 74.9517 31.4535C73.5387 31.4535 72.3566 32.6069 72.3566 34.0486V37.5084C71.8665 37.5373 71.3762 37.5661 70.8861 37.595V34.0486C70.8861 32.6069 69.7329 31.4535 68.2912 31.4535C66.8496 31.4535 65.6962 32.6069 65.6962 34.0486V37.7968C65.2061 37.8257 64.7158 37.8544 64.1968 37.8544V34.0486C64.1968 32.6069 63.0436 31.4535 61.6019 31.4535C60.1603 31.4535 59.0069 32.6069 59.0069 34.0486V37.7968C58.5168 37.7968 58.0266 37.768 57.5364 37.7103V34.0486C57.5364 32.6069 56.3543 31.4535 54.9415 31.4535C53.4998 31.4535 52.3176 32.6069 52.3176 34.0486V37.0472C51.8274 36.9319 51.3085 36.8164 50.847 36.6435V34.0486C50.847 31.9801 48.59 30.804 46.9258 31.8284C46.9835 31.3094 47.1854 30.7615 47.5025 30.329H84.4955C84.6396 30.848 84.7549 31.3958 84.8703 31.9436C85.0433 32.924 85.2163 33.962 84.7837 34.8847Z" fill="#F72F43"/>
<path d="M83.1026 73.8328V83.5001C83.1026 84.1677 82.5686 84.7019 81.9276 84.7019H52.9525C52.7388 84.328 52.6053 83.9275 52.4718 83.5C50.9116 78.5049 55.9274 74.6182 60.2697 73.8328C67.8006 72.4708 75.5451 72.6845 83.1026 73.8328Z" fill="#FF9F1C"/>
<path d="M73.4651 63.8427C75.6631 64.5068 76.4704 61.9028 73.9517 60.7319C73.3668 60.46 72.6841 60.2996 72.079 60.5228C69.9085 61.3231 72.3148 63.4951 73.4651 63.8427Z" fill="#E2212E"/>
<path d="M80.22 62.2186C80.5586 61.9577 80.5048 61.3314 79.7745 60.9918C79.532 60.8791 79.249 60.8126 78.9981 60.9051C77.93 61.299 79.5563 62.7298 80.22 62.2186Z" fill="#E2212E"/>
<path d="M73.6122 81.0634C73.9557 81.1662 74.3927 81.2073 74.6114 80.9232C75.2164 80.1377 73.0141 78.3442 72.1663 78.1941C71.2506 78.0319 70.7311 78.967 71.2496 79.697C71.7175 80.3558 72.8767 80.8433 73.6122 81.0634Z" fill="#F58210"/>
<path d="M67.8378 80.5617C68.5645 80.7792 69.0959 80.1846 67.5683 79.0509C66.4351 78.2099 65.9346 79.1416 66.3197 79.6838C66.6204 80.1071 67.3652 80.4203 67.8378 80.5617Z" fill="#F58210"/>
</svg>
