<svg width="83" height="11" viewBox="0 0 83 11" fill="none" xmlns="http://www.w3.org/2000/svg">
<path d="M5.82275 8.65681L8.29007 10.1491C8.74192 10.4226 9.29483 10.0183 9.17593 9.507L8.52194 6.7008L10.7039 4.81018C11.1022 4.46535 10.8882 3.81136 10.365 3.76974L7.49339 3.52599L6.36973 0.874363C6.16758 0.39279 5.47792 0.39279 5.27578 0.874363L4.15211 3.52004L1.28051 3.7638C0.757324 3.80542 0.543292 4.4594 0.94163 4.80423L3.12357 6.69485L2.46958 9.50105C2.35068 10.0124 2.90359 10.4166 3.35544 10.1431L5.82275 8.65681Z" fill="#FFC530"/>
<path d="M20.0923 8.65681L22.5596 10.1491C23.0114 10.4226 23.5644 10.0183 23.4455 9.507L22.7915 6.7008L24.9734 4.81018C25.3717 4.46535 25.1577 3.81136 24.6345 3.76974L21.7629 3.52598L20.6393 0.874363C20.4371 0.39279 19.7475 0.39279 19.5453 0.874363L18.4216 3.52004L15.55 3.7638C15.0269 3.80542 14.8128 4.4594 15.2112 4.80423L17.3931 6.69485L16.7391 9.50105C16.6202 10.0124 17.1731 10.4166 17.625 10.1431L20.0923 8.65681Z" fill="#FFC530"/>
<path d="M34.3608 8.65681L36.8282 10.1491C37.28 10.4226 37.8329 10.0183 37.714 9.507L37.06 6.7008L39.242 4.81018C39.6403 4.46535 39.4263 3.81136 38.9031 3.76974L36.0315 3.52599L34.9078 0.874363C34.7057 0.39279 34.016 0.39279 33.8139 0.874363L32.6902 3.52004L29.8186 3.7638C29.2954 3.80542 29.0814 4.4594 29.4797 4.80423L31.6617 6.69485L31.0077 9.50105C30.8888 10.0124 31.4417 10.4166 31.8935 10.1431L34.3608 8.65681Z" fill="#FFC530"/>
<path d="M48.6304 8.65681L51.0977 10.1491C51.5495 10.4226 52.1024 10.0183 51.9835 9.507L51.3296 6.7008L53.5115 4.81018C53.9098 4.46535 53.6958 3.81136 53.1726 3.76974L50.301 3.52599L49.1773 0.874363C48.9752 0.39279 48.2855 0.39279 48.0834 0.874363L46.9597 3.52004L44.0881 3.7638C43.5649 3.80542 43.3509 4.4594 43.7492 4.80423L45.9312 6.69485L45.2772 9.50105C45.1583 10.0124 45.7112 10.4166 46.1631 10.1431L48.6304 8.65681Z" fill="#FFC530"/>
<path d="M62.8989 8.65681L65.3662 10.1491C65.8181 10.4226 66.371 10.0183 66.2521 9.507L65.5981 6.7008L67.78 4.81018C68.1784 4.46535 67.9644 3.81136 67.4412 3.76974L64.5696 3.52599L63.4459 0.874363C63.2438 0.39279 62.5541 0.39279 62.352 0.874363L61.2283 3.52004L58.3567 3.7638C57.8335 3.80542 57.6195 4.4594 58.0178 4.80423L60.1997 6.69485L59.5458 9.50105C59.4268 10.0124 59.9798 10.4166 60.4316 10.1431L62.8989 8.65681Z" fill="#FFC530"/>
<path d="M77.1665 8.65681L79.6338 10.1491C80.0857 10.4226 80.6386 10.0183 80.5197 9.507L79.8657 6.7008L82.0476 4.81018C82.446 4.46535 82.2319 3.81136 81.7087 3.76974L78.8371 3.52598L77.7135 0.874363C77.5113 0.39279 76.8217 0.39279 76.6195 0.874363L75.4959 3.52004L72.6243 3.7638C72.1011 3.80542 71.887 4.4594 72.2854 4.80423L74.4673 6.69485L73.8133 9.50105C73.6944 10.0124 74.2473 10.4166 74.6992 10.1431L77.1665 8.65681Z" fill="url(#paint0_linear_200_1721)"/>
<defs>
<linearGradient id="paint0_linear_200_1721" x1="72.0791" y1="5.36199" x2="79.2135" y2="5.26946" gradientUnits="userSpaceOnUse">
<stop stop-color="#FFC530"/>
<stop offset="0.990698" stop-color="#FFC530"/>
<stop offset="1" stop-color="#817D7D"/>
</linearGradient>
</defs>
</svg>
